<?xml version="1.0" encoding="UTF-8"?>
<svg id="uuid-e3d1ded9-299a-4880-8e7e-d1beb7289ff0" data-name="Layer 1" xmlns="http://www.w3.org/2000/svg" width="101" height="101" xmlns:xlink="http://www.w3.org/1999/xlink" viewBox="0 0 101 101">
  <defs>
    <clipPath id="uuid-638efe2f-7423-4fe6-87de-e5ff3239b565">
      <rect width="101" height="101" fill="none"/>
    </clipPath>
  </defs>
  <g clip-path="url(#uuid-638efe2f-7423-4fe6-87de-e5ff3239b565)" fill="none">
    <g>
      <path d="m101,0H0v101h101V0Z" fill="#566e78"/>
      <path d="m80.517601013183594,51.029701232910156c1.560302734375,0,2.825096130371094-1.264900207519531,2.825096130371094-2.825202941894531,0-1.560298919677734-1.264793395996094-2.825199127197266-2.825096130371094-2.825199127197266s-2.825202941894531,1.264900207519531-2.825202941894531,2.825199127197266c0,1.560302734375,1.264900207519531,2.825202941894531,2.825202941894531,2.825202941894531Z" fill="#fff"/>
      <path d="m83.87249755859375,52.089199066162109c1.942298889160156.176502227783203,3.354904174804688,1.765701293945312,3.354904174804688,3.708000183105469v7.769199371337891c0,.529800415039062-.529701232910156,1.059501647949219-1.059501647949219,1.059501647949219-.529701232910156,0-1.059402465820312-.529701232910156-1.059402465820312-1.059501647949219v-6.709697723388672c0-.176601409912109,0-.529800415039062-.529701232910156-.529800415039062-.353195190429688,0-.353195190429688.353199005126953-.353195190429688.529800415039062v19.952800750732422c0,.882797241210938-.706298828125,1.589096069335938-1.589103698730469,1.589096069335938-.882896423339844,0-1.589195251464844-.706298828125-1.589195251464844-1.589096069335938v-11.477302551269531c0-.176597595214844,0-.529701232910156-.353103637695312-.529701232910156-.353195190429688,0-.353195190429688.353103637695312-.529800415039062.529701232910156v11.477302551269531c0,.882797241210938-.706199645996094,1.589096069335938-1.589096069335938,1.589096069335938-.882904052734375,0-1.589202880859375-.706298828125-1.589202880859375-1.589096069335938v-19.952800750732422c0-.176601409912109,0-.529800415039062-.353096008300781-.529800415039062-.529701232910156,0-.529701232910156.353199005126953-.529701232910156.529800415039062v6.709697723388672c0,.529800415039062-.529800415039062,1.059501647949219-1.059501647949219,1.059501647949219s-1.059402465820312-.529701232910156-1.059402465820312-1.059501647949219v-7.592597961425781c0-1.942298889160156,1.589103698730469-3.531501770019531,3.354904174804688-3.708099365234375h6.180000305175781c.176597595214844-.176502227783203.353195190429688-.176502227783203.353195190429688-.176502227783203Z" fill="#fff" fill-rule="evenodd"/>
      <path d="m58.622200012207031,52.265701293945312c1.462799072265625,0,2.648601531982422-1.185802459716797,2.648601531982422-2.648601531982422s-1.185802459716797-2.648601531982422-2.648601531982422-2.648601531982422-2.648601531982422,1.185802459716797-2.648601531982422,2.648601531982422,1.185802459716797,2.648601531982422,2.648601531982422,2.648601531982422Z" fill="#fff"/>
      <path d="m53.148998260498047,55.620700836181641l-2.118896484375,7.239498138427734s-.353103637695312,1.41259765625.706298828125,1.589103698730469c1.059497833251953.353195190429688,1.41259765625-.882801055908203,1.41259765625-.882801055908203l1.765800476074219-6.003501892089844s0-.529800415039062.353099822998047-.353199005126953c.353099822998047.176597595214844.176601409912109.529697418212891.176601409912109.529697418212891l-3.178298950195312,11.300701141357422h2.825099945068359v7.94580078125c0,.706298828125.706298828125,1.41259765625,1.41259765625,1.41259765625.706302642822266,0,1.412601470947266-.706298828125,1.412601470947266-1.41259765625v-7.94580078125h.706298828125v7.94580078125c0,.706298828125.529701232910156,1.41259765625,1.412601470947266,1.41259765625.706298828125,0,1.412601470947266-.706298828125,1.412601470947266-1.41259765625v-7.94580078125h2.825199127197266l-3.178401947021484-11.300701141357422s-.176498413085938-.529697418212891.176601409912109-.529697418212891c.353199005126953-.176601409912109.353199005126953.353199005126953.353199005126953.353199005126953l1.765701293945312,6.003501892089844s.353099822998047,1.235996246337891,1.412601470947266.882801055908203c1.059394836425781-.353103637695312.706298828125-1.589103698730469.706298828125-1.589103698730469l-2.118900299072266-7.239498138427734s-.882900238037109-2.118900299072266-2.472000122070312-2.118900299072266h-5.650402069091797c-1.41259765625.176498413085938-2.118900299072266,2.118900299072266-2.118900299072266,2.118900299072266Z" fill="#fff" fill-rule="evenodd"/>
      <path d="m42.730598449707031,52.265701293945312c1.462802886962891,0,2.648601531982422-1.185802459716797,2.648601531982422-2.648601531982422s-1.185798645019531-2.648601531982422-2.648601531982422-2.648601531982422c-1.462699890136719,0-2.648597717285156,1.185802459716797-2.648597717285156,2.648601531982422s1.185897827148438,2.648601531982422,2.648597717285156,2.648601531982422Z" fill="#fff"/>
      <path d="m37.257400512695312,55.620700836181641l-2.118900299072266,7.239498138427734s-.353099822998047,1.41259765625.706298828125,1.589103698730469c1.059501647949219.353195190429688,1.412601470947266-.882801055908203,1.412601470947266-.882801055908203l1.765800476074219-6.003501892089844s-.000099182128906-.529800415039062.353099822998047-.353199005126953c.353099822998047.176597595214844.176597595214844.529697418212891.176597595214844.529697418212891l-3.178398132324219,11.300701141357422h2.825199127197266v7.94580078125c0,.706298828125.529701232910156,1.41259765625,1.412601470947266,1.41259765625.706298828125,0,1.41259765625-.706298828125,1.41259765625-1.41259765625v-7.94580078125h.706302642822266v7.94580078125c0,.706298828125.529697418212891,1.41259765625,1.41259765625,1.41259765625.706302642822266,0,1.412601470947266-.706298828125,1.412601470947266-1.41259765625v-7.94580078125h2.825099945068359l-3.178298950195312-11.300701141357422s-.176601409912109-.529697418212891.176597595214844-.529697418212891c.353099822998047-.176601409912109.353099822998047.353199005126953.353099822998047.353199005126953l1.765800476074219,6.003501892089844s.353099822998047,1.235996246337891,1.412601470947266.882801055908203c1.059398651123047-.353103637695312.706298828125-1.589103698730469.706298828125-1.589103698730469l-2.118900299072266-7.239498138427734s-.706298828125-2.118900299072266-2.472099304199219-2.118900299072266h-5.650299072265625c-1.412601470947266.176498413085938-2.118900299072266,2.118900299072266-2.118900299072266,2.118900299072266Z" fill="#fff" fill-rule="evenodd"/>
      <path d="m70.10009765625,64.449203491210938c1.236099243164062,0,2.295501708984375-.882804870605469,2.295501708984375-2.118804931640625s-1.059402465820312-2.118900299072266-2.295501708984375-2.118900299072266c-1.236000061035156,0-2.295394897460938.882900238037109-2.295394897460938,2.118900299072266s1.059394836425781,2.118804931640625,2.295394897460938,2.118804931640625Z" fill="#fff" fill-rule="evenodd"/>
      <path d="m64.801902770996094,71.335601806640625c-.176605224609375.176597595214844-.176605224609375.882896423339844.353096008300781,1.059394836425781.706298828125.353202819824219.882904052734375-.353096008300781.882904052734375-.353096008300781l1.236000061035156-3.708099365234375s.176597595214844-.353103637695312.176597595214844,0v8.828697204589844c0,.706298828125.529701232910156,1.059501647949219,1.059402465820312,1.059501647949219.706298828125,0,1.059494018554688-.529800415039062,1.059494018554688-1.059501647949219v-3.531501770019531s0-.529693603515625.353103637695312-.529693603515625c.353202819824219,0,.353202819824219.529693603515625.353202819824219.529693603515625v3.531501770019531c0,.706298828125.529693603515625,1.059501647949219,1.059394836425781,1.059501647949219.706298828125,0,1.059501647949219-.529800415039062,1.059501647949219-1.059501647949219v-8.828697204589844c0-.353103637695312.176498413085938,0,.176498413085938,0l.882904052734375,2.648597717285156s.353096008300781,1.236099243164062.529701232910156,1.236099243164062c.353195190429688.176498413085938.882896423339844,0,1.059494018554688-.529800415039062.176506042480469-.176498413085938,0-.529701232910156-.176597595214844-.882797241210938,0,0-1.41259765625-3.354904174804688-1.589202880859375-3.884597778320312-.529693603515625-1.412605285644531-1.41259765625-1.412605285644531-2.295394897460938-1.412605285644531h-3.17840576171875c-1.236000061035156,0-1.589096069335938.706298828125-2.825096130371094,3.884605407714844.353096008300781.353096008300781-.176597595214844,1.942298889160156-.176597595214844,1.942298889160156Z" fill="#fff" fill-rule="evenodd"/>
      <path d="m18.893499374389648,51.029701232910156c1.560300827026367,0,2.825201034545898-1.264900207519531,2.825201034545898-2.825202941894531,0-1.560298919677734-1.264900207519531-2.825199127197266-2.825201034545898-2.825199127197266-1.560298919677734,0-2.825099945068359,1.264900207519531-2.825099945068359,2.825199127197266,0,1.560302734375,1.264801025390625,2.825202941894531,2.825099945068359,2.825202941894531Z" fill="#fff"/>
      <path d="m15.53849983215332,52.089199066162109c-1.942299842834473.176502227783203-3.354899406433105,1.765701293945312-3.354899406433105,3.708000183105469v7.769199371337891c0,.529800415039062.529699325561523,1.059501647949219,1.059399604797363,1.059501647949219.529800415039062,0,1.059499740600586-.529701232910156,1.059499740600586-1.059501647949219v-6.709697723388672c0-.176601409912109,0-.529800415039062.52970027923584-.529800415039062.353099822998047,0,.353099822998047.353199005126953.353099822998047.529800415039062v19.952800750732422c0,.882797241210938.706299781799316,1.589096069335938,1.589200019836426,1.589096069335938s1.589200973510742-.706298828125,1.589200973510742-1.589096069335938v-11.477302551269531c0-.176597595214844,0-.529701232910156.353099822998047-.529701232910156.353199005126953,0,.353199005126953.353103637695312.353199005126953.529701232910156v11.477302551269531c0,.882797241210938.706300735473633,1.589096069335938,1.589099884033203,1.589096069335938.882900238037109,0,1.589200973510742-.706298828125,1.589200973510742-1.589096069335938v-19.952800750732422c0-.176601409912109.176599502563477-.529800415039062.353099822998047-.529800415039062.529699325561523,0,.529699325561523.353199005126953.529699325561523.529800415039062v6.709697723388672c0,.529800415039062.529800415039062,1.059501647949219,1.059499740600586,1.059501647949219.529701232910156,0,1.05940055847168-.529701232910156,1.05940055847168-1.059501647949219v-7.592597961425781c0-1.942298889160156-1.412599563598633-3.531501770019531-3.354900360107422-3.708099365234375h-6.003499984741211q-.176499366760254-.176502227783203-.353099822998047-.176502227783203Z" fill="#fff" fill-rule="evenodd"/>
      <path d="m26.839300155639648,63.213298797607422c-.17650032043457-.176597595214844-.353099822998047-.353199005126953-.706199645996094-.353199005126953-.353200912475586,0-.706300735473633.353199005126953-.706300735473633.882900238037109v.353099822998047l2.118801116943359,4.061203002929688s.176599502563477.353195190429688.176599502563477.529693603515625v8.652107238769531c0,.706298828125.529699325561523,1.059494018554688,1.059499740600586,1.059494018554688.529699325561523,0,1.05940055847168-.529701232910156,1.05940055847168-1.059494018554688v-3.354904174804688s0-.529701232910156.353099822998047-.529701232910156c.353199005126953,0,.353199005126953.529701232910156.353199005126953.529701232910156v3.354904174804688c0,.706298828125.529701232910156,1.059494018554688,1.05940055847168,1.059494018554688.529701232910156,0,1.059501647949219-.529701232910156,1.059501647949219-1.059494018554688v-8.652107238769531c0-.176498413085938.176498413085938-.529693603515625.176498413085938-.529693603515625l2.118900299072266-3.708000183105469s.176601409912109-.529804229736328.176601409912109-.706302642822266c0-.353199005126953-.353103637695312-.882900238037109-.706302642822266-.882900238037109-.353099822998047,0-.529697418212891.176601409912109-.706298828125.353199005126953,0,0-1.059398651123047,1.942302703857422-1.412601470947266,2.295398712158203-.353099822998047.353202819824219-.706298828125.353202819824219-.706298828125.353202819824219h-2.825099945068359s-.353200912475586,0-.706300735473633-.353202819824219c-.176599502563477-.353096008300781-1.059499740600586-2.118896484375-1.236099243164062-2.295398712158203Z" fill="#fff" fill-rule="evenodd"/>
      <path d="m30.370800018310547,64.449203491210938c1.236099243164062,0,2.118900299072266-.882804870605469,2.118900299072266-2.118804931640625s-.882801055908203-2.118900299072266-2.118900299072266-2.118900299072266c-1.236000061035156,0-2.118799209594727.882900238037109-2.118799209594727,2.118900299072266s.88279914855957,2.118804931640625,2.118799209594727,2.118804931640625Z" fill="#fff" fill-rule="evenodd"/>
      <path d="m30.370199203491211,67.627700805664062l2.295400619506836,1.765701293945312,1.236000061035156,4.414398193359375h-7.239500045776367l1.236000061035156-4.414398193359375,2.472099304199219-1.765701293945312Z" fill="#fff" fill-rule="evenodd"/>
      <path d="m14.126299858093262,13.243100166320801v15.538399696350098h3.531500816345215V8.475589752197266h-2.825201034545898l-3.178299903869629,3.708010673522949v3.531499862670898l2.472000122070312-2.472000122070312Z" fill="#fff" fill-rule="evenodd"/>
      <path d="m30.017299652099609,11.830499649047852v5.297201156616211h-1.236099243164062v-8.475541114807129h1.412599563598633l1.589200973510742,4.944040298461914v-4.944040298461914h1.236000061035156v8.475541114807129h-1.236000061035156l-1.765701293945312-5.297201156616211Z" fill="#fff" fill-rule="evenodd"/>
      <path d="m33.902301788330078,15.00879955291748v-4.061199188232422c0-1.412569999694824.706298828125-2.295440673828125,2.118896484375-2.295440673828125,1.412601470947266,0,2.118900299072266.882870674133301,2.118900299072266,2.295440673828125v4.061199188232422c0,1.412600517272949-.706298828125,2.295500755310059-2.118900299072266,2.295500755310059-1.41259765625,0-2.118896484375-.882900238037109-2.118896484375-2.295500755310059Zm2.825199127197266.353100776672363v-4.590900421142578c0-.52970027923584-.176601409912109-.882829666137695-.706302642822266-.882829666137695-.529697418212891,0-.706298828125.353129386901855-.706298828125.882829666137695v4.590900421142578c0,.529799461364746.176601409912109.882900238037109.706298828125.882900238037109.529701232910156,0,.706302642822266-.353100776672363.706302642822266-.882900238037109Z" fill="#fff" fill-rule="evenodd"/>
      <path d="m28.781200408935547,20.835699081420898h2.118900299072266c1.589199066162109,0,2.118900299072266.706300735473633,2.118900299072266,1.942300796508789v1.76569938659668c0,1.236000061035156-.529701232910156,1.942300796508789-2.118900299072266,1.942300796508789h-.706300735473633v2.825199127197266h-1.412599563598633v-8.475500106811523Zm1.589199066162109,1.05940055847168v3.354900360107422h.529701232910156c.52979850769043,0,.706298828125-.17650032043457.706298828125-.706300735473633v-1.942298889160156c0-.529701232910156-.17650032043457-.706300735473633-.706298828125-.706300735473633h-.529701232910156Z" fill="#fff" fill-rule="evenodd"/>
      <path d="m33.725601196289062,27.01569938659668v-4.061199188232422c0-1.412599563598633.706298828125-2.295400619506836,2.295398712158203-2.295400619506836,1.589199066162109,0,2.295501708984375.882801055908203,2.295501708984375,2.295400619506836v4.061199188232422c0,1.412601470947266-.706302642822266,2.295499801635742-2.295501708984375,2.295499801635742-1.589099884033203,0-2.295398712158203-1.059499740600586-2.295398712158203-2.295499801635742Zm3.001697540283203.176601409912109v-4.590900421142578c0-.529800415039062-.176498413085938-.882900238037109-.706298828125-.882900238037109-.529701232910156,0-.706298828125.353099822998047-.706298828125.882900238037109v4.590900421142578c0,.529699325561523.176597595214844.88279914855957.706298828125.88279914855957.529800415039062,0,.706298828125-.353099822998047.706298828125-.88279914855957Z" fill="#fff" fill-rule="evenodd"/>
      <path d="m43.260501861572266,20.835699081420898l-1.589202880859375,8.475500106811523h-1.765697479248047l-1.589202880859375-8.475500106811523h1.589202880859375l.882797241210938,5.826900482177734,1.059501647949219-5.826900482177734h1.412601470947266Z" fill="#fff" fill-rule="evenodd"/>
      <path d="m43.790000915527344,20.835699081420898h3.531497955322266v1.05940055847168h-2.118900299072266v2.472101211547852h1.412601470947266v1.059398651123047h-1.412601470947266v2.648599624633789h2.118900299072266v1.236000061035156h-3.531497955322266v-8.475500106811523Z" fill="#fff" fill-rule="evenodd"/>
      <path d="m49.440898895263672,25.426599502563477v3.884599685668945h-1.41259765625v-8.475500106811523h2.118900299072266c1.589199066162109,0,2.118900299072266.706300735473633,2.118900299072266,1.942300796508789v1.05940055847168c0,.882900238037109-.353202819824219,1.412599563598633-1.236000061035156,1.589199066162109l1.41259765625,3.884599685668945h-1.589199066162109l-1.412601470947266-3.884599685668945Zm0-3.531499862670898v2.648599624633789h.529701232910156c.529701232910156,0,.706298828125-.176498413085938.706298828125-.706298828125v-1.236000061035156c0-.529701232910156-.176597595214844-.706300735473633-.706298828125-.706300735473633h-.529701232910156Z" fill="#fff" fill-rule="evenodd"/>
      <path d="m52.619098663330078,20.835699081420898h3.708103179931641v1.05940055847168h-1.236000061035156v7.416099548339844h-1.412601470947266v-7.416099548339844h-1.059501647949219v-1.05940055847168Z" fill="#fff" fill-rule="evenodd"/>
      <path d="m59.681598663330078,25.956300735473633v3.354898452758789h-1.41259765625v-3.354898452758789l-1.412601470947266-5.120601654052734h1.412601470947266l.706298828125,3.178300857543945h.176601409912109l.706298828125-3.178300857543945h1.412601470947266l-1.589202880859375,5.120601654052734Z" fill="#fff" fill-rule="evenodd"/>
      <rect x="24" y="7" width="54" height="28" fill="#566e78"/>
      <path d="m29.308599472045898,9.3125v5.6875h-1.101598739624023v-4.796899795532227h-1.175800323486328l-.019500732421875,2.085999488830566c-.00779914855957.497400283813477-.046899795532227.917900085449219-.117198944091797,1.261700630187988-.06770133972168.34369945526123-.166601181030273.623700141906738-.29680061340332.839799880981445-.130300521850586.213600158691406-.292999267578125.368499755859375-.488300323486328.464900016784668-.19529914855957.09630012512207-.423200607299805.144499778747559-.683599472045898.144499778747559h-.273500442504883v-.882800102233887h.156299591064453c.127599716186523-.012999534606934.22920036315918-.050800323486328.30470085144043-.113300323486328.078100204467773-.065099716186523.13800048828125-.166699409484863.179698944091797-.304699897766113.044200897216797-.140599250793457.074201583862305-.324199676513672.089799880981445-.550799369812012.015600204467773-.229100227355957.026100158691406-.515600204467773.031301498413086-.85930061340332l.023399353027344-2.97659969329834h3.371099472045898Zm3.640600204467773,0h1.101600646972656v5.6875h-1.101600646972656v-3.628899574279785l-1.613300323486328,3.628899574279785h-1.097599029541016v-5.6875h1.097599029541016v3.632800102233887l1.613300323486328-3.632800102233887Zm3.804698944091797,3.35159969329834h-.456996917724609v2.33590030670166h-1.097702026367188v-5.6875h1.097702026367188v2.503899574279785h.269496917724609l1.488300323486328-2.503899574279785h1.269500732421875l-1.695301055908203,2.738300323486328,1.761699676513672,2.949199676513672h-1.273399353027344l-1.363300323486328-2.33590030670166Zm3.164100646972656,2.33590030670166v-5.6875h1.910099029541016c.309902191162109,0,.591201782226562.03125.843803405761719.09375.255199432373047.0625.472599029541016.157549858093262.652297973632812.285160064697266.179698944091797.127599716186523.317699432373047.289059638977051.414100646972656.484390258789062.098899841308594.195300102233887.148399353027344.425799369812012.148399353027344.691399574279785-.002597808837891.265600204467773-.074199676513672.503900527954102-.214797973632812.714799880981445-.13800048828125.211000442504883-.342502593994141.371100425720215-.613300323486328.480500221252441.164096832275391.04170036315918.305999755859375.10420036315918.425800323486328.1875.119796752929688.08329963684082.218696594238281.182299613952637.296798706054688.296899795532227.080799102783203.112000465393066.139400482177734.235700607299805.175800323486328.371100425720215.039100646972656.132800102233887.058597564697266.27079963684082.058597564697266.413999557495117,0,.273500442504883-.046798706054688.514400482177734-.140598297119141.722700119018555s-.227901458740234.382800102233887-.402301788330078.52340030670166c-.17449951171875.14069938659668-.386798858642578.246099472045898-.636798858642578.316399574279785s-.531200408935547.105500221252441-.843700408935547.105500221252441h-2.074199676513672Zm1.10150146484375-2.507800102233887v1.621100425720215h.976600646972656c.29949951171875-.00260066986084.527297973632812-.07550048828125.683597564697266-.21880054473877.158802032470703-.14579963684082.238300323486328-.335899353027344.238300323486328-.570300102233887.002601623535156-.26039981842041-.067699432373047-.463500022888184-.21099853515625-.609399795532227-.143199920654297-.14579963684082-.364601135253906-.220000267028809-.66400146484375-.222599983215332h-1.02349853515625Zm0-.793000221252441h.816398620605469c.304698944091797-.002599716186523.539100646972656-.066399574279785.703201293945312-.191399574279785.163997650146484-.125.247398376464844-.308600425720215.25-.550800323486328,0-.265600204467773-.082099914550781-.455699920654297-.246101379394531-.570300102233887-.164100646972656-.117199897766113-.401100158691406-.177099227905273-.71099853515625-.179699897766113h-.8125v1.492199897766113Zm6.343799591064453-2.386699676513672h1.10150146484375v5.6875h-1.10150146484375v-3.628899574279785l-1.613300323486328,3.628899574279785h-1.097698211669922v-5.6875h1.097698211669922v3.632800102233887l1.613300323486328-3.632800102233887Zm6.031200408935547,7.085899353027344h-.945301055908203v-1.398399353027344h-2.152297973632812v1.398399353027344h-.925800323486328l-.171901702880859-2.28119945526123h.21099853515625c.119701385498047-.0625.223903656005859-.149800300598145.3125-.261699676513672.0885009765625-.112000465393066.162700653076172-.263100624084473.222602844238281-.453200340270996.059898376464844-.192699432373047.108097076416016-.430899620056152.144500732421875-.714799880981445.0364990234375-.286499977111816.0625-.63539981842041.078197479248047-1.046899795532227l.156200408935547-2.328100204467773h2.808601379394531v4.804699897766113h.417999267578125l-.156299591064453,2.28119945526123Zm-2.125-4.75779914855957c-.01300048828125.304699897766113-.032501220703125.58080005645752-.058601379394531.82819938659668-.023399353027344.247300148010254-.054698944091797.472599983215332-.093700408935547.675700187683105-.039100646972656.200600624084473-.084598541259766.381500244140625-.136699676513672.543000221252441-.052101135253906.158900260925293-.109397888183594.30210018157959-.171897888183594.429699897766113h1.230499267578125v-3.91409969329834h-.675800323486328l-.093799591064453,1.4375Zm5.867198944091797,2.171899795532227h-1.707000732421875l-.335899353027344,1.1875h-1.156299591064453l1.863300323486328-5.6875h.996101379394531l1.828098297119141,5.6875h-1.156200408935547l-.332099914550781-1.1875Zm-1.4375-.933600425720215h1.179698944091797l-.581996917724609-2.09369945526123-.597702026367188,2.09369945526123Zm3.359401702880859-3.566399574279785h1.093700408935547v4.804699897766113h1.550796508789062v-4.804699897766113h1.101600646972656v4.808600425720215h.738300323486328l-.078197479248047,2.249999046325684h-1.015602111816406v-1.371099472045898h-3.390598297119141v-5.6875Zm7.523399353027344,0h1.101600646972656v5.6875h-1.101600646972656v-3.628899574279785l-1.613197326660156,3.628899574279785h-1.097702026367188v-5.6875h1.097702026367188v3.632800102233887l1.613197326660156-3.632800102233887Zm4.632797241210938,5.6875v-2.238300323486328h-.878898620605469l-1.070297241210938,2.238300323486328h-1.175804138183594l1.230499267578125-2.570300102233887c-.302093505859375-.148499488830566-.532493591308594-.34119987487793-.691398620605469-.578100204467773-.156196594238281-.239599227905273-.234397888183594-.52869987487793-.234397888183594-.867199897766113,0-.273499488830566.048202514648438-.514299392700195.144599914550781-.722700119018555.096298217773438-.20829963684082.234298706054688-.382789611816406.41400146484375-.523419380187988.182296752929688-.140620231628418.402397155761719-.246089935302734.660194396972656-.316400527954102.257804870605469-.072919845581055.546905517578125-.109379768371582.867202758789062-.109379768371582h1.835899353027344v5.6875h-1.101600646972656Zm-1.72259521484375-3.949199676513672c0,.296899795532227.082000732421875.516900062561035.24609375.660099983215332.16400146484375.14069938659668.411399841308594.210999488830566.742202758789062.210999488830566h.734298706054688v-1.718799591064453h-.734298706054688c-.338600158691406,0-.588600158691406.074199676513672-.75.222700119018555-.158897399902344.148399353027344-.238296508789062.356800079345703-.238296508789062.625Zm-40.226602554321289,12.949199676513672h-1.085899353027344v-2.464799880981445h-1.609401702880859v2.464799880981445h-1.089799880981445v-5.6875h1.089799880981445v2.332000732421875h1.609401702880859v-2.332000732421875h1.085899353027344v5.6875Zm3.683599472045898-5.6875h1.101600646972656v5.6875h-1.101600646972656v-3.628900527954102l-1.613300323486328,3.628900527954102h-1.097599029541016v-5.6875h1.097599029541016v3.63279914855957l1.613300323486328-3.63279914855957Zm3.046901702880859,0v4.80470085144043h.546897888183594v-4.80470085144043h1.035099029541016v4.80470085144043h.539100646972656v-4.80470085144043h1.066402435302734v4.816400527954102h.503898620605469l-.078098297119141,2.238300323486328h-1.003902435302734v-1.36720085144043h-3.679698944091797v-5.6875h1.070301055908203Zm7.429698944091797,3.19529914855957h-2.33599853515625v1.605501174926758h2.730499267578125v.886699676513672h-3.832000732421875v-5.6875h3.820301055908203v.894500732421875h-2.718799591064453v1.433599472045898h2.33599853515625v.867198944091797Zm5.484397888183594-2.300798416137695h-1.753997802734375v4.792999267578125h-1.10150146484375v-4.792999267578125h-1.730499267578125v-.894500732421875h4.58599853515625v.894500732421875Zm1.5,1.417999267578125h.246002197265625c.23699951171875,0,.446701049804688.040399551391602.628997802734375.121099472045898.182201385498047.078100204467773.334602355957031.190099716186523.457000732421875.335901260375977.125.145898818969727.218700408935547.321599960327148.281200408935547.527399063110352.065101623535156.203100204467773.097702026367188.430999755859375.097702026367188.683599472045898,0,.25-.035202026367188.480400085449219-.105503082275391.691400527954102-.067699432373047.20829963684082-.169197082519531.38800048828125-.304698944091797.538999557495117-.135398864746094.151100158691406-.301998138427734.268301010131836-.5.351600646972656-.197898864746094.08329963684082-.425701141357422.125-.683597564697266.125h-1.214801788330078v-5.6875h1.097698211669922v2.3125Zm3.113201141357422,3.375h-1.097599029541016v-5.6875h1.097599029541016v5.6875Zm-3.113201141357422-2.527299880981445v1.683500289916992h.179603576660156c.078197479248047,0,.144599914550781-.022100448608398.199298858642578-.066400527954102.057300567626953-.04680061340332.102798461914062-.10930061340332.136699676513672-.1875.036399841308594-.080699920654297.0625-.173099517822266.078098297119141-.277299880981445.015602111816406-.106800079345703.023403167724609-.220100402832031.023403167724609-.339799880981445,0-.114599227905273-.007801055908203-.221399307250977-.023403167724609-.320400238037109-.015598297119141-.098899841308594-.041698455810547-.184900283813477-.078098297119141-.25779914855957-.033901214599609-.072900772094727-.078102111816406-.13020133972168-.132801055908203-.17180061340332-.054698944091797-.04170036315918-.122398376464844-.0625-.203197479248047-.0625h-.179603576660156Z" fill="#fff"/>
    </g>
  </g>
</svg>