<?xml version="1.0" encoding="UTF-8"?>
<svg id="uuid-cae8a008-40cb-41fa-944e-591704145a4a" data-name="Layer 1" xmlns="http://www.w3.org/2000/svg" width="101" height="101" xmlns:xlink="http://www.w3.org/1999/xlink" viewBox="0 0 101 101">
  <defs>
    <clipPath id="uuid-98becd6f-a1ab-4c3c-aa93-9fcbf6d93e75">
      <rect width="101" height="101" fill="none"/>
    </clipPath>
  </defs>
  <g clip-path="url(#uuid-98becd6f-a1ab-4c3c-aa93-9fcbf6d93e75)" fill="none">
    <g>
      <path d="m101,0H0v101h101V0Z" fill="#566e78"/>
      <path d="m88.463892822265734,63.147003173828125c-2.649246520995803-3.714004516601562-14.65612701416012-18.749008178710938-37.081159973145077-18.749008178710938-22.424015808104741,0-34.430896301269058,14.858001708984375-37.080111999511246,18.749008178710938-.176768493652162.177001953125-.176768493652162.35400390625-.352489013672312.35400390625,0,.176986694335938.17572052002015.176986694335938.352489013672312.353988647460938,2.649215698242188,3.714004516601562,14.656096191406505,18.749008178710938,37.080111999511246,18.749008178710938,22.425032958984957,0,34.431913452149274-15.035003662109375,37.081159973145077-18.749008178710938.176737670898547-.177001953125.176737670898547-.353988647460938.352489013671402-.353988647460938-.175751342772855,0-.352489013671402-.177001953125-.352489013671402-.35400390625Zm-49.617267150879343-9.197998046875c.176737670898547-.35400390625.882732849121567-1.061004638671875.882732849121567-1.238006591796875.176737670898547-.177001953125.529226684569949-.35400390625.705995178222111-.35400390625.176737670898547,0,.530243835449255,0,.530243835449255.177001953125s-.176737670897637.885009765625-.176737670897637,1.061004638671875c-.353506164551618.35400390625-1.236239013672275.884994506835938-1.588728027344587.707992553710938-.353506164550708,0-.353506164550708-.176986694335938-.353506164550708-.353988647460938Zm-.882732849120657,1.591995239257812s.176737670898547,0,0,0c.352489013671402-.35400390625.882732849120657-.531005859375,1.411959533691515-.531005859375.353506164550708,0,.882732849120657.177001953125.882732849120657.35400390625s-1.058453369140807.7080078125-1.235221862792969.884994506835938c-.530243835449255.530014038085938-1.412976684569912,1.592010498046875-1.942234191894386,1.592010498046875h-.353475341797093c.529226684570858-.7080078125.882732849121567-1.592010498046875,1.236239013672275-2.300003051757812Zm8.474901123046948,17.335006713867188c-.352489013672312,1.237991333007812-.70599517822302,1.591995239257812-.882732849121567,1.944992065429688-.352489013671402.35400390625-1.411990356445131.884994506835938-2.119002685546548.884994506835938-.705964355468495,0-.882732849121567-1.945999145507812-.882732849121567-3.006988525390625,0-.35400390625-.529226684569949.707000732421875-.705995178222111-1.415008544921875-.176737670898547-1.237991333007812-1.059470520019204.177001953125-1.059470520019204-.707992553710938,0-.884002685546875-.53027465820378-.707000732421875-.882763671875182-1.238006591796875-.353475341797093-.530990600585938-.882732849121567,0-1.589714355469368.35400390625-.529257507323564.177001953125-.352489013671402.35400390625-1.235252685546584.177001953125-.706981506347802-1.945999145507812-1.236239013671366-3.891998291015625-1.236239013671366-6.014007568359375v-1.591995239257812s0-.177001953125.176768493652162-.177001953125c.882732849120657-1.061996459960938.882732849120657-1.237991333007812.882732849120657-1.237991333007812l.882732849121567-.35400390625s1.413007507323528.177001953125,2.648229370116496.707000732421875c.882732849121567.353988647460938,2.295740356446004,1.061996459960938,3.178473205566661.707992553710938.530243835449255-.177001953125,1.059470520020113-.530990600585938,1.059470520020113-1.060989379882812,0-.7080078125-.529226684570858-.7080078125-1.236239013672275-.35400390625-.17572052001924.177001953125-.705964355468495-.885009765625-1.059470520019204-.885009765625-.352489013672312,0,.353506164550708,1.239013671875.176737670897637,1.415008544921875-.352489013671402,0-.882732849120657-1.238006591796875-1.059470520019204-1.59100341796875-.176768493652162-.177001953125-.529257507324473-.707992553710938-1.059501342773729-.35400390625-.882732849120657.884002685546875-2.471460876464334.884002685546875-2.648229370116496,1.061004638671875-.882732849121567.7080078125-1.236239013672275-.177001953125-1.059470520020113-.707000732421875q0-.177001953125.176737670898547-.35400390625c.352489013672312-.353988647460938,1.411990356445131-.353988647460938,1.765465698242224-.177001953125.353506164550708.177001953125.70599517822302,0,.882763671875182-.176986694335938.176737670898547-.177001953125.176737670898547-.35400390625,0-.7080078125,0-.175994873046875.176737670898547-.352996826171875.353475341797093-.352996826171875.176768493652162,0,.882763671875182-.531005859375,1.236239013671366-.7080078125.352519836425927-.176986694335938,1.765496520996749-.353988647460938,2.294723205566697,0,.707012329101417.35400390625,1.236239013672275,0,1.589745178222984-.353988647460938.352489013671402-.529998779296875.882732849120657-.884002685546875,1.059501342772819-.884002685546875.176737670898547-.177001953125-.530243835449255-.884002685546875-1.236239013671366,0-.70599517822302.884002685546875-.882732849121567.884002685546875-1.236239013672275.884002685546875s-2.118971862792932-.529998779296875-2.295740356445094-1.061004638671875c-.175751342773765-.531005859375.530243835449255-1.061004638671875,1.236239013671366-1.414993286132812.707012329102326-.35400390625,2.47247802734455-.35400390625,3.001735534668114-.35400390625.882732849121567-.177001953125,2.118971862792932-.707000732421875,2.824967041015952-.352996826171875.530243835449255.352996826171875-2.471491699218859,1.060989379882812-1.588728027343677,1.767990112304688.353475341797093.177001953125,1.942234191894386-1.060989379882812,2.648198547362881-1.237991333007812,1.413007507324437-.707000732421875-1.235221862792969-.884002685546875-.882732849120657-2.29901123046875.353506164550708-1.591995239257812-3.178473205566661-1.061996459960938-5.120707397461047-.884994506835938,2.472478027343641-1.591995239257812,5.297475891113208-2.475997924804688,8.475918273925345-2.475997924804688,7.41644775390705,0,13.595608520507994,5.1300048828125,15.185353698730978,12.027999877929688v.707000732421875c-.176737670898547.530990600585938-1.236239013672275,1.061996459960938-1.765465698242224.177001953125-.176768493652162-.177001953125-.882732849121567-.884002685546875-.707012329101417.177001953125,0,1.061996459960938,1.059501342772819,1.237991333007812,0,1.768997192382812-1.059470520020113.707992553710938-1.235221862792969.530990600585938-1.588728027343677.707992553710938-.530243835449255.176010131835938-.882732849121567,1.238006591796875-.70599517822302,1.94500732421875.175751342773765.530990600585938,1.588728027343677,2.300003051757812.529257507324473,2.123001098632812-.176768493652162,0-2.118971862792932-1.238006591796875-2.471491699218859-2.123001098632812-.353475341797093-.884002685546875-.706981506347802-1.76800537109375-.883749999999964-2.298995971679688-.17572052001924-.7080078125-.882732849121567-.885009765625-1.411959533691515-.35400390625-.530243835449255.35400390625.176737670898547.707992553710938-.176768493652162,1.591995239257812-.353475341797093.884002685546875-.705964355468495,1.591995239257812-1.236239013672275.884002685546875-1.588728027343677-1.76800537109375-3.70769989013661-.884002685546875-4.061206054687318-2.830001831054688-.176737670898547-1.061004638671875-1.059470520019204-.884002685546875-1.942234191894386-1.591995239257812-.705964355468495-.529998779296875-1.236239013672275-.884002685546875-1.411959533691515-.529998779296875-.176768493652162.352996826171875,2.471460876465244,2.298995971679688,2.648198547362881,2.830001831054688.176768493653071.706985473632812-.705964355468495,1.414993286132812-1.589714355468459,1.591995239257812-.882763671875182.177001953125-1.058484191894422-.35400390625-1.765496520995839-1.238006591796875-.70599517822302-.884994506835938-1.059470520020113-1.238998413085938-1.059470520020113-.707992553710938,0,.884002685546875.706981506347802,2.123001098632812,1.412976684570822,2.652999877929688.70599517822302.35400390625,1.412976684569912.530990600585938,1.059501342773729,1.238998413085938-.176768493653071.707000732421875,0,.352996826171875-.70599517822302,1.061004638671875-.707012329101417.707000732421875-.883749999999964.883987426757812-.883749999999964,1.945999145507812,0,1.060989379882812-.175751342773765,1.060989379882812-.352489013672312,1.767990112304688-1.059501342772819.531005859375-1.236239013671366-.177001953125-1.589745178222074,1.06201171875Zm16.775098876953052-6.368011474609375c.529226684569949,0,1.236239013671366.707000732421875,1.059470520019204.884002685546875-.353506164550708.35400390625-1.059470520019204.177001953125-1.412976684569912-.177001953125-.529257507324473-.175994873046875,0-.707000732421875.353506164550708-.707000732421875Zm-.707012329101417-.353988647460938c-.175751342773765,0-.352489013672312-.177001953125-.352489013672312-.707000732421875-.176737670898547-.35400390625.176737670898547-.531005859375.529226684570858-.35400390625.353506164550708.177001953125.707012329101417.707000732421875.707012329101417.884002685546875-.176737670898547.177001953125-.707012329101417.177001953125-.883749999999964.177001953125Zm-6.886173095703271-.177001953125c-.352489013672312.353988647460938-1.059501342773729.177001953125-1.411990356445131-.177001953125-.353506164550708-.352996826171875.175751342772855-.884002685546875.529257507323564-.884002685546875.353475341797093.177001953125,1.236239013672275.884002685546875.882732849121567,1.061004638671875Zm-6.355929260254015,3.183990478515625c-.176768493652162.35400390625-.707012329101417,3.007003784179688-1.236239013672275,2.652999877929688-.353506164550708-.352996826171875.176737670898547-3.006988525390625.176737670898547-3.183990478515625.70599517822302-1.238006591796875,2.118971862792932-1.061004638671875,1.059501342773729.530990600585938Zm2.117954711913626,10.259002685546875c-1.588728027343677,0-3.00170471191359-.177001953125-4.41369506835872-.707000732421875-.176737670898547-.177001953125-.353506164550708-.35400390625-.176737670898547-.707992553710938.529226684569949-1.238006591796875,1.942234191894386-1.769012451171875,3.00170471191359-1.94500732421875,2.47247802734455-.177001953125,5.826702575684067,1.59100341796875,6.356946411133322,1.415008544921875.529226684569949-.35400390625,1.588728027343677-1.769012451171875,3.178473205566661-1.592010498046875,1.059470520019204,0,1.059470520019204.177001953125,1.411990356445131.352996826171875-2.471491699218859,1.946014404296875-5.826702575684067,3.184005737304688-9.358681945801436,3.184005737304688Zm10.948396301269895-4.5989990234375c-.176737670898547,0-.353475341797093,0-.530243835449255-.177001953125-.882732849120657-.352996826171875-.705995178222111.35400390625-1.236239013671366.177001953125-.352489013672312-.177001953125.530243835449255-1.061004638671875-.70599517822302-.352996826171875-1.236239013672275.884002685546875-.882732849121567-.177001953125-1.412976684569912-1.591995239257812-.529257507324473-1.415008544921875.706981506346892-3.007003784179688,1.589745178222074-3.361007690429688,1.411959533691515-.531005859375,2.118971862792932-.531005859375,2.824967041015952-.707992553710938,1.942234191894386-.530014038085938,2.295709533691479-1.592010498046875,2.648198547362881-.884002685546875,0,.177001953125.176768493652162.177001953125.176768493652162.353988647460938.176737670898547.177001953125.176737670898547.707000732421875.176737670898547,1.061004638671875-.705995178222111,2.123001098632812-1.942234191894386,3.891006469726562-3.530962219238063,5.483001708984375Zm4.236957397461083-7.958999633789062c-.352489013672312-.177001953125-2.117954711914535-2.477005004882812-.882732849121567-4.069000244140625.176737670898547-.177001953125-.529257507323564-1.061004638671875-.176768493652162-1.061004638671875.707012329101417,0,1.23626983642589.35400390625,1.413007507324437,1.061004638671875v.884994506835938c0,1.061004638671875,0,2.12200927734375-.353506164550708,3.184005737304688Z" fill="#fff" fill-rule="evenodd"/>
      <path d="m12.889613342284974,8.489997863769531v20.342002868652344h-3.530962219238063v-15.566001892089844l-2.472478027343641,2.476997375488281v-3.537994384765625l3.178473205566661-3.715003967285156h2.824967041015043Z" fill="#fff" fill-rule="evenodd"/>
      <path d="m24.190498657226271,12.735000610351562v1.768997192382812c0,1.769004821777344-.882732849120657,2.830001831054688-2.294723205565788,3.361000061035156,1.765496520995839.35400390625,2.471491699218859,1.592002868652344,2.471491699218859,3.538002014160156v3.007003784179688c0,2.830001831054688-1.588728027344587,4.5989990234375-4.9439697265625,4.5989990234375-3.530962219238972,0-4.767201232910338-1.945999145507812-4.767201232910338-5.1300048828125v-2.652999877929688h3.178473205565751v3.007003784179688c0,1.237991333007812.352489013672312,1.945999145507812,1.588728027344587,1.945999145507812,1.059501342772819,0,1.588728027343677-.7080078125,1.588728027343677-1.768997192382812v-3.361000061035156c0-1.061004638671875-.529226684570858-1.592002868652344-1.765465698242224-1.592002868652344h-1.41199035644604v-2.652999877929688h1.235252685547493c1.059470520019204,0,1.766482849120621-.530998229980469,1.766482849120621-1.592002868652344v-2.123001098632812c0-1.060997009277344-.353506164550708-1.768997192382812-1.413007507323528-1.768997192382812-1.059470520020113,0-1.412976684570822.708000183105469-1.412976684570822,1.945999145507812v2.123001098632812h-3.177456054687354v-1.768997192382812c0-3.007003784179688,1.235221862792969-5.1300048828125,4.767201232910338-5.1300048828125,3.178473205565751-.529998779296875,4.590432739257267,1.237998962402344,4.590432739257267,4.245002746582031Z" fill="#fff" fill-rule="evenodd"/>
      <path d="m31.077688903808848,14.680999755859375v-4.068000793457031c0-1.415000915527344.705995178222111-2.299995422363281,2.117985534668151-2.299995422363281,1.589745178222074,0,2.118971862792932.884994506835938,2.118971862792932,2.122993469238281v1.061004638671875h-1.41199035644604v-1.061004638671875c0-.530998229980469-.176737670898547-.883995056152344-.706981506346892-.883995056152344-.529257507324473,0-.70599517822302.352996826171875-.70599517822302.883995056152344v4.599006652832031c0,.530998229980469.176737670898547.883995056152344.70599517822302.883995056152344.530243835448346,0,.706981506346892-.352996826171875.706981506346892-.883995056152344v-1.592002868652344h1.41199035644604v1.415000915527344c0,1.237998962402344-.529226684570858,2.123001098632812-2.118971862792932,2.123001098632812-1.41199035644604,0-2.117985534668151-1.062004089355469-2.117985534668151-2.300003051757812Z" fill="#fff" fill-rule="evenodd"/>
      <path d="m36.197379150390589,8.313003540039062h1.411990356445131v7.252998352050781h1.76648284912153v1.237998962402344h-3.178473205566661v-8.490997314453125Z" fill="#fff" fill-rule="evenodd"/>
      <path d="m41.14233520507787,8.313003540039062h-1.236239013671366v8.490997314453125h1.236239013671366v-8.490997314453125Z" fill="#fff"/>
      <path d="m46.085287780761973,11.143997192382812l-1.059501342773729,5.660003662109375h-.705964355468495l-1.059501342773729-5.660003662109375v5.660003662109375h-1.236239013671366v-8.490997314453125h1.766482849120621l.882732849121567,4.775993347167969.882763671874272-4.775993347167969h1.765465698242224v8.490997314453125h-1.236239013671366v-5.660003662109375Z" fill="#fff" fill-rule="evenodd"/>
      <path d="m48.028539123534756,16.804000854492188l1.588728027344587-8.490997314453125h1.589745178222074l1.588728027343677,8.490997314453125h-1.413007507324437l-.17572052001924-1.592002868652344h-1.589745178222074l-.176768493653071,1.592002868652344h-1.411959533691515Zm1.765465698242224-2.830001831054688h1.059501342773729l-.530243835449255-3.361000061035156-.529257507324473,3.361000061035156Z" fill="#fff" fill-rule="evenodd"/>
      <path d="m52.618971862792932,8.313003540039062h3.884468383788771v1.061996459960938h-1.236239013671366v7.429000854492188h-1.412976684570822v-7.429000854492188h-1.235252685546584v-1.061996459960938Z" fill="#fff" fill-rule="evenodd"/>
      <path d="m57.21045257568403,8.313003540039062h3.354193725585901v1.061996459960938h-1.942234191895295v2.475997924804688h1.413007507324437v1.061004638671875h-1.413007507324437v2.653999328613281h1.942234191895295v1.237998962402344h-3.354193725585901v-8.490997314453125Z" fill="#fff" fill-rule="evenodd"/>
      <path d="m30.900951232910302,28.832000732421875l1.588728027343677-8.667999267578125h1.589745178222984l1.588728027343677,8.667999267578125h-1.413007507324437l-.17572052001924-1.591995239257812h-1.589745178222984l-.176737670898547,1.591995239257812h-1.411990356445131Zm1.765465698242224-2.830001831054688h1.059501342772819l-.530243835448346-3.538002014160156-.529257507324473,3.538002014160156Z" fill="#fff" fill-rule="evenodd"/>
      <path d="m36.197379150390589,26.531997680664062v-4.068000793457031c0-1.414993286132812.70599517822302-2.299995422363281,2.119002685546548-2.299995422363281,1.588728027343677,0,2.118971862792932.885002136230469,2.118971862792932,2.123001098632812v.883995056152344h-1.413007507323528v-1.060997009277344c0-.529998779296875-.176737670898547-.884002685546875-.705964355469405-.884002685546875-.53027465820287,0-.707012329101417.35400390625-.707012329101417.884002685546875v4.5989990234375c0,.531005859375.176737670898547.884994506835938.707012329101417.884994506835938.529226684570858,0,.705964355469405-.353988647460938.705964355469405-.884994506835938v-1.591995239257812h1.413007507323528v1.591995239257812c0,1.238006591796875-.530243835449255,2.123001098632812-2.118971862792932,2.123001098632812-1.589745178222074,0-2.119002685546548-1.061996459960938-2.119002685546548-2.300003051757812Z" fill="#fff" fill-rule="evenodd"/>
      <path d="m40.788859863281687,20.16400146484375h3.884437561035156v1.238998413085938h-1.236239013672275v7.429000854492188h-1.411959533691515v-7.429000854492188h-1.236239013671366v-1.238998413085938Z" fill="#fff" fill-rule="evenodd"/>
      <path d="m46.615531616211229,20.16400146484375h-1.411959533691515v8.667999267578125h1.411959533691515v-8.667999267578125Z" fill="#fff"/>
      <path d="m47.675032958984048,26.531997680664062v-4.068000793457031c0-1.414993286132812.70599517822302-2.299995422363281,2.118971862792932-2.299995422363281,1.413007507324437,0,2.118971862792932,1.061996459960938,2.118971862792932,2.299995422363281v4.068000793457031c0,1.415008544921875-.705964355468495,2.300003051757812-2.118971862792932,2.300003051757812-1.412976684569912,0-2.118971862792932-1.061996459960938-2.118971862792932-2.300003051757812Zm2.824967041015952.177001953125v-4.5989990234375c0-.529998779296875-.176737670898547-.884002685546875-.70599517822302-.884002685546875-.529226684569949,0-.705995178222111.35400390625-.705995178222111.884002685546875v4.5989990234375c0,.531005859375.176768493652162.884994506835938.705995178222111.884994506835938.529257507324473,0,.70599517822302-.353988647460938.70599517822302-.884994506835938Z" fill="#fff" fill-rule="evenodd"/>
      <path d="m53.854224548339516,23.347999572753906v5.484001159667969h-1.235252685546584v-8.667999267578125h1.411990356445131l1.589745178222984,4.9530029296875v-4.9530029296875h1.235221862792969v8.667999267578125h-1.235221862792969l-1.76648284912153-5.484001159667969Z" fill="#fff" fill-rule="evenodd"/>
      <rect x="31.3100000000004" y="8" width="43.429999999999382" height="27" fill="#566e78"/>
      <path d="m33.526957397461047,9.2030029296875h-2.607820739745875v1.21099853515625h.64740112304662c.331282958984048,0,.628229370116969.042999267578125.891825561523547.128997802734375.265630493164281.083000183105469.488848876952943.202003479003906.670641479491678.355003356933594.183826904297348.153999328613281.324224548339771.339996337890625.42217926025387.558998107910156.096968383789317.219001770019531.145452575683521.46099853515625.145452575683521.726997375488281,0,.270004272460938-.048484191894204.51800537109375-.145452575683521.74200439453125-.097954711914099.221000671386719-.238352355956522.410995483398438-.42217926025387.569999694824219-.181792602538735.15899658203125-.405010986327397.282997131347656-.670641479491678.370994567871094-.263596191406577.089004516601562-.560542602539499.133003234863281-.891825561523547.133003234863281h-1.759424438476344v-5.688003540039062h3.719844055175599v.891006469726562Zm-2.607820739745875,2.093994140625v1.819999694824219h.64740112304662c.173717041015152,0,.323207397460465-.024993896484375.449457397460719-.073997497558594.12927062988274-.050003051757812.235331726074037-.116996765136719.320155944824364-.2030029296875.086858520508031-.08599853515625.149490356445312-.185997009277344.188881835937536-.300994873046875.042412109374709-.114997863769531.063618164062063-.236000061035156.063618164062063-.362998962402344,0-.123001098632812-.021206054687354-.23699951171875-.063618164062063-.344001770019531-.039391479492224-.107002258300781-.102023315429506-.198997497558594-.188881835937536-.277000427246094-.084824218750327-.081001281738281-.190885314941625-.143997192382812-.320155944824364-.188003540039062-.126250000000255-.0469970703125-.275740356445567-.069999694824219-.449457397460719-.069999694824219h-.64740112304662Zm7.74871704101497.277000427246094c0,.365005493164062-.048484191894204.701004028320312-.145452575683521,1.008003234863281-.097954711914099.306999206542969-.238352355956522.571998596191406-.42217926025387.792999267578125-.18481323242122.221000671386719-.409048767089189.394996643066406-.67467926025347.519996643066406-.263596191406577.122001647949219-.560542602539499.183006286621094-.891825561523547.183006286621094s-.626195068359266-.061004638671875-.883749999999964-.183006286621094c-.257554931640698-.125-.474701232909865-.298995971679688-.651438903808412-.519996643066406-.175751342773765-.2239990234375-.310076904297603-.487998962402344-.401990356445822-.792999267578125-.091913452148219-.306999206542969-.13836334228472-.642997741699219-.13836334228472-1.008003234863281v-.827995300292969c0-.363998413085938.0464498901365-.700004577636719.13836334228472-1.008003234863281.091913452148219-.306999206542969.226239013672057-.570999145507812.401990356445822-.792999267578125.176737670898547-.2239990234375.391880493163626-.398002624511719.64740112304662-.523002624511719.257554931640698-.125.552467041015916-.187995910644531.883749999999964-.187995910644531.334303588867442,0,.632267150878761.062995910644531.895863342285338.187995910644531.265630493164281.125.48986602783225.299003601074219.67467926025347.523002624511719.183826904297348.222000122070312.324224548339771.486000061035156.42217926025387.792999267578125.096968383789317.307998657226562.145452575683521.644004821777344.145452575683521,1.008003234863281v.827995300292969Zm-1.124136657714189-.83599853515625c0-.230995178222656-.020188903808958-.444999694824219-.059580383301181-.639999389648438-.036370849609739-.195999145507812-.095951232910011-.363998413085938-.176768493652162-.503997802734375-.081803588866933-.140998840332031-.186847534179833-.25-.316118164062573-.3280029296875-.126250000000255-.081001281738281-.279778137207359-.121002197265625-.461570739746094-.121002197265625-.17877197265625,0-.329248657226344.040000915527344-.449457397460719.121002197265625-.121195068360066.0780029296875-.218163452148474.187004089355469-.291891479492733.3280029296875-.07372802734335.139999389648438-.126249999999345.307998657226562-.158552246093677.503997802734375-.031315917968641.194999694824219-.047467041015807.409004211425781-.047467041015807.639999389648438v.83599853515625c0,.22900390625.016151123047166.442001342773438.047467041015807.637001037597656.032302246094332.194999694824219.084824218750327.364997863769531.158552246093677.508003234863281.073728027344259.142997741699219.170696411132667.254997253417969.291891479492733.33599853515625.120208740234375.080001831054688.271702575683776.121002197265625.453495178222511.121002197265625.17877197265625,0,.331282958984048-.041000366210938.457532958984302-.121002197265625.12927062988274-.081001281738281.232311096191552-.192001342773438.312080383300781-.332000732421875.080817260742151-.143997192382812.141414794921729-.312995910644531.180806274413953-.508003234863281.039391479492224-.194999694824219.059580383301181-.40899658203125.059580383301181-.640998840332031v-.83599853515625Zm3.148174438476417,1.176002502441406v2.08599853515625h-1.108971862792714v-5.688003540039062h1.965443725585828c.313097534179178,0,.595896301269022.046005249023438.848396301269531.137001037597656.2524999999996.089004516601562.466625671386282.214004516601562.642377014160047.375.17877197265625.159004211425781.316118164062573.350006103515625.411052246093277.574005126953125.096968383789317.2239990234375.145452575683521.472999572753906.145452575683521.746994018554688,0,.2550048828125-.048484191894204.490005493164062-.145452575683521.707000732421875-.094934082030704.21600341796875-.232280273437027.402999877929688-.411052246093277.562004089355469-.175751342773765.155998229980469-.389877014160447.278999328613281-.642377014160047.366996765136719-.252500000000509.089004516601562-.535298767090353.133003234863281-.848396301269531.133003234863281h-.856471862793114Zm0-.890998840332031h.856471862793114c.157565917967986,0,.293925781249527-.023002624511719.410065917968495-.069999694824219.116140136718968-.047004699707031.212091369628979-.111000061035156.287853698730032-.191001892089844.078782958984448-.081001281738281.137346191406323-.173004150390625.173717041016062-.277999877929688.039391479492224-.106002807617188.059580383300272-.217002868652344.059580383300272-.332000732421875,0-.132003784179688-.020188903808048-.255996704101562-.059580383300272-.371002197265625-.036370849609739-.113998413085938-.094934082031614-.214996337890625-.173717041016062-.300994873046875-.075762329101053-.085006713867188-.171713562011064-.152999877929688-.287853698730032-.2030029296875-.116140136718968-.049003601074219-.252500000000509-.073997497558594-.410065917968495-.073997497558594h-.856471862793114v1.819999694824219Zm4.785386657714298-.609001159667969h.64740112304753c.331282958984048,0,.628229370116969.042999267578125.891825561523547.128997802734375.265630493163371.083000183105469.488848876952943.202003479003906.670641479491678.355003356933594.183826904297348.153999328613281.324224548339771.339996337890625.42217926025387.558998107910156.096968383789317.219001770019531.145452575683521.46099853515625.145452575683521.726997375488281,0,.270004272460938-.048484191894204.51800537109375-.145452575683521.74200439453125-.097954711914099.221000671386719-.238352355956522.410995483398438-.42217926025387.569999694824219-.181792602538735.15899658203125-.405010986328307.282997131347656-.670641479491678.370994567871094-.263596191406577.089004516601562-.560542602539499.133003234863281-.891825561523547.133003234863281h-1.759424438477254v-5.688003540039062h1.112023315429724v2.102005004882812Zm0,.88299560546875v1.819999694824219h.64740112304753c.173717041015152,0,.323207397460465-.024993896484375.449457397460719-.073997497558594.12927062988274-.050003051757812.235331726074037-.116996765136719.320155944824364-.2030029296875.086858520508031-.08599853515625.149490356445312-.185997009277344.188881835937536-.300994873046875.042412109374709-.114997863769531.063618164062063-.236000061035156.063618164062063-.362998962402344,0-.123001098632812-.021206054687354-.23699951171875-.063618164062063-.344001770019531-.039391479492224-.107002258300781-.102023315429506-.198997497558594-.188881835937536-.277000427246094-.084824218750327-.081001281738281-.190885314941625-.143997192382812-.320155944824364-.188003540039062-.126250000000255-.0469970703125-.275740356445567-.069999694824219-.449457397460719-.069999694824219h-.64740112304753Zm7.460863342285847-2.093994140625h-2.607820739746785v1.21099853515625h.64740112304753c.331282958984048,0,.628229370116969.042999267578125.890839233397855.128997802734375.265630493164281.083000183105469.489835205078634.202003479003906.671627807617369.355003356933594.183826904297348.153999328613281.324224548339771.339996337890625.42217926025387.558998107910156.096968383789317.219001770019531.145452575683521.46099853515625.145452575683521.726997375488281,0,.270004272460938-.048484191894204.51800537109375-.145452575683521.74200439453125-.097954711914099.221000671386719-.238352355956522.410995483398438-.42217926025387.569999694824219-.181792602538735.15899658203125-.405997314453089.282997131347656-.671627807617369.370994567871094-.262609863280886.089004516601562-.559556274413808.133003234863281-.890839233397855.133003234863281h-1.760410766602035v-5.688003540039062h3.720830383301291v.891006469726562Zm-2.607820739746785,2.093994140625v1.819999694824219h.64740112304753c.173717041015152,0,.323207397460465-.024993896484375.449457397460719-.073997497558594.12927062988274-.050003051757812.235331726074037-.116996765136719.319169616699583-.2030029296875.086858520507121-.08599853515625.150476684570094-.185997009277344.189868164062318-.300994873046875.042412109374709-.114997863769531.062631835937282-.236000061035156.062631835937282-.362998962402344,0-.123001098632812-.020219726562573-.23699951171875-.062631835937282-.344001770019531-.039391479492224-.107002258300781-.103009643555197-.198997497558594-.189868164062318-.277000427246094-.083837890625546-.081001281738281-.189898986816843-.143997192382812-.319169616699583-.188003540039062-.126250000000255-.0469970703125-.275740356445567-.069999694824219-.449457397460719-.069999694824219h-.64740112304753Zm6.565000000000509,1.514999389648438h-1.724070739745912l-.33935852050854,1.188003540039062h-1.167565917968204l1.881636657714807-5.688003540039062h1.005962219238427l1.846282958984375,5.688003540039062h-1.167565917969114l-.335320739745839-1.188003540039062Zm-1.451381835937354-.932998657226562h1.190806274414172l-.587820739746348-2.093994140625-.602985534667823,2.093994140625Zm-21.648330383301072,9.340003967285156c-.018185424804869.285995483398438-.081803588866933.543998718261719-.189868164062318.772994995117188-.1050439453129.22900390625-.24645874023463.425003051757812-.42523071289088.586006164550781-.179758300781032.161994934082031-.391880493163626.286994934082031-.639325561523037.375-.247445068359411.08599853515625-.521151123047275.128997802734375-.821118164062682.128997802734375-.339358520507631,0-.640342712402344-.060997009277344-.902952575684139-.183998107910156-.263596191405668-.125-.483793945311845-.298004150390625-.663552246093786-.519004821777344-.17877197265625-.2239990234375-.315131835936882-.491996765136719-.410065917968495-.805000305175781-.094934082030704-.311996459960938-.141414794921729-.655998229980469-.141414794921729-1.030998229980469v-.765998840332031c0-.376998901367188.04950134277351-.722000122070312.149490356445312-1.035003662109375.099989013671802-.311996459960938.242390136719223-.58099365234375.426217041015661-.803993225097656.183826904296438-.224006652832031.406028137206704-.398002624511719.666603698730796-.520004272460938.262609863280886-.125.557521972656104-.187995910644531.883749999999964-.187995910644531.316118164062573,0,.595896301269022.044998168945312.840320739745948.13299560546875.247445068359411.089004516601562.457532958984302.215003967285156.631249999999454.378997802734375.173717041016062.16400146484375.310076904297603.365005493164062.410065917969405.602005004882812s.163607177733866.503997802734375.189868164062318.800994873046875h-1.104934082030923c-.010109863281286-.169998168945312-.036370849609739-.3179931640625-.078782958984448-.445999145507812-.039391479492224-.126998901367188-.098971862793405-.232994079589844-.177754821777853-.315994262695312-.075762329101053-.086006164550781-.173717041015152-.150001525878906-.291891479491824-.192001342773438-.115153808594187-.043998718261719-.254534301758213-.066001892089844-.418141479492078-.066001892089844-.170696411132667,0-.319169616699583.036003112792969-.445419616699837.109001159667969-.126249999999345.072998046875-.232280273437027.180000305175781-.316118164062573.320999145507812-.081803588866933.139999389648438-.141414794921729.312995910644531-.181792602538735.518997192382812-.039391479492224.2030029296875-.05859405517549.435005187988281-.05859405517549.695999145507812v.773002624511719c0,.55999755859375.078782958984448.9739990234375.236348876953343,1.24200439453125.160586547851381.267997741699219.41308654785098.402999877929688.757499999999709.402999877929688.28985717773412,0,.518130493163881-.076004028320312.686792602538844-.227005004882812.168662109374964-.153999328613281.261592712402489-.4010009765625.279778137207359-.741996765136719h1.108971862792714Zm8.375929260253542-3.907005310058594h1.112023315429724v5.688003540039062h-1.112023315429724v-3.628997802734375l-1.629136657714298,3.628997802734375h-1.108971862792714v-5.688003540039062h1.108971862792714v3.633003234863281l1.629136657714298-3.633003234863281Zm6.213528137207504,1.543006896972656c0,.130996704101562-.021206054687354.255996704101562-.062631835937282.375-.039391479492224.1199951171875-.097954711914099.233993530273438-.173717041016062.339996337890625-.076748657226744.10400390625-.169679260253361.199996948242188-.279778137207359.285003662109375-.11108520507787.08599853515625-.236318054198819.160995483398438-.375698547362845.222999572753906.319138793945058.110000610351562.560542602539499.275993347167969.726184082031068.5.168662109374964.221000671386719.252500000000509.497993469238281.252500000000509.827995300292969,0,.265998840332031-.054556274414608.502998352050781-.165641479492479.71099853515625-.108064575195385.208999633789062-.258572082520004.384002685546875-.453495178222511.527999877929688-.191902465820931.140007019042969-.423196411133176.248001098632812-.694868164062427.324005126953125-.267664794921984.072998046875-.561559753417896.109001159667969-.879712219238172.109001159667969-.257554931640698,0-.513075561523692-.031005859375-.765575561524201-.094001770019531-.2524999999996-.06500244140625-.479756164550054-.16400146484375-.681768493652271-.295997619628906-.199978027343604-.136001586914062-.36358520507747-.308006286621094-.489835205077725-.516006469726562-.12322937011686-.208000183105469-.184844055175745-.458000183105469-.184844055175745-.75h1.112023315429724c0,.109001159667969.02422668456984.211006164550781.071693725585646.305000305175781.04950134277351.093002319335938.119191589355978.175003051757812.209070739746494.246002197265625.088892822265734.069999694824219.195940246581813.125999450683594.319169616698673.167999267578125.12322937011777.03900146484375.260575561524092.057998657226562.410065917969405.057998657226562.173717041015152,0,.328231506347038-.018997192382812.461570739746094-.057998657226562.134325561522928-.041999816894531.247445068359411-.0989990234375.339358520507631-.1719970703125s.161603698730687-.158004760742188.209070739745584-.254005432128906c.047467041015807-.0989990234375.071693725586556-.20599365234375.071693725586556-.319999694824219,0-.305000305175781-.086858520508031-.524993896484375-.260575561524092-.660995483398438-.170696411132667-.135002136230469-.423196411132267-.2030029296875-.757499999999709-.2030029296875h-.773651123046875v-.859001159667969h.773651123046875c.165641479492479,0,.306039123534902-.017997741699219.42217926025387-.055000305175781.118174438476672-.038993835449219.214125671386682-.093994140625.287853698730942-.163993835449219.075762329101053-.069999694824219.131304931640443-.153999328613281.165641479491569-.25.036370849609739-.099006652832031.05554260253939-.208000183105469.05554260253939-.3280029296875,0-.101997375488281-.020188903808958-.197998046875-.059580383301181-.28900146484375-.039391479492224-.094001770019531-.099989013671802-.174995422363281-.181792602538735-.241996765136719-.080817260742151-.068000793457031-.184844055175745-.121002197265625-.311094055176-.160003662109375-.124215698241642-.041999816894531-.270685424804469-.062995910644531-.442368164061918-.062995910644531-.131304931641353,0-.253517150878906.016998291015625-.366636657715389.050994873046875-.113119506835574.034004211425781-.212091369628979.082000732421875-.295929260253615.144004821777344-.081803588866933.062995910644531-.147456054687609.13800048828125-.196957397461119.226997375488281-.047467041015807.089004516601562-.071693725585646.187004089355469-.071693725585646.2969970703125h-1.107985534667932c0-.25.053539123535302-.4739990234375.161603698729778-.6719970703125.110098876953998-.197998046875.258572082520004-.365997314453125.445419616699837-.503997802734375s.402976684569694-.243003845214844.64740112304662-.316001892089844c.247445068359411-.075996398925781.509037780761901-.113998413085938.784778137207468-.113998413085938.318152465820276,0,.608009643554396.035995483398438.868585205077579.105995178222656.260575561523183.068000793457031.48077331543027.170005798339844.662565917969005.308006286621094.183826904296438.135993957519531.326228027343859.305000305175781.426217041015661.50799560546875.099989013671802.201004028320312.149490356445312.433998107910156.149490356445312.699005126953125Zm2.193717041015589-1.543006896972656l.544391479492333,2.137001037597656.619136657714989-2.137001037597656h1.37762298583948v5.688003540039062h-1.018075561523801v-1.683998107910156l.047467041015807-2.660003662109375-.753462219237917,2.469001770019531h-.548429260254125l-.67467926025347-2.362998962402344.047467041014897,2.554000854492188v1.683998107910156h-1.018075561522892v-5.688003540039062h1.376636657714698Zm7.026570739745694,3.196006774902344h-2.359358520507158v1.604995727539062h2.75829742431597v.887001037597656h-3.870320739745694v-5.688003540039062h3.858207397460319v.895004272460938h-2.746184082030595v1.433998107910156h2.359358520507158v.86700439453125Zm5.109580383301363,2.491996765136719h-1.096858520508249v-2.464996337890625h-1.626085205078198v2.464996337890625h-1.099909973144349v-5.688003540039062h1.099909973144349v2.333000183105469h1.626085205078198v-2.333000183105469h1.096858520508249v5.688003540039062Zm4.596504821776762-2.491996765136719h-2.359358520507158v1.604995727539062h2.757311096191188v.887001037597656h-3.870320739746603v-5.688003540039062h3.858207397461229v.895004272460938h-2.745197753905813v1.433998107910156h2.359358520507158v.86700439453125Zm5.108594055175672,2.491996765136719h-1.09685852050734v-2.464996337890625h-1.625098876953416v2.464996337890625h-1.100896301269131v-5.688003540039062h1.100896301269131v2.333000183105469h1.625098876953416v-2.333000183105469h1.09685852050734v5.688003540039062Zm3.720830383301291-5.688003540039062h1.112023315429724v5.688003540039062h-1.112023315429724v-3.628997802734375l-1.630122985839989,3.628997802734375h-1.107985534667932v-5.688003540039062h1.107985534667932v3.633003234863281l1.630122985839989-3.633003234863281Zm5.728717041015443,3.196006774902344h-2.359358520508067v1.604995727539062h2.757311096192097v.887001037597656h-3.870320739746603v-5.688003540039062h3.858207397461229v.895004272460938h-2.745197753906723v1.433998107910156h2.359358520508067v.86700439453125Zm2.67852813720674-3.196006774902344l.544391479492333,2.137001037597656.619136657714989-2.137001037597656h1.377622985840389v5.688003540039062h-1.018075561523801v-1.683998107910156l.047467041015807-2.660003662109375-.753462219238827,2.469001770019531h-.548429260253215l-.674679260254379-2.362998962402344.046480712891025,2.554000854492188v1.683998107910156h-1.01708923339902v-5.688003540039062h1.376636657714698Zm-53.091669616698709,12.352005004882812h-.461570739746094v2.33599853515625h-1.108971862792714v-5.688003540039062h1.108971862792714v2.503997802734375h.271702575683776l1.502886657714953-2.503997802734375h1.282688903807866l-1.711957397460537,2.738998413085938,1.77862701416052,2.949005126953125h-1.285740356445785l-1.376636657714698-2.33599853515625Zm7.037697753906286-3.352005004882812v5.688003540039062h-1.112023315429724v-4.7969970703125h-1.187754821777162l-.020188903808958,2.08599853515625c-.007089233398801.496994018554688-.046480712890116.917999267578125-.118174438476672,1.261993408203125-.06768676757838.344009399414062-.167675781250182.623001098632812-.299967041015407.840011596679688-.131304931640443.212997436523438-.295929260253615.367996215820312-.492886657714735.4639892578125-.196957397461119.097000122070312-.427234191894968.145004272460938-.690830383300636.145004272460938h-.275740356445567v-.88299560546875h.157565917968896c.12927062988274-.01300048828125.231293945312245-.051010131835938.30804260253899-.113006591796875.078782958984448-.06500244140625.139380493164026-.1669921875.181792602538735-.30499267578125.044446411133322-.139999389648438.074745178222656-.324005126953125.090896301269822-.551010131835938.015164794921475-.228988647460938.026260986328452-.514999389648438.031315917968641-.858993530273438l.023240356445058-2.977005004882812h3.404712219238718Zm3.677401123046366,0h1.112023315429724v5.688003540039062h-1.112023315429724v-3.628997802734375l-1.629136657714298,3.628997802734375h-1.108971862792714v-5.688003540039062h1.108971862792714v3.633010864257812l1.629136657714298-3.633010864257812Zm3.55420257568403,0l.544391479492333,2.137008666992188.620122985839771-2.137008666992188h1.376636657714698v5.688003540039062h-1.018075561523801v-1.684005737304688l.047467041015807-2.659988403320312-.753462219237917,2.468994140625h-.548429260254125l-.67467926025347-2.363006591796875.047467041014897,2.554000854492188v1.684005737304688h-1.018075561522892v-5.688003540039062h1.376636657714698Zm6.316537780761792,4.5h-1.724070739745912l-.33935852050854,1.188003540039062h-1.167565917968204l1.881636657714807-5.688003540039062h1.006948547363208l1.846282958984375,5.688003540039062h-1.168552246093896l-.335320739745839-1.188003540039062Zm-1.451381835937354-.932998657226562h1.191792602538953l-.587820739746348-2.093994140625-.603971862792605,2.093994140625Zm7.701250000000073-2.6719970703125h-1.771537780761719v4.792999267578125h-1.113009643555415v-4.792999267578125h-1.74731109619097v-.895004272460938h4.631858520508104v.895004272460938Zm3.456217041015407,3.604995727539062h-1.724070739745912l-.33935852050854,1.188003540039062h-1.167565917968204l1.881636657714807-5.688003540039062h1.005962219238427l1.846282958984375,5.688003540039062h-1.167565917969114l-.335320739745839-1.188003540039062Zm-1.452368164063046-.932998657226562h1.191792602539863l-.587820739746348-2.093994140625-.603971862793514,2.093994140625Z" fill="#fff"/>
    </g>
  </g>
</svg>