<?xml version="1.0" encoding="UTF-8"?>
<svg id="uuid-90ec754a-e894-4211-91e5-a091efc84cd7" data-name="Layer 1" xmlns="http://www.w3.org/2000/svg" width="101" height="101" xmlns:xlink="http://www.w3.org/1999/xlink" viewBox="0 0 101 101">
  <defs>
    <clipPath id="uuid-7ad4f304-cefa-4ab2-bcd4-ff5b09ca691e">
      <rect width="101" height="101" fill="none"/>
    </clipPath>
  </defs>
  <g clip-path="url(#uuid-7ad4f304-cefa-4ab2-bcd4-ff5b09ca691e)" fill="none">
    <g>
      <path d="m101,0H0v101h101V0Z" fill="#566e78"/>
      <path d="m76.102996826171875,52.35699462890625c-4.415008544921875-3.5369873046875-10.417999267578125-3.5369873046875-12.5369873046875-3.183990478515625h-.177001953125c-2.472015380859375.530990600585938-6.53302001953125,1.591995239257812-11.123992919921875,7.42999267578125h-.176025390625v.352996826171875l.176025390625.177001953125c.529998779296875.885009765625,1.235992431640625,2.300003051757812,1.9429931640625,3.361007690429688,0,.177001953125.175994873046875.177001953125.352996826171875.177001953125q.175994873046875,0,.175994873046875-.177001953125v-.177001953125c4.06201171875-5.660003662109375,7.416015625-6.544998168945312,9.535003662109375-7.074996948242188h.177001953125c1.058990478515625-.177001953125,5.4739990234375-.177001953125,8.652008056640625,2.298995971679688,2.47198486328125,1.945999145507812,3.707977294921875,4.9530029296875,3.707977294921875,9.197998046875,0,6.899002075195312-3.35498046875,9.552001953125-6.17999267578125,10.613006591796875-4.41400146484375,1.591995239257812-8.652008056640625-.531005859375-8.652008056640625-.531005859375l-.177001953125-.175994873046875c-2.47198486328125-1.06201171875-6.00299072265625-3.184005737304688-9.358001708984375-10.0830078125-6.885986328125-13.6199951171875-12.5369873046875-15.035003662109375-16.244979858398438-15.918991088867188h-.176010131835938c-1.7659912109375-.35400390625-7.593002319335938-.7080078125-12.360992431640625,3.006988525390625-2.472000122070312,1.94500732421875-5.2969970703125,5.837005615234375-5.2969970703125,12.735000610351562,0,4.246002197265625.88299560546875,7.076004028320312,3.179000854492188,10.0830078125.52899169921875.707000732421875,5.472991943359375,7.251998901367188,15.18499755859375,5.305999755859375,1.5889892578125-.35400390625,3.707992553710938-1.061004638671875,6.00299072265625-2.830001831054688l2.119003295898438,1.945999145507812c.177001953125.177001953125.352996826171875.177001953125.529998779296875,0v-.177001953125l1.589004516601562-9.552001953125v-.177001953125q0-.176986694335938-.175994873046875-.176986694335938h-.35400390625l-9.180999755859375,2.47698974609375h-.177001953125s-.177001953125,0-.177001953125.177001953125c-.175994873046875.177001953125-.175994873046875.352996826171875,0,.529998779296875h.177001953125l2.119003295898438,1.945999145507812c-1.413009643554688.884002685546875-2.472000122070312,1.238006591796875-3.355010986328125,1.415008544921875-7.06298828125,1.414993286132812-10.593994140625-3.361007690429688-10.593994140625-3.538009643554688-1.589996337890625-2.121994018554688-2.119003295898438-3.8909912109375-2.119003295898438-7.251998901367188,0-4.0679931640625,1.236007690429688-7.251998901367188,3.531005859375-9.197998046875,3.001998901367188-2.475997924804688,7.239990234375-2.475997924804688,8.475997924804688-2.121994018554688h.175994873046875c3.179000854492188.707000732421875,7.240005493164062,1.591995239257812,13.067001342773438,13.4429931640625,3.001998901367188,6.191009521484375,6.886001586914062,10.082000732421875,11.654006958007812,12.205001831054688.52899169921875.352996826171875,3.531005859375,1.591995239257812,7.238983154296875,1.591995239257812,1.589019775390625,0,3.355010986328125-.177001953125,5.121002197265625-.884994506835938,2.82501220703125-1.061004638671875,9.1820068359375-4.5989990234375,9.1820068359375-15.035003662109375,0-6.543991088867188-3.001983642578125-10.259002685546875-5.4739990234375-12.205001831054688Z" fill="#fff" fill-rule="evenodd"/>
      <path d="m10.06500244140625,13.265998840332031v15.566001892089844h3.530990600585938V8.489997863769531h-2.824996948242188l-3.177993774414062,3.715003967285156v3.537994384765625l2.472000122070312-2.476997375488281Z" fill="#fff" fill-rule="evenodd"/>
      <path d="m15.537994384765625,12.735000610351562v2.476997375488281h3.178009033203125v-2.652999877929688c0-1.238998413085938.529998779296875-1.591995239257812,1.412994384765625-1.591995239257812.706008911132812,0,1.236007690429688.352996826171875,1.236007690429688,1.591995239257812v1.592002868652344c0,1.767997741699219-.177001953125,2.298995971679688-1.236007690429688,3.537002563476562l-1.942001342773438,2.122993469238281c-1.9429931640625,1.944999694824219-2.472000122070312,3.361000061035156-2.472000122070312,5.306007385253906v3.714996337890625h9.0050048828125v-2.830001831054688h-5.649993896484375v-.884994506835938c0-1.592002868652344.52899169921875-2.122001647949219,1.4119873046875-3.184005737304688l2.119003295898438-2.298995971679688c1.766006469726562-1.945999145507812,2.119003295898438-3.184005737304688,2.119003295898438-5.1300048828125v-1.944999694824219c0-3.006996154785156-1.412994384765625-4.245994567871094-4.41400146484375-4.245994567871094-3.354995727539062,0-4.76800537109375,1.591995239257812-4.76800537109375,4.4219970703125Z" fill="#fff" fill-rule="evenodd"/>
      <path d="m33.725006103515625,13.088996887207031v3.892005920410156h-1.413009643554688v-8.491004943847656h2.119003295898438c1.412994384765625,0,1.9429931640625.708000183105469,1.9429931640625,1.945999145507812v1.061004638671875c0,.885002136230469-.352996826171875,1.415000915527344-1.05999755859375,1.591995239257812l1.413009643554688,3.892005920410156h-1.589004516601562l-1.412994384765625-3.892005920410156Zm0-3.536994934082031v2.652999877929688h.529998779296875c.529998779296875,0,.70599365234375-.177001953125.70599365234375-.708000183105469v-1.237998962402344c0-.530006408691406-.175994873046875-.707000732421875-.70599365234375-.707000732421875h-.529998779296875Z" fill="#fff" fill-rule="evenodd"/>
      <path d="m37.080001831054688,8.489997863769531h3.354995727539062v1.062004089355469h-1.942001342773438v2.475997924804688h1.412002563476562v1.237998962402344h-1.412002563476562v2.476997375488281h1.942001342773438v1.238006591796875h-3.354995727539062v-8.491004943847656Z" fill="#fff" fill-rule="evenodd"/>
      <path d="m40.787994384765625,15.035003662109375v-1.061004638671875h1.413009643554688v1.237998962402344c0,.529998779296875.175994873046875.707000732421875.70599365234375.707000732421875s.706008911132812-.352996826171875.706008911132812-.707000732421875v-.353996276855469c0-.530998229980469-.176010131835938-.707000732421875-.706008911132812-1.237998962402344l-.88299560546875-.885002136230469c-.88299560546875-.707000732421875-1.236007690429688-1.237998962402344-1.236007690429688-2.299003601074219v-.353996276855469c0-1.060997009277344.706008911132812-1.944999694824219,2.119003295898438-1.944999694824219,1.413009643554688,0,2.119003295898438.707000732421875,2.119003295898438,1.944999694824219v.708000183105469h-1.412994384765625v-.708000183105469c0-.529998779296875-.176010131835938-.707000732421875-.706008911132812-.707000732421875-.352996826171875,0-.70599365234375.177001953125-.70599365234375.707000732421875v.177001953125c0,.530998229980469.352996826171875.708000183105469.70599365234375,1.060997009277344l.88299560546875.885002136230469c.883010864257812.883995056152344,1.236007690429688,1.237998962402344,1.236007690429688,2.122001647949219v.353996276855469c0,1.237998962402344-.70599365234375,1.945999145507812-2.119003295898438,1.945999145507812-1.412994384765625,0-2.119003295898438-.530998229980469-2.119003295898438-1.591995239257812Z" fill="#fff" fill-rule="evenodd"/>
      <path d="m45.73199462890625,8.489997863769531h2.119003295898438c1.413009643554688,0,1.943008422851562.708000183105469,1.943008422851562,1.945999145507812v1.769004821777344c0,1.237998962402344-.529998779296875,1.945999145507812-1.943008422851562,1.945999145507812h-.70599365234375v2.830001831054688h-1.413009643554688v-8.491004943847656Zm1.413009643554688,1.062004089355469v3.360000610351562h.529998779296875c.52899169921875,0,.70599365234375-.176002502441406.70599365234375-.707000732421875v-1.945999145507812c0-.530006408691406-.177001953125-.707000732421875-.70599365234375-.707000732421875h-.529998779296875Z" fill="#fff" fill-rule="evenodd"/>
      <path d="m50.322998046875,14.680999755859375v-4.068000793457031c0-1.415000915527344.707000732421875-2.299995422363281,2.118988037109375-2.299995422363281,1.41302490234375,0,2.1190185546875,1.061996459960938,2.1190185546875,2.299995422363281v4.068000793457031c0,1.415000915527344-.70599365234375,2.300003051757812-2.1190185546875,2.300003051757812-1.4119873046875,0-2.118988037109375-1.062004089355469-2.118988037109375-2.300003051757812Zm2.82501220703125.177001953125v-4.5989990234375c0-.531005859375-.176025390625-.884002685546875-.706024169921875-.884002685546875s-.70599365234375.352996826171875-.70599365234375.884002685546875v4.5989990234375c0,.530998229980469.175994873046875.883995056152344.70599365234375.883995056152344s.706024169921875-.352996826171875.706024169921875-.883995056152344Z" fill="#fff" fill-rule="evenodd"/>
      <path d="m56.503997802734375,11.674003601074219v5.306999206542969h-1.235992431640625v-8.491004943847656h1.4119873046875l1.589019775390625,4.7760009765625v-4.7760009765625h1.235992431640625v8.491004943847656h-1.235992431640625l-1.7650146484375-5.306999206542969Z" fill="#fff" fill-rule="evenodd"/>
      <path d="m59.858001708984375,15.035003662109375v-1.061004638671875h1.412994384765625v1.237998962402344c0,.529998779296875.177001953125.707000732421875.70599365234375.707000732421875.529998779296875,0,.707000732421875-.352996826171875.707000732421875-.707000732421875v-.353996276855469c0-.530998229980469-.177001953125-.707000732421875-.707000732421875-1.237998962402344l-.88299560546875-.885002136230469c-.881988525390625-.707000732421875-1.235992431640625-1.237998962402344-1.235992431640625-2.299003601074219v-.353996276855469c0-1.060997009277344.707000732421875-1.944999694824219,2.118988037109375-1.944999694824219,1.41302490234375,0,2.1190185546875.707000732421875,2.1190185546875,1.944999694824219v.708000183105469h-1.412017822265625v-.708000183105469c0-.529998779296875-.177001953125-.707000732421875-.707000732421875-.707000732421875-.352996826171875,0-.70599365234375.177001953125-.70599365234375.707000732421875v.177001953125c0,.530998229980469.352996826171875.708000183105469.70599365234375,1.060997009277344l.88299560546875.885002136230469c.706024169921875.883995056152344,1.23602294921875,1.237998962402344,1.23602294921875,2.122001647949219v.353996276855469c0,1.237998962402344-.70599365234375,1.945999145507812-2.1190185546875,1.945999145507812-1.4119873046875.35400390625-2.118988037109375-.530998229980469-2.118988037109375-1.591995239257812Z" fill="#fff" fill-rule="evenodd"/>
      <path d="m66.03900146484375,8.489997863769531h-1.412994384765625v8.491004943847656h1.412994384765625v-8.491004943847656Z" fill="#fff"/>
      <path d="m66.7449951171875,8.489997863769531h2.1190185546875c1.412994384765625,0,1.941986083984375.708000183105469,1.941986083984375,1.945999145507812v.885002136230469c0,.707000732421875-.175994873046875,1.237998962402344-.88299560546875,1.415000915527344.707000732421875.176002502441406,1.05999755859375.707000732421875,1.05999755859375,1.415000915527344v1.060997009277344c0,1.237998962402344-.529998779296875,1.769004821777344-1.9420166015625,1.769004821777344h-2.295989990234375v-8.491004943847656Zm1.412994384765625,3.538002014160156h.529022216796875c.529998779296875,0,.707000732421875-.177001953125.707000732421875-.707000732421875v-1.061996459960938c0-.530006408691406-.177001953125-.707000732421875-.707000732421875-.707000732421875h-.529022216796875v2.475997924804688Zm0,1.060997009277344v2.653999328613281h.706024169921875c.529998779296875,0,.70599365234375-.176994323730469.70599365234375-.707992553710938v-1.238006591796875c0-.530998229980469-.175994873046875-.708000183105469-.70599365234375-.708000183105469h-.706024169921875Z" fill="#fff" fill-rule="evenodd"/>
      <path d="m71.33599853515625,8.489997863769531h1.412994384765625v7.252998352050781h1.7650146484375v1.238006591796875h-3.178009033203125v-8.491004943847656Z" fill="#fff" fill-rule="evenodd"/>
      <path d="m75.22100830078125,8.489997863769531h3.35498046875v1.062004089355469h-1.9429931640625v2.475997924804688h1.412994384765625v1.237998962402344h-1.412994384765625v2.476997375488281h1.9429931640625v1.238006591796875h-3.35498046875v-8.491004943847656Z" fill="#fff" fill-rule="evenodd"/>
      <path d="m32.311996459960938,26.708999633789062v-4.245002746582031c0-1.414993286132812.707000732421875-2.299995422363281,2.119003295898438-2.299995422363281,1.589996337890625,0,2.119003295898438.885002136230469,2.119003295898438,2.123001098632812v1.060997009277344h-1.412002563476562v-1.060997009277344c0-.531005859375-.177001953125-.884002685546875-.707000732421875-.884002685546875-.529006958007812,0-.70599365234375.352996826171875-.70599365234375.884002685546875v4.5989990234375c0,.531005859375.176986694335938.884002685546875.70599365234375.884002685546875.529998779296875,0,.707000732421875-.352996826171875.707000732421875-.884002685546875v-1.591995239257812h1.412002563476562v1.414993286132812c0,1.238006591796875-.529006958007812,2.123001098632812-2.119003295898438,2.123001098632812-1.412002563476562.177001953125-2.119003295898438-.884994506835938-2.119003295898438-2.123001098632812Z" fill="#fff" fill-rule="evenodd"/>
      <path d="m37.257003784179688,26.708999633789062v-4.245002746582031c0-1.414993286132812.70599365234375-2.299995422363281,2.119003295898438-2.299995422363281,1.4119873046875,0,2.118988037109375,1.061996459960938,2.118988037109375,2.299995422363281v4.245002746582031c0,1.414993286132812-.707000732421875,2.300003051757812-2.118988037109375,2.300003051757812-1.413009643554688,0-2.119003295898438-1.061996459960938-2.119003295898438-2.300003051757812Zm2.824996948242188.177001953125v-4.5989990234375c0-.531005859375-.177001953125-.884002685546875-.70599365234375-.884002685546875-.530014038085938,0-.707000732421875.352996826171875-.707000732421875.884002685546875v4.5989990234375c0,.531005859375.176986694335938.884002685546875.707000732421875.884002685546875.52899169921875,0,.70599365234375-.352996826171875.70599365234375-.884002685546875Z" fill="#fff" fill-rule="evenodd"/>
      <path d="m43.436996459960938,23.525001525878906v5.306999206542969h-1.235992431640625v-8.490997314453125h1.412994384765625l1.589004516601562,4.7760009765625v-4.7760009765625h1.235992431640625v8.490997314453125h-1.412994384765625l-1.589004516601562-5.306999206542969Z" fill="#fff" fill-rule="evenodd"/>
      <path d="m46.792007446289062,27.063003540039062v-1.238006591796875h1.412994384765625v1.238006591796875c0,.530990600585938.175994873046875.707992553710938.70599365234375.707992553710938s.706008911132812-.353988647460938.706008911132812-.707992553710938v-.35400390625c0-.529998779296875-.176010131835938-.884002685546875-.706008911132812-1.238006591796875l-.88299560546875-.883995056152344c-.88299560546875-.884994506835938-1.235992431640625-1.237998962402344-1.235992431640625-2.299995422363281v-.353004455566406c0-1.061996459960938.70599365234375-1.945999145507812,2.118988037109375-1.945999145507812,1.412002563476562,0,2.119003295898438.707000732421875,2.119003295898438,1.945999145507812v.707000732421875h-1.412994384765625v-.707000732421875c0-.530998229980469-.176010131835938-.708000183105469-.706008911132812-.708000183105469-.352996826171875,0-.70599365234375.177001953125-.70599365234375.708000183105469v.176002502441406c0,.530998229980469.352996826171875.708000183105469.70599365234375,1.238998413085938l.883010864257812.884002685546875c.70599365234375.884002685546875,1.235992431640625,1.237991333007812,1.235992431640625,2.298995971679688v.35400390625c0,1.237991333007812-.707000732421875,1.945999145507812-2.119003295898438,1.945999145507812-1.5889892578125.177001953125-2.118988037109375-.7080078125-2.118988037109375-1.768997192382812Z" fill="#fff" fill-rule="evenodd"/>
      <path d="m55.621002197265625,20.34100341796875v6.544998168945312c0,1.414993286132812-.529998779296875,2.123001098632812-2.118988037109375,2.123001098632812-1.589019775390625,0-2.1190185546875-.885009765625-2.1190185546875-2.123001098632812v-6.544998168945312h1.412017822265625v6.722000122070312c0,.530990600585938.176971435546875.884002685546875.707000732421875.884002685546875.52899169921875,0,.70599365234375-.353012084960938.70599365234375-.884002685546875v-6.722000122070312h1.412994384765625Z" fill="#fff" fill-rule="evenodd"/>
      <path d="m60.212005615234375,23.347999572753906l-.88299560546875,5.484001159667969h-.706024169921875l-1.05999755859375-5.484001159667969v5.484001159667969h-1.235992431640625v-8.490997314453125h1.5889892578125l1.060028076171875,4.7760009765625.88299560546875-4.7760009765625h1.764984130859375v8.490997314453125h-1.4119873046875v-5.484001159667969Z" fill="#fff" fill-rule="evenodd"/>
      <path d="m62.329986572265625,20.34100341796875h2.1190185546875c1.412994384765625,0,1.941986083984375.708000183105469,1.941986083984375,1.945999145507812v1.768997192382812c0,1.238006591796875-.52899169921875,1.945999145507812-1.941986083984375,1.945999145507812h-.70599365234375v2.830001831054688h-1.41302490234375v-8.490997314453125Zm1.41302490234375,1.238998413085938v3.360000610351562h.52899169921875c.529998779296875,0,.707000732421875-.176002502441406.707000732421875-.707000732421875v-1.945999145507812c0-.529998779296875-.177001953125-.707000732421875-.707000732421875-.707000732421875h-.52899169921875Z" fill="#fff" fill-rule="evenodd"/>
      <path d="m66.7449951171875,20.34100341796875h3.7080078125v1.238998413085938h-1.058990478515625v7.251998901367188h-1.41302490234375v-7.251998901367188h-1.235992431640625v-1.238998413085938Z" fill="#fff" fill-rule="evenodd"/>
      <path d="m72.394989013671875,20.34100341796875h-1.412994384765625v8.490997314453125h1.412994384765625v-8.490997314453125Z" fill="#fff"/>
      <path d="m73.10198974609375,26.708999633789062v-4.245002746582031c0-1.414993286132812.706024169921875-2.299995422363281,2.118011474609375-2.299995422363281,1.412994384765625,0,2.118988037109375,1.061996459960938,2.118988037109375,2.299995422363281v4.245002746582031c0,1.414993286132812-.70599365234375,2.300003051757812-2.118988037109375,2.300003051757812-1.4119873046875,0-2.118011474609375-1.061996459960938-2.118011474609375-2.300003051757812Zm2.82501220703125.177001953125v-4.5989990234375c0-.531005859375-.177001953125-.884002685546875-.707000732421875-.884002685546875-.52899169921875,0-.70599365234375.352996826171875-.70599365234375.884002685546875v4.5989990234375c0,.531005859375.177001953125.884002685546875.70599365234375.884002685546875.529998779296875,0,.707000732421875-.352996826171875.707000732421875-.884002685546875Z" fill="#fff" fill-rule="evenodd"/>
      <path d="m79.105010986328125,23.525001525878906v5.306999206542969h-1.23602294921875v-8.490997314453125h1.589019775390625l1.412994384765625,4.7760009765625v-4.7760009765625h1.235992431640625v8.490997314453125h-1.235992431640625l-1.7659912109375-5.306999206542969Z" fill="#fff" fill-rule="evenodd"/>
      <path d="m32.136993408203125,40.682998657226562l1.589004516601562-8.490005493164062h1.589004516601562l1.589004516601562,8.490005493164062h-1.412002563476562l-.177001953125-1.591995239257812h-1.589004516601562l-.177001953125,1.591995239257812h-1.412002563476562Zm1.764999389648438-2.652999877929688h1.236007690429688l-.529006958007812-3.360992431640625-.707000732421875,3.360992431640625Z" fill="#fff" fill-rule="evenodd"/>
      <path d="m38.669998168945312,35.376007080078125v5.306991577148438h-1.235992431640625v-8.490005493164062h1.4119873046875l1.589004516601562,4.952011108398438v-4.952011108398438h1.236007690429688v8.490005493164062h-1.236007690429688l-1.764999389648438-5.306991577148438Z" fill="#fff" fill-rule="evenodd"/>
      <path d="m46.615997314453125,34.49200439453125v3.8909912109375c0,1.238998413085938-.529998779296875,2.300003051757812-2.119003295898438,2.300003051757812h-2.118988037109375v-8.490005493164062h2.118988037109375c1.589004516601562,0,2.119003295898438,1.061004638671875,2.119003295898438,2.29901123046875Zm-2.295989990234375,5.129989624023438c.529998779296875,0,.88299560546875-.353988647460938.88299560546875-.884994506835938v-4.4219970703125c0-.529998779296875-.176010131835938-.884002685546875-.88299560546875-.884002685546875h-.529006958007812v6.190994262695312h.529006958007812Z" fill="#fff" fill-rule="evenodd"/>
      <path d="m48.205001831054688,32.1929931640625h2.119003295898438c1.412994384765625,0,2.118988037109375.707000732421875,2.118988037109375,1.94500732421875v1.768997192382812c0,1.238006591796875-.529998779296875,1.945999145507812-2.118988037109375,1.945999145507812h-.706008911132812v2.830001831054688h-1.412994384765625v-8.490005493164062Zm1.589004516601562,1.238006591796875v3.361007690429688h.529998779296875c.529998779296875,0,.70599365234375-.177001953125.70599365234375-.7080078125v-1.945999145507812c0-.529998779296875-.175994873046875-.707000732421875-.70599365234375-.707000732421875h-.529998779296875Z" fill="#fff" fill-rule="evenodd"/>
      <path d="m54.384002685546875,36.792007446289062v3.8909912109375h-1.412017822265625v-8.490005493164062h2.1190185546875c1.4119873046875,0,1.941986083984375.707000732421875,1.941986083984375,1.94500732421875v1.061996459960938c0,.884002685546875-.352996826171875,1.415008544921875-1.05999755859375,1.592010498046875l1.412994384765625,3.8909912109375h-1.412994384765625l-1.5889892578125-3.8909912109375Zm0-3.361007690429688v2.652999877929688h.529998779296875c.529998779296875,0,.70599365234375-.177001953125.70599365234375-.707992553710938v-1.238006591796875c0-.529998779296875-.175994873046875-.707000732421875-.70599365234375-.707000732421875h-.529998779296875Z" fill="#fff" fill-rule="evenodd"/>
      <path d="m57.56201171875,38.55999755859375v-4.0679931640625c0-1.415008544921875.707000732421875-2.29901123046875,2.295989990234375-2.29901123046875s2.295013427734375,1.061004638671875,2.295013427734375,2.29901123046875v4.0679931640625c0,1.415008544921875-.706024169921875,2.300003051757812-2.295013427734375,2.300003051757812s-2.295989990234375-.884994506835938-2.295989990234375-2.300003051757812Zm3.001983642578125.35400390625v-4.5989990234375c0-.529998779296875-.175994873046875-.884002685546875-.70599365234375-.884002685546875s-.70599365234375.35400390625-.70599365234375.884002685546875v4.5989990234375c0,.531005859375.175994873046875.884994506835938.70599365234375.884994506835938s.70599365234375-.353988647460938.70599365234375-.884994506835938Z" fill="#fff" fill-rule="evenodd"/>
      <path d="m66.920989990234375,34.49200439453125v3.8909912109375c0,1.238998413085938-.52899169921875,2.300003051757812-2.118988037109375,2.300003051757812h-2.118011474609375v-8.490005493164062h2.118011474609375c1.589996337890625,0,2.118988037109375,1.061004638671875,2.118988037109375,2.29901123046875Zm-2.29498291015625,5.129989624023438c.529998779296875,0,.88299560546875-.353988647460938.88299560546875-.884994506835938v-4.4219970703125c0-.529998779296875-.177001953125-.884002685546875-.88299560546875-.884002685546875h-.529998779296875v6.190994262695312h.529998779296875Z" fill="#fff" fill-rule="evenodd"/>
      <path d="m71.511993408203125,32.1929931640625v6.54400634765625c0,1.414993286132812-.52899169921875,2.123001098632812-1.941986083984375,2.123001098632812s-2.1190185546875-.884994506835938-2.1190185546875-2.123001098632812v-6.54400634765625h1.41302490234375v6.72100830078125c0,.531005859375.175994873046875.884994506835938.70599365234375.884994506835938s.70599365234375-.353988647460938.70599365234375-.884994506835938v-6.72100830078125h1.235992431640625Z" fill="#fff" fill-rule="evenodd"/>
      <path d="m72.218994140625,38.55999755859375v-4.0679931640625c0-1.415008544921875.70599365234375-2.29901123046875,2.1190185546875-2.29901123046875,1.5889892578125,0,2.118988037109375.884002685546875,2.118988037109375,2.12200927734375v1.061004638671875h-1.412994384765625v-1.061004638671875c0-.529998779296875-.177001953125-.884002685546875-.70599365234375-.884002685546875-.529998779296875,0-.707000732421875.35400390625-.707000732421875.884002685546875v4.5989990234375c0,.531005859375.177001953125.884994506835938.707000732421875.884994506835938.52899169921875,0,.70599365234375-.353988647460938.70599365234375-.884994506835938v-1.591995239257812h1.412994384765625v1.414993286132812c0,1.238006591796875-.529998779296875,2.123001098632812-2.118988037109375,2.123001098632812-1.41302490234375,0-2.1190185546875-.884994506835938-2.1190185546875-2.300003051757812Z" fill="#fff" fill-rule="evenodd"/>
      <path d="m76.80999755859375,32.1929931640625h3.884002685546875v1.238006591796875h-1.235992431640625v7.251998901367188h-1.412017822265625v-7.251998901367188h-1.235992431640625v-1.238006591796875Z" fill="#fff" fill-rule="evenodd"/>
      <path d="m82.459014892578125,32.1929931640625h-1.412017822265625v8.490005493164062h1.412017822265625v-8.490005493164062Z" fill="#fff"/>
      <path d="m83.165985107421875,38.55999755859375v-4.0679931640625c0-1.415008544921875.706024169921875-2.29901123046875,2.1190185546875-2.29901123046875,1.4119873046875,0,2.118988037109375,1.061004638671875,2.118988037109375,2.29901123046875v4.0679931640625c0,1.415008544921875-.707000732421875,2.300003051757812-2.118988037109375,2.300003051757812-1.412994384765625,0-2.1190185546875-.884994506835938-2.1190185546875-2.300003051757812Zm2.82501220703125.35400390625v-4.5989990234375c0-.529998779296875-.175994873046875-.884002685546875-.70599365234375-.884002685546875s-.70599365234375.35400390625-.70599365234375.884002685546875v4.5989990234375c0,.531005859375.175994873046875.884994506835938.70599365234375.884994506835938s.70599365234375-.353988647460938.70599365234375-.884994506835938Z" fill="#fff" fill-rule="evenodd"/>
      <path d="m89.34600830078125,35.376007080078125v5.306991577148438h-1.23602294921875v-8.490005493164062h1.41302490234375l1.5889892578125,4.952011108398438v-4.952011108398438h1.235992431640625v8.490005493164062h-1.235992431640625l-1.7659912109375-5.306991577148438Z" fill="#fff" fill-rule="evenodd"/>
      <rect x="28" y="4" width="73" height="37" fill="#566e78"/>
      <path d="m33.479995727539062,11.573997497558594c0,.365005493164062-.047988891601562.701004028320312-.143997192382812,1.008003234863281-.095993041992188.306999206542969-.235992431640625.571998596191406-.417999267578125.792999267578125s-.404998779296875.394996643066406-.667999267578125.519996643066406c-.259994506835938.122001647949219-.55499267578125.183006286621094-.88299560546875.183006286621094s-.620010375976562-.061004638671875-.875-.183006286621094c-.2550048828125-.125-.470001220703125-.298995971679688-.643997192382812-.519996643066406-.175003051757812-.2239990234375-.308013916015625-.487998962402344-.399002075195312-.792999267578125-.09100341796875-.306999206542969-.137008666992188-.642997741699219-.137008666992188-1.008003234863281v-.827995300292969c0-.363998413085938.046005249023438-.700004577636719.137008666992188-1.008003234863281.090988159179688-.306999206542969.2239990234375-.570999145507812.399002075195312-.792999267578125.173995971679688-.2239990234375.387985229492188-.398002624511719.639999389648438-.523002624511719.254989624023438-.125.5469970703125-.187995910644531.875-.187995910644531.33099365234375,0,.626998901367188.062995910644531.886993408203125.187995910644531.26300048828125.125.485992431640625.299003601074219.667999267578125.523002624511719.1820068359375.222000122070312.322006225585938.486000061035156.417999267578125.792999267578125.09600830078125.307998657226562.143997192382812.644004821777344.143997192382812,1.008003234863281v.827995300292969Zm-1.112991333007812-.83599853515625c0-.230995178222656-.018997192382812-.444999694824219-.057998657226562-.639999389648438-.037002563476562-.195999145507812-.095001220703125-.363998413085938-.176010131835938-.503997802734375-.08099365234375-.140998840332031-.18499755859375-.25-.31298828125-.3280029296875-.125-.081001281738281-.277008056640625-.121002197265625-.457000732421875-.121002197265625-.177001953125,0-.32501220703125.040000915527344-.44500732421875.121002197265625-.1199951171875.0780029296875-.21600341796875.187004089355469-.28900146484375.3280029296875-.072998046875.139999389648438-.125.307998657226562-.155990600585938.503997802734375-.032012939453125.194999694824219-.047012329101562.409004211425781-.047012329101562.639999389648438v.83599853515625c0,.22900390625.014999389648438.442001342773438.047012329101562.637001037597656.030990600585938.194999694824219.082992553710938.364997863769531.155990600585938.508003234863281.072998046875.142997741699219.16900634765625.254997253417969.28900146484375.33599853515625.1199951171875.080001831054688.270004272460938.121002197265625.449005126953125.121002197265625.177001953125,0,.3280029296875-.041000366210938.4530029296875-.121002197265625.12799072265625-.081001281738281.230987548828125-.192001342773438.308990478515625-.332000732421875.081008911132812-.143997192382812.141006469726562-.312995910644531.180007934570312-.508003234863281.03900146484375-.194999694824219.057998657226562-.40899658203125.057998657226562-.640998840332031v-.83599853515625Zm6.128997802734375-1.530998229980469h-1.753997802734375v4.792999267578125h-1.100997924804688v-4.792999267578125h-1.731002807617188v-.895004272460938h4.58599853515625v.895004272460938Zm.61700439453125,4.792999267578125v-5.688003540039062h1.909988403320312c.30999755859375,0,.592010498046875.032005310058594.844009399414062.094001770019531.254989624023438.063003540039062.472991943359375.158004760742188.652999877929688.285003662109375.179000854492188.127998352050781.317001342773438.28900146484375.41400146484375.485000610351562.0989990234375.194999694824219.147994995117188.425994873046875.147994995117188.690994262695312-.003005981445312.266006469726562-.074005126953125.504005432128906-.214996337890625.715003967285156-.13800048828125.21099853515625-.342010498046875.371002197265625-.613006591796875.479995727539062.16400146484375.041999816894531.305999755859375.105003356933594.425994873046875.188003540039062.119003295898438.083000183105469.218002319335938.181999206542969.297012329101562.2969970703125.080001831054688.11199951171875.138992309570312.236000061035156.17498779296875.371002197265625.03900146484375.133003234863281.059005737304688.271003723144531.059005737304688.41400146484375,0,.273002624511719-.0469970703125.513999938964844-.1409912109375.722999572753906-.093002319335938.208000183105469-.228012084960938.383003234863281-.402008056640625.523002624511719-.175003051757812.140998840332031-.386993408203125.245994567871094-.636993408203125.316993713378906-.25.069999694824219-.531005859375.105003356933594-.843002319335938.105003356933594h-2.074996948242188Zm1.10198974609375-2.508003234863281v1.621002197265625h.975997924804688c.300003051757812-.001998901367188.527999877929688-.074996948242188.684005737304688-.218002319335938.15899658203125-.14599609375.238006591796875-.33599853515625.238006591796875-.570999145507812.00299072265625-.259994506835938-.067001342773438-.462997436523438-.211013793945312-.609001159667969-.142990112304688-.14599609375-.363998413085938-.219993591308594-.663986206054688-.222999572753906h-1.02301025390625Zm0-.792999267578125h.816009521484375c.30499267578125-.001998901367188.53900146484375-.065994262695312.702987670898438-.190994262695312.16400146484375-.125.248001098632812-.309005737304688.25-.551002502441406,0-.265998840332031-.082000732421875-.456001281738281-.245986938476562-.569999694824219-.16400146484375-.11700439453125-.4010009765625-.177001953125-.711013793945312-.180000305175781h-.811996459960938v1.491996765136719Zm7.21099853515625.809005737304688h-2.33599853515625v1.604995727539062h2.730010986328125v.887001037597656h-3.832000732421875v-5.688003540039062h3.820999145507812v.895004272460938h-2.719009399414062v1.433998107910156h2.33599853515625v.86700439453125Zm5.4840087890625-2.301002502441406h-1.753997802734375v4.792999267578125h-1.10101318359375v-4.792999267578125h-1.730987548828125v-.895004272460938h4.58599853515625v.895004272460938Zm4.574005126953125,3.012001037597656c-.01800537109375.285995483398438-.08001708984375.543998718261719-.18701171875.772994995117188-.10400390625.22900390625-.2449951171875.425003051757812-.4219970703125.586006164550781-.177001953125.161994934082031-.38800048828125.286994934082031-.63299560546875.375-.2449951171875.08599853515625-.5150146484375.128997802734375-.81201171875.128997802734375-.33599853515625,0-.634002685546875-.060997009277344-.894989013671875-.183998107910156-.260009765625-.125-.47900390625-.298004150390625-.656005859375-.519004821777344-.177001953125-.2239990234375-.31298828125-.491996765136719-.406005859375-.805000305175781-.093994140625-.311996459960938-.1409912109375-.655998229980469-.1409912109375-1.030998229980469v-.765998840332031c0-.376998901367188.04998779296875-.722000122070312.14801025390625-1.035003662109375.0989990234375-.311996459960938.239990234375-.58099365234375.4219970703125-.803993225097656.1829833984375-.224006652832031.402984619140625-.398002624511719.660003662109375-.520004272460938.260986328125-.125.552978515625-.187995910644531.8759765625-.187995910644531.31201171875,0,.589019775390625.044998168945312.832000732421875.13299560546875.2440185546875.089004516601562.4530029296875.215003967285156.625.378997802734375.1710205078125.16400146484375.3070068359375.365005493164062.406005859375.602005004882812s.1610107421875.503997802734375.18701171875.800994873046875h-1.093017578125c-.010986328125-.169998168945312-.0369873046875-.3179931640625-.0789794921875-.445999145507812-.03900146484375-.126998901367188-.097015380859375-.232994079589844-.175018310546875-.315994262695312-.07598876953125-.086006164550781-.1719970703125-.150001525878906-.28900146484375-.192001342773438-.114990234375-.043998718261719-.25299072265625-.066001892089844-.41400146484375-.066001892089844-.16998291015625,0-.316986083984375.036003112792969-.441986083984375.109001159667969s-.22900390625.180000305175781-.31201171875.320999145507812c-.08099365234375.139999389648438-.1409912109375.312995910644531-.17999267578125.518997192382812-.03900146484375.2030029296875-.058990478515625.435005187988281-.058990478515625.695999145507812v.773002624511719c0,.55999755859375.0780029296875.9739990234375.2349853515625,1.24200439453125.15899658203125.267997741699219.40899658203125.402999877929688.75.402999877929688.2860107421875,0,.51300048828125-.076004028320312.67901611328125-.227005004882812.1669921875-.153999328613281.259002685546875-.4010009765625.277984619140625-.741996765136719h1.097015380859375Zm5.035980224609375-3.012001037597656h-1.753997802734375v4.792999267578125h-1.10198974609375v-4.792999267578125h-1.730010986328125v-.895004272460938h4.58599853515625v.895004272460938Zm.61700439453125,4.792999267578125v-5.688003540039062h1.910003662109375c.30999755859375,0,.59100341796875.032005310058594.843994140625.094001770019531.2550048828125.063003540039062.472015380859375.158004760742188.652008056640625.285003662109375.17999267578125.127998352050781.3179931640625.28900146484375.41400146484375.485000610351562.0989990234375.194999694824219.14801025390625.425994873046875.14801025390625.690994262695312-.00201416015625.266006469726562-.074005126953125.504005432128906-.214019775390625.715003967285156-.13800048828125.21099853515625-.342987060546875.371002197265625-.613983154296875.479995727539062.16400146484375.041999816894531.305999755859375.105003356933594.425994873046875.188003540039062s.218994140625.181999206542969.2969970703125.2969970703125c.08099365234375.11199951171875.139007568359375.236000061035156.175994873046875.371002197265625.03900146484375.133003234863281.058013916015625.271003723144531.058013916015625.41400146484375,0,.273002624511719-.0460205078125.513999938964844-.1400146484375.722999572753906-.093994140625.208000183105469-.227996826171875.383003234863281-.402984619140625.523002624511719-.17401123046875.140998840332031-.386016845703125.245994567871094-.636016845703125.316993713378906-.25.069999694824219-.531982421875.105003356933594-.843994140625.105003356933594h-2.074005126953125Zm1.10101318359375-2.508003234863281v1.621002197265625h.97698974609375c.29901123046875-.001998901367188.527008056640625-.074996948242188.683013916015625-.218002319335938.15899658203125-.14599609375.238983154296875-.33599853515625.238983154296875-.570999145507812.00201416015625-.259994506835938-.0679931640625-.462997436523438-.21099853515625-.609001159667969-.14300537109375-.14599609375-.364990234375-.219993591308594-.66400146484375-.222999572753906h-1.02398681640625Zm0-.792999267578125h.816986083984375c.30401611328125-.001998901367188.53900146484375-.065994262695312.7030029296875-.190994262695312s.24700927734375-.309005737304688.25-.551002502441406c0-.265998840332031-.082000732421875-.456001281738281-.246002197265625-.569999694824219-.16400146484375-.11700439453125-.4010009765625-.177001953125-.71099853515625-.180000305175781h-.81298828125v1.491996765136719Zm7.21099853515625.809005737304688h-2.33599853515625v1.604995727539062h2.730987548828125v.887001037597656h-3.832000732421875v-5.688003540039062h3.82000732421875v.895004272460938h-2.718994140625v1.433998107910156h2.33599853515625v.86700439453125Zm5.058990478515625,2.491996765136719h-1.08599853515625v-2.464996337890625h-1.6099853515625v2.464996337890625h-1.089019775390625v-5.688003540039062h1.089019775390625v2.333000183105469h1.6099853515625v-2.333000183105469h1.08599853515625v5.688003540039062Zm4.80401611328125,0h-1.08502197265625v-2.464996337890625h-1.6099853515625v2.464996337890625h-1.089996337890625v-5.688003540039062h1.089996337890625v2.333000183105469h1.6099853515625v-2.333000183105469h1.08502197265625v5.688003540039062Zm5.019989013671875-2.426002502441406c0,.365005493164062-.048004150390625.701004028320312-.144012451171875,1.008003234863281-.09698486328125.306999206542969-.235992431640625.571998596191406-.417999267578125.792999267578125-.1829833984375.221000671386719-.404998779296875.394996643066406-.667999267578125.519996643066406-.260986328125.122001647949219-.55499267578125.183006286621094-.88299560546875.183006286621094s-.6199951171875-.061004638671875-.875-.183006286621094c-.2550048828125-.125-.470001220703125-.298995971679688-.644989013671875-.519996643066406-.17401123046875-.2239990234375-.3070068359375-.487998962402344-.39801025390625-.792999267578125-.09100341796875-.306999206542969-.136993408203125-.642997741699219-.136993408203125-1.008003234863281v-.827995300292969c0-.363998413085938.045989990234375-.700004577636719.136993408203125-1.008003234863281.09100341796875-.306999206542969.2239990234375-.570999145507812.39801025390625-.792999267578125.17498779296875-.2239990234375.38800048828125-.398002624511719.6409912109375-.523002624511719.2550048828125-.125.5469970703125-.187995910644531.875-.187995910644531.33099365234375,0,.626007080078125.062995910644531.886993408203125.187995910644531.26300048828125.125.485015869140625.299003601074219.667999267578125.523002624511719.1820068359375.222000122070312.321014404296875.486000061035156.417999267578125.792999267578125.09600830078125.307998657226562.144012451171875.644004821777344.144012451171875,1.008003234863281v.827995300292969Zm-1.113006591796875-.83599853515625c0-.230995178222656-.019989013671875-.444999694824219-.058990478515625-.639999389648438-.0360107421875-.195999145507812-.095001220703125-.363998413085938-.175994873046875-.503997802734375-.08001708984375-.140998840332031-.18499755859375-.25-.31201171875-.3280029296875-.125-.081001281738281-.277008056640625-.121002197265625-.457000732421875-.121002197265625-.177001953125,0-.32598876953125.040000915527344-.44500732421875.121002197265625-.1199951171875.0780029296875-.21697998046875.187004089355469-.28997802734375.3280029296875-.072021484375.139999389648438-.125.307998657226562-.156005859375.503997802734375-.031005859375.194999694824219-.0469970703125.409004211425781-.0469970703125.639999389648438v.83599853515625c0,.22900390625.0159912109375.442001342773438.0469970703125.637001037597656s.083984375.364997863769531.156005859375.508003234863281c.072998046875.142997741699219.16998291015625.254997253417969.28997802734375.33599853515625.1190185546875.080001831054688.269012451171875.121002197265625.449005126953125.121002197265625.177001953125,0,.3280029296875-.041000366210938.4530029296875-.121002197265625.12701416015625-.081001281738281.230010986328125-.192001342773438.308013916015625-.332000732421875.08099365234375-.143997192382812.1409912109375-.312995910644531.17999267578125-.508003234863281.03900146484375-.194999694824219.058990478515625-.40899658203125.058990478515625-.640998840332031v-.83599853515625Zm5.449005126953125.770004272460938h-2.33599853515625v1.604995727539062h2.730010986328125v.887001037597656h-3.832000732421875v-5.688003540039062h3.82098388671875v.895004272460938h-2.718994140625v1.433998107910156h2.33599853515625v.86700439453125Zm-57.391006469726562,11.491996765136719h-1.097000122070312v-4.7969970703125h-1.6099853515625v4.7969970703125h-1.097000122070312v-5.688003540039062h3.803985595703125v5.688003540039062Zm5.008010864257812-2.426002502441406c0,.365005493164062-.048004150390625.701004028320312-.143997192382812,1.008003234863281-.097000122070312.306999206542969-.236007690429688.571998596191406-.417999267578125.792999267578125-.183013916015625.221000671386719-.405014038085938.394996643066406-.668014526367188.519996643066406-.260986328125.122001647949219-.55499267578125.183006286621094-.88299560546875.183006286621094s-.6199951171875-.061004638671875-.875-.183006286621094c-.254989624023438-.125-.470001220703125-.298995971679688-.645004272460938-.519996643066406-.173995971679688-.2239990234375-.306991577148438-.487998962402344-.397994995117188-.792999267578125-.09100341796875-.306999206542969-.136993408203125-.642997741699219-.136993408203125-1.008003234863281v-.827995300292969c0-.363998413085938.045989990234375-.700004577636719.136993408203125-1.008003234863281.09100341796875-.306999206542969.2239990234375-.570999145507812.397994995117188-.792999267578125.175003051757812-.2239990234375.38800048828125-.398002624511719.641006469726562-.523002624511719.2550048828125-.125.5469970703125-.187995910644531.875-.187995910644531.33099365234375,0,.626007080078125.062995910644531.886993408203125.187995910644531.26300048828125.125.485000610351562.299003601074219.668014526367188.523002624511719.181991577148438.222000122070312.320999145507812.486000061035156.417999267578125.792999267578125.095993041992188.307998657226562.143997192382812.644004821777344.143997192382812,1.008003234863281v.827995300292969Zm-1.113006591796875-.83599853515625c0-.230995178222656-.020004272460938-.444999694824219-.058990478515625-.639999389648438-.0360107421875-.195999145507812-.095001220703125-.363998413085938-.175003051757812-.503997802734375-.081008911132812-.140998840332031-.18499755859375-.25-.313003540039062-.3280029296875-.125-.081001281738281-.276992797851562-.121002197265625-.457000732421875-.121002197265625-.177001953125,0-.326004028320312.040000915527344-.444992065429688.121002197265625-.120010375976562.0780029296875-.21600341796875.187004089355469-.28900146484375.3280029296875-.073013305664062.139999389648438-.125.307998657226562-.157012939453125.503997802734375-.030990600585938.194999694824219-.0469970703125.409004211425781-.0469970703125.639999389648438v.83599853515625c0,.22900390625.016006469726562.442001342773438.0469970703125.637001037597656.032012939453125.194999694824219.083999633789062.364997863769531.157012939453125.508003234863281.072998046875.142997741699219.168991088867188.254997253417969.28900146484375.33599853515625.118988037109375.080001831054688.268997192382812.121002197265625.448989868164062.121002197265625.177001953125,0,.3280029296875-.041000366210938.4530029296875-.121002197265625.128005981445312-.081001281738281.229995727539062-.192001342773438.309005737304688-.332000732421875.080001831054688-.143997192382812.139999389648438-.312995910644531.179000854492188-.508003234863281.038986206054688-.194999694824219.058990478515625-.40899658203125.058990478515625-.640998840332031v-.83599853515625Zm6.128997802734375-1.530998229980469h-1.753997802734375v4.792999267578125h-1.10198974609375v-4.792999267578125h-1.730010986328125v-.895004272460938h4.58599853515625v.895004272460938Zm1.792999267578125,2.707000732421875v2.08599853515625h-1.097991943359375v-5.688003540039062h1.944992065429688c.310012817382812,0,.590011596679688.046005249023438.840011596679688.137001037597656.25.089004516601562.461990356445312.214004516601562.636993408203125.375.177001953125.159004211425781.311996459960938.350006103515625.406005859375.574005126953125.097000122070312.2239990234375.144989013671875.472999572753906.144989013671875.746994018554688,0,.2550048828125-.047988891601562.490005493164062-.144989013671875.707000732421875-.094009399414062.21600341796875-.22900390625.402999877929688-.406005859375.562004089355469-.175003051757812.155998229980469-.386993408203125.278999328613281-.636993408203125.366996765136719-.25.089004516601562-.529998779296875.133003234863281-.840011596679688.133003234863281h-.847000122070312Zm0-.890998840332031h.847000122070312c.157012939453125,0,.292007446289062-.023002624511719.407012939453125-.069999694824219.113998413085938-.047004699707031.208999633789062-.111000061035156.284988403320312-.191001892089844.0780029296875-.081001281738281.135009765625-.173004150390625.1719970703125-.277999877929688.03900146484375-.106002807617188.058013916015625-.217002868652344.058013916015625-.332000732421875,0-.132003784179688-.019012451171875-.255996704101562-.058013916015625-.371002197265625-.0369873046875-.113998413085938-.093994140625-.214996337890625-.1719970703125-.300994873046875-.07598876953125-.085006713867188-.170989990234375-.152999877929688-.284988403320312-.2030029296875-.115005493164062-.049003601074219-.25-.073997497558594-.407012939453125-.073997497558594h-.847000122070312v1.819999694824219Zm7.136016845703125.485000610351562h-2.335006713867188v1.604995727539062h2.729995727539062v.887001037597656h-3.832000732421875v-5.688003540039062h3.82000732421875v.895004272460938h-2.718002319335938v1.433998107910156h2.335006713867188v.86700439453125Zm4.988983154296875-2.305000305175781h-2.582000732421875v1.21099853515625h.6400146484375c.3280029296875,0,.62298583984375.042999267578125.88299560546875.128997802734375.26300048828125.083000183105469.4849853515625.202003479003906.66400146484375.355003356933594.1829833984375.153999328613281.321990966796875.339996337890625.417999267578125.558998107910156.09698486328125.219001770019531.144989013671875.46099853515625.144989013671875.726997375488281,0,.270004272460938-.048004150390625.51800537109375-.144989013671875.74200439453125-.09600830078125.221000671386719-.235015869140625.410995483398438-.417999267578125.569999694824219-.17901611328125.15899658203125-.4010009765625.282997131347656-.66400146484375.370994567871094-.260009765625.089004516601562-.55499267578125.133003234863281-.88299560546875.133003234863281h-1.74200439453125v-5.688003540039062h3.683990478515625v.891006469726562Zm-2.582000732421875,2.093994140625v1.819999694824219h.6400146484375c.1719970703125,0,.32098388671875-.024993896484375.44598388671875-.073997497558594.12701416015625-.050003051757812.233001708984375-.116996765136719.316009521484375-.2030029296875.08599853515625-.08599853515625.14898681640625-.185997009277344.18798828125-.300994873046875.041015625-.114997863769531.06201171875-.236000061035156.06201171875-.362998962402344,0-.123001098632812-.02099609375-.23699951171875-.06201171875-.344001770019531-.03900146484375-.107002258300781-.10198974609375-.198997497558594-.18798828125-.277000427246094-.0830078125-.081001281738281-.188995361328125-.143997192382812-.316009521484375-.188003540039062-.125-.0469970703125-.27398681640625-.069999694824219-.44598388671875-.069999694824219h-.6400146484375Zm7.5-2.985000610351562v5.688003540039062h-1.10198974609375v-4.7969970703125h-1.175994873046875l-.019012451171875,2.08599853515625c-.00799560546875.497001647949219-.0469970703125.917999267578125-.11700439453125,1.262001037597656-.0679931640625.343994140625-.1669921875.623001098632812-.2969970703125.839996337890625-.1300048828125.212997436523438-.292999267578125.368003845214844-.488006591796875.464004516601562-.19598388671875.097000122070312-.423980712890625.144996643066406-.683990478515625.144996643066406h-.27398681640625v-.883003234863281h.156982421875c.12701416015625-.01300048828125.22900390625-.050994873046875.30401611328125-.112998962402344.0789794921875-.064994812011719.13800048828125-.166999816894531.17999267578125-.305000305175781.04400634765625-.139999389648438.074005126953125-.323997497558594.089996337890625-.550994873046875.0159912109375-.22900390625.0260009765625-.514999389648438.031005859375-.859001159667969l.02398681640625-2.977005004882812h3.371002197265625Zm4.50799560546875,3.196006774902344h-2.33599853515625v1.604995727539062h2.730010986328125v.887001037597656h-3.832000732421875v-5.688003540039062h3.82000732421875v.895004272460938h-2.718017578125v1.433998107910156h2.33599853515625v.86700439453125Zm5.058013916015625,2.491996765136719h-1.08599853515625v-2.464996337890625h-1.6090087890625v2.464996337890625h-1.089996337890625v-5.688003540039062h1.089996337890625v2.333000183105469h1.6090087890625v-2.333000183105469h1.08599853515625v5.688003540039062Zm3.683990478515625-5.688003540039062h1.10101318359375v5.688003540039062h-1.10101318359375v-3.628997802734375l-1.613983154296875,3.628997802734375h-1.097015380859375v-5.688003540039062h1.097015380859375v3.633003234863281l1.613983154296875-3.633003234863281Zm5.6719970703125,3.196006774902344h-2.33599853515625v1.604995727539062h2.730010986328125v.887001037597656h-3.832000732421875v-5.688003540039062h3.82000732421875v.895004272460938h-2.718017578125v1.433998107910156h2.33599853515625v.86700439453125Zm-48.913986206054688,5.803993225097656h1.100997924804688v5.688003540039062h-1.100997924804688v-3.628997802734375l-1.613998413085938,3.628997802734375h-1.097000122070312v-5.688003540039062h1.097000122070312v3.633010864257812l1.613998413085938-3.633010864257812Zm10.741989135742188,5.688003540039062h-1.097991943359375v-4.7969970703125h-1.6090087890625v4.7969970703125h-1.097991943359375v-5.688003540039062h3.80499267578125v5.688003540039062Zm2.207000732421875-2.08599853515625v2.08599853515625h-1.097991943359375v-5.688003540039062h1.944992065429688c.310012817382812,0,.590011596679688.046005249023438.840011596679688.137008666992188.25.0889892578125.461990356445312.2139892578125.636993408203125.375.177001953125.15899658203125.311996459960938.349990844726562.406005859375.573989868164062.097000122070312.2239990234375.144989013671875.473007202148438.144989013671875.74700927734375,0,.254989624023438-.047988891601562.489990234375-.144989013671875.707000732421875-.094009399414062.215988159179688-.22900390625.402999877929688-.406005859375.561996459960938-.175003051757812.156005859375-.386993408203125.27899169921875-.636993408203125.36700439453125-.25.0889892578125-.529998779296875.13299560546875-.840011596679688.13299560546875h-.847000122070312Zm0-.891006469726562h.847000122070312c.157012939453125,0,.292007446289062-.022994995117188.407012939453125-.069992065429688.113998413085938-.0469970703125.208999633789062-.111007690429688.284988403320312-.191009521484375.0780029296875-.08099365234375.135009765625-.172988891601562.1719970703125-.277999877929688.03900146484375-.105987548828125.058013916015625-.216995239257812.058013916015625-.332000732421875,0-.131988525390625-.019012451171875-.255996704101562-.058013916015625-.370986938476562-.0369873046875-.113998413085938-.093994140625-.215011596679688-.1719970703125-.301010131835938-.07598876953125-.084991455078125-.170989990234375-.152999877929688-.284988403320312-.2030029296875-.115005493164062-.048995971679688-.25-.073989868164062-.407012939453125-.073989868164062h-.847000122070312v1.819992065429688Zm7.605010986328125.551010131835938c0,.364990234375-.048004150390625.70098876953125-.144012451171875,1.00799560546875-.09698486328125.3070068359375-.235992431640625.572006225585938-.417999267578125.792999267578125-.1829833984375.220993041992188-.404998779296875.395004272460938-.667999267578125.520004272460938-.260986328125.121994018554688-.55499267578125.182998657226562-.88299560546875.182998657226562s-.6199951171875-.061004638671875-.875-.182998657226562c-.2550048828125-.125-.470001220703125-.29901123046875-.645004272460938-.520004272460938-.173995971679688-.2239990234375-.306991577148438-.488006591796875-.397994995117188-.792999267578125-.09100341796875-.3070068359375-.136993408203125-.64300537109375-.136993408203125-1.00799560546875v-.8280029296875c0-.363998413085938.045989990234375-.699996948242188.136993408203125-1.00799560546875.09100341796875-.3070068359375.2239990234375-.570999145507812.397994995117188-.792999267578125.175003051757812-.224014282226562.38800048828125-.39801025390625.641006469726562-.52301025390625.2550048828125-.125.5469970703125-.188003540039062.875-.188003540039062.33099365234375,0,.626007080078125.063003540039062.886993408203125.188003540039062.26300048828125.125.485015869140625.298995971679688.667999267578125.52301025390625.1820068359375.222000122070312.321014404296875.485992431640625.417999267578125.792999267578125.09600830078125.307998657226562.144012451171875.643997192382812.144012451171875,1.00799560546875v.8280029296875Zm-1.113006591796875-.83599853515625c0-.231002807617188-.019989013671875-.44500732421875-.058990478515625-.639999389648438-.0360107421875-.196014404296875-.095001220703125-.364013671875-.175018310546875-.504013061523438-.08099365234375-.1409912109375-.18499755859375-.25-.31298828125-.327987670898438-.125-.081008911132812-.277008056640625-.121002197265625-.457000732421875-.121002197265625-.177001953125,0-.32501220703125.039993286132812-.44500732421875.121002197265625-.1199951171875.077987670898438-.215988159179688.186996459960938-.288986206054688.327987670898438-.073013305664062.139999389648438-.125.307998657226562-.157012939453125.504013061523438-.030990600585938.194992065429688-.045989990234375.40899658203125-.045989990234375.639999389648438v.83599853515625c0,.228988647460938.014999389648438.442001342773438.045989990234375.636993408203125.032012939453125.19500732421875.083999633789062.365005493164062.157012939453125.50799560546875.072998046875.14300537109375.168991088867188.2550048828125.288986206054688.33599853515625.1199951171875.080001831054688.269012451171875.121002197265625.449005126953125.121002197265625.177001953125,0,.3280029296875-.041000366210938.4530029296875-.121002197265625.12799072265625-.08099365234375.230987548828125-.191986083984375.308990478515625-.331985473632812.08001708984375-.144012451171875.1400146484375-.313003540039062.17901611328125-.508010864257812.03900146484375-.194992065429688.058990478515625-.40899658203125.058990478515625-.6409912109375v-.83599853515625Zm4.582000732421875-2.426010131835938h1.10198974609375v5.688003540039062h-1.10198974609375v-3.628997802734375l-1.613006591796875,3.628997802734375h-1.097991943359375v-5.688003540039062h1.097991943359375v3.633010864257812l1.613006591796875-3.633010864257812Zm6.152008056640625,1.542999267578125c0,.130996704101562-.02099609375.255996704101562-.06201171875.375-.03900146484375.120010375976562-.09698486328125.2340087890625-.1719970703125.340011596679688-.07598876953125.103988647460938-.167999267578125.199996948242188-.277008056640625.284988403320312-.1099853515625.08599853515625-.233001708984375.1610107421875-.371002197265625.223007202148438.31500244140625.110000610351562.55401611328125.2760009765625.718017578125.5.1669921875.220993041992188.25.498001098632812.25.8280029296875,0,.2659912109375-.05401611328125.50299072265625-.16400146484375.71099853515625-.10699462890625.208999633789062-.256011962890625.384002685546875-.449005126953125.527999877929688-.19000244140625.139999389648438-.41900634765625.248001098632812-.68798828125.323989868164062-.2650146484375.073013305664062-.555999755859375.1090087890625-.871002197265625.1090087890625-.2550048828125,0-.50701904296875-.031005859375-.75701904296875-.094009399414062-.25-.064987182617188-.475982666015625-.163986206054688-.675994873046875-.295989990234375-.197998046875-.136001586914062-.3599853515625-.307998657226562-.4849853515625-.516006469726562-.12200927734375-.207992553710938-.183013916015625-.457992553710938-.183013916015625-.75h1.10101318359375c0,.1090087890625.02398681640625.21099853515625.07098388671875.305007934570312.04901123046875.093002319335938.118011474609375.17498779296875.207000732421875.246002197265625.0880126953125.069992065429688.194000244140625.125991821289062.316009521484375.167999267578125.12298583984375.038986206054688.25799560546875.057998657226562.406005859375.057998657226562.1719970703125,0,.324981689453125-.019012451171875.457000732421875-.057998657226562.13299560546875-.042007446289062.2449951171875-.0989990234375.33599853515625-.172012329101562.09100341796875-.072998046875.160980224609375-.157989501953125.207000732421875-.253997802734375.0469970703125-.0989990234375.07098388671875-.20599365234375.07098388671875-.319992065429688,0-.305007934570312-.08599853515625-.525009155273438-.25799560546875-.6610107421875-.16900634765625-.134994506835938-.41900634765625-.202987670898438-.75-.202987670898438h-.7659912109375v-.8590087890625h.7659912109375c.16400146484375,0,.303009033203125-.017990112304688.417999267578125-.05499267578125.11700439453125-.03900146484375.212005615234375-.094009399414062.285003662109375-.16400146484375.07598876953125-.07000732421875.1300048828125-.154006958007812.16400146484375-.25.0369873046875-.0989990234375.05499267578125-.2080078125.05499267578125-.3280029296875,0-.102005004882812-.019989013671875-.197998046875-.058990478515625-.28900146484375-.03900146484375-.093994140625-.0989990234375-.175003051757812-.17999267578125-.24200439453125-.08001708984375-.0679931640625-.183013916015625-.120986938476562-.308013916015625-.159988403320312-.12298583984375-.042007446289062-.26800537109375-.063003540039062-.43798828125-.063003540039062-.1300048828125,0-.251007080078125.016998291015625-.363006591796875.050994873046875s-.209991455078125.082000732421875-.292999267578125.143997192382812c-.08099365234375.063003540039062-.14599609375.13800048828125-.19500732421875.227005004882812-.0469970703125.089004516601562-.07098388671875.186996459960938-.07098388671875.2969970703125h-1.097015380859375c0-.25.053009033203125-.4739990234375.160003662109375-.6719970703125.1090087890625-.197998046875.256988525390625-.365997314453125.441009521484375-.503997802734375.18499755859375-.13800048828125.39898681640625-.242996215820312.6409912109375-.315994262695312.2449951171875-.076004028320312.503997802734375-.114013671875.777008056640625-.114013671875.31500244140625,0,.60198974609375.0360107421875.8599853515625.106002807617188.25799560546875.068008422851562.47601318359375.169998168945312.656005859375.307998657226562.1820068359375.136001586914062.322998046875.305007934570312.4219970703125.508010864257812.0989990234375.20098876953125.14801025390625.433990478515625.14801025390625.698989868164062Zm.816986083984375,4.145004272460938v-5.688003540039062h1.910003662109375c.30999755859375,0,.59100341796875.031997680664062.843994140625.094009399414062.2550048828125.06298828125.472015380859375.157989501953125.652008056640625.284988403320312.17999267578125.128005981445312.3179931640625.28900146484375.41400146484375.485000610351562.0989990234375.19500732421875.14801025390625.426010131835938.14801025390625.691009521484375-.00201416015625.2659912109375-.074005126953125.503997802734375-.214019775390625.714996337890625-.13800048828125.21099853515625-.342987060546875.371002197265625-.613983154296875.479995727539062.16400146484375.042007446289062.305999755859375.105010986328125.425994873046875.188003540039062s.218994140625.1820068359375.2969970703125.2969970703125c.08099365234375.11199951171875.139007568359375.236007690429688.175994873046875.371002197265625.03900146484375.13299560546875.058013916015625.27099609375.058013916015625.41400146484375,0,.272994995117188-.0460205078125.513992309570312-.1400146484375.722991943359375-.093994140625.2080078125-.227996826171875.383010864257812-.402984619140625.52301025390625-.17401123046875.1409912109375-.386016845703125.246002197265625-.636016845703125.317001342773438-.25.069992065429688-.531982421875.104995727539062-.843994140625.104995727539062h-2.074005126953125Zm1.10101318359375-2.50799560546875v1.621002197265625h.97698974609375c.29901123046875-.00201416015625.527008056640625-.07501220703125.683013916015625-.218002319335938.15899658203125-.146011352539062.238983154296875-.33599853515625.238983154296875-.570999145507812.00201416015625-.260009765625-.0679931640625-.4630126953125-.21099853515625-.6090087890625s-.364990234375-.220001220703125-.66400146484375-.222991943359375h-1.02398681640625Zm0-.792999267578125h.816986083984375c.30401611328125-.001998901367188.53900146484375-.066009521484375.7030029296875-.191009521484375s.24700927734375-.308990478515625.25-.550994873046875c0-.266006469726562-.082000732421875-.45599365234375-.246002197265625-.57000732421875-.16400146484375-.116989135742188-.4010009765625-.176986694335938-.71099853515625-.17999267578125h-.81298828125v1.49200439453125Zm7.67999267578125.875c0,.364990234375-.048004150390625.70098876953125-.144989013671875,1.00799560546875-.09600830078125.3070068359375-.235015869140625.572006225585938-.417999267578125.792999267578125-.1820068359375.220993041992188-.404022216796875.395004272460938-.667022705078125.520004272460938-.260986328125.121994018554688-.55499267578125.182998657226562-.88299560546875.182998657226562s-.6199951171875-.061004638671875-.875-.182998657226562c-.2559814453125-.125-.470001220703125-.29901123046875-.644989013671875-.520004272460938-.17401123046875-.2239990234375-.3070068359375-.488006591796875-.39801025390625-.792999267578125-.09100341796875-.3070068359375-.136993408203125-.64300537109375-.136993408203125-1.00799560546875v-.8280029296875c0-.363998413085938.045989990234375-.699996948242188.136993408203125-1.00799560546875.09100341796875-.3070068359375.2239990234375-.570999145507812.39801025390625-.792999267578125.17498779296875-.224014282226562.38800048828125-.39801025390625.6409912109375-.52301025390625.2550048828125-.125.5469970703125-.188003540039062.875-.188003540039062.33099365234375,0,.626007080078125.063003540039062.886993408203125.188003540039062.26300048828125.125.485015869140625.298995971679688.667022705078125.52301025390625.1829833984375.222000122070312.321990966796875.485992431640625.417999267578125.792999267578125.09698486328125.307998657226562.144989013671875.643997192382812.144989013671875,1.00799560546875v.8280029296875Zm-1.113006591796875-.83599853515625c0-.231002807617188-.019989013671875-.44500732421875-.058990478515625-.639999389648438-.0360107421875-.196014404296875-.095001220703125-.364013671875-.175994873046875-.504013061523438-.08001708984375-.1409912109375-.18499755859375-.25-.31201171875-.327987670898438-.125-.081008911132812-.277984619140625-.121002197265625-.457000732421875-.121002197265625-.177001953125,0-.32598876953125.039993286132812-.44598388671875.121002197265625-.1190185546875.077987670898438-.21600341796875.186996459960938-.28900146484375.327987670898438-.072998046875.139999389648438-.125.307998657226562-.156005859375.504013061523438-.031005859375.194992065429688-.0469970703125.40899658203125-.0469970703125.639999389648438v.83599853515625c0,.228988647460938.0159912109375.442001342773438.0469970703125.636993408203125.031005859375.19500732421875.0830078125.365005493164062.156005859375.50799560546875.072998046875.14300537109375.16998291015625.2550048828125.28900146484375.33599853515625.1199951171875.080001831054688.269989013671875.121002197265625.449981689453125.121002197265625.177001953125,0,.3280029296875-.041000366210938.4530029296875-.121002197265625.12701416015625-.08099365234375.230010986328125-.191986083984375.308013916015625-.331985473632812.08099365234375-.144012451171875.1409912109375-.313003540039062.17999267578125-.508010864257812.03900146484375-.194992065429688.058990478515625-.40899658203125.058990478515625-.6409912109375v-.83599853515625Zm5.808013916015625,4.659988403320312h-.94500732421875v-1.397994995117188h-2.152008056640625v1.397994995117188h-.925994873046875l-.1719970703125-2.280990600585938h.21099853515625c.1199951171875-.06201171875.2239990234375-.150009155273438.31201171875-.262008666992188.0889892578125-.11199951171875.162994384765625-.26300048828125.222991943359375-.4530029296875.05999755859375-.191986083984375.108001708984375-.430999755859375.144989013671875-.7139892578125.0360107421875-.287002563476562.06201171875-.636001586914062.0780029296875-1.0469970703125l.156005859375-2.329010009765625h2.808990478515625v4.805007934570312h.417999267578125l-.156982421875,2.280990600585938Zm-2.125-4.756988525390625c-.01300048828125.304000854492188-.032012939453125.579986572265625-.058013916015625.827987670898438-.02398681640625.24700927734375-.05499267578125.472000122070312-.093994140625.676010131835938-.03900146484375.199996948242188-.084991455078125.380996704101562-.136993408203125.542999267578125-.052001953125.157989501953125-.1090087890625.302001953125-.1719970703125.429000854492188h1.230987548828125v-3.91400146484375h-.675994873046875l-.093994140625,1.438003540039062Zm7.019989013671875,1.577987670898438c-.01800537109375.2860107421875-.08099365234375.54400634765625-.18798828125.77301025390625-.10400390625.228988647460938-.2440185546875.425003051757812-.4219970703125.58599853515625-.177001953125.162002563476562-.38800048828125.287002563476562-.63201904296875.375-.2449951171875.08599853515625-.5159912109375.128997802734375-.81298828125.128997802734375-.33599853515625,0-.634002685546875-.061004638671875-.894012451171875-.184005737304688-.260986328125-.125-.47998046875-.297988891601562-.656982421875-.518997192382812-.177001953125-.2239990234375-.31201171875-.49200439453125-.406005859375-.80499267578125-.093994140625-.31201171875-.1409912109375-.656005859375-.1409912109375-1.031005859375v-.766006469726562c0-.376998901367188.04998779296875-.722000122070312.14898681640625-1.034988403320312.0989990234375-.31201171875.239013671875-.581008911132812.4219970703125-.804000854492188.1820068359375-.2239990234375.402008056640625-.39801025390625.660003662109375-.520004272460938.260009765625-.125.552001953125-.188003540039062.875-.188003540039062.31201171875,0,.589996337890625.044998168945312.832000732421875.133010864257812.2449951171875.0889892578125.4530029296875.214996337890625.625.378997802734375s.3070068359375.364990234375.406005859375.60198974609375.1619873046875.504013061523438.18798828125.801010131835938h-1.093994140625c-.010009765625-.169998168945312-.0360107421875-.318008422851562-.0780029296875-.445999145507812-.03900146484375-.126998901367188-.097991943359375-.233001708984375-.175994873046875-.316009521484375-.07501220703125-.08599853515625-.1719970703125-.149993896484375-.28900146484375-.192001342773438-.114990234375-.043991088867188-.25299072265625-.065994262695312-.41400146484375-.065994262695312-.16900634765625,0-.316009521484375.035995483398438-.441009521484375.108993530273438-.125.073013305664062-.22998046875.180007934570312-.31298828125.320999145507812-.08099365234375.1400146484375-.1409912109375.313003540039062-.17999267578125.519012451171875-.03900146484375.202987670898438-.058013916015625.43499755859375-.058013916015625.695999145507812v.772994995117188c0,.55999755859375.0780029296875.9739990234375.2340087890625,1.24200439453125.15899658203125.267990112304688.40899658203125.402999877929688.75.402999877929688.2869873046875,0,.51300048828125-.076004028320312.67999267578125-.227005004882812.166015625-.15399169921875.259002685546875-.4010009765625.277008056640625-.74200439453125h1.097991943359375Zm5.035003662109375-3.011993408203125h-1.753997802734375v4.792999267578125h-1.10101318359375v-4.792999267578125h-1.730987548828125v-.895004272460938h4.58599853515625v.895004272460938Zm.61700439453125,4.792999267578125v-5.688003540039062h1.910003662109375c.30999755859375,0,.59100341796875.031997680664062.843994140625.094009399414062.2550048828125.06298828125.472991943359375.157989501953125.652008056640625.284988403320312.17999267578125.128005981445312.3179931640625.28900146484375.41400146484375.485000610351562.0989990234375.19500732421875.14898681640625.426010131835938.14898681640625.691009521484375-.00299072265625.2659912109375-.074005126953125.503997802734375-.214996337890625.714996337890625-.13800048828125.21099853515625-.342010498046875.371002197265625-.613006591796875.479995727539062.16400146484375.042007446289062.305999755859375.105010986328125.425994873046875.188003540039062.1190185546875.082992553710938.218017578125.1820068359375.2960205078125.2969970703125.08099365234375.11199951171875.139984130859375.236007690429688.175994873046875.371002197265625.03900146484375.13299560546875.058990478515625.27099609375.058990478515625.41400146484375,0,.272994995117188-.0469970703125.513992309570312-.1409912109375.722991943359375-.093994140625.2080078125-.227996826171875.383010864257812-.402008056640625.52301025390625-.17498779296875.1409912109375-.386993408203125.246002197265625-.636993408203125.317001342773438-.25.069992065429688-.531005859375.104995727539062-.843994140625.104995727539062h-2.074005126953125Zm1.10198974609375-2.50799560546875v1.621002197265625h.97601318359375c.29998779296875-.00201416015625.527984619140625-.07501220703125.683990478515625-.218002319335938.15899658203125-.146011352539062.238006591796875-.33599853515625.238006591796875-.570999145507812.00299072265625-.260009765625-.0679931640625-.4630126953125-.21099853515625-.6090087890625s-.364013671875-.220001220703125-.66400146484375-.222991943359375h-1.02301025390625Zm0-.792999267578125h.816009521484375c.30499267578125-.001998901367188.53900146484375-.066009521484375.7030029296875-.191009521484375s.24798583984375-.308990478515625.25-.550994873046875c0-.266006469726562-.082000732421875-.45599365234375-.246002197265625-.57000732421875-.16400146484375-.116989135742188-.4010009765625-.176986694335938-.71099853515625-.17999267578125h-.81201171875v1.49200439453125Zm7.67901611328125.875c0,.364990234375-.048004150390625.70098876953125-.144012451171875,1.00799560546875s-.235992431640625.572006225585938-.417999267578125.792999267578125-.404998779296875.395004272460938-.667999267578125.520004272460938c-.260009765625.121994018554688-.55499267578125.182998657226562-.88299560546875.182998657226562s-.6199951171875-.061004638671875-.875-.182998657226562c-.2550048828125-.125-.470001220703125-.29901123046875-.644012451171875-.520004272460938-.17498779296875-.2239990234375-.3079833984375-.488006591796875-.39898681640625-.792999267578125-.09100341796875-.3070068359375-.136993408203125-.64300537109375-.136993408203125-1.00799560546875v-.8280029296875c0-.363998413085938.045989990234375-.699996948242188.136993408203125-1.00799560546875.09100341796875-.3070068359375.2239990234375-.570999145507812.39898681640625-.792999267578125.17401123046875-.224014282226562.38800048828125-.39801025390625.6400146484375-.52301025390625.2550048828125-.125.5469970703125-.188003540039062.875-.188003540039062.33099365234375,0,.626983642578125.063003540039062.886993408203125.188003540039062.26300048828125.125.485992431640625.298995971679688.667999267578125.52301025390625.1820068359375.222000122070312.321990966796875.485992431640625.417999267578125.792999267578125.09600830078125.307998657226562.144012451171875.643997192382812.144012451171875,1.00799560546875v.8280029296875Zm-1.113006591796875-.83599853515625c0-.231002807617188-.019012451171875-.44500732421875-.058013916015625-.639999389648438-.0369873046875-.196014404296875-.095977783203125-.364013671875-.175994873046875-.504013061523438-.08099365234375-.1409912109375-.18499755859375-.25-.31298828125-.327987670898438-.125-.081008911132812-.277008056640625-.121002197265625-.457000732421875-.121002197265625-.177001953125,0-.32501220703125.039993286132812-.44500732421875.121002197265625-.1199951171875.077987670898438-.21600341796875.186996459960938-.28900146484375.327987670898438-.072998046875.139999389648438-.125.307998657226562-.156005859375.504013061523438-.031982421875.194992065429688-.0469970703125.40899658203125-.0469970703125.639999389648438v.83599853515625c0,.228988647460938.0150146484375.442001342773438.0469970703125.636993408203125.031005859375.19500732421875.0830078125.365005493164062.156005859375.50799560546875.072998046875.14300537109375.16900634765625.2550048828125.28900146484375.33599853515625.1199951171875.080001831054688.269012451171875.121002197265625.449005126953125.121002197265625.177001953125,0,.3280029296875-.041000366210938.4530029296875-.121002197265625.12799072265625-.08099365234375.230987548828125-.191986083984375.308990478515625-.331985473632812.08099365234375-.144012451171875.1400146484375-.313003540039062.17999267578125-.508010864257812.03900146484375-.194992065429688.058013916015625-.40899658203125.058013916015625-.6409912109375v-.83599853515625Z" fill="#fff"/>
    </g>
  </g>
</svg>