<?xml version="1.0" encoding="UTF-8"?>
<svg id="uuid-d5c8feda-d289-45d8-b869-22260e7d9218" data-name="Layer 1" xmlns="http://www.w3.org/2000/svg" width="101" height="101" viewBox="0 0 101 101">
  <path d="m101.284962295745572,0H.284962295745572v101h101V0Z" fill="#566e78"/>
  <path d="m59.893963455413541,66.7449951171875h-18.572700500488281c-.176898956298828,0-.176898956298828.176010131835938-.176898956298828.176010131835938v5.4739990234375q0,.177001953125.176898956298828.177001953125h18.572700500488281c.176898956298828,0,.176799774169922-.177001953125.176799774169922-.177001953125v-5.4739990234375s.000099182128906-.176010131835938-.176799774169922-.176010131835938Z" fill="#fff" fill-rule="evenodd"/>
  <path d="m59.893963455413541,54.91400146484375h-18.572700500488281c-.176898956298828,0-.176898956298828.177001953125-.176898956298828.177001953125v5.4739990234375q0,.175994873046875.176898956298828.175994873046875h18.572700500488281c.176898956298828,0,.176799774169922-.175994873046875.176799774169922-.175994873046875v-5.4739990234375q0-.177001953125-.176799774169922-.177001953125Z" fill="#fff" fill-rule="evenodd"/>
  <path d="m59.540161728118619,46.261993408203125l-8.844100952148438-8.827987670898438h-.176799774169922l-8.844200134277344,8.827987670898438c-.176799774169922.177001953125,0,.353012084960938,0,.353012084960938h17.688301086425781c.176898956298828,0,.35369873046875-.176010131835938.176799774169922-.353012084960938Z" fill="#fff" fill-rule="evenodd"/>
  <path d="m68.031361221526822,72.748001098632812l9.021102905273438-9.0050048828125v-.177001953125l-9.021102905273438-9.004989624023438c0-.176010131835938-.353797912597656,0-.353797912597656.177001953125v17.833999633789062c0,.352996826171875.176902770996094.352996826171875.353797912597656.175994873046875Z" fill="#fff" fill-rule="evenodd"/>
  <path d="m41.675060867522916,81.2239990234375l8.844200134277344,8.8280029296875h.176799774169922l8.844200134277344-8.8280029296875c0-.177001953125,0-.352996826171875-.176898956298828-.352996826171875h-17.688301086425781s-.176799774169922.175994873046875,0,.352996826171875Z" fill="#fff" fill-rule="evenodd"/>
  <path d="m33.3617635957944,54.738006591796875l-9.021100997924805,9.004989624023438v.177001953125l9.021100997924805,9.0050048828125c.176799774169922.175994873046875.176799774169922,0,.176799774169922-.177001953125v-18.009994506835938s-.176799774169922-.177001953125-.176799774169922,0Z" fill="#fff" fill-rule="evenodd"/>
  <path d="m9.836562751983365,13.242996215820312v15.53900146484375h3.537699699401855V8.475997924804688h-2.8302001953125l-3.183899879455566,3.708000183105469v3.530998229980469h.176829814910889l2.299570560455322-2.472000122070312Z" fill="#fff" fill-rule="evenodd"/>
  <path d="m25.932861923431119,23.484001159667969v-9.71099853515625c0-3.179000854492188-1.591999053955078-5.4739990234375-5.12969970703125-5.4739990234375-3.537599563598633,0-5.129500389099121,2.294998168945312-5.129500389099121,5.4739990234375v9.88800048828125c0,3.178001403808594,1.591900825500488,5.473991394042969,5.129500389099121,5.473991394042969,3.537700653076172-.177001953125,5.12969970703125-2.472000122070312,5.12969970703125-5.650993347167969Zm-6.721599578857422.529998779296875v-10.771003723144531c0-1.235992431640625.530599594116211-2.118995666503906,1.591899871826172-2.118995666503906,1.238199234008789,0,1.592000961303711.883003234863281,1.592000961303711,2.118995666503906v10.947006225585938c0,1.23699951171875-.353801727294922,2.119003295898438-1.592000961303711,2.119003295898438-1.238199234008789-.176010131835938-1.591899871826172-1.059005737304688-1.591899871826172-2.295005798339844Z" fill="#fff" fill-rule="evenodd"/>
  <path d="m34.24686109945651,13.066001892089844v3.884994506835938h-1.414997100830078v-8.474998474121094h2.12249755859375c1.415000915527344,0,1.94580078125.706001281738281,1.94580078125,1.942001342773438v1.058998107910156c0,.883003234863281-.353801727294922,1.413002014160156-1.238201141357422,1.589004516601562l1.415000915527344,3.884994506835938h-1.415000915527344l-1.41510009765625-3.884994506835938Zm0-3.35400390625v2.648002624511719h.530601501464844c.53070068359375,0,.707599639892578-.176002502441406.707599639892578-.706001281738281v-1.413002014160156c0-.528999328613281-.176898956298828-.70599365234375-.707599639892578-.70599365234375h-.530601501464844v.176994323730469Z" fill="#fff" fill-rule="evenodd"/>
  <path d="m37.607262253020963,8.475997924804688h3.537601470947266v1.236000061035156h-2.122501373291016v2.295005798339844h1.591899871826172v1.235992431640625h-1.591899871826172v2.472000122070312h2.122501373291016v1.236000061035156h-3.537601470947266v-8.474998474121094Z" fill="#fff" fill-rule="evenodd"/>
  <path d="m46.097561477874478,10.771003723144531v3.884994506835938c0,1.236000061035156-.53070068359375,2.294998168945312-2.122600555419922,2.294998168945312h-2.122596740722656v-8.474998474121094h2.122596740722656c1.591899871826172,0,2.122600555419922.882003784179688,2.122600555419922,2.295005798339844Zm-2.299598693847656,4.943992614746094c.53070068359375,0,.884498596191406-.352996826171875.884498596191406-.88299560546875v-4.41400146484375c0-.529998779296875-.176898956298828-.88299560546875-.884498596191406-.88299560546875h-.530601501464844v6.17999267578125h.530601501464844Z" fill="#fff" fill-rule="evenodd"/>
  <path d="m51.2273641817319,8.475997924804688v6.533004760742188c0,1.411994934082031-.53070068359375,2.118995666503906-2.122600555419922,2.118995666503906-1.592002868652344,0-2.122501373291016-.88299560546875-2.122501373291016-2.118995666503906v-6.533004760742188h1.415000915527344v6.708999633789062c0,.529998779296875.176799774169922.883003234863281.707500457763672.883003234863281.530597686767578,0,.707500457763672-.353004455566406.707500457763672-.883003234863281v-6.708999633789062h1.41510009765625Z" fill="#fff" fill-rule="evenodd"/>
  <path d="m51.93436109945651,14.832000732421875v-4.060997009277344c0-1.413002014160156.53070068359375-2.295005798339844,2.122600555419922-2.295005798339844,1.591999053955078,0,1.945701599121094.882003784179688,1.945701599121094,2.118003845214844v1.05999755859375h-1.238201141357422v-1.236000061035156c0-.529998779296875-.176799774169922-.88299560546875-.707500457763672-.88299560546875-.530597686767578,0-.707500457763672.352996826171875-.707500457763672.88299560546875v4.59100341796875c0,.529998779296875.176902770996094.88299560546875.707500457763672.88299560546875.53070068359375,0,.707500457763672-.352996826171875.707500457763672-.88299560546875v-1.413002014160156h1.238201141357422v1.413002014160156c0,1.236000061035156-.530601501464844,2.118995666503906-1.945701599121094,2.118995666503906-1.415000915527344,0-2.122600555419922-.88299560546875-2.122600555419922-2.295997619628906Z" fill="#fff" fill-rule="evenodd"/>
  <path d="m56.887463211272916,8.475997924804688h3.36090087890625v1.236000061035156h-1.94580078125v2.295005798339844h1.414997100830078v1.235992431640625h-1.414997100830078v2.472000122070312h1.94580078125v1.236000061035156h-3.36090087890625v-8.474998474121094Z" fill="#fff" fill-rule="evenodd"/>
  <path d="m65.377758621429166,10.771003723144531v3.884994506835938c0,1.236000061035156-.530693054199219,2.294998168945312-2.122596740722656,2.294998168945312h-2.122501373291016v-8.474998474121094h2.122501373291016c1.591903686523438,0,2.122596740722656.882003784179688,2.122596740722656,2.295005798339844Zm-2.299495697021484,4.943992614746094c.53070068359375,0,.8843994140625-.352996826171875.8843994140625-.88299560546875v-4.41400146484375c0-.529998779296875-.176799774169922-.88299560546875-.8843994140625-.88299560546875h-.530601501464844v6.17999267578125h.530601501464844Z" fill="#fff" fill-rule="evenodd"/>
  <path d="m34.069962143157682,20.482002258300781h-1.23809814453125v8.475990295410156h1.23809814453125v-8.475990295410156Z" fill="#fff"/>
  <path d="m36.192062973235807,23.661003112792969v5.296989440917969h-1.238201141357422v-8.475990295410156h1.591999053955078l1.592002868652344,4.944999694824219v-4.944999694824219h1.061298370361328v8.475990295410156h-1.238201141357422l-1.768898010253906-5.296989440917969Z" fill="#fff" fill-rule="evenodd"/>
  <path d="m40.083763717864713,20.482002258300781h3.360797882080078v1.236000061035156h-1.945697784423828v2.472999572753906h1.414997100830078v1.058998107910156h-1.414997100830078v2.649002075195312h1.945697784423828v1.058990478515625h-3.360797882080078v-8.475990295410156Z" fill="#fff" fill-rule="evenodd"/>
  <path d="m45.744164108489713,29.488006591796875v-.530014038085938c-1.061302185058594-.176986694335938-1.592002868652344-1.058990478515625-1.592002868652344-2.294998168945312v-4.061996459960938c0-1.411994934082031.707500457763672-2.294998168945312,2.122600555419922-2.294998168945312s2.122600555419922.883003234863281,2.122600555419922,2.294998168945312v4.061996459960938c0,.882003784179688-.353801727294922,1.589004516601562-1.061298370361328,1.942001342773438l1.061298370361328.176010131835938v1.23699951171875l-2.6531982421875-.529998779296875Zm1.238197326660156-2.472000122070312v-4.59100341796875c0-.530006408691406-.176998138427734-.883003234863281-.707599639892578-.883003234863281-.530597686767578,0-.707599639892578.352996826171875-.707599639892578.883003234863281v4.59100341796875c0,.52899169921875.177001953125.88299560546875.707599639892578.88299560546875.530601501464844,0,.707599639892578-.35400390625.707599639892578-.88299560546875Z" fill="#fff" fill-rule="evenodd"/>
  <path d="m53.526161789153775,20.482002258300781v6.357002258300781c0,1.235992431640625-.530498504638672,2.118988037109375-2.122501373291016,2.118988037109375-1.591899871826172,0-2.122596740722656-.88299560546875-2.122596740722656-2.118988037109375v-6.357002258300781h1.414997100830078v6.534004211425781c0,.52899169921875.177001953125.88299560546875.707599639892578.88299560546875.53070068359375,0,.707500457763672-.35400390625.707500457763672-.88299560546875v-6.534004211425781h1.415000915527344Z" fill="#fff" fill-rule="evenodd"/>
  <path d="m53.880661606048307,28.957992553710938l1.591999053955078-8.475990295410156h1.591899871826172l1.592002868652344,8.475990295410156h-1.41510009765625l-.176902770996094-1.5889892578125h-1.41510009765625l-.176799774169922,1.5889892578125h-1.591999053955078Zm1.768798828125-2.64898681640625h1.0614013671875l-.53070068359375-3.35400390625-.53070068359375,3.35400390625Z" fill="#fff" fill-rule="evenodd"/>
  <path d="m59.18726408407565,20.482002258300781h1.41510009765625v7.416999816894531h1.768798828125v1.058990478515625h-3.18389892578125v-8.475990295410156Z" fill="#fff" fill-rule="evenodd"/>
  <path d="m64.492962478851041,20.482002258300781h-1.415000915527344v8.475990295410156h1.415000915527344v-8.475990295410156Z" fill="#fff"/>
  <path d="m65.20096266195651,20.482002258300781h3.714500427246094v1.236000061035156h-1.061203002929688v7.239990234375h-1.41510009765625v-7.239990234375h-1.238197326660156v-1.236000061035156Z" fill="#fff" fill-rule="evenodd"/>
  <path d="m71.037861465667447,20.482002258300781h-1.415000915527344v8.475990295410156h1.415000915527344v-8.475990295410156Z" fill="#fff"/>
  <path d="m71.922665237640103,20.482002258300781h3.360794067382812v1.236000061035156h-1.94580078125v2.472999572753906h1.41510009765625v1.058998107910156h-1.41510009765625v2.649002075195312h1.94580078125v1.058990478515625h-3.360794067382812v-8.475990295410156Z" fill="#fff" fill-rule="evenodd"/>
  <path d="m75.99106275961276,27.016006469726562v-1.060012817382812h1.238197326660156v1.236007690429688c0,.529998779296875.177001953125.707000732421875.707603454589844.707000732421875.353797912597656,0,.707496643066406-.35400390625.707496643066406-.707000732421875v-.352996826171875c0-.529998779296875-.176795959472656-.883010864257812-.707496643066406-1.236007690429688l-.8843994140625-.88299560546875c-.8843994140625-.883003234863281-1.238204956054688-1.236000061035156-1.238204956054688-2.294998168945312v-.353004455566406c0-1.05999755859375.530601501464844-1.943000793457031,1.945701599121094-1.943000793457031,1.415000915527344,0,1.945701599121094.707000732421875,1.945701599121094,1.943000793457031v.883003234863281h-1.238197326660156v-.707000732421875c0-.528999328613281-.176902770996094-.706001281738281-.707504272460938-.706001281738281-.353797912597656,0-.707496643066406.177001953125-.707496643066406.706001281738281v.177001953125c0,.529998779296875.176795959472656.70599365234375.707496643066406,1.058998107910156l.8843994140625.88299560546875c.707504272460938.706001281738281,1.061302185058594,1.236000061035156,1.061302185058594,2.118995666503906v.353012084960938c0,1.235992431640625-.530601501464844,1.942001342773438-2.122596740722656,1.942001342773438-1.061302185058594.176986694335938-1.592002868652344-.529006958007812-1.592002868652344-1.764999389648438Z" fill="#fff" fill-rule="evenodd"/>
  <rect x="29.284962295745572" y="4" width="58" height="33" fill="#566e78"/>
  <path d="m32.363060592864713,10.265998840332031l.371101379394531,1.050003051757812,1.1875-3.004005432128906h1.195301055908203l-2.023399353027344,4.610000610351562c-.067703247070312.153999328613281-.147102355957031.301002502441406-.238300323486328.441001892089844-.0885009765625.140998840332031-.196601867675781.264999389648438-.324199676513672.371002197265625-.125.107002258300781-.272100448608398.192001342773438-.441400527954102.253997802734375-.169300079345703.063003540039062-.368501663208008.094001770019531-.597700119018555.094001770019531-.184900283813477,0-.348899841308594-.015998840332031-.49220085144043-.0469970703125-.140600204467773-.027999877929688-.255199432373047-.055000305175781-.343700408935547-.0780029296875l.070301055908203-.859001159667969c.033899307250977.010002136230469.074199676513672.022003173828125.121099472045898.035003662109375.04949951171875.009994506835938.100299835205078.02099609375.152299880981445.030998229980469.052099227905273.010002136230469.105499267578125.019996643066406.160200119018555.027000427246094.05470085144043.005996704101562.106800079345703.00799560546875.156200408935547.00799560546875.125,0,.234399795532227-.01300048828125.32819938659668-.038993835449219.093700408935547-.0260009765625.17449951171875-.062004089355469.24220085144043-.109001159667969.067699432373047-.047004699707031.123699188232422-.103004455566406.167900085449219-.167999267578125.046899795532227-.068000793457031.084699630737305-.14300537109375.113298416137695-.227005004882812l.109401702880859-.241996765136719-1.984401702880859-4.102005004882812h1.1875l.88279914855957,1.954002380371094Zm4.586002349853516-1.954002380371094l.538997650146484,2.137001037597656.613300323486328-2.137001037597656h1.363300323486328v5.688003540039062h-1.007797241210938v-1.683998107910156l.046897888183594-2.660003662109375-.746101379394531,2.469001770019531h-.542999267578125l-.667999267578125-2.362998962402344.046901702880859,2.554000854492188v1.683998107910156h-1.007801055908203v-5.688003540039062h1.363300323486328Zm6.957000732421875,3.196006774902344h-2.335903167724609v1.604995727539062h2.730400085449219v.887001037597656h-3.831996917724609v-5.688003540039062h3.820297241210938v.895004272460938h-2.718700408935547v1.433998107910156h2.335903167724609v.86700439453125Zm5.058597564697266,2.491996765136719h-1.085899353027344v-2.464996337890625h-1.609397888183594v2.464996337890625h-1.089900970458984v-5.688003540039062h1.089900970458984v2.333000183105469h1.609397888183594v-2.333000183105469h1.085899353027344v5.688003540039062Zm2.152301788330078-3.58599853515625h.640697479248047c.328102111816406,0,.622402191162109.042999267578125.882801055908203.128997802734375.26300048828125.083000183105469.484302520751953.202003479003906.66400146484375.355003356933594.182300567626953.153999328613281.321598052978516.339996337890625.417999267578125.558998107910156s.144500732421875.46099853515625.144500732421875.726997375488281c0,.270004272460938-.048099517822266.51800537109375-.144500732421875.74200439453125-.096401214599609.221000671386719-.235698699951172.410995483398438-.417999267578125.569999694824219-.179698944091797.15899658203125-.4010009765625.282997131347656-.66400146484375.370994567871094-.260398864746094.089004516601562-.554698944091797.133003234863281-.882801055908203.133003234863281h-1.742198944091797v-5.688003540039062h1.10150146484375v2.102005004882812Zm0,.88299560546875v1.819999694824219h.640697479248047c.171802520751953,0,.320301055908203-.024993896484375.445301055908203-.073997497558594.127601623535156-.050003051757812.233001708984375-.116996765136719.316402435302734-.2030029296875.085899353027344-.08599853515625.148399353027344-.185997009277344.1875-.300994873046875.041599273681641-.114997863769531.0625-.236000061035156.0625-.362998962402344,0-.123001098632812-.020900726318359-.23699951171875-.0625-.344001770019531-.039100646972656-.107002258300781-.101600646972656-.198997497558594-.1875-.277000427246094-.083400726318359-.081001281738281-.188800811767578-.143997192382812-.316402435302734-.188003540039062-.125-.0469970703125-.27349853515625-.069999694824219-.445301055908203-.069999694824219h-.640697479248047Zm4.578197479248047-2.985000610351562v4.805000305175781h.546802520751953v-4.805000305175781h1.035198211669922v4.805000305175781h.53900146484375v-4.805000305175781h1.066497802734375v5.688003540039062h-4.257896423339844v-5.688003540039062h1.070396423339844Zm7.429603576660156,3.196006774902344h-2.335903167724609v1.604995727539062h2.730503082275391v.887001037597656h-3.832099914550781v-5.688003540039062h3.820396423339844v.895004272460938h-2.718799591064453v1.433998107910156h2.335903167724609v.86700439453125Zm5.058597564697266,2.491996765136719h-1.085899353027344v-2.464996337890625h-1.609397888183594v2.464996337890625h-1.089805603027344v-5.688003540039062h1.089805603027344v2.333000183105469h1.609397888183594v-2.333000183105469h1.085899353027344v5.688003540039062Zm3.683601379394531-5.688003540039062h1.101600646972656v5.688003540039062h-1.101600646972656v-3.628997802734375l-1.613197326660156,3.628997802734375h-1.097702026367188v-5.688003540039062h1.097702026367188v3.633003234863281l1.613197326660156-3.633003234863281Zm5.671897888183594,3.196006774902344h-2.335899353027344v1.604995727539062h2.730400085449219v.887001037597656h-3.832000732421875v-5.688003540039062h3.820304870605469v.895004272460938h-2.718704223632812v1.433998107910156h2.335899353027344v.86700439453125Zm-42.988300323486328,11.491996765136719h-1.085899353027344v-2.464996337890625h-1.609399795532227v2.464996337890625h-1.089799880981445v-5.688003540039062h1.089799880981445v2.333000183105469h1.609399795532227v-2.333000183105469h1.085899353027344v5.688003540039062Zm4.550800323486328-2.491996765136719h-2.335899353027344v1.604995727539062h2.730400085449219v.887001037597656h-3.832000732421875v-5.688003540039062h3.820301055908203v.895004272460938h-2.718700408935547v1.433998107910156h2.335899353027344v.86700439453125Zm2.472702026367188.405998229980469v2.08599853515625h-1.097702026367188v-5.688003540039062h1.945301055908203c.309902191162109,0,.589900970458984.046005249023438.839900970458984.137001037597656.25.089004516601562.462200164794922.214004516601562.636699676513672.375.177101135253906.159004211425781.3125.350006103515625.406200408935547.574005126953125.096397399902344.2239990234375.144599914550781.472999572753906.144599914550781.746994018554688,0,.2550048828125-.048202514648438.490005493164062-.144599914550781.707000732421875-.093700408935547.21600341796875-.229099273681641.402999877929688-.406200408935547.562004089355469-.17449951171875.155998229980469-.386699676513672.278999328613281-.636699676513672.366996765136719-.25.089004516601562-.529998779296875.133003234863281-.839900970458984.133003234863281h-.847599029541016Zm0-.890998840332031h.847599029541016c.156299591064453,0,.291698455810547-.023002624511719.406299591064453-.069999694824219.114601135253906-.047004699707031.209602355957031-.111000061035156.285099029541016-.191001892089844.078102111816406-.081001281738281.135402679443359-.173004150390625.171901702880859-.277999877929688.039100646972656-.106002807617188.058601379394531-.217002868652344.058601379394531-.332000732421875,0-.132003784179688-.019500732421875-.255996704101562-.058601379394531-.371002197265625-.0364990234375-.113998413085938-.093799591064453-.214996337890625-.171901702880859-.300994873046875-.075496673583984-.085006713867188-.170497894287109-.152999877929688-.285099029541016-.2030029296875-.114601135253906-.049003601074219-.25-.073997497558594-.406299591064453-.073997497558594h-.847599029541016v1.819999694824219Zm6.433597564697266,1.788993835449219h-1.707099914550781l-.335899353027344,1.188003540039062h-1.156299591064453l1.863300323486328-5.688003540039062h.996101379394531l1.828098297119141,5.688003540039062h-1.156200408935547l-.332000732421875-1.188003540039062Zm-1.4375-.932998657226562h1.179603576660156l-.582000732421875-2.093994140625-.597602844238281,2.093994140625Zm3.4375,2.121002197265625v-5.688003540039062h1.910102844238281c.309898376464844,0,.591197967529297.032005310058594.843799591064453.094001770019531.255199432373047.063003540039062.472599029541016.158004760742188.652297973632812.285003662109375.179702758789062.127998352050781.317703247070312.28900146484375.414100646972656.485000610351562.098899841308594.194999694824219.148399353027344.425994873046875.148399353027344.690994262695312-.002597808837891.266006469726562-.074199676513672.504005432128906-.214797973632812.715003967285156-.138099670410156.21099853515625-.342498779296875.371002197265625-.613300323486328.479995727539062.16400146484375.041999816894531.305999755859375.105003356933594.425800323486328.188003540039062s.218700408935547.181999206542969.296798706054688.2969970703125c.080799102783203.11199951171875.139400482177734.236000061035156.175800323486328.371002197265625.039100646972656.133003234863281.058601379394531.271003723144531.058601379394531.41400146484375,0,.273002624511719-.046901702880859.513999938964844-.140602111816406.722999572753906-.093799591064453.208000183105469-.227897644042969.383003234863281-.402397155761719.523002624511719-.174400329589844.140998840332031-.386703491210938.245994567871094-.636703491210938.316993713378906-.25.069999694824219-.531196594238281.105003356933594-.843696594238281.105003356933594h-2.074203491210938Zm1.10150146484375-2.508003234863281v1.621002197265625h.976600646972656c.29949951171875-.001998901367188.527297973632812-.074996948242188.683601379394531-.218002319335938.158798217773438-.14599609375.238296508789062-.33599853515625.238296508789062-.570999145507812.002601623535156-.259994506835938-.067798614501953-.462997436523438-.21099853515625-.609001159667969-.143199920654297-.14599609375-.364601135253906-.219993591308594-.66400146484375-.222999572753906h-1.02349853515625Zm0-.792999267578125h.816398620605469c.304702758789062-.001998901367188.539100646972656-.065994262695312.703201293945312-.190994262695312.16400146484375-.125.247299194335938-.309005737304688.25-.551002502441406,0-.265998840332031-.082099914550781-.456001281738281-.246101379394531-.569999694824219-.164096832275391-.11700439453125-.401096343994141-.177001953125-.71099853515625-.180000305175781h-.8125v1.491996765136719Zm7.21099853515625.809005737304688h-2.33599853515625v1.604995727539062h2.730499267578125v.887001037597656h-3.832000732421875v-5.688003540039062h3.820301055908203v.895004272460938h-2.718799591064453v1.433998107910156h2.33599853515625v.86700439453125Zm5.058601379394531,2.491996765136719h-1.08599853515625v-2.464996337890625h-1.609401702880859v2.464996337890625h-1.089797973632812v-5.688003540039062h1.089797973632812v2.333000183105469h1.609401702880859v-2.333000183105469h1.08599853515625v5.688003540039062Zm5.000003814697266-1.780998229980469c-.018302917480469.285995483398438-.080802917480469.543998718261719-.187606811523438.772994995117188-.104095458984375.22900390625-.244697570800781.425003051757812-.421798706054688.586006164550781-.177101135253906.161994934082031-.38800048828125.286994934082031-.632797241210938.375-.244804382324219.08599853515625-.515701293945312.128997802734375-.8125.128997802734375-.33599853515625,0-.634201049804688-.060997009277344-.894599914550781-.183998107910156-.260398864746094-.125-.479103088378906-.298004150390625-.656204223632812-.519004821777344-.177093505859375-.2239990234375-.3125-.491996765136719-.406295776367188-.805000305175781-.093700408935547-.311996459960938-.140602111816406-.655998229980469-.140602111816406-1.030998229980469v-.765998840332031c0-.376998901367188.04949951171875-.722000122070312.148399353027344-1.035003662109375.0989990234375-.311996459960938.239601135253906-.58099365234375.421905517578125-.803993225097656.182296752929688-.224006652832031.402397155761719-.398002624511719.660194396972656-.520004272460938.260398864746094-.125.552101135253906-.187995910644531.875-.187995910644531.3125,0,.589805603027344.044998168945312.832000732421875.13299560546875.244804382324219.089004516601562.453102111816406.215003967285156.625.378997802734375.171897888183594.16400146484375.307304382324219.365005493164062.406303405761719.602005004882812.098899841308594.23699951171875.161399841308594.503997802734375.1875.800994873046875h-1.093803405761719c-.010398864746094-.169998168945312-.0364990234375-.3179931640625-.078102111816406-.445999145507812-.039093017578125-.126998901367188-.097694396972656-.232994079589844-.175796508789062-.315994262695312-.07550048828125-.086006164550781-.171897888183594-.150001525878906-.289100646972656-.192001342773438-.114501953125-.043998718261719-.252601623535156-.066001892089844-.41400146484375-.066001892089844-.169296264648438,0-.316398620605469.036003112792969-.441398620605469.109001159667969s-.229202270507812.180000305175781-.3125.320999145507812c-.080802917480469.139999389648438-.140701293945312.312995910644531-.179702758789062.518997192382812-.039093017578125.2030029296875-.05859375.435005187988281-.05859375.695999145507812v.773002624511719c0,.55999755859375.078094482421875.9739990234375.234397888183594,1.24200439453125.158798217773438.267997741699219.408798217773438.402999877929688.75.402999877929688.286399841308594,0,.51300048828125-.076004028320312.679702758789062-.227005004882812.166595458984375-.153999328613281.25909423828125-.4010009765625.277297973632812-.741996765136719h1.097702026367188Zm5.03509521484375-3.012001037597656h-1.753898620605469v4.792999267578125h-1.101600646972656v-4.792999267578125h-1.730400085449219v-.895004272460938h4.585899353027344v.895004272460938Zm.617202758789062,4.792999267578125v-5.688003540039062h1.91009521484375c.309906005859375,0,.591201782226562.032005310058594.843803405761719.094001770019531.255203247070312.063003540039062.472702026367188.158004760742188.652297973632812.285003662109375.179702758789062.127998352050781.317802429199219.28900146484375.414100646972656.485000610351562.0989990234375.194999694824219.148399353027344.425994873046875.148399353027344.690994262695312-.002601623535156.266006469726562-.074195861816406.504005432128906-.214797973632812.715003967285156-.13800048828125.21099853515625-.342399597167969.371002197265625-.613296508789062.479995727539062.164093017578125.041999816894531.305999755859375.105003356933594.425796508789062.188003540039062s.218696594238281.181999206542969.296897888183594.2969970703125c.080703735351562.11199951171875.139305114746094.236000061035156.175804138183594.371002197265625.03900146484375.133003234863281.058601379394531.271003723144531.058601379394531.41400146484375,0,.273002624511719-.046905517578125.513999938964844-.140701293945312.722999572753906-.093704223632812.208000183105469-.227798461914062.383003234863281-.402305603027344.523002624511719-.17449951171875.140998840332031-.386695861816406.245994567871094-.636695861816406.316993713378906-.25.069999694824219-.531303405761719.105003356933594-.843803405761719.105003356933594h-2.074195861816406Zm1.101600646972656-2.508003234863281v1.621002197265625h.97650146484375c.29949951171875-.001998901367188.527397155761719-.074996948242188.68359375-.218002319335938.158905029296875-.14599609375.238304138183594-.33599853515625.238304138183594-.570999145507812.002601623535156-.259994506835938-.067703247070312-.462997436523438-.210899353027344-.609001159667969-.143302917480469-.14599609375-.364601135253906-.219993591308594-.664100646972656-.222999572753906h-1.023399353027344Zm0-.792999267578125h.816398620605469c.304702758789062-.001998901367188.53900146484375-.065994262695312.703102111816406-.190994262695312.163993835449219-.125.247398376464844-.309005737304688.25-.551002502441406,0-.265998840332031-.082000732421875-.456001281738281-.246101379394531-.569999694824219-.164100646972656-.11700439453125-.4010009765625-.177001953125-.710899353027344-.180000305175781h-.8125v1.491996765136719Zm6.507797241210938,2.112998962402344h-1.707099914550781l-.335899353027344,1.188003540039062h-1.156303405761719l1.863304138183594-5.688003540039062h.996101379394531l1.828201293945312,5.688003540039062h-1.156303405761719l-.332000732421875-1.188003540039062Zm-1.4375-.932998657226562h1.179702758789062l-.582099914550781-2.093994140625-.597602844238281,2.093994140625Z" fill="#fff"/>
</svg>