<?xml version="1.0" encoding="UTF-8"?>
<svg id="uuid-75c9dc2a-8030-4d74-84f8-c95d7770e3a2" data-name="Layer 1" xmlns="http://www.w3.org/2000/svg" width="101" height="101" viewBox="0 0 101 101">
  <path d="m101,0H0v101h101V0Z" fill="#566e78"/>
  <path d="m77.4739990234375,73.759994506835938c-1.238006591796875-1.768997192382812-9.552001953125-12.205001831054688-21.04901123046875-12.205001831054688-10.082000732421875,0-20.694976806640625,9.021011352539062-20.694976806640625,9.021011352539062,0,0-4.069000244140625-8.136001586914062-12.20501708984375-9.021011352539062h-.177001953125c-.177001953125,0-.35400390625.177001953125-.35400390625.35400390625s.177001953125.35400390625.177001953125.35400390625c1.061004638671875,1.768997192382812,3.714996337890625,6.720993041992188,3.714996337890625,11.673995971679688s-2.65399169921875,10.082000732421875-3.714996337890625,11.673995971679688v.35400390625c0,.177001953125.177001953125.35400390625.35400390625.35400390625h.177001953125c8.313018798828125-.7080078125,12.381011962890625-9.02099609375,12.381011962890625-9.02099609375,0,0,10.78997802734375,9.02099609375,20.69598388671875,9.02099609375,11.49700927734375,0,19.811004638671875-10.436004638671875,21.04901123046875-12.205001831054688v-.35400390625c-.177001953125.177001953125-.177001953125,0-.35400390625,0Zm-14.680999755859375,1.415008544921875c-1.946014404296875,0-3.360992431640625-1.592010498046875-3.360992431640625-3.361007690429688,0-1.944992065429688,1.59197998046875-3.360000610351562,3.360992431640625-3.360000610351562,1.94500732421875,0,3.360992431640625,1.415008544921875,3.360992431640625,3.360000610351562,0,1.945999145507812-1.415985107421875,3.361007690429688-3.360992431640625,3.361007690429688Z" fill="#fff" fill-rule="evenodd"/>
  <path d="m35.02301025390625,52.003997802734375q.177001953125-.177001953125.352996826171875-.177001953125s.177001953125,0,.177001953125.177001953125c6.19097900390625,6.014007568359375,12.912994384765625,1.061004638671875,14.1510009765625,0l.177001953125-.177001953125h.353973388671875l.176025390625.177001953125c1.41497802734375,1.061004638671875,7.959991455078125,6.014007568359375,14.1510009765625,0l.177001953125-.177001953125h.176971435546875v.177001953125c1.238006591796875,1.238006591796875,6.54400634765625,5.660003662109375,12.02801513671875.884002685546875l.177001953125-.177001953125v-2.298995971679688c0-.177001953125-.177001953125-.35400390625-.35400390625-.35400390625h-.177001953125c-1.76898193359375.884002685546875-7.074981689453125,2.830001831054688-11.850982666015625-1.591995239257812,0,0,0-.177001953125-.177001953125-.177001953125h-.35400390625s-.177001953125,0-.177001953125.177001953125c-1.415008544921875,1.060989379882812-7.959014892578125,5.483001708984375-13.972991943359375,0h-.7080078125c-5.837005615234375,5.483001708984375-12.38201904296875,1.060989379882812-13.9739990234375,0,0,0,0-.177001953125-.175994873046875-.177001953125h-.35400390625l-.177001953125.177001953125c-4.7760009765625,4.5989990234375-10.082000732421875,2.475997924804688-11.85101318359375,1.591995239257812h-.177001953125c-.177001953125,0-.35400390625.177001953125-.35400390625.35400390625v2.298995971679688s0,.177001953125.177001953125.177001953125c6.014007568359375,4.9530029296875,11.32000732421875.35400390625,12.55902099609375-.884002685546875Z" fill="#fff" fill-rule="evenodd"/>
  <path d="m23.170989990234375,41.744003295898438c-.177001953125,0-.352996826171875.177001953125-.352996826171875.35400390625v2.29998779296875q0,.176010131835938.175994873046875.176010131835938c5.4840087890625,4.7760009765625,10.790008544921875.353988647460938,12.02801513671875-.884002685546875l.177001953125-.177001953125h.35400390625c6.19097900390625,6.013992309570312,12.9119873046875,1.061004638671875,14.1510009765625,0l.177001953125-.177001953125h.352996826171875l.177001953125.177001953125c1.41497802734375,1.061004638671875,7.959991455078125,6.013992309570312,14.1510009765625,0h.353973388671875v.177001953125c1.238006591796875,1.237991333007812,6.54400634765625,5.660003662109375,12.02801513671875.884002685546875v-2.475997924804688c0-.177001953125-.177001953125-.35400390625-.35400390625-.35400390625h-.177001953125c-1.76898193359375.884994506835938-7.074981689453125,2.830001831054688-11.850982666015625-1.592010498046875,0,0,0-.176986694335938-.177001953125-.176986694335938h-.35400390625s-.177001953125,0-.177001953125.176986694335938c-1.415008544921875,1.06201171875-7.959014892578125,5.4840087890625-13.972991943359375,0h-.177001953125l-.177001953125-.176986694335938q-.177001953125,0-.177001953125.176986694335938h-.177001953125c-5.837005615234375,5.4840087890625-12.38201904296875,1.06201171875-13.9739990234375,0,0,0,0-.176986694335938-.177001953125-.176986694335938h-.352996826171875l-.177001953125.176986694335938c-4.7760009765625,4.599014282226562-10.0830078125,2.477005004882812-11.85101318359375,1.592010498046875q.707000732421875.177001953125.529998779296875,0Z" fill="#fff" fill-rule="evenodd"/>
  <path d="m12.9119873046875,8.489997863769531v20.342002868652344h-3.3599853515625v-15.566001892089844l-2.29998779296875,2.476997375488281h-.177001953125v-3.537994384765625l3.183990478515625-3.715003967285156h2.652984619140625Z" fill="#fff" fill-rule="evenodd"/>
  <path d="m23.347991943359375,28.832000732421875v-3.361007690429688h1.415008544921875v-2.652992248535156h-1.415008544921875v-14.3280029296875h-3.3599853515625l-5.8380126953125,15.035003662109375v2.122993469238281h6.014007568359375v3.361007690429688h3.183990478515625v-.177001953125Zm-6.19097900390625-6.013999938964844l3.006988525390625-8.314002990722656v8.314002990722656h-3.006988525390625Z" fill="#fff" fill-rule="evenodd"/>
  <path d="m32.899993896484375,8.313003540039062h1.415008544921875v7.252998352050781h1.769012451171875v1.237998962402344h-3.18402099609375v-8.490997314453125Z" fill="#fff" fill-rule="evenodd"/>
  <path d="m38.02899169921875,8.313003540039062h-1.41497802734375v8.490997314453125h1.41497802734375v-8.490997314453125Z" fill="#fff"/>
  <path d="m38.73699951171875,8.313003540039062h3.360992431640625v1.061996459960938h-1.94598388671875v2.475997924804688h1.59197998046875v1.061004638671875h-1.59197998046875v3.891998291015625h-1.415008544921875v-8.490997314453125Z" fill="#fff" fill-rule="evenodd"/>
  <path d="m42.805999755859375,8.313003540039062h3.3599853515625v1.061996459960938h-1.944976806640625v2.475997924804688h1.41497802734375v1.061004638671875h-1.41497802734375v2.653999328613281h1.944976806640625v1.237998962402344h-3.3599853515625v-8.490997314453125Z" fill="#fff" fill-rule="evenodd"/>
  <path d="m32.899993896484375,20.16400146484375h2.123016357421875c1.41497802734375,0,1.94598388671875.708000183105469,1.94598388671875,1.945999145507812v.885002136230469c0,.707000732421875-.177001953125,1.237998962402344-.884979248046875,1.415000915527344.707977294921875.176994323730469,1.061981201171875.707000732421875,1.061981201171875,1.414993286132812v1.061004638671875c0,1.237991333007812-.531005859375,1.945999145507812-1.94598388671875,1.945999145507812h-2.300018310546875v-8.667999267578125Zm1.415008544921875,3.714996337890625h.531005859375c.531005859375,0,.707977294921875-.176994323730469.707977294921875-.708000183105469v-1.060997009277344c0-.529998779296875-.176971435546875-.707000732421875-.707977294921875-.707000732421875h-.531005859375v2.475997924804688Zm0,1.061004638671875v2.65399169921875h.7080078125c.530975341796875,0,.707977294921875-.176986694335938.707977294921875-.707992553710938v-1.238006591796875c0-.530990600585938-.177001953125-.707992553710938-.707977294921875-.707992553710938h-.7080078125Z" fill="#fff" fill-rule="evenodd"/>
  <path d="m37.675994873046875,20.16400146484375h3.360992431640625v1.061996459960938h-1.94598388671875v2.652999877929688h1.415008544921875v1.061004638671875h-1.415008544921875v2.65399169921875h1.94598388671875v1.238006591796875h-3.360992431640625v-8.667999267578125Z" fill="#fff" fill-rule="evenodd"/>
  <path d="m41.920989990234375,20.16400146484375h1.415008544921875v7.42999267578125h1.769012451171875v1.238006591796875h-3.18402099609375v-8.667999267578125Z" fill="#fff" fill-rule="evenodd"/>
  <path d="m45.635986328125,26.531997680664062v-4.068000793457031c0-1.414993286132812.707000732421875-2.299995422363281,2.29901123046875-2.299995422363281s2.29998779296875,1.061996459960938,2.29998779296875,2.299995422363281v4.068000793457031c0,1.415008544921875-.707977294921875,2.300003051757812-2.29998779296875,2.300003051757812s-2.29901123046875-1.061996459960938-2.29901123046875-2.300003051757812Zm2.83001708984375.177001953125v-4.5989990234375c0-.529998779296875-.177001953125-.884002685546875-.7080078125-.884002685546875-.529998779296875,0-.707000732421875.35400390625-.707000732421875.884002685546875v4.5989990234375c0,.531005859375.177001953125.884994506835938.707000732421875.884994506835938.531005859375,0,.7080078125-.353988647460938.7080078125-.884994506835938Z" fill="#fff" fill-rule="evenodd"/>
  <path d="m53.772003173828125,23.525001525878906l-.884002685546875,5.306999206542969h-1.239013671875l-1.23797607421875-8.667999267578125h1.41497802734375l.7080078125,5.483993530273438.707000732421875-5.483993530273438h1.06201171875l.884002685546875,5.483993530273438.707977294921875-5.483993530273438h1.061004638671875l-1.061004638671875,8.667999267578125h-1.415985107421875l-.707000732421875-5.306999206542969Z" fill="#fff" fill-rule="evenodd"/>
  <path d="m62.084991455078125,23.525001525878906l-.707000732421875,5.306999206542969h-1.41497802734375l-1.238006591796875-8.667999267578125h1.415008544921875l.70697021484375,5.483993530273438.7080078125-5.483993530273438h1.238006591796875l.707000732421875,5.483993530273438h.177001953125l.531005859375-5.483993530273438h1.238006591796875l-1.061004638671875,8.667999267578125h-1.415008544921875l-.885009765625-5.306999206542969Z" fill="#fff" fill-rule="evenodd"/>
  <path d="m65.269989013671875,28.832000732421875l1.59100341796875-8.667999267578125h1.592010498046875l1.592010498046875,8.667999267578125h-1.415008544921875l-.177001953125-1.591995239257812h-1.592010498046875l-.175994873046875,1.591995239257812h-1.415008544921875Zm1.76800537109375-2.830001831054688h1.06201171875l-.531005859375-3.538002014160156-.531005859375,3.538002014160156Z" fill="#fff" fill-rule="evenodd"/>
  <path d="m70.045989990234375,20.16400146484375h3.714019775390625v1.061996459960938h-1.238006591796875v7.606002807617188h-1.415008544921875v-7.606002807617188h-1.061004638671875v-1.061996459960938Z" fill="#fff" fill-rule="evenodd"/>
  <path d="m74.467987060546875,20.16400146484375h3.36102294921875v1.061996459960938h-1.946014404296875v2.652999877929688h1.415008544921875v1.061004638671875h-1.415008544921875v2.65399169921875h1.946014404296875v1.238006591796875h-3.36102294921875v-8.667999267578125Z" fill="#fff" fill-rule="evenodd"/>
  <path d="m80.12799072265625,24.76300048828125v4.069000244140625h-1.41497802734375v-8.667999267578125h2.12298583984375c1.415008544921875,0,1.94500732421875.708000183105469,1.94500732421875,1.945999145507812v1.060997009277344c0,.885002136230469-.35400390625,1.592002868652344-1.061004638671875,1.769004821777344l1.415008544921875,3.891998291015625h-1.415008544921875l-1.592010498046875-4.069000244140625Zm0-3.360000610351562v2.652999877929688h.531005859375c.529998779296875,0,.707000732421875-.353996276855469.707000732421875-.708000183105469v-1.237998962402344c0-.529998779296875-.177001953125-.707000732421875-.707000732421875-.707000732421875h-.531005859375Z" fill="#fff" fill-rule="evenodd"/>
  <rect x="33" y="1" width="59" height="33" fill="#566e78"/>
  <path d="m34.46099853515625,12.219001770019531c-.01800537109375.285995483398438-.08099365234375.543998718261719-.18798828125.772994995117188-.10400390625.22900390625-.2440185546875.425003051757812-.4210205078125.586006164550781-.177978515625.161994934082031-.38800048828125.286994934082031-.63299560546875.375-.2449951171875.08599853515625-.5159912109375.128997802734375-.81298828125.128997802734375-.33599853515625,0-.634002685546875-.060997009277344-.894012451171875-.183998107910156-.260986328125-.125-.47900390625-.298004150390625-.656982421875-.519004821777344-.177001953125-.2239990234375-.31201171875-.491996765136719-.406005859375-.805000305175781-.093994140625-.311996459960938-.1400146484375-.655998229980469-.1400146484375-1.030998229980469v-.765998840332031c0-.376998901367188.04901123046875-.722000122070312.14801025390625-1.035003662109375.0989990234375-.311996459960938.239990234375-.58099365234375.4219970703125-.803993225097656.1820068359375-.224006652832031.402008056640625-.398002624511719.660003662109375-.520004272460938.260009765625-.125.552001953125-.187995910644531.875-.187995910644531.31298828125,0,.589996337890625.044998168945312.832000732421875.13299560546875.2449951171875.089004516601562.4530029296875.215003967285156.625.378997802734375.1719970703125.16400146484375.3070068359375.365005493164062.406005859375.602005004882812s.1619873046875.503997802734375.18798828125.800994873046875h-1.093994140625c-.010009765625-.169998168945312-.0360107421875-.3179931640625-.0780029296875-.445999145507812-.03900146484375-.126998901367188-.097991943359375-.232994079589844-.175994873046875-.315994262695312-.07501220703125-.086006164550781-.1719970703125-.150001525878906-.28900146484375-.192001342773438-.114013671875-.043998718261719-.25201416015625-.066001892089844-.41400146484375-.066001892089844-.16900634765625,0-.316009521484375.036003112792969-.441009521484375.109001159667969s-.22998046875.180000305175781-.31298828125.320999145507812c-.08099365234375.139999389648438-.1400146484375.312995910644531-.17999267578125.518997192382812-.03900146484375.2030029296875-.058013916015625.435005187988281-.058013916015625.695999145507812v.773002624511719c0,.55999755859375.0780029296875.9739990234375.2340087890625,1.24200439453125.15899658203125.267997741699219.40899658203125.402999877929688.75.402999877929688.2869873046875,0,.51300048828125-.076004028320312.67999267578125-.227005004882812.1669921875-.153999328613281.259002685546875-.4010009765625.277008056640625-.741996765136719h1.097991943359375Zm4.824005126953125-.645004272460938c0,.365005493164062-.048004150390625.701004028320312-.144012451171875,1.008003234863281-.09698486328125.306999206542969-.235992431640625.571998596191406-.417999267578125.792999267578125-.1829833984375.221000671386719-.404998779296875.394996643066406-.667999267578125.519996643066406-.260986328125.122001647949219-.55499267578125.183006286621094-.88299560546875.183006286621094s-.6199951171875-.061004638671875-.875-.183006286621094c-.2550048828125-.125-.470001220703125-.298995971679688-.644989013671875-.519996643066406-.17401123046875-.2239990234375-.3070068359375-.487998962402344-.39801025390625-.792999267578125-.09100341796875-.306999206542969-.136993408203125-.642997741699219-.136993408203125-1.008003234863281v-.827995300292969c0-.363998413085938.045989990234375-.700004577636719.136993408203125-1.008003234863281.09100341796875-.306999206542969.2239990234375-.570999145507812.39801025390625-.792999267578125.17498779296875-.2239990234375.38800048828125-.398002624511719.6409912109375-.523002624511719.2550048828125-.125.5469970703125-.187995910644531.875-.187995910644531.33099365234375,0,.626007080078125.062995910644531.886993408203125.187995910644531.26300048828125.125.485015869140625.299003601074219.667999267578125.523002624511719.1820068359375.222000122070312.321014404296875.486000061035156.417999267578125.792999267578125.09600830078125.307998657226562.144012451171875.644004821777344.144012451171875,1.008003234863281v.827995300292969Zm-1.113006591796875-.83599853515625c0-.230995178222656-.019989013671875-.444999694824219-.058990478515625-.639999389648438-.0360107421875-.195999145507812-.095001220703125-.363998413085938-.175018310546875-.503997802734375-.08099365234375-.140998840332031-.18499755859375-.25-.31298828125-.3280029296875-.125-.081001281738281-.277008056640625-.121002197265625-.457000732421875-.121002197265625-.177001953125,0-.32598876953125.040000915527344-.44500732421875.121002197265625-.1199951171875.0780029296875-.21600341796875.187004089355469-.28900146484375.3280029296875-.072998046875.139999389648438-.125.307998657226562-.156982421875.503997802734375-.031005859375.194999694824219-.0469970703125.409004211425781-.0469970703125.639999389648438v.83599853515625c0,.22900390625.0159912109375.442001342773438.0469970703125.637001037597656.031982421875.194999694824219.083984375.364997863769531.156982421875.508003234863281.072998046875.142997741699219.16900634765625.254997253417969.28900146484375.33599853515625.1190185546875.080001831054688.269012451171875.121002197265625.449005126953125.121002197265625.177001953125,0,.3280029296875-.041000366210938.4530029296875-.121002197265625.12799072265625-.081001281738281.230010986328125-.192001342773438.308990478515625-.332000732421875.08001708984375-.143997192382812.1400146484375-.312995910644531.17901611328125-.508003234863281.03900146484375-.194999694824219.058990478515625-.40899658203125.058990478515625-.640998840332031v-.83599853515625Zm3.875-.386001586914062l1.011993408203125-2.040000915527344h1.28900146484375l-1.60198974609375,2.821006774902344,1.6409912109375,2.866996765136719h-1.281982421875l-1.042999267578125-2.069999694824219-1.03900146484375,2.069999694824219h-1.2960205078125l1.6400146484375-2.866996765136719-1.597015380859375-2.821006774902344h1.281005859375l.996002197265625,2.040000915527344Zm4.0469970703125,1.562004089355469v2.08599853515625h-1.097991943359375v-5.688003540039062h1.94500732421875c.30999755859375,0,.589996337890625.046005249023438.839996337890625.137001037597656.25.089004516601562.462005615234375.214004516601562.636993408203125.375.177001953125.159004211425781.31201171875.350006103515625.406005859375.574005126953125.09698486328125.2239990234375.144989013671875.472999572753906.144989013671875.746994018554688,0,.2550048828125-.048004150390625.490005493164062-.144989013671875.707000732421875-.093994140625.21600341796875-.22900390625.402999877929688-.406005859375.562004089355469-.17498779296875.155998229980469-.386993408203125.278999328613281-.636993408203125.366996765136719-.25.089004516601562-.529998779296875.133003234863281-.839996337890625.133003234863281h-.847015380859375Zm0-.890998840332031h.847015380859375c.156982421875,0,.2919921875-.023002624511719.406982421875-.069999694824219.114013671875-.047004699707031.209014892578125-.111000061035156.285003662109375-.191001892089844.0780029296875-.081001281738281.135009765625-.173004150390625.1719970703125-.277999877929688.03900146484375-.106002807617188.058013916015625-.217002868652344.058013916015625-.332000732421875,0-.132003784179688-.019012451171875-.255996704101562-.058013916015625-.371002197265625-.0369873046875-.113998413085938-.093994140625-.214996337890625-.1719970703125-.300994873046875-.07598876953125-.085006713867188-.170989990234375-.152999877929688-.285003662109375-.2030029296875-.114990234375-.049003601074219-.25-.073997497558594-.406982421875-.073997497558594h-.847015380859375v1.819999694824219Zm6.433013916015625,1.788993835449219h-1.707000732421875l-.33599853515625,1.188003540039062h-1.156005859375l1.863006591796875-5.688003540039062h.996978759765625l1.8280029296875,5.688003540039062h-1.156982421875l-.332000732421875-1.188003540039062Zm-1.43701171875-.932998657226562h1.17999267578125l-.582000732421875-2.093994140625-.597991943359375,2.093994140625Zm7.199005126953125,2.121002197265625h-1.08599853515625v-2.464996337890625h-1.6090087890625v2.464996337890625h-1.089996337890625v-5.688003540039062h1.089996337890625v2.333000183105469h1.6090087890625v-2.333000183105469h1.08599853515625v5.688003540039062Zm4.550994873046875-2.491996765136719h-2.33599853515625v1.604995727539062h2.730010986328125v.887001037597656h-3.832000732421875v-5.688003540039062h3.82098388671875v.895004272460938h-2.718994140625v1.433998107910156h2.33599853515625v.86700439453125Zm5.058013916015625,2.491996765136719h-1.08599853515625v-2.464996337890625h-1.6090087890625v2.464996337890625h-1.089996337890625v-5.688003540039062h1.089996337890625v2.333000183105469h1.6090087890625v-2.333000183105469h1.08599853515625v5.688003540039062Zm3.683990478515625-5.688003540039062h1.10198974609375v5.688003540039062h-1.10198974609375v-3.628997802734375l-1.613006591796875,3.628997802734375h-1.097991943359375v-5.688003540039062h1.097991943359375v3.633003234863281l1.613006591796875-3.633003234863281Zm5.6719970703125,3.196006774902344h-2.33599853515625v1.604995727539062h2.730010986328125v.887001037597656h-3.832000732421875v-5.688003540039062h3.82098388671875v.895004272460938h-2.718994140625v1.433998107910156h2.33599853515625v.86700439453125Zm-45.394989013671875,5.803993225097656l.53900146484375,2.137001037597656.613983154296875-2.137001037597656h1.363006591796875v5.688003540039062h-1.00799560546875v-1.683998107910156l.0469970703125-2.660003662109375-.746002197265625,2.469001770019531h-.542999267578125l-.667999267578125-2.362998962402344.0469970703125,2.554000854492188v1.683998107910156h-1.00799560546875v-5.688003540039062h1.363006591796875Zm7.425994873046875,3.262001037597656c0,.365005493164062-.048004150390625.701004028320312-.144012451171875,1.008003234863281-.09698486328125.306999206542969-.235992431640625.571998596191406-.417999267578125.792999267578125-.1829833984375.221000671386719-.404998779296875.394996643066406-.667999267578125.519996643066406-.260986328125.122001647949219-.55499267578125.183006286621094-.88299560546875.183006286621094s-.6199951171875-.061004638671875-.875-.183006286621094c-.2550048828125-.125-.470001220703125-.298995971679688-.644989013671875-.519996643066406-.17401123046875-.2239990234375-.3070068359375-.487998962402344-.39801025390625-.792999267578125-.09100341796875-.306999206542969-.136993408203125-.642997741699219-.136993408203125-1.008003234863281v-.827995300292969c0-.363998413085938.045989990234375-.700004577636719.136993408203125-1.008003234863281.09100341796875-.306999206542969.2239990234375-.570999145507812.39801025390625-.792999267578125.17498779296875-.2239990234375.38800048828125-.398002624511719.6409912109375-.523002624511719.2550048828125-.125.5469970703125-.187995910644531.875-.187995910644531.33099365234375,0,.626007080078125.062995910644531.886993408203125.187995910644531.26300048828125.125.485015869140625.299003601074219.667999267578125.523002624511719.1820068359375.222000122070312.321014404296875.486000061035156.417999267578125.792999267578125.09600830078125.307998657226562.144012451171875.644004821777344.144012451171875,1.008003234863281v.827995300292969Zm-1.113006591796875-.83599853515625c0-.230995178222656-.019989013671875-.444999694824219-.058990478515625-.639999389648438-.0360107421875-.195999145507812-.095001220703125-.363998413085938-.175018310546875-.503997802734375-.08099365234375-.140998840332031-.18499755859375-.25-.31298828125-.3280029296875-.125-.081001281738281-.277008056640625-.121002197265625-.457000732421875-.121002197265625-.177001953125,0-.32598876953125.040000915527344-.44500732421875.121002197265625-.1199951171875.0780029296875-.21600341796875.187004089355469-.28900146484375.3280029296875-.072998046875.139999389648438-.125.307998657226562-.156982421875.503997802734375-.031005859375.194999694824219-.0469970703125.409004211425781-.0469970703125.639999389648438v.83599853515625c0,.22900390625.0159912109375.442001342773438.0469970703125.637001037597656.031982421875.194999694824219.083984375.364997863769531.156982421875.508003234863281.072998046875.142997741699219.16900634765625.254997253417969.28900146484375.33599853515625.1190185546875.080001831054688.269012451171875.121002197265625.449005126953125.121002197265625.177001953125,0,.3280029296875-.041000366210938.4530029296875-.121002197265625.12799072265625-.081001281738281.230010986328125-.192001342773438.308990478515625-.332000732421875.08001708984375-.143997192382812.1400146484375-.312995910644531.17901611328125-.508003234863281.03900146484375-.194999694824219.058990478515625-.40899658203125.058990478515625-.640998840332031v-.83599853515625Zm3.11700439453125,1.176002502441406v2.08599853515625h-1.097991943359375v-5.688003540039062h1.94598388671875c.30999755859375,0,.589996337890625.046005249023438.839996337890625.137001037597656.25.089004516601562.462005615234375.214004516601562.636016845703125.375.177001953125.159004211425781.31298828125.350006103515625.406982421875.574005126953125.09600830078125.2239990234375.144012451171875.472999572753906.144012451171875.746994018554688,0,.2550048828125-.048004150390625.490005493164062-.144012451171875.707000732421875-.093994140625.21600341796875-.22998046875.402999877929688-.406982421875.562004089355469-.17401123046875.155998229980469-.386016845703125.278999328613281-.636016845703125.366996765136719-.25.089004516601562-.529998779296875.133003234863281-.839996337890625.133003234863281h-.847991943359375Zm0-.890998840332031h.847991943359375c.156005859375,0,.291015625-.023002624511719.406005859375-.069999694824219.114990234375-.047004699707031.209991455078125-.111000061035156.285003662109375-.191001892089844.0780029296875-.081001281738281.135986328125-.173004150390625.1719970703125-.277999877929688.03900146484375-.106002807617188.058990478515625-.217002868652344.058990478515625-.332000732421875,0-.132003784179688-.019989013671875-.255996704101562-.058990478515625-.371002197265625-.0360107421875-.113998413085938-.093994140625-.214996337890625-.1719970703125-.300994873046875-.07501220703125-.085006713867188-.170013427734375-.152999877929688-.285003662109375-.2030029296875-.114990234375-.049003601074219-.25-.073997497558594-.406005859375-.073997497558594h-.847991943359375v1.819999694824219Zm7.58599853515625,1.195999145507812c-.01800537109375.285995483398438-.08099365234375.543998718261719-.18701171875.772994995117188-.10498046875.22900390625-.2449951171875.425003051757812-.4219970703125.586006164550781-.177001953125.161994934082031-.38800048828125.286994934082031-.63299560546875.375-.2449951171875.08599853515625-.5159912109375.128997802734375-.81298828125.128997802734375-.33599853515625,0-.634002685546875-.060997009277344-.894012451171875-.183998107910156-.260986328125-.125-.47900390625-.298004150390625-.656005859375-.519004821777344-.177978515625-.2239990234375-.31298828125-.491996765136719-.406982421875-.805000305175781-.093017578125-.311996459960938-.1400146484375-.655998229980469-.1400146484375-1.030998229980469v-.765998840332031c0-.376998901367188.04901123046875-.722000122070312.14801025390625-1.035003662109375.0989990234375-.311996459960938.239990234375-.58099365234375.4219970703125-.803993225097656.1820068359375-.224006652832031.402008056640625-.398002624511719.660003662109375-.520004272460938.260986328125-.125.552001953125-.187995910644531.875-.187995910644531.31298828125,0,.589996337890625.044998168945312.832000732421875.13299560546875.2449951171875.089004516601562.4530029296875.215003967285156.625.378997802734375.1719970703125.16400146484375.3070068359375.365005493164062.406005859375.602005004882812s.1619873046875.503997802734375.18798828125.800994873046875h-1.093994140625c-.010009765625-.169998168945312-.0360107421875-.3179931640625-.0780029296875-.445999145507812-.03900146484375-.126998901367188-.097991943359375-.232994079589844-.175994873046875-.315994262695312-.07501220703125-.086006164550781-.1719970703125-.150001525878906-.28900146484375-.192001342773438-.114013671875-.043998718261719-.25201416015625-.066001892089844-.41400146484375-.066001892089844-.16900634765625,0-.316009521484375.036003112792969-.441009521484375.109001159667969s-.22900390625.180000305175781-.31298828125.320999145507812c-.08099365234375.139999389648438-.1400146484375.312995910644531-.17901611328125.518997192382812-.03997802734375.2030029296875-.058990478515625.435005187988281-.058990478515625.695999145507812v.773002624511719c0,.55999755859375.0780029296875.9739990234375.2340087890625,1.24200439453125.15899658203125.267997741699219.40899658203125.402999877929688.75.402999877929688.2869873046875,0,.51300048828125-.076004028320312.67999267578125-.227005004882812.1669921875-.153999328613281.259002685546875-.4010009765625.277008056640625-.741996765136719h1.097991943359375Zm2.488006591796875-.555000305175781h-.457000732421875v2.33599853515625h-1.097015380859375v-5.688003540039062h1.097015380859375v2.504005432128906h.269989013671875l1.488006591796875-2.504005432128906h1.269989013671875l-1.69598388671875,2.739006042480469,1.761993408203125,2.948997497558594h-1.27301025390625l-1.363983154296875-2.33599853515625Zm5.80499267578125-3.352005004882812h1.10198974609375v5.688003540039062h-1.10198974609375v-3.628997802734375l-1.613006591796875,3.628997802734375h-1.097991943359375v-5.688003540039062h1.097991943359375v3.633003234863281l1.613006591796875-3.633003234863281Zm4.097991943359375,2.040000915527344l1.011016845703125-2.040000915527344h1.28900146484375l-1.60101318359375,2.821006774902344,1.6400146484375,2.866996765136719h-1.281005859375l-1.042999267578125-2.069999694824219-1.03900146484375,2.069999694824219h-1.2969970703125l1.6409912109375-2.866996765136719-1.597991943359375-2.821006774902344h1.281982421875l.996002197265625,2.040000915527344Zm-30.031982421875,10.756996154785156c-.0150146484375.172012329101562-.00201416015625.326004028320312.03900146484375.461013793945312.0419921875.135986328125.102996826171875.25.183990478515625.343994140625.0830078125.093994140625.180999755859375.164993286132812.292999267578125.214996337890625.114990234375.048995971679688.238006591796875.074005126953125.371002197265625.074005126953125.156005859375,0,.298004150390625-.0260009765625.425994873046875-.0780029296875.12701416015625-.052001953125.235992431640625-.134994506835938.324005126953125-.25.0889892578125-.11700439453125.156005859375-.266998291015625.2030029296875-.449005126953125.04998779296875-.182998657226562.074005126953125-.404998779296875.074005126953125-.667999267578125v-.152999877929688h-1.496002197265625v-.886001586914062h1.496002197265625v-.152999877929688c0-.25-.02301025390625-.465988159179688-.07000732421875-.647994995117188-.04400634765625-.1820068359375-.1090087890625-.332000732421875-.19500732421875-.449005126953125-.083984375-.1199951171875-.186004638671875-.208999633789062-.308990478515625-.2659912109375-.1199951171875-.0570068359375-.253997802734375-.08599853515625-.402008056640625-.08599853515625-.15899658203125,0-.300994873046875.024993896484375-.425994873046875.073989868164062-.12200927734375.050003051757812-.2239990234375.123001098632812-.30499267578125.219009399414062-.08001708984375.093994140625-.139007568359375.209991455078125-.175018310546875.347991943359375-.0369873046875.13800048828125-.048980712890625.29400634765625-.035980224609375.469009399414062h-1.097015380859375c0-.274002075195312.0469970703125-.531997680664062.1400146484375-.774002075195312.09698486328125-.24200439453125.233978271484375-.454010009765625.410980224609375-.637008666992188.177001953125-.181991577148438.3900146484375-.324996948242188.6400146484375-.429000854492188.25299072265625-.10699462890625.535003662109375-.159988403320312.847991943359375-.159988403320312.30499267578125,0,.5830078125.054000854492188.83599853515625.16400146484375.2550048828125.105987548828125.4739990234375.259994506835938.656005859375.46099853515625.1820068359375.199996948242188.324005126953125.445999145507812.425994873046875.737991333007812.10101318359375.28900146484375.152008056640625.613998413085938.152008056640625.975997924804688v1.184005737304688c0,.365005493164062-.04901123046875.690994262695312-.14801025390625.979995727539062-.0989990234375.287002563476562-.240997314453125.529998779296875-.425994873046875.731002807617188-.1820068359375.197998046875-.404998779296875.350006103515625-.667999267578125.457000732421875-.260009765625.10699462890625-.553009033203125.160003662109375-.878997802734375.160003662109375-.28900146484375,0-.5570068359375-.04400634765625-.80499267578125-.13299560546875-.2440185546875-.0880126953125-.457000732421875-.217010498046875-.636016845703125-.386001586914062-.177001953125-.169998168945312-.313995361328125-.375-.410003662109375-.618011474609375-.09698486328125-.243988037109375-.1409912109375-.521987915039062-.13299560546875-.832000732421875h1.097015380859375Zm5.714996337890625-.444992065429688h-.457000732421875v2.33599853515625h-1.097015380859375v-5.688003540039062h1.097015380859375v2.503997802734375h.269989013671875l1.488006591796875-2.503997802734375h1.269989013671875l-1.69598388671875,2.738998413085938,1.761993408203125,2.949005126953125h-1.27398681640625l-1.363006591796875-2.33599853515625Zm7.1409912109375-.089996337890625c0,.364990234375-.048004150390625.70098876953125-.144989013671875,1.00799560546875-.09600830078125.3070068359375-.235015869140625.572006225585938-.417999267578125.792999267578125-.1820068359375.220993041992188-.404998779296875.395004272460938-.667999267578125.520004272460938-.260009765625.121994018554688-.55401611328125.182998657226562-.88201904296875.182998657226562-.3289794921875,0-.6199951171875-.061004638671875-.875-.182998657226562-.2559814453125-.125-.470001220703125-.29901123046875-.644989013671875-.520004272460938-.17401123046875-.2239990234375-.3070068359375-.488006591796875-.39801025390625-.792999267578125-.09197998046875-.3070068359375-.136993408203125-.64300537109375-.136993408203125-1.00799560546875v-.8280029296875c0-.363998413085938.045013427734375-.699996948242188.136993408203125-1.00799560546875.09100341796875-.3070068359375.2239990234375-.570999145507812.39801025390625-.792999267578125.17498779296875-.224014282226562.38800048828125-.39801025390625.6409912109375-.52301025390625.2550048828125-.125.5469970703125-.188003540039062.875-.188003540039062.33001708984375,0,.626007080078125.063003540039062.886016845703125.188003540039062.26300048828125.125.485992431640625.298995971679688.667999267578125.52301025390625.1829833984375.222000122070312.321990966796875.485992431640625.417999267578125.792999267578125.09698486328125.307998657226562.144989013671875.643997192382812.144989013671875,1.00799560546875v.8280029296875Zm-1.113006591796875-.83599853515625c0-.231002807617188-.019989013671875-.44500732421875-.058990478515625-.639999389648438-.0360107421875-.196014404296875-.095001220703125-.364013671875-.175994873046875-.504013061523438-.08099365234375-.1409912109375-.18499755859375-.25-.31201171875-.327987670898438-.125-.081008911132812-.277984619140625-.121002197265625-.457000732421875-.121002197265625-.177001953125,0-.32598876953125.039993286132812-.44598388671875.121002197265625-.1190185546875.077987670898438-.21600341796875.186996459960938-.28900146484375.327987670898438-.072998046875.139999389648438-.125.307998657226562-.156005859375.504013061523438-.031005859375.194992065429688-.0469970703125.40899658203125-.0469970703125.639999389648438v.83599853515625c0,.228988647460938.0159912109375.442001342773438.0469970703125.636993408203125.031005859375.19500732421875.0830078125.365005493164062.156005859375.50799560546875.072998046875.14300537109375.16998291015625.2550048828125.28900146484375.33599853515625.1199951171875.080001831054688.269989013671875.121002197265625.449981689453125.121002197265625.177001953125,0,.3280029296875-.041000366210938.4530029296875-.121002197265625.12701416015625-.08099365234375.230010986328125-.191986083984375.308013916015625-.331985473632812.08099365234375-.144012451171875.1409912109375-.313003540039062.17999267578125-.508010864257812.03900146484375-.194992065429688.058990478515625-.40899658203125.058990478515625-.6409912109375v-.83599853515625Zm5.89801025390625,1.480987548828125c-.01800537109375.2860107421875-.08099365234375.54400634765625-.18701171875.77301025390625-.10498046875.228988647460938-.2449951171875.425003051757812-.4219970703125.58599853515625-.177001953125.162002563476562-.38800048828125.287002563476562-.63299560546875.375-.2449951171875.08599853515625-.5159912109375.128997802734375-.81298828125.128997802734375-.33599853515625,0-.634002685546875-.061004638671875-.894012451171875-.184005737304688-.260986328125-.125-.47900390625-.297988891601562-.656005859375-.518997192382812-.177978515625-.2239990234375-.31298828125-.49200439453125-.406982421875-.80499267578125-.093017578125-.31201171875-.1400146484375-.656005859375-.1400146484375-1.031005859375v-.766006469726562c0-.376998901367188.04901123046875-.722000122070312.14801025390625-1.034988403320312.0989990234375-.31201171875.239990234375-.581008911132812.4219970703125-.804000854492188.1820068359375-.2239990234375.402008056640625-.39801025390625.660003662109375-.520004272460938.260986328125-.125.552001953125-.188003540039062.875-.188003540039062.31298828125,0,.589996337890625.044998168945312.832000732421875.133010864257812.2449951171875.0889892578125.4530029296875.214996337890625.625.378997802734375s.3070068359375.364990234375.406005859375.60198974609375.1619873046875.504013061523438.18798828125.801010131835938h-1.093994140625c-.010009765625-.169998168945312-.0360107421875-.318008422851562-.0780029296875-.445999145507812-.03900146484375-.126998901367188-.097991943359375-.233001708984375-.175994873046875-.316009521484375-.07501220703125-.08599853515625-.1719970703125-.149993896484375-.28900146484375-.192001342773438-.114013671875-.043991088867188-.25201416015625-.065994262695312-.41400146484375-.065994262695312-.16900634765625,0-.316009521484375.035995483398438-.441009521484375.108993530273438-.125.073013305664062-.22900390625.180007934570312-.31298828125.320999145507812-.08099365234375.1400146484375-.1400146484375.313003540039062-.17901611328125.519012451171875-.03997802734375.202987670898438-.058990478515625.43499755859375-.058990478515625.695999145507812v.772994995117188c0,.55999755859375.0780029296875.9739990234375.2340087890625,1.24200439453125.15899658203125.267990112304688.40899658203125.402999877929688.75.402999877929688.2869873046875,0,.51300048828125-.076004028320312.67999267578125-.227005004882812.1669921875-.15399169921875.259002685546875-.4010009765625.277008056640625-.74200439453125h1.097991943359375Zm3.488006591796875-3.906997680664062h1.10198974609375v5.688003540039062h-1.10198974609375v-3.628997802734375l-1.613006591796875,3.628997802734375h-1.097991943359375v-5.688003540039062h1.097991943359375v3.633010864257812l1.613006591796875-3.633010864257812Zm6.121002197265625,3.906997680664062c-.01800537109375.2860107421875-.08001708984375.54400634765625-.18701171875.77301025390625-.10400390625.228988647460938-.2449951171875.425003051757812-.4219970703125.58599853515625-.177001953125.162002563476562-.38800048828125.287002563476562-.63299560546875.375-.2449951171875.08599853515625-.5150146484375.128997802734375-.81201171875.128997802734375-.33599853515625,0-.634002685546875-.061004638671875-.894989013671875-.184005737304688-.260009765625-.125-.47900390625-.297988891601562-.656005859375-.518997192382812-.177001953125-.2239990234375-.31298828125-.49200439453125-.406005859375-.80499267578125-.093994140625-.31201171875-.1409912109375-.656005859375-.1409912109375-1.031005859375v-.766006469726562c0-.376998901367188.04998779296875-.722000122070312.14801025390625-1.034988403320312.0989990234375-.31201171875.239990234375-.581008911132812.4219970703125-.804000854492188.1829833984375-.2239990234375.402984619140625-.39801025390625.660003662109375-.520004272460938.260986328125-.125.552978515625-.188003540039062.8759765625-.188003540039062.31201171875,0,.589019775390625.044998168945312.832000732421875.133010864257812.2440185546875.0889892578125.4530029296875.214996337890625.625.378997802734375.1710205078125.16400146484375.3070068359375.364990234375.406005859375.60198974609375s.1610107421875.504013061523438.18701171875.801010131835938h-1.093017578125c-.010986328125-.169998168945312-.0369873046875-.318008422851562-.0789794921875-.445999145507812-.03900146484375-.126998901367188-.097015380859375-.233001708984375-.175018310546875-.316009521484375-.07598876953125-.08599853515625-.1719970703125-.149993896484375-.28900146484375-.192001342773438-.114990234375-.043991088867188-.25299072265625-.065994262695312-.41400146484375-.065994262695312-.16998291015625,0-.316986083984375.035995483398438-.441986083984375.108993530273438-.125.073013305664062-.22900390625.180007934570312-.31201171875.320999145507812-.08099365234375.1400146484375-.1409912109375.313003540039062-.17999267578125.519012451171875-.03900146484375.202987670898438-.058990478515625.43499755859375-.058990478515625.695999145507812v.772994995117188c0,.55999755859375.0780029296875.9739990234375.2349853515625,1.24200439453125.15899658203125.267990112304688.40899658203125.402999877929688.75.402999877929688.2860107421875,0,.51300048828125-.076004028320312.67901611328125-.227005004882812.1669921875-.15399169921875.259002685546875-.4010009765625.277984619140625-.74200439453125h1.097015380859375Zm5.035980224609375-3.011993408203125h-1.753997802734375v4.792999267578125h-1.10198974609375v-4.792999267578125h-1.730010986328125v-.895004272460938h4.58599853515625v.895004272460938Zm4.125,2.300994873046875h-2.33599853515625v1.605010986328125h2.730010986328125v.886993408203125h-3.832000732421875v-5.688003540039062h3.82000732421875v.895004272460938h-2.718017578125v1.434005737304688h2.33599853515625v.866989135742188Zm2.652008056640625-3.195999145507812l.53900146484375,2.137008666992188.613006591796875-2.137008666992188h1.363006591796875v5.688003540039062h-1.00701904296875v-1.684005737304688l.0469970703125-2.659988403320312-.746978759765625,2.468994140625h-.542999267578125l-.667022705078125-2.363006591796875.0460205078125,2.554000854492188v1.684005737304688h-1.00701904296875v-5.688003540039062h1.363006591796875Z" fill="#fff"/>
</svg>