<?xml version="1.0" encoding="UTF-8"?>
<svg id="uuid-4dba524a-61b6-4b0c-bfbb-3b57cced325c" data-name="Layer 1" xmlns="http://www.w3.org/2000/svg" width="101" height="101" viewBox="0 0 101 101">
  <path d="m101.028619501175854,0H.028619501175854v101h101V0Z" fill="#566e78"/>
  <path d="m72.028619501175854,67.410995483398438c0-5.571990966796875-4.6199951171875-10.167999267578125-10.39398193359375-10.446990966796875-1.44403076171875-4.03900146484375-5.48602294921875-6.964004516601562-10.10601806640625-6.964004516601562s-8.6619873046875,2.925003051757812-10.10601806640625,6.964004516601562c-5.77398681640625.139999389648438-10.39398193359375,4.735992431640625-10.39398193359375,10.446990966796875,0,3.343002319335938,1.5880126953125,6.26800537109375,4.18701171875,8.218002319335938-.28900146484375.975006103515625-.4329833984375,1.949996948242188-.4329833984375,2.925003051757812,0,5.710006713867188,4.907958984375,10.445999145507812,10.82696533203125,10.445999145507812,2.30999755859375,0,4.33099365234375-.695999145507812,6.06298828125-1.811004638671875,1.7330322265625,1.115005493164062,3.7540283203125,1.811004638671875,5.91900634765625,1.811004638671875,5.91900634765625,0,10.8280029296875-4.595993041992188,10.8280029296875-10.445999145507812,0-.975006103515625-.14501953125-1.949996948242188-.4329833984375-2.785995483398438,2.4539794921875-2.089004516601562,4.0419921875-5.014007568359375,4.0419921875-8.357009887695312Zm-11.98199462890625-6.964996337890625c0,4.179000854492188-3.176025390625,7.660995483398438-7.36297607421875,8.218002319335938,0-.417999267578125-.14404296875-.835006713867188-.14404296875-1.253005981445312,0-4.179000854492188,3.176025390625-7.660995483398438,7.36199951171875-8.218002319335938.14501953125.417999267578125.14501953125.836013793945312.14501953125,1.253005981445312Zm-8.51800537109375,23.9580078125c-1.5880126953125-1.533004760742188-2.5989990234375-3.62200927734375-2.5989990234375-5.990005493164062,0-2.227996826171875,1.010986328125-4.318008422851562,2.5989990234375-5.850006103515625,1.5880126953125,1.531997680664062,2.5989990234375,3.62200927734375,2.5989990234375,5.990005493164062,0,2.227996826171875-1.010986328125,4.317001342773438-2.5989990234375,5.850006103515625Zm-8.51800537109375-25.211013793945312c4.18701171875.5570068359375,7.36297607421875,4.03900146484375,7.36297607421875,8.218002319335938,0,.417999267578125,0,.835006713867188-.14398193359375,1.253005981445312-4.18701171875-.5570068359375-7.36297607421875-4.03900146484375-7.36297607421875-8.218002319335938,0-.4169921875.14398193359375-.835006713867188.14398193359375-1.253005981445312Zm6.35302734375,11.978012084960938c-1.44403076171875,2.646987915039062-4.33099365234375,4.597000122070312-7.65203857421875,4.597000122070312-1.4439697265625,0-2.74298095703125-.279006958007812-3.89801025390625-.975006103515625,1.44403076171875-2.785995483398438,4.3310546875-4.597000122070312,7.65203857421875-4.597000122070312,1.4429931640625,0,2.74298095703125.279006958007812,3.89801025390625.975006103515625Zm4.18597412109375-.139007568359375c1.155029296875-.556991577148438,2.5989990234375-.974990844726562,4.0419921875-.974990844726562,3.32098388671875,0,6.35302734375,1.949996948242188,7.65203857421875,4.597000122070312-1.155029296875.556991577148438-2.5989990234375.974990844726562-4.04205322265625.974990844726562-3.32098388671875.139007568359375-6.20794677734375-1.811004638671875-7.6519775390625-4.597000122070312Zm-2.02099609375-18.802993774414062c3.46502685546875,0,6.49700927734375,2.0889892578125,7.94000244140625,5.013992309570312-3.46502685546875.5570068359375-6.49603271484375,2.7860107421875-7.94000244140625,5.850006103515625-1.4439697265625-3.063995361328125-4.33099365234375-5.292999267578125-7.94000244140625-5.850006103515625,1.29901123046875-2.925003051757812,4.33099365234375-5.013992309570312,7.94000244140625-5.013992309570312Zm-18.33502197265625,15.181991577148438c0-4.3179931640625,3.321044921875-7.800003051757812,7.65203857421875-8.218002319335938,0,.417999267578125-.14404296875.836013793945312-.14404296875,1.39300537109375,0,3.063995361328125,1.29901123046875,5.710006713867188,3.46405029296875,7.660003662109375-3.6090087890625.417999267578125-6.64105224609375,2.50799560546875-8.22900390625,5.432998657226562-1.73199462890625-1.6719970703125-2.7430419921875-3.761001586914062-2.7430419921875-6.26800537109375Zm3.7540283203125,11.14300537109375c0-.557998657226562,0-1.115005493164062.14398193359375-1.6719970703125,1.44403076171875.696990966796875,3.031982421875.974990844726562,4.6199951171875.974990844726562,1.87701416015625,0,3.6090087890625-.417999267578125,5.197021484375-1.25299072265625-.14398193359375.556991577148438-.14398193359375,1.25299072265625-.14398193359375,1.949996948242188,0,2.785003662109375,1.15496826171875,5.431991577148438,3.031982421875,7.24200439453125-1.29998779296875.696990966796875-2.74298095703125,1.114990234375-4.33099365234375,1.114990234375-4.7640380859375-.139999389648438-8.51800537109375-3.899993896484375-8.51800537109375-8.35699462890625Zm29.1619873046875-.139999389648438c0,4.597000122070312-3.89801025390625,8.35699462890625-8.6619873046875,8.35699462890625-1.5880126953125,0-3.031982421875-.4169921875-4.18701171875-1.113998413085938,1.87701416015625-1.811004638671875,2.88800048828125-4.3179931640625,2.88800048828125-7.102996826171875,0-.697006225585938,0-1.39300537109375-.14501953125-1.949996948242188,1.5880126953125.834991455078125,3.321044921875,1.25299072265625,5.197998046875,1.25299072265625,1.7320556640625,0,3.32000732421875-.417999267578125,4.6190185546875-1.113998413085938.28900146484375.5570068359375.28900146484375,1.113998413085938.28900146484375,1.671005249023438Zm-7.218017578125-10.3070068359375c2.1650390625-1.949996948242188,3.46405029296875-4.595993041992188,3.46405029296875-7.660995483398438,0-.4169921875,0-.835006713867188-.14404296875-1.391998291015625,4.33099365234375.4169921875,7.65203857421875,4.03900146484375,7.65203857421875,8.216995239257812,0,2.368011474609375-1.155029296875,4.597000122070312-2.88800048828125,6.128997802734375-1.5880126953125-2.785995483398438-4.6199951171875-4.875-8.08404541015625-5.292999267578125Z" fill="#fff" fill-rule="evenodd"/>
  <path d="m15.213617059769604,8.489997863769531v20.342002868652344h-3.35498046875v-15.566001892089844l-2.4720458984375,2.476997375488281v-3.537994384765625l3.17901611328125-3.715003967285156h2.64801025390625Z" fill="#fff" fill-rule="evenodd"/>
  <path d="m16.802606317582104,8.489997863769531h8.65301513671875v3.184005737304688l-4.59100341796875,17.157997131347656h-3.35498046875l4.59100341796875-17.511001586914062h-5.29803466796875v-2.831001281738281Z" fill="#fff" fill-rule="evenodd"/>
  <path d="m32.871637079300854,8.313003540039062h2.11895751953125c1.41204833984375,0,1.9420166015625.708000183105469,1.9420166015625,1.945999145507812v1.768997192382812c0,1.237998962402344-.52996826171875,1.945999145507812-1.9420166015625,1.945999145507812h-.70697021484375v2.830001831054688h-1.4119873046875v-8.490997314453125Zm1.4119873046875,1.061996459960938v3.360000610351562h.52996826171875c.530029296875,0,.7060546875-.176002502441406.7060546875-.707000732421875v-1.945999145507812c0-.529998779296875-.176025390625-.707000732421875-.7060546875-.707000732421875h-.52996826171875Z" fill="#fff" fill-rule="evenodd"/>
  <path d="m36.932611200394604,16.804000854492188l1.5889892578125-8.490997314453125h1.59002685546875l1.5889892578125,8.490997314453125h-1.41302490234375l-.35296630859375-1.592002868652344h-1.5889892578125l-.177001953125,1.592002868652344h-1.23602294921875Zm1.7659912109375-2.830001831054688h1.23602294921875l-.530029296875-3.361000061035156-.70599365234375,3.361000061035156Z" fill="#fff" fill-rule="evenodd"/>
  <path d="m43.818597528519604,12.912002563476562v3.891998291015625h-1.4119873046875v-8.490997314453125h2.1190185546875c1.4119873046875,0,1.9420166015625.708000183105469,1.9420166015625,1.945999145507812v1.060997009277344c0,.885002136230469-.35302734375,1.415000915527344-1.05902099609375,1.592002868652344l1.4119873046875,3.891998291015625h-1.4119873046875l-1.59002685546875-3.891998291015625Zm0-3.537002563476562v2.652999877929688h.530029296875c.52996826171875,0,.70697021484375-.177001953125.70697021484375-.708000183105469v-1.237998962402344c0-.529998779296875-.177001953125-.707000732421875-.70697021484375-.707000732421875h-.530029296875Z" fill="#fff" fill-rule="evenodd"/>
  <path d="m46.997613641800854,8.313003540039062h3.884033203125v1.061996459960938h-1.23602294921875v7.429000854492188h-1.4119873046875v-7.429000854492188h-1.23602294921875v-1.061996459960938Z" fill="#fff" fill-rule="evenodd"/>
  <path d="m52.647638055863354,11.319999694824219v5.484001159667969h-1.05902099609375v-8.490997314453125h1.23602294921875l1.5889892578125,4.775993347167969v-4.775993347167969h1.0589599609375v8.490997314453125h-1.0589599609375l-1.7659912109375-5.484001159667969Z" fill="#fff" fill-rule="evenodd"/>
  <path d="m56.355645868363354,8.313003540039062h3.35498046875v1.061996459960938h-1.9420166015625v2.475997924804688h1.4119873046875v1.061004638671875h-1.4119873046875v2.653999328613281h1.9420166015625v1.237998962402344h-3.35498046875v-8.490997314453125Z" fill="#fff" fill-rule="evenodd"/>
  <path d="m62.005609247269604,12.912002563476562v3.891998291015625h-1.4129638671875v-8.490997314453125h2.11895751953125c1.41302490234375,0,1.9429931640625.708000183105469,1.9429931640625,1.945999145507812v1.060997009277344c0,.885002136230469-.35296630859375,1.415000915527344-1.05999755859375,1.592002868652344l1.41302490234375,3.891998291015625h-1.41302490234375l-1.5889892578125-3.891998291015625Zm0-3.537002563476562v2.652999877929688h.530029296875c.52899169921875,0,.70599365234375-.177001953125.70599365234375-.708000183105469v-1.237998962402344c0-.529998779296875-.177001953125-.707000732421875-.70599365234375-.707000732421875h-.530029296875Z" fill="#fff" fill-rule="evenodd"/>
  <path d="m65.360589716019604,15.035003662109375v-1.061004638671875h1.23602294921875v1.237998962402344c0,.529998779296875.177001953125.707000732421875.70599365234375.707000732421875.35400390625,0,.70703125-.352996826171875.70703125-.707000732421875v-.353996276855469c0-.530998229980469-.177001953125-.707000732421875-.530029296875-1.237998962402344l-.88299560546875-.885002136230469c-.88299560546875-.707000732421875-1.23602294921875-1.237998962402344-1.23602294921875-2.299003601074219v-.353996276855469c0-1.060997009277344.530029296875-1.944999694824219,1.9420166015625-1.944999694824219,1.41302490234375,0,1.9429931640625.707000732421875,1.9429931640625,1.944999694824219v.708000183105469h-1.2359619140625v-.708000183105469c0-.529998779296875-.177001953125-.707000732421875-.70703125-.707000732421875-.35296630859375,0-.70599365234375.177001953125-.70599365234375.707000732421875v.177001953125c0,.530998229980469.35302734375.708000183105469.70599365234375,1.060997009277344l.88299560546875.885002136230469c.70703125.883995056152344,1.05999755859375,1.237998962402344,1.05999755859375,2.122001647949219v.353996276855469c0,1.237998962402344-.70697021484375,1.945999145507812-2.11895751953125,1.945999145507812-1.41302490234375,0-1.76605224609375-.530998229980469-1.76605224609375-1.591995239257812Z" fill="#fff" fill-rule="evenodd"/>
  <path d="m72.953607294144604,12.912002563476562h-1.4129638671875v3.891998291015625h-1.41204833984375v-8.490997314453125h1.41204833984375v3.537994384765625h1.4129638671875v-3.537994384765625h1.4119873046875v8.490997314453125h-1.4119873046875v-3.891998291015625Z" fill="#fff" fill-rule="evenodd"/>
  <path d="m76.661615106644604,8.313003540039062h-1.4119873046875v8.490997314453125h1.4119873046875v-8.490997314453125Z" fill="#fff"/>
  <path d="m77.367608758988354,8.313003540039062h2.1190185546875c1.4119873046875,0,2.1190185546875.708000183105469,2.1190185546875,1.945999145507812v1.768997192382812c0,1.237998962402344-.530029296875,1.945999145507812-2.1190185546875,1.945999145507812h-.70703125v2.830001831054688h-1.4119873046875v-8.490997314453125Zm1.4119873046875,1.061996459960938v3.360000610351562h.530029296875c.52996826171875,0,.70599365234375-.176002502441406.70599365234375-.707000732421875v-1.945999145507812c0-.529998779296875-.176025390625-.707000732421875-.70599365234375-.707000732421875h-.530029296875Z" fill="#fff" fill-rule="evenodd"/>
  <path d="m82.311639520707104,15.035003662109375v-1.061004638671875h1.2359619140625v1.237998962402344c0,.529998779296875.177001953125.707000732421875.70599365234375.707000732421875.35302734375,0,.70703125-.352996826171875.70703125-.707000732421875v-.353996276855469c0-.530998229980469-.177001953125-.707000732421875-.70703125-1.237998962402344l-.88299560546875-.885002136230469c-.8819580078125-.707000732421875-1.2359619140625-1.237998962402344-1.2359619140625-2.299003601074219v-.353996276855469c0-1.060997009277344.52996826171875-1.944999694824219,1.9429931640625-1.944999694824219,1.4119873046875,0,1.9420166015625.707000732421875,1.9420166015625,1.944999694824219v.708000183105469h-1.23602294921875v-.708000183105469c0-.529998779296875-.177001953125-.707000732421875-.70599365234375-.707000732421875-.35302734375,0-.70703125.177001953125-.70703125.707000732421875v.177001953125c0,.530998229980469.177001953125.708000183105469.70703125,1.060997009277344l.88299560546875.885002136230469c.70599365234375.883995056152344,1.05902099609375,1.237998962402344,1.05902099609375,2.122001647949219v.353996276855469c0,1.237998962402344-.530029296875,1.945999145507812-2.1190185546875,1.945999145507812s-1.5889892578125-.530998229980469-1.5889892578125-1.591995239257812Z" fill="#fff" fill-rule="evenodd"/>
  <path d="m32.871637079300854,20.16400146484375h3.35498046875v1.238998413085938h-1.9429931640625v2.475997924804688h1.41302490234375v1.061004638671875h-1.41302490234375v3.891998291015625h-1.4119873046875v-8.667999267578125Z" fill="#fff" fill-rule="evenodd"/>
  <path d="m36.756646844925854,26.531997680664062v-4.068000793457031c0-1.414993286132812.70599365234375-2.299995422363281,2.29498291015625-2.299995422363281s2.29498291015625,1.061996459960938,2.29498291015625,2.299995422363281v4.068000793457031c0,1.415008544921875-.70599365234375,2.300003051757812-2.29498291015625,2.300003051757812s-2.29498291015625-1.061996459960938-2.29498291015625-2.300003051757812Zm2.824951171875.177001953125v-4.5989990234375c0-.529998779296875-.177001953125-.884002685546875-.70697021484375-.884002685546875-.52899169921875,0-.70599365234375.35400390625-.70599365234375.884002685546875v4.5989990234375c0,.531005859375.177001953125.884994506835938.70599365234375.884994506835938.52996826171875,0,.70697021484375-.353988647460938.70697021484375-.884994506835938Z" fill="#fff" fill-rule="evenodd"/>
  <path d="m43.465631219925854,24.76300048828125v4.069000244140625h-1.41302490234375v-8.667999267578125h2.1190185546875c1.41302490234375,0,1.9429931640625.708000183105469,1.9429931640625,1.945999145507812v1.060997009277344c0,.885002136230469-.35400390625,1.592002868652344-1.05999755859375,1.769004821777344l1.41302490234375,3.891998291015625h-1.41302490234375l-1.5889892578125-4.069000244140625Zm0-3.360000610351562v2.652999877929688h.52996826171875c.52899169921875,0,.70599365234375-.353996276855469.70599365234375-.708000183105469v-1.237998962402344c0-.529998779296875-.177001953125-.707000732421875-.70599365234375-.707000732421875h-.52996826171875Z" fill="#fff" fill-rule="evenodd"/>
  <path d="m47.880609247269604,20.16400146484375h3.884033203125v1.238998413085938h-1.23602294921875v7.429000854492188h-1.4119873046875v-7.429000854492188h-1.23602294921875v-1.238998413085938Z" fill="#fff" fill-rule="evenodd"/>
  <path d="m55.119622919144604,24.94000244140625h-1.41302490234375v3.891998291015625h-1.4119873046875v-8.667999267578125h1.4119873046875v3.714996337890625h1.41302490234375v-3.714996337890625h1.4119873046875v8.667999267578125h-1.4119873046875v-3.891998291015625Z" fill="#fff" fill-rule="evenodd"/>
  <path d="m57.415643426957104,20.16400146484375h3.35498046875v1.238998413085938h-1.9429931640625v2.475997924804688h1.4129638671875v1.061004638671875h-1.4129638671875v2.65399169921875h1.9429931640625v1.238006591796875h-3.35498046875v-8.667999267578125Z" fill="#fff" fill-rule="evenodd"/>
  <path d="m65.184625360550854,24.233001708984375h2.1190185546875v4.5989990234375h-1.23602294921875v-.884994506835938c-.177001953125.707992553710938-.530029296875,1.061996459960938-1.41302490234375,1.061996459960938-1.2359619140625,0-1.7659912109375-.885009765625-1.7659912109375-2.300003051757812v-4.068000793457031c0-1.415000915527344.70703125-2.299995422363281,2.1190185546875-2.299995422363281,1.5889892578125,0,2.1190185546875.884994506835938,2.1190185546875,2.122993469238281v.708000183105469h-1.41302490234375v-.884994506835938c0-.529998779296875-.176025390625-.884002685546875-.70599365234375-.884002685546875-.530029296875,0-.70599365234375.35400390625-.70599365234375.884002685546875v4.4219970703125c0,.531005859375.17596435546875.884994506835938.70599365234375.884994506835938.52996826171875,0,.70599365234375-.176986694335938.70599365234375-.884994506835938v-1.591995239257812h-.70599365234375v-.884002685546875h.177001953125Z" fill="#fff" fill-rule="evenodd"/>
  <path d="m67.832635614457104,26.531997680664062v-4.068000793457031c0-1.414993286132812.70599365234375-2.299995422363281,2.29498291015625-2.299995422363281s2.2960205078125,1.061996459960938,2.2960205078125,2.299995422363281v4.068000793457031c0,1.415008544921875-.70703125,2.300003051757812-2.2960205078125,2.300003051757812s-2.29498291015625-1.061996459960938-2.29498291015625-2.300003051757812Zm3.0009765625.177001953125v-4.5989990234375c0-.529998779296875-.17596435546875-.884002685546875-.70599365234375-.884002685546875s-.70599365234375.35400390625-.70599365234375.884002685546875v4.5989990234375c0,.531005859375.17596435546875.884994506835938.70599365234375.884994506835938s.70599365234375-.353988647460938.70599365234375-.884994506835938Z" fill="#fff" fill-rule="evenodd"/>
  <path d="m72.776605341019604,28.832000732421875l1.5889892578125-8.667999267578125h1.58905029296875l1.5899658203125,8.667999267578125h-1.4129638671875l-.177001953125-1.591995239257812h-1.58905029296875l-.17596435546875,1.591995239257812h-1.41302490234375Zm1.7659912109375-2.830001831054688h1.05902099609375l-.52899169921875-3.538002014160156-.530029296875,3.538002014160156Z" fill="#fff" fill-rule="evenodd"/>
  <path d="m78.074640008988354,20.16400146484375h1.4129638671875v7.42999267578125h1.7650146484375v1.238006591796875h-3.177978515625v-8.667999267578125Z" fill="#fff" fill-rule="evenodd"/>
  <path d="m81.782647821488354,26.886001586914062v-1.061004638671875h1.2359619140625v1.238006591796875c0,.530990600585938.176025390625.707992553710938.70599365234375.707992553710938.35302734375,0,.70599365234375-.353988647460938.70599365234375-.707992553710938v-.35400390625c0-.529998779296875-.17596435546875-.707000732421875-.70599365234375-1.238006591796875l-.88299560546875-.883995056152344c-.88299560546875-.708000183105469-1.2359619140625-1.237998962402344-1.2359619140625-2.299995422363281v-.353004455566406c0-1.061996459960938.52996826171875-1.945999145507812,1.94195556640625-1.945999145507812,1.41302490234375,0,1.9429931640625.707000732421875,1.9429931640625,1.945999145507812v.707000732421875h-1.2359619140625v-.707000732421875c0-.530998229980469-.177001953125-.708000183105469-.70703125-.708000183105469-.35296630859375,0-.70599365234375.177001953125-.70599365234375.708000183105469v.176002502441406c0,.530998229980469.35302734375.708000183105469.70599365234375,1.061996459960938l.88299560546875.884002685546875c.70703125.885002136230469,1.05999755859375,1.238006591796875,1.05999755859375,2.123001098632812v.352996826171875c0,1.238998413085938-.52996826171875,1.945999145507812-2.11895751953125,1.945999145507812s-1.5889892578125-.529998779296875-1.5889892578125-1.591995239257812Z" fill="#fff" fill-rule="evenodd"/>
  <rect x="26.028619501175854" y="8" width="72" height="31" fill="#566e78"/>
  <path d="m34.305597040238354,14h-1.09698486328125v-4.7969970703125h-1.6099853515625v4.7969970703125h-1.09698486328125v-5.688003540039062h3.803955078125v5.688003540039062Zm3.83599853515625-1.188003540039062h-1.70697021484375l-.33599853515625,1.188003540039062h-1.156005859375l1.86297607421875-5.688003540039062h.99603271484375l1.8289794921875,5.688003540039062h-1.156982421875l-.33203125-1.188003540039062Zm-1.43695068359375-.932998657226562h1.178955078125l-.58197021484375-2.093994140625-.59698486328125,2.093994140625Zm4.61297607421875.035003662109375v2.08599853515625h-1.0980224609375v-5.688003540039062h1.946044921875c.30999755859375,0,.5899658203125.046005249023438.8399658203125.137001037597656.25.089004516601562.4620361328125.214004516601562.635986328125.375.177001953125.159004211425781.31304931640625.350006103515625.40704345703125.574005126953125.09600830078125.2239990234375.14398193359375.472999572753906.14398193359375.746994018554688,0,.2550048828125-.0479736328125.490005493164062-.14398193359375.707000732421875-.093994140625.21600341796875-.23004150390625.402999877929688-.40704345703125.562004089355469-.1739501953125.155998229980469-.385986328125.278999328613281-.635986328125.366996765136719-.25.089004516601562-.52996826171875.133003234863281-.8399658203125.133003234863281h-.8480224609375Zm0-.890998840332031h.8480224609375c.156005859375,0,.29095458984375-.023002624511719.406005859375-.069999694824219.114990234375-.047004699707031.2099609375-.111000061035156.28497314453125-.191001892089844.0780029296875-.081001281738281.135986328125-.173004150390625.1719970703125-.277999877929688.03900146484375-.106002807617188.05902099609375-.217002868652344.05902099609375-.332000732421875,0-.132003784179688-.02001953125-.255996704101562-.05902099609375-.371002197265625-.0360107421875-.113998413085938-.093994140625-.214996337890625-.1719970703125-.300994873046875-.07501220703125-.085006713867188-.16998291015625-.152999877929688-.28497314453125-.2030029296875-.11505126953125-.049003601074219-.25-.073997497558594-.406005859375-.073997497558594h-.8480224609375v1.819999694824219Zm7.81597900390625-1.816001892089844h-1.75299072265625v4.792999267578125h-1.10198974609375v-4.792999267578125h-1.72998046875v-.895004272460938h4.5849609375v.895004272460938Zm4.3790283203125,4.792999267578125h-1.08599853515625v-2.464996337890625h-1.6090087890625v2.464996337890625h-1.09002685546875v-5.688003540039062h1.09002685546875v2.333000183105469h1.6090087890625v-2.333000183105469h1.08599853515625v5.688003540039062Zm4.55096435546875-2.491996765136719h-2.33599853515625v1.604995727539062h2.73101806640625v.887001037597656h-3.83197021484375v-5.688003540039062h3.82000732421875v.895004272460938h-2.71905517578125v1.433998107910156h2.33599853515625v.86700439453125Zm2.4730224609375.405998229980469v2.08599853515625h-1.0980224609375v-5.688003540039062h1.94500732421875c.30999755859375,0,.59002685546875.046005249023438.84002685546875.137001037597656.25.089004516601562.4630126953125.214004516601562.636962890625.375.177001953125.159004211425781.31304931640625.350006103515625.406005859375.574005126953125.0970458984375.2239990234375.14501953125.472999572753906.14501953125.746994018554688,0,.2550048828125-.0479736328125.490005493164062-.14501953125.707000732421875-.09295654296875.21600341796875-.22900390625.402999877929688-.406005859375.562004089355469-.1739501953125.155998229980469-.386962890625.278999328613281-.636962890625.366996765136719-.25.089004516601562-.530029296875.133003234863281-.84002685546875.133003234863281h-.84698486328125Zm0-.890998840332031h.84698486328125c.15704345703125,0,.2919921875-.023002624511719.40704345703125-.069999694824219.11395263671875-.047004699707031.208984375-.111000061035156.28497314453125-.191001892089844.0780029296875-.081001281738281.135009765625-.173004150390625.1719970703125-.277999877929688.03900146484375-.106002807617188.0579833984375-.217002868652344.0579833984375-.332000732421875,0-.132003784179688-.01898193359375-.255996704101562-.0579833984375-.371002197265625-.0369873046875-.113998413085938-.093994140625-.214996337890625-.1719970703125-.300994873046875-.07598876953125-.085006713867188-.1710205078125-.152999877929688-.28497314453125-.2030029296875-.11505126953125-.049003601074219-.25-.073997497558594-.40704345703125-.073997497558594h-.84698486328125v1.819999694824219Zm7.58599853515625,1.195999145507812c-.01800537109375.285995483398438-.08099365234375.543998718261719-.18798828125.772994995117188-.10400390625.22900390625-.2449951171875.425003051757812-.4219970703125.586006164550781-.177001953125.161994934082031-.38800048828125.286994934082031-.63201904296875.375-.2449951171875.08599853515625-.5159912109375.128997802734375-.81298828125.128997802734375-.33599853515625,0-.63397216796875-.060997009277344-.89398193359375-.183998107910156-.26104736328125-.125-.48004150390625-.298004150390625-.65704345703125-.519004821777344-.177001953125-.2239990234375-.31195068359375-.491996765136719-.406005859375-.805000305175781-.093994140625-.311996459960938-.1409912109375-.655998229980469-.1409912109375-1.030998229980469v-.765998840332031c0-.376998901367188.050048828125-.722000122070312.1490478515625-1.035003662109375.0989990234375-.311996459960938.23895263671875-.58099365234375.4219970703125-.803993225097656.18194580078125-.224006652832031.4019775390625-.398002624511719.65997314453125-.520004272460938.260009765625-.125.552001953125-.187995910644531.875-.187995910644531.31201171875,0,.59002685546875.044998168945312.83203125.13299560546875.2449951171875.089004516601562.45294189453125.215003967285156.625.378997802734375.1719970703125.16400146484375.30694580078125.365005493164062.40594482421875.602005004882812s.16204833984375.503997802734375.18804931640625.800994873046875h-1.093994140625c-.01104736328125-.169998168945312-.03704833984375-.3179931640625-.0780029296875-.445999145507812-.03900146484375-.126998901367188-.0980224609375-.232994079589844-.176025390625-.315994262695312-.07598876953125-.086006164550781-.1719970703125-.150001525878906-.28900146484375-.192001342773438-.114990234375-.043998718261719-.25299072265625-.066001892089844-.41400146484375-.066001892089844-.16900634765625,0-.3170166015625.036003112792969-.4420166015625.109001159667969s-.22900390625.180000305175781-.31195068359375.320999145507812c-.0810546875.139999389648438-.14105224609375.312995910644531-.1800537109375.518997192382812-.03900146484375.2030029296875-.0579833984375.435005187988281-.0579833984375.695999145507812v.773002624511719c0,.55999755859375.0780029296875.9739990234375.2340087890625,1.24200439453125.15899658203125.267997741699219.40899658203125.402999877929688.75.402999877929688.2869873046875,0,.51300048828125-.076004028320312.67999267578125-.227005004882812.166015625-.153999328613281.259033203125-.4010009765625.2769775390625-.741996765136719h1.0980224609375Zm5.0350341796875-3.012001037597656h-1.7540283203125v4.792999267578125h-1.10198974609375v-4.792999267578125h-1.72998046875v-.895004272460938h4.58599853515625v.895004272460938Zm.616943359375,4.792999267578125v-5.688003540039062h1.9100341796875c.30999755859375,0,.59100341796875.032005310058594.843994140625.094001770019531.2550048828125.063003540039062.4730224609375.158004760742188.6519775390625.285003662109375.17999267578125.127998352050781.3179931640625.28900146484375.41400146484375.485000610351562.0989990234375.194999694824219.1490478515625.425994873046875.1490478515625.690994262695312-.0030517578125.266006469726562-.07403564453125.504005432128906-.21502685546875.715003967285156-.13800048828125.21099853515625-.34197998046875.371002197265625-.61297607421875.479995727539062.16400146484375.041999816894531.30596923828125.105003356933594.42498779296875.188003540039062.1199951171875.083000183105469.218994140625.181999206542969.2969970703125.2969970703125.08099365234375.11199951171875.1400146484375.236000061035156.17596435546875.371002197265625.03900146484375.133003234863281.05902099609375.271003723144531.05902099609375.41400146484375,0,.273002624511719-.0469970703125.513999938964844-.1409912109375.722999572753906-.093994140625.208000183105469-.22802734375.383003234863281-.4019775390625.523002624511719-.175048828125.140998840332031-.38702392578125.245994567871094-.63702392578125.316993713378906-.25.069999694824219-.531005859375.105003356933594-.843994140625.105003356933594h-2.07403564453125Zm1.10205078125-2.508003234863281v1.621002197265625h.9759521484375c.300048828125-.001998901367188.52801513671875-.074996948242188.68402099609375-.218002319335938.15899658203125-.14599609375.23797607421875-.33599853515625.23797607421875-.570999145507812.0030517578125-.259994506835938-.0679931640625-.462997436523438-.21099853515625-.609001159667969-.1429443359375-.14599609375-.36395263671875-.219993591308594-.66400146484375-.222999572753906h-1.02294921875Zm0-.792999267578125h.81597900390625c.30499267578125-.001998901367188.53900146484375-.065994262695312.7030029296875-.190994262695312s.24798583984375-.309005737304688.25-.551002502441406c0-.265998840332031-.08203125-.456001281738281-.24603271484375-.569999694824219-.16400146484375-.11700439453125-.4010009765625-.177001953125-.71099853515625-.180000305175781h-.81195068359375v1.491996765136719Zm7.678955078125.875c0,.365005493164062-.0479736328125.701004028320312-.14398193359375,1.008003234863281-.09698486328125.306999206542969-.23602294921875.571998596191406-.41796875.792999267578125-.1820068359375.221000671386719-.405029296875.394996643066406-.66802978515625.519996643066406-.260986328125.122001647949219-.55499267578125.183006286621094-.88299560546875.183006286621094s-.6199951171875-.061004638671875-.875-.183006286621094c-.2550048828125-.125-.47003173828125-.298995971679688-.64398193359375-.519996643066406-.175048828125-.2239990234375-.30804443359375-.487998962402344-.3990478515625-.792999267578125-.0909423828125-.306999206542969-.136962890625-.642997741699219-.136962890625-1.008003234863281v-.827995300292969c0-.363998413085938.0460205078125-.700004577636719.136962890625-1.008003234863281.09100341796875-.306999206542969.2239990234375-.570999145507812.3990478515625-.792999267578125.1739501953125-.2239990234375.38800048828125-.398002624511719.63995361328125-.523002624511719.2550048828125-.125.5469970703125-.187995910644531.875-.187995910644531.3310546875,0,.62603759765625.062995910644531.88702392578125.187995910644531.26300048828125.125.48602294921875.299003601074219.66802978515625.523002624511719.18194580078125.222000122070312.32098388671875.486000061035156.41796875.792999267578125.09600830078125.307998657226562.14398193359375.644004821777344.14398193359375,1.008003234863281v.827995300292969Zm-1.11297607421875-.83599853515625c0-.230995178222656-.01898193359375-.444999694824219-.05902099609375-.639999389648438-.0360107421875-.195999145507812-.094970703125-.363998413085938-.17498779296875-.503997802734375-.08099365234375-.140998840332031-.18499755859375-.25-.31298828125-.3280029296875-.125-.081001281738281-.2769775390625-.121002197265625-.45703125-.121002197265625-.177001953125,0-.324951171875.040000915527344-.4449462890625.121002197265625-.12005615234375.0780029296875-.21600341796875.187004089355469-.28900146484375.3280029296875-.072998046875.139999389648438-.125.307998657226562-.156005859375.503997802734375-.03204345703125.194999694824219-.0469970703125.409004211425781-.0469970703125.639999389648438v.83599853515625c0,.22900390625.01495361328125.442001342773438.0469970703125.637001037597656.031005859375.194999694824219.0830078125.364997863769531.156005859375.508003234863281.072998046875.142997741699219.1689453125.254997253417969.28900146484375.33599853515625.1199951171875.080001831054688.26898193359375.121002197265625.448974609375.121002197265625.177001953125,0,.3280029296875-.041000366210938.4530029296875-.121002197265625.12799072265625-.081001281738281.23101806640625-.192001342773438.30902099609375-.332000732421875.08099365234375-.143997192382812.13995361328125-.312995910644531.178955078125-.508003234863281.0400390625-.194999694824219.05902099609375-.40899658203125.05902099609375-.640998840332031v-.83599853515625Zm-50.90997314453125,12.262001037597656v-5.688003540039062h1.90997314453125c.30999755859375,0,.59100341796875.032005310058594.843994140625.094001770019531.2550048828125.063003540039062.47198486328125.158004760742188.6519775390625.285003662109375.1800537109375.127998352050781.31805419921875.28900146484375.41400146484375.485000610351562.0989990234375.194999694824219.1490478515625.425994873046875.1490478515625.690994262695312-.0030517578125.266006469726562-.07501220703125.504005432128906-.21502685546875.715003967285156-.13800048828125.21099853515625-.343017578125.371002197265625-.61297607421875.479995727539062.16400146484375.041999816894531.30596923828125.105003356933594.42498779296875.188003540039062.1199951171875.083000183105469.218994140625.181999206542969.2969970703125.2969970703125.08099365234375.11199951171875.1400146484375.236000061035156.176025390625.371002197265625.0389404296875.133003234863281.0589599609375.271003723144531.0589599609375.41400146484375,0,.273002624511719-.0469970703125.513999938964844-.1409912109375.722999572753906-.093994140625.208000183105469-.22802734375.383003234863281-.4019775390625.523002624511719-.175048828125.140998840332031-.38702392578125.245994567871094-.63702392578125.316993713378906-.25.069999694824219-.531005859375.105003356933594-.843994140625.105003356933594h-2.073974609375Zm1.1009521484375-2.508003234863281v1.621002197265625h.97698974609375c.300048828125-.001998901367188.52703857421875-.074996948242188.68402099609375-.218002319335938.15802001953125-.14599609375.238037109375-.33599853515625.238037109375-.570999145507812.00299072265625-.259994506835938-.06805419921875-.462997436523438-.21099853515625-.609001159667969-.14300537109375-.14599609375-.36505126953125-.219993591308594-.66400146484375-.222999572753906h-1.0240478515625Zm0-.792999267578125h.8170166015625c.30499267578125-.001998901367188.53900146484375-.065994262695312.7030029296875-.190994262695312s.24700927734375-.309005737304688.25-.551002502441406c0-.265998840332031-.08197021484375-.456001281738281-.2459716796875-.569999694824219-.16400146484375-.11700439453125-.4010009765625-.177001953125-.71099853515625-.180000305175781h-.81304931640625v1.491996765136719Zm11.1490478515625-2.387001037597656h1.1009521484375v5.688003540039062h-1.1009521484375v-3.628997802734375l-1.613037109375,3.628997802734375h-1.09796142578125v-5.688003540039062h1.09796142578125v3.633003234863281l1.613037109375-3.633003234863281Zm5.92596435546875,5.688003540039062h-1.08599853515625v-2.464996337890625h-1.6099853515625v2.464996337890625h-1.0889892578125v-5.688003540039062h1.0889892578125v2.333000183105469h1.6099853515625v-2.333000183105469h1.08599853515625v5.688003540039062Zm5.22998046875-4.792999267578125h-1.75396728515625v4.792999267578125h-1.10101318359375v-4.792999267578125h-1.73101806640625v-.895004272460938h4.58599853515625v.895004272460938Zm4.125,2.301002502441406h-2.33599853515625v1.604995727539062h2.73101806640625v.887001037597656h-3.83197021484375v-5.688003540039062h3.82000732421875v.895004272460938h-2.71905517578125v1.433998107910156h2.33599853515625v.86700439453125Zm2.4730224609375.405998229980469v2.08599853515625h-1.0980224609375v-5.688003540039062h1.94500732421875c.30999755859375,0,.59002685546875.046005249023438.84002685546875.137001037597656.25.089004516601562.4630126953125.214004516601562.636962890625.375.177001953125.159004211425781.31304931640625.350006103515625.406005859375.574005126953125.0970458984375.2239990234375.14501953125.472999572753906.14501953125.746994018554688,0,.2550048828125-.0479736328125.490005493164062-.14501953125.707000732421875-.09295654296875.21600341796875-.22900390625.402999877929688-.406005859375.562004089355469-.1739501953125.155998229980469-.386962890625.278999328613281-.636962890625.366996765136719-.25.089004516601562-.530029296875.133003234863281-.84002685546875.133003234863281h-.84698486328125Zm0-.890998840332031h.84698486328125c.15704345703125,0,.2919921875-.023002624511719.40704345703125-.069999694824219.11395263671875-.047004699707031.208984375-.111000061035156.28497314453125-.191001892089844.0780029296875-.081001281738281.135009765625-.173004150390625.1719970703125-.277999877929688.03900146484375-.106002807617188.0579833984375-.217002868652344.0579833984375-.332000732421875,0-.132003784179688-.01898193359375-.255996704101562-.0579833984375-.371002197265625-.0369873046875-.113998413085938-.093994140625-.214996337890625-.1719970703125-.300994873046875-.07598876953125-.085006713867188-.1710205078125-.152999877929688-.28497314453125-.2030029296875-.11505126953125-.049003601074219-.25-.073997497558594-.40704345703125-.073997497558594h-.84698486328125v1.819999694824219Zm7.13702392578125.485000610351562h-2.33599853515625v1.604995727539062h2.72998046875v.887001037597656h-3.83203125v-5.688003540039062h3.82000732421875v.895004272460938h-2.71795654296875v1.433998107910156h2.33599853515625v.86700439453125Zm5.25299072265625.71099853515625c-.01800537109375.285995483398438-.08001708984375.543998718261719-.18701171875.772994995117188-.10400390625.22900390625-.2449951171875.425003051757812-.4219970703125.586006164550781-.177001953125.161994934082031-.38800048828125.286994934082031-.63299560546875.375-.2449951171875.08599853515625-.5150146484375.128997802734375-.81201171875.128997802734375-.33599853515625,0-.63397216796875-.060997009277344-.89501953125-.183998107910156-.25994873046875-.125-.47900390625-.298004150390625-.65594482421875-.519004821777344-.177001953125-.2239990234375-.31304931640625-.491996765136719-.406005859375-.805000305175781-.093994140625-.311996459960938-.14105224609375-.655998229980469-.14105224609375-1.030998229980469v-.765998840332031c0-.376998901367188.050048828125-.722000122070312.1490478515625-1.035003662109375.09796142578125-.311996459960938.23895263671875-.58099365234375.42095947265625-.803993225097656.18304443359375-.224006652832031.40301513671875-.398002624511719.6610107421875-.520004272460938.260009765625-.125.552001953125-.187995910644531.875-.187995910644531.31201171875,0,.5889892578125.044998168945312.83203125.13299560546875.24395751953125.089004516601562.4530029296875.215003967285156.625.378997802734375.17095947265625.16400146484375.3070068359375.365005493164062.406005859375.602005004882812s.16094970703125.503997802734375.18695068359375.800994873046875h-1.09295654296875c-.01104736328125-.169998168945312-.03704833984375-.3179931640625-.07904052734375-.445999145507812-.03900146484375-.126998901367188-.09698486328125-.232994079589844-.17498779296875-.315994262695312-.07598876953125-.086006164550781-.1719970703125-.150001525878906-.28900146484375-.192001342773438-.114990234375-.043998718261719-.25299072265625-.066001892089844-.41400146484375-.066001892089844-.16998291015625,0-.3170166015625.036003112792969-.4420166015625.109001159667969s-.22894287109375.180000305175781-.31195068359375.320999145507812c-.08099365234375.139999389648438-.14105224609375.312995910644531-.17999267578125.518997192382812-.03900146484375.2030029296875-.05902099609375.435005187988281-.05902099609375.695999145507812v.773002624511719c0,.55999755859375.0789794921875.9739990234375.2349853515625,1.24200439453125.15899658203125.267997741699219.40899658203125.402999877929688.75.402999877929688.2860107421875,0,.51300048828125-.076004028320312.67901611328125-.227005004882812.1669921875-.153999328613281.260009765625-.4010009765625.27801513671875-.741996765136719h1.09698486328125Zm3.65301513671875.592994689941406h-1.70703125l-.33599853515625,1.188003540039062h-1.156005859375l1.863037109375-5.688003540039062h.9959716796875l1.8280029296875,5.688003540039062h-1.156005859375l-.33197021484375-1.188003540039062Zm-1.43804931640625-.932998657226562h1.1800537109375l-.58203125-2.093994140625-.5980224609375,2.093994140625Zm5.37103271484375-1.527000427246094l1.011962890625-2.040000915527344h1.28900146484375l-1.6009521484375,2.821006774902344,1.63995361328125,2.866996765136719h-1.28094482421875l-1.04302978515625-2.069999694824219-1.03900146484375,2.069999694824219h-1.2969970703125l1.6409912109375-2.866996765136719-1.5980224609375-2.821006774902344h1.281005859375l.99603271484375,2.040000915527344Zm-48.406005859375,8.914009094238281l.3709716796875,1.04998779296875,1.18804931640625-3.003997802734375h1.1949462890625l-2.02294921875,4.610000610351562c-.0679931640625.154006958007812-.14801025390625.301010131835938-.239013671875.441009521484375-.0880126953125.1409912109375-.19598388671875.264999389648438-.32403564453125.370986938476562-.125.107009887695312-.27197265625.192001342773438-.44097900390625.254013061523438-.16998291015625.06298828125-.3690185546875.093994140625-.5980224609375.093994140625-.18499755859375,0-.3489990234375-.016006469726562-.491943359375-.0469970703125-.14105224609375-.027999877929688-.2550048828125-.055007934570312-.34405517578125-.0780029296875l.07000732421875-.858993530273438c.03399658203125.009994506835938.07501220703125.021987915039062.12103271484375.034988403320312.04998779296875.010009765625.10101318359375.021011352539062.15301513671875.031005859375s.10498046875.020004272460938.15997314453125.026992797851562c.05499267578125.006011962890625.10699462890625.008010864257812.156005859375.008010864257812.125,0,.2349853515625-.01300048828125.3280029296875-.03900146484375.093994140625-.0260009765625.17498779296875-.061996459960938.24298095703125-.1090087890625.0670166015625-.0469970703125.12298583984375-.102996826171875.16802978515625-.167999267578125.04595947265625-.0679931640625.083984375-.142990112304688.11297607421875-.22698974609375l.1090087890625-.24200439453125-1.9840087890625-4.102005004882812h1.18701171875l.88299560546875,1.954010009765625Zm7.18798828125,1.952987670898438c-.01898193359375.2860107421875-.08099365234375.54400634765625-.18798828125.77301025390625-.10400390625.228988647460938-.2449951171875.425003051757812-.4219970703125.58599853515625-.177001953125.162002563476562-.38800048828125.287002563476562-.63299560546875.375-.2440185546875.08599853515625-.5150146484375.128997802734375-.81201171875.128997802734375-.33599853515625,0-.63397216796875-.061004638671875-.89501953125-.184005737304688-.25994873046875-.125-.47900390625-.297988891601562-.656005859375-.518997192382812-.177001953125-.2239990234375-.31195068359375-.49200439453125-.40594482421875-.80499267578125-.09405517578125-.31201171875-.14105224609375-.656005859375-.14105224609375-1.031005859375v-.766006469726562c0-.376998901367188.050048828125-.722000122070312.1490478515625-1.034988403320312.0989990234375-.31201171875.23895263671875-.581008911132812.4219970703125-.804000854492188.1820068359375-.2239990234375.4019775390625-.39801025390625.65997314453125-.520004272460938.260009765625-.125.552001953125-.188003540039062.875-.188003540039062.31201171875,0,.59002685546875.044998168945312.83203125.133010864257812.2449951171875.0889892578125.4530029296875.214996337890625.625.378997802734375s.30694580078125.364990234375.40594482421875.60198974609375c.09906005859375.23699951171875.1610107421875.504013061523438.18804931640625.801010131835938h-1.093994140625c-.01104736328125-.169998168945312-.03704833984375-.318008422851562-.0780029296875-.445999145507812-.03900146484375-.126998901367188-.0980224609375-.233001708984375-.176025390625-.316009521484375-.07598876953125-.08599853515625-.1719970703125-.149993896484375-.28900146484375-.192001342773438-.114990234375-.043991088867188-.25299072265625-.065994262695312-.41400146484375-.065994262695312-.16998291015625,0-.3170166015625.035995483398438-.4420166015625.108993530273438-.125.073013305664062-.22900390625.180007934570312-.31195068359375.320999145507812-.0810546875.1400146484375-.14105224609375.313003540039062-.1800537109375.519012451171875-.03900146484375.202987670898438-.0579833984375.43499755859375-.0579833984375.695999145507812v.772994995117188c0,.55999755859375.0780029296875.9739990234375.2340087890625,1.24200439453125.15899658203125.267990112304688.40899658203125.402999877929688.75.402999877929688.2860107421875,0,.51300048828125-.076004028320312.67999267578125-.227005004882812.166015625-.15399169921875.259033203125-.4010009765625.27703857421875-.74200439453125h1.09796142578125Zm5.0350341796875-3.011993408203125h-1.7540283203125v4.792999267578125h-1.10198974609375v-4.792999267578125h-1.72998046875v-.895004272460938h4.58599853515625v.895004272460938Zm4.593994140625,2.36700439453125c0,.364990234375-.04901123046875.70098876953125-.14501953125,1.00799560546875s-.23602294921875.572006225585938-.41802978515625.792999267578125c-.18194580078125.220993041992188-.40496826171875.395004272460938-.66796875.520004272460938-.260009765625.121994018554688-.55499267578125.182998657226562-.88299560546875.182998657226562s-.6199951171875-.061004638671875-.875-.182998657226562c-.2550048828125-.125-.47003173828125-.29901123046875-.64398193359375-.520004272460938-.175048828125-.2239990234375-.30804443359375-.488006591796875-.3990478515625-.792999267578125-.09100341796875-.3070068359375-.135986328125-.64300537109375-.135986328125-1.00799560546875v-.8280029296875c0-.363998413085938.04498291015625-.699996948242188.135986328125-1.00799560546875.09100341796875-.3070068359375.2239990234375-.570999145507812.3990478515625-.792999267578125.1739501953125-.224014282226562.38800048828125-.39801025390625.63995361328125-.52301025390625.25604248046875-.125.5469970703125-.188003540039062.875-.188003540039062.33099365234375,0,.62701416015625.063003540039062.88702392578125.188003540039062.26300048828125.125.48602294921875.298995971679688.66796875.52301025390625.1820068359375.222000122070312.322021484375.485992431640625.41802978515625.792999267578125.09600830078125.307998657226562.14501953125.643997192382812.14501953125,1.00799560546875v.8280029296875Zm-1.114013671875-.83599853515625c0-.231002807617188-.01898193359375-.44500732421875-.0579833984375-.639999389648438-.03704833984375-.196014404296875-.09503173828125-.364013671875-.176025390625-.504013061523438-.08099365234375-.1409912109375-.18499755859375-.25-.31298828125-.327987670898438-.125-.081008911132812-.27703857421875-.121002197265625-.45703125-.121002197265625-.177001953125,0-.324951171875.039993286132812-.44500732421875.121002197265625-.1199951171875.077987670898438-.2159423828125.186996459960938-.2889404296875.327987670898438-.07305908203125.139999389648438-.125.307998657226562-.156005859375.504013061523438-.03204345703125.194992065429688-.0469970703125.40899658203125-.0469970703125.639999389648438v.83599853515625c0,.228988647460938.01495361328125.442001342773438.0469970703125.636993408203125.031005859375.19500732421875.08294677734375.365005493164062.156005859375.50799560546875.072998046875.14300537109375.1689453125.2550048828125.2889404296875.33599853515625.12005615234375.080001831054688.27001953125.121002197265625.44903564453125.121002197265625.177001953125,0,.3280029296875-.041000366210938.4530029296875-.121002197265625.12799072265625-.08099365234375.23101806640625-.191986083984375.30902099609375-.331985473632812.08099365234375-.144012451171875.1409912109375-.313003540039062.17999267578125-.508010864257812.03900146484375-.194992065429688.0579833984375-.40899658203125.0579833984375-.6409912109375v-.83599853515625Zm4.58197021484375-2.426010131835938h1.10205078125v5.688003540039062h-1.10205078125v-3.628997802734375l-1.61297607421875,3.628997802734375h-1.0980224609375v-5.688003540039062h1.0980224609375v3.633010864257812l1.61297607421875-3.633010864257812Zm.49603271484375-1.479995727539062c0,.16900634765625-.031005859375.324005126953125-.093017578125.464996337890625-.05999755859375.141006469726562-.14898681640625.262008666992188-.2659912109375.363006591796875-.114990234375.0989990234375-.2540283203125.177001953125-.41802978515625.235000610351562-.1639404296875.054000854492188-.34796142578125.082000732421875-.55096435546875.082000732421875-.20501708984375,0-.3900146484375-.027999877929688-.55401611328125-.082000732421875-.16497802734375-.057998657226562-.30499267578125-.136001586914062-.4219970703125-.235000610351562-.114990234375-.100997924804688-.2030029296875-.222000122070312-.2659912109375-.363006591796875-.05999755859375-.1409912109375-.09002685546875-.295989990234375-.09002685546875-.464996337890625h.781005859375c0,.068000793457031.010009765625.134002685546875.02801513671875.199005126953125.02099609375.06298828125.052978515625.118988037109375.09698486328125.167999267578125.0450439453125.0469970703125.10101318359375.084991455078125.16802978515625.112991333007812.07098388671875.029006958007812.156982421875.042999267578125.25799560546875.042999267578125.0989990234375,0,.1829833984375-.013992309570312.25-.042999267578125.07098388671875-.027999877929688.12701416015625-.065994262695312.16796875-.112991333007812.04400634765625-.04901123046875.0760498046875-.105010986328125.09405517578125-.167999267578125.02099609375-.06500244140625.03094482421875-.131004333496094.03094482421875-.199005126953125h.7850341796875Zm5.5360107421875,1.479995727539062v5.688003540039062h-1.10198974609375v-2.167999267578125c-.06805419921875.01800537109375-.13800048828125.035003662109375-.2110595703125.050994873046875-.072998046875.01300048828125-.14599609375.025009155273438-.218994140625.035003662109375-.0699462890625.00799560546875-.13897705078125.014007568359375-.20697021484375.020004272460938-.06500244140625.004989624023438-.12200927734375.007003784179688-.1719970703125.007003784179688-.281005859375,0-.5360107421875-.035003662109375-.7650146484375-.105010986328125-.22698974609375-.072998046875-.4210205078125-.18499755859375-.58197021484375-.33599853515625-.15899658203125-.1510009765625-.28302001953125-.343994140625-.37103271484375-.5780029296875-.08599853515625-.23699951171875-.12896728515625-.517990112304688-.12896728515625-.843994140625v-1.770004272460938h1.09698486328125v1.770004272460938c0,.19000244140625.0150146484375.347991943359375.04296875.472991943359375.03204345703125.125.0780029296875.225006103515625.14105224609375.300003051757812.06195068359375.072998046875.1409912109375.125.23394775390625.156997680664062.093994140625.027999877929688.20501708984375.042999267578125.33203125.042999267578125.052001953125,0,.1109619140625-.001998901367188.17596435546875-.003997802734375.06500244140625-.004989624023438.133056640625-.011993408203125.2030029296875-.019989013671875.072998046875-.010009765625.14599609375-.022003173828125.218994140625-.035003662109375.07305908203125-.01300048828125.14300537109375-.029006958007812.2110595703125-.0469970703125v-2.637008666992188h1.10198974609375Zm3.5780029296875,0h1.1009521484375v5.688003540039062h-1.1009521484375v-3.628997802734375l-1.614013671875,3.628997802734375h-1.09698486328125v-5.688003540039062h1.09698486328125v3.633010864257812l1.614013671875-3.633010864257812Zm2.16400146484375,5.688003540039062v-5.688003540039062h1.90997314453125c.30999755859375,0,.59100341796875.031997680664062.843994140625.094009399414062.2550048828125.06298828125.47198486328125.157989501953125.65203857421875.284988403320312.17999267578125.128005981445312.3179931640625.28900146484375.4139404296875.485000610351562.09906005859375.19500732421875.14801025390625.426010131835938.14801025390625.691009521484375-.001953125.2659912109375-.073974609375.503997802734375-.2139892578125.714996337890625-.13800048828125.21099853515625-.343017578125.371002197265625-.614013671875.479995727539062.16400146484375.042007446289062.3060302734375.105010986328125.426025390625.188003540039062s.218994140625.1820068359375.2969970703125.2969970703125c.08099365234375.11199951171875.13897705078125.236007690429688.176025390625.371002197265625.03900146484375.13299560546875.0579833984375.27099609375.0579833984375.41400146484375,0,.272994995117188-.0460205078125.513992309570312-.1400146484375.722991943359375-.093994140625.2080078125-.22796630859375.383010864257812-.40301513671875.52301025390625-.1739501953125.1409912109375-.385986328125.246002197265625-.635986328125.317001342773438-.25.069992065429688-.531982421875.104995727539062-.843994140625.104995727539062h-2.073974609375Zm1.1009521484375-2.50799560546875v1.621002197265625h.97705078125c.2989501953125-.00201416015625.5269775390625-.07501220703125.6829833984375-.218002319335938.15899658203125-.146011352539062.239013671875-.33599853515625.239013671875-.570999145507812.001953125-.260009765625-.06805419921875-.4630126953125-.21099853515625-.6090087890625-.14300537109375-.14599609375-.36505126953125-.220001220703125-.66400146484375-.222991943359375h-1.0240478515625Zm0-.792999267578125h.8170166015625c.30401611328125-.001998901367188.53900146484375-.066009521484375.7030029296875-.191009521484375s.24700927734375-.308990478515625.25-.550994873046875c0-.266006469726562-.08197021484375-.45599365234375-.2459716796875-.57000732421875-.16400146484375-.116989135742188-.4010009765625-.176986694335938-.71099853515625-.17999267578125h-.81304931640625v1.49200439453125Zm7.6800537109375.875c0,.364990234375-.04803466796875.70098876953125-.14501953125,1.00799560546875-.09600830078125.3070068359375-.2349853515625.572006225585938-.41802978515625.792999267578125-.1820068359375.220993041992188-.40399169921875.395004272460938-.6669921875.520004272460938-.260986328125.121994018554688-.55499267578125.182998657226562-.88299560546875.182998657226562s-.6199951171875-.061004638671875-.875-.182998657226562c-.2559814453125-.125-.469970703125-.29901123046875-.64501953125-.520004272460938-.1739501953125-.2239990234375-.30694580078125-.488006591796875-.39794921875-.792999267578125-.09100341796875-.3070068359375-.13702392578125-.64300537109375-.13702392578125-1.00799560546875v-.8280029296875c0-.363998413085938.0460205078125-.699996948242188.13702392578125-1.00799560546875.09100341796875-.3070068359375.2239990234375-.570999145507812.39794921875-.792999267578125.175048828125-.224014282226562.38800048828125-.39801025390625.64105224609375-.52301025390625.2550048828125-.125.5469970703125-.188003540039062.875-.188003540039062.33099365234375,0,.6259765625.063003540039062.886962890625.188003540039062.26300048828125.125.4849853515625.298995971679688.6669921875.52301025390625.18304443359375.222000122070312.322021484375.485992431640625.41802978515625.792999267578125.09698486328125.307998657226562.14501953125.643997192382812.14501953125,1.00799560546875v.8280029296875Zm-1.113037109375-.83599853515625c0-.231002807617188-.02001953125-.44500732421875-.05902099609375-.639999389648438-.03594970703125-.196014404296875-.094970703125-.364013671875-.17596435546875-.504013061523438-.08001708984375-.1409912109375-.18499755859375-.25-.31201171875-.327987670898438-.125-.081008911132812-.27801513671875-.121002197265625-.45697021484375-.121002197265625-.177001953125,0-.3260498046875.039993286132812-.446044921875.121002197265625-.11895751953125.077987670898438-.21600341796875.186996459960938-.28900146484375.327987670898438-.072998046875.139999389648438-.125.307998657226562-.156005859375.504013061523438-.03094482421875.194992065429688-.0469970703125.40899658203125-.0469970703125.639999389648438v.83599853515625c0,.228988647460938.01605224609375.442001342773438.0469970703125.636993408203125.031005859375.19500732421875.0830078125.365005493164062.156005859375.50799560546875.072998046875.14300537109375.1700439453125.2550048828125.28900146484375.33599853515625.1199951171875.080001831054688.27001953125.121002197265625.45001220703125.121002197265625.177001953125,0,.3280029296875-.041000366210938.4530029296875-.121002197265625.12701416015625-.08099365234375.22998046875-.191986083984375.3079833984375-.331985473632812.08099365234375-.144012451171875.1409912109375-.313003540039062.17999267578125-.508010864257812.03900146484375-.194992065429688.05902099609375-.40899658203125.05902099609375-.6409912109375v-.83599853515625Zm5.66802978515625-1.535003662109375h-2.58203125v4.7969970703125h-1.09796142578125v-5.688003540039062h3.67999267578125v.891006469726562Zm5.053955078125,2.371002197265625c0,.364990234375-.0479736328125.70098876953125-.14398193359375,1.00799560546875-.09698486328125.3070068359375-.23602294921875.572006225585938-.41796875.792999267578125-.1820068359375.220993041992188-.405029296875.395004272460938-.66802978515625.520004272460938-.260986328125.121994018554688-.55499267578125.182998657226562-.88299560546875.182998657226562s-.6199951171875-.061004638671875-.875-.182998657226562c-.2550048828125-.125-.47003173828125-.29901123046875-.64398193359375-.520004272460938-.175048828125-.2239990234375-.30804443359375-.488006591796875-.3990478515625-.792999267578125-.0909423828125-.3070068359375-.136962890625-.64300537109375-.136962890625-1.00799560546875v-.8280029296875c0-.363998413085938.0460205078125-.699996948242188.136962890625-1.00799560546875.09100341796875-.3070068359375.2239990234375-.570999145507812.3990478515625-.792999267578125.1739501953125-.224014282226562.38800048828125-.39801025390625.63995361328125-.52301025390625.2550048828125-.125.5469970703125-.188003540039062.875-.188003540039062.3310546875,0,.62603759765625.063003540039062.88702392578125.188003540039062.26300048828125.125.48602294921875.298995971679688.66802978515625.52301025390625.18194580078125.222000122070312.32098388671875.485992431640625.41796875.792999267578125.09600830078125.307998657226562.14398193359375.643997192382812.14398193359375,1.00799560546875v.8280029296875Zm-1.11297607421875-.83599853515625c0-.231002807617188-.01898193359375-.44500732421875-.05902099609375-.639999389648438-.0360107421875-.196014404296875-.094970703125-.364013671875-.17498779296875-.504013061523438-.08099365234375-.1409912109375-.18499755859375-.25-.31298828125-.327987670898438-.125-.081008911132812-.2769775390625-.121002197265625-.45703125-.121002197265625-.177001953125,0-.324951171875.039993286132812-.4449462890625.121002197265625-.12005615234375.077987670898438-.21600341796875.186996459960938-.28900146484375.327987670898438-.072998046875.139999389648438-.125.307998657226562-.156005859375.504013061523438-.03204345703125.194992065429688-.0469970703125.40899658203125-.0469970703125.639999389648438v.83599853515625c0,.228988647460938.01495361328125.442001342773438.0469970703125.636993408203125.031005859375.19500732421875.0830078125.365005493164062.156005859375.50799560546875.072998046875.14300537109375.1689453125.2550048828125.28900146484375.33599853515625.1199951171875.080001831054688.26898193359375.121002197265625.448974609375.121002197265625.177001953125,0,.3280029296875-.041000366210938.4530029296875-.121002197265625.12799072265625-.08099365234375.23101806640625-.191986083984375.30902099609375-.331985473632812.08099365234375-.144012451171875.13995361328125-.313003540039062.178955078125-.508010864257812.0400390625-.194992065429688.05902099609375-.40899658203125.05902099609375-.6409912109375v-.83599853515625Zm-49.7340087890625,10.175994873046875v2.08599853515625h-1.0980224609375v-5.688003540039062h1.94500732421875c.30999755859375,0,.59002685546875.046005249023438.84002685546875.137008666992188.25.0889892578125.46197509765625.2139892578125.63702392578125.375.177001953125.15899658203125.31195068359375.349990844726562.40594482421875.573989868164062.0970458984375.2239990234375.14501953125.473007202148438.14501953125.74700927734375,0,.254989624023438-.0479736328125.489990234375-.14501953125.707000732421875-.093994140625.215988159179688-.22894287109375.402999877929688-.40594482421875.561996459960938-.175048828125.156005859375-.38702392578125.27899169921875-.63702392578125.36700439453125-.25.0889892578125-.530029296875.13299560546875-.84002685546875.13299560546875h-.84698486328125Zm0-.891006469726562h.84698486328125c.15704345703125,0,.2919921875-.022994995117188.40704345703125-.069992065429688.11395263671875-.0469970703125.208984375-.111007690429688.28497314453125-.191009521484375.0780029296875-.08099365234375.135009765625-.172988891601562.1719970703125-.277999877929688.03900146484375-.105987548828125.0579833984375-.216995239257812.0579833984375-.332000732421875,0-.131988525390625-.01898193359375-.255996704101562-.0579833984375-.370986938476562-.0369873046875-.113998413085938-.093994140625-.215011596679688-.1719970703125-.301010131835938-.07598876953125-.084991455078125-.1710205078125-.152999877929688-.28497314453125-.2030029296875-.11505126953125-.048995971679688-.25-.073989868164062-.40704345703125-.073989868164062h-.84698486328125v1.819992065429688Zm6.4329833984375,1.78900146484375h-1.70697021484375l-.33599853515625,1.188003540039062h-1.156005859375l1.86297607421875-5.688003540039062h.99603271484375l1.8289794921875,5.688003540039062h-1.156982421875l-.33203125-1.188003540039062Zm-1.43695068359375-.932998657226562h1.178955078125l-.58197021484375-2.093994140625-.59698486328125,2.093994140625Zm7.42596435546875-2.024002075195312c0,.130996704101562-.02099609375.255996704101562-.06298828125.375-.03900146484375.120010375976562-.09600830078125.2340087890625-.1719970703125.340011596679688-.07501220703125.103988647460938-.16802978515625.199996948242188-.2769775390625.284988403320312-.11004638671875.08599853515625-.2330322265625.1610107421875-.37103271484375.223007202148438.31500244140625.110000610351562.55401611328125.2760009765625.718994140625.5.166015625.220993041992188.25.498001098632812.25.8280029296875,0,.2659912109375-.05499267578125.50299072265625-.16497802734375.71099853515625-.10601806640625.208999633789062-.2559814453125.384002685546875-.44903564453125.527999877929688-.19000244140625.139999389648438-.4189453125.248001098632812-.68695068359375.323989868164062-.26605224609375.073013305664062-.5560302734375.1090087890625-.87103271484375.1090087890625-.2559814453125,0-.50799560546875-.031005859375-.75799560546875-.094009399414062-.25-.064987182617188-.4749755859375-.163986206054688-.676025390625-.295989990234375-.197998046875-.136001586914062-.35894775390625-.307998657226562-.48394775390625-.516006469726562-.123046875-.207992553710938-.18402099609375-.457992553710938-.18402099609375-.75h1.10198974609375c0,.1090087890625.02301025390625.21099853515625.07000732421875.305007934570312.04901123046875.093002319335938.11798095703125.17498779296875.20703125.246002197265625.0889892578125.069992065429688.1939697265625.125991821289062.31597900390625.167999267578125.12298583984375.038986206054688.25799560546875.057998657226562.406982421875.057998657226562.1719970703125,0,.32403564453125-.019012451171875.45703125-.057998657226562.1319580078125-.042007446289062.24395751953125-.0989990234375.33599853515625-.172012329101562.09100341796875-.072998046875.15997314453125-.157989501953125.20697021484375-.253997802734375.0460205078125-.0989990234375.07000732421875-.20599365234375.07000732421875-.319992065429688,0-.305007934570312-.08599853515625-.525009155273438-.25799560546875-.6610107421875-.16900634765625-.134994506835938-.41900634765625-.202987670898438-.75-.202987670898438h-.7659912109375v-.8590087890625h.7659912109375c.16400146484375,0,.30401611328125-.017990112304688.41796875-.05499267578125.11700439453125-.03900146484375.2120361328125-.094009399414062.2850341796875-.16400146484375.07598876953125-.07000732421875.1300048828125-.154006958007812.16400146484375-.25.0369873046875-.0989990234375.05499267578125-.2080078125.05499267578125-.3280029296875,0-.102005004882812-.02001953125-.197998046875-.05902099609375-.28900146484375-.03900146484375-.093994140625-.0989990234375-.175003051757812-.178955078125-.24200439453125-.08099365234375-.0679931640625-.18402099609375-.120986938476562-.30902099609375-.159988403320312-.12200927734375-.042007446289062-.26800537109375-.063003540039062-.43701171875-.063003540039062-.1309814453125,0-.25201416015625.016998291015625-.364013671875.050994873046875s-.208984375.082000732421875-.29296875.143997192382812c-.08001708984375.063003540039062-.14501953125.13800048828125-.19500732421875.227005004882812-.0469970703125.089004516601562-.07000732421875.186996459960938-.07000732421875.2969970703125h-1.0980224609375c0-.25.05303955078125-.4739990234375.1600341796875-.6719970703125.1099853515625-.197998046875.25701904296875-.365997314453125.4420166015625-.503997802734375s.39794921875-.242996215820312.63995361328125-.315994262695312c.2449951171875-.076004028320312.5040283203125-.114013671875.77801513671875-.114013671875.31500244140625,0,.60101318359375.0360107421875.8590087890625.106002807617188.25799560546875.068008422851562.47698974609375.169998168945312.656005859375.307998657226562.1829833984375.136001586914062.322998046875.305007934570312.4219970703125.508010864257812.0989990234375.20098876953125.14898681640625.433990478515625.14898681640625.698989868164062Zm.8160400390625,4.145004272460938v-5.688003540039062h1.90997314453125c.30999755859375,0,.59100341796875.031997680664062.843994140625.094009399414062.2550048828125.06298828125.4730224609375.157989501953125.6519775390625.284988403320312.1800537109375.128005981445312.31805419921875.28900146484375.41400146484375.485000610351562.0989990234375.19500732421875.1490478515625.426010131835938.1490478515625.691009521484375-.0030517578125.2659912109375-.07501220703125.503997802734375-.21502685546875.714996337890625-.13800048828125.21099853515625-.343017578125.371002197265625-.61297607421875.479995727539062.16400146484375.042007446289062.30596923828125.105010986328125.42498779296875.188003540039062.1199951171875.082992553710938.218994140625.1820068359375.2969970703125.2969970703125.08099365234375.11199951171875.1400146484375.236007690429688.17596435546875.371002197265625.03900146484375.13299560546875.05902099609375.27099609375.05902099609375.41400146484375,0,.272994995117188-.0469970703125.513992309570312-.1409912109375.722991943359375-.093994140625.2080078125-.22802734375.383010864257812-.4019775390625.52301025390625-.175048828125.1409912109375-.38702392578125.246002197265625-.63702392578125.317001342773438-.25.069992065429688-.531005859375.104995727539062-.843994140625.104995727539062h-2.073974609375Zm1.10198974609375-2.50799560546875v1.621002197265625h.9759521484375c.300048828125-.00201416015625.52703857421875-.07501220703125.68402099609375-.218002319335938.15899658203125-.146011352539062.238037109375-.33599853515625.238037109375-.570999145507812.00299072265625-.260009765625-.06805419921875-.4630126953125-.2110595703125-.6090087890625-.1429443359375-.14599609375-.364990234375-.220001220703125-.6639404296875-.222991943359375h-1.02301025390625Zm0-.792999267578125h.81597900390625c.30499267578125-.001998901367188.53900146484375-.066009521484375.7030029296875-.191009521484375s.24700927734375-.308990478515625.25-.550994873046875c0-.266006469726562-.08203125-.45599365234375-.2459716796875-.57000732421875-.16400146484375-.116989135742188-.4010009765625-.176986694335938-.7110595703125-.17999267578125h-.81195068359375v1.49200439453125Zm6.34295654296875-2.387008666992188h1.10205078125v5.688003540039062h-1.10205078125v-3.628997802734375l-1.61297607421875,3.628997802734375h-1.0980224609375v-5.688003540039062h1.0980224609375v3.633010864257812l1.61297607421875-3.633010864257812Zm6.35205078125.895004272460938h-1.7540283203125v4.792999267578125h-1.10198974609375v-4.792999267578125h-1.72998046875v-.895004272460938h4.58599853515625v.895004272460938Zm3.25799560546875-.895004272460938h1.1009521484375v5.688003540039062h-1.1009521484375v-3.628997802734375l-1.614013671875,3.628997802734375h-1.09698486328125v-5.688003540039062h1.09698486328125v3.633010864257812l1.614013671875-3.633010864257812Zm4.6319580078125,5.688003540039062v-2.238006591796875h-.87799072265625l-1.07098388671875,2.238006591796875h-1.176025390625l1.23101806640625-2.57000732421875c-.302001953125-.14898681640625-.53302001953125-.340988159179688-.69097900390625-.577987670898438-.15704345703125-.240005493164062-.23504638671875-.529006958007812-.23504638671875-.868011474609375,0-.272994995117188.04803466796875-.513992309570312.14501953125-.722000122070312.09600830078125-.208999633789062.2340087890625-.38299560546875.41400146484375-.52398681640625.1820068359375-.139999389648438.4019775390625-.246002197265625.6600341796875-.316009521484375.25799560546875-.072998046875.5469970703125-.110000610351562.866943359375-.110000610351562h1.83599853515625v5.688003540039062h-1.10198974609375Zm-1.72198486328125-3.949005126953125c0,.297012329101562.08203125.516998291015625.24603271484375.660003662109375.16400146484375.141006469726562.41094970703125.21099853515625.741943359375.21099853515625h.7340087890625v-1.718994140625h-.7340087890625c-.33795166015625,0-.58795166015625.073989868164062-.75.222991943359375-.15899658203125.14801025390625-.23797607421875.357009887695312-.23797607421875.625Z" fill="#fff"/>
</svg>