<?xml version="1.0" encoding="UTF-8"?>
<svg id="uuid-19784659-f072-4ddf-bc02-42273c2460a7" data-name="Layer 1" xmlns="http://www.w3.org/2000/svg" width="101" height="101" viewBox="0 0 101 101">
  <path d="m101,0H.1519775390625v101h100.8480224609375V0Z" fill="#566e78"/>
  <path d="m42.53974902396476,68.276992797851562c.176202513202952,0,.176202513202952.177001953125.176202513202952.177001953125v7.429000854492188c0,.177001953125-.176202513202952.177001953125-.176202513202952.177001953125h-3.002033220696831c-.177259479583881,0-.177259479583881-.177001953125-.177259479583881-.177001953125v-7.429000854492188c0-.177001953125.177259479583881-.177001953125.177259479583881-.177001953125h3.002033220696831Z" fill="#fff" fill-rule="evenodd"/>
  <path d="m75.390699374403994,79.065994262695312H26.291999637027402c-.177259479583881,0-.177259479583881.177001953125-.177259479583881.177001953125v3.184005737304688c0,.177001953125.177259479583881.177001953125.177259479583881.177001953125h49.098699737376592c.177259479583881,0,.177259479583881-.177001953125.177259479583881-.177001953125v-3.184005737304688c.176202513202952,0,0-.177001953125-.177259479583881-.177001953125Z" fill="#fff" fill-rule="evenodd"/>
  <path d="m75.390699374403994,85.257003784179688H26.291999637027402c-.177259479583881,0-.177259479583881.177001953125-.177259479583881.177001953125v3.006988525390625c0,.177001953125.177259479583881.177001953125.177259479583881.177001953125h49.098699737376592c.177259479583881,0,.177259479583881-.177001953125.177259479583881-.177001953125v-3.006988525390625c.176202513202952,0,0-.177001953125-.177259479583881-.177001953125Z" fill="#fff" fill-rule="evenodd"/>
  <path d="m66.029148135748983,60.139999389648438c-.529664505989786-.531005859375-2.296041852521739-1.591995239257812-4.23868388675146-1.591995239257812-1.412853179255762,0-2.825768533002702.530990600585938-3.885159719471631,1.768997192382812,0,0-.177259479583881.177001953125-.177259479583881.35400390625v.352996826171875q0,.177001953125.177259479583881.35400390625c.176202513201133,0,.176202513201133.176986694335938.353461992785014,0h.176264687695948s.176202513201133,0,.176202513201133-.177001953125c.177259479583881-.177001953125.883188673267796-.352996826171875,1.943636826117654-.352996826171875,1.059391186468929,0,3.178235733901602.352996826171875,5.121810385524441,2.121994018554688.176264687695948.177001953125.3524672008989.177001953125.3524672008989.177001953125.177259479582062,0,.35352416727801,0,.35352416727801-.177001953125,1.942579859736725-1.945999145507812,4.062419199055512-2.121994018554688,5.121810385524441-2.121994018554688,1.059453360961925,0,1.766377346533773.175994873046875,1.942642034229721.352996826171875,0,0,.177197305089067.177001953125.353461992785014.177001953125h.353461992786833c.176202513201133,0,.353461992785014-.177001953125.353461992785014-.35400390625v-.175994873046875q0-.177001953125-.177259479583881-.35400390625c-1.235593699671881-1.061004638671875-2.64850905341882-1.768997192382812-4.062419199055512-1.768997192382812-1.942579859734906-.177001953125-3.707962414380745.883987426757812-4.238683886749641,1.414993286132812Z" fill="#fff" fill-rule="evenodd"/>
  <path d="m63.027177089543329,40.505996704101562c-.176264687695948,0-.176264687695948.177001953125-.176264687695948.177001953125v.531005859375c0,.175994873046875.176264687695948.175994873046875.353461992786833.175994873046875h.529726680480962c.176264687694129,0,2.118844547430854,0,3.531697726684797,2.300003051757812,0,.177001953125.177259479583881.177001953125.353524167279829.177001953125h.353461992785014c.705929193683914-.35400390625,1.412915353748758-.531005859375,2.118844547432673-.531005859375,1.236650666050991,0,2.119839339318787.531005859375,2.296041852521739.7080078125,0,0,0,.176986694335938.177259479582062.176986694335938h.3524672008989c.177259479582062,0,.177259479582062-.176986694335938.177259479582062-.176986694335938v-.531005859375c-.883188673265977-1.591995239257812-2.296104027014735-1.945999145507812-3.355495213483664-1.945999145507812-.706986160064844,0-1.412915353746939.177001953125-1.766377346533773.35400390625-.529726680480962-.531005859375-1.590112658837825-1.769012451171875-3.355495213483664-1.769012451171875-.353461992785014,0-.883188673265977,0-1.590112658837825.35400390625Z" fill="#fff" fill-rule="evenodd"/>
  <path d="m52.607229456305504,48.11199951171875v.177001953125q0,.177001953125.176202513202952.35400390625c.176264687694129,0,.176264687694129.177001953125.353461992785014,0,.176264687695948,0,.176264687695948-.177001953125.176264687695948-.177001953125.177259479582062-.177001953125.883188673265977-.35400390625,1.942579859734906-.35400390625.883188673267796,0,2.473301332105621.177001953125,3.886216685854379,1.414993286132812q.176202513201133.177001953125.353461992785014.177001953125c.176264687695948,0,.352467200897081-.177001953125.352467200897081-.177001953125,1.59017483333264-1.591995239257812,3.356490005373416-1.945999145507812,4.415943366335341-1.945999145507812.705929193682096,0,1.059391186468929.177001953125,1.235655874163058.177001953125l.177197305090885.177001953125h.353524167279829c.176202513201133,0,.352467200897081-.177001953125.352467200897081-.35400390625v-.175994873046875q0-.177001953125-.176264687695948-.177001953125c-1.059391186468929-.707992553710938-2.119839339318787-1.237991333007812-3.179230525787716-1.237991333007812-1.766377346533773,0-3.179292700282531.883987426757812-3.709019380763493,1.414993286132812-.529664505987967-.35400390625-1.766315172040777-1.061996459960938-3.355433038990668-1.061996459960938-1.412915353746939,0-2.472306540217687.530990600585938-3.532754693067545,1.591995239257812.177259479583881-.177001953125.177259479583881,0,.177259479583881.177001953125Z" fill="#fff" fill-rule="evenodd"/>
  <path d="m27.703858024393412,52.003005981445312c0-3.007003784179688,2.472306540217687-5.305999755859375,5.298075073220389-5.305999755859375h.353461992785014c.353524167279829-3.715011596679688,3.355495213483664-6.722000122070312,7.241711899338043-6.722000122070312,3.885221893964626,0,7.24071710744829,3.183990478515625,7.24071710744829,7.25299072265625,0,1.061004638671875-.353461992785014,2.12200927734375-.705929193683914,3.184005737304688,3.531697726686616.884002685546875,6.357466259689318,4.0679931640625,6.357466259689318,7.958999633789062,0,4.4219970703125-3.531697726684797,8.136993408203125-8.123843606221271,8.136993408203125h-10.773409626024659c-3.179292700280712,0-5.651599240498399-2.475997924804688-5.651599240498399-5.659988403320312,0-1.592010498046875.529726680480962-2.831008911132812,1.589117866949891-3.892013549804688-1.589117866949891-1.237991333007812-2.825768533002702-2.829986572265625-2.825768533002702-4.952987670898438Z" fill="#fff" fill-rule="evenodd"/>
  <path d="m7.392632472017794,12.027999877929688v3.538002014160156l2.473363506598616-2.477005004882812v15.743003845214844h3.355495213483664V8.313003540039062h-2.649566019799749l-3.179292700282531,3.714996337890625Z" fill="#fff" fill-rule="evenodd"/>
  <path d="m21.345334798323165,14.680999755859375c-1.412853179253943,0-2.296041852521739.530998229980469-2.825768533002702,1.415000915527344v-5.128997802734375h5.828796545589285v-2.830001831054688h-9.008089245869996v11.673995971679688h3.179292700280712v-.530998229980469c0-1.237998962402344.529726680480962-1.945999145507812,1.412915353748758-1.945999145507812,1.059391186468929,0,1.412853179253943.708000183105469,1.412853179253943,1.768997192382812v4.9530029296875c0,1.061004638671875-.353461992785014,1.768997192382812-1.412853179253943,1.768997192382812-1.236712840545806,0-1.589180041444706-.707992553710938-1.589180041444706-1.945999145507812v-2.652999877929688h-3.003028012584764v2.299003601074219c0,3.183998107910156,1.236712840543987,5.129997253417969,4.768410567230603,5.129997253417969,3.356490005373416,0,4.769405359120356-1.768997192382812,4.769405359120356-4.7760009765625v-4.952995300292969c0-2.830001831054688-1.766377346533773-4.245002746582031-3.532754693067545-4.245002746582031Z" fill="#fff" fill-rule="evenodd"/>
  <path d="m32.296003903929886,8.313003540039062h1.412915353748758v7.252998352050781h1.766377346533773v1.237998962402344h-3.179292700282531v-8.490997314453125Z" fill="#fff" fill-rule="evenodd"/>
  <path d="m37.417876463947323,8.313003540039062h-1.412915353746939v8.490997314453125h1.412915353746939v-8.490997314453125Z" fill="#fff"/>
  <path d="m38.123805657631237,8.313003540039062h3.356490005371597v1.061996459960938h-1.943574651622839v2.475997924804688h1.590112658837825v1.061004638671875h-1.590112658837825v3.891998291015625h-1.412915353748758v-8.490997314453125Z" fill="#fff" fill-rule="evenodd"/>
  <path d="m42.187281823067678,8.313003540039062h3.355495213483664v1.061996459960938h-1.942642034227902v2.475997924804688h1.412915353746939v1.061004638671875h-1.412915353746939v2.653999328613281h1.942642034227902v1.237998962402344h-3.355495213483664v-8.490997314453125Z" fill="#fff" fill-rule="evenodd"/>
  <path d="m32.296003903929886,26.531997680664062v-4.068000793457031c0-1.414993286132812.705929193683914-2.299995422363281,2.118844547430854-2.299995422363281,1.412853179255762,0,2.119839339320606,1.061996459960938,2.119839339320606,2.299995422363281v4.068000793457031c0,1.415008544921875-.706986160064844,2.300003051757812-2.119839339320606,2.300003051757812-1.589117866949891,0-2.118844547430854-1.061996459960938-2.118844547430854-2.300003051757812Zm2.825768533002702.177001953125v-4.5989990234375c0-.529998779296875-.177197305090885-.884002685546875-.706923985571848-.884002685546875s-.705929193682096.35400390625-.705929193682096.884002685546875v4.5989990234375c0,.531005859375.176202513201133.884994506835938.705929193682096.884994506835938.353461992786833,0,.706923985571848-.353988647460938.706923985571848-.884994506835938Z" fill="#fff" fill-rule="evenodd"/>
  <path d="m38.478324616799,23.347999572753906v5.484001159667969h-1.236712840545806v-8.667999267578125h1.412915353746939l1.766377346533773,4.9530029296875v-4.9530029296875h1.059391186468929v8.667999267578125h-1.235655874163058l-1.766315172040777-5.484001159667969Z" fill="#fff" fill-rule="evenodd"/>
  <path d="m45.012055564182447,20.16400146484375h1.412853179255762v7.42999267578125h1.766377346533773v1.238006591796875h-3.179230525789535v-8.667999267578125Z" fill="#fff" fill-rule="evenodd"/>
  <path d="m48.544748082756996,28.832000732421875l1.589117866949891-8.667999267578125h1.59017483333264l1.589117866949891,8.667999267578125h-1.412915353748758l-.353461992785014-1.591995239257812h-1.589117866949891l-.176264687695948,1.591995239257812h-1.23665066605281Zm1.766377346533773-2.830001831054688h1.235655874164877l-.529726680480962-3.538002014160156-.705929193683914,3.538002014160156Z" fill="#fff" fill-rule="evenodd"/>
  <path d="m55.256733301612257,23.347999572753906v5.484001159667969h-1.236650666050991v-8.667999267578125h1.412915353746939l1.412915353748758,4.9530029296875v-4.9530029296875h1.23665066605281v8.667999267578125h-1.23665066605281l-1.589180041444706-5.484001159667969Z" fill="#fff" fill-rule="evenodd"/>
  <path d="m63.203379602746281,22.463996887207031v4.068000793457031c0,1.415008544921875-.529726680482781,2.300003051757812-2.118844547432673,2.300003051757812h-2.119839339318787v-8.667999267578125h2.119839339318787c1.589117866949891,0,2.118844547432673.885002136230469,2.118844547432673,2.299995422363281Zm-2.296041852523558,5.129997253417969c.530721472370715,0,.8831264987748-.353988647460938.8831264987748-.884994506835938v-4.5989990234375c0-.529998779296875-.176202513202952-.884002685546875-.8831264987748-.884002685546875h-.529726680480962v6.367996215820312h.529726680480962Z" fill="#fff" fill-rule="evenodd"/>
  <rect x="27.655983664772066" y="7" width="51.952011570787363" height="22" fill="#566e78"/>
  <path d="m34.237588971778678,12.219001770019531c-.018341475439229.285995483398438-.082505552230941.543998718261719-.191497438483566.772994995117188-.105945336097648.22900390625-.248573623071934.425003051757812-.428879652812611.586006164550781-.18130082163043.161994934082031-.39524325209095.286994934082031-.644811667050817.375-.249568414958048.08599853515625-.525623163941418.128997802734375-.82816424694829.128997802734375-.342270584043945,0-.645868633431746-.060997009277344-.910669799179232-.183998107910156-.265920306623229-.125-.487945421176846-.298004150390625-.669308417298453-.519004821777344-.180306029740677-.2239990234375-.317773833796309-.491996765136719-.413584727530178-.805000305175781-.095748719242692-.311996459960938-.14256611248129-.655998229980469-.14256611248129-1.030998229980469v-.765998840332031c0-.376998901367188.049863943397213-.722000122070312.150710971065564-1.035003662109375.100909202161347-.311996459960938.244532281025386-.58099365234375.429936619193541-.803993225097656.185342163675159-.224006652832031.409481210990634-.398002624511719.672292792962253-.520004272460938.264863340240481-.125.562306114819876-.187995910644531.891333531852069-.187995910644531.318830800177238,0,.601040823967196.044998168945312.847500514277272.13299560546875.249630589451044.089004516601562.461459087151525.215003967285156.636666808464724.378997802734375.175269895806196.16400146484375.312737699861827.365005493164062.413584727530178.602005004882812.10084702767017.23699951171875.165073278953059.503997802734375.191559612976562.800994873046875h-1.114477787279611c-.01013444236014-.169998168945312-.036620776385462-.3179931640625-.07939682757933-.445999145507812-.039729501035254-.126998901367188-.099852235780418-.232994079589844-.179311237852744-.315994262695312-.076412451913711-.086006164550781-.1752077213132-.150001525878906-.294396224422599-.192001342773438-.116141952950784-.043998718261719-.256718481654389-.066001892089844-.421729586114452-.066001892089844-.172161171156404,0-.321877350334034.036003112792969-.449210712027707.109001159667969s-.23433566417043.180000305175781-.318892974670234.320999145507812c-.082505552229122.139999389648438-.14256611248129.312995910644531-.183352579899292.518997192382812-.039729501035254.2030029296875-.059065768362416.435005187988281-.059065768362416.695999145507812v.773002624511719c0,.55999755859375.079459002072326.9739990234375.23837700621516,1.24200439453125.161964554303268.267997741699219.416631277688793.402999877929688.764000170160216.402999877929688.292344466151917,0,.522576613782803-.076004028320312.692686026670344-.227005004882812.170109412887541-.153999328613281.263806373859552-.4010009765625.282147849298781-.741996765136719h1.11851912932616Zm4.914023229870509-.645004272460938c0,.365005493164062-.04886915150928.701004028320312-.146669629020835,1.008003234863281-.098795269399488.306999206542969-.240366589992846.571998596191406-.425770928161.792999267578125-.186461304549084.221000671386719-.412589935642245.394996643066406-.680499826041341.519996643066406-.265858132128415.122001647949219-.565352664976672.183006286621094-.899478390436343.183006286621094-.334125725457852,0-.631568500037247-.061004638671875-.89133353185025-.183006286621094-.259765031814823-.125-.478743596209824-.298995971679688-.657060042174635-.519996643066406-.177197305090885-.2239990234375-.312737699861827-.487998962402344-.405377694452909-.792999267578125-.092702169084077-.306999206542969-.13958173681749-.642997741699219-.13958173681749-1.008003234863281v-.827995300292969c0-.363998413085938.046879567733413-.700004577636719.13958173681749-1.008003234863281.092639994591082-.306999206542969.228180389362024-.570999145507812.405377694452909-.792999267578125.178316445964811-.2239990234375.39524325209095-.398002624511719.653018700128086-.523002624511719.259702857320008-.125.557207806392398-.187995910644531.891333531852069-.187995910644531.337172275614648,0,.637661600352658.062995910644531.903519732481072.187995910644531.267909890399096.125.494038521492257.299003601074219.680499826041341.523002624511719.185404338168155.222000122070312.326975658761512.486000061035156.425770928161.792999267578125.097800477511555.307998657226562.146669629020835.644004821777344.146669629020835,1.008003234863281v.827995300292969Zm-1.133751880113778-.83599853515625c0-.230995178222656-.02039323370991-.444999694824219-.060122734745164-.639999389648438-.036620776385462-.195999145507812-.096743511130626-.363998413085938-.178254271471815-.503997802734375-.082505552229122-.140998840332031-.18845088832677-.25-.318830800177238-.3280029296875-.127333361691853-.081001281738281-.282147849298781-.121002197265625-.465500429196254-.121002197265625-.180306029742496,0-.332136141681985.040000915527344-.453314228567251.121002197265625-.122235053266195.0780029296875-.22003553077775.187004089355469-.294396224422599.3280029296875-.074360693644849.139999389648438-.127333361693672.307998657226562-.159974970525582.503997802734375-.03158464245098.194999694824219-.047874359621346.409004211425781-.047874359621346.639999389648438v.83599853515625c0,.22900390625.016289717170366.442001342773438.047874359621346.637001037597656.032641608831909.194999694824219.085614276880733.364997863769531.159974970525582.508003234863281.074360693644849.142997741699219.172161171156404.254997253417969.294396224422599.33599853515625.121178086885266.080001831054688.274002990714507.121002197265625.457355570611981.121002197265625.180306029742496,0,.334125725459671-.041000366210938.461459087151525-.121002197265625.130379911850468-.081001281738281.234273489677435-.192001342773438.31478945813069-.332000732421875.081448585850012-.143997192382812.142566112483109-.312995910644531.182295613518363-.508003234863281.039729501035254-.194999694824219.060122734745164-.40899658203125.060122734745164-.640998840332031v-.83599853515625Zm3.947334212485657-.386001586914062l1.03091526866956-2.040000915527344h1.313063117966522l-1.631956092636756,2.821006774902344,1.671685593672009,2.866996765136719h-1.305975225763177l-1.062437736625725-2.069999694824219-1.058396394580996,2.069999694824219h-1.320213184664681l1.670628627292899-2.866996765136719-1.626795609718101-2.821006774902344h1.304918259382248l1.014563377006198,2.040000915527344Zm4.122541933800676,1.562004089355469v2.08599853515625h-1.11851912932616v-5.688003540039062h1.981314568884045c.315784250018623,0,.601040823969015.046005249023438.855707547354541.137001037597656.254666723385526.089004516601562.470598737625551.214004516601562.648915183588542.375.1802438552495.159004211425781.317773833796309.350006103515625.413522553039002.574005126953125.098857443892484.2239990234375.147726595401764.472999572753906.147726595401764.746994018554688,0,.2550048828125-.04886915150928.490005493164062-.147726595401764.707000732421875-.095748719242692.21600341796875-.233278697789501.402999877929688-.413522553039002.562004089355469-.178316445962992.155998229980469-.394248460203016.278999328613281-.648915183588542.366996765136719-.254666723385526.089004516601562-.539923297335918.133003234863281-.855707547354541.133003234863281h-.862795439557885Zm0-.890998840332031h.862795439557885c.159974970525582,0,.297442774579395-.023002624511719.414641693911108-.069999694824219.116079778457788-.047004699707031.21288546408141-.111000061035156.290292707883054-.191001892089844.079459002072326-.081001281738281.137529978548628-.173004150390625.175207721315019-.277999877929688.039729501035254-.106002807617188.059065768364235-.217002868652344.059065768364235-.332000732421875,0-.132003784179688-.019336267328981-.255996704101562-.059065768364235-.371002197265625-.037677742766391-.113998413085938-.095748719242692-.214996337890625-.175207721315019-.300994873046875-.077407243801645-.085006713867188-.174212929425266-.152999877929688-.290292707883054-.2030029296875-.117198919331713-.049003601074219-.254666723385526-.073997497558594-.414641693911108-.073997497558594h-.862795439557885v1.819999694824219Zm6.553067214710609,1.788993835449219h-1.738834046127522l-.342270584043945,1.188003540039062h-1.177584897688575l1.897752050272175-5.688003540039062h1.015620343387127l1.862126065776465,5.688003540039062h-1.178579689578328l-.338229241997396-1.188003540039062Zm-1.463774089032086-.932998657226562h1.202019473443215l-.592895965382922-2.093994140625-.609123508060293,2.093994140625Zm7.333357102039372,2.121002197265625h-1.106270754202342v-2.464996337890625h-1.6390439848401v2.464996337890625h-1.110312096247071v-5.688003540039062h1.110312096247071v2.333000183105469h1.6390439848401v-2.333000183105469h1.106270754202342v5.688003540039062Zm4.635978897111272-2.491996765136719h-2.379604371131791v1.604995727539062h2.780940723538151v.887001037597656h-3.903563369403855v-5.688003540039062h3.892371960662786v.895004272460938h-2.769749314797082v1.433998107910156h2.379604371131791v.86700439453125Zm5.152400236087487,2.491996765136719h-1.106270754200523v-2.464996337890625h-1.639043984841919v2.464996337890625h-1.110374270740067v-5.688003540039062h1.110374270740067v2.333000183105469h1.639043984841919v-2.333000183105469h1.106270754200523v5.688003540039062Zm3.752728049352299-5.688003540039062h1.122622645863885v5.688003540039062h-1.122622645863885v-3.628997802734375l-1.643085326886649,3.628997802734375h-1.11851912932616v-5.688003540039062h1.11851912932616v3.633003234863281l1.643085326886649-3.633003234863281Zm5.777937810304138,3.196006774902344h-2.37960437113361v1.604995727539062h2.78094072353997v.887001037597656h-3.903563369403855v-5.688003540039062h3.892371960660967v.895004272460938h-2.769749314797082v1.433998107910156h2.37960437113361v.86700439453125Zm-46.879070336770383,9.600997924804688c-.015294925282433.1719970703125-.002051758270682.325996398925781.039729501035254.46099853515625.042776051193869.136001586914062.104888369714899.25.187393921945841.344001770019531.084557310497985.094001770019531.184409546278403.165000915527344.298499740960324.214996337890625.117136744838717.049003601074219.242418348261708.074005126953125.377896568539654.074005126953125.158918004144653,0,.30359804938962-.0260009765625.433977961240089-.0780029296875.129385119962535-.052001953125.240428764485841-.135002136230469.330022208918308-.25.090712585308211-.116996765136719.158918004144653-.266998291015625.206792363765999-.448997497558594.050983084271138-.183006286621094.075417660025778-.404998779296875.075417660025778-.667999267578125v-.152999877929688h-1.523958998270246v-.886001586914062h1.523958998270246v-.152999877929688c0-.25-.023439783866706-.46600341796875-.071314143486234-.648002624511719-.04482780946455-.181999206542969-.111043644523306-.332000732421875-.198647505179906-.448997497558594-.085552102387737-.120002746582031-.189445680214703-.208999633789062-.314789458132509-.265998840332031-.122235053264376-.056999206542969-.258708065432074-.086006164550781-.409481210990634-.086006164550781-.161964554301449,0-.306644599546416.025001525878906-.433977961240089.074005126953125-.124224637042062.049995422363281-.228180389362024.123001098632812-.310685941591146.219001770019531-.081448585848193.093994140625-.141571320593357.209999084472656-.178254271471815.347999572753906-.037677742766391.13800048828125-.049926117890209.293998718261719-.036682950878458.468994140625h-1.11746216294523c0-.273994445800781.047874359621346-.531997680664062.142628286976105-.773994445800781.098795269399488-.24200439453125.23837700621516-.454002380371094.418683035957656-.637001037597656.180306029740677-.181999206542969.397232835866816-.325004577636719.651899559252342-.429000854492188.257775448037137-.107002258300781.545021605763395-.160003662109375.863852405940634-.160003662109375.310685941591146,0,.593890757270856.054000854492188.851604030814997.16400146484375.259765031813004.106002807617188.482847112749369.260002136230469.668251450917523.46099853515625.185404338168155.200004577636719.330022208918308.445999145507812.43397796123827.737998962402344.102836611446037.28900146484375.154814487605108.614006042480469.154814487605108.976005554199219v1.183998107910156c0,.364997863769531-.049926117890209.691001892089844-.15077314555856.980003356933594-.10084702767017.286994934082031-.245464898420323.529998779296875-.433915786747093.730995178222656-.185404338168155.197998046875-.412589935642245.349998474121094-.680499826039522.457000732421875-.264863340240481.107002258300781-.563300906709628.160003662109375-.895437048391614.160003662109375-.29439622442078,0-.567342248754358-.04400634765625-.820019388364017-.133003234863281-.248511448577119-.087997436523438-.465500429196254-.217002868652344-.647858217207613-.386001586914062-.180306029740677-.169998168945312-.319825592065172-.375-.417626069576727-.617996215820312-.098857443892484-.244003295898438-.14362307886222-.522003173828125-.135478220277946-.832000732421875h1.11746216294523Zm5.821646478891125-.444999694824219h-.465500429196254v2.33599853515625h-1.11746216294523v-5.688003540039062h1.11746216294523v2.504005432128906h.275059957093617l1.515751965194795-2.504005432128906h1.293726850639359l-1.727704811879448,2.739006042480469,1.794915438827957,2.948997497558594h-1.297768192685908l-1.388480777994118-2.33599853515625Zm7.274353508169952-.090003967285156c0,.365005493164062-.048931326002275.701004028320312-.147726595401764,1.008003234863281-.097800477511555.306999206542969-.239371798104912.571998596191406-.425833102653996.792999267578125-.185404338168155.221000671386719-.412527761149249.394996643066406-.680437651548345.519996643066406-.264863340240481.122001647949219-.564357873088738.183006286621094-.89848359854841.183006286621094-.335120517345786,0-.631568500037247-.061004638671875-.89133353185025-.183006286621094-.260759823702756-.125-.478743596209824-.298995971679688-.657060042174635-.519996643066406-.177197305090885-.2239990234375-.312675525368832-.487998962402344-.405377694452909-.792999267578125-.093759135465007-.306999206542969-.13958173681749-.642997741699219-.13958173681749-1.008003234863281v-.827995300292969c0-.363998413085938.045822601352484-.700004577636719.13958173681749-1.008003234863281.092702169084077-.306999206542969.228180389362024-.570999145507812.405377694452909-.792999267578125.178316445964811-.2239990234375.39524325209095-.398002624511719.653018700128086-.523002624511719.259765031813004-.125.557207806394217-.187995910644531.891333531852069-.187995910644531.336115309233719,0,.637661600352658.062995910644531.902524940593139.187995910644531.267909890399096.125.495033313380191.299003601074219.680437651548345.523002624511719.186461304549084.222000122070312.328032625142441.486000061035156.425833102653996.792999267578125.098795269399488.307998657226562.147726595401764.644004821777344.147726595401764,1.008003234863281v.827995300292969Zm-1.133814054606773-.83599853515625c0-.230995178222656-.020393233708091-.444999694824219-.060060560252168-.639999389648438-.036682950878458-.195999145507812-.096805685621803-.363998413085938-.179311237852744-.503997802734375-.082505552229122-.140998840332031-.188450888324951-.25-.317836008289305-.3280029296875-.127333361691853-.081001281738281-.28320481567971-.121002197265625-.465500429196254-.121002197265625-.180306029740677,0-.332136141681985.040000915527344-.45437119494818.121002197265625-.121178086885266.0780029296875-.22003553077775.187004089355469-.294396224422599.3280029296875-.074360693644849.139999389648438-.127333361691853.307998657226562-.158918004144653.503997802734375-.031522467957984.194999694824219-.047874359619527.409004211425781-.047874359619527.639999389648438v.83599853515625c0,.22900390625.016351891661543.442001342773438.047874359619527.637001037597656.031584642452799.194999694824219.084557310499804.364997863769531.158918004144653.508003234863281.074360693644849.142997741699219.173218137537333.254997253417969.294396224422599.33599853515625.122235053266195.080001831054688.275059957095436.121002197265625.45841253699291.121002197265625.180306029742496,0,.334125725459671-.041000366210938.461459087151525-.121002197265625.129385119964354-.081001281738281.234273489679254-.192001342773438.313732491749761-.332000732421875.082505552230941-.143997192382812.143685253357035-.312995910644531.183414754392288-.508003234863281.039667326544077-.194999694824219.060060560252168-.40899658203125.060060560252168-.640998840332031v-.83599853515625Zm6.008107783442028,1.481002807617188c-.018341475439229.285995483398438-.082505552229122.543998718261719-.190502646595633.772994995117188-.106940127983762.22900390625-.249568414958048.425003051757812-.429874444700545.586006164550781-.180306029740677.161994934082031-.39524325209095.286994934082031-.644811667050817.375-.249568414958048.08599853515625-.525623163941418.128997802734375-.82816424694829.128997802734375-.342270584043945,0-.645868633431746-.060997009277344-.910669799179232-.183998107910156-.26592030662141-.125-.487945421175027-.298004150390625-.668251450917523-.519004821777344-.181362996121607-.2239990234375-.318892974668415-.491996765136719-.414641693911108-.805000305175781-.094691752859944-.311996459960938-.14256611248129-.655998229980469-.14256611248129-1.030998229980469v-.765998840332031c0-.376998901367188.049863943397213-.722000122070312.150710971065564-1.035003662109375.10084702767017-.311996459960938.244532281025386-.58099365234375.429936619193541-.803993225097656.185342163675159-.224006652832031.409481210992453-.398002624511719.672292792964072-.520004272460938.265858132128415-.125.562306114819876-.187995910644531.89133353185025-.187995910644531.318830800177238,0,.601040823969015.044998168945312.847500514277272.13299560546875.249630589452863.089004516601562.461459087151525.215003967285156.636666808464724.378997802734375.175207721315019.16400146484375.312737699861827.365005493164062.413584727531997.602005004882812.100847027668351.23699951171875.16507327895124.503997802734375.191559612976562.800994873046875h-1.114477787279611c-.010134442361959-.169998168945312-.036620776385462-.3179931640625-.079459002072326-.445999145507812-.039667326544077-.126998901367188-.099790061287422-.232994079589844-.179249063359748-.315994262695312-.07641245191553-.086006164550781-.175207721315019-.150001525878906-.294396224422599-.192001342773438-.116141952950784-.043998718261719-.256718481656208-.066001892089844-.421729586116271-.066001892089844-.172161171156404,0-.321877350334034.036003112792969-.449210712027707.109001159667969-.127333361691853.072998046875-.233278697789501.180000305175781-.318892974668415.320999145507812-.082505552230941.139999389648438-.142566112483109.312995910644531-.182295613518363.518997192382812-.040786467418002.2030029296875-.060122734745164.435005187988281-.060122734745164.695999145507812v.773002624511719c0,.55999755859375.079459002072326.9739990234375.238377006216979,1.24200439453125.161964554301449.267997741699219.416631277688793.402999877929688.764000170158397.402999877929688.292344466153736,0,.522576613784622-.076004028320312.692686026672163-.227005004882812.170109412885722-.153999328613281.263806373857733-.4010009765625.282147849296962-.741996765136719h1.11851912932616Zm3.553085752282641-3.907005310058594h1.122622645865704v5.688003540039062h-1.122622645865704v-3.628997802734375l-1.643085326886649,3.628997802734375h-1.118519129324341v-5.688003540039062h1.118519129324341v3.633003234863281l1.643085326886649-3.633003234863281Zm6.235293380916119,3.907005310058594c-.018341475439229.285995483398438-.081510760341189.543998718261719-.190502646595633.772994995117188-.105945336095829.22900390625-.249568414958048.425003051757812-.429874444700545.586006164550781-.180306029740677.161994934082031-.39524325209095.286994934082031-.644811667048998.375-.249568414959867.08599853515625-.524628372053485.128997802734375-.827169455062176.128997802734375-.342270584042126,0-.64580645893875-.060997009277344-.911726765560161-.183998107910156-.264801165747485-.125-.487883246682031-.298004150390625-.668189276422709-.519004821777344-.180306029742496-.2239990234375-.318892974670234-.491996765136719-.413584727530178-.805000305175781-.095748719242692-.311996459960938-.143685253357035-.655998229980469-.143685253357035-1.030998229980469v-.765998840332031c0-.376998901367188.050983084271138-.722000122070312.150773145560379-1.035003662109375.100847027668351-.311996459960938.244470106530571-.58099365234375.429874444698726-.803993225097656.186461304550903-.224006652832031.410538177373382-.398002624511719.672354967457068-.520004272460938.265858132128415-.125.563300906707809-.187995910644531.892328323740003-.187995910644531.317836008287486,0,.599983857586267.044998168945312.847562688768448.13299560546875.248511448578938.089004516601562.461459087151525.215003967285156.636666808466543.378997802734375.174150754932271.16400146484375.312737699861827.365005493164062.413584727530178.602005004882812s.163954138079134.503997802734375.190440472102637.800994873046875h-1.113358646405686c-.011253583235884-.169998168945312-.037739917259387-.3179931640625-.080515968453255-.445999145507812-.039729501035254-.126998901367188-.098795269399488-.232994079589844-.178254271471815-.315994262695312-.077407243801645-.086006164550781-.1752077213132-.150001525878906-.294396224422599-.192001342773438-.117136744838717-.043998718261719-.257713273544141-.066001892089844-.421729586114452-.066001892089844-.173155963044337,0-.322934316716783.036003112792969-.450267678408636.109001159667969-.127333361693672.072998046875-.233216523296505.180000305175781-.317773833796309.320999145507812-.082505552230941.139999389648438-.14362307886222.312995910644531-.183352579899292.518997192382812-.039729501035254.2030029296875-.060122734745164.435005187988281-.060122734745164.695999145507812v.773002624511719c0,.55999755859375.079459002072326.9739990234375.239371798104912,1.24200439453125.161964554303268.267997741699219.416631277688793.402999877929688.764000170158397.402999877929688.291349674265803,0,.522576613784622-.076004028320312.69169123478423-.227005004882812.170109412885722-.153999328613281.263806373859552-.4010009765625.28320481567971-.741996765136719h1.117462162943411Zm5.130017418603529-3.012001037597656h-1.786770580243683v4.792999267578125h-1.122560471370889v-4.792999267578125h-1.762273829994228v-.895004272460938h4.6716048816088v.895004272460938Zm4.202000935871183,2.301002502441406h-2.379604371131791v1.604995727539062h2.78094072353997v.887001037597656h-3.903563369405674v-5.688003540039062h3.891314994281856v.895004272460938h-2.768692348416153v1.433998107910156h2.379604371131791v.86700439453125Zm2.701481721467644-3.196006774902344l.549062947808125,2.137001037597656.624418433342726-2.137001037597656h1.388480777992299v5.688003540039062h-1.025816960240263v-1.683998107910156l.047874359621346-2.660003662109375-.760953620001601,2.469001770019531h-.553104289854673l-.679442859658593-2.362998962402344.046817393238598,2.554000854492188v1.683998107910156h-1.025754785747267v-5.688003540039062h1.388418603499304Zm-36.504945304883222,12.906997680664062c-.018341475439229.2860107421875-.082505552230941.54400634765625-.191497438483566.77301025390625-.105945336097648.228988647460938-.248573623071934.425003051757812-.428879652812611.58599853515625-.18130082163043.162002563476562-.39524325209095.287002563476562-.644811667050817.375-.249568414958048.08599853515625-.525623163941418.128997802734375-.82816424694829.128997802734375-.342270584043945,0-.645868633431746-.061004638671875-.910669799179232-.184005737304688-.265920306623229-.125-.487945421176846-.297988891601562-.669308417298453-.518997192382812-.180306029740677-.2239990234375-.317773833796309-.49200439453125-.413584727530178-.80499267578125-.095748719242692-.31201171875-.14256611248129-.656005859375-.14256611248129-1.031005859375v-.766006469726562c0-.376998901367188.049863943397213-.722000122070312.150710971065564-1.034988403320312.100909202161347-.31201171875.244532281025386-.581008911132812.429936619193541-.804000854492188.185342163675159-.2239990234375.409481210990634-.39801025390625.672292792962253-.520004272460938.264863340240481-.125.562306114819876-.188003540039062.891333531852069-.188003540039062.318830800177238,0,.601040823967196.044998168945312.847500514277272.133010864257812.249630589451044.0889892578125.461459087151525.214996337890625.636666808464724.378997802734375.175269895806196.16400146484375.312737699861827.364990234375.413584727530178.60198974609375.10084702767017.23699951171875.165073278953059.504013061523438.191559612976562.801010131835938h-1.114477787279611c-.01013444236014-.169998168945312-.036620776385462-.318008422851562-.07939682757933-.445999145507812-.039729501035254-.126998901367188-.099852235780418-.233001708984375-.179311237852744-.316009521484375-.076412451913711-.08599853515625-.1752077213132-.149993896484375-.294396224422599-.192001342773438-.116141952950784-.043991088867188-.256718481654389-.065994262695312-.421729586114452-.065994262695312-.172161171156404,0-.321877350334034.035995483398438-.449210712027707.108993530273438-.127333361693672.073013305664062-.23433566417043.180007934570312-.318892974670234.320999145507812-.082505552229122.1400146484375-.14256611248129.313003540039062-.183352579899292.519012451171875-.039729501035254.202987670898438-.059065768362416.43499755859375-.059065768362416.695999145507812v.772994995117188c0,.55999755859375.079459002072326.9739990234375.23837700621516,1.24200439453125.161964554303268.267990112304688.416631277688793.402999877929688.764000170160216.402999877929688.292344466151917,0,.522576613782803-.076004028320312.692686026670344-.227005004882812.170109412887541-.15399169921875.263806373859552-.4010009765625.282147849298781-.74200439453125h1.11851912932616Zm2.467208231788391-1.952987670898438l.377958743034469,1.04998779296875,1.20910736564656-3.003997802734375h1.218371365106577l-2.0618305373373,4.610000610351562c-.068205418836442.154006958007812-.149716179177631.301010131835938-.242418348261708.441009521484375-.090650410815215.1409912109375-.200699263450588.264999389648438-.330022208920127.370986938476562-.127333361691853.107009887695312-.277111715364299.192001342773438-.450267678408636.254013061523438-.172161171156404.06298828125-.374850018382858.093994140625-.608128716172359.093994140625-.188450888324951,0-.355513751053877-.016006469726562-.501188588186778-.0469970703125-.14362307886222-.027999877929688-.260821998193933-.055007934570312-.350415442628218-.0780029296875l.071251968995057-.858993530273438c.034693367100772.009994506835938.075417660025778.021987915039062.123292019647124.034988403320312.050920909778142.010009765625.101841819556284.021011352539062.155871453986038.031005859375.052972668048824.009994506835938.106940127983762.020004272460938.162959346189382.026992797851562.055024426317686.006011962890625.10799709436651.008010864257812.158918004144653.008010864257812.127333361693672,0,.238377006216979-.01300048828125.334125725457852-.03900146484375.095748719242692-.0260009765625.178254271471815-.061996459960938.246521864803071-.1090087890625.069262385217371-.0469970703125.12633856980392-.102996826171875.171104204773656-.167999267578125.047874359621346-.0679931640625.086609068768666-.142990112304688.116141952950784-.22698974609375l.111043644523306-.24200439453125-2.022038861807232-4.102005004882812h1.210164332027489l.899478390436343,1.954010009765625Zm4.189752560749184-1.954010009765625v4.805007934570312h.557269980887213v-4.805007934570312h1.054292878041451v4.805007934570312h.549062947808125v-4.805007934570312h1.08693448687518v5.688003540039062h-4.337479156150948v-5.688003540039062h1.08991886253898Zm6.685561059324755,0h1.12150350498996v5.688003540039062h-1.12150350498996v-3.628997802734375l-1.644142293267578,3.628997802734375h-1.117462162943411v-5.688003540039062h1.117462162943411v3.633010864257812l1.644142293267578-3.633010864257812Z" fill="#fff"/>
</svg>