<?xml version="1.0" encoding="UTF-8"?>
<svg id="uuid-743a82da-211a-4b35-ad53-9030caa63140" data-name="Layer 1" xmlns="http://www.w3.org/2000/svg" width="101" height="101" xmlns:xlink="http://www.w3.org/1999/xlink" viewBox="0 0 101 101">
  <defs>
    <clipPath id="uuid-b9e2e492-9d1f-44b2-97ea-17f02764ada1">
      <rect width="101" height="101" fill="none"/>
    </clipPath>
  </defs>
  <g clip-path="url(#uuid-b9e2e492-9d1f-44b2-97ea-17f02764ada1)" fill="none">
    <g>
      <path d="m101,0H0v101h101V0Z" fill="#566e78"/>
      <path d="m17.304000854492188,76.766998291015625h15.186004638671875c.175994873046875,0,.352996826171875-.177001953125.352996826171875-.35400390625s0-.177001953125-.177001953125-.177001953125l-7.591995239257812-9.727996826171875s-.177001953125-.177001953125-.35400390625-.177001953125h-.176002502441406l-7.416000366210938,9.72900390625-.177001953125.175994873046875v.177001953125c0,.177001953125.177001953125.35400390625.353004455566406.35400390625Z" fill="#fff" fill-rule="evenodd"/>
      <path d="m32.490005493164062,78.358993530273438h-15.186004638671875c-.176002502441406,0-.353004455566406.177001953125-.353004455566406.35400390625v12.027999877929688c0,.177001953125.177001953125.35400390625.353004455566406.35400390625h4.944000244140625v-7.606002807617188c0-.177001953125.177001953125-.35400390625.353996276855469-.35400390625h4.590003967285156c.177001953125,0,.35400390625.177001953125.35400390625.35400390625v7.606002807617188h4.944000244140625c.175994873046875,0,.352996826171875-.177001953125.352996826171875-.35400390625v-12.027999877929688c0-.35400390625-.177001953125-.35400390625-.352996826171875-.35400390625Z" fill="#fff" fill-rule="evenodd"/>
      <path d="m85.108001708984375,75.175003051757812h-15.009002685546875c-.175994873046875,0-.352996826171875.177001953125-.352996826171875.35400390625v15.211990356445312c0,.177001953125.177001953125.35400390625.352996826171875.35400390625h15.009002685546875c.177001953125,0,.352996826171875-.177001953125.352996826171875-.35400390625v-15.211990356445312c0-.35400390625-.175994873046875-.35400390625-.352996826171875-.35400390625Zm-8.298995971679688,9.905990600585938c0,.176010131835938-.177001953125.353012084960938-.353012084960938.353012084960938h-4.413986206054688c-.177001953125,0-.35400390625-.177001953125-.35400390625-.353012084960938v-2.65399169921875c0-.177001953125.177001953125-.352996826171875.35400390625-.352996826171875h4.413986206054688c.176010131835938,0,.353012084960938.175994873046875.353012084960938.352996826171875v2.65399169921875Zm0-5.129989624023438c0,.177001953125-.177001953125.353988647460938-.353012084960938.353988647460938h-4.413986206054688c-.177001953125,0-.35400390625-.176986694335938-.35400390625-.353988647460938v-2.652999877929688c0-.177001953125.177001953125-.35400390625.35400390625-.35400390625h4.413986206054688c.176010131835938,0,.353012084960938.177001953125.353012084960938.35400390625v2.652999877929688Zm6.886001586914062,5.129989624023438c0,.176010131835938-.176010131835938.353012084960938-.353012084960938.353012084960938h-4.41400146484375c-.176986694335938,0-.352996826171875-.177001953125-.352996826171875-.353012084960938v-2.65399169921875c0-.177001953125.176010131835938-.352996826171875.352996826171875-.352996826171875h4.41400146484375c.177001953125,0,.353012084960938.175994873046875.353012084960938.352996826171875v2.65399169921875Zm0-5.129989624023438c0,.177001953125-.176010131835938.353988647460938-.353012084960938.353988647460938h-4.41400146484375c-.176986694335938,0-.352996826171875-.176986694335938-.352996826171875-.353988647460938v-2.652999877929688c0-.177001953125.176010131835938-.35400390625.352996826171875-.35400390625h4.41400146484375c.177001953125,0,.353012084960938.177001953125.353012084960938.35400390625v2.652999877929688Z" fill="#fff" fill-rule="evenodd"/>
      <path d="m49.970993041992188,39.798995971679688h-14.655990600585938c-.177001953125,0-.352996826171875.176010131835938-.352996826171875.352996826171875v50.412002563476562c0,.177001953125.175994873046875.35400390625.352996826171875.35400390625h14.655990600585938c.176010131835938,0,.353012084960938-.177001953125.353012084960938-.35400390625v-50.412002563476562c.175994873046875-.176986694335938,0-.352996826171875-.353012084960938-.352996826171875Zm-8.651992797851562,45.4580078125q0,.177001953125-.177001953125.177001953125h-3.354995727539062q-.176010131835938,0-.176010131835938-.177001953125v-3.714004516601562c0-.177001953125.176010131835938-.177001953125.176010131835938-.177001953125h3.354995727539062c.177001953125,0,.177001953125.177001953125.177001953125.177001953125v3.714004516601562Zm0-8.667007446289062q0,.177001953125-.177001953125.177001953125h-3.354995727539062c-.176010131835938,0-.176010131835938-.177001953125-.176010131835938-.177001953125v-3.7139892578125c0-.177001953125.176010131835938-.177001953125.176010131835938-.177001953125h3.354995727539062q.177001953125,0,.177001953125.177001953125v3.7139892578125Zm0-8.6669921875q0,.177001953125-.177001953125.177001953125h-3.354995727539062q-.176010131835938,0-.176010131835938-.177001953125v-3.715011596679688c0-.176986694335938.176010131835938-.176986694335938.176010131835938-.176986694335938h3.354995727539062c.177001953125,0,.177001953125.176986694335938.177001953125.176986694335938v3.715011596679688Zm0-8.667007446289062q0,.177001953125-.177001953125.177001953125h-3.354995727539062q-.176010131835938,0-.176010131835938-.177001953125v-3.714996337890625c0-.177001953125.176010131835938-.177001953125.176010131835938-.177001953125h3.354995727539062q.177001953125,0,.177001953125.177001953125v3.714996337890625Zm0-8.490997314453125q0,.177001953125-.177001953125.177001953125h-3.354995727539062c-.176010131835938,0-.176010131835938-.177001953125-.176010131835938-.177001953125v-3.714004516601562c0-.177001953125.176010131835938-.177001953125.176010131835938-.177001953125h3.354995727539062q.177001953125,0,.177001953125.177001953125v3.714004516601562Zm6.533004760742188,34.49200439453125q0,.177001953125-.177001953125.177001953125h-3.354995727539062q-.176010131835938,0-.176010131835938-.177001953125v-3.714004516601562q0-.177001953125.176010131835938-.177001953125h3.354995727539062c.177001953125,0,.177001953125.177001953125.177001953125.177001953125v3.714004516601562Zm0-8.667007446289062q0,.177001953125-.177001953125.177001953125h-3.354995727539062c-.176010131835938,0-.176010131835938-.177001953125-.176010131835938-.177001953125v-3.7139892578125q0-.177001953125.176010131835938-.177001953125h3.354995727539062q.177001953125,0,.177001953125.177001953125v3.7139892578125Zm0-8.6669921875q0,.177001953125-.177001953125.177001953125h-3.354995727539062q-.176010131835938,0-.176010131835938-.177001953125v-3.715011596679688q0-.176986694335938.176010131835938-.176986694335938h3.354995727539062c.177001953125,0,.177001953125.176986694335938.177001953125.176986694335938v3.715011596679688Zm0-8.667007446289062q0,.177001953125-.177001953125.177001953125h-3.354995727539062q-.176010131835938,0-.176010131835938-.177001953125v-3.714996337890625q0-.177001953125.176010131835938-.177001953125h3.354995727539062q.177001953125,0,.177001953125.177001953125v3.714996337890625Zm0-8.490997314453125q0,.177001953125-.177001953125.177001953125h-3.354995727539062c-.176010131835938,0-.176010131835938-.177001953125-.176010131835938-.177001953125v-3.714004516601562q0-.177001953125.176010131835938-.177001953125h3.354995727539062q.177001953125,0,.177001953125.177001953125v3.714004516601562Z" fill="#fff" fill-rule="evenodd"/>
      <path d="m85.46099853515625,73.582992553710938c0,.177001953125-.175994873046875.35400390625-.352996826171875.35400390625h-15.009002685546875c-.175994873046875,0-.352996826171875-.177001953125-.352996826171875-.35400390625v-3.006988525390625c0-.177001953125.177001953125-.35400390625.352996826171875-.35400390625h15.009002685546875c.177001953125,0,.352996826171875.177001953125.352996826171875.35400390625v3.006988525390625Z" fill="#fff" fill-rule="evenodd"/>
      <path d="m67.981002807617188,49.350006103515625c0-.177001953125-.177001953125-.35400390625-.352996826171875-.35400390625h-.177001953125l-.176010131835938.177001953125-14.478988647460938,18.39599609375s-.177001953125.177001953125-.177001953125.35400390625v22.6409912109375c0,.177001953125.177001953125.35400390625.352996826171875.35400390625h14.832000732421875c.177001953125,0,.35400390625-.177001953125.35400390625-.35400390625l-.177001953125-41.2139892578125Zm-6.180007934570312,9.905990600585938c1.059005737304688-1.414993286132812,2.82501220703125-3.537994384765625,3.531005859375-4.4219970703125l.177001953125-.177001953125q.177001953125-.177001953125.352996826171875-.177001953125c.177001953125,0,.352996826171875.177001953125.352996826171875.35400390625v4.774993896484375c0,.177001953125-.175994873046875.35400390625-.352996826171875.35400390625h-3.707992553710938c-.176010131835938,0-.353012084960938-.177001953125-.353012084960938-.35400390625v-.352996826171875Zm-2.294998168945312,25.824005126953125c0,.177001953125-.177001953125.35400390625-.35400390625.35400390625h-4.413986206054688c-.177001953125,0-.353012084960938-.177001953125-.353012084960938-.35400390625v-2.830001831054688c0-.177001953125.176010131835938-.352996826171875.353012084960938-.352996826171875h4.413986206054688c.177001953125,0,.35400390625.175994873046875.35400390625.352996826171875v2.830001831054688Zm0-5.128997802734375c0,.177001953125-.177001953125.353988647460938-.35400390625.353988647460938h-4.413986206054688c-.177001953125,0-.353012084960938-.176986694335938-.353012084960938-.353988647460938v-2.830001831054688c0-.177001953125.176010131835938-.35400390625.353012084960938-.35400390625h4.413986206054688c.177001953125,0,.35400390625.177001953125.35400390625.35400390625v2.830001831054688Zm0-5.1300048828125c0,.177001953125-.177001953125.35400390625-.35400390625.35400390625h-4.413986206054688c-.177001953125,0-.353012084960938-.177001953125-.353012084960938-.35400390625v-2.830001831054688c0-.177001953125.176010131835938-.35400390625.353012084960938-.35400390625h4.413986206054688c.177001953125,0,.35400390625.177001953125.35400390625.35400390625v2.830001831054688Zm0-11.14300537109375v6.014007568359375c0,.177001953125-.177001953125.352996826171875-.35400390625.352996826171875h-4.413986206054688c-.177001953125,0-.353012084960938-.175994873046875-.353012084960938-.352996826171875v-.884994506835938c.529998779296875-.884002685546875,3.178009033203125-3.891006469726562,4.238006591796875-5.305999755859375l.175994873046875-.177001953125s.177001953125-.177001953125.352996826171875-.177001953125c.177001953125,0,.35400390625.177001953125.35400390625.530990600585938Zm6.886001586914062,21.402008056640625c0,.177001953125-.177001953125.35400390625-.352996826171875.35400390625h-4.415008544921875c-.175994873046875,0-.352996826171875-.177001953125-.352996826171875-.35400390625v-2.830001831054688c0-.177001953125.177001953125-.352996826171875.352996826171875-.352996826171875h4.415008544921875c.175994873046875,0,.352996826171875.175994873046875.352996826171875.352996826171875v2.830001831054688Zm0-5.128997802734375c0,.177001953125-.177001953125.353988647460938-.352996826171875.353988647460938h-4.415008544921875c-.175994873046875,0-.352996826171875-.176986694335938-.352996826171875-.353988647460938v-2.830001831054688c0-.177001953125.177001953125-.35400390625.352996826171875-.35400390625h4.415008544921875c.175994873046875,0,.352996826171875.177001953125.352996826171875.35400390625v2.830001831054688Zm0-5.1300048828125c0,.177001953125-.177001953125.35400390625-.352996826171875.35400390625h-4.415008544921875c-.175994873046875,0-.352996826171875-.177001953125-.352996826171875-.35400390625v-2.830001831054688c0-.177001953125.177001953125-.35400390625.352996826171875-.35400390625h4.415008544921875c.175994873046875,0,.352996826171875.177001953125.352996826171875.35400390625v2.830001831054688Zm0-4.951995849609375c0,.175994873046875-.177001953125.352996826171875-.352996826171875.352996826171875h-4.415008544921875c-.175994873046875,0-.352996826171875-.177001953125-.352996826171875-.352996826171875v-2.831008911132812c0-.175994873046875.177001953125-.352996826171875.352996826171875-.352996826171875h4.415008544921875c.175994873046875,0,.352996826171875.177001953125.352996826171875.352996826171875v2.831008911132812Zm0-5.1300048828125c0,.177001953125-.177001953125.35400390625-.352996826171875.35400390625h-4.415008544921875c-.175994873046875,0-.352996826171875-.177001953125-.352996826171875-.35400390625v-2.830001831054688c0-.177001953125.177001953125-.35400390625.352996826171875-.35400390625h4.415008544921875c.175994873046875,0,.352996826171875.177001953125.352996826171875.35400390625v2.830001831054688Z" fill="#fff" fill-rule="evenodd"/>
      <path d="m7.238998413085938,12.205001831054688v3.537994384765625l2.472000122070312-2.476997375488281v15.566001892089844h3.355003356933594V8.489997863769531h-2.648002624511719l-3.179000854492188,3.715003967285156Z" fill="#fff" fill-rule="evenodd"/>
      <path d="m15.009002685546875,12.205001831054688v3.537994384765625l2.472000122070312-2.476997375488281v15.566001892089844h3.530998229980469V8.489997863769531h-2.825004577636719l-3.177993774414062,3.715003967285156Z" fill="#fff" fill-rule="evenodd"/>
      <path d="m27.897994995117188,15.035003662109375v-1.061004638671875h1.236007690429688v1.237998962402344c0,.529998779296875.177001953125.707000732421875.707000732421875.707000732421875.352996826171875,0,.70599365234375-.352996826171875.70599365234375-.707000732421875v-.353996276855469c0-.530998229980469-.177001953125-.707000732421875-.70599365234375-1.237998962402344l-.883010864257812-.885002136230469c-.706985473632812-.707000732421875-1.235992431640625-1.237998962402344-1.235992431640625-2.299003601074219v-.353996276855469c0-1.060997009277344.529006958007812-1.944999694824219,1.942001342773438-1.944999694824219s1.942001342773438.707000732421875,1.942001342773438,1.944999694824219v.708000183105469h-1.236007690429688v-.708000183105469c0-.529998779296875-.175994873046875-.707000732421875-.70599365234375-.707000732421875-.352996826171875,0-.706008911132812.177001953125-.706008911132812.707000732421875v.177001953125c0,.530998229980469.176010131835938.708000183105469.706008911132812,1.060997009277344l.88299560546875.885002136230469c.706008911132812.883995056152344,1.059005737304688,1.237998962402344,1.059005737304688,2.122001647949219v.353996276855469c0,1.237998962402344-.529006958007812,1.945999145507812-2.119003295898438,1.945999145507812-1.059005737304688.35400390625-1.589004516601562-.530998229980469-1.589004516601562-1.591995239257812Z" fill="#fff" fill-rule="evenodd"/>
      <path d="m36.904006958007812,8.489997863769531v6.368003845214844c0,1.237998962402344-.530014038085938,2.123001098632812-2.119003295898438,2.123001098632812-1.589004516601562,0-2.119003295898438-.885002136230469-2.119003295898438-2.123001098632812v-6.368003845214844h1.412994384765625v6.545005798339844c0,.530998229980469.176010131835938.883995056152344.706008911132812.883995056152344s.70599365234375-.352996826171875.70599365234375-.883995056152344v-6.545005798339844h1.413009643554688Z" fill="#fff" fill-rule="evenodd"/>
      <path d="m37.434005737304688,15.035003662109375v-1.061004638671875h1.4119873046875v1.237998962402344c0,.529998779296875.177001953125.707000732421875.706008911132812.707000732421875.35400390625,0,.707000732421875-.352996826171875.707000732421875-.707000732421875v-.353996276855469c0-.530998229980469-.177001953125-.707000732421875-.707000732421875-1.237998962402344l-.882003784179688-.885002136230469c-.88299560546875-.707000732421875-1.235992431640625-1.237998962402344-1.235992431640625-2.299003601074219v-.353996276855469c0-1.060997009277344.52899169921875-1.944999694824219,1.942001342773438-1.944999694824219,1.4119873046875,0,1.941986083984375.707000732421875,1.941986083984375,1.944999694824219v.708000183105469h-1.235992431640625v-.708000183105469c0-.529998779296875-.175994873046875-.707000732421875-.70599365234375-.707000732421875-.353012084960938,0-.706008911132812.177001953125-.706008911132812.707000732421875v.177001953125c0,.530998229980469.352996826171875.708000183105469.706008911132812,1.060997009277344l.88299560546875.885002136230469c.70599365234375.883995056152344,1.058990478515625,1.237998962402344,1.058990478515625,2.122001647949219v.353996276855469c0,1.237998962402344-.70599365234375,1.945999145507812-2.118988037109375,1.945999145507812-1.412002563476562,0-1.764999389648438-.530998229980469-1.764999389648438-1.591995239257812Z" fill="#fff" fill-rule="evenodd"/>
      <path d="m41.671005249023438,8.489997863769531h3.884994506835938v1.062004089355469h-1.23699951171875v7.429000854492188h-1.412002563476562v-7.429000854492188h-1.235992431640625v-1.062004089355469Z" fill="#fff" fill-rule="evenodd"/>
      <path d="m45.378997802734375,16.981002807617188l1.589004516601562-8.491004943847656h1.589004516601562l1.5889892578125,8.491004943847656h-1.412002563476562l-.176986694335938-1.592002868652344h-1.589004516601562l-.177001953125,1.592002868652344h-1.412002563476562Zm1.766006469726562-2.652999877929688h1.058990478515625l-.529998779296875-3.538002014160156-.52899169921875,3.538002014160156Z" fill="#fff" fill-rule="evenodd"/>
      <path d="m51.912994384765625,8.489997863769531h-1.235992431640625v8.491004943847656h1.235992431640625v-8.491004943847656Z" fill="#fff"/>
      <path d="m53.854995727539062,11.674003601074219v5.306999206542969h-1.058990478515625v-8.491004943847656h1.4119873046875l1.413009643554688,4.7760009765625v-4.7760009765625h1.235992431640625v8.491004943847656h-1.235992431640625l-1.766006469726562-5.306999206542969Z" fill="#fff" fill-rule="evenodd"/>
      <path d="m57.210006713867188,16.981002807617188l1.5889892578125-8.491004943847656h1.589004516601562l1.589004516601562,8.491004943847656h-1.412002563476562l-.177001953125-1.592002868652344h-1.589004516601562l-.175994873046875,1.592002868652344h-1.412994384765625Zm1.7659912109375-2.652999877929688h1.059005737304688l-.529998779296875-3.538002014160156-.529006958007812,3.538002014160156Z" fill="#fff" fill-rule="evenodd"/>
      <path d="m62.507003784179688,8.489997863769531h2.119003295898438c1.4119873046875,0,1.941986083984375.708000183105469,1.941986083984375,1.769004821777344v.884994506835938c0,.707000732421875-.352996826171875,1.238006591796875-.88299560546875,1.415000915527344.706008911132812.177001953125,1.05999755859375.707000732421875,1.05999755859375,1.415000915527344v1.061004638671875c0,1.237998962402344-.529998779296875,1.768997192382812-1.9429931640625,1.768997192382812h-2.294998168945312v-8.314002990722656Zm1.412002563476562,3.538002014160156h.529998779296875c.529998779296875,0,.70599365234375-.177001953125.70599365234375-.707000732421875v-1.061996459960938c0-.530006408691406-.175994873046875-.707000732421875-.70599365234375-.707000732421875h-.529998779296875v2.475997924804688Zm0,1.060997009277344v2.653999328613281h.707000732421875c.52899169921875,0,.70599365234375-.176994323730469.70599365234375-.707992553710938v-1.238006591796875c0-.530998229980469-.177001953125-.708000183105469-.70599365234375-.708000183105469h-.707000732421875Z" fill="#fff" fill-rule="evenodd"/>
      <path d="m67.451004028320312,8.489997863769531h1.412994384765625v7.252998352050781h1.764999389648438v1.238006591796875h-3.177993774414062v-8.491004943847656Z" fill="#fff" fill-rule="evenodd"/>
      <path d="m70.98199462890625,8.489997863769531h3.355010986328125v1.062004089355469h-1.942001342773438v2.475997924804688h1.412994384765625v1.237998962402344h-1.412994384765625v2.476997375488281h1.942001342773438v1.238006591796875h-3.355010986328125v-8.491004943847656Z" fill="#fff" fill-rule="evenodd"/>
      <path d="m76.279006958007812,14.680999755859375v-4.068000793457031c0-1.415000915527344.529998779296875-2.299995422363281,2.118988037109375-2.299995422363281,1.589004516601562,0,1.942001342773438.884994506835938,1.942001342773438,2.122993469238281v1.061004638671875h-1.235992431640625v-1.061004638671875c0-.530998229980469-.176010131835938-.883995056152344-.706008911132812-.883995056152344s-.70599365234375.352996826171875-.70599365234375.883995056152344v4.599006652832031c0,.530998229980469.175994873046875.883995056152344.70599365234375.883995056152344s.706008911132812-.352996826171875.706008911132812-.883995056152344v-1.592002868652344h1.235992431640625v1.415000915527344c0,1.237998962402344-.52899169921875,2.123001098632812-1.942001342773438,2.123001098632812-1.5889892578125,0-2.118988037109375-1.062004089355469-2.118988037109375-2.300003051757812Z" fill="#fff" fill-rule="evenodd"/>
      <path d="m82.28399658203125,8.489997863769531h-1.412994384765625v8.491004943847656h1.412994384765625v-8.491004943847656Z" fill="#fff"/>
      <path d="m82.988998413085938,8.489997863769531h3.884994506835938v1.062004089355469h-1.235992431640625v7.429000854492188h-1.412994384765625v-7.429000854492188h-1.236007690429688v-1.062004089355469Z" fill="#fff" fill-rule="evenodd"/>
      <path d="m88.639999389648438,8.489997863769531h-1.412002563476562v8.491004943847656h1.412002563476562v-8.491004943847656Z" fill="#fff"/>
      <path d="m89.345993041992188,8.489997863769531h3.531005859375v1.062004089355469h-2.119003295898438v2.475997924804688h1.413009643554688v1.237998962402344h-1.413009643554688v2.476997375488281h2.119003295898438v1.238006591796875h-3.531005859375v-8.491004943847656Z" fill="#fff" fill-rule="evenodd"/>
      <path d="m93.406997680664062,15.035003662109375v-1.061004638671875h1.236007690429688v1.237998962402344c0,.529998779296875.177001953125.707000732421875.70599365234375.707000732421875.35400390625,0,.707000732421875-.352996826171875.707000732421875-.707000732421875v-.353996276855469c0-.530998229980469-.177001953125-.707000732421875-.707000732421875-1.237998962402344l-.88299560546875-.885002136230469c-.882003784179688-.707000732421875-1.236007690429688-1.237998962402344-1.236007690429688-2.299003601074219v-.353996276855469c0-1.060997009277344.529998779296875-1.944999694824219,1.943008422851562-1.944999694824219,1.412002563476562,0,1.942001342773438.707000732421875,1.942001342773438,1.944999694824219v.708000183105469h-1.236007690429688v-.708000183105469c0-.529998779296875-.175994873046875-.707000732421875-.70599365234375-.707000732421875-.352996826171875,0-.707000732421875.177001953125-.707000732421875.707000732421875v.177001953125c0,.530998229980469.177001953125.708000183105469.707000732421875,1.060997009277344l.88299560546875.885002136230469c.70599365234375.883995056152344,1.059005737304688,1.237998962402344,1.059005737304688,2.122001647949219v.353996276855469c0,1.237998962402344-.706008911132812,1.945999145507812-2.119003295898438,1.945999145507812-1.412002563476562,0-1.589004516601562-.530998229980469-1.589004516601562-1.591995239257812Z" fill="#fff" fill-rule="evenodd"/>
      <path d="m27.722000122070312,28.832000732421875l1.589004516601562-8.490997314453125h1.5889892578125l1.589004516601562,8.490997314453125h-1.412002563476562l-.177001953125-1.591995239257812h-1.5889892578125l-.177001953125,1.591995239257812h-1.412002563476562Zm1.764999389648438-2.652999877929688h1.236007690429688l-.529006958007812-3.361000061035156-.707000732421875,3.361000061035156Z" fill="#fff" fill-rule="evenodd"/>
      <path d="m34.255996704101562,23.525001525878906v5.306999206542969h-1.235992431640625v-8.490997314453125h1.412002563476562l1.5889892578125,4.7760009765625v-4.7760009765625h1.236007690429688v8.490997314453125h-1.236007690429688l-1.764999389648438-5.306999206542969Z" fill="#fff" fill-rule="evenodd"/>
      <path d="m42.201004028320312,22.640998840332031v3.890998840332031c0,1.238998413085938-.529998779296875,2.300003051757812-2.119003295898438,2.300003051757812h-2.119003295898438v-8.490997314453125h2.119003295898438c1.589004516601562,0,2.119003295898438.884994506835938,2.119003295898438,2.299995422363281Zm-2.296005249023438,4.952995300292969c.529998779296875,0,.88299560546875-.353988647460938.88299560546875-.884994506835938v-4.4219970703125c0-.529998779296875-.177001953125-.884002685546875-.88299560546875-.884002685546875h-.529998779296875v6.190994262695312h.529998779296875Z" fill="#fff" fill-rule="evenodd"/>
      <path d="m44.143997192382812,26.708999633789062v-4.245002746582031c0-1.414993286132812.706008911132812-2.299995422363281,2.117996215820312-2.299995422363281,1.590011596679688,0,2.119003295898438.885002136230469,2.119003295898438,2.123001098632812v1.060997009277344h-1.412002563476562v-1.060997009277344c0-.531005859375-.176986694335938-.884002685546875-.707000732421875-.884002685546875-.52899169921875,0-.70599365234375.352996826171875-.70599365234375.884002685546875v4.5989990234375c0,.531005859375.177001953125.884002685546875.70599365234375.884002685546875.530014038085938,0,.707000732421875-.352996826171875.707000732421875-.884002685546875v-1.591995239257812h1.412002563476562v1.414993286132812c0,1.238006591796875-.52899169921875,2.123001098632812-2.119003295898438,2.123001098632812-1.5889892578125.177001953125-2.117996215820312-.884994506835938-2.117996215820312-2.123001098632812Z" fill="#fff" fill-rule="evenodd"/>
      <path d="m48.910995483398438,26.708999633789062v-4.245002746582031c0-1.414993286132812.706008911132812-2.299995422363281,2.119003295898438-2.299995422363281s2.119003295898438,1.061996459960938,2.119003295898438,2.299995422363281v4.245002746582031c0,1.414993286132812-.706008911132812,2.300003051757812-2.119003295898438,2.300003051757812s-2.119003295898438-1.061996459960938-2.119003295898438-2.300003051757812Zm2.824996948242188.177001953125v-4.5989990234375c0-.531005859375-.175994873046875-.884002685546875-.70599365234375-.884002685546875s-.70599365234375.352996826171875-.70599365234375.884002685546875v4.5989990234375c0,.531005859375.175994873046875.884002685546875.70599365234375.884002685546875s.70599365234375-.352996826171875.70599365234375-.884002685546875Z" fill="#fff" fill-rule="evenodd"/>
      <path d="m57.738998413085938,23.347999572753906l-.88299560546875,5.484001159667969h-.706008911132812l-1.058990478515625-5.484001159667969v5.484001159667969h-1.23699951171875v-8.490997314453125h1.589996337890625l1.059005737304688,4.7760009765625.70599365234375-4.7760009765625h1.9429931640625v8.490997314453125h-1.412994384765625v-5.484001159667969Z" fill="#fff" fill-rule="evenodd"/>
      <path d="m63.742996215820312,23.347999572753906l-1.05999755859375,5.484001159667969h-.70599365234375l-1.059005737304688-5.484001159667969v5.484001159667969h-1.235992431640625v-8.490997314453125h1.764999389648438l.88299560546875,4.7760009765625.88299560546875-4.7760009765625h1.766006469726562v8.490997314453125h-1.236007690429688v-5.484001159667969Z" fill="#fff" fill-rule="evenodd"/>
      <path d="m69.923004150390625,20.34100341796875v6.544998168945312c0,1.414993286132812-.529006958007812,2.123001098632812-2.119003295898438,2.123001098632812-1.589004516601562,0-2.117996215820312-.885009765625-2.117996215820312-2.123001098632812v-6.544998168945312h1.412002563476562v6.722000122070312c0,.530990600585938.176986694335938.884002685546875.70599365234375.884002685546875.529998779296875,0,.707000732421875-.353012084960938.707000732421875-.884002685546875v-6.722000122070312h1.412002563476562Z" fill="#fff" fill-rule="evenodd"/>
      <path d="m71.865997314453125,23.525001525878906v5.306999206542969h-1.235992431640625v-8.490997314453125h1.412002563476562l1.589996337890625,4.7760009765625v-4.7760009765625h1.235992431640625v8.490997314453125h-1.412994384765625l-1.589004516601562-5.306999206542969Z" fill="#fff" fill-rule="evenodd"/>
      <path d="m76.632003784179688,20.34100341796875h-1.236007690429688v8.490997314453125h1.236007690429688v-8.490997314453125Z" fill="#fff"/>
      <path d="m77.339004516601562,20.34100341796875h3.884002685546875v1.238998413085938h-1.236007690429688v7.251998901367188h-1.412002563476562v-7.251998901367188h-1.235992431640625v-1.238998413085938Z" fill="#fff" fill-rule="evenodd"/>
      <path d="m82.990005493164062,20.34100341796875h-1.413009643554688v8.490997314453125h1.413009643554688v-8.490997314453125Z" fill="#fff"/>
      <path d="m83.695999145507812,20.34100341796875h3.531997680664062v1.238998413085938h-1.9429931640625v2.298995971679688h1.412994384765625v1.238006591796875h-1.412994384765625v2.47698974609375h1.9429931640625v1.238006591796875h-3.531997680664062v-8.490997314453125Z" fill="#fff" fill-rule="evenodd"/>
      <path d="m87.757003784179688,27.063003540039062v-1.238006591796875h1.235992431640625v1.238006591796875c0,.530990600585938.176010131835938.707992553710938.706008911132812.707992553710938.352996826171875,0,.70599365234375-.353988647460938.70599365234375-.707992553710938v-.35400390625c0-.529998779296875-.175994873046875-.884002685546875-.70599365234375-1.238006591796875l-.883010864257812-.883995056152344c-.70599365234375-.884994506835938-1.235992431640625-1.237998962402344-1.235992431640625-2.299995422363281v-.353004455566406c0-1.061996459960938.529998779296875-1.945999145507812,1.942001342773438-1.945999145507812,1.412994384765625,0,1.9429931640625.707000732421875,1.9429931640625,1.945999145507812v.707000732421875h-1.235992431640625v-.707000732421875c0-.530998229980469-.177001953125-.708000183105469-.707000732421875-.708000183105469-.352996826171875,0-.706008911132812.177001953125-.706008911132812.708000183105469v.176002502441406c0,.530998229980469.177001953125.708000183105469.706008911132812,1.238998413085938l.88299560546875.884002685546875c.707000732421875.884002685546875,1.05999755859375,1.237991333007812,1.05999755859375,2.298995971679688v.35400390625c0,1.237991333007812-.707000732421875,1.945999145507812-2.119003295898438,1.945999145507812-1.412994384765625,0-1.5889892578125-.7080078125-1.5889892578125-1.768997192382812Z" fill="#fff" fill-rule="evenodd"/>
      <rect x="25" width="73" height="39" fill="#566e78"/>
      <path d="m28.0780029296875,10.265998840332031l.371002197265625,1.050003051757812,1.18798828125-3.004005432128906h1.19500732421875l-2.022994995117188,4.610000610351562c-.068008422851562.153999328613281-.14801025390625.301002502441406-.238998413085938.441001892089844-.0880126953125.140998840332031-.196014404296875.264999389648438-.324005126953125.371002197265625-.125.107002258300781-.272003173828125.192001342773438-.441009521484375.253997802734375-.169998168945312.063003540039062-.368988037109375.094001770019531-.597991943359375.094001770019531-.18499755859375,0-.3489990234375-.015998840332031-.49200439453125-.0469970703125-.1409912109375-.027999877929688-.254989624023438-.055000305175781-.343994140625-.0780029296875l.069992065429688-.859001159667969c.034011840820312.010002136230469.07501220703125.022003173828125.121002197265625.035003662109375.050003051757812.009994506835938.100997924804688.02099609375.152999877929688.030998229980469s.105010986328125.019996643066406.160003662109375.027000427246094c.05499267578125.005996704101562.10699462890625.00799560546875.156005859375.00799560546875.125,0,.235000610351562-.01300048828125.327987670898438-.038993835449219.094009399414062-.0260009765625.175003051757812-.062004089355469.243011474609375-.109001159667969.067001342773438-.047004699707031.123001098632812-.103004455566406.167999267578125-.167999267578125.045989990234375-.068000793457031.083999633789062-.14300537109375.112991333007812-.227005004882812l.1090087890625-.241996765136719-1.9840087890625-4.102005004882812h1.18701171875l.88299560546875,1.954002380371094Zm7.188003540039062,1.9530029296875c-.019012451171875.285995483398438-.081008911132812.543998718261719-.188003540039062.772994995117188-.10400390625.22900390625-.245010375976562.425003051757812-.4219970703125.586006164550781-.177001953125.161994934082031-.38800048828125.286994934082031-.633010864257812.375-.243988037109375.08599853515625-.514999389648438.128997802734375-.811996459960938.128997802734375-.33599853515625,0-.634002685546875-.060997009277344-.895004272460938-.183998107910156-.259994506835938-.125-.478988647460938-.298004150390625-.655990600585938-.519004821777344-.177001953125-.2239990234375-.311996459960938-.491996765136719-.406005859375-.805000305175781-.093994140625-.311996459960938-.1409912109375-.655998229980469-.1409912109375-1.030998229980469v-.765998840332031c0-.376998901367188.04998779296875-.722000122070312.14898681640625-1.035003662109375.0989990234375-.311996459960938.239013671875-.58099365234375.422012329101562-.803993225097656.181991577148438-.224006652832031.401992797851562-.398002624511719.659988403320312-.520004272460938.260009765625-.125.552001953125-.187995910644531.875-.187995910644531.31201171875,0,.590011596679688.044998168945312.832000732421875.13299560546875.245010375976562.089004516601562.4530029296875.215003967285156.625.378997802734375.172012329101562.16400146484375.3070068359375.365005493164062.406005859375.602005004882812s.160995483398438.503997802734375.188003540039062.800994873046875h-1.094009399414062c-.011001586914062-.169998168945312-.0369873046875-.3179931640625-.077987670898438-.445999145507812-.03900146484375-.126998901367188-.098007202148438-.232994079589844-.176010131835938-.315994262695312-.076004028320312-.086006164550781-.1719970703125-.150001525878906-.28900146484375-.192001342773438-.114990234375-.043998718261719-.25299072265625-.066001892089844-.41400146484375-.066001892089844-.169998168945312,0-.317001342773438.036003112792969-.442001342773438.109001159667969s-.228988647460938.180000305175781-.311996459960938.320999145507812c-.08099365234375.139999389648438-.1409912109375.312995910644531-.17999267578125.518997192382812-.03900146484375.2030029296875-.057998657226562.435005187988281-.057998657226562.695999145507812v.773002624511719c0,.55999755859375.077987670898438.9739990234375.233993530273438,1.24200439453125.15899658203125.267997741699219.40899658203125.402999877929688.75.402999877929688.285995483398438,0,.51300048828125-.076004028320312.680007934570312-.227005004882812.166000366210938-.153999328613281.258987426757812-.4010009765625.276992797851562-.741996765136719h1.098007202148438Zm5.034988403320312-3.012001037597656h-1.753997802734375v4.792999267578125h-1.10198974609375v-4.792999267578125h-1.730010986328125v-.895004272460938h4.58599853515625v.895004272460938Zm4.594009399414062,2.366996765136719c0,.365005493164062-.04901123046875.701004028320312-.145004272460938,1.008003234863281s-.235992431640625.571998596191406-.417999267578125.792999267578125-.404998779296875.394996643066406-.667999267578125.519996643066406c-.259994506835938.122001647949219-.555007934570312.183006286621094-.88299560546875.183006286621094-.3280029296875,0-.620010375976562-.061004638671875-.875-.183006286621094-.2550048828125-.125-.470001220703125-.298995971679688-.644012451171875-.519996643066406-.17498779296875-.2239990234375-.307998657226562-.487998962402344-.39898681640625-.792999267578125-.09100341796875-.306999206542969-.136001586914062-.642997741699219-.136001586914062-1.008003234863281v-.827995300292969c0-.363998413085938.044998168945312-.700004577636719.136001586914062-1.008003234863281.090988159179688-.306999206542969.2239990234375-.570999145507812.39898681640625-.792999267578125.17401123046875-.2239990234375.38800048828125-.398002624511719.639999389648438-.523002624511719.256011962890625-.125.547012329101562-.187995910644531.875-.187995910644531.331008911132812,0,.62701416015625.062995910644531.887008666992188.187995910644531.26300048828125.125.485992431640625.299003601074219.667999267578125.523002624511719.1820068359375.222000122070312.322006225585938.486000061035156.417999267578125.792999267578125.095993041992188.307998657226562.145004272460938.644004821777344.145004272460938,1.008003234863281v.827995300292969Zm-1.113998413085938-.83599853515625c0-.230995178222656-.019012451171875-.444999694824219-.057998657226562-.639999389648438-.037002563476562-.195999145507812-.095001220703125-.363998413085938-.176010131835938-.503997802734375-.08099365234375-.140998840332031-.18499755859375-.25-.313003540039062-.3280029296875-.125-.081001281738281-.276992797851562-.121002197265625-.457000732421875-.121002197265625-.176986694335938,0-.324996948242188.040000915527344-.444992065429688.121002197265625-.1199951171875.0780029296875-.21600341796875.187004089355469-.28900146484375.3280029296875-.072998046875.139999389648438-.125.307998657226562-.156005859375.503997802734375-.031997680664062.194999694824219-.0469970703125.409004211425781-.0469970703125.639999389648438v.83599853515625c0,.22900390625.014999389648438.442001342773438.0469970703125.637001037597656.031005859375.194999694824219.0830078125.364997863769531.156005859375.508003234863281.072998046875.142997741699219.16900634765625.254997253417969.28900146484375.33599853515625.1199951171875.080001831054688.270004272460938.121002197265625.449005126953125.121002197265625.176986694335938,0,.327987670898438-.041000366210938.452987670898438-.121002197265625.128005981445312-.081001281738281.231002807617188-.192001342773438.309005737304688-.332000732421875.08099365234375-.143997192382812.141006469726562-.312995910644531.180007934570312-.508003234863281.038986206054688-.194999694824219.057998657226562-.40899658203125.057998657226562-.640998840332031v-.83599853515625Zm4.582000732421875-2.426002502441406h1.10198974609375v5.688003540039062h-1.10198974609375v-3.628997802734375l-1.613006591796875,3.628997802734375h-1.098007202148438v-5.688003540039062h1.098007202148438v3.633003234863281l1.613006591796875-3.633003234863281Zm.495986938476562-1.479995727539062c0,.168998718261719-.030990600585938.323997497558594-.092987060546875.464996337890625-.060012817382812.141006469726562-.149002075195312.262001037597656-.266006469726562.363006591796875-.115005493164062.0989990234375-.253997802734375.176994323730469-.417999267578125.234992980957031-.16400146484375.054000854492188-.348007202148438.082000732421875-.550994873046875.082000732421875-.205001831054688,0-.389999389648438-.027999877929688-.554000854492188-.082000732421875-.165008544921875-.057998657226562-.305007934570312-.135993957519531-.422012329101562-.234992980957031-.114990234375-.101005554199219-.202987670898438-.222000122070312-.2659912109375-.363006591796875-.05999755859375-.140998840332031-.089996337890625-.295997619628906-.089996337890625-.464996337890625h.780990600585938c0,.068000793457031.010009765625.134002685546875.027999877929688.198997497558594.021011352539062.063003540039062.053009033203125.119003295898438.097000122070312.167999267578125.044998168945312.047004699707031.100997924804688.084999084472656.167999267578125.112998962402344.070999145507812.029006958007812.156997680664062.043006896972656.258010864257812.043006896972656.0989990234375,0,.182998657226562-.013999938964844.25-.043006896972656.070999145507812-.027999877929688.126998901367188-.065994262695312.167999267578125-.112998962402344.043991088867188-.048995971679688.07598876953125-.104995727539062.093994140625-.167999267578125.02099609375-.064994812011719.031005859375-.130996704101562.031005859375-.198997497558594h.784988403320312Zm5.5360107421875,1.479995727539062v5.688003540039062h-1.102005004882812v-2.167999267578125c-.0679931640625.017997741699219-.13800048828125.034996032714844-.21099853515625.051002502441406-.072998046875.01300048828125-.14599609375.024993896484375-.218994140625.034996032714844-.07000732421875.008003234863281-.139007568359375.013999938964844-.207000732421875.020004272460938-.06500244140625.004997253417969-.12200927734375.006996154785156-.172012329101562.006996154785156-.280990600585938,0-.535995483398438-.034996032714844-.764999389648438-.105003356933594-.22698974609375-.072998046875-.420989990234375-.18499755859375-.582000732421875-.33599853515625-.15899658203125-.1510009765625-.282989501953125-.343994140625-.370986938476562-.577995300292969-.086013793945312-.23699951171875-.129013061523438-.51800537109375-.129013061523438-.844001770019531v-1.770004272460938h1.097000122070312v1.770004272460938c0,.19000244140625.014999389648438.347999572753906.042999267578125.472999572753906.032012939453125.125.0780029296875.224998474121094.141006469726562.300003051757812.061996459960938.072998046875.141006469726562.125.233993530273438.156997680664062.094009399414062.027999877929688.205001831054688.042999267578125.332000732421875.042999267578125.052001953125,0,.111007690429688-.001998901367188.176010131835938-.003997802734375.06500244140625-.0050048828125.13299560546875-.012001037597656.2030029296875-.020004272460938.072998046875-.009994506835938.14599609375-.021995544433594.218994140625-.034996032714844s.14300537109375-.028999328613281.21099853515625-.047004699707031v-2.637001037597656h1.102005004882812Zm3.5780029296875,0h1.100997924804688v5.688003540039062h-1.100997924804688v-3.628997802734375l-1.614013671875,3.628997802734375h-1.097000122070312v-5.688003540039062h1.097000122070312v3.633003234863281l1.614013671875-3.633003234863281Zm2.163986206054688,5.688003540039062v-5.688003540039062h1.910003662109375c.30999755859375,0,.59100341796875.032005310058594.844009399414062.094001770019531.254989624023438.063003540039062.472000122070312.158004760742188.651992797851562.285003662109375.180007934570312.127998352050781.3179931640625.28900146484375.41400146484375.485000610351562.0989990234375.194999694824219.147994995117188.425994873046875.147994995117188.690994262695312-.001998901367188.266006469726562-.073989868164062.504005432128906-.2139892578125.715003967285156-.13800048828125.21099853515625-.343002319335938.371002197265625-.614013671875.479995727539062.16400146484375.041999816894531.305999755859375.105003356933594.426010131835938.188003540039062.1199951171875.083000183105469.218994140625.181999206542969.2969970703125.2969970703125.08099365234375.11199951171875.139007568359375.236000061035156.175994873046875.371002197265625.03900146484375.133003234863281.057998657226562.271003723144531.057998657226562.41400146484375,0,.273002624511719-.045989990234375.513999938964844-.139999389648438.722999572753906-.093994140625.208000183105469-.227996826171875.383003234863281-.402999877929688.523002624511719-.173995971679688.140998840332031-.386001586914062.245994567871094-.636001586914062.316993713378906-.25.069999694824219-.531997680664062.105003356933594-.843994140625.105003356933594h-2.074005126953125Zm1.10101318359375-2.508003234863281v1.621002197265625h.97698974609375c.29901123046875-.001998901367188.527008056640625-.074996948242188.682998657226562-.218002319335938.159011840820312-.14599609375.238998413085938-.33599853515625.238998413085938-.570999145507812.00201416015625-.259994506835938-.0679931640625-.462997436523438-.21099853515625-.609001159667969-.142990112304688-.14599609375-.364990234375-.219993591308594-.66400146484375-.222999572753906h-1.02398681640625Zm0-.792999267578125h.816986083984375c.304000854492188-.001998901367188.53900146484375-.065994262695312.7030029296875-.190994262695312s.24700927734375-.309005737304688.25-.551002502441406c0-.265998840332031-.082000732421875-.456001281738281-.246002197265625-.569999694824219-.163986206054688-.11700439453125-.4010009765625-.177001953125-.71099853515625-.180000305175781h-.81298828125v1.491996765136719Zm4.58599853515625-.073997497558594h.246002197265625c.23699951171875,0,.446990966796875.040000915527344.628997802734375.121002197265625.182998657226562.077995300292969.334991455078125.189994812011719.457000732421875.33599853515625.125.14599609375.218994140625.321998596191406.281997680664062.527000427246094.06500244140625.202995300292969.097000122070312.430999755859375.097000122070312.683998107910156,0,.25-.035003662109375.480003356933594-.105010986328125.691001892089844-.0679931640625.208999633789062-.169998168945312.38800048828125-.30499267578125.53900146484375s-.302001953125.268997192382812-.5.351997375488281-.425994873046875.125-.684005737304688.125h-1.2139892578125v-5.688003540039062h1.097000122070312v2.313003540039062Zm3.113998413085938,3.375h-1.098007202148438v-5.688003540039062h1.098007202148438v5.688003540039062Zm-3.113998413085938-2.527000427246094v1.682998657226562h.17999267578125c.0780029296875,0,.143997192382812-.021995544433594.199005126953125-.066001892089844.056991577148438-.0469970703125.102996826171875-.109992980957031.136993408203125-.187995910644531.0360107421875-.080001831054688.061996459960938-.173004150390625.0780029296875-.277000427246094.016006469726562-.107002258300781.022994995117188-.220001220703125.022994995117188-.339996337890625,0-.114006042480469-.006988525390625-.221000671386719-.022994995117188-.32000732421875-.016006469726562-.0989990234375-.0419921875-.18499755859375-.0780029296875-.25799560546875-.03399658203125-.072998046875-.0780029296875-.129997253417969-.13299560546875-.1719970703125-.055007934570312-.042007446289062-.121994018554688-.062004089355469-.2030029296875-.062004089355469h-.17999267578125Zm7.42999267578125.035003662109375h-2.33599853515625v1.604995727539062h2.729995727539062v.887001037597656h-3.832000732421875v-5.688003540039062h3.820999145507812v.895004272460938h-2.718994140625v1.433998107910156h2.33599853515625v.86700439453125Zm-43.024002075195312,6.694999694824219h-2.582000732421875v4.7969970703125h-1.097000122070312v-5.688003540039062h3.679000854492188v.891006469726562Zm5.055007934570312,2.370994567871094c0,.365005493164062-.048004150390625.701004028320312-.143997192382812,1.008003234863281-.097000122070312.306999206542969-.236007690429688.571998596191406-.417999267578125.792999267578125-.183013916015625.221000671386719-.405014038085938.394996643066406-.668014526367188.519996643066406-.260986328125.122001647949219-.55499267578125.183006286621094-.88299560546875.183006286621094s-.6199951171875-.061004638671875-.875-.183006286621094c-.254989624023438-.125-.470001220703125-.298995971679688-.645004272460938-.519996643066406-.173995971679688-.2239990234375-.306991577148438-.487998962402344-.397994995117188-.792999267578125-.09100341796875-.306999206542969-.136993408203125-.642997741699219-.136993408203125-1.008003234863281v-.827995300292969c0-.363998413085938.045989990234375-.700004577636719.136993408203125-1.008003234863281.09100341796875-.306999206542969.2239990234375-.570999145507812.397994995117188-.792999267578125.175003051757812-.2239990234375.38800048828125-.398002624511719.641006469726562-.523002624511719.2550048828125-.125.5469970703125-.187995910644531.875-.187995910644531.33099365234375,0,.626007080078125.062995910644531.886993408203125.187995910644531.26300048828125.125.485000610351562.299003601074219.668014526367188.523002624511719.181991577148438.222000122070312.320999145507812.486000061035156.417999267578125.792999267578125.095993041992188.307998657226562.143997192382812.644004821777344.143997192382812,1.008003234863281v.827995300292969Zm-1.113006591796875-.83599853515625c0-.230995178222656-.020004272460938-.444999694824219-.058990478515625-.639999389648438-.0360107421875-.195999145507812-.095001220703125-.363998413085938-.175003051757812-.503997802734375-.081008911132812-.140998840332031-.18499755859375-.25-.313003540039062-.3280029296875-.125-.081001281738281-.276992797851562-.121002197265625-.457000732421875-.121002197265625-.177001953125,0-.326004028320312.040000915527344-.444992065429688.121002197265625-.120010375976562.0780029296875-.21600341796875.187004089355469-.28900146484375.3280029296875-.073013305664062.139999389648438-.125.307998657226562-.157012939453125.503997802734375-.030990600585938.194999694824219-.0469970703125.409004211425781-.0469970703125.639999389648438v.83599853515625c0,.22900390625.016006469726562.442001342773438.0469970703125.637001037597656.032012939453125.194999694824219.083999633789062.364997863769531.157012939453125.508003234863281.072998046875.142997741699219.168991088867188.254997253417969.28900146484375.33599853515625.118988037109375.080001831054688.268997192382812.121002197265625.448989868164062.121002197265625.177001953125,0,.3280029296875-.041000366210938.4530029296875-.121002197265625.128005981445312-.081001281738281.229995727539062-.192001342773438.309005737304688-.332000732421875.080001831054688-.143997192382812.139999389648438-.312995910644531.179000854492188-.508003234863281.038986206054688-.194999694824219.058990478515625-.40899658203125.058990478515625-.640998840332031v-.83599853515625Zm3.11700439453125,1.176002502441406v2.08599853515625h-1.098007202148438v-5.688003540039062h1.945999145507812c.310012817382812,0,.590011596679688.046005249023438.840011596679688.137001037597656.25.089004516601562.461990356445312.214004516601562.636001586914062.375.176986694335938.159004211425781.31298828125.350006103515625.406997680664062.574005126953125.095993041992188.2239990234375.143997192382812.472999572753906.143997192382812.746994018554688,0,.2550048828125-.048004150390625.490005493164062-.143997192382812.707000732421875-.094009399414062.21600341796875-.230010986328125.402999877929688-.406997680664062.562004089355469-.17401123046875.155998229980469-.386001586914062.278999328613281-.636001586914062.366996765136719-.25.089004516601562-.529998779296875.133003234863281-.840011596679688.133003234863281h-.847991943359375Zm0-.890998840332031h.847991943359375c.156005859375,0,.291000366210938-.023002624511719.406005859375-.069999694824219.115005493164062-.047004699707031.210006713867188-.111000061035156.285003662109375-.191001892089844.0780029296875-.081001281738281.136001586914062-.173004150390625.1719970703125-.277999877929688.03900146484375-.106002807617188.059005737304688-.217002868652344.059005737304688-.332000732421875,0-.132003784179688-.020004272460938-.255996704101562-.059005737304688-.371002197265625-.035995483398438-.113998413085938-.093994140625-.214996337890625-.1719970703125-.300994873046875-.074996948242188-.085006713867188-.169998168945312-.152999877929688-.285003662109375-.2030029296875-.115005493164062-.049003601074219-.25-.073997497558594-.406005859375-.073997497558594h-.847991943359375v1.819999694824219Zm7.606002807617188.550994873046875c0,.365005493164062-.04901123046875.701004028320312-.145004272460938,1.008003234863281s-.235992431640625.571998596191406-.417999267578125.792999267578125-.404998779296875.394996643066406-.667999267578125.519996643066406c-.259994506835938.122001647949219-.555007934570312.183006286621094-.88299560546875.183006286621094-.3280029296875,0-.620010375976562-.061004638671875-.875-.183006286621094-.2550048828125-.125-.470001220703125-.298995971679688-.644012451171875-.519996643066406-.17498779296875-.2239990234375-.307998657226562-.487998962402344-.39898681640625-.792999267578125-.09100341796875-.306999206542969-.136001586914062-.642997741699219-.136001586914062-1.008003234863281v-.827995300292969c0-.363998413085938.044998168945312-.700004577636719.136001586914062-1.008003234863281.090988159179688-.306999206542969.2239990234375-.570999145507812.39898681640625-.792999267578125.17401123046875-.2239990234375.38800048828125-.398002624511719.639999389648438-.523002624511719.256011962890625-.125.547012329101562-.187995910644531.875-.187995910644531.331008911132812,0,.62701416015625.062995910644531.887008666992188.187995910644531.26300048828125.125.485992431640625.299003601074219.667999267578125.523002624511719.1820068359375.222000122070312.322006225585938.486000061035156.417999267578125.792999267578125.095993041992188.307998657226562.145004272460938.644004821777344.145004272460938,1.008003234863281v.827995300292969Zm-1.113998413085938-.83599853515625c0-.230995178222656-.019012451171875-.444999694824219-.057998657226562-.639999389648438-.037002563476562-.195999145507812-.095001220703125-.363998413085938-.176010131835938-.503997802734375-.08099365234375-.140998840332031-.18499755859375-.25-.313003540039062-.3280029296875-.125-.081001281738281-.276992797851562-.121002197265625-.457000732421875-.121002197265625-.176986694335938,0-.324996948242188.040000915527344-.444992065429688.121002197265625-.1199951171875.0780029296875-.21600341796875.187004089355469-.28900146484375.3280029296875-.072998046875.139999389648438-.125.307998657226562-.156005859375.503997802734375-.031997680664062.194999694824219-.0469970703125.409004211425781-.0469970703125.639999389648438v.83599853515625c0,.22900390625.014999389648438.442001342773438.0469970703125.637001037597656.031005859375.194999694824219.0830078125.364997863769531.156005859375.508003234863281.072998046875.142997741699219.16900634765625.254997253417969.28900146484375.33599853515625.1199951171875.080001831054688.270004272460938.121002197265625.449005126953125.121002197265625.176986694335938,0,.327987670898438-.041000366210938.452987670898438-.121002197265625.128005981445312-.081001281738281.231002807617188-.192001342773438.309005737304688-.332000732421875.08099365234375-.143997192382812.141006469726562-.312995910644531.180007934570312-.508003234863281.038986206054688-.194999694824219.057998657226562-.40899658203125.057998657226562-.640998840332031v-.83599853515625Zm5.808990478515625,4.660003662109375h-.944992065429688v-1.398002624511719h-2.152999877929688v1.398002624511719h-.926010131835938l-.170989990234375-2.281005859375h.209991455078125c.120010375976562-.061996459960938.2239990234375-.149993896484375.313003540039062-.261993408203125.089004516601562-.112007141113281.162994384765625-.26300048828125.223007202148438-.4530029296875.05999755859375-.192001342773438.107986450195312-.430999755859375.143997192382812-.713996887207031.037002563476562-.287002563476562.063003540039062-.636001586914062.0780029296875-1.047004699707031l.156997680664062-2.329002380371094h2.807998657226562v4.805000305175781h.417999267578125l-.156005859375,2.281005859375Zm-2.125-4.757003784179688c-.01300048828125.304000854492188-.032989501953125.580001831054688-.058990478515625.8280029296875-.02301025390625.247001647949219-.054000854492188.472000122070312-.094009399414062.675994873046875-.03900146484375.200004577636719-.083999633789062.381004333496094-.136001586914062.543006896972656-.052001953125.157997131347656-.110000610351562.301994323730469-.1719970703125.428993225097656h1.229995727539062v-3.913993835449219h-.67498779296875l-.094009399414062,1.437995910644531Zm5.86700439453125,2.170997619628906h-1.707000732421875l-.33599853515625,1.188003540039062h-1.156005859375l1.863006591796875-5.688003540039062h.996002197265625l1.8280029296875,5.688003540039062h-1.156005859375l-.332000732421875-1.188003540039062Zm-1.436996459960938-.932998657226562h1.179000854492188l-.582000732421875-2.093994140625-.597000122070312,2.093994140625Zm10.881988525390625-3.567001342773438h1.102005004882812v5.688003540039062h-1.102005004882812v-3.628997802734375l-1.612991333007812,3.628997802734375h-1.098007202148438v-5.688003540039062h1.098007202148438v3.633003234863281l1.612991333007812-3.633003234863281Zm10.731002807617188,5.688003540039062h-1.08599853515625v-2.464996337890625h-1.610000610351562v2.464996337890625h-1.0889892578125v-5.688003540039062h1.0889892578125v2.333000183105469h1.610000610351562v-2.333000183105469h1.08599853515625v5.688003540039062Zm3.847000122070312-1.188003540039062h-1.707000732421875l-.33599853515625,1.188003540039062h-1.155990600585938l1.863998413085938-5.688003540039062h.996002197265625l1.827987670898438,5.688003540039062h-1.155990600585938l-.3330078125-1.188003540039062Zm-1.436996459960938-.932998657226562h1.180007934570312l-.582000732421875-2.093994140625-.598007202148438,2.093994140625Zm7.393997192382812.340003967285156c-.017990112304688.285995483398438-.080001831054688.543998718261719-.186996459960938.772994995117188-.10400390625.22900390625-.2449951171875.425003051757812-.4219970703125.586006164550781-.177001953125.161994934082031-.38800048828125.286994934082031-.63299560546875.375-.244003295898438.08599853515625-.5150146484375.128997802734375-.81201171875.128997802734375-.33599853515625,0-.634002685546875-.060997009277344-.894989013671875-.183998107910156-.260009765625-.125-.47900390625-.298004150390625-.656005859375-.519004821777344-.177001953125-.2239990234375-.311996459960938-.491996765136719-.406005859375-.805000305175781-.093994140625-.311996459960938-.1409912109375-.655998229980469-.1409912109375-1.030998229980469v-.765998840332031c0-.376998901367188.050003051757812-.722000122070312.149002075195312-1.035003662109375.0989990234375-.311996459960938.238998413085938-.58099365234375.420989990234375-.803993225097656.182998657226562-.224006652832031.402999877929688-.398002624511719.6610107421875-.520004272460938.259994506835938-.125.551986694335938-.187995910644531.875-.187995910644531.311996459960938,0,.5889892578125.044998168945312.832000732421875.13299560546875.243988037109375.089004516601562.452987670898438.215003967285156.625.378997802734375.1719970703125.16400146484375.306991577148438.365005493164062.405990600585938.602005004882812s.160995483398438.503997802734375.186996459960938.800994873046875h-1.092987060546875c-.011001586914062-.169998168945312-.037002563476562-.3179931640625-.0780029296875-.445999145507812-.040008544921875-.126998901367188-.098007202148438-.232994079589844-.176010131835938-.315994262695312-.07598876953125-.086006164550781-.1719970703125-.150001525878906-.28900146484375-.192001342773438-.114990234375-.043998718261719-.25299072265625-.066001892089844-.413986206054688-.066001892089844-.170013427734375,0-.317001342773438.036003112792969-.442001342773438.109001159667969s-.22900390625.180000305175781-.31201171875.320999145507812c-.08099365234375.139999389648438-.1409912109375.312995910644531-.17999267578125.518997192382812-.03900146484375.2030029296875-.059005737304688.435005187988281-.059005737304688.695999145507812v.773002624511719c0,.55999755859375.079010009765625.9739990234375.235000610351562,1.24200439453125.159011840820312.267997741699219.409011840820312.402999877929688.75.402999877929688.2860107421875,0,.51300048828125-.076004028320312.680007934570312-.227005004882812.166000366210938-.153999328613281.259002685546875-.4010009765625.276992797851562-.741996765136719h1.097000122070312Zm4.356002807617188-.71099853515625h-2.33599853515625v1.604995727539062h2.729995727539062v.887001037597656h-3.832000732421875v-5.688003540039062h3.820999145507812v.895004272460938h-2.718994140625v1.433998107910156h2.33599853515625v.86700439453125Zm5.147994995117188.4219970703125h-3.253997802734375v-.878997802734375h3.253997802734375v.878997802734375Zm-62.506988525390625,5.381996154785156v5.688003540039062h-1.102005004882812v-4.7969970703125h-1.175994873046875l-.019012451171875,2.08599853515625c-.00799560546875.496994018554688-.0469970703125.917999267578125-.116989135742188,1.261993408203125-.068008422851562.344009399414062-.167007446289062.623001098632812-.2969970703125.840011596679688-.131011962890625.212997436523438-.293014526367188.367996215820312-.489013671875.4639892578125-.194992065429688.097000122070312-.422988891601562.145004272460938-.682998657226562.145004272460938h-.274002075195312v-.88299560546875h.157012939453125c.126998901367188-.01300048828125.228988647460938-.051010131835938.304000854492188-.113006591796875.077987670898438-.06500244140625.13800048828125-.1669921875.17999267578125-.30499267578125.04400634765625-.139999389648438.074005126953125-.324005126953125.089996337890625-.551010131835938.014999389648438-.228988647460938.0260009765625-.514999389648438.031005859375-.858993530273438l.024002075195312-2.977005004882812h3.371002197265625Zm4.506988525390625,3.195999145507812h-2.33599853515625v1.605010986328125h2.731002807617188v.886993408203125h-3.832000732421875v-5.688003540039062h3.82000732421875v.895004272460938h-2.719009399414062v1.434005737304688h2.33599853515625v.866989135742188Zm5.059005737304688,2.49200439453125h-1.08599853515625v-2.464996337890625h-1.6090087890625v2.464996337890625h-1.089996337890625v-5.688003540039062h1.089996337890625v2.3330078125h1.6090087890625v-2.3330078125h1.08599853515625v5.688003540039062Zm4.80499267578125,0h-1.08599853515625v-2.464996337890625h-1.610000610351562v2.464996337890625h-1.0889892578125v-5.688003540039062h1.0889892578125v2.3330078125h1.610000610351562v-2.3330078125h1.08599853515625v5.688003540039062Zm1.925003051757812-3.375h.24700927734375c.23699951171875,0,.445999145507812.039993286132812.62799072265625.121002197265625.182998657226562.0780029296875.335006713867188.19000244140625.4580078125.33599853515625.123992919921875.14599609375.218002319335938.322006225585938.280990600585938.526992797851562.06500244140625.2030029296875.097000122070312.430999755859375.097000122070312.684005737304688,0,.25-.034988403320312.479995727539062-.104995727539062.690994262695312-.0679931640625.208999633789062-.168991088867188.38800048828125-.30499267578125.53900146484375-.135009765625.1510009765625-.302001953125.269012451171875-.5.352005004882812-.198013305664062.082992553710938-.426010131835938.125-.682998657226562.125h-1.215011596679688v-5.688003540039062h1.097000122070312v2.313003540039062Zm3.113998413085938,3.375h-1.097991943359375v-5.688003540039062h1.097991943359375v5.688003540039062Zm-3.113998413085938-2.526992797851562v1.682998657226562h.180007934570312c.0780029296875,0,.144989013671875-.022003173828125.198989868164062-.066009521484375.058013916015625-.0469970703125.103012084960938-.110000610351562.137008666992188-.188003540039062.037002563476562-.079986572265625.063003540039062-.172988891601562.0780029296875-.276992797851562.0159912109375-.10699462890625.024002075195312-.220001220703125.024002075195312-.339996337890625,0-.113998413085938-.008010864257812-.22100830078125-.024002075195312-.32000732421875-.014999389648438-.0989990234375-.041000366210938-.18499755859375-.0780029296875-.25799560546875-.03399658203125-.072998046875-.0780029296875-.1300048828125-.13299560546875-.1719970703125-.054000854492188-.042007446289062-.12200927734375-.061996459960938-.2030029296875-.061996459960938h-.180007934570312Zm7.430007934570312.034988403320312h-2.33599853515625v1.605010986328125h2.730987548828125v.886993408203125h-3.831985473632812v-5.688003540039062h3.819992065429688v.895004272460938h-2.718994140625v1.434005737304688h2.33599853515625v.866989135742188Zm9.875,2.49200439453125h-1.098007202148438v-4.7969970703125h-1.608993530273438v4.7969970703125h-1.098007202148438v-5.688003540039062h3.805007934570312v5.688003540039062Zm2.606002807617188-3.733993530273438l.370986938476562,1.04998779296875,1.18701171875-3.003997802734375h1.195999145507812l-2.024002075195312,4.610000610351562c-.068008422851562.154006958007812-.147003173828125.301010131835938-.238006591796875.441009521484375-.0889892578125.1409912109375-.196990966796875.264999389648438-.323989868164062.370986938476562-.125.107009887695312-.27301025390625.192001342773438-.442001342773438.254013061523438-.16900634765625.06298828125-.368011474609375.093994140625-.597000122070312.093994140625-.18499755859375,0-.3489990234375-.016006469726562-.493011474609375-.0469970703125-.139999389648438-.027999877929688-.254989624023438-.055007934570312-.342987060546875-.0780029296875l.069992065429688-.858993530273438c.03399658203125.009994506835938.074005126953125.021987915039062.121002197265625.034988403320312.048995971679688.010009765625.100006103515625.021011352539062.151992797851562.031005859375.052001953125.009994506835938.106002807617188.020004272460938.160003662109375.026992797851562.055007934570312.006011962890625.107009887695312.008010864257812.156997680664062.008010864257812.125,0,.2340087890625-.01300048828125.3280029296875-.03900146484375.094009399414062-.0260009765625.173995971679688-.061996459960938.24200439453125-.1090087890625.0679931640625-.0469970703125.123992919921875-.102996826171875.167999267578125-.167999267578125.0469970703125-.0679931640625.085006713867188-.142990112304688.113006591796875-.22698974609375l.1099853515625-.24200439453125-1.9849853515625-4.102005004882812h1.18798828125l.883010864257812,1.954010009765625Zm6.991989135742188,3.733993530273438h-1.08599853515625v-2.464996337890625h-1.610000610351562v2.464996337890625h-1.0889892578125v-5.688003540039062h1.0889892578125v2.3330078125h1.610000610351562v-2.3330078125h1.08599853515625v5.688003540039062Zm2.682998657226562-2.33599853515625h-.457000732421875v2.33599853515625h-1.097000122070312v-5.688003540039062h1.097000122070312v2.503997802734375h.270004272460938l1.488006591796875-2.503997802734375h1.269989013671875l-1.695999145507812,2.738998413085938,1.762008666992188,2.949005126953125h-1.27301025390625l-1.363998413085938-2.33599853515625Zm7.352005004882812-2.457000732421875h-1.753997802734375v4.792999267578125h-1.100997924804688v-4.792999267578125h-1.731002807617188v-.895004272460938h4.58599853515625v.895004272460938Zm1.5,1.417999267578125h.246002197265625c.23699951171875,0,.446990966796875.039993286132812.628997802734375.121002197265625.1820068359375.0780029296875.335006713867188.19000244140625.457000732421875.33599853515625.125.14599609375.218994140625.322006225585938.281005859375.526992797851562.064987182617188.2030029296875.097991943359375.430999755859375.097991943359375.684005737304688,0,.25-.035003662109375.479995727539062-.106002807617188.690994262695312-.067001342773438.208999633789062-.168991088867188.38800048828125-.304000854492188.53900146484375-.136001586914062.1510009765625-.301986694335938.269012451171875-.5.352005004882812-.197998046875.082992553710938-.425994873046875.125-.683990478515625.125h-1.214996337890625v-5.688003540039062h1.097991943359375v2.313003540039062Zm3.113006591796875,3.375h-1.097000122070312v-5.688003540039062h1.097000122070312v5.688003540039062Zm-3.113006591796875-2.526992797851562v1.682998657226562h.180007934570312c.077987670898438,0,.143997192382812-.022003173828125.198989868164062-.066009521484375.0570068359375-.0469970703125.102996826171875-.110000610351562.137008666992188-.188003540039062.035995483398438-.079986572265625.061996459960938-.172988891601562.077987670898438-.276992797851562.014999389648438-.10699462890625.02301025390625-.220001220703125.02301025390625-.339996337890625,0-.113998413085938-.008010864257812-.22100830078125-.02301025390625-.32000732421875-.0159912109375-.0989990234375-.0419921875-.18499755859375-.077987670898438-.25799560546875-.034011840820312-.072998046875-.079010009765625-.1300048828125-.133010864257812-.1719970703125-.05499267578125-.042007446289062-.123001098632812-.061996459960938-.202987670898438-.061996459960938h-.180007934570312Z" fill="#fff"/>
    </g>
  </g>
</svg>