<?xml version="1.0" encoding="UTF-8"?>
<svg id="uuid-d51e0d7a-06c1-461b-a2f1-465e97dc257e" data-name="Layer 1" xmlns="http://www.w3.org/2000/svg" width="101" height="101" viewBox="0 0 101 101">
  <path d="m101.284962295745572,0H.2273641817319v101h101.057598114013672V0Z" fill="#566e78"/>
  <path d="m67.362941559675164,44.751007080078125s-.883205412228563,1.414993286132812-.706366951662858,2.65399169921875c.353676921135047,1.238006591796875,1.766472505119964,2.121994018554688,1.766472505119964,2.121994018554688,0,0,.883267092891401-1.414993286132812.707415522931115-2.652999877929688-.353738601797886-1.414993286132812-1.767521076388221-2.12298583984375-1.767521076388221-2.12298583984375Z" fill="#fff" fill-rule="evenodd"/>
  <path d="m65.597455945162437,52.17999267578125s.883267092889582-1.237991333007812.706428632323878-2.475997924804688c-.353738601797886-1.237991333007812-1.766472505119964-1.945999145507812-1.766472505119964-1.945999145507812,0,0-1.060105553457106,1.238006591796875-.706428632323878,2.477005004882812.35269003052781,1.238006591796875,1.766472505119964,1.944992065429688,1.766472505119964,1.944992065429688Z" fill="#fff" fill-rule="evenodd"/>
  <path d="m69.836829587724424,50.764999389648438s1.060105553457106,1.061996459960938,2.120211106916031.884994506835938c1.23694401402463-.176986694335938,2.120211106916031-1.414993286132812,2.120211106916031-1.414993286132812,0,0-1.060105553458925-1.061996459960938-2.120211106916031-1.061996459960938-1.23694401402463.353988647460938-2.120211106916031,1.591995239257812-2.120211106916031,1.591995239257812Z" fill="#fff" fill-rule="evenodd"/>
  <path d="m71.426463632276864,45.104995727539062c-.883205412228563,1.061004638671875-.883205412228563,2.830001831054688-.883205412228563,2.830001831054688,0,0,1.590620935157858.177001953125,2.649739598009546-.884002685546875.884253983498638-1.060989379882812.884253983498638-2.830001831054688.884253983498638-2.830001831054688,0,0-1.767521076388221,0-2.650788169279622.884002685546875Z" fill="#fff" fill-rule="evenodd"/>
  <path d="m69.307301096629089,54.656997680664062c1.235957123419212.177001953125,2.472901137443841-.884994506835938,2.472901137443841-.884994506835938,0,0-.883267092891401-1.238006591796875-2.120211106916031-1.415008544921875-1.235957123417393-.177001953125-2.472901137443841.885009765625-2.472901137443841.885009765625,0,0,.883267092891401,1.237991333007812,2.120211106916031,1.414993286132812Z" fill="#fff" fill-rule="evenodd"/>
  <path d="m70.366419759480777,73.582992553710938h-8.833472777527277c-.706366951661039,0-1.23694401402463.531005859375-1.23694401402463,1.238006591796875,0,.7080078125.530577062363591,1.238006591796875,1.23694401402463,1.238006591796875h8.833472777527277c.707353842268276,0,1.23694401402463-.529998779296875,1.23694401402463-1.238006591796875.176838460567524-.707000732421875-.529590171756354-1.238006591796875-1.23694401402463-1.238006591796875Z" fill="#fff" fill-rule="evenodd"/>
  <path d="m70.366419759480777,87.3800048828125h-8.833472777527277c-.706366951661039,0-1.23694401402463.530990600585938-1.23694401402463,1.237991333007812,0,.7080078125.530577062363591,1.238006591796875,1.23694401402463,1.238006591796875h8.833472777527277c.707353842268276,0,1.23694401402463-.529998779296875,1.23694401402463-1.238006591796875.176838460567524-.707000732421875-.529590171756354-1.237991333007812-1.23694401402463-1.237991333007812Z" fill="#fff" fill-rule="evenodd"/>
  <path d="m30.79124290625623,70.576004028320312c-.176900141230362,0-.35269003052781-.177001953125-.35269003052781-.177001953125,0,0,.175789889297448.177001953125.35269003052781.177001953125Z" fill="#fff" fill-rule="evenodd"/>
  <path d="m70.189519618252234,77.121002197265625h-8.127044145205218c-.35269003052781,0-.706366951661039.35400390625-.706366951661039.707000732421875v2.47698974609375l-5.300466086626329.530014038085938-7.773367224070171-.176010131835938v-4.7760009765625c1.060105553457106-.177001953125,2.120211106916031-.353988647460938,3.180254979710298-.707992553710938,7.42067719354236-2.12200927734375,9.187149698662324-6.72100830078125,9.010311238094801-11.14300537109375-.176838460565705-4.423004150390625,1.23694401402463-6.013992309570312,3.180316660374956-6.899002075195312.529528491093515-.177001953125,1.060043872794267-.353988647460938,1.58963404455244-.353988647460938,0,1.061996459960938.176838460565705,2.29998779296875.707353842266457,3.891998291015625h.529590171758173c-.529590171758173-1.592010498046875-.706428632323878-2.830001831054688-.706428632323878-3.891998291015625,1.060105553457106-.177001953125,1.766472505118145,0,1.766472505118145,0,0,0-.706366951661039-.353012084960938-1.766472505118145-1.238006591796875.352690030525991-2.121994018554688,1.58963404455244-3.361007690429688,2.82657805857707-4.5989990234375.706428632323878-.707000732421875,1.412795583984916-1.415008544921875,1.943372646348507-2.298995971679688l-.353738601796067-.35400390625c-.529528491095334.884002685546875-1.235895442756373,1.591995239257812-1.943310965687488,2.298995971679688-1.23694401402463,1.238998413085938-2.472901137442022,2.654006958007812-3.003416519142775,4.5989990234375-.35269003052781-.352996826171875-.883267092891401-.707000732421875-1.236944014026449-1.237991333007812-1.943372646348507-2.12200927734375-4.239373642561986-.529998779296875-7.596528763502647,2.652999877929688-3.357155120940661,3.183990478515625-7.596467082839808,3.360992431640625-11.83688929667187-1.061004638671875-5.477304547193853-5.660003662109375-10.247193571456592-5.660003662109375-13.604348692399071-5.305999755859375,2.297049567483555,1.061004638671875,3.003416519144594,3.007003784179688,4.240360533169223,8.490005493164062,1.23694401402463,5.659988403320312,4.240360533169223,8.136993408203125,8.303882605770923,8.489990234375-1.943310965685669.35400390625-2.473888028049259.531005859375-5.477304547193853,2.654006958007812-2.472839456779184,1.591995239257812-5.829994577719845,1.060989379882812-7.066938591746293.884002685546875,2.473888028051078.707992553710938,5.477304547193853,3.360992431640625,8.127044145205218,4.4219970703125,1.590620935157858.530990600585938,3.180254979710298.884994506835938,4.946789165493101,1.060989379882812v4.599014282226562l-14.840305815816464-.353012084960938v3.184005737304688l26.854033573055858-.531005859375,5.300466086626329.531005859375v2.475997924804688c0,.35400390625.353676921133228.707000732421875.706366951661039.707000732421875h8.127044145205218c.353738601796067,0,.707415522929296-.352996826171875.707415522929296-.707000732421875v-8.136993408203125c0-.707000732421875-.353676921133228-.884002685546875-.707415522929296-.884002685546875Zm-25.087499387274875-1.061004638671875h1.766472505119964v4.5989990234375h-1.766472505119964v-4.5989990234375Z" fill="#fff" fill-rule="evenodd"/>
  <path d="m28.318341768812388,82.781005859375c0,.707992553710938-.35269003052781,1.237991333007812-.883267092891401,1.237991333007812h-.529528491093515c-.530515381700752,0-1.060105553458925-.529998779296875-1.060105553458925-1.237991333007812v-2.29901123046875c0-.707992553710938.35269003052781-1.238998413085938,1.060105553458925-1.238998413085938h.529528491093515c.530577062363591,0,.883267092891401.531005859375.883267092891401,1.238998413085938v2.29901123046875Z" fill="#fff" fill-rule="evenodd"/>
  <path d="m8.177569866369595,12.205001831054688v3.537994384765625l2.297049567481736-2.476997375488281v15.566001892089844h3.357093440277822V8.489997863769531h-2.650726488616783l-3.003416519142775,3.715003967285156Z" fill="#fff" fill-rule="evenodd"/>
  <path d="m25.845440631368547,23.878997802734375v-3.006996154785156c0-3.361000061035156-1.23694401402463-5.1300048828125-3.710832042073889-5.1300048828125-1.412733903322078,0-2.296000996213479.708000183105469-2.82657805857707,1.592002868652344v-4.4219970703125c0-1.237998962402344.353738601796067-2.122001647949219,1.590682615820697-2.122001647949219,1.235895442756373,0,1.58963404455244.707000732421875,1.58963404455244,1.944999694824219v1.592002868652344h3.180254979712117v-1.061004638671875c0-3.006996154785156-1.060105553458925-5.128997802734375-4.769889024264558-5.128997802734375-3.533993581506365,0-4.946789165493101,2.298995971679688-4.946789165493101,5.483001708984375v9.904998779296875c0,3.183998107910156,1.412795583986735,5.484001159667969,4.946789165493101,5.484001159667969,3.532945010239928,0,4.946727484830262-1.945999145507812,4.946727484830262-5.1300048828125Zm-3.357093440277822.35400390625c0,1.237991333007812-.529528491093515,2.121994018554688-1.58963404455244,2.121994018554688-1.060105553457106,0-1.590682615820697-.884002685546875-1.590682615820697-2.121994018554688v-3.715003967285156c0-1.060997009277344.530577062363591-1.944999694824219,1.590682615820697-1.944999694824219,1.235895442756373,0,1.58963404455244.707000732421875,1.58963404455244,2.122001647949219v3.538002014160156Z" fill="#fff" fill-rule="evenodd"/>
  <path d="m32.206012271453801,8.313003540039062h2.119224216310613c1.413782474590334,0,1.944297856291087.708000183105469,1.944297856291087,1.945999145507812v1.768997192382812c0,1.237998962402344-.530515381700752,1.945999145507812-1.944297856291087,1.945999145507812h-.706428632325697v2.830001831054688h-1.412795583984916v-8.490997314453125Zm1.412795583984916,1.061996459960938v3.360000610351562h.530577062363591c.529528491095334,0,.706366951662858-.176002502441406.706366951662858-.707000732421875v-1.945999145507812c0-.529998779296875-.176838460567524-.707000732421875-.706366951662858-.707000732421875h-.530577062363591Z" fill="#fff" fill-rule="evenodd"/>
  <path d="m36.974914405111122,8.313003540039062h3.357155120940661v1.061996459960938h-1.943310965685669v2.475997924804688h1.412733903322078v1.061004638671875h-1.412733903322078v2.653999328613281h1.943310965685669v1.237998962402344h-3.357155120940661v-8.490997314453125Z" fill="#fff" fill-rule="evenodd"/>
  <path d="m41.039485048982897,16.804000854492188l1.58963404455244-8.490997314453125h1.590620935157858l1.58963404455244,8.490997314453125h-1.413782474592153l-.175851569960287-1.592002868652344h-1.590620935157858l-.176838460567524,1.592002868652344h-1.412795583984916Zm1.766472505118145-2.830001831054688h1.23694401402463l-.530577062363591-3.361000061035156-.706366951661039,3.361000061035156Z" fill="#fff" fill-rule="evenodd"/>
  <path d="m46.339951135609226,14.680999755859375v-4.068000793457031c0-1.415000915527344.529528491093515-2.299995422363281,2.120211106916031-2.299995422363281,1.58963404455244,0,1.943310965685669.884994506835938,1.943310965685669,2.122993469238281v1.061004638671875h-1.23694401402463v-1.061004638671875c0-.530998229980469-.176838460567524-.883995056152344-.706366951661039-.883995056152344-.530577062363591,0-.707415522931115.352996826171875-.707415522931115.883995056152344v4.599006652832031c0,.530998229980469.176838460567524.883995056152344.707415522931115.883995056152344.529528491093515,0,.706366951661039-.352996826171875.706366951661039-.883995056152344v-1.592002868652344h1.23694401402463v1.415000915527344c0,1.237998962402344-.530577062363591,2.123001098632812-1.943310965685669,2.123001098632812-1.590682615822516,0-2.120211106916031-1.062004089355469-2.120211106916031-2.300003051757812Z" fill="#fff" fill-rule="evenodd"/>
  <path d="m51.109840159871965,8.313003540039062h3.356168230335243v1.061996459960938h-1.943372646348507v2.475997924804688h1.413782474590334v1.061004638671875h-1.413782474590334v2.653999328613281h1.943372646348507v1.237998962402344h-3.356168230335243v-8.490997314453125Z" fill="#fff" fill-rule="evenodd"/>
  <path d="m56.938847846986391,15.566001892089844l-.706366951661039,1.767997741699219h-.883267092889582l.176838460565705-1.944999694824219h1.412795583984916v.177001953125Z" fill="#fff" fill-rule="evenodd"/>
  <path d="m62.76989099597813,8.313003540039062v6.722000122070312c0,1.237998962402344-.529528491093515,2.122993469238281-1.943310965685669,2.122993469238281-1.413844155254992,0-1.943372646350326-.884994506835938-1.943372646350326-1.945999145507812v-1.768997192382812h1.413782474592153v1.768997192382812c0,.35400390625.175851569960287.707000732421875.529590171758173.707000732421875.353676921133228,0,.530515381700752-.177001953125.530515381700752-.707000732421875v-6.898994445800781h1.412795583984916Z" fill="#fff" fill-rule="evenodd"/>
  <path d="m67.717667052078468,8.313003540039062v6.544998168945312c0,1.415000915527344-.53057706236541,2.123001098632812-1.943310965687488,2.123001098632812-1.413844155254992,0-2.120211106916031-.885002136230469-2.120211106916031-2.123001098632812v-6.544998168945312h1.412795583986735v6.722000122070312c0,.530998229980469.176838460565705.883995056152344.707415522929296.883995056152344.529528491095334,0,.706366951661039-.352996826171875.706366951661039-.883995056152344v-6.722000122070312h1.236944014026449Z" fill="#fff" fill-rule="evenodd"/>
  <path d="m68.599885573699794,15.035003662109375v-1.061004638671875h1.23694401402463v1.237998962402344c0,.529998779296875.176900141230362.707000732421875.706428632323878.707000732421875.353676921133228,0,.707415522931115-.352996826171875.707415522931115-.707000732421875v-.353996276855469c0-.530998229980469-.176900141230362-.707000732421875-.707415522931115-1.237998962402344l-.883267092891401-.885002136230469c-.883267092891401-.707000732421875-1.23694401402463-1.237998962402344-1.23694401402463-2.299003601074219v-.353996276855469c0-1.060997009277344.530577062363591-1.944999694824219,1.944359536955744-1.944999694824219,1.412795583984916,0,1.943310965685669.707000732421875,1.943310965685669,1.944999694824219v.708000183105469h-1.23694401402463v-.708000183105469c0-.529998779296875-.176838460567524-.707000732421875-.706366951661039-.707000732421875-.353676921133228,0-.707415522931115.177001953125-.707415522931115.707000732421875v.177001953125c0,.530998229980469.176838460567524.708000183105469.707415522931115,1.060997009277344l.883267092891401.885002136230469c.706366951661039.883995056152344,1.060043872794267,1.237998962402344,1.060043872794267,2.122001647949219v.353996276855469c0,1.237998962402344-.530515381700752,1.945999145507812-2.120149426253192,1.945999145507812-1.590682615820697,0-1.590682615820697-.530998229980469-1.590682615820697-1.591995239257812Z" fill="#fff" fill-rule="evenodd"/>
  <path d="m73.016097676829304,8.313003540039062h3.710832042073889v1.061996459960938h-1.060043872794267v7.429000854492188h-1.413844155254992v-7.429000854492188h-1.23694401402463v-1.061996459960938Z" fill="#fff" fill-rule="evenodd"/>
  <path d="m78.847140825819224,8.313003540039062h-1.413782474592153v8.490997314453125h1.413782474592153v-8.490997314453125Z" fill="#fff"/>
  <path d="m79.730407918710625,14.680999755859375v-4.068000793457031c0-1.415000915527344.529528491093515-2.299995422363281,2.120149426253192-2.299995422363281,1.58963404455244,0,1.943372646348507.884994506835938,1.943372646348507,2.122993469238281v1.061004638671875h-1.23694401402463v-1.061004638671875c0-.530998229980469-.176838460567524-.883995056152344-.706428632323878-.883995056152344-.530515381700752,0-.707415522931115.352996826171875-.707415522931115.883995056152344v4.599006652832031c0,.530998229980469.176900141230362.883995056152344.707415522931115.883995056152344.529590171756354,0,.706428632323878-.352996826171875.706428632323878-.883995056152344v-1.592002868652344h1.23694401402463v1.415000915527344c0,1.237998962402344-.530577062363591,2.123001098632812-1.943372646348507,2.123001098632812-1.413782474592153,0-2.120149426253192-1.062004089355469-2.120149426253192-2.300003051757812Z" fill="#fff" fill-rule="evenodd"/>
  <path d="m84.677135403540888,8.313003540039062h3.357155120940661v1.061996459960938h-1.943310965685669v2.475997924804688h1.413782474592153v1.061004638671875h-1.413782474592153v2.653999328613281h1.943310965685669v1.237998962402344h-3.357155120940661v-8.490997314453125Z" fill="#fff" fill-rule="evenodd"/>
  <path d="m31.852335350320573,28.832000732421875l1.58963404455244-8.667999267578125h1.590620935157858l1.58963404455244,8.667999267578125h-1.412733903322078l-.353738601796067-1.591995239257812h-1.58963404455244l-.176838460567524,1.591995239257812h-1.23694401402463Zm1.766472505118145-2.830001831054688h1.236944014026449l-.530515381700752-3.538002014160156-.706428632325697,3.538002014160156Z" fill="#fff" fill-rule="evenodd"/>
  <path d="m38.565597020931818,23.347999572753906v5.484001159667969h-1.23694401402463v-8.667999267578125h1.412795583984916l1.590620935159677,4.9530029296875v-4.9530029296875h1.23694401402463v8.667999267578125h-1.23694401402463l-1.766472505119964-5.484001159667969Z" fill="#fff" fill-rule="evenodd"/>
  <path d="m46.692641166137037,22.463996887207031v4.068000793457031c0,1.415008544921875-.529528491095334,2.300003051757812-2.120211106916031,2.300003051757812h-2.120149426253192v-8.667999267578125h2.120149426253192c1.590682615820697,0,2.120211106916031.885002136230469,2.120211106916031,2.299995422363281Zm-2.297049567483555,5.129997253417969c.530577062363591,0,.883267092891401-.353988647460938.883267092891401-.884994506835938v-4.5989990234375c0-.529998779296875-.175851569960287-.884002685546875-.883267092891401-.884002685546875h-.529528491093515v6.367996215820312h.529528491093515Z" fill="#fff" fill-rule="evenodd"/>
  <path d="m48.635952131822705,26.886001586914062v-1.061004638671875h1.413844155254992v1.238006591796875c0,.530990600585938.176838460567524.707992553710938.706366951661039.707992553710938.530577062363591,0,.707415522931115-.353988647460938.707415522931115-.707992553710938v-.35400390625c0-.529998779296875-.176838460567524-.707000732421875-.707415522931115-1.238006591796875l-.883267092891401-.883995056152344c-.883205412228563-.708000183105469-1.23694401402463-1.237998962402344-1.23694401402463-2.299995422363281v-.353004455566406c0-1.061996459960938.707415522931115-1.945999145507812,2.120211106916031-1.945999145507812,1.413782474592153,0,2.120211106916031.707000732421875,2.120211106916031,1.945999145507812v.707000732421875h-1.412795583984916v-.707000732421875c0-.530998229980469-.176838460567524-.708000183105469-.707415522931115-.708000183105469-.35269003052781,0-.706366951661039.177001953125-.706366951661039.708000183105469v.176002502441406c0,.530998229980469.353676921133228.708000183105469.706366951661039,1.061996459960938l.883267092891401.884002685546875c.884253983496819.885002136230469,1.23694401402463,1.238006591796875,1.23694401402463,2.123001098632812v.352996826171875c0,1.238998413085938-.706428632323878,1.945999145507812-2.120211106916031,1.945999145507812-1.58963404455244.35400390625-2.120211106916031-.529998779296875-2.120211106916031-1.591995239257812Z" fill="#fff" fill-rule="evenodd"/>
  <path d="m53.229064376182578,20.16400146484375h3.886683612034176v1.061996459960938h-1.235957123417393v7.606002807617188h-1.413782474592153v-7.606002807617188h-1.23694401402463v-1.061996459960938Z" fill="#fff" fill-rule="evenodd"/>
  <path d="m59.060045844509659,24.76300048828125v4.069000244140625h-1.413782474592153v-8.667999267578125h2.120211106916031c1.413782474592153,0,1.943310965685669.708000183105469,1.943310965685669,1.945999145507812v1.060997009277344c0,.885002136230469-.352690030525991,1.592002868652344-1.060105553457106,1.769004821777344l1.413844155254992,3.891998291015625h-1.413844155254992l-1.58963404455244-4.069000244140625Zm0-3.360000610351562v2.652999877929688h.529590171758173c.530515381700752,0,.707353842266457-.353996276855469.707353842266457-.708000183105469v-1.237998962402344c0-.529998779296875-.176838460565705-.707000732421875-.707353842266457-.707000732421875h-.529590171758173Z" fill="#fff" fill-rule="evenodd"/>
  <path d="m62.593052535410607,26.531997680664062v-4.068000793457031c0-1.414993286132812.706366951661039-2.299995422363281,2.120149426253192-2.299995422363281,1.412795583984916,0,2.120211106916031,1.061996459960938,2.120211106916031,2.299995422363281v4.068000793457031c0,1.415008544921875-.707415522931115,2.300003051757812-2.120211106916031,2.300003051757812-1.413782474592153,0-2.120149426253192-1.061996459960938-2.120149426253192-2.300003051757812Zm2.82657805857707.177001953125v-4.5989990234375c0-.529998779296875-.176838460565705-.884002685546875-.706428632323878-.884002685546875-.530515381700752,0-.706366951661039.35400390625-.706366951661039.884002685546875v4.5989990234375c0,.531005859375.175851569960287.884994506835938.706366951661039.884994506835938.529590171758173,0,.706428632323878-.353988647460938.706428632323878-.884994506835938Z" fill="#fff" fill-rule="evenodd"/>
  <path d="m68.776724034265499,23.347999572753906v5.484001159667969h-1.060043872794267v-8.667999267578125h1.413782474592153l1.412795583984916,4.9530029296875v-4.9530029296875h1.23694401402463v8.667999267578125h-1.23694401402463l-1.766534185782803-5.484001159667969Z" fill="#fff" fill-rule="evenodd"/>
  <path d="m74.784605643822943,24.233001708984375h2.119224216310613v4.5989990234375h-1.059118662851688v-.884994506835938c-.176838460567524.707992553710938-.530515381700752,1.061996459960938-1.413782474592153,1.061996459960938-1.23694401402463,0-1.766472505118145-.885009765625-1.766472505118145-2.300003051757812v-4.068000793457031c0-1.415000915527344.706366951661039-2.299995422363281,2.120149426251373-2.299995422363281,1.58963404455244,0,2.119224216310613.884994506835938,2.119224216310613,2.122993469238281v.708000183105469h-1.412795583984916v-.884994506835938c0-.529998779296875-.176838460567524-.884002685546875-.706428632325697-.884002685546875-.530515381700752,0-.707353842266457.35400390625-.707353842266457.884002685546875v4.4219970703125c0,.531005859375.176838460565705.884994506835938.707353842266457.884994506835938.529590171758173,0,.706428632325697-.176986694335938.706428632325697-.884994506835938v-1.591995239257812h-.706428632325697v-.884002685546875Z" fill="#fff" fill-rule="evenodd"/>
  <path d="m33.441969394873013,32.1929931640625h-1.235957123419212v8.490005493164062h1.235957123419212v-8.490005493164062Z" fill="#fff"/>
  <path d="m35.562180501789044,35.376007080078125v5.306991577148438h-1.23694401402463v-8.490005493164062h1.590620935157858l1.412795583984916,4.952011108398438v-4.952011108398438h1.23694401402463v8.490005493164062h-1.23694401402463l-1.766472505118145-5.306991577148438Z" fill="#fff" fill-rule="evenodd"/>
  <path d="m39.273012543862933,38.73699951171875v-1.061004638671875h1.412733903322078v1.238006591796875c0,.531005859375.176900141230362.707992553710938.707415522931115.707992553710938.529528491093515,0,.706428632323878-.353988647460938.706428632323878-.707992553710938v-.35400390625c0-.529998779296875-.176900141230362-.707000732421875-.706428632323878-1.237991333007812l-.884253983496819-.884002685546875c-.883205412228563-.7080078125-1.235895442756373-1.238006591796875-1.235895442756373-2.300003051757812v-.352996826171875c0-1.061996459960938.706366951661039-1.945999145507812,2.120149426253192-1.945999145507812,1.412795583984916,0,2.120211106916031.707000732421875,2.120211106916031,1.945999145507812v.707000732421875h-1.413782474592153v-.707000732421875c0-.531005859375-.176900141230362-.7080078125-.706428632323878-.7080078125-.353676921133228,0-.707415522931115.177001953125-.707415522931115.7080078125v.175994873046875c0,.531005859375.353738601797886.7080078125.707415522931115,1.061996459960938l.883267092891401.884002685546875c.883205412228563.885009765625,1.23694401402463,1.238006591796875,1.23694401402463,2.123001098632812v.35400390625c0,1.237991333007812-.707415522931115,1.944992065429688-2.120211106916031,1.944992065429688-1.590620935157858.35400390625-2.120149426253192-.353988647460938-2.120149426253192-1.591995239257812Z" fill="#fff" fill-rule="evenodd"/>
  <path d="m43.866063107559967,32.1929931640625h3.709845151468471v1.238006591796875h-1.060105553458925v7.251998901367188h-1.413782474592153v-7.251998901367188h-1.235957123417393v-1.238006591796875Z" fill="#fff" fill-rule="evenodd"/>
  <path d="m49.69605768528163,32.1929931640625h-1.235895442756373v8.490005493164062h1.235895442756373v-8.490005493164062Z" fill="#fff"/>
  <path d="m50.226634747645221,32.1929931640625h3.886683612034176v1.238006591796875h-1.23694401402463v7.251998901367188h-1.413844155254992v-7.251998901367188h-1.235895442754554v-1.238006591796875Z" fill="#fff" fill-rule="evenodd"/>
  <path d="m59.059058953902422,32.1929931640625v6.36700439453125c0,1.238998413085938-.529528491093515,2.123001098632812-1.943310965685669,2.123001098632812-1.412795583984916,0-2.120211106916031-.884002685546875-2.120211106916031-2.123001098632812v-6.36700439453125h1.413782474592153v6.54400634765625c0,.531005859375.176838460567524.884994506835938.706428632323878.884994506835938.530515381700752,0,.707353842268276-.353988647460938.707353842268276-.884994506835938v-6.54400634765625h1.235957123417393Z" fill="#fff" fill-rule="evenodd"/>
  <path d="m59.589636016267832,32.1929931640625h3.886621931371337v1.238006591796875h-1.235895442754554v7.251998901367188h-1.413782474592153v-7.251998901367188h-1.23694401402463v-1.238006591796875Z" fill="#fff" fill-rule="evenodd"/>
  <path d="m65.419630593987677,32.1929931640625h-1.413782474592153v8.490005493164062h1.413782474592153v-8.490005493164062Z" fill="#fff"/>
  <path d="m66.48072303805202,38.384002685546875v-4.069000244140625c0-1.415008544921875.706366951661039-2.298995971679688,2.119162535647774-2.298995971679688,1.413844155254992,0,2.120211106916031,1.060989379882812,2.120211106916031,2.298995971679688v4.069000244140625c0,1.414993286132812-.706366951661039,2.298995971679688-2.120211106916031,2.298995971679688-1.58963404455244,0-2.119162535647774-.884002685546875-2.119162535647774-2.298995971679688Zm2.82657805857707.175994873046875v-4.5989990234375c0-.529998779296875-.176838460565705-.884002685546875-.707415522929296-.884002685546875-.529528491095334,0-.706366951661039.35400390625-.706366951661039.884002685546875v4.5989990234375c0,.531005859375.176838460565705.885009765625.706366951661039.885009765625.353738601796067,0,.707415522929296-.35400390625.707415522929296-.885009765625Z" fill="#fff" fill-rule="evenodd"/>
  <path d="m72.664456217571569,35.376007080078125v5.306991577148438h-1.236944014026449v-8.490005493164062h1.590620935159677l1.412795583984916,4.952011108398438v-4.952011108398438h1.23694401402463v8.490005493164062h-1.23694401402463l-1.766472505118145-5.306991577148438Z" fill="#fff" fill-rule="evenodd"/>
  <path d="m76.374239688375383,38.73699951171875v-1.061004638671875h1.412795583986735v1.238006591796875c0,.531005859375.176838460565705.707992553710938.706428632323878.707992553710938.530515381700752,0,.707353842266457-.353988647460938.707353842266457-.707992553710938v-.35400390625c0-.529998779296875-.176838460565705-.707000732421875-.707353842266457-1.237991333007812l-.883267092891401-.884002685546875c-.883267092891401-.7080078125-1.235957123419212-1.238006591796875-1.235957123419212-2.300003051757812v-.352996826171875c0-1.061996459960938.706428632323878-1.945999145507812,2.119224216310613-1.945999145507812,1.413782474592153,0,2.120149426253192.707000732421875,2.120149426253192,1.945999145507812v.707000732421875h-1.412795583986735v-.707000732421875c0-.531005859375-.176838460565705-.7080078125-.707353842266457-.7080078125-.35269003052781,0-.706428632323878.177001953125-.706428632323878.7080078125v.175994873046875c0,.531005859375.353738601796067.7080078125.706428632323878,1.061996459960938l.884253983496819.884002685546875c.883205412228563.885009765625,1.235895442756373,1.238006591796875,1.235895442756373,2.123001098632812v.35400390625c0,1.237991333007812-.706366951661039,1.944992065429688-2.120149426253192,1.944992065429688-1.58963404455244.35400390625-2.119224216310613-.353988647460938-2.119224216310613-1.591995239257812Z" fill="#fff" fill-rule="evenodd"/>
  <rect x="29.534067634795065" y="3" width="70.740318679811026" height="38" fill="#566e78"/>
  <path d="m32.423313246890757,8.311996459960938l.544701934170007,2.137001037597656.620507468889627-2.137001037597656h1.377390883473709v5.688003540039062h-1.018656147982256v-1.683998107910156l.04749411044213-2.660003662109375-.753861062103169,2.469001770019531h-.548772857922813l-.675094855563657-2.362998962402344.04755579110315,2.554000854492188v1.683998107910156h-1.018717828643275v-5.688003540039062h1.377452564136547Zm6.154373183971984,0h1.113706049527536v5.688003540039062h-1.113706049527536v-3.628997802734375l-1.630034878759034,3.628997802734375h-1.10963512577473v-5.688003540039062h1.10963512577473v3.633003234863281l1.630034878759034-3.633003234863281Zm3.375350916499883,3.602005004882812v2.08599853515625h-1.10963512577473v-5.688003540039062h1.966626256265954c.313276086926635,0,.596205287702105.046005249023438.848849282985611.137001037597656.252643995285325.089004516601562.466922618239551.214004516601562.642712507536999.375.178873922443017.159004211425781.316360120072204.350006103515625.411348340956465.574005126953125.097023682759755.2239990234375.145504683807303.472999572753906.145504683807303.746994018554688,0,.2550048828125-.048481001047548.490005493164062-.145504683807303.707000732421875-.094988220884261.21600341796875-.232474418513448.402999877929688-.411348340956465.562004089355469-.175789889297448.155998229980469-.390068512251673.278999328613281-.642712507536999.366996765136719-.252643995283506.089004516601562-.535573196058976.133003234863281-.848849282985611.133003234863281h-.856991130491224Zm0-.890998840332031h.856991130491224c.157655774401064,0,.294031720099156-.023002624511719.410299769686389-.069999694824219.116206368924395-.047004699707031.212181480415893-.111000061035156.287987015133695-.191001892089844.078827887200532-.081001281738281.137424516966348-.173004150390625.173816108082974-.277999877929688.039413943601176-.106002807617188.059645201035892-.217002868652344.059645201035892-.332000732421875,0-.132003784179688-.020231257434716-.255996704101562-.059645201035892-.371002197265625-.036391591116626-.113998413085938-.094988220882442-.214996337890625-.173816108082974-.300994873046875-.075805534717801-.085006713867188-.171780646209299-.152999877929688-.287987015133695-.2030029296875-.116268049587234-.049003601074219-.252643995285325-.073997497558594-.410299769686389-.073997497558594h-.856991130491224v1.819999694824219Zm5.96137438972255,2.890998840332031c0,.147994995117188-.021218148041953.300994873046875-.06365444412404.457000732421875-.039413943601176.155998229980469-.094988220884261.306999206542969-.165735941243838.452995300292969-.070747720359577.146003723144531-.156607203130989.284004211425781-.256714919036312.41400146484375-.096962002096916.129997253417969-.202065851697625.246002197265625-.315249868141109.347999572753906l-.581093525286633-.2969970703125c.050516462923042-.094001770019531.095975111489679-.189002990722656.138411407571766-.285003662109375.0444717579594-.096000671386719.082898810953338-.197998046875.11423258771174-.305000305175781.032320667365639-.10699462890625.056561167890322-.220001220703125.07580553471962-.339996337890625.018195795557403-.119003295898438.027262853005595-.250999450683594.027262853005595-.394004821777344v-.913993835449219h1.029758667305941l-.003022352482731.862998962402344Zm6.374696511891671.08599853515625h-1.109573445111891v-4.7969970703125h-1.626025635670885v4.7969970703125h-1.109635125776549v-5.688003540039062h3.845234206559326v5.688003540039062Zm2.230372770876784-2.08599853515625v2.08599853515625h-1.109635125776549v-5.688003540039062h1.966626256265954c.313276086926635,0,.596205287702105.046005249023438.84884928298743.137001037597656.252643995285325.089004516601562.466922618239551.214004516601562.642712507536999.375.178873922443017.159004211425781.316360120072204.350006103515625.411348340954646.574005126953125.097023682759755.2239990234375.145504683809122.472999572753906.145504683809122.746994018554688,0,.2550048828125-.048481001049367.490005493164062-.145504683809122.707000732421875-.094988220882442.21600341796875-.232474418511629.402999877929688-.411348340954646.562004089355469-.175789889297448.155998229980469-.390068512251673.278999328613281-.642712507536999.366996765136719-.252643995285325.089004516601562-.535573196060795.133003234863281-.84884928298743.133003234863281h-.856991130489405Zm0-.890998840332031h.856991130489405c.157594093738226,0,.294031720099156-.023002624511719.410238089023551-.069999694824219.116268049589053-.047004699707031.212243161078732-.111000061035156.288048695796533-.191001892089844.078827887200532-.081001281738281.137424516966348-.173004150390625.173816108084793-.277999877929688.039413943599357-.106002807617188.059645201035892-.217002868652344.059645201035892-.332000732421875,0-.132003784179688-.020231257436535-.255996704101562-.059645201035892-.371002197265625-.036391591118445-.113998413085938-.094988220884261-.214996337890625-.173816108084793-.300994873046875-.075805534717801-.085006713867188-.17178064620748-.152999877929688-.288048695796533-.2030029296875-.116206368924395-.049003601074219-.252643995285325-.073997497558594-.410238089023551-.073997497558594h-.856991130489405v1.819999694824219Zm6.50206708080259,1.788993835449219h-1.725084780306133l-.339552049326812,1.188003540039062h-1.168231755540546l1.882740554707198-5.688003540039062h1.006505057386676l1.84733585419599,5.688003540039062h-1.168231755540546l-.335481125575825-1.188003540039062Zm-1.453258098854349-.932998657226562h1.192533936728069l-.58818680152217-2.093994140625-.604347135205899,2.093994140625Zm3.474410061135131,2.121002197265625v-5.688003540039062h1.930172984486489c.313276086926635,0,.597253858970362.032005310058594.852920206738418.094001770019531.257701809643549.063003540039062.47697656629316.158004760742188.658934521881747.285003662109375.181896274925748.127998352050781.32135625376759.28900146484375.418318255864506.485000610351562.100107715905324.194999694824219.149575607560109.425994873046875.149575607560109.690994262695312-.001973781212655.266006469726562-.074756963447726.504005432128906-.21625240416688.715003967285156-.139459978841842.21099853515625-.346645325562349.371002197265625-.620507468887808.479995727539062.165735941242019.041999816894531.309266843836667.105003356933594.430531027121106.188003540039062.121264183282619.083000183105469.221310218525105.181999206542969.300138105725637.2969970703125.081850239685082.11199951171875.140446869450898.236000061035156.177887031837599.371002197265625.039413943599357.133003234863281.058596629765816.271003723144531.058596629765816.41400146484375,0,.273002624511719-.046507219834893.513999938964844-.141495440719154.722999572753906-.094988220884261.208000183105469-.230377275973296.383003234863281-.407277417203659.523002624511719-.175789889297448.140998840332031-.390068512251673.245994567871094-.642712507536999.316993713378906-.252643995285325.069999694824219-.53760865793447.105003356933594-.852920206738418.105003356933594h-2.095908925728509Zm1.112595797594622-2.508003234863281v1.621002197265625h.987384051886693c.302111886940111-.001998901367188.532550843576246-.074996948242188.69020661797731-.218002319335938.160678126883795-.14599609375.24154147596164-.33599853515625.24154147596164-.570999145507812.001973781212655-.259994506835938-.068773939146922-.462997436523438-.21323005168415-.609001159667969-.144517793201885-.14599609375-.368912044874378-.219993591308594-.671023931814489-.222999572753906h-1.034878162327004Zm0-.792999267578125h.825657353732822c.307231381961174-.001998901367188.544701934170007-.065994262695312.710437875413845-.190994262695312.165735941242019-.125.249621642800776-.309005737304688.252643995283506-.551002502441406,0-.265998840332031-.082837130288681-.456001281738281-.248573071532519-.569999694824219-.165735941242019-.11700439453125-.405241955328165-.177001953125-.7185180422548-.180000305175781h-.821648110642855v1.491996765136719Zm7.761277814141067.875c0,.365005493164062-.048542681712206.701004028320312-.146553255077379,1.008003234863281-.097023682759755.306999206542969-.237470552208833.571998596191406-.422450860280151.792999267578125-.183931736803061.221000671386719-.408264307810896.394996643066406-.674046284297219.519996643066406-.263746514609011.122001647949219-.560862267851917.183006286621094-.892334150337774.183006286621094s-.626552173855089-.061004638671875-.884253983498638-.183006286621094c-.258688700248968-.125-.474941104417667-.298995971679688-.65184124564621-.519996643066406-.175789889297448-.2239990234375-.310192053782885-.487998962402344-.402157922182596-.792999267578125-.09196586840153-.306999206542969-.138473088236424-.642997741699219-.138473088236424-1.008003234863281v-.827995300292969c0-.363998413085938.046507219834893-.700004577636719.138473088236424-1.008003234863281.091965868399711-.306999206542969.226368032885148-.570999145507812.402157922182596-.792999267578125.176900141228543-.2239990234375.392103974127167-.398002624511719.647832002558062-.523002624511719.257701809643549-.125.552782101010962-.187995910644531.884253983496819-.187995910644531.334494234968588,0,.632596878818731.062995910644531.896343393427742.187995910644531.265781976486323.125.490114547494159.299003601074219.674046284297219.523002624511719.184980308071317.222000122070312.325427177520396.486000061035156.422450860280151.792999267578125.098010573365173.307998657226562.146553255077379.644004821777344.146553255077379,1.008003234863281v.827995300292969Zm-1.124808568853041-.83599853515625c0-.230995178222656-.020231257434716-.444999694824219-.059645201035892-.639999389648438-.036329910453787-.195999145507812-.095975111489679-.363998413085938-.177825351172942-.503997802734375-.080863349076026-.140998840332031-.186954089283972-.25-.315311548802129-.3280029296875-.126321997642663-.081001281738281-.280955419562815-.121002197265625-.461803123218488-.121002197265625-.178873922443017,0-.329498101273202.040000915527344-.450762284555822.121002197265625-.120215612014363.0780029296875-.218287866044193.187004089355469-.292057938886501.3280029296875-.073770072840489.139999389648438-.126321997640844.307998657226562-.157655774401064.503997802734375-.031272096095563.194999694824219-.04749411044213.409004211425781-.04749411044213.639999389648438v.83599853515625c0,.22900390625.016222014346567.442001342773438.04749411044213.637001037597656.031333776760221.194999694824219.083885701560575.364997863769531.157655774401064.508003234863281.073770072842308.142997741699219.171842326872138.254997253417969.292057938886501.33599853515625.121264183282619.080001831054688.272875252720041.121002197265625.454771527645789.121002197265625.178873922443017,0,.331471882485857-.041000366210938.45779388012852-.121002197265625.128357459518156-.081001281738281.23241273784879-.192001342773438.311240625049322-.332000732421875.081850239685082-.143997192382812.142482331326391-.312995910644531.181896274925748-.508003234863281.039413943601176-.194999694824219.059645201035892-.40899658203125.059645201035892-.640998840332031v-.83599853515625Zm5.960387499115313,1.481002807617188c-.018195795557403.285995483398438-.081850239683263.543998718261719-.188989551159466.772994995117188-.106090740207947.22900390625-.247586180927101.425003051757812-.426460103370118.586006164550781-.178873922443017.161994934082031-.392103974127167.286994934082031-.639690155054268.375-.247586180925282.08599853515625-.52144832425256.128997802734375-.821586429978197.128997802734375-.339552049328631,0-.640738726324344-.060997009277344-.903436669663279-.183998107910156-.263808195271849-.125-.484069842528697-.298004150390625-.662943764971715-.519004821777344-.178873922443017-.2239990234375-.316360120072204-.491996765136719-.411348340956465-.805000305175781-.093939649614185-.311996459960938-.141433760056316-.655998229980469-.141433760056316-1.030998229980469v-.765998840332031c0-.376998901367188.049467891654785-.722000122070312.149513926897271-1.035003662109375.100046035242485-.311996459960938.242590047231715-.58099365234375.426460103370118-.803993225097656.183931736801242-.224006652832031.406290526596422-.398002624511719.667014688722702-.520004272460938.26374651461083-.125.557839915371005-.187995910644531.884253983498638-.187995910644531.316298439409366,0,.596205287702105.044998168945312.840769116144656.13299560546875.247586180927101.089004516601562.45779388012852.215003967285156.631609988213313.378997802734375.173816108082974.16400146484375.31130230571398.365005493164062.411348340956465.602005004882812.09899746397241.23699951171875.162713588759289.503997802734375.188927870496627.800994873046875h-1.105564202023743c-.01005394805361-.169998168945312-.036329910453787-.3179931640625-.078827887200532-.445999145507812-.039413943601176-.126998901367188-.098010573366992-.232994079589844-.177825351172942-.315994262695312-.07580553471962-.086006164550781-.172829217477556-.150001525878906-.292057938886501-.192001342773438-.115219478317158-.043998718261719-.254679457160819-.066001892089844-.418379936527344-.066001892089844-.170793755602062,0-.319320791892096.036003112792969-.445642789534759.109001159667969s-.231425847243372.180000305175781-.316360120072204.320999145507812c-.080801668415006.139999389648438-.141433760056316.312995910644531-.180847703657491.518997192382812-.039413943599357.2030029296875-.059645201034073.435005187988281-.059645201034073.695999145507812v.773002624511719c0,.55999755859375.078827887200532.9739990234375.236483661601596,1.24200439453125.160678126883795.267997741699219.41332212216912.402999877929688.757931985855976.402999877929688.290022477009188,0,.51842597176983-.076004028320312.687184265494579-.227005004882812.168758293726569-.153999328613281.261711052733517-.4010009765625.27990684829274-.741996765136719h1.10963512577473Zm2.447612065650901-1.9530029296875l.374895069175182,1.050003051757812,1.200614103569023-3.004005432128906h1.207645699143541l-2.045454143468305,4.610000610351562c-.067663687214008.153999328613281-.148527036290034.301002502441406-.240492904691564.441001892089844-.0889435159188.140998840332031-.198056608607658.264999389648438-.327400958733051.371002197265625-.126321997642663.107002258300781-.274910714595535.192001342773438-.445704470197597.253997802734375-.171780646209299.063003540039062-.372921287962527.094001770019531-.60428545454306.094001770019531-.187015769946811,0-.35269003052781-.015998840332031-.497207823729696-.0469970703125-.142544011987411-.027999877929688-.257701809643549-.055000305175781-.347632216167767-.0780029296875l.070686039696739-.859001159667969c.034356129241132.010002136230469.074818644110564.022003173828125.122312754552695.035003662109375.050516462924861.009994506835938.102081497117979.02099609375.154633421918334.030998229980469.052551924802174.010002136230469.106090740207947.019996643066406.161665017491032.027000427246094.055574277283085.005996704101562.10812620208344.00799560546875.157655774402883.00799560546875.126321997640844,0,.236483661601596-.01300048828125.331471882485857-.038993835449219.094988220882442-.0260009765625.176838460565705-.062004089355469.244563828442551-.109001159667969.068712258484084-.047004699707031.125273426372587-.103004455566406.169745184331987-.167999267578125.04749411044213-.068000793457031.085921163436069-.14300537109375.115219478318977-.227005004882812l.110161663958934-.241996765136719-2.004991628597054-4.102005004882812h1.199565532300767l.892334150339593,1.954002380371094Zm7.173091012615259,5.132003784179688h-.956050275126472v-1.398002624511719h-2.174736812929041v1.398002624511719h-.935819017691756l-.173816108082974-2.281005859375h.21323005168415c.121264183282619-.061996459960938.226368032885148-.149993896484375.316360120072204-.261993408203125.088881835255961-.112007141113281.164687369973763-.26300048828125.224332571007835-.4530029296875.060632091643129-.192001342773438.110161663960753-.430999755859375.146553255079198-.713996887207031.036329910453787-.287002563476562.062605872853965-.636001586914062.078766206537694-1.047004699707031l.157655774401064-2.329002380371094h2.838729149170831v4.805000305175781h.422450860280151l-.157655774402883,2.281005859375Zm-2.147473959921626-4.757003784179688c-.013137981200998.304000854492188-.033369238635714.580001831054688-.059645201035892.8280029296875-.023253609917447.247001647949219-.055574277283085.472000122070312-.094988220882442.675994873046875-.039413943601176.200004577636719-.084872592165993.381004333496094-.137424516968167.543006896972656-.052551924800355.157997131347656-.111210235229009.301994323730469-.173816108082974.428993225097656h1.242988718990091v-3.913993835449219h-.683175022406431l-.093939649614185,1.437995910644531Zm5.763317781113074-2.329002380371094h1.112595797596441v5.688003540039062h-1.112595797596441v-3.628997802734375l-1.630096559421872,3.628997802734375h-1.109573445111891v-5.688003540039062h1.109573445111891v3.633003234863281l1.630096559421872-3.633003234863281Zm5.731984004356491,3.196006774902344h-2.360704011607595v1.604995727539062h2.758852690700223v.887001037597656h-3.872558740229579v-5.688003540039062h3.860407649635818v.895004272460938h-2.746701600106462v1.433998107910156h2.360704011607595v.86700439453125Zm-63.997758694315053,5.803993225097656h1.112595797594622v5.688003540039062h-1.112595797594622v-3.628997802734375l-1.631083450029109,3.628997802734375h-1.108586554506473v-5.688003540039062h1.108586554506473v3.633003234863281l1.631083450029109-3.633003234863281Zm7.780398819642869,3.797004699707031c-.016160333683729.1719970703125-.003022352482731.325996398925781.039413943599357.46099853515625.041449405476669.136001586914062.104116958995291.25.184918627408479.344001770019531.084934272828832.094001770019531.182944846195824.165000915527344.296128862637488.214996337890625.116206368924395.049003601074219.24154147596164.074005126953125.374895069175182.074005126953125.15870434567114,0,.302173567602949-.0260009765625.430531027121106-.0780029296875.129344350125393-.052001953125.238519123478909-.135002136230469.32740095873487-.25.089930406524218-.116996765136719.15870434567114-.266998291015625.206198456111451-.448997497558594.049467891654785-.183006286621094.074756963449545-.404998779296875.074756963449545-.667999267578125v-.152999877929688h-1.511793047959145v-.886001586914062h1.511793047959145v-.152999877929688c0-.25-.024240500524684-.46600341796875-.070747720359577-.648002624511719-.045458648564818-.181999206542969-.111148554566171-.332000732421875-.198056608607658-.448997497558594-.083885701560575-.120002746582031-.187940979891209-.208999633789062-.311240625051141-.265998840332031-.121264183284438-.056999206542969-.256714919038131-.086006164550781-.407277417203659-.086006164550781-.160678126885614,0-.304209029480262.025001525878906-.430531027122925.074005126953125-.123299645159932.049995422363281-.225319461615072.123001098632812-.307169701298335.219001770019531-.081911920346101.093994140625-.141495440719154.209999084472656-.17788703183578.347999572753906-.036391591118445.13800048828125-.048481001049367.293998718261719-.035343019848369.468994140625h-1.109635125776549c0-.273994445800781.04749411044213-.531997680664062.142482331326391-.773994445800781.097023682759755-.24200439453125.235496770994359-.454002380371094.414370693437377-.637001037597656.178812241780179-.181999206542969.395126326611717-.325004577636719.647770321897042-.429000854492188.25461777649798-.107002258300781.540631010417201-.160003662109375.855942559221148-.160003662109375.308218272566592,0,.590160582734825.054000854492188.844840039895644.16400146484375.257701809645368.106002807617188.479012028170473.260002136230469.662943764971715.46099853515625.184918627408479.200004577636719.328449530003127.445999145507812.430469346460086.737998962402344.103130068386236.28900146484375.154633421918334.614006042480469.154633421918334.976005554199219v1.183998107910156c0,.364997863769531-.050516462924861.691001892089844-.150562498167346.980003356933594-.100046035242485.286994934082031-.243576937837133.529998779296875-.430531027121106.730995178222656-.183931736801242.197998046875-.409251198416314.349998474121094-.675033174902637.457000732421875-.262759624001774.107002258300781-.558826805976423.160003662109375-.888324907249626.160003662109375-.292057938884682,0-.562897729729229-.04400634765625-.812457691868985-.133003234863281-.247586180925282-.087997436523438-.461864803879507-.217002868652344-.643761078805255-.386001586914062-.178873922443017-.169998168945312-.317347010679441-.375-.414309012776357-.617996215820312-.097023682759755-.244003295898438-.142544011987411-.522003173828125-.134463845146456-.832000732421875h1.109635125776549Zm6.781973929095329-3.030998229980469c.267817438359998.028999328613281.512381266804368.0989990234375.733691485329473.21099853515625.221310218526924.11199951171875.411286660293626.258995056152344.568942434694691.441001892089844.160678126885614.182998657226562.283977772045546.397994995117188.370885826087033.644996643066406.0889435159188.245002746582031.134402164483618.515998840332031.134402164483618.813003540039062,0,.290992736816406-.045458648564818.557998657226562-.134402164483618.799995422363281-.086908054041487.239997863769531-.210207699201419.450004577636719-.370885826087033.628997802734375-.157655774401064.180000305175781-.347632216167767.326004028320312-.568942434694691.438003540039062-.221310218525105.109001159667969-.465874046969475.178001403808594-.733691485329473.207000732421875v.737998962402344h-1.105564202023743v-.737998962402344c-.268804328969054-.028999328613281-.514355048018842-.097999572753906-.738749299689516-.207000732421875-.220261647256848-.110000610351562-.411286660293626-.252998352050781-.571964787177421-.430000305175781-.157655774402883-.180000305175781-.281942310168233-.388999938964844-.370885826087033-.628997802734375-.086908054041487-.24200439453125-.130331240730811-.509002685546875-.130331240730811-.801002502441406,0-.2969970703125.043423186689324-.569000244140625.130331240730811-.816001892089844.0889435159188-.246994018554688.21323005168415-.461997985839844.370885826087033-.644996643066406.160678126883795-.18499755859375.351703139920573-.333000183105469.571964787177421-.444999694824219.224394251670674-.11199951171875.469944970720462-.181999206542969.738749299689516-.21099853515625v-.766006469726562h1.105564202023743v.766006469726562Zm-1.828153168031349,2.116996765136719c0,.31500244140625.064703015394116.567001342773438.194047365519509.753997802734375.128357459518156.185005187988281.30519592008568.304000854492188.528541600488097.356002807617188v-2.269996643066406c-.223345680402417.05499267578125-.400184140969941.17999267578125-.528541600488097.375-.129344350125393.194999694824219-.194047365519509.456993103027344-.194047365519509.784996032714844Zm2.538591043443375-.006996154785156c0-.326004028320312-.06365444412404-.585006713867188-.189976441766703-.777999877929688-.126321997642663-.19500732421875-.300138105725637-.32000732421875-.520461433645323-.375v2.265998840332031c.220323327919687-.052001953125.394139436002661-.172004699707031.520461433645323-.360000610351562.126321997642663-.187004089355469.189976441766703-.438003540039062.189976441766703-.752998352050781Zm4.144385421679544-2.110000610351562c.268804328967235.028999328613281.513368157411605.0989990234375.73467837593671.21099853515625.221310218526924.11199951171875.410299769688208.258995056152344.567955544089273.441001892089844.160678126883795.182998657226562.284964662650964.397994995117188.371872716692451.644996643066406.0889435159188.245002746582031.133415273876381.515998840332031.133415273876381.813003540039062,0,.290992736816406-.044471757957581.557998657226562-.133415273876381.799995422363281-.086908054041487.239997863769531-.211194589808656.450004577636719-.371872716692451.628997802734375-.157655774401064.180000305175781-.346645325562349.326004028320312-.567955544089273.438003540039062-.221310218525105.109001159667969-.465874046969475.178001403808594-.73467837593671.207000732421875v.737998962402344h-1.104577311416506v-.737998962402344c-.268804328969054-.028999328613281-.514355048018842-.097999572753906-.738749299689516-.207000732421875-.221310218526924-.110000610351562-.411286660293626-.252998352050781-.571964787177421-.430000305175781-.158642665008301-.180000305175781-.281942310168233-.388999938964844-.370885826087033-.628997802734375-.086908054041487-.24200439453125-.130331240730811-.509002685546875-.130331240730811-.801002502441406,0-.2969970703125.043423186689324-.569000244140625.130331240730811-.816001892089844.0889435159188-.246994018554688.212243161078732-.461997985839844.370885826087033-.644996643066406.160678126883795-.18499755859375.350654568650498-.333000183105469.571964787177421-.444999694824219.224394251670674-.11199951171875.469944970720462-.181999206542969.738749299689516-.21099853515625v-.766006469726562h1.104577311416506v.766006469726562Zm-1.827104596761274,2.116996765136719c0,.31500244140625.064641334731277.567001342773438.192998794249434.753997802734375.129344350125393.185005187988281.30519592008568.304000854492188.529528491095334.356002807617188v-2.269996643066406c-.224332571009654.05499267578125-.400184140969941.17999267578125-.529528491095334.375-.128357459518156.194999694824219-.192998794249434.456993103027344-.192998794249434.784996032714844Zm2.537542472175119-.006996154785156c0-.326004028320312-.062667553518622-.585006713867188-.188989551161285-.777999877929688-.126321997642663-.19500732421875-.300138105725637-.32000732421875-.52144832425256-.375v2.265998840332031c.221310218526924-.052001953125.395126326609898-.172004699707031.52144832425256-.360000610351562.126321997642663-.187004089355469.188989551161285-.438003540039062.188989551161285-.752998352050781Zm5.025555372030794.319999694824219h-2.360704011607595v1.604995727539062h2.759901261970299v.887001037597656h-3.87249705956674v-5.688003540039062h3.860407649635818v.895004272460938h-2.747811852039376v1.433998107910156h2.360704011607595v.86700439453125Zm2.969122070564481.155998229980469h-.461864803879507v2.33599853515625h-1.10957344511371v-5.688003540039062h1.10957344511371v2.504005432128906h.271826681449966l1.50377456177921-2.504005432128906h1.283451233861342l-1.712933689712372,2.739006042480469,1.779610486319143,2.948997497558594h-1.286473586342254l-1.377390883475528-2.33599853515625Zm7.428695679722296-2.457000732421875h-1.772517210085425v4.792999267578125h-1.112657478257461v-4.792999267578125h-1.749325280830817v-.895004272460938h4.634499969173703v.895004272460938Zm3.292452105546545-.895004272460938h1.113706049527536v5.688003540039062h-1.113706049527536v-3.628997802734375l-1.630034878759034,3.628997802734375h-1.109635125776549v-5.688003540039062h1.109635125776549v3.633003234863281l1.630034878759034-3.633003234863281Zm2.186887903522802,5.688003540039062v-5.688003540039062h1.930234665149328c.313276086926635,0,.597253858970362.032005310058594.852920206738418.094001770019531.257701809643549.063003540039062.478025137563236.158004760742188.658872841218908.285003662109375.181896274925748.127998352050781.321356253769409.28900146484375.418379936529163.485000610351562.100046035242485.194999694824219.150624178828366.425994873046875.150624178828366.690994262695312-.003084033145569.266006469726562-.074818644110564.504005432128906-.217300975436956.715003967285156-.139459978841842.21099853515625-.345596754292274.371002197265625-.619458897617733.479995727539062.165735941242019.041999816894531.309205163173829.105003356933594.42948245585103.188003540039062.121264183284438.083000183105469.221310218526924.181999206542969.300138105727456.2969970703125.081850239683263.11199951171875.141495440719154.236000061035156.177825351172942.371002197265625.039413943601176.133003234863281.059645201035892.271003723144531.059645201035892.41400146484375,0,.273002624511719-.04749411044213.513999938964844-.142482331326391.722999572753906-.094988220882442.208000183105469-.230438956636135.383003234863281-.406228845933583.523002624511719-.176900141230362.140998840332031-.391117083521749.245994567871094-.643761078805255.316993713378906-.252643995285325.069999694824219-.536621767329052.105003356933594-.852920206740237.105003356933594h-2.095970606391347Zm1.113706049527536-2.508003234863281v1.621002197265625h.986273799953779c.303222138873025-.001998901367188.533599414846321-.074996948242188.691255189247386-.218002319335938.160678126883795-.14599609375.240492904691564-.33599853515625.240492904691564-.570999145507812.003084033145569-.259994506835938-.068712258482265-.462997436523438-.21323005168415-.609001159667969-.144456112539046-.14599609375-.367801792941464-.219993591308594-.67102393181267-.222999572753906h-1.033767910395909Zm0-.792999267578125h.824608782462747c.308218272568411-.001998901367188.544701934170007-.065994262695312.710437875413845-.190994262695312.165735941242019-.125.250608533408013-.309005737304688.252643995285325-.551002502441406,0-.265998840332031-.082898810953338-.456001281738281-.248634752197177-.569999694824219-.165735941242019-.11700439453125-.405241955326346-.177001953125-.718518042252981-.180000305175781h-.820537858711759v1.491996765136719Zm7.542928267434036,3.301002502441406h-1.096497144575551v-2.464996337890625h-1.627012526276303v2.464996337890625h-1.101554958935594v-5.688003540039062h1.101554958935594v2.333000183105469h1.627012526276303v-2.333000183105469h1.096497144575551v5.688003540039062Zm1.946333318168399-3.375h.248634752195358c.239506014086146,0,.451749175163059.040000915527344.635619231303281.121002197265625.184980308071317.077995300292969.338565158719575.189994812011719.461864803879507.33599853515625.126321997642663.14599609375.221310218526924.321998596191406.284964662650964.527000427246094.065689906001353.202995300292969.098010573366992.430999755859375.098010573366992.683998107910156,0,.25-.035343019848369.480003356933594-.106090740207947.691001892089844-.068712258484084.208999633789062-.171780646209299.38800048828125-.308218272568411.53900146484375-.13643762636093.1510009765625-.30519592008568.268997192382812-.50528799057065.351997375488281s-.430531027121106.125-.691255189247386.125h-1.226828385308181v-5.688003540039062h1.108586554506473v2.313003540039062Zm3.146947421739242,3.375h-1.10957344511371v-5.688003540039062h1.10957344511371v5.688003540039062Zm-3.146947421739242-2.527000427246094v1.682998657226562h.181957955588587c.078766206537694,0,.145504683809122-.021995544433594.201078961092207-.066001892089844.057609739158579-.0469970703125.104055278330634-.109992980957031.138473088234605-.187995910644531.036329910455606-.080001831054688.062605872855784-.173004150390625.078766206537694-.277000427246094.016222014346567-.107002258300781.023253609919266-.220001220703125.023253609919266-.339996337890625,0-.114006042480469-.007031595572698-.221000671386719-.023253609919266-.32000732421875-.01616033368191-.0989990234375-.042436296082087-.18499755859375-.078766206537694-.25799560546875-.034417809903971-.072998046875-.078827887200532-.129997253417969-.134463845146456-.1719970703125-.055574277283085-.042007446289062-.123237964497093-.062004089355469-.205088204180356-.062004089355469h-.181957955588587Zm7.508633818855742.035003662109375h-2.360765692270434v1.604995727539062h2.758914371363062v.887001037597656h-3.872558740229579v-5.688003540039062h3.861456220905893v.895004272460938h-2.747811852039376v1.433998107910156h2.360765692270434v.86700439453125Zm-59.141948506616245,5.803993225097656h1.112595797594622v5.688003540039062h-1.112595797594622v-3.628997802734375l-1.631083450029109,3.628997802734375h-1.108586554506473v-5.688003540039062h1.108586554506473v3.633010864257812l1.631083450029109-3.633010864257812Zm5.987650352122728,5.688003540039062h-1.097484035182788v-2.464996337890625h-1.626025635669066v2.464996337890625h-1.101554958935594v-5.688003540039062h1.101554958935594v2.3330078125h1.626025635669066v-2.3330078125h1.097484035182788v5.688003540039062Zm5.052879905701047-1.781005859375c-.018195795559222.2860107421875-.080863349077845.54400634765625-.188989551161285.77301025390625-.10510384960071.228988647460938-.247586180925282.425003051757812-.426460103368299.58599853515625-.178873922443017.162002563476562-.392103974128986.287002563476562-.639690155054268.375-.247586180927101.08599853515625-.52144832425256.128997802734375-.820599539372779.128997802734375-.339552049328631,0-.640677045661505-.061004638671875-.904485240933354-.184005737304688-.262697943338935-.125-.484008161865859-.297988891601562-.662882084308876-.518997192382812-.178873922443017-.2239990234375-.316360120072204-.49200439453125-.410299769686389-.80499267578125-.094988220884261-.31201171875-.142482331324572-.656005859375-.142482331324572-1.031005859375v-.766006469726562c0-.376998901367188.049467891654785-.722000122070312.149513926897271-1.034988403320312.100046035242485-.31201171875.242590047229896-.581008911132812.426460103368299-.804000854492188.184980308071317-.2239990234375.407277417203659-.39801025390625.667014688724521-.520004272460938.263746514609011-.125.558826805976423-.188003540039062.884253983496819-.188003540039062.316298439409366,0,.596205287702105.044998168945312.840769116144656.133010864257812.247586180927101.0889892578125.458842451398596.214996337890625.631609988213313.378997802734375.173816108084793.16400146484375.31130230571398.364990234375.411348340956465.60198974609375s.16265190809645.504013061523438.188927870496627.801010131835938h-1.105564202023743c-.010115628716449-.169998168945312-.036391591116626-.318008422851562-.078827887200532-.445999145507812-.039413943599357-.126998901367188-.098010573365173-.233001708984375-.176838460565705-.316009521484375-.076792425325038-.08599853515625-.173816108084793-.149993896484375-.292057938886501-.192001342773438-.116206368924395-.043991088867188-.255666347768056-.065994262695312-.419366827134581-.065994262695312-.170793755602062,0-.319382472554935.035995483398438-.445704470197597.108993530273438-.126321997642663.073013305664062-.231364166580533.180007934570312-.31524986813929.320999145507812-.081850239683263.1400146484375-.142482331326391.313003540039062-.181896274925748.519012451171875-.039413943601176.202987670898438-.059645201035892.43499755859375-.059645201035892.695999145507812v.772994995117188c0,.55999755859375.078827887200532.9739990234375.237470552208833,1.24200439453125.159691236278377.267990112304688.412335231561883.402999877929688.757931985855976.402999877929688.289035586401951,0,.51842597176983-.076004028320312.686197374889161-.227005004882812.16875829372475-.15399169921875.261711052731698-.4010009765625.280955419560996-.74200439453125h1.108586554506473Zm5.088222925547598-3.011993408203125h-1.771530319476369v4.792999267578125h-1.113644368866517v-4.792999267578125h-1.748276709558922v-.895004272460938h4.633451397901808v.895004272460938Zm3.292452105548364-.895004272460938h1.113706049527536v5.688003540039062h-1.113706049527536v-3.628997802734375l-1.630034878759034,3.628997802734375h-1.109635125776549v-5.688003540039062h1.109635125776549v3.633010864257812l1.630034878759034-3.633010864257812Zm6.41922995051209.895004272460938h-1.772578890746445v4.792999267578125h-1.113644368864698v-4.792999267578125h-1.748276709560741v-.895004272460938h4.634499969171884v.895004272460938Zm2.214150756530216,1.059005737304688l.374895069175182,1.04998779296875,1.200614103570842-3.003997802734375h1.207584018478883l-2.044343891535391,4.610000610351562c-.068773939145103.154006958007812-.148588716952872.301010131835938-.241541475959821.441009521484375-.0889435159188.1409912109375-.198056608609477.264999389648438-.327462639397709.370986938476562-.126321997640844.107009887695312-.274849033932696.192001342773438-.445642789534759.254013061523438-.170793755600243.06298828125-.372921287960708.093994140625-.60434713520408.093994140625-.186954089285791,0-.35269003052781-.016006469726562-.497146143066857-.0469970703125-.142544011987411-.027999877929688-.257701809643549-.055007934570312-.347693896830606-.0780029296875l.071796291627834-.858993530273438c.033307557972876.009994506835938.074756963449545.021987915039062.122251073889856.034988403320312.049529572319443.010009765625.101094606512561.021011352539062.153646531312916.031005859375.052490244137516.009994506835938.106090740207947.020004272460938.161665017491032.026992797851562.055574277283085.006011962890625.10812620208344.008010864257812.157655774401064.008010864257812.126321997642663,0,.237470552208833-.01300048828125.332458773093094-.03900146484375.094001330277024-.0260009765625.175851569960287-.061996459960938.244563828442551-.1090087890625.067725367876847-.0469970703125.124286535767169-.102996826171875.169806864996644-.167999267578125.047494110440311-.0679931640625.084872592165993-.142990112304688.114170907048901-.22698974609375l.110161663958934-.24200439453125-2.004991628597054-4.102005004882812h1.199565532300767l.892334150337774,1.954010009765625Zm7.496421047599142-1.059005737304688h-1.772517210085425v4.792999267578125h-1.112657478257461v-4.792999267578125h-1.749325280830817v-.895004272460938h4.634499969173703v.895004272460938Zm1.515863971710132,1.417999267578125h.248634752195358c.239506014084327,0,.451749175163059.039993286132812.635619231301462.121002197265625.184980308071317.0780029296875.338565158721394.19000244140625.461864803881326.33599853515625.126321997642663.14599609375.221310218525105.322006225585938.284964662650964.526992797851562.065689905999534.2030029296875.098010573365173.430999755859375.098010573365173.684005737304688,0,.25-.035343019848369.479995727539062-.106090740207947.690994262695312-.068712258482265.208999633789062-.17178064620748.38800048828125-.308218272568411.53900146484375-.136437626359111.1510009765625-.305195920083861.269012451171875-.505287990568831.352005004882812s-.430531027121106.125-.691255189247386.125h-1.226828385308181v-5.688003540039062h1.108586554506473v2.313003540039062Zm3.146947421739242,3.375h-1.10957344511371v-5.688003540039062h1.10957344511371v5.688003540039062Zm-3.146947421739242-2.526992797851562v1.682998657226562h.181957955588587c.078766206537694,0,.145504683807303-.022003173828125.201078961090388-.066009521484375.057609739160398-.0469970703125.104116958995291-.110000610351562.138473088236424-.188003540039062.036329910455606-.079986572265625.062605872855784-.172988891601562.078827887200532-.276992797851562.016160333683729-.10699462890625.023191929254608-.220001220703125.023191929254608-.339996337890625,0-.113998413085938-.007031595570879-.22100830078125-.023191929254608-.32000732421875-.016222014344748-.0989990234375-.042497976744926-.18499755859375-.078827887200532-.25799560546875-.034356129241132-.072998046875-.078827887200532-.1300048828125-.134463845146456-.1719970703125-.055574277283085-.042007446289062-.123237964497093-.061996459960938-.205088204180356-.061996459960938h-.181957955588587Z" fill="#fff"/>
</svg>