<?xml version="1.0" encoding="UTF-8"?>
<svg id="uuid-567d3a3a-9db0-4c47-b7da-a53652d0461c" data-name="Layer 1" xmlns="http://www.w3.org/2000/svg" width="101" height="101" xmlns:xlink="http://www.w3.org/1999/xlink" viewBox="0 0 101 101">
  <defs>
    <clipPath id="uuid-383e976c-5110-4ffe-b5cb-cf06b20a6057">
      <rect width="101" height="101" fill="none"/>
    </clipPath>
  </defs>
  <g clip-path="url(#uuid-383e976c-5110-4ffe-b5cb-cf06b20a6057)" fill="none">
    <g>
      <path d="m101,0H0v101h101V0Z" fill="#566e78"/>
      <path d="m40.259002685546875,85.814598083496094v1.412605285644531c0,.353096008300781.352996826171875.706298828125.70599365234375.706298828125h16.598007202148438c.352996826171875,0,.70599365234375-.353202819824219.70599365234375-.706298828125v-1.589202880859375c9.3590087890625-3.001701354980469,16.4219970703125-10.770896911621094,18.011001586914062-19.952796936035156v-.176506042480469c0-.353195190429688-.352996826171875-.706298828125-.70599365234375-.706298828125H22.425003051757812c-.353004455566406,0-.706001281738281.353103637695312-.706001281738281.706298828125v.353103637695312c1.764999389648438,9.3583984375,9.004997253417969,16.951095581054688,18.540000915527344,19.952796936035156Z" fill="#fff" fill-rule="evenodd"/>
      <path d="m58.270004272460938,42.201099395751953c-.177001953125.353199005126953-5.298004150390625,7.769302368164062.175994873046875,13.772800445556641,2.472000122070312,2.648601531982422,2.296005249023438,5.120601654052734,1.589004516601562,6.886299133300781h3.531997680664062c.70599365234375-2.472000122070312.352996826171875-5.473800659179688-2.472000122070312-8.652099609375-3.884994506835938-4.414299011230469,0-10.417800903320312.175994873046875-10.417800903320312.529998779296875-.706298828125.177001953125-1.589199066162109-.52899169921875-1.942298889160156-1.05999755859375-.529701232910156-1.943008422851562-.353199005126953-2.472000122070312.353099822998047Z" fill="#fff" fill-rule="evenodd"/>
      <path d="m49.44000244140625,62.683601379394531h3.531997680664062c.70599365234375-2.472103118896484.352996826171875-5.473800659179688-2.472000122070312-8.652099609375-4.061996459960938-4.414402008056641,0-10.417900085449219.175994873046875-10.417900085449219.529998779296875-.706302642822266.177001953125-1.589099884033203-.529998779296875-1.942302703857422-.881988525390625-.353099822998047-1.764999389648438-.176597595214844-2.294998168945312.529701232910156-.177001953125.353199005126953-5.4739990234375,7.769298553466797.177001953125,13.772800445556641,2.472000122070312,2.648597717285156,2.117996215820312,5.120597839355469,1.412002563476562,6.709800720214844Z" fill="#fff" fill-rule="evenodd"/>
      <path d="m37.080001831054688,42.201099395751953c-.175994873046875.353199005126953-5.473007202148438,7.769302368164062.177001953125,13.772800445556641,2.472000122070312,2.648601531982422,2.295989990234375,5.120601654052734,1.5889892578125,6.886299133300781h3.532012939453125c.70599365234375-2.472000122070312.352996826171875-5.473800659179688-2.472000122070312-8.652099609375-4.06201171875-4.414299011230469,0-10.417800903320312.175994873046875-10.417800903320312.529998779296875-.706298828125.177001953125-1.589199066162109-.529006958007812-1.942298889160156-.88299560546875-.529701232910156-1.9429931640625-.353199005126953-2.472991943359375.353099822998047Z" fill="#fff" fill-rule="evenodd"/>
      <path d="m19.422996520996094,25.956199645996094h-5.649993896484375v-.88279914855957c0-1.589200973510742.528999328613281-2.118900299072266,1.411994934082031-3.178400039672852l2.119003295898438-2.295400619506836c1.765998840332031-1.942298889160156,2.118995666503906-3.178298950195312,2.118995666503906-5.120599746704102v-1.942299842834473c0-2.825220108032227-1.412994384765625-4.237810134887695-4.590995788574219-4.237810134887695-3.001998901367188,0-4.59100341796875,1.589159965515137-4.59100341796875,4.414309501647949v2.472100257873535h3.179000854492188v-2.648599624633789c0-1.236100196838379.528999328613281-1.589200019836426,1.412002563476562-1.589200019836426.706001281738281,0,1.236000061035156.176599502563477,1.236000061035156,1.589200019836426v1.589099884033203c0,1.765700340270996-.176002502441406,2.295500755310059-1.236000061035156,3.531500816345215l-1.942001342773438,2.118898391723633c-1.942001342773438,1.942300796508789-2.472000122070312,3.354900360107422-2.472000122070312,5.297201156616211v3.708000183105469h9.004997253417969v-2.825201034545898Z" fill="#fff" fill-rule="evenodd"/>
      <path d="m30.7239990234375,16.068199157714844h2.119003295898438v1.059501647949219h-3.7080078125v-1.059501647949219l2.294998168945312-6.180028915405273h-1.941986083984375v-1.236010551452637h3.530990600585938v1.236010551452637l-2.294998168945312,6.180028915405273Z" fill="#fff" fill-rule="evenodd"/>
      <path d="m33.901992797851562,8.652159690856934h3.355010986328125v1.236010551452637h-1.942001342773438v2.295430183410645h1.412994384765625v1.23599910736084h-1.412994384765625v2.648599624633789h1.942001342773438v1.059501647949219h-3.355010986328125v-8.475541114807129Z" fill="#fff" fill-rule="evenodd"/>
      <path d="m39.375,13.243100166320801v3.884600639343262h-1.412002563476562v-8.475541114807129h2.119003295898438c1.589004516601562,0,2.119003295898438.706290245056152,2.119003295898438,1.942339897155762v1.05940055847168c0,.882900238037109-.352996826171875,1.412599563598633-1.236007690429688,1.589200019836426l1.412002563476562,3.884600639343262h-1.589004516601562l-1.412994384765625-3.884600639343262Zm0-3.35492992401123v2.648630142211914h.529998779296875c.529998779296875,0,.70599365234375-.176600456237793.70599365234375-.706300735473633v-1.236000061035156c0-.529799461364746-.175994873046875-.706329345703125-.70599365234375-.706329345703125h-.529998779296875Z" fill="#fff" fill-rule="evenodd"/>
      <path d="m42.729995727539062,15.00879955291748v-4.061199188232422c0-1.412569999694824.707000732421875-2.295440673828125,2.296005249023438-2.295440673828125s2.294998168945312.882870674133301,2.294998168945312,2.295440673828125v4.061199188232422c0,1.412600517272949-.70599365234375,2.295500755310059-2.294998168945312,2.295500755310059s-2.296005249023438-.882900238037109-2.296005249023438-2.295500755310059Zm3.001998901367188.353100776672363v-4.590900421142578c0-.52970027923584-.175994873046875-.882829666137695-.70599365234375-.882829666137695s-.70599365234375.353129386901855-.70599365234375.882829666137695v4.590900421142578c0,.529799461364746.175994873046875.882900238037109.70599365234375.882900238037109s.70599365234375-.353100776672363.70599365234375-.882900238037109Z" fill="#fff" fill-rule="evenodd"/>
      <path d="m32.136993408203125,25.426599502563477h-1.235992431640625v3.884599685668945h-1.412994384765625v-8.475500106811523h1.412994384765625v3.531501770019531h1.235992431640625v-3.531501770019531h1.589004516601562v8.475500106811523h-1.589004516601562v-3.884599685668945Z" fill="#fff" fill-rule="evenodd"/>
      <path d="m38.492996215820312,20.835699081420898v6.356601715087891c0,1.236000061035156-.529998779296875,2.118898391723633-1.942001342773438,2.118898391723633-1.412994384765625,0-2.118988037109375-.882898330688477-2.118988037109375-2.118898391723633v-6.356601715087891h1.4119873046875v6.533201217651367c0,.529699325561523.177001953125.882900238037109.707000732421875.882900238037109.529006958007812,0,.706008911132812-.353200912475586.706008911132812-.882900238037109v-6.533201217651367h1.235992431640625Z" fill="#fff" fill-rule="evenodd"/>
      <path d="m40.61199951171875,23.837400436401367v5.473798751831055h-1.235992431640625v-8.475500106811523h1.412994384765625l1.589004516601562,4.767501831054688v-4.767501831054688h1.235992431640625v8.475500106811523h-1.235992431640625l-1.766006469726562-5.473798751831055Z" fill="#fff" fill-rule="evenodd"/>
      <path d="m46.438003540039062,24.543699264526367h1.9429931640625v4.590900421142578h-.88299560546875v-.882900238037109c-.177001953125.706300735473633-.529998779296875,1.059499740600586-1.236007690429688,1.059499740600586-1.235992431640625,0-1.7659912109375-.882898330688477-1.7659912109375-2.295499801635742v-4.061199188232422c0-1.412599563598633.70599365234375-2.295400619506836,2.119003295898438-2.295400619506836,1.5889892578125,0,1.942001342773438.882801055908203,1.942001342773438,2.118801116943359v.706298828125h-1.236007690429688v-.88279914855957c0-.529800415039062-.175994873046875-.882900238037109-.70599365234375-.882900238037109s-.706008911132812.353099822998047-.706008911132812.882900238037109v4.590900421142578c0,.529699325561523.176010131835938.88279914855957.706008911132812.88279914855957.352996826171875,0,.70599365234375-.17650032043457.70599365234375-.88279914855957v-1.589200973510742h-.70599365234375v-1.05940055847168h-.177001953125Z" fill="#fff" fill-rule="evenodd"/>
      <path d="m49.264007568359375,20.835699081420898h3.530990600585938v1.05940055847168h-2.119003295898438v2.472101211547852h1.413009643554688v1.059398651123047h-1.413009643554688v2.648599624633789h2.119003295898438v1.236000061035156h-3.530990600585938v-8.475500106811523Z" fill="#fff" fill-rule="evenodd"/>
      <path d="m54.914993286132812,25.426599502563477v3.884599685668945h-1.412994384765625v-8.475500106811523h2.119003295898438c1.412002563476562,0,1.942001342773438.706300735473633,1.942001342773438,1.942300796508789v1.05940055847168c0,.882900238037109-.352996826171875,1.412599563598633-1.059005737304688,1.589199066162109l1.412002563476562,3.884599685668945h-1.589004516601562l-1.412002563476562-3.884599685668945Zm0-3.531499862670898v2.648599624633789h.529006958007812c.529998779296875,0,.707000732421875-.176498413085938.707000732421875-.706298828125v-1.236000061035156c0-.529701232910156-.177001953125-.706300735473633-.707000732421875-.706300735473633h-.529006958007812Z" fill="#fff" fill-rule="evenodd"/>
      <rect x="27" y="6" width="49" height="27" fill="#566e78"/>
      <path d="m30.309005737304688,9.3125v5.6875h-1.102005004882812v-4.796899795532227h-1.175994873046875l-.019012451171875,2.085999488830566c-.00799560546875.497400283813477-.0469970703125.917900085449219-.116989135742188,1.261700630187988-.068008422851562.34369945526123-.167007446289062.623700141906738-.2969970703125.839799880981445-.131011962890625.213600158691406-.293014526367188.368499755859375-.489013671875.464900016784668-.194992065429688.09630012512207-.422988891601562.144499778747559-.682998657226562.144499778747559h-.274002075195312v-.882800102233887h.157012939453125c.126998901367188-.012999534606934.228988647460938-.050800323486328.304000854492188-.113300323486328.077987670898438-.065099716186523.13800048828125-.166699409484863.17999267578125-.304699897766113.04400634765625-.140599250793457.074005126953125-.324199676513672.089996337890625-.550799369812012.014999389648438-.229100227355957.0260009765625-.515600204467773.031005859375-.85930061340332l.024002075195312-2.97659969329834h3.371002197265625Zm3.639999389648438,0h1.10198974609375v5.6875h-1.10198974609375v-3.628899574279785l-1.613006591796875,3.628899574279785h-1.097991943359375v-5.6875h1.097991943359375v3.632800102233887l1.613006591796875-3.632800102233887Zm3.80499267578125,3.35159969329834h-.457000732421875v2.33590030670166h-1.097991943359375v-5.6875h1.097991943359375v2.503899574279785h.268997192382812l1.488998413085938-2.503899574279785h1.269012451171875l-1.69500732421875,2.738300323486328,1.762008666992188,2.949199676513672h-1.274002075195312l-1.363006591796875-2.33590030670166Zm3.16400146484375,2.33590030670166v-5.6875h1.910003662109375c.30999755859375,0,.59100341796875.03125.843994140625.09375.2550048828125.0625.473007202148438.157549858093262.652008056640625.285160064697266.17999267578125.127599716186523.3179931640625.289059638977051.41400146484375.484390258789062.0989990234375.195300102233887.14898681640625.425799369812012.14898681640625.691399574279785-.00299072265625.265600204467773-.074996948242188.503900527954102-.214996337890625.714799880981445-.13800048828125.211000442504883-.343002319335938.371100425720215-.612991333007812.480500221252441.16400146484375.04170036315918.305999755859375.10420036315918.42498779296875.1875.120010375976562.08329963684082.219009399414062.182299613952637.297012329101562.296899795532227.08099365234375.112000465393066.139999389648438.235700607299805.175994873046875.371100425720215.03900146484375.132800102233887.059005737304688.27079963684082.059005737304688.413999557495117,0,.273500442504883-.047012329101562.514400482177734-.141006469726562.722700119018555s-.227996826171875.382800102233887-.401992797851562.52340030670166c-.175003051757812.14069938659668-.387008666992188.246099472045898-.637008666992188.316399574279785s-.531005859375.105500221252441-.843994140625.105500221252441h-2.074005126953125Zm1.102005004882812-2.507800102233887v1.621100425720215h.975997924804688c.300003051757812-.00260066986084.526992797851562-.07550048828125.683990478515625-.21880054473877.159011840820312-.14579963684082.238006591796875-.335899353027344.238006591796875-.570300102233887.003005981445312-.26039981842041-.0679931640625-.463500022888184-.21099853515625-.609399795532227-.14300537109375-.14579963684082-.365005493164062-.220000267028809-.66400146484375-.222599983215332h-1.022994995117188Zm0-.793000221252441h.815994262695312c.305007934570312-.002599716186523.53900146484375-.066399574279785.7030029296875-.191399574279785s.246994018554688-.308600425720215.25-.550800323486328c0-.265600204467773-.082000732421875-.455699920654297-.246002197265625-.570300102233887-.16400146484375-.117199897766113-.4010009765625-.177099227905273-.71099853515625-.179699897766113h-.811996459960938v1.492199897766113Zm6.343002319335938-2.386699676513672h1.10198974609375v5.6875h-1.10198974609375v-3.628899574279785l-1.613006591796875,3.628899574279785h-1.098007202148438v-5.6875h1.098007202148438v3.632800102233887l1.613006591796875-3.632800102233887Zm6.031997680664062,7.085899353027344h-.945999145507812v-1.398399353027344h-2.152008056640625v1.398399353027344h-.925994873046875l-.1719970703125-2.28119945526123h.21099853515625c.1199951171875-.0625.2239990234375-.149800300598145.313003540039062-.261699676513672.087997436523438-.112000465393066.1619873046875-.263100624084473.222000122070312-.453200340270996.05999755859375-.192699432373047.107986450195312-.430899620056152.144989013671875-.714799880981445.0360107421875-.286499977111816.061996459960938-.63539981842041.0780029296875-1.046899795532227l.156005859375-2.328100204467773h2.808990478515625v4.804699897766113h.417999267578125l-.155990600585938,2.28119945526123Zm-2.125-4.75779914855957c-.01300048828125.304699897766113-.033004760742188.58080005645752-.059005737304688.82819938659668-.022994995117188.247300148010254-.05499267578125.472599983215332-.093994140625.675700187683105-.03900146484375.200600624084473-.083999633789062.381500244140625-.137008666992188.543000221252441-.052001953125.158900260925293-.108993530273438.30210018157959-.170989990234375.429699897766113h1.229995727539062v-3.91409969329834h-.675994873046875l-.093002319335938,1.4375Zm5.866989135742188,2.171899795532227h-1.707000732421875l-.33599853515625,1.1875h-1.155990600585938l1.862991333007812-5.6875h.996002197265625l1.8280029296875,5.6875h-1.156005859375l-.332000732421875-1.1875Zm-1.43798828125-.933600425720215h1.17999267578125l-.582000732421875-2.09369945526123-.597991943359375,2.09369945526123Zm3.360000610351562-3.566399574279785h1.092987060546875v4.804699897766113h1.551010131835938v-4.804699897766113h1.10198974609375v4.808600425720215h.738006591796875l-.0780029296875,2.249999046325684h-1.0159912109375v-1.371099472045898h-3.389999389648438v-5.6875Zm7.522994995117188,0h1.102005004882812v5.6875h-1.102005004882812v-3.628899574279785l-1.613006591796875,3.628899574279785h-1.097991943359375v-5.6875h1.097991943359375v3.632800102233887l1.613006591796875-3.632800102233887Zm4.63299560546875,5.6875v-2.238300323486328h-.878997802734375l-1.069992065429688,2.238300323486328h-1.176010131835938l1.230010986328125-2.570300102233887c-.302001953125-.148499488830566-.532012939453125-.34119987487793-.691009521484375-.578100204467773-.155990600585938-.239599227905273-.233993530273438-.52869987487793-.233993530273438-.867199897766113,0-.273499488830566.047988891601562-.514299392700195.143997192382812-.722700119018555.095993041992188-.20829963684082.233993530273438-.382789611816406.41400146484375-.523419380187988.181991577148438-.140620231628418.401992797851562-.246089935302734.660003662109375-.316400527954102.25799560546875-.072919845581055.5469970703125-.109379768371582.866989135742188-.109379768371582h1.83599853515625v5.6875h-1.100997924804688Zm-1.722991943359375-3.949199676513672c0,.296899795532227.082000732421875.516900062561035.246002197265625.660099983215332.163986206054688.14069938659668.4119873046875.210999488830566.741989135742188.210999488830566h.735000610351562v-1.718799591064453h-.735000610351562c-.337997436523438,0-.587997436523438.074199676513672-.75.222700119018555-.157989501953125.148399353027344-.237991333007812.356800079345703-.237991333007812.625Zm-40.262008666992188,8.152299880981445h-2.582000732421875v4.796899795532227h-1.097000122070312v-5.6875h3.679000854492188v.890600204467773Zm5.055007934570312,2.371099472045898c0,.364601135253906-.048004150390625.70050048828125-.143997192382812,1.007801055908203-.097000122070312.30729866027832-.236007690429688.571599960327148-.417999267578125.792999267578125-.183013916015625.221399307250977-.405014038085938.394500732421875-.668014526367188.519500732421875-.260986328125.122398376464844-.55499267578125.183599472045898-.88299560546875.183599472045898s-.6199951171875-.061201095581055-.875-.183599472045898c-.254989624023438-.125-.470001220703125-.298101425170898-.645004272460938-.519500732421875-.173995971679688-.224000930786133-.306991577148438-.488300323486328-.397994995117188-.792999267578125-.09100341796875-.307300567626953-.136993408203125-.643199920654297-.136993408203125-1.007801055908203v-.828100204467773c0-.364599227905273.045989990234375-.700498580932617.136993408203125-1.00779914855957s.2239990234375-.571599960327148.397994995117188-.793001174926758c.175003051757812-.223899841308594.38800048828125-.398399353027344.641006469726562-.523399353027344.2550048828125-.125.5469970703125-.1875.875-.1875.33099365234375,0,.626007080078125.0625.886993408203125.1875.26300048828125.125.485000610351562.29949951171875.668014526367188.523399353027344.181991577148438.221401214599609.320999145507812.485700607299805.417999267578125.793001174926758.095993041992188.307300567626953.143997192382812.643199920654297.143997192382812,1.00779914855957v.828100204467773Zm-1.113006591796875-.835899353027344c0-.231800079345703-.020004272460938-.445301055908203-.058990478515625-.640600204467773-.0360107421875-.195400238037109-.095001220703125-.363300323486328-.175003051757812-.503900527954102-.081008911132812-.14069938659668-.18499755859375-.25-.313003540039062-.32819938659668-.125-.080699920654297-.276992797851562-.121099472045898-.457000732421875-.121099472045898-.177001953125,0-.326004028320312.040399551391602-.444992065429688.121099472045898-.120010375976562.07819938659668-.21600341796875.1875-.28900146484375.32819938659668-.073013305664062.140600204467773-.125.308500289916992-.157012939453125.503900527954102-.030990600585938.19529914855957-.0469970703125.40880012512207-.0469970703125.640600204467773v.835899353027344c0,.22920036315918.016006469726562.441400527954102.0469970703125.636699676513672.032012939453125.195301055908203.083999633789062.364601135253906.157012939453125.507900238037109.072998046875.143199920654297.168991088867188.25520133972168.28900146484375.335901260375977.118988037109375.080699920654297.268997192382812.121099472045898.448989868164062.121099472045898.177001953125,0,.3280029296875-.040399551391602.4530029296875-.121099472045898.128005981445312-.080699920654297.229995727539062-.191400527954102.309005737304688-.332000732421875.080001831054688-.143301010131836.139999389648438-.3125.179000854492188-.507900238037109.038986206054688-.19529914855957.058990478515625-.40880012512207.058990478515625-.640600204467773v-.835899353027344Zm5.746002197265625-2.425800323486328v5.6875h-1.102005004882812v-4.796899795532227h-1.17498779296875l-.020004272460938,2.086000442504883c-.00799560546875.497400283813477-.0469970703125.917900085449219-.11700439453125,1.261699676513672-.0679931640625.343700408935547-.1669921875.623699188232422-.2969970703125.839799880981445-.1300048828125.213600158691406-.292999267578125.368499755859375-.488006591796875.464899063110352-.195999145507812.09630012512207-.422988891601562.144500732421875-.683990478515625.144500732421875h-.27301025390625v-.88279914855957h.156005859375c.128005981445312-.01300048828125.22900390625-.050800323486328.305007934570312-.113300323486328.077987670898438-.065099716186523.137985229492188-.16670036315918.178985595703125-.30470085144043.045013427734375-.140600204467773.07501220703125-.324199676513672.090011596679688-.550800323486328.0159912109375-.229099273681641.0260009765625-.515600204467773.030990600585938-.859298706054688l.024002075195312-2.976600646972656h3.371002197265625Zm4.977005004882812,3.261699676513672c0,.364601135253906-.04901123046875.70050048828125-.145004272460938,1.007801055908203-.095993041992188.30729866027832-.235992431640625.571599960327148-.417999267578125.792999267578125s-.404998779296875.394500732421875-.667999267578125.519500732421875c-.259994506835938.122398376464844-.555007934570312.183599472045898-.88299560546875.183599472045898-.3280029296875,0-.620010375976562-.061201095581055-.875-.183599472045898-.2550048828125-.125-.470001220703125-.298101425170898-.644012451171875-.519500732421875-.17498779296875-.224000930786133-.307998657226562-.488300323486328-.39898681640625-.792999267578125-.09100341796875-.307300567626953-.136001586914062-.643199920654297-.136001586914062-1.007801055908203v-.828100204467773c0-.364599227905273.044998168945312-.700498580932617.136001586914062-1.00779914855957.090988159179688-.307300567626953.2239990234375-.571599960327148.39898681640625-.793001174926758.17401123046875-.223899841308594.38800048828125-.398399353027344.639999389648438-.523399353027344.256011962890625-.125.547012329101562-.1875.875-.1875.331008911132812,0,.62701416015625.0625.887008666992188.1875.26300048828125.125.485992431640625.29949951171875.667999267578125.523399353027344.1820068359375.221401214599609.322006225585938.485700607299805.417999267578125.793001174926758s.145004272460938.643199920654297.145004272460938,1.00779914855957v.828100204467773Zm-1.113998413085938-.835899353027344c0-.231800079345703-.019012451171875-.445301055908203-.057998657226562-.640600204467773-.037002563476562-.195400238037109-.095001220703125-.363300323486328-.176010131835938-.503900527954102-.08099365234375-.14069938659668-.18499755859375-.25-.313003540039062-.32819938659668-.125-.080699920654297-.276992797851562-.121099472045898-.457000732421875-.121099472045898-.176986694335938,0-.324996948242188.040399551391602-.444992065429688.121099472045898-.1199951171875.07819938659668-.21600341796875.1875-.28900146484375.32819938659668-.072998046875.140600204467773-.125.308500289916992-.156005859375.503900527954102-.031997680664062.19529914855957-.0469970703125.40880012512207-.0469970703125.640600204467773v.835899353027344c0,.22920036315918.014999389648438.441400527954102.0469970703125.636699676513672.031005859375.195301055908203.0830078125.364601135253906.156005859375.507900238037109.072998046875.143199920654297.16900634765625.25520133972168.28900146484375.335901260375977s.270004272460938.121099472045898.449005126953125.121099472045898c.176986694335938,0,.327987670898438-.040399551391602.452987670898438-.121099472045898.128005981445312-.080699920654297.231002807617188-.191400527954102.309005737304688-.332000732421875.08099365234375-.143301010131836.141006469726562-.3125.180007934570312-.507900238037109.038986206054688-.19529914855957.057998657226562-.40880012512207.057998657226562-.640600204467773v-.835899353027344Zm5.808990478515625,4.660099029541016h-.944992065429688v-1.398399353027344h-2.152999877929688v1.398399353027344h-.926010131835938l-.170989990234375-2.281198501586914h.209991455078125c.120010375976562-.0625.2239990234375-.149801254272461.313003540039062-.261701583862305.089004516601562-.11199951171875.162994384765625-.263099670410156.223007202148438-.45319938659668.05999755859375-.192699432373047.107986450195312-.430900573730469.143997192382812-.714799880981445.037002563476562-.286500930786133.063003540039062-.635400772094727.0780029296875-1.046899795532227l.156997680664062-2.328100204467773h2.807998657226562v4.80470085144043h.417999267578125l-.156005859375,2.281198501586914Zm-2.125-4.75779914855957c-.01300048828125.304698944091797-.032989501953125.580799102783203-.058990478515625.82819938659668-.02301025390625.24730110168457-.054000854492188.472600936889648-.094009399414062.675701141357422-.03900146484375.200599670410156-.083999633789062.381498336791992-.136001586914062.542999267578125-.052001953125.158899307250977-.110000610351562.302099227905273-.1719970703125.42970085144043h1.229995727539062v-3.914100646972656h-.67498779296875l-.094009399414062,1.4375Zm5.86700439453125,2.171899795532227h-1.707000732421875l-.33599853515625,1.1875h-1.156005859375l1.863006591796875-5.6875h.996002197265625l1.8280029296875,5.6875h-1.156005859375l-.332000732421875-1.1875Zm-1.436996459960938-.933599472045898h1.179000854492188l-.582000732421875-2.093700408935547-.597000122070312,2.093700408935547Z" fill="#fff"/>
    </g>
  </g>
</svg>