<?xml version="1.0" encoding="UTF-8"?>
<svg id="uuid-8752718a-e47d-4239-84c9-28cb1c1fe337" data-name="Layer 1" xmlns="http://www.w3.org/2000/svg" width="101" height="101" xmlns:xlink="http://www.w3.org/1999/xlink" viewBox="0 0 101 101">
  <defs>
    <clipPath id="uuid-5b255af0-f565-4957-a73f-d4c98ddf0866">
      <rect width="101" height="101" fill="none"/>
    </clipPath>
  </defs>
  <g clip-path="url(#uuid-5b255af0-f565-4957-a73f-d4c98ddf0866)" fill="none">
    <g>
      <path d="m101,0H0v101h101V0Z" fill="#566e78"/>
      <path d="m85.108651123046002,63.213298797607422c0-2.825099945068359-1.766482849119711-5.120597839355469-4.591449890136573-5.120597839355469-1.411990356444221,0-3.001735534668114,1.589199066162109-3.884468383788771,2.472000122070312-.882732849120657-.882801055908203-2.472478027342731-2.472000122070312-3.884437561035156-2.472000122070312-2.649246520995803,0-4.591480712890188,2.295497894287109-4.591480712890188,5.120597839355469,0,1.412601470947266.530243835448346,2.648601531982422,1.413007507324437,3.708103179931641l7.062910766600908,7.062896728515625,7.062941589356342-7.062896728515625c.882732849120657-1.059501647949219,1.412976684569003-2.295501708984375,1.412976684569003-3.708103179931641Z" fill="#fff" fill-rule="evenodd"/>
      <path d="m55.090463562011792,85.461502075195312c-.529257507323564,0-1.059501342773729-.353103637695312-1.235252685546584-1.059402465820312l-3.531963958741471-20.835700988769531-5.473180999755641,10.064704895019531c-.176753082274445.353096008300781-.707012329101417.706298828125-1.236239013671366.529693603515625-.530259246825153-.176597595214844-.882748260497465-.529693603515625-.882748260497465-1.059394836425781l-2.295724945068287-16.068202972412109-4.237959136962672,9.534900665283203c-.176753082276264.353202819824219-.529242095948575.706298828125-1.059501342773729.706298828125h-16.421577301025536c-.70599517822302,0-1.235237274169776-.529701232910156-1.235237274169776-1.236000061035156s.529242095946756-1.236000061035156,1.235237274169776-1.236000061035156h15.715597534179324l5.473180999755641-12.536697387695312c.176753082276264-.529701232910156.707012329101417-.706302642822266,1.236239013671366-.706302642822266.530259246826972,0,.882748260499284.529701232910156,1.059501342773729,1.059402465820312l2.47247802734455,16.597896575927734,5.296443328858004-9.888095855712891c.176737670897637-.353103637695312.706981506345983-.706302642822266,1.236239013671366-.529701232910156.530243835448346,0,.882732849120657.529701232910156.882732849120657.882900238037109l3.355210876465208,19.423095703125,12.183648986816479-40.258796691894531c.176737670897637-.529701232910156.529226684569949-.882801055908203,1.059470520018294-.882801055908203.529257507325383,0,.882763671876091.176502227783203,1.236239013673185.706199645996094l6.355929260253106,13.24310302734375c.353506164550708.529697418212891,0,1.236000061035156-.529226684569949,1.589099884033203-.530243835448346.176597595214844-1.236239013671366,0-1.589745178222074-.529701232910156l-5.11969024658174-10.594398498535156-12.890630493164281,42.200996398925781c-.175720520021059.529800415039062-.529226684571768.882904052734375-1.059470520020113.882904052734375Z" fill="#fff" fill-rule="evenodd"/>
      <path d="m15.185353698730978,29.311199188232422c3.354209136961799,0,4.943938903808885-1.76569938659668,4.943938903808885-4.590898513793945v-3.001701354980469c0-1.942298889160156-.705979766846212-3.178298950195312-2.47247802734455-3.531499862670898,1.412992095947629-.529699325561523,2.295740356445094-1.589099884033203,2.295740356445094-3.354899406433105v-1.765700340270996c0-2.825200080871582-1.412992095947629-4.590909957885742-4.414712219238936-4.590909957885742-3.530962219238063,0-4.767201232909429,2.11890983581543-4.767201232909429,5.120610237121582v1.765700340270996h3.001720123291307v-2.295400619506836c0-1.236000061035156.353490753173901-1.942299842834473,1.412992095947629-1.942299842834473,1.059485931395102,0,1.411974945067414.706299781799316,1.411974945067414,1.765700340270996v2.118899345397949c0,1.059399604797363-.70599517822302,1.589200019836426-1.765481109618122,1.589200019836426h-1.236239013673185v2.825099945068359h1.412992095947629c1.236239013671366,0,1.588728027343677.529800415039062,1.588728027343677,1.589200973510742v3.354900360107422c0,1.059398651123047-.529242095946756,1.76569938659668-1.588728027343677,1.76569938659668s-1.589745178222074-.706300735473633-1.589745178222074-1.942300796508789v-3.001699447631836h-3.001720123291307v2.648599624633789c.176753082276264,3.354900360107422,1.236239013671366,5.473699569702148,4.768218383789645,5.473699569702148Z" fill="#fff" fill-rule="evenodd"/>
      <path d="m31.960437164307223,12.713299751281738h2.11898727416883v4.591000556945801h-1.059501342773729v-.882900238037109c-.176737670897637.706300735473633-.530243835448346,1.05940055847168-1.412976684569003,1.05940055847168-1.236239013673185,0-1.765481109619941-.882801055908203-1.765481109619941-2.295400619506836v-4.237799644470215c0-1.412569999694824.705979766846212-2.295440673828125,2.118971862793842-2.295440673828125,1.588728027343677,0,2.11898727416883.882870674133301,2.11898727416883,2.118840217590332v.706299781799316h-1.412992095947629v-.706299781799316c0-.52970027923584-.176753082274445-.882829666137695-.705995178221201-.882829666137695-.530243835450165,0-.706996917724609.353129386901855-.706996917724609.882829666137695v4.591000556945801c0,.529699325561523.176753082274445.882800102233887.706996917724609.882800102233887.529242095946756,0,.705995178221201-.176601409912109.705995178221201-.882800102233887v-1.412600517272949h-.705995178221201v-1.236100196838379Z" fill="#fff" fill-rule="evenodd"/>
      <path d="m34.961155548095121,15.00879955291748v-4.061199188232422c0-1.412569999694824.706996917724609-2.295440673828125,2.118971862793842-2.295440673828125,1.412992095947629,0,2.11898727416883.882870674133301,2.11898727416883,2.295440673828125v4.061199188232422c0,1.412600517272949-.705995178221201,2.295500755310059-2.11898727416883,2.295500755310059-1.411974945069232,0-2.118971862793842-.882900238037109-2.118971862793842-2.295500755310059Zm2.824967041016862.353100776672363v-4.590900421142578c0-.52970027923584-.175735931397867-.882829666137695-.70599517822302-.882829666137695-.529242095948575,0-.705979766846212.353129386901855-.705979766846212.882829666137695v4.590900421142578c0,.529799461364746.176737670897637.882900238037109.705979766846212.882900238037109.530259246825153,0,.70599517822302-.353100776672363.70599517822302-.882900238037109Z" fill="#fff" fill-rule="evenodd"/>
      <path d="m39.906111602782403,15.00879955291748v-4.061199188232422c0-1.412569999694824.70599517822302-2.295440673828125,2.118971862793842-2.295440673828125,1.411990356444221,0,2.11898727416883.882870674133301,2.11898727416883,2.295440673828125v4.061199188232422c0,1.412600517272949-.706996917724609,2.295500755310059-2.11898727416883,2.295500755310059-1.412976684570822,0-2.118971862793842-.882900238037109-2.118971862793842-2.295500755310059Zm2.824967041016862.353100776672363v-4.590900421142578c0-.52970027923584-.176753082276264-.882829666137695-.70599517822302-.882829666137695-.530243835450165,0-.706996917724609.353129386901855-.706996917724609.882829666137695v4.590900421142578c0,.529799461364746.176753082274445.882900238037109.706996917724609.882900238037109.529242095946756,0,.70599517822302-.353100776672363.70599517822302-.882900238037109Z" fill="#fff" fill-rule="evenodd"/>
      <path d="m49.263760986328634,10.947600364685059v3.884599685668945c0,1.23599910736084-.530243835450165,2.295500755310059-2.118987274170649,2.295500755310059h-2.118971862792023v-8.475541114807129h2.118971862792023c1.588743438720485,0,2.118987274170649,1.059440612792969,2.118987274170649,2.295440673828125Zm-2.118987274170649,5.120598793029785c.529242095946756,0,.882748260497465-.35309886932373.882748260497465-.88279914855957v-4.414400100708008c0-.52970027923584-.176753082274445-.882829666137695-.882748260497465-.882829666137695h-.529226684569949v6.180028915405273h.529226684569949Z" fill="#fff" fill-rule="evenodd"/>
      <path d="m54.384468383788771,13.419599533081055h-1.413007507324437v3.708101272583008h-1.588728027343677v-8.475541114807129h1.588728027343677v3.531440734863281h1.413007507324437v-3.531440734863281h1.412976684570822v8.475541114807129h-1.412976684570822v-3.708101272583008Z" fill="#fff" fill-rule="evenodd"/>
      <path d="m56.503440246582613,8.652159690856934h3.355210876463389v1.236010551452637h-1.942234191894386v2.295430183410645h1.413007507324437v1.23599910736084h-1.413007507324437v2.648599624633789h1.942234191894386v1.059501647949219h-3.355210876463389v-8.475541114807129Z" fill="#fff" fill-rule="evenodd"/>
      <path d="m60.564646301269022,17.127700805664062l1.588728027343677-8.475541114807129h1.589745178223893l1.588728027343677,8.475541114807129h-1.41199035644604l-.176737670897637-1.589200973510742h-1.589745178223893l-.176737670897637,1.589200973510742h-1.41199035644604Zm1.765496520996749-2.648600578308105h1.236239013671366l-.53027465820378-3.354900360107422-.705964355467586,3.354900360107422Z" fill="#fff" fill-rule="evenodd"/>
      <path d="m66.038859863281687,8.652159690856934h1.411959533690606v7.41603946685791h1.766513671875146v1.059501647949219h-3.178473205565751v-8.475541114807129Z" fill="#fff" fill-rule="evenodd"/>
      <path d="m68.863826904296729,8.652159690856934h3.707699890137519v1.236010551452637h-1.059501342773729v7.239530563354492h-1.588728027343677v-7.239530563354492h-1.059470520020113v-1.236010551452637Z" fill="#fff" fill-rule="evenodd"/>
      <path d="m76.103506164550708,13.419599533081055h-1.413007507324437v3.708101272583008h-1.411959533690606v-8.475541114807129h1.411959533690606v3.531440734863281h1.413007507324437v-3.531440734863281h1.412976684570822v8.475541114807129h-1.412976684570822v-3.708101272583008Z" fill="#fff" fill-rule="evenodd"/>
      <path d="m29.664712219238936,29.311199188232422l1.589745178222074-8.475500106811523h1.588728027343677l1.588728027343677,8.475500106811523h-1.41199035644604l-.176737670897637-1.589099884033203h-1.588728027343677l-.176753082276264,1.589099884033203h-1.41299209594581Zm1.765481109618122-2.825199127197266h1.059485931396921l-.529242095946756-3.354900360107422-.530243835450165,3.354900360107422Z" fill="#fff" fill-rule="evenodd"/>
      <path d="m36.197394561768306,23.837400436401367v5.473798751831055h-1.059501342773729v-8.475500106811523h1.236254425048173l1.588728027343677,4.767501831054688v-4.767501831054688h1.236239013671366v8.475500106811523h-1.236239013671366l-1.765481109618122-5.473798751831055Z" fill="#fff" fill-rule="evenodd"/>
      <path d="m44.144070739745075,22.954500198364258v3.884599685668945c0,1.236000061035156-.530243835448346,2.295499801635742-2.11898727416883,2.295499801635742h-2.118971862793842v-8.475500106811523h2.118971862793842c1.588743438720485.17650032043457,2.11898727416883,1.05940055847168,2.11898727416883,2.295400619506836Zm-2.11898727416883,5.120599746704102c.529242095946756,0,.882748260497465-.353099822998047.882748260497465-.88279914855957v-4.414400100708008c0-.529701232910156-.176753082274445-.882801055908203-.882748260497465-.882801055908203h-.530243835450165v6.180000305175781h.530243835450165Z" fill="#fff" fill-rule="evenodd"/>
      <path d="m49.441515808104668,24.013999938964844l-.883749999999054,5.297199249267578h-1.235221862792969l-1.236239013671366-8.475500106811523h1.411974945067414l.706996917724609,5.297201156616211.70599517822302-5.297201156616211h1.059485931396921l.882748260497465,5.297201156616211.70599517822302-5.297201156616211h1.059470520020113l-1.059470520020113,8.475500106811523h-1.235237274169776l-.882748260499284-5.297199249267578Z" fill="#fff" fill-rule="evenodd"/>
      <path d="m53.324967041015043,20.835699081420898h3.530962219238063v1.05940055847168h-2.118971862792023v2.472101211547852h1.589745178222074v1.059398651123047h-1.589745178222074v2.648599624633789h2.118971862792023v1.236000061035156h-3.530962219238063v-8.475500106811523Z" fill="#fff" fill-rule="evenodd"/>
      <path d="m57.562941589356342,20.835699081420898h1.412976684569003v7.239500045776367h1.765496520996749v1.236000061035156h-3.178473205565751v-8.475500106811523Z" fill="#fff" fill-rule="evenodd"/>
      <path d="m61.447379150391498,20.835699081420898h1.411990356444221v7.239500045776367h1.76648284912153v1.236000061035156h-3.178473205565751v-8.475500106811523Z" fill="#fff" fill-rule="evenodd"/>
      <path d="m66.215597534179324,24.543800354003906h-1.942234191894386v1.236000061035156h1.942234191894386v-1.236000061035156Z" fill="#fff"/>
      <path d="m67.098330383299981,20.835699081420898h2.11798553466906c1.412976684569003,0,1.943220520019167.706300735473633,1.943220520019167,1.765701293945312v.882900238037109c0,.706298828125-.176737670897637,1.236000061035156-.883749999999054,1.412599563598633.707012329101417.176599502563477,1.05950134277191.706300735473633,1.05950134277191,1.412599563598633v1.05940055847168c0,1.236000061035156-.529226684569949,1.76569938659668-1.942234191894386,1.76569938659668h-2.294723205566697v-8.298900604248047Zm1.41199035644604,3.531501770019531h.530243835450165c.529257507323564,0,.705995178221201-.176601409912109.705995178221201-.706300735473633v-1.059499740600586c0-.529701232910156-.176737670897637-.706300735473633-.705995178221201-.706300735473633h-.530243835450165v2.472101211547852Zm0,1.059398651123047v2.648599624633789h.70599517822302c.530243835448346,0,.706981506347802-.176599502563477.706981506347802-.706298828125v-1.236000061035156c0-.353200912475586-.176737670899456-.706300735473633-.706981506347802-.706300735473633h-.70599517822302Z" fill="#fff" fill-rule="evenodd"/>
      <path d="m72.042300109862481,20.835699081420898h3.355210876465208v1.05940055847168h-1.942234191894386v2.472101211547852h1.41199035644604v1.059398651123047h-1.41199035644604v2.648599624633789h1.942234191894386v1.236000061035156h-3.355210876465208v-8.475500106811523Z" fill="#fff" fill-rule="evenodd"/>
      <path d="m77.515465698241314,20.835699081420898h-1.236239013671366v8.475500106811523h1.236239013671366v-8.475500106811523Z" fill="#fff"/>
      <path d="m79.634468383788771,23.837400436401367v5.473798751831055h-1.236239013671366v-8.475500106811523h1.412976684570822l1.588728027343677,4.767501831054688v-4.767501831054688h1.236239013671366v8.475500106811523h-1.412976684570822l-1.588728027343677-5.473798751831055Z" fill="#fff" fill-rule="evenodd"/>
      <path d="m85.637908630371385,24.543699264526367h2.118971862792023v4.590900421142578h-1.05950134277191v-.882900238037109c-.176737670899456.706300735473633-.529226684571768,1.059499740600586-1.411959533692425,1.059499740600586-1.236239013671366,0-1.766513671875146-.882898330688477-1.766513671875146-2.295499801635742v-4.061199188232422c0-1.412599563598633.707012329101417-2.295400619506836,2.119002685547457-2.295400619506836,1.589745178222074,0,2.118971862792023.882801055908203,2.118971862792023,2.118801116943359v.706298828125h-1.411990356444221v-.88279914855957c0-.529800415039062-.176737670899456-.882900238037109-.706981506347802-.882900238037109-.529257507325383,0-.70599517822302.353099822998047-.70599517822302.882900238037109v4.590900421142578c0,.529699325561523.176737670897637.88279914855957.70599517822302.88279914855957.530243835448346,0,.706981506347802-.17650032043457.706981506347802-.88279914855957v-1.589200973510742h-.706981506347802v-1.05940055847168Z" fill="#fff" fill-rule="evenodd"/>
      <rect x="28.280000000000655" y="6" width="64.639999999999418" height="32" fill="#566e78"/>
      <path d="m28.72238357543938,11.35159969329834l1.021111602784003-2.03909969329834h1.301891479492042l-1.617023315429833,2.820300102233887,1.65639938354434,2.867199897766113h-1.293800506591651l-1.053429260253324-2.070300102233887-1.049391479493352,2.070300102233887h-1.309967041015625l1.657401123047748-2.867199897766113-1.613971862792823-2.820300102233887h1.293800506591651l1.006979370116824,2.03909969329834Zm6.915470123291016,1.222599983215332c0,.36460018157959-.048484191895113.70050048828125-.145437164306713,1.007800102233887-.097970123289997.307300567626953-.23836776733333.571599960327148-.422179260254779.793000221252441-.184844055174835.221400260925293-.409064178465997.394499778747559-.674694671630277.519499778747559-.263596191405668.122400283813477-.560542602539499.183600425720215-.891825561522637.183600425720215-.331282958984957,0-.626195068360175-.061200141906738-.883750000000873-.183600425720215-.25753952026389-.125-.474701232909865-.298099517822266-.65145431518431-.519499778747559-.175735931397867-.223999977111816-.310061492920795-.488300323486328-.401974945069014-.793000221252441-.091913452148219-.307299613952637-.13836334228472-.643199920654297-.13836334228472-1.007800102233887v-.828099250793457c0-.36460018157959.0464498901365-.70050048828125.13836334228472-1.007800102233887.091913452148219-.307300567626953.226239013671147-.571599960327148.401974945069014-.792990684509277.176753082274445-.223959922790527.391880493163626-.398429870605469.647416534422518-.523429870605469.257554931640698-.125.552467041015916-.1875.883750000000873-.1875.334303588866533,0,.632267150878761.0625.895863342284429.1875.265630493164281.125.489850616455442.299469947814941.674694671630277.523429870605469.18381149292145.221390724182129.324209136964782.485690116882324.422179260254779.792990684509277.0969529724116.307299613952637.145437164306713.643199920654297.145437164306713,1.007800102233887v.828099250793457Zm-1.124136657714189-.835899353027344c0-.231800079345703-.020204315185765-.445300102233887-.059580383302091-.640600204467773-.03637084960792-.195400238037109-.095951232910011-.363300323486328-.176753082274445-.503900527954102-.08181900024465-.14069938659668-.186847534179833-.25-.31613357543938-.32819938659668-.126250000001164-.080699920654297-.279762725829642-.121100425720215-.461570739746094-.121100425720215-.17877197265625,0-.329264068603152.040400505065918-.449441986083912.121100425720215-.121210479735964.07819938659668-.218163452149383.1875-.291891479491824.32819938659668-.073743438721067.140600204467773-.126250000001164.308500289916992-.158583068849111.503900527954102-.031300506590924.195300102233887-.047467041014897.40880012512207-.047467041014897.640600204467773v.835899353027344c0,.22920036315918.016166534423974.441400527954102.047467041014897.636700630187988.032333068847947.195300102233887.084839630128045.364599227905273.158583068849111.507899284362793.07372802734244.143200874328613.170680999755859.255200386047363.291891479491824.33590030670166.12017791748076.080699920654297.271687164306059.121100425720215.453479766845703.121100425720215.17877197265625,0,.331282958983138-.040400505065918.457532958984302-.121100425720215.129286041259547-.080699920654297.232295684814744-.191399574279785.312095794677589-.331999778747559.080801849364434-.14330005645752.141399383544922-.3125.180790863036236-.507900238037109.039376068116326-.195300102233887.059580383302091-.40880012512207.059580383302091-.640600204467773v-.835899353027344Zm3.148174438476417,1.175799369812012v2.08590030670166h-1.108987274170431v-5.6875h1.965459136963545c.313112945555986,0,.59591171264583.045570373535156.848411712646339.136719703674316.25249999999869.088540077209473.466610260009475.213540077209473.64236160278233.375.178756561279442.15885066986084.316118164062573.35028076171875.411067657470994.574180603027344.0969529724116.223999977111816.145437164306713.472700119018555.145437164306713.746099472045898,0,.255200386047363-.048484191895113.490900039672852-.145437164306713.707099914550781-.094949493408421.216100692749023-.232311096191552.403600692749023-.411067657470994.5625-.175751342772855.156200408935547-.38986160278364.278600692749023-.64236160278233.367100715637207-.252500000000509.08859920501709-.535298767090353.132899284362793-.848411712646339.132899284362793h-.856471862793114Zm0-.89069938659668h.856471862793114c.157565917968896,0,.29391036987181-.02340030670166.410065917967586-.070300102233887s.212106781005787-.110700607299805.287853698730032-.191400527954102c.078782958986267-.080699920654297.137361602784949-.173199653625488.173717041016062-.277299880981445.039391479493133-.106800079345703.059595794678899-.217499732971191.059595794678899-.332099914550781,0-.132800102233887-.020204315185765-.256500244140625-.059595794678899-.371099472045898-.036355438231112-.114500045776367-.094934082029795-.214800834655762-.173717041016062-.300700187683105-.075746917724246-.086000442504883-.171698150634256-.15369987487793-.287853698730032-.203200340270996-.116155548095776-.049400329589844-.25249999999869-.074199676513672-.410065917967586-.074199676513672h-.856471862793114v1.820300102233887Zm7.682062835692705.550799369812012c0,.36460018157959-.04950134277351.70050048828125-.14645431518511,1.007800102233887-.0969529724116.307300567626953-.238352355956522.571599960327148-.422179260254779.793000221252441-.183826904296438.221400260925293-.409048767089189.394499778747559-.67467926025347.519499778747559-.262594451904079.122400283813477-.560558013916307.183600425720215-.891825561522637.183600425720215-.331282958984957,0-.626210479736983-.061200141906738-.883750000000873-.183600425720215-.257554931640698-.125-.474701232909865-.298099517822266-.650452575682721-.519499778747559-.176737670899456-.223999977111816-.311078643799192-.488300323486328-.402976684570604-.793000221252441-.091913452148219-.307299613952637-.13736160278313-.643199920654297-.13736160278313-1.007800102233887v-.828099250793457c0-.36460018157959.045448150634911-.70050048828125.13736160278313-1.007800102233887.091898040771412-.307300567626953.226239013671147-.571599960327148.402976684570604-.792990684509277.175751342772855-.223959922790527.391880493163626-.398429870605469.646399383544122-.523429870605469.258572082519095-.125.552482452392724-.1875.883750000000873-.1875.33431900024334,0,.633284301757158.0625.895878753661236.1875.265630493164281.125.490852355957031.299469947814941.67467926025347.523429870605469.183826904298257.221390724182129.325226287843179.485690116882324.422179260254779.792990684509277.0969529724116.307299613952637.14645431518511.643199920654297.14645431518511,1.007800102233887v.828099250793457Zm-1.125138397217597-.835899353027344c0-.231800079345703-.019202575682357-.445300102233887-.058578643798683-.640600204467773-.037372589111328-.195400238037109-.095951232910011-.363300323486328-.177770233152842-.503900527954102-.081803588867842-.14069938659668-.186847534179833-.25-.31613357543938-.32819938659668-.126250000001164-.080699920654297-.279762725831461-.121100425720215-.461570739746094-.121100425720215-.178756561279442,0-.328246917724755.040400505065918-.449441986083912.121100425720215-.121195068360976.07819938659668-.218163452149383.1875-.291891479493643.32819938659668-.07372802734244.140600204467773-.126249999999345.308500289916992-.157565917968896.503900527954102-.032317657469321.195300102233887-.047467041014897.40880012512207-.047467041014897.640600204467773v.835899353027344c0,.22920036315918.015149383545577.441400527954102.047467041014897.636700630187988.03131591796955.195300102233887.083837890626455.364599227905273.157565917968896.507899284362793.073728027344259.143200874328613.170696411132667.255200386047363.291891479493643.33590030670166.121195068359157.080699920654297.272704315184455.121100425720215.453495178222511.121100425720215.178756561279442,0,.33126754760633-.040400505065918.457517547607495-.121100425720215.129286041259547-.080699920654297.233312835693141-.191399574279785.312095794677589-.331999778747559.081803588866023-.14330005645752.142416534423319-.3125.181808013914633-.507900238037109.039376068116326-.195300102233887.058578643798683-.40880012512207.058578643798683-.640600204467773v-.835899353027344Zm2.852229766845994-2.425800323486328v4.804699897766113h.552467041015916v-4.804699897766113h1.046370849609957v4.804699897766113h.544391479492333v-4.804699897766113h1.076654205322484v5.6875h-4.300575561524965v-5.6875h1.080691986084275Zm7.50430801391667,3.195300102233887h-2.359358520507158v1.605500221252441h2.75829742431597v.886699676513672h-3.870320739746603v-5.6875h3.858207397461229v.894499778747559h-2.746184082030595v1.433600425720215h2.359358520507158v.867199897766113Zm4.853042602539062,0h-2.359358520507158v1.605500221252441h2.757311096191188v.886699676513672h-3.870320739746603v-5.6875h3.85919372558601v.894499778747559h-2.746184082030595v1.433600425720215h2.359358520507158v.867199897766113Zm-28.63147186279275,7.347699165344238c0,.13020133972168-.021221466064162.25520133972168-.062631835937282.375-.039376068116326.119800567626953-.097970123291816.232999801635742-.173717041016062.339799880981445-.076748657225835.10420036315918-.16967926025427.199201583862305-.280779876708039.285200119018555-.110083465577191.085901260375977-.235331726074946.160100936889648-.374712219239882.222600936889648.318152465821186.109399795532227.560558013916307.276100158691406.726199493408785.5.168662109375873.221399307250977.252500000000509.497400283813477.252500000000509.828100204467773,0,.26569938659668-.055558013917107.50269889831543-.165641479492479.711000442504883-.108064575195385.20829963684082-.258556671142287.384099960327148-.453495178222511.527299880981445-.191902465820021.14069938659668-.423180999756369.248699188232422-.694883575439235.324298858642578-.267649383546086.072900772094727-.561559753417896.10930061340332-.879696807862274.10930061340332-.257554931640698,0-.51309097289959-.031200408935547-.7655909729001-.093700408935547-.252500000000509-.065099716186523-.479740753173246-.164100646972656-.681737670898656-.296899795532227-.199993438720412-.135400772094727-.363600616454278-.307300567626953-.489850616455442-.515600204467773-.123229370115951-.208400726318359-.184844055174835-.458400726318359-.184844055174835-.75h1.112023315428814c0,.10930061340332.024226684570749.210899353027344.071709136964273.30470085144043.049485931396703.093698501586914.119176177977351.175699234008789.209070739745584.246099472045898.088877410888017.07029914855957.195940246581813.126300811767578.319154205322775.167900085449219.123213958739143.039100646972656.260575561522273.058599472045898.410065917967586.058599472045898.173717041016062,0,.327229766846358-.019498825073242.461570739746094-.058599472045898.134325561522928-.041599273681641.247445068360321-.098899841308594.33935852050854-.17180061340332.091898040771412-.072999954223633.161588287353879-.157600402832031.209070739745584-.253999710083008.047467041014897-.098899841308594.071709136962454-.205699920654297.071709136962454-.32029914855957,0-.30470085144043-.086858520506212-.524700164794922-.260590972899081-.660100936889648-.171698150636075-.135398864746094-.424198150634766-.20319938659668-.757499999999709-.20319938659668h-.773651123046875v-.85930061340332h.773651123046875c.16564147949066,0,.306039123533992-.018299102783203.42217926025296-.054698944091797.118174438475762-.039100646972656.214125671385773-.093801498413086.287853698730032-.164100646972656.075746917724246-.070301055908203.131304931641353-.153600692749023.165641479492479-.25.036355438232931-.098899841308594.055558013917107-.20829963684082.055558013917107-.328100204467773,0-.101600646972656-.020204315185765-.197900772094727-.059595794678899-.289100646972656-.039391479491314-.093698501586914-.099989013671802-.174398422241211-.181808013916452-.242099761962891-.080786437987626-.067800521850586-.184828643798028-.121099472045898-.311078643797373-.160200119018555-.124231109619359-.04170036315918-.270670013429481-.0625-.442368164063737-.0625-.131304931639534,0-.253517150878906.016901016235352-.36663665771448.050800323486328-.113119506835574.03380012512207-.212106781005787.082000732421875-.295929260253615.144500732421875-.081803588867842.0625-.147456054688519.137998580932617-.19695739746021.226598739624023-.047467041016716.0885009765625-.071709136964273.1875-.071709136964273.29680061340332h-1.107970123290215c0-.25.053539123535302-.473899841308594.161603698730687-.67180061340332.110098876952179-.197898864746094.258556671142287-.365900039672852.445419616698928-.503898620605469.186847534179833-.138101577758789.402976684570604-.243499755859375.64740112304753-.316400527954102.247445068358502-.075599670410156.509037780760991-.113300323486328.784778137205649-.113300323486328.318137054444378,0,.608009643554396.035100936889648.868600616455296.105400085449219.259558410645695.067800521850586.480757904053462.170600891113281.662550506591288.308599472045898.183826904298257.135499954223633.326228027344769.30470085144043.426217041016571.507801055908203.099989013671802.200599670410156.149490356445312.433599472045898.149490356445312.699298858642578Zm4.730830383301509,5.542900085449219h-.955459136963327v-1.398399353027344h-2.173512725830733v1.398399353027344h-.93527023315437l-.173717041016062-2.281198501586914h.213108520509195c.121210479735964-.0625.226239013671147-.149801254272461.31613357543938-.261701583862305.088877410888017-.11199951171875.16463973998907-.263099670410156.225237274169558-.45319938659668.059580383300272-.192699432373047.109081726073782-.430900573730469.145437164306713-.714799880981445.037372589111328-.286500930786133.063633575438871-.635400772094727.078782958984448-1.046899795532227l.157550506592088-2.328100204467773h2.837095794677225v4.80470085144043h.42217926025296l-.157565917967077,2.281198501586914Zm-2.146250000001601-4.75779914855957c-.013130493163771.304698944091797-.033319396972729.580799102783203-.059580383300272.82819938659668-.023240356445967.24730110168457-.054540863036891.472600936889648-.094949493408421.675701141357422-.039391479491314.200599670410156-.084839630126226.381498336791992-.13736160278313.542999267578125-.052506561278278.158899307250977-.111100616455587.302099227905273-.173717041016062.42970085144043h1.24231109619177v-3.914100646972656h-.681753082275463l-.094949493408421,1.4375Zm7.109391479492842.933599472045898c0,.364601135253906-.048468780518306.70050048828125-.146438903808303,1.007801055908203-.096968383788408.30729866027832-.237350616454933.571599960327148-.422194671631587.792999267578125-.183811492919631.221399307250977-.409048767089189.394500732421875-.67467926025347.519500732421875-.262594451904079.122398376464844-.55954086303791.183599472045898-.89080841064424.183599472045898-.332300109863354,0-.626210479736983-.061201095581055-.883750000000873-.183599472045898-.258572082519095-.125-.474701232909865-.298101425170898-.65145431518431-.519500732421875-.175735931397867-.224000930786133-.310076904297603-.488300323486328-.401974945069014-.792999267578125-.092930603026616-.307300567626953-.138378753661527-.643199920654297-.138378753661527-1.007801055908203v-.828100204467773c0-.364599227905273.045448150634911-.700498580932617.138378753661527-1.00779914855957.091898040771412-.307300567626953.226239013671147-.571599960327148.401974945069014-.793001174926758.176753082274445-.223899841308594.391880493163626-.398399353027344.647416534422518-.523399353027344.25753952026389-.125.552467041015916-.1875.883750000000873-.1875.333286437988136,0,.632251739501953.0625.894846191406032.1875.265630493164281.125.490867767333839.29949951171875.67467926025347.523399353027344.184844055176654.221401214599609.325226287843179.485700607299805.422194671631587.793001174926758.097970123289997.307300567626953.146438903808303.643199920654297.146438903808303,1.00779914855957v.828100204467773Zm-1.124121246337381-.835899353027344c0-.231800079345703-.020204315185765-.445301055908203-.059595794678899-.640600204467773-.036355438231112-.195400238037109-.095951232910011-.363300323486328-.177754821776034-.503900527954102-.08181900024465-.14069938659668-.186847534179833-.25-.315131835937791-.32819938659668-.126250000001164-.080699920654297-.280779876709857-.121099472045898-.461555328369286-.121099472045898-.17877197265625,0-.329264068603152.040399551391602-.450474548339116.121099472045898-.12017791748076.07819938659668-.218148040772576.1875-.291876068116835.32819938659668-.073743438719248.140600204467773-.126249999999345.308500289916992-.157565917968896.503900527954102-.031315917967731.19529914855957-.047467041014897.40880012512207-.047467041014897.640600204467773v.835899353027344c0,.22920036315918.016151123047166.441400527954102.047467041014897.636699676513672.03131591796955.195301055908203.083822479249648.364601135253906.157565917968896.507900238037109.073728027344259.143199920654297.171698150636075.25520133972168.291876068116835.335901260375977.121210479735964.080699920654297.272704315184455.121099472045898.454512329100908.121099472045898.17877197265625,0,.33126754760633-.040399551391602.457517547607495-.121099472045898.128284301757958-.080699920654297.232311096191552-.191400527954102.311094055176-.332000732421875.081803588866023-.143301010131836.142401123046511-.3125.181792602537826-.507900238037109.039391479493133-.19529914855957.059595794678899-.40880012512207.059595794678899-.640600204467773v-.835899353027344Zm3.148159027099609,1.175800323486328v2.085899353027344h-1.108971862793624v-5.6875h1.96444198608333c.313112945557805,0,.595911712647649.045600891113281.848411712646339.136699676513672.252500000000509.088600158691406.466610260011294.213600158691406.643363342285738.375.17877197265625.158901214599609.315116424560983.350299835205078.410065917969405.574199676513672.097970123289997.224000930786133.146438903808303.472700119018555.146438903808303.746101379394531,0,.255199432373047-.048468780518306.490900039672852-.146438903808303.707099914550781-.094949493408421.216098785400391-.231293945313155.403598785400391-.410065917969405.5625-.176753082274445.156198501586914-.390863342285229.278598785400391-.643363342285738.367099761962891-.25249999999869.088600158691406-.535298767088534.132900238037109-.848411712646339.132900238037109h-.855470123289706Zm0-.890701293945312h.855470123289706c.158583068849111,0,.294927520752026-.023399353027344.411083068847802-.07029914855957.115138397217379-.046899795532227.21108963012739-.110700607299805.287838287353225-.191400527954102.078782958986267-.080699920654297.136359863281541-.173200607299805.173717041016062-.277299880981445.039391479493133-.106800079345703.05859405517549-.217500686645508.05859405517549-.332099914550781,0-.13279914855957-.019202575682357-.256500244140625-.05859405517549-.371099472045898-.037357177734521-.114500045776367-.094934082029795-.214799880981445-.173717041016062-.300701141357422-.076748657225835-.08599853515625-.172699890135846-.15369987487793-.287838287353225-.20319938659668-.116155548095776-.049400329589844-.25249999999869-.074199676513672-.411083068847802-.074199676513672h-.855470123289706v1.82029914855957Zm7.681061096191115.550800323486328c0,.364601135253906-.048484191895113.70050048828125-.145452575683521,1.007801055908203-.097970123291816.30729866027832-.238352355956522.571599960327148-.422179260254779.792999267578125-.184828643798028.221399307250977-.409048767089189.394500732421875-.67467926025347.519500732421875-.263611602782476.122398376464844-.560542602539499.183599472045898-.891825561522637.183599472045898-.331282958984957,0-.626195068360175-.061201095581055-.883750000000873-.183599472045898-.257554931640698-.125-.474701232909865-.298101425170898-.651454315186129-.519500732421875-.175735931396048-.224000930786133-.310061492918976-.488300323486328-.401974945067195-.792999267578125-.091913452148219-.307300567626953-.13836334228472-.643199920654297-.13836334228472-1.007801055908203v-.828100204467773c0-.364599227905273.0464498901365-.700498580932617.13836334228472-1.00779914855957s.226239013671147-.571599960327148.401974945067195-.793001174926758c.176753082276264-.223899841308594.391880493165445-.398399353027344.647416534424337-.523399353027344.257554931640698-.125.552467041015916-.1875.883750000000873-.1875.334303588866533,0,.632251739501953.0625.895863342284429.1875.265630493164281.125.489850616455442.29949951171875.67467926025347.523399353027344.183826904298257.221401214599609.324209136962963.485700607299805.422179260254779.793001174926758.096968383788408.307300567626953.145452575683521.643199920654297.145452575683521,1.00779914855957v.828100204467773Zm-1.124136657716008-.835899353027344c0-.231800079345703-.020204315183946-.445301055908203-.05959579467708-.640600204467773-.036355438232931-.195400238037109-.095935821533203-.363300323486328-.176737670897637-.503900527954102-.08181900024465-.14069938659668-.186847534179833-.25-.31613357543938-.32819938659668-.126250000001164-.080699920654297-.279778137208268-.121099472045898-.461570739746094-.121099472045898-.17877197265625,0-.328246917724755.040399551391602-.449457397460719.121099472045898-.121195068360976.07819938659668-.218148040772576.1875-.291876068116835.32819938659668-.073743438719248.140600204467773-.126249999999345.308500289916992-.158583068847292.503900527954102-.031300506590924.19529914855957-.0464498901365.40880012512207-.0464498901365.640600204467773v.835899353027344c0,.22920036315918.015149383545577.441400527954102.0464498901365.636699676513672.032333068847947.195301055908203.084839630128045.364601135253906.158583068847292.507900238037109.073728027344259.143199920654297.170680999755859.25520133972168.291876068116835.335901260375977.121210479735964.080699920654297.271702575682866.121099472045898.453495178222511.121099472045898.17877197265625,0,.331282958983138-.040399551391602.457532958984302-.121099472045898.129286041259547-.080699920654297.233312835693141-.191400527954102.312095794677589-.332000732421875.080786437987626-.143301010131836.141399383544922-.3125.180775451659429-.507900238037109.039391479493133-.19529914855957.05959579467708-.40880012512207.05959579467708-.640600204467773v-.835899353027344Zm1.960419616700165,3.261699676513672v-5.6875h1.930090026855396c.312111206054396,0,.596913452149238.031299591064453.851447753906541.093700408935547.257554931640698.062599182128906.47772186279326.157600402832031.659514465331085.285200119018555.180806274414863.127599716186523.320186767579798.289098739624023.418141479492988.484399795532227.099989013671802.19529914855957.149490356445312.425800323486328.149490356445312.691400527954102-.003020629883395.265598297119141-.074745178222656.503898620605469-.217146301269167.714799880981445-.139380493164936.21099853515625-.345430603027125.371099472045898-.619136657714989.480499267578125.165641479492479.04170036315918.309059753417387.10420036315918.430254821776543.1875s.220197753906177.182300567626953.299967041015407.296899795532227c.080817260743061.11199951171875.140397644043333.235700607299805.176768493653071.371099472045898.039391479493133.132801055908203.059580383300272.270801544189453.059580383300272.41400146484375,0,.27349853515625-.047467041014897.514398574829102-.142401123046511.722700119018555-.093947753906832.20829963684082-.229290466308157.38279914855957-.406028137207613.523399353027344-.175751342772855.14069938659668-.390863342285229.246099472045898-.643363342283919.316400527954102-.252500000000509.07029914855957-.53631591796875.105499267578125-.851447753906541.105499267578125h-2.095731506347875Zm1.113009643555415-2.50779914855957v1.621099472045898h.985773315429469c.302987670896982-.002599716186523.53326446533174-.07550048828125.690830383300636-.218799591064453.160586547850471-.145801544189453.240386657715135-.335901260375977.240386657715135-.570301055908203.003020629881576-.260398864746094-.067686767579289-.463499069213867-.213108520509195-.609399795532227-.144435424803305-.14579963684082-.367653808592877-.219999313354492-.670641479491678-.222599029541016h-1.033240356444367Zm0-.793001174926758h.824169616698782c.30804260253899-.002599716186523.544391479492333-.066400527954102.710032958984812-.191400527954102.16564147949066-.125.250465698241896-.308599472045898.25249999999869-.550798416137695,0-.265600204467773-.082820739746239-.455699920654297-.248462219236899-.570301055908203-.165641479492479-.117198944091797-.405010986329216-.177099227905273-.718108520508395-.179698944091797h-.820131835936991v1.492198944091797Zm4.860131835936045-.285099029541016h.64740112304753c.331282958984957,0,.628229370116969.042900085449219.891825561524456.128898620605469.265630493162462.083301544189453.488848876952034.201801300048828.670641479491678.355400085449219.183826904296438.15369987487793.325210876464553.339900970458984.42217926025296.558601379394531.096968383790227.218799591064453.145452575683521.46099853515625.145452575683521.726598739624023,0,.27079963684082-.048484191893294.518199920654297-.145452575683521.74220085144043-.096968383788408.22130012512207-.238352355956522.411399841308594-.42217926025296.57029914855957-.181792602539645.15880012512207-.405010986329216.282501220703125-.670641479491678.371101379394531-.263596191407487.088499069213867-.560542602539499.13279914855957-.891825561524456.13279914855957h-1.759424438476344v-5.6875h1.112023315428814v2.101600646972656Zm0,.88279914855957v1.820301055908203h.64740112304753c.173717041016062,0,.323207397461374-.024801254272461.449457397460719-.074201583862305.12927062988274-.04949951171875.235331726074946-.117198944091797.320155944824364-.20319938659668.086858520508031-.085899353027344.149490356445312-.186199188232422.188881835938446-.300699234008789.042412109374709-.114601135253906.063618164062063-.235700607299805.063618164062063-.363300323486328,0-.122400283813477-.021206054687354-.23699951171875-.063618164062063-.343799591064453-.039391479493133-.106700897216797-.102023315430415-.199201583862305-.188881835938446-.277299880981445-.084824218749418-.080699920654297-.190885314941625-.143199920654297-.320155944824364-.1875-.126249999999345-.046901702880859-.275740356444658-.070301055908203-.449457397460719-.070301055908203h-.64740112304753Zm7.276019287110103.210899353027344h-2.359358520507158v1.605501174926758h2.757311096191188v.886699676513672h-3.870320739746603v-5.6875h3.858207397461229v.894500732421875h-2.745197753905813v1.433599472045898h2.359358520507158v.867198944091797Zm-34.844984588622538,5.80470085144043h1.112007904052007v5.6875h-1.112007904052007v-3.628900527954102l-1.630138397216797,3.628900527954102h-1.107970123292034v-5.6875h1.107970123292034v3.63279914855957l1.630138397216797-3.63279914855957Zm10.766588287353443.890600204467773h-2.607805328369068v1.211000442504883h.646399383544122c.331267547608149,0,.629215698241751.042900085449219.891825561524456.128898620605469.265630493164281.083301544189453.488833465575226.201801300048828.670641479491678.355400085449219.183811492919631.15369987487793.325210876464553.339900970458984.42217926025296.558601379394531.096952972413419.218799591064453.146454315186929.46099853515625.146454315186929.726598739624023,0,.27079963684082-.04950134277351.518199920654297-.146454315186929.74220085144043-.096968383788408.221298217773438-.23836776733333.411399841308594-.42217926025296.570301055908203-.181808013916452.158798217773438-.405010986327397.282497406005859-.670641479491678.371097564697266-.262609863282705.0885009765625-.560558013916307.132801055908203-.891825561524456.132801055908203h-1.759424438476344v-5.6875h3.720830383301291v.890600204467773Zm-2.607805328369068,2.093799591064453v1.82029914855957h.646399383544122c.173717041016062,0,.324209136962963-.024799346923828.450459136964128-.074199676513672.128268890379331-.04949951171875.235331726073127-.117198944091797.319154205320956-.20319938659668.086858520508031-.085899353027344.149474945068505-.186199188232422.188866424561638-.300699234008789.042427520751517-.114601135253906.063633575438871-.235700607299805.063633575438871-.363300323486328,0-.122400283813477-.021206054687354-.23699951171875-.063633575438871-.343799591064453-.039391479493133-.106700897216797-.102007904053607-.199201583862305-.188866424561638-.277299880981445-.083822479247829-.080699920654297-.190885314941625-.143199920654297-.319154205320956-.1875-.126250000001164-.046901702880859-.276742095948066-.070301055908203-.450459136964128-.070301055908203h-.646399383544122Zm7.574999999998909-2.984399795532227v5.6875h-1.113025054930404v-4.796899795532227h-1.187754821778071l-.019202575684176,2.086000442504883c-.008075561523583.497400283813477-.047467041014897.917900085449219-.118159027098955,1.261699676513672-.068688507080878.343700408935547-.168677520752681.623699188232422-.299982452392214.839797973632812-.131289520264545.213600158691406-.295929260253615.368503570556641-.493888397217233.464900970458984-.196941986083402.096302032470703-.42721878051816.144500732421875-.689828643799046.144500732421875h-.276742095946247v-.882801055908203h.158583068847292c.12826889038115-.01300048828125.231278533934528-.050800323486328.307025451660593-.113300323486328.078782958982629-.065097808837891.139380493163117-.166698455810547.181808013914633-.304698944091797.044446411133322-.140600204467773.074745178222656-.324199676513672.090896301269822-.550800323486328.015149383545577-.229099273681641.026260986329362-.515600204467773.03131591796955-.859298706054688l.024242095947557-2.976600646972656h3.404712219236899Zm3.842025451660447,4.5h-1.724055328368195l-.339373931885348,1.1875h-1.167550506592306l1.881621246338909-5.6875h1.006979370116824l1.846267547607567,5.6875h-1.168567657470703l-.335320739746749-1.1875Zm-1.451366424560547-.933599472045898h1.19180801391667l-.587820739747258-2.093700408935547-.603987274169413,2.093700408935547Zm7.235641479492188-2.675800323486328h-2.607820739745875v4.796899795532227h-1.108971862793624v-5.6875h3.716792602539499v.890600204467773Zm5.105542602539572,2.371099472045898c0,.364601135253906-.049470520019895.70050048828125-.146438903808303,1.007801055908203-.096968383790227.30729866027832-.238352355958341.571598052978516-.422179260254779.792999267578125s-.409048767089189.394500732421875-.67467926025347.519500732421875c-.262609863280886.122398376464844-.560542602539499.183597564697266-.891825561524456.183597564697266-.331282958983138,0-.625208740233575-.061199188232422-.883749999999054-.183597564697266-.257554931640698-.125-.474701232909865-.298099517822266-.65045257568454-.519500732421875-.176737670897637-.2239990234375-.311063232420565-.488300323486328-.402976684568785-.792999267578125-.091913452148219-.307300567626953-.137377014159938-.643199920654297-.137377014159938-1.007801055908203v-.828100204467773c0-.364599227905273.045463562011719-.700498580932617.137377014159938-1.00779914855957s.226239013671147-.571599960327148.402976684568785-.793001174926758c.175751342774674-.223899841308594.391880493165445-.398399353027344.646414794922748-.523399353027344.258541259765479-.125.552467041015916-.1875.883750000000873-.1875.334303588866533,0,.633253479003542.0625.895863342284429.1875.265630493164281.125.490852355957031.29949951171875.67467926025347.523399353027344.183826904296438.221401214599609.325210876464553.485700607299805.422179260254779.793001174926758.096968383788408.307300567626953.146438903808303.643199920654297.146438903808303,1.00779914855957v.828100204467773Zm-1.12512298584079-.835899353027344c0-.231800079345703-.019202575682357-.445301055908203-.05859405517549-.640600204467773-.037357177734521-.195400238037109-.095951232910011-.363300323486328-.177754821777853-.503900527954102-.081803588866023-.14069938659668-.186847534178014-.25-.316118164060754-.32819938659668-.126250000001164-.080699920654297-.279778137208268-.121099472045898-.461570739746094-.121099472045898-.17877197265625,0-.328262329101562.040399551391602-.449457397462538.121099472045898-.121195068359157.07819938659668-.218163452147564.1875-.291891479491824.32819938659668-.073728027344259.140600204467773-.126249999999345.308500289916992-.157565917968896.503900527954102-.031315917967731.19529914855957-.047467041014897.40880012512207-.047467041014897.640600204467773v.835899353027344c0,.22920036315918.016151123047166.441400527954102.047467041014897.636699676513672.03131591796955.195301055908203.083837890624636.364601135253906.157565917968896.507900238037109.073728027344259.143199920654297.170696411132667.25520133972168.291891479491824.335899353027344.121195068360976.080699920654297.272688903809467.121101379394531.453495178222511.121101379394531.17877197265625,0,.331282958984957-.040401458740234.457532958986121-.121101379394531.12927062988274-.080698013305664.233297424316333-.191398620605469.312080383300781-.331998825073242.081803588866023-.143301010131836.142401123046511-.3125.181792602537826-.507900238037109.039391479493133-.19529914855957.05859405517549-.40880012512207.05859405517549-.640600204467773v-.835899353027344Zm5.772146301269458,3.261699676513672h-1.108971862791805v-4.796899795532227h-1.625098876953416v4.796899795532227h-1.108971862793624v-5.6875h3.843042602538844v5.6875Zm5.058075561524674-2.425800323486328c0,.364601135253906-.048484191895113.70050048828125-.146438903808303,1.007801055908203-.096968383790227.30729866027832-.237366027833559.571598052978516-.422179260254779.792999267578125-.183826904296438.221401214599609-.408062438964407.394500732421875-.673692932128688.519500732421875-.263596191405668.122398376464844-.560542602539499.183597564697266-.891825561524456.183597564697266-.331282958983138,0-.626195068358356-.061199188232422-.883749999999054-.183597564697266-.258541259765479-.125-.474701232909865-.298099517822266-.651438903809321-.519500732421875-.175751342772855-.2239990234375-.310076904295784-.488300323486328-.401990356444003-.792999267578125-.091913452148219-.307300567626953-.138363342286539-.643199920654297-.138363342286539-1.007801055908203v-.828100204467773c0-.364599227905273.046449890138319-.700498580932617.138363342286539-1.00779914855957s.226239013671147-.571599960327148.401990356444003-.793001174926758c.176737670899456-.223899841308594.391880493165445-.398399353027344.64740112304753-.523399353027344.257554931640698-.125.552467041015916-.1875.883750000000873-.1875.334303588866533,0,.632267150878761.0625.895863342284429.1875.265630493164281.125.48986602783225.29949951171875.673692932128688.523399353027344.18481323242122.221401214599609.325210876464553.485700607299805.422179260254779.793001174926758.097954711913189.307300567626953.146438903808303.643199920654297.146438903808303,1.00779914855957v.828100204467773Zm-1.124136657716008-.835899353027344c0-.231800079345703-.020188903807139-.445301055908203-.059580383300272-.640600204467773-.036370849609739-.195400238037109-.095951232910011-.363300323486328-.177754821777853-.503900527954102-.080817260741242-.14069938659668-.186847534178014-.25-.315131835935972-.32819938659668-.126250000001164-.080699920654297-.28076446533305-.121099472045898-.461570739746094-.121099472045898-.17877197265625,0-.329248657228163.040399551391602-.45044372558732.121099472045898-.120208740234375.07819938659668-.218163452147564.1875-.291891479491824.32819938659668-.073728027344259.140600204467773-.126249999999345.308500289916992-.157565917968896.503900527954102-.031315917967731.19529914855957-.047467041014897.40880012512207-.047467041014897.640600204467773v.835899353027344c0,.22920036315918.016151123047166.441400527954102.047467041014897.636699676513672.03131591796955.195301055908203.083837890624636.364601135253906.157565917968896.507900238037109.073728027344259.143199920654297.171682739257449.25520133972168.291891479491824.335899353027344.121195068359157.080699920654297.272688903809467.121101379394531.454481506347292.121101379394531.17877197265625,0,.331282958984957-.040401458740234.457532958986121-.121101379394531.128284301757958-.080698013305664.232311096191552-.191398620605469.311094055174181-.331998825073242.081803588867842-.143301010131836.14240112304833-.3125.181792602539645-.507900238037109.039391479493133-.19529914855957.059580383300272-.40880012512207.059580383300272-.640600204467773v-.835899353027344Zm5.803462219239009-2.425800323486328v5.6875h-1.113009643555415v-4.796899795532227h-1.187754821776252l-.019202575684176,2.086000442504883c-.008075561523583.497400283813477-.047467041014897.917900085449219-.118174438475762,1.261699676513672-.068673095704071.343700408935547-.168662109375873.623699188232422-.299967041015407.839797973632812-.131304931641353.213600158691406-.295929260255434.368503570556641-.492886657715644.464900970458984-.197943725584992.096302032470703-.42822052001975.144500732421875-.690830383300636.144500732421875h-.275740356444658v-.882801055908203h.157565917968896c.128284301756139-.01300048828125.231293945311336-.050800323486328.307056274412389-.113300323486328.079769287111048-.065097808837891.139380493164936-.166698455810547.181792602539645-.304698944091797.044446411133322-.140600204467773.074745178222656-.324199676513672.090896301269822-.550800323486328.016151123047166-.229099273681641.026260986327543-.515600204467773.03131591796955-.859298706054688l.02422668456893-2.976600646972656h3.404712219238718Zm2.599745178222292,1.953100204467773l.374712219238063,1.050800323486328,1.199868164063446-3.003900527954102h1.206957397460428l-2.044226684569367,4.609399795532227c-.067686767579289.153600692749023-.148473205566916.300798416137695-.240386657715135.441400527954102-.088892822266644.140598297119141-.197974548340426.264301300048828-.327245178223166.371101379394531-.126249999999345.106697082519531-.274723205566261.191398620605469-.445419616698928.253898620605469-.171682739257449.0625-.372677917481269.093700408935547-.603971862792605.093700408935547-.186847534179833,0-.352489013672312-.015602111816406-.496924438477436-.046802520751953-.142401123046511-.028697967529297-.257554931640698-.054698944091797-.347434082030304-.078197479248047l.070707397460865-.859302520751953c.034336547851126.010402679443359.074745178222656.022102355957031.122212219237554.035102844238281.050487670898292.010398864746094.1019924926768.020797729492188.154514465331886.031299591064453.052521972656905.010398864746094.106061096192207.019500732421875.161603698730687.027297973632812.05554260253848.005203247070312.108064575195385.007801055908203.157565917968896.007801055908203.126249999999345,0,.236348876953343-.01300048828125.331282958984957-.03900146484375.094934082029795-.026096343994141.176737670897637-.0625.244424438475107-.109397888183594.068673095704071-.046901702880859.125232849122767-.102899551391602.16967926025427-.168001174926758.047467041016716-.067699432373047.085841369629634-.143199920654297.115122985840571-.226598739624023l.110098876952179-.242099761962891-2.003848876953271-4.101600646972656h1.198881835938664l.891825561522637,1.953100204467773Zm7.168971862793114-1.953100204467773v5.6875h-1.113009643555415v-2.167999267578125c-.068673095702252.018299102783203-.139380493163117.035200119018555-.213108520507376.050798416137695-.07372802734244.01300048828125-.1474560546867.024801254272461-.221184082030959.035200119018555-.070707397460865.007801055908203-.140397644043333.014301300048828-.209070739745584.019500732421875-.065652465820676.005199432373047-.12322937011777.00779914855957-.173717041016062.00779914855957-.283815917968241,0-.541370849608938-.035099029541016-.772664794922093-.105499267578125-.229259643554542-.072900772094727-.425199890136355-.184900283813477-.587820739745439-.335899353027344-.16058654785229-.1510009765625-.285819396973238-.343700408935547-.374712219238063-.578100204467773-.086858520508031-.23699951171875-.130287780762956-.518199920654297-.130287780762956-.843799591064453v-1.769500732421875h1.107985534668842v1.769500732421875c0,.190099716186523.015133972168769.347700119018555.043429260253106.472700119018555.032302246094332.125.079769287109229.225198745727539.14240112304833.300798416137695.063618164062063.072900772094727.142401123046511.125.236348876951524.156200408935547.094934082031614.02869987487793.207036437988791.043001174926758.335320739746749.043001174926758.053508300781687,0,.112102355957177-.001300811767578.177754821777853-.003900527954102.065652465820676-.005199432373047.134325561522928-.011699676513672.205032958983793-.019599914550781.073728027344259-.010400772094727.147456054688519-.022100448608398.221184082030959-.035100936889648.073728027344259-.012998580932617.144435424805124-.02869987487793.213108520507376-.046899795532227v-2.636699676513672h1.113009643555415Zm3.613782958984302,0h1.112023315430633v5.6875h-1.112023315430633v-3.628900527954102l-1.629136657715208,3.628900527954102h-1.108971862791805v-5.6875h1.108971862791805v3.63279914855957l1.629136657715208-3.63279914855957Zm5.728717041016353,3.19529914855957h-2.359358520508977v1.605501174926758h2.757311096191188v.886699676513672h-3.870320739744784v-5.6875h3.858207397461229v.894500732421875h-2.745197753907632v1.433599472045898h2.359358520508977v.867198944091797Z" fill="#fff"/>
    </g>
  </g>
</svg>