<?xml version="1.0" encoding="UTF-8"?>
<svg id="uuid-5a5c02c0-71dd-4ce5-bfd3-3878759eca46" data-name="Layer 1" xmlns="http://www.w3.org/2000/svg" width="101" height="101" xmlns:xlink="http://www.w3.org/1999/xlink" viewBox="0 0 101 101">
  <defs>
    <clipPath id="uuid-fbd54c44-19ba-4b1e-a3f3-965a7b920870">
      <rect x=".284962295745572" width="101" height="101" fill="none"/>
    </clipPath>
  </defs>
  <g clip-path="url(#uuid-fbd54c44-19ba-4b1e-a3f3-965a7b920870)" fill="none">
    <g>
      <path d="m101.284962295745572,0H.284962295745572v101h101V0Z" fill="#566e78"/>
      <path d="m45.035969375823697,54.208000183105469l-18.0419921875-10.594398498535156v33.902099609375l18.0419921875,5.473800659179688v-28.781501770019531Z" fill="#fff" fill-rule="evenodd"/>
      <path d="m46.981953262542447,54.208000183105469v28.781501770019531l18.218994140625-5.473800659179688v-33.902099609375l-18.218994140625,10.594398498535156Z" fill="#fff" fill-rule="evenodd"/>
      <path d="m75.636952041839322,76.986000061035156h-.530975341796875l2.29998779296875,7.592697143554688,2.12200927734375-7.592697143554688h-.529998779296875.529998779296875v-30.194099426269531h-4.4219970703125v30.194099426269531h.530975341796875Z" fill="#fff" fill-rule="evenodd"/>
      <path d="m69.268971084808072,45.202701568603516l-1.946014404296875-1.589099884033203v34.961502075195312l-20.34100341796875,6.533195495605469h-1.94598388671875l-20.165008544921875-5.650299072265625v-35.844398498535156l-1.94500732421875,1.589099884033203v35.667896270751953l21.933013916015625,6.003501892089844h2.29998779296875l20.16400146484375-6.356697082519531,1.946014404296875-.529701232910156v-34.784999847412109Z" fill="#fff" fill-rule="evenodd"/>
      <path d="m79.527973770354947,42.730800628662109c0-1.236099243164062-1.061004638671875-2.118900299072266-2.29901123046875-2.118900299072266s-2.29901123046875.882801055908203-2.29901123046875,2.118900299072266v2.295398712158203h4.4219970703125v-2.295398712158203h.176025390625Z" fill="#fff" fill-rule="evenodd"/>
      <path d="m16.027973770354947,28.781499862670898h3.1829833984375v-3.354900360107422h1.415008544921875v-2.648599624633789h-1.415008544921875v-14.302410125732422h-3.3599853515625l-5.837005615234375,15.008710861206055v2.118900299072266h6.014007568359375v3.178298950195312Zm-3.00701904296875-6.003499984741211l3.00701904296875-8.29889965057373v8.29889965057373h-3.00701904296875Z" fill="#fff" fill-rule="evenodd"/>
      <path d="m31.592976211761197,17.833999633789062v-.529699325561523c-1.238006591796875-.176599502563477-1.769012451171875-1.059499740600586-1.769012451171875-2.118900299072266v-4.237799644470215c0-1.412569999694824.7080078125-2.295440673828125,2.29998779296875-2.295440673828125,1.59100341796875,0,2.29901123046875.882870674133301,2.29901123046875,2.295440673828125v4.061199188232422c0,.882900238037109-.35400390625,1.765700340270996-1.061004638671875,1.942299842834473l1.061004638671875.176601409912109v1.059398651123047l-2.829986572265625-.353099822998047Zm1.23797607421875-2.471999168395996v-4.591000556945801c0-.52970027923584-.177001953125-.882829666137695-.707000732421875-.882829666137695-.530975341796875,0-.707977294921875.353129386901855-.707977294921875.882829666137695v4.591000556945801c0,.529699325561523.177001953125.882800102233887.707977294921875.882800102233887.529998779296875,0,.707000732421875-.353100776672363.707000732421875-.882800102233887Z" fill="#fff" fill-rule="evenodd"/>
      <path d="m39.198963760589322,8.652159690856934v6.53324031829834c0,1.412599563598633-.531005859375,2.118900299072266-2.12200927734375,2.118900299072266-1.59197998046875,0-2.12298583984375-.882900238037109-2.12298583984375-2.118900299072266v-6.53324031829834h1.415008544921875v6.70974063873291c0,.529799461364746.176971435546875.882900238037109.707977294921875.882900238037109.529998779296875,0,.707000732421875-.353100776672363.707000732421875-.882900238037109v-6.70974063873291h1.415008544921875Z" fill="#fff" fill-rule="evenodd"/>
      <path d="m39.728962539886197,17.127700805664062l1.592010498046875-8.475541114807129h1.59197998046875l1.592010498046875,8.475541114807129h-1.415008544921875l-.177001953125-1.589200973510742h-1.59197998046875l-.177001953125,1.589200973510742h-1.415008544921875Zm1.769012451171875-2.648600578308105h1.06097412109375l-.529998779296875-3.354900360107422-.530975341796875,3.354900360107422Z" fill="#fff" fill-rule="evenodd"/>
      <path d="m45.213947891448697,8.652159690856934h1.415008544921875v7.41603946685791h1.592010498046875v1.059501647949219h-3.00701904296875v-8.475541114807129Z" fill="#fff" fill-rule="evenodd"/>
      <path d="m50.165974258636197,8.652159690856934h-1.415008544921875v8.475541114807129h1.415008544921875v-8.475541114807129Z" fill="#fff"/>
      <path d="m50.873951553558072,8.652159690856934h3.891021728515625v1.236010551452637h-1.238006591796875v7.239530563354492h-1.415008544921875v-7.239530563354492h-1.238006591796875v-1.236010551452637Z" fill="#fff" fill-rule="evenodd"/>
      <path d="m58.302967666839322,13.949399948120117v3.178300857543945h-1.592010498046875v-3.178300857543945l-1.59197998046875-5.297240257263184h1.59197998046875l.884002685546875,3.178339958190918.885009765625-3.178339958190918h1.41497802734375l-1.59197998046875,5.297240257263184Z" fill="#fff" fill-rule="evenodd"/>
      <path d="m30.000965713714322,20.835699081420898h3.360992431640625v1.05940055847168h-1.94598388671875v2.472101211547852h1.41497802734375v1.059398651123047h-1.41497802734375v2.648599624633789h1.94598388671875v1.236000061035156h-3.360992431640625v-8.475500106811523Z" fill="#fff" fill-rule="evenodd"/>
      <path d="m38.490955948089322,22.954500198364258v3.884599685668945c0,1.236000061035156-.531005859375,2.295499801635742-2.121978759765625,2.295499801635742h-2.123016357421875v-8.475500106811523h2.123016357421875c1.590972900390625.17650032043457,2.121978759765625,1.05940055847168,2.121978759765625,2.295400619506836Zm-2.298980712890625,5.120599746704102c.529998779296875,0,.88397216796875-.353099822998047.88397216796875-.88279914855957v-4.414400100708008c0-.529701232910156-.176971435546875-.882801055908203-.88397216796875-.882801055908203h-.531005859375v6.180000305175781h.531005859375Z" fill="#fff" fill-rule="evenodd"/>
      <path d="m43.266956924651822,20.835699081420898v6.356601715087891c0,1.236000061035156-.529998779296875,2.118898391723633-1.94500732421875,2.118898391723633-1.41497802734375,0-2.12298583984375-.882898330688477-2.12298583984375-2.118898391723633v-6.356601715087891h1.415008544921875v6.533201217651367c0,.529699325561523.177001953125.882900238037109.707977294921875.882900238037109.529998779296875,0,.707000732421875-.353200912475586.707000732421875-.882900238037109v-6.533201217651367h1.238006591796875Z" fill="#fff" fill-rule="evenodd"/>
      <path d="m44.151966690276822,27.01569938659668v-4.061199188232422c0-1.412599563598633.7080078125-2.295400619506836,2.12298583984375-2.295400619506836,1.592010498046875,0,2.12200927734375.882801055908203,2.12200927734375,2.118801116943359v1.059499740600586h-1.415008544921875v-1.059499740600586c0-.529701232910156-.177001953125-.882801055908203-.707000732421875-.882801055908203-.530975341796875,0-.707977294921875.353099822998047-.707977294921875.882801055908203v4.590898513793945c0,.529800415039062.177001953125.882900238037109.707977294921875.882900238037109.529998779296875,0,.707000732421875-.353099822998047.707000732421875-.882900238037109v-1.589099884033203h1.415008544921875v1.412601470947266c0,1.236000061035156-.529998779296875,2.118898391723633-2.12200927734375,2.118898391723633-1.41497802734375,0-2.12298583984375-1.059499740600586-2.12298583984375-2.295499801635742Z" fill="#fff" fill-rule="evenodd"/>
      <path d="m48.750965713714322,29.311199188232422l1.592010498046875-8.475500106811523h1.59197998046875l1.592010498046875,8.475500106811523h-1.415008544921875l-.177001953125-1.589099884033203h-1.59197998046875l-.177001953125,1.589099884033203h-1.415008544921875Zm1.94598388671875-2.825199127197266h1.061004638671875l-.531005859375-3.354900360107422-.529998779296875,3.354900360107422Z" fill="#fff" fill-rule="evenodd"/>
      <path d="m53.525959610198697,20.835699081420898h3.714996337890625v1.05940055847168h-1.061981201171875v7.416099548339844h-1.415008544921875v-7.416099548339844h-1.238006591796875v-1.05940055847168Z" fill="#fff" fill-rule="evenodd"/>
      <path d="m59.363972305511197,20.835699081420898h-1.415008544921875v8.475500106811523h1.415008544921875v-8.475500106811523Z" fill="#fff"/>
      <path d="m60.247974991058072,27.01569938659668v-4.061199188232422c0-1.412599563598633.707000732421875-2.295400619506836,2.121978759765625-2.295400619506836,1.416015625,0,2.123016357421875.882801055908203,2.123016357421875,2.295400619506836v4.061199188232422c0,1.412601470947266-.707000732421875,2.295499801635742-2.123016357421875,2.295499801635742-1.41497802734375,0-2.121978759765625-1.059499740600586-2.121978759765625-2.295499801635742Zm2.829986572265625.176601409912109v-4.590900421142578c0-.529800415039062-.177001953125-.882900238037109-.7080078125-.882900238037109-.529998779296875,0-.707000732421875.353099822998047-.707000732421875.882900238037109v4.590900421142578c0,.529699325561523.177001953125.88279914855957.707000732421875.88279914855957.531005859375,0,.7080078125-.353099822998047.7080078125-.88279914855957Z" fill="#fff" fill-rule="evenodd"/>
      <path d="m66.615955948089322,23.837400436401367v5.473798751831055h-1.238006591796875v-8.475500106811523h1.415008544921875l1.415008544921875,4.767501831054688v-4.767501831054688h1.238006591796875v8.475500106811523h-1.238006591796875l-1.592010498046875-5.473798751831055Z" fill="#fff" fill-rule="evenodd"/>
      <rect x="27.284962295745572" y="5" width="62" height="29" fill="#566e78"/>
      <path d="m27.429951309417447,12.66409969329834h-.457000732421875v2.33590030670166h-1.097991943359375v-5.6875h1.097991943359375v2.503899574279785h.269012451171875l1.488006591796875-2.503899574279785h1.269989013671875l-1.69500732421875,2.738300323486328,1.761016845703125,2.949199676513672h-1.27301025390625l-1.363006591796875-2.33590030670166Zm5.968017578125,1.14840030670166h-1.707000732421875l-.33599853515625,1.1875h-1.156005859375l1.863006591796875-5.6875h.996002197265625l1.8289794921875,5.6875h-1.156982421875l-.332000732421875-1.1875Zm-1.43701171875-.933600425720215h1.17901611328125l-.582000732421875-2.09369945526123-.597015380859375,2.09369945526123Zm7.30401611328125-3.566399574279785v5.6875h-1.10101318359375v-2.168000221252441c-.0679931640625.01830005645752-.13800048828125.035200119018555-.21099853515625.050800323486328-.072998046875.012999534606934-.14599609375.024800300598145-.218994140625.035200119018555-.07000732421875.007800102233887-.139007568359375.014299392700195-.207000732421875.019499778747559-.06500244140625.005200386047363-.12200927734375.007800102233887-.1719970703125.007800102233887-.281005859375,0-.5360107421875-.035099983215332-.7650146484375-.105500221252441-.22698974609375-.07289981842041-.420989990234375-.184900283813477-.582000732421875-.33590030670166-.15899658203125-.151000022888184-.282989501953125-.34369945526123-.371002197265625-.578099250793457-.08599853515625-.237000465393066-.128997802734375-.518199920654297-.128997802734375-.84380054473877v-1.769499778747559h1.097015380859375v1.769499778747559c0,.19010066986084.014984130859375.347700119018555.042999267578125.472700119018555.031982421875.125.0780029296875.225199699401855.1409912109375.300800323486328.06201171875.07289981842041.1409912109375.125.2340087890625.15619945526123.093994140625.02869987487793.204986572265625.043000221252441.332000732421875.043000221252441.052001953125,0,.110992431640625-.001299858093262.175994873046875-.003899574279785.06500244140625-.005200386047363.13299560546875-.011700630187988.2030029296875-.019599914550781.072998046875-.010400772094727.14599609375-.022100448608398.218994140625-.035099983215332.072998046875-.01300048828125.14300537109375-.028700828552246.21099853515625-.046900749206543v-2.636699676513672h1.10101318359375Zm4.44598388671875,3.195300102233887h-2.33599853515625v1.605500221252441h2.730010986328125v.886699676513672h-3.832000732421875v-5.6875h3.82098388671875v.894499778747559h-2.718994140625v1.433600425720215h2.33599853515625v.867199897766113Zm5.253997802734375.710999488830566c-.01898193359375.28640079498291-.08099365234375.54419994354248-.18798828125.77340030670166-.10400390625.22920036315918-.2449951171875.424500465393066-.4219970703125.58590030670166-.177001953125.161499977111816-.38800048828125.286499977111816-.63201904296875.375-.2449951171875.085999488830566-.5159912109375.128899574279785-.81298828125.128899574279785-.33599853515625,0-.634002685546875-.061200141906738-.894989013671875-.183599472045898-.260009765625-.125-.47900390625-.298100471496582-.656005859375-.519500732421875-.177001953125-.223999977111816-.31201171875-.492199897766113-.406005859375-.804699897766113s-.1409912109375-.65619945526123-.1409912109375-1.03119945526123v-.765700340270996c0-.377599716186523.04998779296875-.722599983215332.14898681640625-1.035099983215332s.239013671875-.580699920654297.4219970703125-.804699897766113c.1820068359375-.223959922790527.402008056640625-.397139549255371.660003662109375-.519530296325684.260009765625-.125.552001953125-.1875.875-.1875.31201171875,0,.589996337890625.044270515441895.832000732421875.132810592651367.2449951171875.088540077209473.4530029296875.214839935302734.625.378910064697266.1719970703125.164059638977051.3070068359375.364609718322754.406005859375.601609230041504.0989990234375.236900329589844.1619873046875.503900527954102.18798828125.800700187683105h-1.093994140625c-.010986328125-.16919994354248-.0369873046875-.317699432373047-.0780029296875-.445300102233887-.03900146484375-.127599716186523-.097991943359375-.233099937438965-.175994873046875-.316399574279785-.07598876953125-.08590030670166-.1719970703125-.149700164794922-.28900146484375-.191400527954102-.114990234375-.044299125671387-.25299072265625-.066399574279785-.41400146484375-.066399574279785-.16900634765625,0-.316986083984375.036499977111816-.441986083984375.109399795532227s-.22900390625.179699897766113-.31201171875.320300102233887c-.08099365234375.140600204467773-.1409912109375.313799858093262-.17999267578125.519499778747559-.03900146484375.203100204467773-.058013916015625.434900283813477-.058013916015625.695300102233887v.773500442504883c0,.55989933013916.0780029296875.973899841308594.2340087890625,1.242199897766113.15899658203125.268199920654297.40899658203125.402299880981445.75.402299880981445.2860107421875,0,.51300048828125-.075499534606934.67999267578125-.22659969329834.166015625-.153600692749023.259002685546875-.401000022888184.277008056640625-.742100715637207h1.097991943359375Zm5.035003662109375-3.011799812316895h-1.753997802734375v4.793000221252441h-1.10198974609375v-4.793000221252441h-1.730010986328125v-.894499778747559h4.58599853515625v.894499778747559Zm.61700439453125,4.793000221252441v-5.6875h1.910003662109375c.30999755859375,0,.59100341796875.03125.843994140625.09375.2550048828125.0625.472991943359375.157549858093262.652008056640625.285160064697266.17999267578125.127599716186523.3179931640625.289059638977051.41400146484375.484390258789062.0989990234375.195300102233887.14898681640625.425799369812012.14898681640625.691399574279785-.00299072265625.265600204467773-.074005126953125.503900527954102-.214996337890625.714799880981445-.13800048828125.211000442504883-.342987060546875.371100425720215-.613006591796875.480500221252441.16400146484375.04170036315918.305999755859375.10420036315918.425018310546875.1875.1199951171875.08329963684082.218994140625.182299613952637.2969970703125.296899795532227.08099365234375.112000465393066.139984130859375.235700607299805.175994873046875.371100425720215.03900146484375.132800102233887.058990478515625.27079963684082.058990478515625.413999557495117,0,.273500442504883-.0469970703125.514400482177734-.1409912109375.722700119018555s-.227996826171875.382800102233887-.402008056640625.52340030670166c-.17498779296875.14069938659668-.386993408203125.246099472045898-.636993408203125.316399574279785s-.531005859375.105500221252441-.843994140625.105500221252441h-2.074005126953125Zm1.10198974609375-2.507800102233887v1.621100425720215h.97601318359375c.29998779296875-.00260066986084.527984619140625-.07550048828125.683990478515625-.21880054473877.15899658203125-.14579963684082.238006591796875-.335899353027344.238006591796875-.570300102233887.00299072265625-.26039981842041-.0679931640625-.463500022888184-.21099853515625-.609399795532227-.14300537109375-.14579963684082-.364013671875-.220000267028809-.66400146484375-.222599983215332h-1.02301025390625Zm0-.793000221252441h.816009521484375c.30499267578125-.002599716186523.53900146484375-.066399574279785.7030029296875-.191399574279785s.24798583984375-.308600425720215.25-.550800323486328c0-.265600204467773-.082000732421875-.455699920654297-.246002197265625-.570300102233887-.16400146484375-.117199897766113-.4010009765625-.177099227905273-.71099853515625-.179699897766113h-.81201171875v1.492199897766113Zm7.21099853515625.808600425720215h-2.33599853515625v1.605500221252441h2.730010986328125v.886699676513672h-3.832000732421875v-5.6875h3.82000732421875v.894499778747559h-2.718017578125v1.433600425720215h2.33599853515625v.867199897766113Zm5.058013916015625,2.492199897766113h-1.08599853515625v-2.464799880981445h-1.6090087890625v2.464799880981445h-1.089996337890625v-5.6875h1.089996337890625v2.331999778747559h1.6090087890625v-2.331999778747559h1.08599853515625v5.6875Zm4.80499267578125,0h-1.08599853515625v-2.464799880981445h-1.6099853515625v2.464799880981445h-1.089019775390625v-5.6875h1.089019775390625v2.331999778747559h1.6099853515625v-2.331999778747559h1.08599853515625v5.6875Zm5.019012451171875-2.425800323486328c0,.36460018157959-.048004150390625.70050048828125-.144012451171875,1.007800102233887-.09698486328125.307300567626953-.235992431640625.571599960327148-.417999267578125.793000221252441s-.404998779296875.394499778747559-.667999267578125.519499778747559c-.260986328125.122400283813477-.55499267578125.183600425720215-.88299560546875.183600425720215s-.6199951171875-.061200141906738-.875-.183600425720215c-.2550048828125-.125-.470001220703125-.298099517822266-.644012451171875-.519499778747559-.17498779296875-.223999977111816-.3079833984375-.488300323486328-.39898681640625-.793000221252441-.09100341796875-.307299613952637-.136993408203125-.643199920654297-.136993408203125-1.007800102233887v-.828099250793457c0-.36460018157959.045989990234375-.70050048828125.136993408203125-1.007800102233887.09100341796875-.307300567626953.2239990234375-.571599960327148.39898681640625-.792990684509277.17401123046875-.223959922790527.38800048828125-.398429870605469.6400146484375-.523429870605469.2550048828125-.125.5469970703125-.1875.875-.1875.33099365234375,0,.626007080078125.0625.886993408203125.1875.26300048828125.125.485992431640625.299469947814941.667999267578125.523429870605469.1820068359375.221390724182129.321014404296875.485690116882324.417999267578125.792990684509277.09600830078125.307299613952637.144012451171875.643199920654297.144012451171875,1.007800102233887v.828099250793457Zm-1.113006591796875-.835899353027344c0-.231800079345703-.019012451171875-.445300102233887-.058990478515625-.640600204467773-.0360107421875-.195400238037109-.095001220703125-.363300323486328-.175018310546875-.503900527954102-.08099365234375-.14069938659668-.18499755859375-.25-.31298828125-.32819938659668-.125-.080699920654297-.277008056640625-.121100425720215-.457000732421875-.121100425720215-.177001953125,0-.32501220703125.040400505065918-.44500732421875.121100425720215-.1199951171875.07819938659668-.21600341796875.1875-.28900146484375.32819938659668-.072998046875.140600204467773-.125.308500289916992-.156005859375.503900527954102-.031982421875.195300102233887-.0469970703125.40880012512207-.0469970703125.640600204467773v.835899353027344c0,.22920036315918.0150146484375.441400527954102.0469970703125.636700630187988.031005859375.195300102233887.0830078125.364599227905273.156005859375.507899284362793.072998046875.143200874328613.16900634765625.255200386047363.28900146484375.33590030670166s.269012451171875.121100425720215.449005126953125.121100425720215c.177001953125,0,.3280029296875-.040400505065918.4530029296875-.121100425720215.12799072265625-.080699920654297.230987548828125-.191399574279785.308990478515625-.331999778747559.08099365234375-.14330005645752.1400146484375-.3125.17901611328125-.507900238037109.03997802734375-.195300102233887.058990478515625-.40880012512207.058990478515625-.640600204467773v-.835899353027344Zm5.449005126953125.769499778747559h-2.33599853515625v1.605500221252441h2.730987548828125v.886699676513672h-3.832000732421875v-5.6875h3.82000732421875v.894499778747559h-2.718994140625v1.433600425720215h2.33599853515625v.867199897766113Zm-52.38299560546875,9.066399574279785c0,.364601135253906-.048004150390625.70050048828125-.144012451171875,1.007801055908203-.09600830078125.30729866027832-.235992431640625.571599960327148-.417999267578125.792999267578125s-.404998779296875.394500732421875-.667999267578125.519500732421875c-.260009765625.122398376464844-.55499267578125.183599472045898-.88299560546875.183599472045898s-.6199951171875-.061201095581055-.875-.183599472045898c-.2550048828125-.125-.470001220703125-.298101425170898-.644012451171875-.519500732421875-.17498779296875-.224000930786133-.3079833984375-.488300323486328-.39898681640625-.792999267578125-.09100341796875-.307300567626953-.136993408203125-.643199920654297-.136993408203125-1.007801055908203v-.828100204467773c0-.364599227905273.045989990234375-.700498580932617.136993408203125-1.00779914855957s.2239990234375-.571599960327148.39898681640625-.793001174926758c.17401123046875-.223899841308594.38800048828125-.398399353027344.6400146484375-.523399353027344.2550048828125-.125.5469970703125-.1875.875-.1875.33099365234375,0,.626983642578125.0625.886993408203125.1875.26300048828125.125.485992431640625.29949951171875.667999267578125.523399353027344.1820068359375.221401214599609.321990966796875.485700607299805.417999267578125.793001174926758s.144012451171875.643199920654297.144012451171875,1.00779914855957v.828100204467773Zm-1.113006591796875-.835899353027344c0-.231800079345703-.019012451171875-.445301055908203-.058013916015625-.640600204467773-.0369873046875-.195400238037109-.095001220703125-.363300323486328-.175994873046875-.503900527954102-.08099365234375-.14069938659668-.18499755859375-.25-.31298828125-.32819938659668-.125-.080699920654297-.277008056640625-.121099472045898-.457000732421875-.121099472045898-.177001953125,0-.32501220703125.040399551391602-.44500732421875.121099472045898-.1199951171875.07819938659668-.21600341796875.1875-.28900146484375.32819938659668-.072998046875.140600204467773-.125.308500289916992-.156005859375.503900527954102-.031982421875.19529914855957-.0469970703125.40880012512207-.0469970703125.640600204467773v.835899353027344c0,.22920036315918.0150146484375.441400527954102.0469970703125.636699676513672.031005859375.195301055908203.0830078125.364601135253906.156005859375.507900238037109.072998046875.143199920654297.16900634765625.25520133972168.28900146484375.335901260375977s.269989013671875.121099472045898.449005126953125.121099472045898c.177001953125,0,.3280029296875-.040399551391602.4530029296875-.121099472045898.12799072265625-.080699920654297.230987548828125-.191400527954102.308990478515625-.332000732421875.08099365234375-.143301010131836.1409912109375-.3125.17999267578125-.507900238037109.03900146484375-.19529914855957.058013916015625-.40880012512207.058013916015625-.640600204467773v-.835899353027344Zm5.63299560546875-1.535200119018555h-2.582000732421875v1.211000442504883h.6409912109375c.3280029296875,0,.62200927734375.042900085449219.88201904296875.128898620605469.26300048828125.083301544189453.4849853515625.201801300048828.66400146484375.355400085449219.1829833984375.15369987487793.321990966796875.339900970458984.417999267578125.558601379394531.09698486328125.218799591064453.144989013671875.46099853515625.144989013671875.726598739624023,0,.27079963684082-.048004150390625.518199920654297-.144989013671875.74220085144043-.09600830078125.22130012512207-.235015869140625.411399841308594-.417999267578125.57029914855957-.17901611328125.15880012512207-.4010009765625.282501220703125-.66400146484375.371101379394531-.260009765625.088499069213867-.55401611328125.13279914855957-.88201904296875.13279914855957h-1.74298095703125v-5.6875h3.683990478515625v.890600204467773Zm-2.582000732421875,2.093799591064453v1.820301055908203h.6409912109375c.1710205078125,0,.32000732421875-.024801254272461.44500732421875-.074201583862305.12799072265625-.04949951171875.233001708984375-.117198944091797.316009521484375-.20319938659668.08599853515625-.085899353027344.14898681640625-.186199188232422.18798828125-.300699234008789.041015625-.114601135253906.06201171875-.235700607299805.06201171875-.363300323486328,0-.122400283813477-.02099609375-.23699951171875-.06201171875-.343799591064453-.03900146484375-.106700897216797-.10198974609375-.199201583862305-.18798828125-.277299880981445-.0830078125-.080699920654297-.188018798828125-.143199920654297-.316009521484375-.1875-.125-.046901702880859-.27398681640625-.070301055908203-.44500732421875-.070301055908203h-.6409912109375Zm4.871002197265625.61720085144043v2.085899353027344h-1.097991943359375v-5.6875h1.94598388671875c.30999755859375,0,.589996337890625.045600891113281.839996337890625.136699676513672.25.088600158691406.462005615234375.213600158691406.636016845703125.375.177001953125.158901214599609.31298828125.350299835205078.406982421875.574199676513672.09600830078125.224000930786133.144012451171875.472700119018555.144012451171875.746101379394531,0,.255199432373047-.048004150390625.490900039672852-.144012451171875.707099914550781-.093994140625.216098785400391-.22998046875.403598785400391-.406982421875.5625-.17401123046875.156198501586914-.386016845703125.278598785400391-.636016845703125.367099761962891-.25.088600158691406-.529998779296875.132900238037109-.839996337890625.132900238037109h-.847991943359375Zm0-.890701293945312h.847991943359375c.156005859375,0,.291015625-.023399353027344.406005859375-.07029914855957s.209991455078125-.110700607299805.285003662109375-.191400527954102c.0780029296875-.080699920654297.135986328125-.173200607299805.1719970703125-.277299880981445.03900146484375-.106800079345703.058990478515625-.217500686645508.058990478515625-.332099914550781,0-.13279914855957-.019989013671875-.256500244140625-.058990478515625-.371099472045898-.0360107421875-.114500045776367-.093994140625-.214799880981445-.1719970703125-.300701141357422-.07501220703125-.08599853515625-.170013427734375-.15369987487793-.285003662109375-.20319938659668-.114990234375-.049400329589844-.25-.074199676513672-.406005859375-.074199676513672h-.847991943359375v1.82029914855957Zm6.433990478515625,1.789100646972656h-1.707000732421875l-.33599853515625,1.1875h-1.156982421875l1.863983154296875-5.6875h.996002197265625l1.8280029296875,5.6875h-1.156005859375l-.332000732421875-1.1875Zm-1.43798828125-.933599472045898h1.17999267578125l-.582000732421875-2.093700408935547-.597991943359375,2.093700408935547Zm7.425994873046875-2.023401260375977c0,.13020133972168-.02099609375.25520133972168-.06298828125.375-.03900146484375.119800567626953-.09600830078125.232999801635742-.1710205078125.339799880981445-.07598876953125.10420036315918-.167999267578125.199201583862305-.277984619140625.285200119018555-.1090087890625.085901260375977-.233001708984375.160100936889648-.371002197265625.222600936889648.31500244140625.109399795532227.55499267578125.276100158691406.718994140625.5.1669921875.221399307250977.25.497400283813477.25.828100204467773,0,.26569938659668-.05499267578125.50269889831543-.16400146484375.711000442504883-.10699462890625.20829963684082-.256988525390625.384099960327148-.449005126953125.527299880981445-.19097900390625.14069938659668-.41998291015625.248699188232422-.68798828125.324298858642578-.2659912109375.072900772094727-.555999755859375.10930061340332-.871002197265625.10930061340332-.2550048828125,0-.50799560546875-.031200408935547-.75799560546875-.093700408935547-.25-.065099716186523-.475006103515625-.164100646972656-.675994873046875-.296899795532227-.197998046875-.135400772094727-.3590087890625-.307300567626953-.4840087890625-.515600204467773-.12200927734375-.208400726318359-.183990478515625-.458400726318359-.183990478515625-.75h1.10198974609375c0,.10930061340332.02301025390625.210899353027344.07000732421875.30470085144043.04998779296875.093698501586914.118988037109375.175699234008789.207000732421875.246099472045898.0889892578125.07029914855957.194000244140625.126300811767578.316986083984375.167900085449219.12200927734375.039100646972656.25799560546875.058599472045898.406005859375.058599472045898.1719970703125,0,.324005126953125-.019498825073242.457000732421875-.058599472045898.13299560546875-.041599273681641.2449951171875-.098899841308594.33599853515625-.17180061340332.09100341796875-.072999954223633.160003662109375-.157600402832031.207000732421875-.253999710083008.0469970703125-.098899841308594.07000732421875-.205699920654297.07000732421875-.32029914855957,0-.30470085144043-.08599853515625-.524700164794922-.25701904296875-.660100936889648-.16998291015625-.135398864746094-.41998291015625-.20319938659668-.75-.20319938659668h-.7659912109375v-.85930061340332h.7659912109375c.16400146484375,0,.303009033203125-.018299102783203.417022705078125-.054698944091797.11798095703125-.039100646972656.212982177734375-.093801498413086.285980224609375-.164100646972656.07501220703125-.070301055908203.1300048828125-.153600692749023.16400146484375-.25.0360107421875-.098899841308594.05401611328125-.20829963684082.05401611328125-.328100204467773,0-.101600646972656-.019012451171875-.197900772094727-.058013916015625-.289100646972656-.03900146484375-.093698501586914-.0989990234375-.174398422241211-.17999267578125-.242099761962891-.08099365234375-.067800521850586-.183013916015625-.121099472045898-.308990478515625-.160200119018555-.12200927734375-.04170036315918-.26800537109375-.0625-.43701171875-.0625-.1300048828125,0-.251007080078125.016901016235352-.363006591796875.050800323486328-.11199951171875.03380012512207-.209991455078125.082000732421875-.292999267578125.144500732421875-.08099365234375.0625-.14599609375.137998580932617-.19598388671875.226598739624023-.0460205078125.0885009765625-.07000732421875.1875-.07000732421875.29680061340332h-1.097991943359375c0-.25.053985595703125-.473899841308594.160980224609375-.67180061340332.1090087890625-.197898864746094.256011962890625-.365900039672852.441009521484375-.503898620605469.18499755859375-.138101577758789.39801025390625-.243499755859375.6409912109375-.316400527954102.2440185546875-.075599670410156.503997802734375-.113300323486328.777008056640625-.113300323486328.31500244140625,0,.60198974609375.035100936889648.8590087890625.105400085449219.25799560546875.067800521850586.47698974609375.170600891113281.656982421875.308599472045898.1820068359375.135499954223633.322998046875.30470085144043.4210205078125.507801055908203.0989990234375.200599670410156.14898681640625.433599472045898.14898681640625.699298858642578Zm4.792999267578125,1.718700408935547c0,.364601135253906-.048004150390625.70050048828125-.144989013671875,1.007801055908203-.09600830078125.30729866027832-.235015869140625.571599960327148-.417999267578125.792999267578125-.1820068359375.221399307250977-.404998779296875.394500732421875-.667999267578125.519500732421875-.260009765625.122398376464844-.55401611328125.183599472045898-.88201904296875.183599472045898-.3289794921875,0-.6199951171875-.061201095581055-.875-.183599472045898-.2559814453125-.125-.470001220703125-.298101425170898-.644989013671875-.519500732421875-.17401123046875-.224000930786133-.3070068359375-.488300323486328-.39801025390625-.792999267578125-.09100341796875-.307300567626953-.136993408203125-.643199920654297-.136993408203125-1.007801055908203v-.828100204467773c0-.364599227905273.045989990234375-.700498580932617.136993408203125-1.00779914855957s.2239990234375-.571599960327148.39801025390625-.793001174926758c.17498779296875-.223899841308594.38800048828125-.398399353027344.6409912109375-.523399353027344.2550048828125-.125.5469970703125-.1875.875-.1875.33001708984375,0,.626007080078125.0625.886016845703125.1875.26300048828125.125.485992431640625.29949951171875.667999267578125.523399353027344.1829833984375.221401214599609.321990966796875.485700607299805.417999267578125.793001174926758.09698486328125.307300567626953.144989013671875.643199920654297.144989013671875,1.00779914855957v.828100204467773Zm-1.113006591796875-.835899353027344c0-.231800079345703-.019989013671875-.445301055908203-.058990478515625-.640600204467773-.0360107421875-.195400238037109-.095001220703125-.363300323486328-.175994873046875-.503900527954102-.08001708984375-.14069938659668-.18499755859375-.25-.31201171875-.32819938659668-.125-.080699920654297-.277984619140625-.121099472045898-.457000732421875-.121099472045898-.177001953125,0-.32598876953125.040399551391602-.44598388671875.121099472045898-.1190185546875.07819938659668-.21600341796875.1875-.28900146484375.32819938659668-.072998046875.140600204467773-.125.308500289916992-.156005859375.503900527954102-.031005859375.19529914855957-.0469970703125.40880012512207-.0469970703125.640600204467773v.835899353027344c0,.22920036315918.0159912109375.441400527954102.0469970703125.636699676513672.031005859375.195301055908203.0830078125.364601135253906.156005859375.507900238037109.072998046875.143199920654297.16998291015625.25520133972168.28900146484375.335901260375977.1199951171875.080699920654297.269989013671875.121099472045898.449981689453125.121099472045898.177001953125,0,.3280029296875-.040399551391602.4530029296875-.121099472045898.12701416015625-.080699920654297.230010986328125-.191400527954102.308013916015625-.332000732421875.08099365234375-.143301010131836.1409912109375-.3125.17999267578125-.507900238037109.03900146484375-.19529914855957.058990478515625-.40880012512207.058990478515625-.640600204467773v-.835899353027344Zm1.941009521484375,3.261699676513672v-5.6875h1.910003662109375c.30999755859375,0,.59100341796875.031299591064453.843994140625.093700408935547.2550048828125.062599182128906.472991943359375.157600402832031.652008056640625.285200119018555.17999267578125.127599716186523.3179931640625.289098739624023.41400146484375.484399795532227.0989990234375.19529914855957.14898681640625.425800323486328.14898681640625.691400527954102-.00299072265625.265598297119141-.074005126953125.503898620605469-.214996337890625.714799880981445-.13800048828125.21099853515625-.342987060546875.371099472045898-.613006591796875.480499267578125.16400146484375.04170036315918.305999755859375.10420036315918.425018310546875.1875.1199951171875.08329963684082.218994140625.182300567626953.2969970703125.296899795532227.08099365234375.11199951171875.139984130859375.235700607299805.175994873046875.371099472045898.03900146484375.132801055908203.058990478515625.270801544189453.058990478515625.41400146484375,0,.27349853515625-.0469970703125.514398574829102-.1409912109375.722700119018555-.093994140625.20829963684082-.227996826171875.38279914855957-.402008056640625.523399353027344-.17498779296875.14069938659668-.386993408203125.246099472045898-.636993408203125.316400527954102-.25.07029914855957-.531005859375.105499267578125-.843994140625.105499267578125h-2.074005126953125Zm1.10198974609375-2.50779914855957v1.621099472045898h.97601318359375c.29998779296875-.002599716186523.527984619140625-.07550048828125.683990478515625-.218799591064453.15899658203125-.145801544189453.238006591796875-.335901260375977.238006591796875-.570301055908203.00299072265625-.260398864746094-.0679931640625-.463499069213867-.21099853515625-.609399795532227-.14300537109375-.14579963684082-.364013671875-.219999313354492-.66400146484375-.222599029541016h-1.02301025390625Zm0-.793001174926758h.816009521484375c.30499267578125-.002599716186523.53900146484375-.066400527954102.7030029296875-.191400527954102s.24798583984375-.308599472045898.25-.550798416137695c0-.265600204467773-.082000732421875-.455699920654297-.246002197265625-.570301055908203-.16400146484375-.117198944091797-.4010009765625-.177099227905273-.71099853515625-.179698944091797h-.81201171875v1.492198944091797Zm6.50701904296875,2.113300323486328h-1.707000732421875l-.33599853515625,1.1875h-1.156005859375l1.863006591796875-5.6875h.996978759765625l1.8280029296875,5.6875h-1.156982421875l-.332000732421875-1.1875Zm-1.43701171875-.933599472045898h1.17999267578125l-.582000732421875-2.093700408935547-.597991943359375,2.093700408935547Zm7.199005126953125,2.121099472045898h-1.08599853515625v-2.464799880981445h-1.6090087890625v2.464799880981445h-1.089996337890625v-5.6875h1.089996337890625v2.332000732421875h1.6090087890625v-2.332000732421875h1.08599853515625v5.6875Zm3.683990478515625-5.6875h1.10101318359375v5.6875h-1.10101318359375v-3.628900527954102l-1.613983154296875,3.628900527954102h-1.097015380859375v-5.6875h1.097015380859375v3.63279914855957l1.613983154296875-3.63279914855957Zm5.6719970703125,3.19529914855957h-2.33599853515625v1.605501174926758h2.730010986328125v.886699676513672h-3.832000732421875v-5.6875h3.82000732421875v.894500732421875h-2.718017578125v1.433599472045898h2.33599853515625v.867198944091797Z" fill="#fff"/>
    </g>
  </g>
</svg>