<?xml version="1.0" encoding="UTF-8"?>
<svg id="uuid-3263d386-6961-4303-858a-17c4f7bc67a3" data-name="Layer 1" xmlns="http://www.w3.org/2000/svg" width="101" height="101" xmlns:xlink="http://www.w3.org/1999/xlink" viewBox="0 0 101 101">
  <defs>
    <clipPath id="uuid-288a2375-7709-4cc7-87f1-fc3dbce17ac7">
      <rect width="101" height="101" fill="none"/>
    </clipPath>
  </defs>
  <g clip-path="url(#uuid-288a2375-7709-4cc7-87f1-fc3dbce17ac7)" fill="none">
    <g>
      <path d="m101,0H0v101h101V0Z" fill="#566e78"/>
      <path d="m73.759597315935025,38.316398620605469h-12.558684377961981s-.176499183731721,0-.176499183731721.176601409912109v4.237701416015625s0,.176597595214844.176499183731721.176597595214844h4.953060882260615l-5.483585858584775,5.473800659179688c-2.830026954114146-2.118900299072266-6.368105493411349-3.531497955322266-10.082652082348432-3.531497955322266-9.020636972754801,0-16.449730150627147,7.416099548339844-16.449730150627147,16.421298980712891,0,8.298999786376953,6.190578884548813,15.185398101806641,14.327723647609673,16.244800567626953v4.767501831054688h-4.953092016356095s-.176499183731721,0-.176499183731721.176498413085938v4.414398193359375s0,.176597595214844.176499183731721.176597595214844h4.953092016356095v4.767402648925781s0,.176597595214844.176468049636242.176597595214844h4.422598174123777s.176499183731721,0,.176499183731721-.176597595214844v-4.767402648925781h4.953060882260615s.176499183731721,0,.176499183731721-.176597595214844v-4.414398193359375s0-.176498413085938-.176499183731721-.176498413085938h-4.953060882260615v-4.944099426269531c7.783118970466603-1.236000061035156,13.797198671283695-7.94580078125,13.797198671283695-16.244705200195312,0-3.531497955322266-1.062015109591812-6.709796905517578-3.007553562974863-9.3583984375l5.483585858588413-5.473800659179688v4.590900421142578s0,.176601409912109.176499183729902.176601409912109h4.245040431167581q.177526608864355,0,.177526608864355-.176601409912109l-.353994658498777-12.536701202392578c.176468049634423.176601409912109.176468049634423,0,0,0Zm-23.171861436634572,34.961502075195312c-6.721103860874791,0-12.204689719461385-5.473701477050781-12.204689719461385-12.006999969482422,0-6.709701538085938,5.483585858586594-12.006900787353516,12.204689719461385-12.006900787353516,6.722100151911945,0,12.028190535727845,5.473701477050781,12.028190535727845,12.006900787353516,0,6.709796905517578-5.483585858584775,12.006999969482422-12.028190535727845,12.006999969482422Z" fill="#fff" fill-rule="evenodd"/>
      <path d="m57.840361007534739,56.326999664306641h-14.681749440200292s-.176468049638061,0-.176468049638061.176502227783203v3.531497955322266s0,.176601409912109.176468049638061.176601409912109h14.681749440200292q.176499183731721,0,.176499183731721-.176601409912109l-.176499183731721-3.708000183105469c.176499183731721.176502227783203.176499183731721,0,0,0Z" fill="#fff" fill-rule="evenodd"/>
      <path d="m57.840361007534739,62.506999969482422h-14.681749440200292s-.176468049638061,0-.176468049638061.176601409912109v3.708000183105469s0,.176597595214844.176468049638061.176597595214844h14.681749440200292q.176499183731721,0,.176499183731721-.176597595214844l-.176499183731721-3.884601593017578q.176499183731721,0,0,0Z" fill="#fff" fill-rule="evenodd"/>
      <path d="m16.803755943221404,14.832200050354004c-1.415013477055254,0-2.29953311188001.529800415039062-2.830058088205988,1.412600517272949v-4.944000244140625h5.837611651179031v-2.825210571289062h-9.021664397885615v11.477310180664062h3.184052746706584v-.529800415039062c0-1.236000061035156.530524976325978-1.942298889160156,1.591512660786975-1.942298889160156,1.062046243687291,0,1.415044611150734.706298828125,1.415044611150734,1.765798568725586v4.944000244140625c0,1.059499740600586-.352998367463442,1.765800476074219-1.415044611150734,1.765800476074219-1.237486868194537,0-1.591512660786975-.706300735473633-1.591512660786975-1.942300796508789v-2.472099304199219h-3.184052746706584v2.295499801635742c0,3.178300857543945,1.238545427419012,5.120599746704102,4.775565407493559,5.120599746704102,3.538078539299022,0,4.776592832622555-1.76569938659668,4.776592832622555-4.590898513793945v-4.944101333618164c-.177495474767056-3.178298950195312-1.769039269649511-4.590899467468262-3.538047405203542-4.590899467468262Z" fill="#fff" fill-rule="evenodd"/>
      <path d="m32.192467275290255,12.889900207519531h2.123033928150107v4.590900421142578h-1.062015109591812v-.882801055908203c-.176499183731721.706300735473633-.530493842232318,1.05940055847168-1.415013477055254,1.05940055847168-1.237518002290017,0-1.768011844520515-1.05940055847168-1.768011844520515-2.295499801635742v-4.414299964904785c0-1.412569999694824.70699302596222-2.295440673828125,2.122006503017474-2.295440673828125,1.59254008591779,0,2.123033928150107.882870674133301,2.123033928150107,2.118840217590332v.706299781799316h-1.415013477055254v-.706299781799316c0-.52970027923584-.177495474768875-.882829666137695-.708020451094853-.882829666137695-.53049384222868,0-.70699302596222.353129386901855-.70699302596222.882829666137695v4.590900421142578c0,.529799461364746.17649918373354.882900238037109.70699302596222.882900238037109.530524976325978,0,.708020451094853-.353100776672363.708020451094853-.882900238037109v-1.412500381469727h-.708020451094853v-1.059499740600586Z" fill="#fff" fill-rule="evenodd"/>
      <path d="m35.022525363498062,8.828669548034668h3.538047405203542v1.236030578613281h-2.123033928148288v2.472000122070312h1.415013477057073v1.059499740600586h-1.415013477057073v2.648600578308105h2.123033928148288v1.059398651123047h-3.538047405203542v-8.475529670715332Z" fill="#fff" fill-rule="evenodd"/>
      <path d="m40.506111222084655,12.006999969482422v5.297199249267578h-1.238545427419012v-8.475529670715332h1.415044611150734l1.592508951824129,4.94403076171875v-4.94403076171875h1.061018818554658v8.475529670715332h-1.238514293323533l-1.591512660786975-5.297199249267578Z" fill="#fff" fill-rule="evenodd"/>
      <path d="m48.46572937628298,11.124099731445312v3.884600639343262c0,1.236100196838379-.530524976325978,2.295498847961426-2.123065062245587,2.295498847961426h-2.122006503017474v-8.475529670715332h2.122006503017474c1.592540085919609,0,2.123065062245587,1.059450149536133,2.123065062245587,2.295430183410645Zm-2.299533111881829,5.120700836181641c.530493842230499,0,.884488500729276-.353200912475586.884488500729276-.882900238037109v-4.414299964904785c0-.529800415039062-.177495474767056-.882900238037109-.884488500729276-.882900238037109h-.530524976325978v6.180100440979004h.530524976325978Z" fill="#fff" fill-rule="evenodd"/>
      <path d="m49.350217877012255,8.828669548034668h3.360551930438305v1.236030578613281h-1.945507319287572v2.472000122070312h1.415013477055254v1.059499740600586h-1.415013477055254v2.648600578308105h1.945507319287572v1.059398651123047h-3.360551930438305v-8.475529670715332Z" fill="#fff" fill-rule="evenodd"/>
      <path d="m55.01030291933057,13.419599533081055v3.884599685668945h-1.415013477057073v-8.475529670715332h2.123033928150107c1.415044611150734,0,1.945538453381232.706300735473633,1.945538453381232,1.942330360412598v1.05940055847168c0,.882899284362793-.354025792592438,1.412599563598633-1.061018818556477,1.589199066162109l1.415013477055254,3.884599685668945h-1.415013477055254l-1.59254008591779-3.884599685668945Zm0-3.354899406433105v2.648599624633789h.530524976324159c.530493842230499,0,.708020451094853-.176599502563477.708020451094853-.706299781799316v-1.236000061035156c0-.52970027923584-.177526608864355-.706299781799316-.708020451094853-.706299781799316h-.530524976324159Z" fill="#fff" fill-rule="evenodd"/>
      <path d="m30.070460772272781,20.835699081420898h3.360551930436486v1.05940055847168h-1.945538453381232v2.472101211547852h1.415013477057073v1.059398651123047h-1.415013477057073v2.648599624633789h1.945538453381232v1.236000061035156h-3.360551930436486v-8.475500106811523Z" fill="#fff" fill-rule="evenodd"/>
      <path d="m35.730545814589277,29.840900421142578v-.529701232910156c-1.238545427417193-.176599502563477-1.769039269647692-1.059499740600586-1.769039269647692-2.118898391723633v-4.237800598144531c0-1.236000061035156.708020451094853-2.295400619506836,2.29953311188001-2.295400619506836,1.591512660788794,0,2.29953311188001.882801055908203,2.29953311188001,2.295400619506836v4.061199188232422c0,.882900238037109-.353994658498777,1.589200973510742-1.061018818554658,1.942300796508789l1.061018818554658.176599502563477v1.05940055847168l-2.830026954112327-.353099822998047Zm1.237486868196356-2.472101211547852v-4.590898513793945c0-.529701232910156-.17649918373354-.882801055908203-.706993025964039-.882801055908203-.530493842232318,0-.708020451093034.353099822998047-.708020451093034.882801055908203v4.590898513793945c0,.529800415039062.177526608860717.882900238037109.708020451093034.882900238037109.530493842230499,0,.706993025964039-.353099822998047.706993025964039-.882900238037109Z" fill="#fff" fill-rule="evenodd"/>
      <path d="m43.336138176195163,20.835699081420898v6.533201217651367c0,1.412599563598633-.530493842230499,2.118900299072266-1.945507319287572,2.118900299072266-1.415044611147096,0-2.123065062241949-.882900238037109-2.123065062241949-2.118900299072266v-6.533201217651367h1.415044611150734v6.709800720214844c0,.529699325561523.177495474767056.882900238037109.708020451091215.882900238037109.530493842232318,0,.706993025964039-.353200912475586.706993025964039-.882900238037109v-6.709800720214844h1.238514293323533Z" fill="#fff" fill-rule="evenodd"/>
      <path d="m43.866632018425662,29.311199188232422l1.591543794884274-8.475500106811523h1.592508951820491l1.591512660788794,8.475500106811523h-1.415013477057073l-.353994658498777-1.589099884033203h-1.591512660786975l-.176499183731721,1.589099884033203h-1.238545427419012Zm1.769039269649511-2.825199127197266h1.237518002288198l-.530524976325978-3.354900360107422-.70699302596222,3.354900360107422Z" fill="#fff" fill-rule="evenodd"/>
      <path d="m49.350217877012255,20.835699081420898h1.415044611150734v7.239500045776367h1.76900813555585v1.236000061035156h-3.184052746706584v-8.475500106811523Z" fill="#fff" fill-rule="evenodd"/>
      <path d="m54.479809077100072,20.835699081420898h-1.415013477057073v8.475500106811523h1.415013477057073v-8.475500106811523Z" fill="#fff"/>
      <path d="m55.187829528191287,20.835699081420898h3.891045772670623v1.05940055847168h-1.238514293327171v7.416099548339844h-1.415013477055254v-7.416099548339844h-1.237518002288198v-1.05940055847168Z" fill="#fff" fill-rule="evenodd"/>
      <path d="m62.439427231298396,25.956300735473633v3.354898452758789h-1.415013477057073v-3.354898452758789l-1.591512660786975-5.120601654052734h1.591512660786975l.708020451093034,3.178300857543945.884519634826574-3.178300857543945h1.415013477053435l-1.592540085915971,5.120601654052734Z" fill="#fff" fill-rule="evenodd"/>
      <rect x="29.585858585858659" y="4" width="53.050505050505308" height="26" fill="#566e78"/>
      <path d="m29.820516258780117,10.203100204467773h-2.634162363379801v4.796899795532227h-1.119177307744394v-5.6875h3.753339671124195v.890600204467773Zm4.678644970208552,2.304699897766113h-2.383190424754503v1.605500221252441h2.786159014460281v.886699676513672h-3.909414888632455v-5.6875h3.897179189356393v.894499778747559h-2.77392331518422v1.433600425720215h2.383190424754503v.867199897766113Zm5.161192306362864,2.492199897766113h-1.10793789950003v-2.464799880981445h-1.641514017124791v2.464799880981445h-1.112016465929628v-5.6875h1.112016465929628v2.331999778747559h1.641514017124791v-2.331999778747559h1.10793789950003v5.6875Zm5.009195655286021,1.398399353027344h-.964098381275107v-1.398399353027344h-2.195482966875716v1.398399353027344h-.944701840178823l-.175471758600906-2.28119945526123h.215261131825173c.122419260969764-.0625.228524256233868-.149800300598145.318314985795951-.261699676513672.090787020597418-.112000465393066.16628720061999-.263100624084473.227496831104872-.453200340270996.061209630483063-.192699432373047.110183561691883-.430899620056152.146921793619185-.714799880981445.037734522962637-.286499977111816.064260771780027-.63539981842041.080575037483868-1.046899795532227l.159157492898885-2.328100204467773h2.864741469873479v4.804699897766113h.426443697226205l-.159157492897066,2.28119945526123Zm-2.167929292931149-4.75779914855957c-.013263124406876.304699897766113-.032659665503161.58080005645752-.059185914316913.82819938659668-.02447139855758.247300148010254-.056103638928107.472599983215332-.095893012154193.675700187683105-.039789373222447.200600624084473-.086708454169639.381500244140625-.1397609518026.543000221252441-.053052497632962.158900260925293-.111210986820879.30210018157959-.175471758602725.429699897766113h1.255855984158188v-3.91409969329834h-.689651335127564l-.095893012154193,1.4375Zm6.70273474491114.867199897766113h-2.382194133719167v1.605500221252441h2.785162723426765v.886699676513672h-3.909414888634274v-5.6875h3.897179189354574v.894499778747559h-2.772927024147066v1.433600425720215h2.382194133719167v.867199897766113Zm2.522951376558922.406299591064453v2.08590030670166h-1.120173598779729v-5.6875h1.985296692510019c.31626013553614,0,.601915455827111.045570373535156.856965960880189.136719703674316.255050505049439.088540077209473.471339062003608.213540077209473.648865670866144.375.1805777501595.15885066986084.319311276831286.35028076171875.415204288985478.574180603027344.097947862412184.223999977111816.146921793619185.472700119018555.146921793619185.746099472045898,0,.255200386047363-.048973931207001.490900039672852-.146921793619185.707099914550781-.095893012154193.216100692749023-.234626538825978.403600692749023-.415204288985478.5625-.177526608862536.156200408935547-.393815165816704.278600692749023-.648865670866144.367100715637207-.255050505053077.08859920501709-.540705825344048.132899284362793-.856965960880189.132899284362793h-.86512309373029Zm0-.89069938659668h.86512309373029c.159157492897066,0,.296894728533516-.02340030670166.414207997948324-.070300102233887.117313269412989-.046899795532227.214233706694358-.110700607299805.290761311847746-.191400527954102.079578746448533-.080699920654297.138733526671786-.173199653625488.175471758602725-.277299880981445.039789373224266-.106800079345703.060182205352248-.217499732971191.060182205352248-.332099914550781,0-.132800102233887-.020392832127982-.256500244140625-.060182205352248-.371099472045898-.03673823193094-.114500045776367-.095893012154193-.214800834655762-.175471758602725-.300700187683105-.076527605153387-.086000442504883-.173448042434757-.15369987487793-.290761311847746-.203200340270996-.117313269414808-.049400329589844-.255050505051258-.074199676513672-.414207997948324-.074199676513672h-.86512309373029v1.820300102233887Zm7.540304164693225,2.97659969329834h-1.107937899503668v-2.464799880981445h-1.642510308160126v2.464799880981445h-1.111020174892474v-5.6875h1.111020174892474v2.331999778747559h1.642510308160126v-2.331999778747559h1.107937899503668v5.6875Zm5.120406642105081-2.425800323486328c0,.36460018157959-.048973931205182.70050048828125-.146921793621004,1.007800102233887-.098944153447519.307300567626953-.24075995550993.571599960327148-.426443697224386.793000221252441-.186680032749791.221400260925293-.413180572819329.394499778747559-.681494202277463.519499778747559-.266258779200143.122400283813477-.566204649030624.183600425720215-.900833900528596.183600425720215-.334629251499791,0-.632520271070462-.061200141906738-.892676767674857-.183600425720215-.260156496609852-.125-.479496194860985-.298099517822266-.658019094758856-.519499778747559-.177526608860717-.223999977111816-.313208994237357-.488300323486328-.406050865096404-.793000221252441-.092841870857228-.307299613952637-.1397609518026-.643199920654297-.1397609518026-1.007800102233887v-.828099250793457c0-.36460018157959.046919080945372-.70050048828125.1397609518026-1.007800102233887.092841870859047-.307300567626953.228524256235687-.571599960327148.406050865096404-.792990684509277.178522899897871-.223959922790527.395838881984673-.398429870605469.653940528331077-.523429870605469.260156496606214-.125.558047516178704-.1875.892676767676676-.1875.337680392794937,0,.638653687754413.0625.904912466954556.1875.268313629458135.125.494814169527672.299469947814941.681494202277463.523429870605469.185683741714456.221390724182129.327499543776867.485690116882324.426443697224386.792990684509277.097947862415822.307299613952637.146921793621004.643199920654297.146921793621004,1.007800102233887v.828099250793457Zm-1.135491573448235-.835899353027344c0-.231800079345703-.02039283213162-.445300102233887-.060182205355886-.640600204467773-.036738231929121-.195400238037109-.096920437283188-.363300323486328-.178554033991531-.503900527954102-.082629887745497-.14069938659668-.188734883011421-.25-.319311276831286-.32819938659668-.127525252526539-.080699920654297-.282604178997644-.121100425720215-.466233070450471-.121100425720215-.180577750157681,0-.331578110202827.040400505065918-.453997371172591.121100425720215-.122419260969764.07819938659668-.220367123381948.1875-.294839878275525.32819938659668-.074472754891758.140600204467773-.12752525252472.308500289916992-.160153783930582.503900527954102-.031632240374165.195300102233887-.046950215042671.40880012512207-.046950215042671.640600204467773v.835899353027344c0,.22920036315918.015317974668505.441400527954102.046950215042671.636700630187988.032628531405862.195300102233887.085681029038824.364599227905273.160153783930582.507899284362793.074472754893577.143200874328613.172420617305761.255200386047363.294839878275525.33590030670166s.274447046145724.121100425720215.458075937598551.121100425720215c.180577750155862,0,.334629251497972-.040400505065918.462154504024511-.121100425720215.130576393819865-.080699920654297.235653963956793-.191399574279785.315232710405326-.331999778747559.081633596710162-.14330005645752.142843227193225-.3125.182632600417492-.507900238037109.039789373224266-.195300102233887.060182205355886-.40880012512207.060182205355886-.640600204467773v-.835899353027344Zm5.559086038607347.769499778747559h-2.383190424754503v1.605500221252441h2.786159014460281v.886699676513672h-3.909414888632455v-5.6875h3.897179189354574v.894499778747559h-2.773923315182401v1.433600425720215h2.383190424754503v.867199897766113Zm-41.592628864327708,9.40630054473877v2.085899353027344h-1.120173598781548v-5.6875h1.984300401476503c.316260135537959,0,.60191545582893.045600891113281.856965960880189.136699676513672.255050505049439.088600158691406.471339062005427.213600158691406.649861961903298.375.180577750155862.158901214599609.318314985795951.350299835205078.414207997948324.574199676513672.098944153447519.224000930786133.14791808465452.472700119018555.14791808465452.746101379394531,0,.255199432373047-.048973931207001.490900039672852-.14791808465452.707099914550781-.095893012152374.216098785400391-.233630247792462.403598785400391-.414207997948324.5625-.178522899897871.156198501586914-.394811456853859.278598785400391-.649861961903298.367099761962891-.255050505051258.088600158691406-.540705825342229.132900238037109-.856965960880189.132900238037109h-.864126802694955Zm0-.890701293945312h.864126802694955c.160153783936039,0,.29789101957067-.023399353027344.415204288985478-.07029914855957.116316978377654-.046899795532227.213237415659023-.110700607299805.290761311849565-.191400527954102.079578746448533-.080699920654297.137737235634631-.173200607299805.175471758600906-.277299880981445.039789373224266-.106800079345703.059185914316913-.217500686645508.059185914316913-.332099914550781,0-.13279914855957-.019396541092647-.256500244140625-.059185914316913-.371099472045898-.037734522966275-.114500045776367-.095893012152374-.214799880981445-.175471758600906-.300701141357422-.077523896190542-.08599853515625-.174444333471911-.15369987487793-.290761311849565-.20319938659668-.117313269414808-.049400329589844-.255050505049439-.074199676513672-.415204288985478-.074199676513672h-.864126802694955v1.82029914855957Zm6.56297379310854,1.789100646972656h-1.741485595703125l-.342786384351712,1.1875h-1.17935951310028l1.90064308860201-5.6875h1.016123453775435l1.865928572839039,5.6875h-1.180355804137434l-.338707817923932-1.1875Zm-1.466042258523885-.933599472045898h1.202834620620706l-.593758322975191-2.093700408935547-.609076297645515,2.093700408935547Zm3.506446298926676,2.121099472045898v-5.6875h1.948589594676378c.316260135537959,0,.60393917199508.031299591064453.861044527306149.093700408935547.260156496606214.062599182128906.482547336154312.157600402832031.666176227607139.285200119018555.182632600417492.127599716186523.323420977350906.289098739624023.422365130802064.484399795532227.100999003707329.19529914855957.151000360043327.425800323486328.151000360043327.691400527954102-.003051141295145.265598297119141-.075500180022573.503898620605469-.219339698251133.714799880981445-.140788376933415.21099853515625-.348919801037482.371099472045898-.625390563349356.480499267578125.167314625750805.04170036315918.312181569108361.10420036315918.434600830078125.1875.121422969934429.08329963684082.222421973645396.182300567626953.302997011129264.296899795532227.081633596708343.11199951171875.141815802060592.235700607299805.178554033991531.371099472045898.039789373224266.132801055908203.060182205352248.270801544189453.060182205352248.41400146484375,0,.27349853515625-.047946506076187.514398574829102-.14383951822856.722700119018555-.094896721115219.20829963684082-.232602822659828.38279914855957-.410129431522364.523399353027344-.178522899897871.14069938659668-.39481145685204.246099472045898-.649861961901479.316400527954102-.255050505051258.07029914855957-.541733250474863.105499267578125-.860048236270814.105499267578125h-2.116900511462518Zm1.124252165207508-2.50779914855957v1.621099472045898h.995730621645635c.306048152422591-.002599716186523.538650975082419-.07550048828125.697808467979485-.218799591064453.162208634195849-.145801544189453.242814805773378-.335901260375977.242814805773378-.570301055908203.003051141296964-.260398864746094-.068370472299648-.463499069213867-.215261131825173-.609399795532227-.14589436849019-.14579963684082-.371367483430731-.219999313354492-.677415635851503-.222599029541016h-1.043677127721821Zm0-.793001174926758h.832494562322609c.311154143979365-.002599716186523.549890383326783-.066400527954102.717205009075769-.191400527954102.167314625750805-.125.25299565478781-.308599472045898.255050505051258-.550798416137695,0-.265600204467773-.083657312876312-.455699920654297-.250971938625298-.570301055908203-.167314625748986-.117198944091797-.409102006393368-.177099227905273-.72536214192769-.179698944091797h-.828415995896648v1.492198944091797Zm7.356675273242217.808599472045898h-2.383190424758141v1.605501174926758h2.785162723424946v.886699676513672h-3.909414888630636v-5.6875h3.898175480389909v.894500732421875h-2.77392331518422v1.433599472045898h2.383190424758141v.867198944091797Zm5.160196015327529,2.49220085144043h-1.107937899503668v-2.464799880981445h-1.641514017124791v2.464799880981445h-1.112016465927809v-5.6875h1.112016465927809v2.332000732421875h1.641514017124791v-2.332000732421875h1.107937899503668v5.6875Zm5.101010101010615-1.781200408935547c-.01836911596547.286399841308594-.081633596710162.544200897216797-.190789733271231.773401260375977-.106104995265923.229198455810547-.249944513494484.42449951171875-.430522263653984.585899353027344-.180577750155862.1614990234375-.395838881981035.2864990234375-.645783395477338.375-.249944513492665.086000442504883-.525418984769203.128900527954102-.828415995896648.128900527954102-.342786384351712,0-.646810820606333-.061201095581055-.913069599806477-.183601379394531-.265262488162989-.125-.488680752840082-.298099517822266-.669258502997764-.519498825073242-.180577750157681-.224000930786133-.319311276831286-.49220085144043-.414207997950143-.80470085144043-.095893012150555-.3125-.143839518226741-.656200408935547-.143839518226741-1.031200408935547v-.76569938659668c0-.377599716186523.050997647371332-.722599029541016.151000360045145-1.035099029541016.100999003707329-.3125.244838521937709-.580699920654297.430522263652165-.80470085144043.186680032749791-.224000930786133.411125722557699-.397100448608398.673337069425543-.519500732421875.266258779196505-.125.564149798767176-.1875.893673058710192-.1875.318314985795951,0,.600919164793595.044200897216797.848808828028268.132801055908203.248948222459148.088499069213867.462154504024511.214799880981445.637626262625417.378900527954102.174475467565571.163999557495117.313208994237357.364599227905273.414207997948324.601598739624023.100999003707329.236900329589844.164263484453841.503900527954102.190789733271231.800701141357422h-1.115098741320253c-.011208274147066-.169200897216797-.037734522964456-.31770133972168-.080575037483868-.445301055908203-.039789373226085-.127599716186523-.098975287544818-.233098983764648-.17855403399335-.316400527954102-.077523896186904-.085899353027344-.175471758600906-.149698257446289-.294839878275525-.191398620605469-.11731326941117-.044300079345703-.258101646346404-.066400527954102-.422365130800245-.066400527954102-.173416908339277,0-.323389843255427.036500930786133-.450915095780147.109399795532227-.12752525252472.072900772094727-.233630247790643.17970085144043-.318314985795951.320301055908203-.082629887745497.140598297119141-.143839518230379.313798904418945-.183628891452827.519498825073242-.039789373224266.203100204467773-.060182205355886.434900283813477-.060182205355886.695301055908203v.77349853515625c0,.559900283813477.079578746448533.973899841308594.239732530382753,1.24220085144043.16220863419403.268199920654297.41725913924347.402299880981445.765151515150137.402299880981445.291788736980379,0,.523364134511212-.07550048828125.692733610520008-.226600646972656.170365767045951-.153598785400391.264235063032174-.400999069213867.283600470031161-.742099761962891h1.119177307748032Zm5.137717198842438-3.011798858642578h-1.789432101777493v4.792999267578125h-1.124252165207508v-4.792999267578125h-1.764960703223551v-.894500732421875h4.678644970208552v.894500732421875Zm.629469129773497,4.792999267578125v-5.6875h1.948589594676378c.316260135537959,0,.602942880961564.031299591064453.861044527306149.093700408935547.260156496606214.062599182128906.481551045118977.157600402832031.665179936573622.285200119018555.183628891452827.127599716186523.324417268384423.289098739624023.422365130800245.484399795532227.100999003707329.19529914855957.151000360045145.425800323486328.151000360045145.691400527954102-.002054850261629.265598297119141-.075500180022573.503898620605469-.218343407217617.714799880981445-.140788376933415.21099853515625-.349916092072817.371099472045898-.626386854381053.480499267578125.167314625748986.04170036315918.312181569108361.10420036315918.434600830076306.1875.122419260969764.08329963684082.223418264678912.182300567626953.302997011127445.296899795532227.082629887743678.11199951171875.14181580206423.235700607299805.179550325026867.371099472045898.039789373224266.132801055908203.059185914318732.270801544189453.059185914318732.41400146484375,0,.27349853515625-.046950215040852.514398574829102-.142843227193225.722700119018555-.095893012152374.20829963684082-.232602822659828.38279914855957-.41112572255588.523399353027344-.177526608864355.14069938659668-.393815165820342.246099472045898-.648865670869782.316400527954102-.255050505051258.07029914855957-.542729541510198.105499267578125-.861044527306149.105499267578125h-2.115904220427183Zm1.123255874173992-2.50779914855957v1.621099472045898h.996726912679151c.305051861387255-.002599716186523.537654684047084-.07550048828125.696812176945969-.218799591064453.162208634192211-.145801544189453.243811096808713-.335901260375977.243811096808713-.570301055908203.00205485025981-.260398864746094-.069366763338621-.463499069213867-.215261131826992-.609399795532227-.14589436849019-.14579963684082-.372363774462428-.219999313354492-.677415635851503-.222599029541016h-1.044673418755337Zm0-.793001174926758h.833490853356125c.31015785294403-.002599716186523.549890383326783-.066400527954102.717205009075769-.191400527954102.167314625750805-.125.251999363756113-.308599472045898.255050505051258-.550798416137695,0-.265600204467773-.083657312876312-.455699920654297-.250971938625298-.570301055908203-.167314625748986-.117198944091797-.409102006391549-.177099227905273-.72536214192769-.179698944091797h-.829412286930165v1.492198944091797Zm7.835144042966931.875c0,.364601135253906-.048973931205182.70050048828125-.14791808465452,1.007801055908203-.097947862414003.30729866027832-.239763664476413.571599960327148-.426443697226205.792999267578125-.185683741712637.221399307250977-.412184281783993.394500732421875-.680497911242128.519500732421875-.266258779196505.122398376464844-.566204649026986.183599472045898-.900833900528596.183599472045898-.334629251497972,0-.632520271070462-.061201095581055-.892676767676676-.183599472045898-.261152787641549-.125-.479496194857347-.298101425170898-.658019094757037-.519500732421875-.177526608860717-.224000930786133-.313208994237357-.488300323486328-.406050865094585-.792999267578125-.092841870857228-.307300567626953-.139760951804419-.643199920654297-.139760951804419-1.007801055908203v-.828100204467773c0-.364599227905273.046919080947191-.700498580932617.139760951804419-1.00779914855957s.228524256233868-.571599960327148.406050865094585-.793001174926758c.17852289989969-.223899841308594.395838881986492-.398399353027344.653940528331077-.523399353027344.260156496606214-.125.558047516176885-.1875.892676767674857-.1875.337680392796756,0,.63865368775987.0625.904912466956375.1875.268313629458135.125.494814169529491.29949951171875.680497911242128.523399353027344.186680032749791.221401214599609.328495834812202.485700607299805.426443697226205.793001174926758.098944153449338.307300567626953.14791808465452.643199920654297.14791808465452,1.00779914855957v.828100204467773Zm-1.135491573448235-.835899353027344c0-.231800079345703-.020392832129801-.445301055908203-.060182205354067-.640600204467773-.036738231929121-.195400238037109-.096920437283188-.363300323486328-.179550325030505-.503900527954102-.081633596706524-.14069938659668-.188734883007783-.25-.318314985794132-.32819938659668-.127525252522901-.080699920654297-.283600470031161-.121099472045898-.46623307045229-.121099472045898-.180577750155862,0-.332574401236343.040399551391602-.454993662206107.121099472045898-.12142296993261.07819938659668-.220367123381948.1875-.294839878273706.32819938659668-.074472754893577.140600204467773-.127525252526539.308500289916992-.159157492897066.503900527954102-.031632240372346.19529914855957-.047946506078006.40880012512207-.047946506078006.640600204467773v.835899353027344c0,.22920036315918.01631426570566.441400527954102.047946506078006.636699676513672.031632240370527.195301055908203.084684738003489.364601135253906.159157492897066.507900238037109.074472754891758.143199920654297.173416908341096.25520133972168.294839878273706.335901260375977.122419260969764.080699920654297.27544333717924.121099472045898.459072228633886.121099472045898.1805777501595,0,.33462925150161-.040399551391602.462154504024511-.121099472045898.129580102786349-.080699920654297.234657672921458-.191400527954102.31423641936999-.332000732421875.082629887743678-.143301010131836.143839518230379-.3125.183628891454646-.507900238037109.039789373224266-.19529914855957.060182205354067-.40880012512207.060182205354067-.640600204467773v-.835899353027344Z" fill="#fff"/>
    </g>
  </g>
</svg>