<?xml version="1.0" encoding="UTF-8"?>
<svg id="uuid-55995e20-4399-47b7-bea5-c57679df039d" data-name="Layer 1" xmlns="http://www.w3.org/2000/svg" width="101" height="101" xmlns:xlink="http://www.w3.org/1999/xlink" viewBox="0 0 101 101">
  <defs>
    <clipPath id="uuid-7760b5dd-5ecc-4fde-9418-0cf345f4e2b7">
      <rect width="101" height="101" fill="none"/>
    </clipPath>
  </defs>
  <g clip-path="url(#uuid-7760b5dd-5ecc-4fde-9418-0cf345f4e2b7)" fill="none">
    <g>
      <path d="m101,0H0v101h101V0Z" fill="#566e78"/>
      <path d="m69.217302246093823,40.788501739501953s-.176737670899456-.176601409912109-.353475341797093-.176601409912109h-36.727653808593459q-.175751342772855,0-.352489013672312.176601409912109c0,.176498413085938-.176737670897637.176498413085938-.176737670897637.353099822998047l6.180208740233866,37.256996154785156c0,.176605224609375.176737670897637.353103637695312.352489013672312.353103637695312h7.593185424804688l.529226684569949,6.003501892089844h-3.177456054687354l7.415399780273219,7.416099548339844,7.41644775390705-7.416099548339844h-3.178504028321186l.53027465820378-6.003501892089844h7.768936767577543c.176737670897637,0,.352489013672312-.176498413085938.352489013672312-.353103637695312l5.827658081054324-37.256996154785156q.176737670897637-.176601409912109,0-.353099822998047Zm-14.125821533203634,29.840900421142578s-1.589776000975689,1.765701293945312-4.414743041992551,1.589096069335938c-2.648229370115587.176605224609375-4.414681396483502-1.589096069335938-4.414681396483502-1.589096069335938-2.824967041015043-2.648605346679688-1.765465698243133-6.180099487304688-.882763671874272-7.94580078125.530274658201961-1.059501647949219,4.768218383787826-7.416099548339844,5.120707397460137-7.94580078125.353475341797093.529701232910156,4.591480712890188,6.886299133300781,5.120707397460137,7.94580078125,1.236239013673185,1.765701293945312,2.119002685547457,5.120597839355469-.529226684569949,7.94580078125Zm11.653343505859084-22.071701049804688c-1.05950134277191-.353202819824219-2.295740356445094-.176601409912109-3.530931396484448.176597595214844-4.591480712890188,1.765701293945312-7.593185424804688,2.472000122070312-12.360417480467731,1.059402465820312-3.001704711914499-.882900238037109-5.826671752929542-3.001800537109375-9.181913452148365-1.765701293945312-2.118941040040227.706298828125-4.237943725585865,1.589099884033203-6.709373779296584,1.589099884033203l-1.413038330078052-7.416099548339844h34.255175781248909l-1.059501342773729,6.356700897216797Z" fill="#fff" fill-rule="evenodd"/>
      <path d="m15.36212219238223,29.311100006103516c3.530931396484448,0,4.94390808105527-1.942300796508789,4.94390808105527-5.120599746704102v-3.001800537109375c0-3.354799270629883-1.236239013671366-5.120599746704102-3.708717041015916-5.120599746704102-1.411990356444221,0-2.294692382813082.706300735473633-2.824967041015043,1.589200973510742v-4.414401054382324c0-1.236000061035156.353536987304324-2.118800163269043,1.589776000975689-2.118800163269043,1.235191040039354,0,1.588728027343677.706300735473633,1.588728027343677,1.942299842834473v1.412600517272949h3.178442382813955v-1.059499740600586c0-3.001700401306152-1.059501342773729-5.120610237121582-4.767170410157632-5.120610237121582-3.53197937011646,0-4.944956054687282,2.29541015625-4.944956054687282,5.473810195922852v10.06459903717041c0,3.178400039672852,1.412976684570822,5.473800659179688,4.944956054687282,5.473800659179688Zm-1.589776000975689-8.652099609375c0-1.236000061035156.530274658201961-1.942300796508789,1.589776000975689-1.942300796508789,1.235191040039354,0,1.588728027343677.706300735473633,1.588728027343677,2.118900299072266v3.531499862670898c0,1.236000061035156-.529288330077179,2.118801116943359-1.588728027343677,2.118801116943359-1.059501342773729,0-1.589776000975689-.706201553344727-1.589776000975689-2.118801116943359v-3.708099365234375Z" fill="#fff" fill-rule="evenodd"/>
      <path d="m29.311206054688228,15.00879955291748v-4.061199188232422c0-1.412569999694824.705964355467586-2.295440673828125,2.117954711913626-2.295440673828125,1.589776000975689,0,2.119002685545638.882870674133301,2.119002685545638,2.118840217590332v1.059499740600586h-1.411990356444221v-1.059499740600586c0-.52970027923584-.176737670899456-.882829666137695-.707012329101417-.882829666137695-.529226684569949,0-.705964355469405.353129386901855-.705964355469405.882829666137695v4.590900421142578c0,.529799461364746.176737670899456.882900238037109.705964355469405.882900238037109.530274658201961,0,.707012329101417-.353100776672363.707012329101417-.882900238037109v-1.589099884033203h1.411990356444221v1.412599563598633c0,1.236000061035156-.529226684569949,2.118900299072266-2.119002685545638,2.118900299072266-1.588728027343677,0-2.117954711913626-.882900238037109-2.117954711913626-2.295500755310059Z" fill="#fff" fill-rule="evenodd"/>
      <path d="m34.431913452148365,8.652159690856934h1.236239013671366v7.41603946685791h1.588728027343677v1.059501647949219h-2.824967041015043v-8.475541114807129Z" fill="#fff" fill-rule="evenodd"/>
      <path d="m37.962844848632812,8.652159690856934h3.530993041991678v1.236010551452637h-1.942265014648001v2.295430183410645h1.413038330078052v1.23599910736084h-1.413038330078052v2.648599624633789h1.942265014648001v1.059501647949219h-3.530993041991678v-8.475541114807129Z" fill="#fff" fill-rule="evenodd"/>
      <path d="m42.02405090332104,17.127700805664062l1.589776000975689-8.475541114807129h1.588728027343677l1.589714355468459,8.475541114807129h-1.412976684569003l-.353475341797093-1.589200973510742h-1.588728027343677l-.176799316406687,1.589200973510742h-1.236239013671366Zm1.766513671873327-2.648600578308105h1.235252685548403l-.529226684571768-3.354900360107422-.706026000976635,3.354900360107422Z" fill="#fff" fill-rule="evenodd"/>
      <path d="m48.734534301756867,11.830499649047852v5.297201156616211h-1.236239013671366v-8.475541114807129h1.412976684570822l1.412976684570822,4.944040298461914v-4.944040298461914h1.235252685546584v8.475541114807129h-1.235252685546584l-1.589714355470278-5.297201156616211Z" fill="#fff" fill-rule="evenodd"/>
      <path d="m56.85596008300854,11.830499649047852l-.706026000976635,5.297201156616211h-1.412976684570822l-1.059501342773729-8.475541114807129h1.412976684570822l.530274658201961,5.473740577697754.705964355469405-5.473740577697754h1.236239013671366l.706026000976635,5.473740577697754.705964355469405-5.473740577697754h1.236239013671366l-1.059501342773729,8.475541114807129h-1.412976684569003l-.882702026367042-5.297201156616211Z" fill="#fff" fill-rule="evenodd"/>
      <path d="m60.034402465820676,17.127700805664062l1.589714355468459-8.475541114807129h1.588728027343677l1.589776000975689,8.475541114807129h-1.412976684569003l-.353536987304324-1.589200973510742h-1.588728027345496l-.176737670897637,1.589200973510742h-1.236239013671366Zm1.766513671875146-2.648600578308105h1.235191040039354l-.529226684571768-3.354900360107422-.705964355467586,3.354900360107422Z" fill="#fff" fill-rule="evenodd"/>
      <path d="m64.625883178710865,8.652159690856934h3.884406738281541v1.236010551452637h-1.235191040039354v7.239530563354492h-1.412976684570822v-7.239530563354492h-1.236239013671366v-1.236010551452637Z" fill="#fff" fill-rule="evenodd"/>
      <path d="m69.039578247069585,8.652159690856934h3.531979370118279v1.236010551452637h-1.942265014648001v2.295430183410645h1.236239013671366v1.23599910736084h-1.236239013671366v2.648599624633789h1.942265014648001v1.059501647949219h-3.531979370118279v-8.475541114807129Z" fill="#fff" fill-rule="evenodd"/>
      <path d="m74.690498657226271,13.243100166320801v3.884600639343262h-1.411990356444221v-8.475541114807129h2.119002685545638c1.41199035644604,0,1.942203369140771.706290245056152,1.942203369140771,1.942339897155762v1.05940055847168c0,.882900238037109-.353475341797093,1.412599563598633-1.059439697264679,1.589200019836426l1.411928710936991,3.884600639343262h-1.411928710936991l-1.589776000977508-3.884600639343262Zm0-3.35492992401123v2.648630142211914h.53027465820378c.529226684569949,0,.705964355467586-.176600456237793.705964355467586-.706300735473633v-1.236000061035156c0-.529799461364746-.176737670897637-.706329345703125-.705964355467586-.706329345703125h-.53027465820378Z" fill="#fff" fill-rule="evenodd"/>
      <path d="m29.134468383788771,29.311199188232422l1.588728027343677-8.475500106811523h1.589714355468459l1.588728027343677,8.475500106811523h-1.412976684569003l-.352489013672312-1.589099884033203h-1.589714355468459l-.175751342774674,1.589099884033203h-1.236239013671366Zm1.765465698243133-2.825199127197266h1.05950134277191l-.530274658201961-3.354900360107422-.529226684569949,3.354900360107422Z" fill="#fff" fill-rule="evenodd"/>
      <path d="m35.843903808594405,23.837400436401367v5.473798751831055h-1.235252685548403v-8.475500106811523h1.41199035644604l1.589714355468459,4.767501831054688v-4.767501831054688h1.235252685546584v8.475500106811523h-1.235252685546584l-1.766452026366096-5.473798751831055Z" fill="#fff" fill-rule="evenodd"/>
      <path d="m43.967302246093823,22.954500198364258v3.884599685668945c0,1.236000061035156-.53021301269473,2.295499801635742-2.118941040038408,2.295499801635742h-2.295740356446913v-8.475500106811523h2.295740356446913c1.411928710936991.17650032043457,2.118941040038408,1.05940055847168,2.118941040038408,2.295400619506836Zm-2.47247802734455,5.120599746704102c.53027465820378,0,.882763671876091-.353099822998047.882763671876091-.88279914855957v-4.414400100708008c0-.529701232910156-.175751342774674-.882801055908203-.882763671876091-.882801055908203h-.705964355467586v6.180000305175781h.705964355467586Z" fill="#fff" fill-rule="evenodd"/>
      <path d="m45.731781616210355,27.368799209594727v-1.059398651123047h1.412976684570822v1.236000061035156c0,.529699325561523.176799316406687.706298828125.706026000976635.706298828125.53021301269473,0,.707012329101417-.353099822998047.707012329101417-.706298828125v-.353099822998047c0-.529701232910156-.176799316406687-.882900238037109-.707012329101417-1.236000061035156l-.882763671874272-.882900238037109c-.882702026368861-.882900238037109-1.236239013673185-1.236000061035156-1.236239013673185-2.295499801635742v-.353099822998047c0-1.059501647949219.707012329101417-1.942300796508789,2.119002685547457-1.942300796508789,1.412976684570822,0,2.118941040038408.706300735473633,2.118941040038408,1.942300796508789v.706298828125h-1.411928710936991v-.706298828125c0-.529701232910156-.176799316406687-.706300735473633-.707012329101417-.706300735473633-.352489013672312,0-.706026000976635.176599502563477-.706026000976635.706300735473633v.176599502563477c0,.529699325561523.353536987304324.706298828125.706026000976635,1.05940055847168l.882702026367042.882898330688477c.882763671874272.882801055908203,1.236239013671366,1.236000061035156,1.236239013671366,2.118900299072266v.353099822998047c0,1.236000061035156-.705964355467586,1.942300796508789-2.118941040038408,1.942300796508789-1.41199035644604.353199005126953-2.119002685547457-.529699325561523-2.119002685547457-1.589200973510742Z" fill="#fff" fill-rule="evenodd"/>
      <path d="m50.5,29.311199188232422l1.588728027343677-8.475500106811523h1.589714355468459l1.588728027343677,8.475500106811523h-1.411928710936991l-.176799316406687-1.589099884033203h-1.589714355468459l-.175751342772855,1.589099884033203h-1.412976684570822Zm1.765465698241314-2.825199127197266h1.059501342773729l-.529226684569949-3.354900360107422-.53027465820378,3.354900360107422Z" fill="#fff" fill-rule="evenodd"/>
      <path d="m57.032697753906177,23.837400436401367v5.473798751831055h-1.236239013671366v-8.475500106811523h1.412976684569003l1.588728027343677,4.767501831054688v-4.767501831054688h1.236239013673185v8.475500106811523h-1.236239013673185l-1.765465698241314-5.473798751831055Z" fill="#fff" fill-rule="evenodd"/>
      <path d="m62.153405151366314,20.835699081420898h-1.236239013671366v8.475500106811523h1.236239013671366v-8.475500106811523Z" fill="#fff"/>
      <path d="m63.036107177735175,20.835699081420898h3.53197937011646v1.05940055847168h-1.059501342773729v7.416099548339844h-1.412976684570822v-7.416099548339844h-1.05950134277191v-1.05940055847168Z" fill="#fff" fill-rule="evenodd"/>
      <path d="m66.568086547851635,29.311199188232422l1.589714355468459-8.475500106811523h1.588789672850908l1.588728027343677,8.475500106811523h-1.588728027343677l-.176799316404868-1.589099884033203h-1.41199035644604l-.176737670897637,1.589099884033203h-1.412976684570822Zm1.765465698241314-2.825199127197266h1.059501342773729l-.529226684569949-3.354900360107422-.53027465820378,3.354900360107422Z" fill="#fff" fill-rule="evenodd"/>
      <path d="m71.159567260741824,20.835699081420898h3.707669067382085v1.05940055847168h-1.235191040037535v7.416099548339844h-1.236239013671366v-7.416099548339844h-1.236239013673185v-1.05940055847168Z" fill="#fff" fill-rule="evenodd"/>
      <path d="m76.986239013671366,20.835699081420898h-1.236239013671366v8.475500106811523h1.236239013671366v-8.475500106811523Z" fill="#fff"/>
      <path d="m77.869002685547457,27.01569938659668v-4.061199188232422c0-1.412599563598633.705964355467586-2.295400619506836,2.294692382811263-2.295400619506836,1.589714355468459,0,2.295740356446913.882801055908203,2.295740356446913,2.295400619506836v4.061199188232422c0,1.412601470947266-.706026000978454,2.295499801635742-2.295740356446913,2.295499801635742-1.588728027343677,0-2.294692382811263-1.059499740600586-2.294692382811263-2.295499801635742Zm2.824967041015043.176601409912109v-4.590900421142578c0-.529800415039062-.176799316406687-.882900238037109-.706026000976635-.882900238037109-.53021301269473,0-.707012329101417.353099822998047-.707012329101417.882900238037109v4.590900421142578c0,.529699325561523.176799316406687.88279914855957.707012329101417.88279914855957.529226684569949,0,.706026000976635-.353099822998047.706026000976635-.88279914855957Z" fill="#fff" fill-rule="evenodd"/>
      <path d="m84.22594909667896,23.837400436401367v5.473798751831055h-1.05950134277191v-8.475500106811523h1.236239013671366l1.588728027343677,4.767501831054688v-4.767501831054688h1.059501342773729v8.475500106811523h-1.059501342773729l-1.765465698243133-5.473798751831055Z" fill="#fff" fill-rule="evenodd"/>
      <rect x="24.239999999999782" y="6" width="71.709999999999127" height="35" fill="#566e78"/>
      <path d="m30.67468139648372,9.3125v5.6875h-1.111961669921584v-2.168000221252441c-.068673095702252.01830005645752-.139380493163117.035200119018555-.213108520507376.050800323486328-.073728027344259.012999534606934-.147456054688519.024800300598145-.221184082030959.035200119018555-.070707397460865.007800102233887-.140428466796948.014299392700195-.209101562501019.019499778747559-.065652465818857.005200386047363-.124215698240732.007800102233887-.173717041014243.007800102233887-.28381591797006,0-.542357177735539-.035099983215332-.773651123046875-.105500221252441-.22827331542976-.07289981842041-.424182739257958-.184900283813477-.587851562500873-.33590030670166-.16058654785229-.151000022888184-.284802246093022-.34369945526123-.374681396484448-.578099250793457-.086858520508031-.237000465393066-.130318603514752-.518199920654297-.130318603514752-.84380054473877v-1.769499778747559h1.10900268554542v1.769499778747559c0,.19010066986084.014116821290372.347700119018555.04346008300854.472700119018555.031254272460501.125.078721313477217.225199699401855.142401123046511.300800323486328.062570190430051.07289981842041.141353149414499.125.236348876953343.15619945526123.094934082031614.02869987487793.206019287110394.043000221252441.335289916993133.043000221252441.052521972655086,0,.112133178710792-.001299858093262.177785644529649-.003899574279785.065652465820676-.005200386047363.134325561524747-.011700630187988.205032958985612-.019599914550781.07372802734244-.010400772094727.1474560546867-.022100448608398.221184082030959-.035099983215332.073728027344259-.01300048828125.144435424805124-.028700828552246.213108520507376-.046900749206543v-2.636699676513672h1.111961669921584Zm3.613782958984302,0h1.113071289062646v5.6875h-1.113071289062646v-3.628899574279785l-1.629105834959773,3.628899574279785h-1.109002685547239v-5.6875h1.109002685547239v3.632800102233887l1.629105834959773-3.632800102233887Zm6.182243041992479,3.906299591064453c-.01818542480396.28640079498291-.080817260741242.54419994354248-.188881835936627.77340030670166-.10504394531381.22920036315918-.247445068360321.424500465393066-.426217041016571.58590030670166-.17877197265625.161499977111816-.391880493163626.286499977111816-.639325561522128.375-.247445068360321.085999488830566-.521151123048185.128899574279785-.82013183593881.128899574279785-.339358520506721,0-.640311889648729-.061200141906738-.903969726561627-.183599472045898-.262548217773656-.125-.483732299804615-.298100471496582-.662504272460865-.519500732421875-.17877197265625-.223999977111816-.316179809571622-.492199897766113-.410065917969405-.804699897766113-.094934082031614-.3125-.142401123046511-.65619945526123-.142401123046511-1.03119945526123v-.765700340270996c0-.377599716186523.04943969726628-.722599983215332.149428710938082-1.035099983215332s.242451782225544-.580699920654297.426217041014752-.804699897766113c.18487487793027-.223959922790527.40704528808601-.397139549255371.666634521485321-.519530296325684.263596191405668-.125.558508300780886-.1875.883749999999054-.1875.316118164062573,0,.595865478515407.044270515441895.840289916992333.132810592651367.247445068358502.088540077209473.458580932616314.214839935302734.631250000000364.378910064697266.173717041016062.164059638977051.311124877929615.364609718322754.411113891601417.601609230041504.099989013671802.236900329589844.162559204101854.503900527954102.188820190429396.800700187683105h-1.104934082031832c-.010109863280377-.16919994354248-.03637084960792-.317699432373047-.078782958984448-.445300102233887-.039391479491314-.127599716186523-.097954711913189-.233099937438965-.176737670897637-.316399574279785-.076748657225835-.08590030670166-.173717041016062-.149700164794922-.291891479491824-.191400527954102-.116140136718968-.044299125671387-.255520629883904-.066399574279785-.41912780761777-.066399574279785-.170696411132667,0-.319200439453198.036499977111816-.445450439452543.109399795532227-.126250000001164.07289981842041-.231232299805924.179699897766113-.315070190430561.320300102233887-.081803588866023.140600204467773-.142401123046511.313799858093262-.181792602537826.519499778747559-.039391479493133.203100204467773-.059611206055706.434900283813477-.059611206055706.695300102233887v.773500442504883c0,.55989933013916.078782958984448.973899841308594.237335205078125,1.242199897766113.159600219727508.268199920654297.412100219726199.402299880981445.757499999999709.402299880981445.288870849610248,0,.51813049316479-.075499534606934.685806274414062-.22659969329834.168662109375873-.153600692749023.261561889648874-.401000022888184.280795288086665-.742100715637207h1.107954711913408Zm5.085322875976999-3.011799812316895h-1.770520629883322v4.793000221252441h-1.113009643553596v-4.793000221252441h-1.747280273437354v-.894499778747559h4.630810546874272v.894499778747559Zm3.456217041015407,3.605500221252441h-1.724039916991387l-.33935852050854,1.1875h-1.167565917969114l1.881605834962102-5.6875h1.006979370116824l1.846282958984375,5.6875h-1.168552246093896l-.335351562500364-1.1875Zm-1.451320190430124-.933600425720215h1.191792602539863l-.587851562500873-2.09369945526123-.60394104003899,2.09369945526123Zm5.965004272460646,2.121100425720215v-2.238300323486328h-.88775695800723l-1.080707397461083,2.238300323486328h-1.187785644531687l1.243328247071986-2.570300102233887c-.306008300782196-.148499488830566-.538350219727363-.34119987487793-.698936767579653-.578100204467773-.157504272459846-.239599227905273-.236287231444294-.52869987487793-.236287231444294-.867199897766113,0-.273499488830566.048453369139679-.514299392700195.145421752929906-.722700119018555.097954711913189-.20829963684082.237335205078125-.382789611816406.418141479491169-.523419380187988.184813232423039-.140620231628418.40704528808601-.246089935302734.667620849610103-.316400527954102.259527587890261-.072919845581055.551419067382085-.109379768371582.875674438475471-.109379768371582h1.854358520507958v5.6875h-1.113071289062646Zm-1.740191040038553-3.949199676513672c0,.296899795532227.082789916992624.516900062561035.249479370117115.660099983215332.165641479492479.14069938659668.415120849609593.210999488830566.749424438476126.210999488830566h.741287231445312v-1.718799591064453h-.741287231445312c-.342440795897346,0-.594940795897855.074199676513672-.757499999999709.222700119018555-.160586547850471.148399353027344-.241403808593532.356800079345703-.241403808593532.625Zm8.952653808593823,3.949199676513672v-5.6875h1.929072875976999c.313097534179178,0,.596913452147419.03125.852434082031323.09375.257554931640698.0625.476704711913044.157549858093262.658558959959919.285160064697266.181792602539645.127599716186523.32117309570458.289059638977051.418079833985757.484390258789062.100050659179033.195300102233887.149490356445312.425799369812012.149490356445312.691399574279785-.001972656251382.265600204467773-.074714355469041.503900527954102-.216129150390771.714799880981445-.139380493164936.211000442504883-.346447753907341.371100425720215-.620153808593386.480500221252441.16564147949066.04170036315918.309090576171002.10420036315918.430285644530159.1875s.221184082030959.182299613952637.299967041015407.296899795532227c.081803588867842.112000465393066.140366821289717.235700607299805.177785644531468.371100425720215.039391479493133.132800102233887.058563232421875.27079963684082.058563232421875.413999557495117,0,.273500442504883-.046480712890116.514400482177734-.141414794921729.722700119018555s-.230245971679324.382800102233887-.40704528808601.52340030670166c-.175689697265625.14069938659668-.389846191406832.246099472045898-.642346191405522.316399574279785-.252500000000509.070300102233887-.537302246093532.105500221252441-.852434082031323.105500221252441h-2.094714355469478Zm1.111961669921584-2.507800102233887v1.621100425720215h.9868212890633c.30193969726497-.00260066986084.532247314453343-.07550048828125.689813232422239-.21880054473877.160586547850471-.14579963684082.241403808593532-.335899353027344.241403808593532-.570300102233887.001972656249563-.26039981842041-.068734741211301-.463500022888184-.213108520507376-.609399795532227-.144435424805124-.14579963684082-.368701782226708-.220000267028809-.670641479493497-.222599983215332h-1.034288330078198Zm0-.793000221252441h.825186767578998c.307056274414208-.002599716186523.544391479492333-.066399574279785.710032958984812-.191399574279785.16564147949066-.125.249479370117115-.308600425720215.25249999999869-.550800323486328,0-.265600204467773-.082789916990805-.455699920654297-.248431396483284-.570300102233887-.165641479492479-.117199897766113-.405010986329216-.177099227905273-.718108520508395-.179699897766113h-.821179809570822v1.492199897766113Zm7.756854248047603.875c0,.36460018157959-.048515014648729.70050048828125-.146469726561918,1.007800102233887-.096968383790227.307300567626953-.237335205078125.571599960327148-.422210083008395.793000221252441-.183826904296438.221400260925293-.408031616210792.394499778747559-.673662109375073.519499778747559-.263596191405668.122400283813477-.560542602539499.183600425720215-.891825561522637.183600425720215-.331282958984957,0-.626195068360175-.061200141906738-.883750000000873-.183600425720215-.258541259765479-.125-.47467041015625-.298099517822266-.651469726562937-.519499778747559-.175689697265625-.223999977111816-.310015258788553-.488300323486328-.401928710936772-.793000221252441-.091913452148219-.307299613952637-.138394165040154-.643199920654297-.138394165040154-1.007800102233887v-.828099250793457c0-.36460018157959.046480712891935-.70050048828125.138394165040154-1.007800102233887.091913452148219-.307300567626953.226239013671147-.571599960327148.401928710936772-.792990684509277.176799316406687-.223959922790527.391880493163626-.398429870605469.64746276855476-.523429870605469.257554931640698-.125.552467041015916-.1875.883750000000873-.1875.334303588866533,0,.632236328125146.0625.895832519530813.1875.265630493164281.125.489835205078634.299469947814941.673662109375073.523429870605469.18487487793027.221390724182129.325241699218168.485690116882324.422210083008395.792990684509277.097954711913189.307299613952637.146469726561918.643199920654297.146469726561918,1.007800102233887v.828099250793457Zm-1.124167480469623-.835899353027344c0-.231800079345703-.020219726562573-.445300102233887-.059611206053887-.640600204467773-.036309204102508-.195400238037109-.095920410156396-.363300323486328-.177723999024238-.503900527954102-.080817260741242-.14069938659668-.186847534179833-.25-.315131835935972-.32819938659668-.126250000001164-.080699920654297-.280795288086665-.121100425720215-.461539916992479-.121100425720215-.17877197265625,0-.329310302735394.040400505065918-.45050537109455.121100425720215-.120147094727145.07819938659668-.218163452147564.1875-.291891479491824.32819938659668-.073728027344259.140600204467773-.126249999999345.308500289916992-.157565917968896.503900527954102-.031254272460501.195300102233887-.047467041014897.40880012512207-.047467041014897.640600204467773v.835899353027344c0,.22920036315918.016212768554396.441400527954102.047467041014897.636700630187988.03131591796955.195300102233887.083837890624636.364599227905273.157565917968896.507899284362793.073728027344259.143200874328613.171744384764679.255200386047363.291891479491824.33590030670166.121195068359157.080699920654297.272719726563082.121100425720215.454512329102727.121100425720215.17877197265625,0,.331282958983138-.040400505065918.457532958984302-.121100425720215.128284301756139-.080699920654297.232280273436118-.191399574279785.311063232420565-.331999778747559.081803588867842-.14330005645752.142401123046511-.3125.181792602539645-.507900238037109.039391479491314-.195300102233887.059611206053887-.40880012512207.059611206053887-.640600204467773v-.835899353027344Zm5.866063232422675,4.660099029541016h-.954395751952688v-1.398399353027344h-2.173558959961156v1.398399353027344h-.935223999023947l-.173717041016062-2.28119945526123h.213108520509195c.121195068359157-.0625.226239013671147-.149800300598145.315070190428742-.261699676513672.089940795898656-.112000465393066.164655151367697-.263100624084473.225252685546366-.453200340270996.060597534180488-.192699432373047.109050903320167-.430899620056152.146469726563737-.714799880981445.036309204100689-.286499977111816.062570190430051-.63539981842041.078782958984448-1.046899795532227l.157565917968896-2.328100204467773h2.837049560546802v4.804699897766113h.422210083006576l-.158613891600908,2.28119945526123Zm-2.146249999999782-4.75779914855957c-.013130493163771.304699897766113-.032302246094332.58080005645752-.058563232421875.82819938659668-.024226684570749.247300148010254-.05554260253848.472599983215332-.094934082031614.675700187683105-.039391479493133.200600624084473-.085872192383249.381500244140625-.138394165038335.543000221252441-.052521972656905.158900260925293-.110037231444949.30210018157959-.173717041016062.429699897766113h1.243328247070167v-3.91409969329834h-.682785644530668l-.094934082031614,1.4375Zm5.925674438476562,2.171899795532227h-1.724039916993206l-.339358520506721,1.1875h-1.167565917969114l1.882653808594114-5.6875h1.005931396482993l1.846282958984375,5.6875h-1.167565917967295l-.336337890625146-1.1875Zm-1.451320190430124-.933600425720215h1.191792602539863l-.587851562500873-2.09369945526123-.60394104003899,2.09369945526123Zm-47.240740356444803,5.433600425720215h1.111961669921584v5.6875h-1.111961669921584v-3.628900527954102l-1.630153808593604,3.628900527954102h-1.107954711915227v-5.6875h1.107954711915227v3.63279914855957l1.630153808593604-3.63279914855957Zm11.03423767089771,3.906299591064453c-.01818542480396.286399841308594-.080817260741242.544200897216797-.188881835936627.773401260375977-.10504394531381.229198455810547-.247445068360321.42449951171875-.426217041016571.585899353027344-.17877197265625.1614990234375-.391880493163626.2864990234375-.639325561522128.375-.247445068360321.086000442504883-.521151123048185.128900527954102-.82013183593881.128900527954102-.339358520506721,0-.640311889648729-.061201095581055-.903969726561627-.183601379394531-.262548217773656-.125-.483732299804615-.298099517822266-.662504272460865-.519498825073242-.17877197265625-.224000930786133-.316179809571622-.49220085144043-.410065917969405-.80470085144043-.094934082031614-.3125-.142401123046511-.656200408935547-.142401123046511-1.031200408935547v-.76569938659668c0-.377599716186523.04943969726628-.722599029541016.149428710938082-1.035099029541016s.242451782225544-.580699920654297.426217041014752-.80470085144043c.18487487793027-.224000930786133.40704528808601-.397100448608398.666634521485321-.519500732421875.263596191405668-.125.558508300780886-.1875.883749999999054-.1875.316118164062573,0,.595865478515407.044200897216797.840289916992333.132801055908203.247445068358502.088499069213867.458580932616314.214799880981445.631250000000364.378900527954102.173717041016062.163999557495117.311124877929615.364599227905273.411113891601417.601598739624023.099989013671802.236900329589844.162559204101854.503900527954102.188820190429396.800701141357422h-1.104934082031832c-.010109863280377-.169200897216797-.03637084960792-.31770133972168-.078782958984448-.445301055908203-.039391479491314-.127599716186523-.097954711913189-.233098983764648-.176737670897637-.316400527954102-.076748657225835-.085899353027344-.173717041016062-.149698257446289-.291891479491824-.191398620605469-.116140136718968-.044300079345703-.255520629883904-.066400527954102-.41912780761777-.066400527954102-.170696411132667,0-.319200439453198.036500930786133-.445450439452543.109399795532227-.126250000001164.072900772094727-.231232299805924.17970085144043-.315070190430561.320301055908203-.081803588866023.140598297119141-.142401123046511.313798904418945-.181792602537826.519498825073242-.039391479493133.203100204467773-.059611206055706.434900283813477-.059611206055706.695301055908203v.77349853515625c0,.559900283813477.078782958984448.973899841308594.237335205078125,1.24220085144043.159600219727508.268199920654297.412100219726199.402299880981445.757499999999709.402299880981445.288870849610248,0,.51813049316479-.07550048828125.685806274414062-.226600646972656.168662109375873-.153598785400391.261561889648874-.400999069213867.280795288086665-.742099761962891h1.107954711913408Zm3.689545288087174.593700408935547h-1.724101562500437l-.33935852050854,1.1875h-1.168552246093896l1.882653808594114-5.6875h1.005931396484812l1.846282958984375,5.6875h-1.167565917969114l-.335289916991314-1.1875Zm-1.452429809571186-.933599472045898h1.191854248047093l-.587851562500873-2.093700408935547-.60400268554622,2.093700408935547Zm7.271026000977145,2.121099472045898h-1.096858520508249v-2.464799880981445h-1.625098876953416v2.464799880981445h-1.100927124023656v-5.6875h1.100927124023656v2.332000732421875h1.625098876953416v-2.332000732421875h1.096858520508249v5.6875Zm3.720861206054906-5.6875h1.113009643553596v5.6875h-1.113009643553596v-3.628900527954102l-1.629167480468823,3.628900527954102h-1.109002685547239v-5.6875h1.109002685547239v3.63279914855957l1.629167480468823-3.63279914855957Zm6.415509643553378.894500732421875h-1.771568603515334v4.792999267578125h-1.113009643553596v-4.792999267578125h-1.747280273439173v-.894500732421875h4.631858520508104v.894500732421875Zm3.455169067383395,3.605499267578125h-1.724039916991387l-.33935852050854,1.1875h-1.167565917969114l1.881605834960283-5.6875h1.006979370118643l1.846282958984375,5.6875h-1.168552246093896l-.335351562500364-1.1875Zm-1.451320190430124-.933599472045898h1.191792602539863l-.587851562500873-2.093700408935547-.60394104003899,2.093700408935547Zm4.659105834960428.035200119018555v2.085899353027344h-1.107954711913408v-5.6875h1.964457397461956c.313097534179178,0,.595865478515407.045600891113281.848365478514097.136699676513672.252500000000509.088600158691406.466656494141716.213600158691406.642346191407341.375.17877197265625.158901214599609.316179809569803.350299835205078.411113891601417.574199676513672.096906738281177.224000930786133.145421752929906.472700119018555.145421752929906.746101379394531,0,.255199432373047-.048515014648729.490900039672852-.145421752929906.707099914550781-.094934082031614.216098785400391-.232341918945167.403598785400391-.411113891601417.5625-.175689697265625.156198501586914-.389846191406832.278598785400391-.642346191407341.367099761962891-.25249999999869.088600158691406-.535267944334919.132900238037109-.848365478514097.132900238037109h-.856502685548548Zm0-.890701293945312h.856502685548548c.157504272459846,0,.294912109373399-.023399353027344.410004272460355-.07029914855957.116201782226199-.046899795532227.212122192382594-.110700607299805.287884521483647-.191400527954102.078782958984448-.080699920654297.137346191406323-.173200607299805.173717041016062-.277299880981445.039391479493133-.106800079345703.059611206053887-.217500686645508.059611206053887-.332099914550781,0-.13279914855957-.020219726560754-.256500244140625-.059611206053887-.371099472045898-.036370849609739-.114500045776367-.094934082031614-.214799880981445-.173717041016062-.300701141357422-.075762329101053-.08599853515625-.171682739257449-.15369987487793-.287884521483647-.20319938659668-.115092163086956-.049400329589844-.252500000000509-.074199676513672-.410004272460355-.074199676513672h-.856502685548548v1.82029914855957Zm6.332719726564392-2.710899353027344h1.111961669921584v5.6875h-1.111961669921584v-3.628900527954102l-1.630153808595423,3.628900527954102h-1.107954711913408v-5.6875h1.107954711913408v3.63279914855957l1.630153808595423-3.63279914855957Zm4.679325561523001,5.6875v-2.238300323486328h-.88781860351628l-1.081693725585865,2.238300323486328h-1.186737670897855l1.242280273436336-2.57029914855957c-.305021972655595-.148500442504883-.538350219725544-.341201782226562-.697888793944003-.578100204467773-.158613891602727-.239601135253906-.237396850587174-.52869987487793-.237396850587174-.86720085144043,0-.273500442504883.048515014648729-.514299392700195.146469726563737-.722700119018555.096968383788408-.20829963684082.236348876951524-.38279914855957.418141479491169-.523399353027344.183826904296438-.140600204467773.405997314453998-.246099472045898.666634521485321-.316400527954102.260575561522273-.072898864746094.552467041014097-.109399795532227.875612792968241-.109399795532227h1.854358520507958v5.6875h-1.111961669921584Zm-1.740252685547603-3.949199676513672c0,.296899795532227.082851562499854.516899108886719.248493041992333.660099029541016.165579833985248.140701293945312.415059204100544.211000442504883.749362792968896.211000442504883h.742396850586374v-1.718799591064453h-.742396850586374c-.341331176758104,0-.593831176758613.074199676513672-.757499999999709.222700119018555-.16058654785229.148399353027344-.24035583496152.356800079345703-.24035583496152.625Z" fill="#fff"/>
    </g>
  </g>
</svg>