<?xml version="1.0" encoding="UTF-8"?>
<svg id="uuid-862b298b-ed26-4eb2-8596-643ff56b85a0" data-name="Layer 1" xmlns="http://www.w3.org/2000/svg" width="101" height="101" xmlns:xlink="http://www.w3.org/1999/xlink" viewBox="0 0 101 101">
  <defs>
    <clipPath id="uuid-be37e656-257f-43b8-adee-89944a0aa3f8">
      <rect width="101" height="101" fill="none"/>
    </clipPath>
  </defs>
  <g clip-path="url(#uuid-be37e656-257f-43b8-adee-89944a0aa3f8)" fill="none">
    <g>
      <path d="m101,0H0v101h101V0Z" fill="#566e78"/>
      <path d="m50.677001953125,48.910800933837891c-8.12200927734375,0-14.83203125,6.709800720214844-14.83203125,14.832099914550781,0,8.122402191162109,6.71002197265625,14.832202911376953,14.83203125,14.832202911376953s14.83197021484375-6.709800720214844,14.83197021484375-14.832202911376953c0-8.122299194335938-6.7099609375-14.832099914550781-14.83197021484375-14.832099914550781Zm-1.05999755859375,5.826900482177734c0-.529701232910156.52996826171875-1.059501647949219,1.05999755859375-1.059501647949219.52996826171875,0,1.05902099609375.529800415039062,1.05902099609375,1.059501647949219v5.120597839355469c0,.529701232910156-.529052734375,1.059501647949219-1.05902099609375,1.059501647949219-.530029296875,0-1.05999755859375-.529800415039062-1.05999755859375-1.059501647949219v-5.120597839355469Zm1.05999755859375,16.597900390625c-4.23797607421875,0-7.76898193359375-3.531501770019531-7.76898193359375-7.769203186035156,0-3.531497955322266,2.29498291015625-6.356697082519531,5.47296142578125-7.416099548339844v2.825199127197266c-1.5889892578125.882801055908203-2.824951171875,2.472000122070312-2.824951171875,4.414302825927734,0,2.8251953125,2.29595947265625,5.120597839355469,5.1209716796875,5.120597839355469s5.1209716796875-2.295402526855469,5.1209716796875-5.120597839355469c0-1.942302703857422-1.05999755859375-3.708099365234375-2.82598876953125-4.590900421142578v-2.825199127197266c3.17901611328125,1.059398651123047,5.4739990234375,3.884597778320312,5.4739990234375,7.416099548339844,0,4.590896606445312-3.531005859375,7.94580078125-7.76898193359375,7.94580078125Z" fill="#fff" fill-rule="evenodd"/>
      <path d="m33.7249755859375,63.743000030517578c0-.706298828125-.52996826171875-1.236000061035156-1.0589599609375-1.236000061035156h-6.53399658203125c-.52899169921875,0-1.23602294921875.529701232910156-1.23602294921875,1.236000061035156,0,.706302642822266.530029296875,1.235996246337891,1.23602294921875,1.235996246337891h6.53399658203125c.35296630859375-.176498413085938,1.0589599609375-.706199645996094,1.0589599609375-1.235996246337891Z" fill="#fff" fill-rule="evenodd"/>
      <path d="m76.27899169921875,63.743000030517578c0-.706298828125-.52899169921875-1.236000061035156-1.05902099609375-1.236000061035156h-6.35699462890625c-.52996826171875,0-1.0589599609375.529701232910156-1.0589599609375,1.236000061035156,0,.706302642822266.52899169921875,1.235996246337891,1.0589599609375,1.235996246337891h6.35699462890625c.530029296875-.176498413085938,1.05902099609375-.706199645996094,1.05902099609375-1.235996246337891Z" fill="#fff" fill-rule="evenodd"/>
      <path d="m50.5,89.346199035644531c.70599365234375,0,1.23602294921875-.529701232910156,1.23602294921875-1.059402465820312v-6.356697082519531c0-.529701232910156-.530029296875-1.059402465820312-1.23602294921875-1.059402465820312-.70697021484375,0-1.23602294921875.529701232910156-1.23602294921875,1.059402465820312v6.356697082519531c.176025390625.529701232910156.70599365234375,1.059402465820312,1.23602294921875,1.059402465820312Z" fill="#fff" fill-rule="evenodd"/>
      <path d="m72.92401123046875,76.456298828125c.35400390625-.529701232910156.0009765625-1.41259765625-.35302734375-1.589096069335938l-5.64996337890625-3.354904174804688c-.530029296875-.176597595214844-1.23602294921875,0-1.58905029296875.529701232910156-.35296630859375.529701232910156,0,1.41259765625.35302734375,1.765701293945312l5.6500244140625,3.354896545410156c.52996826171875.176605224609375,1.2359619140625,0,1.5889892578125-.706298828125Z" fill="#fff" fill-rule="evenodd"/>
      <path d="m37.7860107421875,85.991302490234375c.52996826171875.353096008300781,1.4129638671875.176498413085938,1.5899658203125-.353202819824219l3.35400390625-5.650299072265625c.177001953125-.529800415039062,0-1.236099243164062-.52899169921875-1.589202880859375-.52996826171875-.353096008300781-1.4129638671875,0-1.5889892578125.353103637695312l-3.35498046875,5.650398254394531c-.35302734375.529701232910156-.177001953125,1.41259765625.52899169921875,1.589202880859375Z" fill="#fff" fill-rule="evenodd"/>
      <path d="m63.38897705078125,85.814697265625c.530029296875-.353195190429688.70703125-1.059494018554688.530029296875-1.589195251464844l-3.177978515625-5.650398254394531c-.35302734375-.529701232910156-1.05999755859375-.706306457519531-1.58905029296875-.353103637695312-.52996826171875.353103637695312-.70697021484375,1.059402465820312-.52996826171875,1.589202880859375l3.177978515625,5.47369384765625c.177001953125.706306457519531,1.05999755859375.882904052734375,1.5889892578125.529800415039062Z" fill="#fff" fill-rule="evenodd"/>
      <path d="m28.42901611328125,76.456298828125c.35296630859375.529701232910156,1.0589599609375.706298828125,1.5889892578125.529701232910156l5.6500244140625-3.354896545410156c.52996826171875-.353103637695312.70697021484375-1.059402465820312.35296630859375-1.765701293945312-.35296630859375-.529701232910156-1.05902099609375-.706298828125-1.5889892578125-.529701232910156l-5.6500244140625,3.354896545410156c-.52996826171875.353103637695312-.70599365234375,1.236000061035156-.35296630859375,1.765701293945312Z" fill="#fff" fill-rule="evenodd"/>
      <path d="m50.5,46.615398406982422c.70599365234375,0,1.23602294921875-.529796600341797,1.23602294921875-1.059497833251953v-6.356601715087891c0-.529697418212891-.530029296875-1.059497833251953-1.23602294921875-1.059497833251953-.70697021484375,0-1.23602294921875.529800415039062-1.23602294921875,1.059497833251953v6.356601715087891c.176025390625.529701232910156.70599365234375,1.059497833251953,1.23602294921875,1.059497833251953Z" fill="#fff" fill-rule="evenodd"/>
      <path d="m35.843994140625,55.090999603271484c.35400390625-.529800415039062,0-1.412601470947266-.35296630859375-1.589199066162109l-5.6500244140625-3.178298950195312c-.530029296875-.176601409912109-1.23602294921875,0-1.5889892578125.529697418212891-.35302734375.529701232910156,0,1.412601470947266.35296630859375,1.589202880859375l5.6500244140625,3.178298950195312c.52996826171875.176597595214844,1.23602294921875,0,1.5889892578125-.529701232910156Z" fill="#fff" fill-rule="evenodd"/>
      <path d="m59.1519775390625,48.910800933837891c.529052734375.353199005126953,1.41204833984375.176597595214844,1.58905029296875-.353099822998047l3.177978515625-5.650402069091797c.177001953125-.529697418212891,0-1.236000061035156-.530029296875-1.589099884033203-.52899169921875-.353199005126953-1.4119873046875,0-1.5889892578125.353099822998047l-3.177978515625,5.650302886962891c-.35302734375.529796600341797-.177001953125,1.41259765625.52996826171875,1.589199066162109Z" fill="#fff" fill-rule="evenodd"/>
      <path d="m42.20098876953125,48.910800933837891c.530029296875-.353202819824219.70703125-1.059501647949219.530029296875-1.589199066162109l-3.35504150390625-5.650302886962891c-.35296630859375-.529697418212891-1.0589599609375-.706298828125-1.76495361328125-.353199005126953-.530029296875.353199005126953-.70703125,1.236000061035156-.530029296875,1.589199066162109l3.35498046875,5.650299072265625c.35302734375.529800415039062,1.23602294921875.706302642822266,1.7650146484375.353202819824219Z" fill="#fff" fill-rule="evenodd"/>
      <path d="m65.50897216796875,55.090999603271484c.35302734375.529701232910156,1.05902099609375.706298828125,1.58905029296875.529701232910156l5.4739990234375-3.178298950195312c.52996826171875-.176601409912109.70599365234375-1.059501647949219.35296630859375-1.589202880859375-.35296630859375-.529697418212891-1.0589599609375-.706298828125-1.5889892578125-.529697418212891l-5.6510009765625,3.178298950195312c-.35302734375.353099822998047-.52899169921875,1.059398651123047-.176025390625,1.589199066162109Z" fill="#fff" fill-rule="evenodd"/>
      <path d="m10.41802978515625,11.300800323486328h5.2969970703125l-4.59100341796875,17.48069953918457h3.35498046875l4.59100341796875-17.127599716186523v-3.178310394287109h-8.6519775390625v2.825210571289062Z" fill="#fff" fill-rule="evenodd"/>
      <path d="m28.60498046875,16.951099395751953l1.59002685546875-8.475509643554688h1.5889892578125l1.5889892578125,8.475509643554688h-1.4129638671875l-.35302734375-1.589199066162109h-1.5889892578125l-.176025390625,1.589199066162109h-1.23699951171875Zm1.7659912109375-2.648599624633789h1.23602294921875l-.52899169921875-3.354899406433105-.70703125,3.354899406433105Z" fill="#fff" fill-rule="evenodd"/>
      <path d="m34.0789794921875,8.475589752197266h3.17803955078125v1.236010551452637h-1.7650146484375v2.295499801635742h1.4119873046875v1.236000061035156h-1.4119873046875v3.707999229431152h-1.41302490234375v-8.475509643554688Z" fill="#fff" fill-rule="evenodd"/>
      <path d="m37.9630126953125,8.475589752197266h3.35498046875v1.236010551452637h-1.9429931640625v2.295499801635742h1.41302490234375v1.236000061035156h-1.41302490234375v3.707999229431152h-1.4119873046875v-8.475509643554688Z" fill="#fff" fill-rule="evenodd"/>
      <path d="m42.02398681640625,14.832200050354004v-4.061200141906738c0-1.41254997253418.70703125-2.29541015625,2.1190185546875-2.29541015625,1.41302490234375,0,2.1190185546875.88286018371582,2.1190185546875,2.29541015625v4.061200141906738c0,1.412600517272949-.70599365234375,2.295500755310059-2.1190185546875,2.295500755310059-1.5889892578125,0-2.1190185546875-.882900238037109-2.1190185546875-2.295500755310059Zm2.82598876953125.176599502563477v-4.414299964904785c0-.529799461364746-.177001953125-.882899284362793-.70697021484375-.882899284362793-.52899169921875,0-.70599365234375.353099822998047-.70599365234375.882899284362793v4.590900421142578c0,.52970027923584.177001953125.88279914855957.70599365234375.88279914855957.35296630859375-.176499366760254.70697021484375-.529699325561523.70697021484375-1.059399604797363Z" fill="#fff" fill-rule="evenodd"/>
      <path d="m48.3809814453125,13.066499710083008v3.884599685668945h-1.4119873046875v-8.475509643554688h2.1190185546875c1.4119873046875,0,1.9420166015625.706290245056152,1.9420166015625,1.942310333251953v1.059399604797363c0,.882900238037109-.35302734375,1.412600517272949-1.06005859375,1.589200019836426l1.41302490234375,3.884599685668945h-1.41302490234375l-1.5889892578125-3.884599685668945Zm0-3.354899406433105v2.648599624633789h.530029296875c.52996826171875,0,.70599365234375-.176599502563477.70599365234375-.706299781799316v-1.412600517272949c0-.529699325561523-.176025390625-.706269264221191-.70599365234375-.706269264221191h-.530029296875v.176569938659668Z" fill="#fff" fill-rule="evenodd"/>
      <path d="m56.1510009765625,10.770999908447266v3.884699821472168c0,1.236000061035156-.530029296875,2.29539966583252-2.1190185546875,2.29539966583252h-2.11895751953125v-8.475509643554688h2.11895751953125c1.5889892578125,0,2.1190185546875.88286018371582,2.1190185546875,2.29541015625Zm-2.2960205078125,4.944100379943848c.530029296875,0,.88299560546875-.35319995880127.88299560546875-.882900238037109v-4.414299964904785c0-.529729843139648-.17596435546875-.882869720458984-.88299560546875-.882869720458984h-.52899169921875v6.180069923400879h.52899169921875Z" fill="#fff" fill-rule="evenodd"/>
      <path d="m56.5040283203125,16.951099395751953l1.5889892578125-8.475509643554688h1.5889892578125l1.5889892578125,8.475509643554688h-1.4119873046875l-.35302734375-1.589199066162109h-1.5899658203125l-.176025390625,1.589199066162109h-1.2359619140625Zm1.94195556640625-2.648599624633789h1.05999755859375l-.52996826171875-3.531499862670898-.530029296875,3.531499862670898Z" fill="#fff" fill-rule="evenodd"/>
      <path d="m61.801025390625,8.475589752197266h2.11895751953125c1.4119873046875,0,1.9420166015625.706290245056152,1.9420166015625,1.76570987701416v.882900238037109c0,.706299781799316-.177001953125,1.236000061035156-.88299560546875,1.412600517272949.70599365234375.176499366760254,1.05999755859375.706299781799316,1.05999755859375,1.412599563598633v1.059399604797363c0,1.236001014709473-.530029296875,1.765700340270996-1.9429931640625,1.765700340270996h-2.29498291015625v-8.298910140991211Zm1.5889892578125,3.531510353088379h.52996826171875c.52899169921875,0,.70599365234375-.176600456237793.70599365234375-.706299781799316v-1.059500694274902c0-.529699325561523-.177001953125-.706269264221191-.70599365234375-.706269264221191h-.52996826171875v2.47206974029541Zm0,1.059399604797363v2.648600578308105h.70599365234375c.52996826171875,0,.70599365234375-.176600456237793.70599365234375-.706300735473633v-1.23599910736084c0-.52970027923584-.176025390625-.706300735473633-.70599365234375-.706300735473633h-.70599365234375Z" fill="#fff" fill-rule="evenodd"/>
      <path d="m66.9210205078125,8.475589752197266h1.4119873046875v7.239510536193848h1.5899658203125v1.23599910736084h-3.001953125v-8.475509643554688Z" fill="#fff" fill-rule="evenodd"/>
      <path d="m70.6300048828125,8.475589752197266h3.531005859375v1.236010551452637h-2.1190185546875v2.295499801635742h1.59002685546875v1.236000061035156h-1.59002685546875v2.472000122070312h2.1190185546875v1.23599910736084h-3.531005859375v-8.475509643554688Z" fill="#fff" fill-rule="evenodd"/>
      <path d="m75.927001953125,16.951099395751953l1.5889892578125-8.475509643554688h1.5889892578125l1.5889892578125,8.475509643554688h-1.4119873046875l-.177001953125-1.589199066162109h-1.5889892578125l-.177001953125,1.589199066162109h-1.4119873046875Zm1.7650146484375-2.648599624633789h1.2359619140625l-.52899169921875-3.354899406433105-.70697021484375,3.354899406433105Z" fill="#fff" fill-rule="evenodd"/>
      <path d="m82.635986328125,11.653900146484375v5.297199249267578h-1.2359619140625v-8.475509643554688h1.4129638671875l1.5889892578125,4.767510414123535v-4.767510414123535h1.23602294921875v8.475509643554688h-1.23602294921875l-1.7659912109375-5.297199249267578Z" fill="#fff" fill-rule="evenodd"/>
      <path d="m90.75897216796875,10.770999908447266v3.884699821472168c0,1.236000061035156-.52996826171875,2.29539966583252-2.11895751953125,2.29539966583252h-2.2950439453125v-8.475509643554688h2.2950439453125c1.4129638671875,0,2.11895751953125.88286018371582,2.11895751953125,2.29541015625Zm-2.47198486328125,4.944100379943848c.530029296875,0,.88299560546875-.35319995880127.88299560546875-.882900238037109v-4.414299964904785c0-.529729843139648-.177001953125-.882869720458984-.88299560546875-.882869720458984h-.70599365234375v6.180069923400879h.70599365234375Z" fill="#fff" fill-rule="evenodd"/>
      <path d="m28.781005859375,26.662599563598633v-4.061199188232422c0-1.412599563598633.70697021484375-2.295400619506836,2.1190185546875-2.295400619506836,1.5889892578125,0,2.11895751953125.882801055908203,2.11895751953125,2.118801116943359v1.059499740600586h-1.4129638671875v-1.059499740600586c0-.529701232910156-.176025390625-.882801055908203-.70599365234375-.882801055908203-.530029296875,0-.7060546875.353099822998047-.7060546875.882801055908203v4.590999603271484c0,.529699325561523.176025390625.88279914855957.7060546875.88279914855957.52996826171875,0,.70599365234375-.353099822998047.70599365234375-.88279914855957v-1.589200973510742h1.4129638671875v1.412599563598633c0,1.236000061035156-.52996826171875,2.118900299072266-2.11895751953125,2.118900299072266-1.41204833984375,0-2.1190185546875-.882900238037109-2.1190185546875-2.295499801635742Z" fill="#fff" fill-rule="evenodd"/>
      <path d="m33.72601318359375,20.482500076293945h1.4119873046875v7.416099548339844h1.7659912109375v1.05940055847168h-3.177978515625v-8.475500106811523Z" fill="#fff" fill-rule="evenodd"/>
      <path d="m37.43402099609375,20.482500076293945h3.531005859375v1.236000061035156h-2.1190185546875v2.472000122070312h1.4129638671875v1.059499740600586h-1.4129638671875v2.648599624633789h2.1190185546875v1.05940055847168h-3.531005859375v-8.475500106811523Z" fill="#fff" fill-rule="evenodd"/>
      <path d="m41.4949951171875,28.958000183105469l1.5889892578125-8.475500106811523h1.5889892578125l1.59002685546875,8.475500106811523h-1.41302490234375l-.177001953125-1.589200973510742h-1.5889892578125l-.17596435546875,1.589200973510742h-1.41302490234375Zm1.7659912109375-2.648599624633789h1.23602294921875l-.530029296875-3.354900360107422-.70599365234375,3.354900360107422Z" fill="#fff" fill-rule="evenodd"/>
      <path d="m48.20501708984375,23.660800933837891v5.297199249267578h-1.23602294921875v-8.475500106811523h1.4119873046875l1.5889892578125,4.944000244140625v-4.944000244140625h1.06005859375v8.475500106811523h-1.23602294921875l-1.5889892578125-5.297199249267578Z" fill="#fff" fill-rule="evenodd"/>
      <path d="m53.14801025390625,20.482500076293945h3.35498046875v1.236000061035156h-1.9420166015625v2.472000122070312h1.41302490234375v1.059499740600586h-1.41302490234375v2.648599624633789h1.9420166015625v1.05940055847168h-3.35498046875v-8.475500106811523Z" fill="#fff" fill-rule="evenodd"/>
      <path d="m58.62298583984375,23.660800933837891v5.297199249267578h-1.2359619140625v-8.475500106811523h1.4119873046875l1.4129638671875,4.944000244140625v-4.944000244140625h1.23602294921875v8.475500106811523h-1.23602294921875l-1.5889892578125-5.297199249267578Z" fill="#fff" fill-rule="evenodd"/>
      <path d="m62.33001708984375,20.482500076293945h3.35498046875v1.236000061035156h-1.9420166015625v2.472000122070312h1.41204833984375v1.059499740600586h-1.41204833984375v2.648599624633789h1.9420166015625v1.05940055847168h-3.35498046875v-8.475500106811523Z" fill="#fff" fill-rule="evenodd"/>
      <path d="m67.98101806640625,25.073400497436523v3.884599685668945h-1.41302490234375v-8.475500106811523h2.1190185546875c1.4129638671875,0,1.9429931640625.706300735473633,1.9429931640625,1.942300796508789v1.059398651123047c0,.882900238037109-.35400390625,1.412599563598633-1.05999755859375,1.589200973510742l1.4129638671875,3.884599685668945h-1.4129638671875l-1.5889892578125-3.884599685668945Zm0-3.354900360107422v2.648599624633789h.52996826171875c.52899169921875,0,.70599365234375-.176599502563477.70599365234375-.706298828125v-1.236000061035156c0-.529701232910156-.177001953125-.706300735473633-.70599365234375-.706300735473633h-.52996826171875Z" fill="#fff" fill-rule="evenodd"/>
      <path d="m73.63201904296875,24.367099761962891h2.11798095703125v4.590900421142578h-1.05902099609375v-.882900238037109c-.177001953125.706300735473633-.52996826171875,1.059499740600586-1.4129638671875,1.059499740600586-1.23602294921875,0-1.7650146484375-.882900238037109-1.7650146484375-2.295499801635742v-4.061199188232422c0-1.412601470947266.70599365234375-2.295400619506836,2.1190185546875-2.295400619506836,1.5889892578125,0,2.11798095703125.88279914855957,2.11798095703125,2.118900299072266v.706298828125h-1.4119873046875v-.882898330688477c0-.529701232910156-.177001953125-.882900238037109-.70599365234375-.882900238037109-.530029296875,0-.70703125.353199005126953-.70703125.882900238037109v4.590898513793945c0,.529701232910156.177001953125.882900238037109.70703125.882900238037109.52899169921875,0,.70599365234375-.353199005126953.70599365234375-.882900238037109v-1.412599563598633h-.70599365234375v-1.236000061035156Z" fill="#fff" fill-rule="evenodd"/>
      <path d="m78.927978515625,25.779699325561523v3.178300857543945h-1.4119873046875v-3.178300857543945l-1.5889892578125-5.297199249267578h1.4119873046875l.88299560546875,3.354900360107422.88299560546875-3.354900360107422h1.41302490234375l-1.59002685546875,5.297199249267578Z" fill="#fff" fill-rule="evenodd"/>
      <rect x="25" y="1" width="75" height="37" fill="#566e78"/>
      <path d="m29.2659912109375,15h-1.08599853515625v-2.464799880981445h-1.6099853515625v2.464799880981445h-1.09002685546875v-5.6875h1.09002685546875v2.331999778747559h1.6099853515625v-2.331999778747559h1.08599853515625v5.6875Zm4.54998779296875-2.492199897766113h-2.33599853515625v1.605500221252441h2.73101806640625v.886699676513672h-3.83197021484375v-5.6875h3.8199462890625v.894499778747559h-2.718994140625v1.433600425720215h2.33599853515625v.867199897766113Zm5.16400146484375,3.890599250793457h-.94500732421875v-1.398399353027344h-2.1519775390625v1.398399353027344h-.926025390625l-.1719970703125-2.28119945526123h.21099853515625c.12005615234375-.0625.2239990234375-.149800300598145.31304931640625-.261699676513672.08795166015625-.112000465393066.1619873046875-.263100624084473.22198486328125-.453200340270996.05999755859375-.192699432373047.10797119140625-.430899620056152.14501953125-.714799880981445.03594970703125-.286499977111816.06195068359375-.63539981842041.0780029296875-1.046899795532227l.15594482421875-2.328100204467773h2.80902099609375v4.804699897766113h.41802978515625l-.15704345703125,2.28119945526123Zm-2.125-4.75779914855957c-.01300048828125.304699897766113-.031982421875.58080005645752-.0579833984375.82819938659668-.02398681640625.247300148010254-.05499267578125.472599983215332-.093994140625.675700187683105-.03900146484375.200600624084473-.08502197265625.381500244140625-.13702392578125.543000221252441-.052001953125.158900260925293-.1090087890625.30210018157959-.17095947265625.429699897766113h1.22998046875v-3.91409969329834h-.676025390625l-.093994140625,1.4375Zm7.0400390625.933599472045898c0,.36460018157959-.04901123046875.70050048828125-.14501953125,1.007800102233887-.09600830078125.307300567626953-.23602294921875.571599960327148-.41802978515625.793000221252441-.18194580078125.221400260925293-.40496826171875.394499778747559-.66796875.519499778747559-.260009765625.122400283813477-.55499267578125.183600425720215-.88299560546875.183600425720215s-.6199951171875-.061200141906738-.875-.183600425720215c-.2550048828125-.125-.47003173828125-.298099517822266-.64398193359375-.519499778747559-.175048828125-.223999977111816-.30804443359375-.488300323486328-.3990478515625-.793000221252441-.09100341796875-.307299613952637-.135986328125-.643199920654297-.135986328125-1.007800102233887v-.828099250793457c0-.36460018157959.04498291015625-.70050048828125.135986328125-1.007800102233887.09100341796875-.307300567626953.2239990234375-.571599960327148.3990478515625-.792990684509277.1739501953125-.223959922790527.38800048828125-.398429870605469.63995361328125-.523429870605469.25604248046875-.125.5469970703125-.1875.875-.1875.33099365234375,0,.62701416015625.0625.88702392578125.1875.26300048828125.125.48602294921875.299469947814941.66796875.523429870605469.1820068359375.221390724182129.322021484375.485690116882324.41802978515625.792990684509277.09600830078125.307299613952637.14501953125.643199920654297.14501953125,1.007800102233887v.828099250793457Zm-1.114013671875-.835899353027344c0-.231800079345703-.01898193359375-.445300102233887-.0579833984375-.640600204467773-.03704833984375-.195400238037109-.09503173828125-.363300323486328-.176025390625-.503900527954102-.08099365234375-.14069938659668-.18499755859375-.25-.31298828125-.32819938659668-.125-.080699920654297-.27703857421875-.121100425720215-.45703125-.121100425720215-.177001953125,0-.324951171875.040400505065918-.44500732421875.121100425720215-.1199951171875.07819938659668-.2159423828125.1875-.2889404296875.32819938659668-.07305908203125.140600204467773-.125.308500289916992-.156005859375.503900527954102-.03204345703125.195300102233887-.0469970703125.40880012512207-.0469970703125.640600204467773v.835899353027344c0,.22920036315918.01495361328125.441400527954102.0469970703125.636700630187988.031005859375.195300102233887.08294677734375.364599227905273.156005859375.507899284362793.072998046875.143200874328613.1689453125.255200386047363.2889404296875.33590030670166.12005615234375.080699920654297.27001953125.121100425720215.44903564453125.121100425720215.177001953125,0,.3280029296875-.040400505065918.4530029296875-.121100425720215.12799072265625-.080699920654297.23101806640625-.191399574279785.30902099609375-.331999778747559.08099365234375-.14330005645752.1409912109375-.3125.17999267578125-.507900238037109.03900146484375-.195300102233887.0579833984375-.40880012512207.0579833984375-.640600204467773v-.835899353027344Zm3.11700439453125,1.175799369812012v2.08590030670166h-1.09698486328125v-5.6875h1.9449462890625c.31005859375,0,.59002685546875.045570373535156.84002685546875.136719703674316.25.088540077209473.46197509765625.213540077209473.63702392578125.375.177001953125.15885066986084.31195068359375.35028076171875.406005859375.574180603027344.095947265625.223999977111816.14398193359375.472700119018555.14398193359375.746099472045898,0,.255200386047363-.04803466796875.490900039672852-.14398193359375.707099914550781-.09405517578125.216100692749023-.22900390625.403600692749023-.406005859375.5625-.175048828125.156200408935547-.38702392578125.278600692749023-.63702392578125.367100715637207-.25.08859920501709-.52996826171875.132899284362793-.84002685546875.132899284362793h-.84796142578125Zm0-.89069938659668h.84796142578125c.156005859375,0,.29205322265625-.02340030670166.406005859375-.070300102233887.11505126953125-.046899795532227.21002197265625-.110700607299805.2860107421875-.191400527954102.0780029296875-.080699920654297.135009765625-.173199653625488.1710205078125-.277299880981445.03900146484375-.106800079345703.05902099609375-.217499732971191.05902099609375-.332099914550781,0-.132800102233887-.02001953125-.256500244140625-.05902099609375-.371099472045898-.0360107421875-.114500045776367-.093017578125-.214800834655762-.1710205078125-.300700187683105-.07598876953125-.086000442504883-.17095947265625-.15369987487793-.2860107421875-.203200340270996-.11395263671875-.049400329589844-.25-.074199676513672-.406005859375-.074199676513672h-.84796142578125v1.820300102233887Zm7.60601806640625.550799369812012c0,.36460018157959-.04803466796875.70050048828125-.14501953125,1.007800102233887-.09600830078125.307300567626953-.2349853515625.571599960327148-.41802978515625.793000221252441-.1820068359375.221400260925293-.40496826171875.394499778747559-.66796875.519499778747559-.260009765625.122400283813477-.55401611328125.183600425720215-.88201904296875.183600425720215-.3289794921875,0-.6199951171875-.061200141906738-.875-.183600425720215-.2559814453125-.125-.469970703125-.298099517822266-.64501953125-.519499778747559-.1739501953125-.223999977111816-.30694580078125-.488300323486328-.39794921875-.793000221252441-.09100341796875-.307299613952637-.13702392578125-.643199920654297-.13702392578125-1.007800102233887v-.828099250793457c0-.36460018157959.0460205078125-.70050048828125.13702392578125-1.007800102233887.09100341796875-.307300567626953.2239990234375-.571599960327148.39794921875-.792990684509277.175048828125-.223959922790527.38800048828125-.398429870605469.64105224609375-.523429870605469.2550048828125-.125.5469970703125-.1875.875-.1875.3299560546875,0,.6259765625.0625.885986328125.1875.26300048828125.125.4859619140625.299469947814941.66796875.523429870605469.18304443359375.221390724182129.322021484375.485690116882324.41802978515625.792990684509277.09698486328125.307299613952637.14501953125.643199920654297.14501953125,1.007800102233887v.828099250793457Zm-1.113037109375-.835899353027344c0-.231800079345703-.02001953125-.445300102233887-.05902099609375-.640600204467773-.03594970703125-.195400238037109-.094970703125-.363300323486328-.17596435546875-.503900527954102-.08001708984375-.14069938659668-.18499755859375-.25-.31201171875-.32819938659668-.125-.080699920654297-.27801513671875-.121100425720215-.45697021484375-.121100425720215-.177001953125,0-.3260498046875.040400505065918-.446044921875.121100425720215-.11895751953125.07819938659668-.21600341796875.1875-.28900146484375.32819938659668-.072998046875.140600204467773-.125.308500289916992-.156005859375.503900527954102-.03094482421875.195300102233887-.0469970703125.40880012512207-.0469970703125.640600204467773v.835899353027344c0,.22920036315918.01605224609375.441400527954102.0469970703125.636700630187988.031005859375.195300102233887.0830078125.364599227905273.156005859375.507899284362793.072998046875.143200874328613.1700439453125.255200386047363.28900146484375.33590030670166.1199951171875.080699920654297.27001953125.121100425720215.45001220703125.121100425720215.177001953125,0,.3280029296875-.040400505065918.4530029296875-.121100425720215.12701416015625-.080699920654297.22998046875-.191399574279785.3079833984375-.331999778747559.08099365234375-.14330005645752.14105224609375-.3125.17999267578125-.507900238037109.03900146484375-.195300102233887.05902099609375-.40880012512207.05902099609375-.640600204467773v-.835899353027344Zm5.66802978515625-1.535200119018555h-2.58203125v4.796899795532227h-1.09796142578125v-5.6875h3.67999267578125v.890600204467773Zm5.053955078125,2.371099472045898c0,.36460018157959-.0479736328125.70050048828125-.14398193359375,1.007800102233887-.09698486328125.307300567626953-.23602294921875.571599960327148-.41796875.793000221252441-.18304443359375.221400260925293-.405029296875.394499778747559-.66802978515625.519499778747559-.260986328125.122400283813477-.55499267578125.183600425720215-.88299560546875.183600425720215s-.6199951171875-.061200141906738-.875-.183600425720215c-.2550048828125-.125-.469970703125-.298099517822266-.64501953125-.519499778747559-.1739501953125-.223999977111816-.3070068359375-.488300323486328-.39801025390625-.793000221252441-.0909423828125-.307299613952637-.136962890625-.643199920654297-.136962890625-1.007800102233887v-.828099250793457c0-.36460018157959.0460205078125-.70050048828125.136962890625-1.007800102233887.09100341796875-.307300567626953.22406005859375-.571599960327148.39801025390625-.792990684509277.175048828125-.223959922790527.38800048828125-.398429870605469.6409912109375-.523429870605469.2550048828125-.125.54705810546875-.1875.875-.1875.3310546875,0,.62603759765625.0625.88702392578125.1875.26300048828125.125.4849853515625.299469947814941.66802978515625.523429870605469.18194580078125.221390724182129.32098388671875.485690116882324.41796875.792990684509277.09600830078125.307299613952637.14398193359375.643199920654297.14398193359375,1.007800102233887v.828099250793457Zm-1.11297607421875-.835899353027344c0-.231800079345703-.02001953125-.445300102233887-.05902099609375-.640600204467773-.03594970703125-.195400238037109-.094970703125-.363300323486328-.17498779296875-.503900527954102-.08099365234375-.14069938659668-.18499755859375-.25-.31298828125-.32819938659668-.125-.080699920654297-.2769775390625-.121100425720215-.45703125-.121100425720215-.177001953125,0-.324951171875.040400505065918-.4449462890625.121100425720215-.1199951171875.07819938659668-.21600341796875.1875-.28900146484375.32819938659668-.072998046875.140600204467773-.125.308500289916992-.15704345703125.503900527954102-.031005859375.195300102233887-.04595947265625.40880012512207-.04595947265625.640600204467773v.835899353027344c0,.22920036315918.01495361328125.441400527954102.04595947265625.636700630187988.03204345703125.195300102233887.08404541015625.364599227905273.15704345703125.507899284362793.072998046875.143200874328613.16900634765625.255200386047363.28900146484375.33590030670166s.26898193359375.121100425720215.448974609375.121100425720215c.177001953125,0,.3280029296875-.040400505065918.4530029296875-.121100425720215.12799072265625-.080699920654297.23101806640625-.191399574279785.30902099609375-.331999778747559.0799560546875-.14330005645752.13995361328125-.3125.178955078125-.507900238037109.03900146484375-.195300102233887.05902099609375-.40880012512207.05902099609375-.640600204467773v-.835899353027344Zm5.89801025390625,1.480499267578125c-.01800537109375.28640079498291-.08001708984375.54419994354248-.18701171875.77340030670166-.10400390625.22920036315918-.2449951171875.424500465393066-.4219970703125.58590030670166-.177001953125.161499977111816-.38800048828125.286499977111816-.63299560546875.375-.2449951171875.085999488830566-.5150146484375.128899574279785-.81201171875.128899574279785-.33599853515625,0-.63397216796875-.061200141906738-.89501953125-.183599472045898-.25994873046875-.125-.47900390625-.298100471496582-.65594482421875-.519500732421875-.177001953125-.223999977111816-.31304931640625-.492199897766113-.406005859375-.804699897766113-.093994140625-.3125-.14105224609375-.65619945526123-.14105224609375-1.03119945526123v-.765700340270996c0-.377599716186523.050048828125-.722599983215332.1490478515625-1.035099983215332.09796142578125-.3125.23895263671875-.580699920654297.42095947265625-.804699897766113.18304443359375-.223959922790527.40301513671875-.397139549255371.6610107421875-.519530296325684.260009765625-.125.552001953125-.1875.875-.1875.31201171875,0,.5889892578125.044270515441895.83203125.132810592651367.24395751953125.088540077209473.4530029296875.214839935302734.625.378910064697266.17095947265625.164059638977051.3070068359375.364609718322754.406005859375.601609230041504.0989990234375.236900329589844.16094970703125.503900527954102.18695068359375.800700187683105h-1.09295654296875c-.01104736328125-.16919994354248-.03704833984375-.317699432373047-.07904052734375-.445300102233887-.03900146484375-.127599716186523-.09698486328125-.233099937438965-.17498779296875-.316399574279785-.07598876953125-.08590030670166-.1719970703125-.149700164794922-.28900146484375-.191400527954102-.114990234375-.044299125671387-.25299072265625-.066399574279785-.41400146484375-.066399574279785-.16998291015625,0-.3170166015625.036499977111816-.4420166015625.109399795532227s-.22894287109375.179699897766113-.31195068359375.320300102233887c-.08099365234375.140600204467773-.14105224609375.313799858093262-.17999267578125.519499778747559-.03900146484375.203100204467773-.05902099609375.434900283813477-.05902099609375.695300102233887v.773500442504883c0,.55989933013916.0789794921875.973899841308594.2349853515625,1.242199897766113.15899658203125.268199920654297.40899658203125.402299880981445.75.402299880981445.2860107421875,0,.51300048828125-.075499534606934.67901611328125-.22659969329834.1669921875-.153600692749023.260009765625-.401000022888184.27801513671875-.742100715637207h1.09698486328125Zm5.0360107421875-3.011799812316895h-1.7540283203125v4.793000221252441h-1.10198974609375v-4.793000221252441h-1.72998046875v-.894499778747559h4.58599853515625v.894499778747559Zm4.59295654296875,2.367199897766113c0,.36460018157959-.0479736328125.70050048828125-.14398193359375,1.007800102233887-.09698486328125.307300567626953-.23602294921875.571599960327148-.41796875.793000221252441-.1820068359375.221400260925293-.405029296875.394499778747559-.66802978515625.519499778747559-.260986328125.122400283813477-.55499267578125.183600425720215-.88299560546875.183600425720215s-.6199951171875-.061200141906738-.875-.183600425720215c-.2550048828125-.125-.47003173828125-.298099517822266-.64398193359375-.519499778747559-.175048828125-.223999977111816-.30804443359375-.488300323486328-.3990478515625-.793000221252441-.0909423828125-.307299613952637-.136962890625-.643199920654297-.136962890625-1.007800102233887v-.828099250793457c0-.36460018157959.0460205078125-.70050048828125.136962890625-1.007800102233887.09100341796875-.307300567626953.2239990234375-.571599960327148.3990478515625-.792990684509277.1739501953125-.223959922790527.38800048828125-.398429870605469.63995361328125-.523429870605469.2550048828125-.125.5469970703125-.1875.875-.1875.3310546875,0,.62603759765625.0625.88702392578125.1875.26300048828125.125.48602294921875.299469947814941.66802978515625.523429870605469.18194580078125.221390724182129.32098388671875.485690116882324.41796875.792990684509277.09600830078125.307299613952637.14398193359375.643199920654297.14398193359375,1.007800102233887v.828099250793457Zm-1.11297607421875-.835899353027344c0-.231800079345703-.01898193359375-.445300102233887-.05902099609375-.640600204467773-.0360107421875-.195400238037109-.094970703125-.363300323486328-.17498779296875-.503900527954102-.08099365234375-.14069938659668-.18499755859375-.25-.31298828125-.32819938659668-.125-.080699920654297-.2769775390625-.121100425720215-.45703125-.121100425720215-.177001953125,0-.324951171875.040400505065918-.4449462890625.121100425720215-.12005615234375.07819938659668-.21600341796875.1875-.28900146484375.32819938659668-.072998046875.140600204467773-.125.308500289916992-.156005859375.503900527954102-.03204345703125.195300102233887-.0469970703125.40880012512207-.0469970703125.640600204467773v.835899353027344c0,.22920036315918.01495361328125.441400527954102.0469970703125.636700630187988.031005859375.195300102233887.0830078125.364599227905273.156005859375.507899284362793.072998046875.143200874328613.1689453125.255200386047363.28900146484375.33590030670166.1199951171875.080699920654297.26898193359375.121100425720215.448974609375.121100425720215.177001953125,0,.3280029296875-.040400505065918.4530029296875-.121100425720215.12799072265625-.080699920654297.23101806640625-.191399574279785.30902099609375-.331999778747559.08099365234375-.14330005645752.13995361328125-.3125.178955078125-.507900238037109.0400390625-.195300102233887.05902099609375-.40880012512207.05902099609375-.640600204467773v-.835899353027344Zm4.40997314453125,3.261699676513672v-2.238300323486328h-.87896728515625l-1.07000732421875,2.238300323486328h-1.176025390625l1.23101806640625-2.570300102233887c-.302001953125-.148499488830566-.53302001953125-.34119987487793-.6920166015625-.578100204467773-.156005859375-.239599227905273-.23394775390625-.52869987487793-.23394775390625-.867199897766113,0-.273499488830566.0479736328125-.514299392700195.14398193359375-.722700119018555.09698486328125-.20829963684082.2349853515625-.382789611816406.41400146484375-.523419380187988.1829833984375-.140620231628418.40301513671875-.246089935302734.6610107421875-.316400527954102.2569580078125-.072919845581055.5469970703125-.109379768371582.86700439453125-.109379768371582h1.83599853515625v5.6875h-1.10205078125Zm-1.72198486328125-3.949199676513672c0,.296899795532227.08203125.516900062561035.24603271484375.660099983215332.16400146484375.14069938659668.41094970703125.210999488830566.74200439453125.210999488830566h.73394775390625v-1.718799591064453h-.73394775390625c-.33905029296875,0-.58905029296875.074199676513672-.75.222700119018555-.15899658203125.148399353027344-.238037109375.356800079345703-.238037109375.625Zm4.9410400390625-1.738300323486328v4.804699897766113h.5469970703125v-4.804699897766113h1.03497314453125v4.804699897766113h.53900146484375v-4.804699897766113h1.06597900390625v4.816399574279785h.5040283203125l-.0780029296875,2.238301277160645h-1.0040283203125v-1.36720085144043h-3.678955078125v-5.6875h1.07000732421875Zm6.72698974609375,4.5h-1.7080078125l-.33502197265625,1.1875h-1.156982421875l1.864013671875-5.6875h.9959716796875l1.8280029296875,5.6875h-1.156005859375l-.33197021484375-1.1875Zm-1.43804931640625-.933600425720215h1.1800537109375l-.58203125-2.09369945526123-.5980224609375,2.09369945526123Zm5.906005859375,2.121100425720215v-2.238300323486328h-.87896728515625l-1.07000732421875,2.238300323486328h-1.176025390625l1.23101806640625-2.570300102233887c-.302001953125-.148499488830566-.53302001953125-.34119987487793-.6920166015625-.578100204467773-.156005859375-.239599227905273-.23394775390625-.52869987487793-.23394775390625-.867199897766113,0-.273499488830566.0479736328125-.514299392700195.14398193359375-.722700119018555.09698486328125-.20829963684082.2349853515625-.382789611816406.41497802734375-.523419380187988.1820068359375-.140620231628418.40203857421875-.246089935302734.6600341796875-.316400527954102.25799560546875-.072919845581055.5469970703125-.109379768371582.86700439453125-.109379768371582h1.83599853515625v5.6875h-1.10205078125Zm-1.72198486328125-3.949199676513672c0,.296899795532227.08203125.516900062561035.24603271484375.660099983215332.16400146484375.14069938659668.41094970703125.210999488830566.74200439453125.210999488830566h.73394775390625v-1.718799591064453h-.73394775390625c-.33905029296875,0-.58905029296875.074199676513672-.75.222700119018555-.1590576171875.148399353027344-.238037109375.356800079345703-.238037109375.625Zm-65.3709716796875,7.261699676513672h1.1009521484375v5.6875h-1.1009521484375v-3.628900527954102l-1.614013671875,3.628900527954102h-1.09698486328125v-5.6875h1.09698486328125v3.63279914855957l1.614013671875-3.63279914855957Zm10.8349609375,0v5.6875h-1.1009521484375v-2.167999267578125c-.06805419921875.018299102783203-.13800048828125.035200119018555-.21099853515625.050798416137695-.07305908203125.01300048828125-.14605712890625.024801254272461-.21905517578125.035200119018555-.0699462890625.007801055908203-.13897705078125.014301300048828-.20697021484375.019500732421875-.06500244140625.005199432373047-.12200927734375.00779914855957-.1719970703125.00779914855957-.281005859375,0-.5360107421875-.035099029541016-.7650146484375-.105499267578125-.22698974609375-.072900772094727-.4210205078125-.184900283813477-.58197021484375-.335899353027344-.15899658203125-.1510009765625-.28302001953125-.343700408935547-.37103271484375-.578100204467773-.08599853515625-.23699951171875-.12896728515625-.518199920654297-.12896728515625-.843799591064453v-1.769500732421875h1.09698486328125v1.769500732421875c0,.190099716186523.0150146484375.347700119018555.04296875.472700119018555.03204345703125.125.0780029296875.225198745727539.14105224609375.300798416137695.06195068359375.072900772094727.1409912109375.125.23394775390625.156200408935547.093994140625.02869987487793.20501708984375.043001174926758.33203125.043001174926758.052001953125,0,.11102294921875-.001300811767578.17596435546875-.003900527954102.06500244140625-.005199432373047.133056640625-.011699676513672.2030029296875-.019599914550781.072998046875-.010400772094727.14599609375-.022100448608398.21905517578125-.035100936889648.072998046875-.012998580932617.1429443359375-.02869987487793.21099853515625-.046899795532227v-2.636699676513672h1.1009521484375Zm3.57904052734375,0h1.1009521484375v5.6875h-1.1009521484375v-3.628900527954102l-1.614013671875,3.628900527954102h-1.09698486328125v-5.6875h1.09698486328125v3.63279914855957l1.614013671875-3.63279914855957Zm6.1209716796875,3.906299591064453c-.01898193359375.286399841308594-.08099365234375.544200897216797-.18798828125.773401260375977-.10400390625.229198455810547-.2449951171875.42449951171875-.4219970703125.585899353027344-.177001953125.1614990234375-.38800048828125.2864990234375-.63201904296875.375-.2449951171875.086000442504883-.5159912109375.128900527954102-.81298828125.128900527954102-.33599853515625,0-.63397216796875-.061201095581055-.89501953125-.183601379394531-.260009765625-.125-.47900390625-.298099517822266-.656005859375-.519498825073242-.177001953125-.224000930786133-.31195068359375-.49220085144043-.40594482421875-.80470085144043-.09405517578125-.3125-.14105224609375-.656200408935547-.14105224609375-1.031200408935547v-.76569938659668c0-.377599716186523.050048828125-.722599029541016.1490478515625-1.035099029541016s.23895263671875-.580699920654297.4219970703125-.80470085144043c.1820068359375-.224000930786133.4019775390625-.397100448608398.65997314453125-.519500732421875.260009765625-.125.552001953125-.1875.875-.1875.31201171875,0,.59002685546875.044200897216797.83203125.132801055908203.2449951171875.088499069213867.4530029296875.214799880981445.625.378900527954102.1719970703125.163999557495117.30694580078125.364599227905273.40594482421875.601598739624023.0989990234375.236900329589844.16204833984375.503900527954102.18804931640625.800701141357422h-1.093994140625c-.01104736328125-.169200897216797-.03704833984375-.31770133972168-.0780029296875-.445301055908203-.03900146484375-.127599716186523-.0980224609375-.233098983764648-.176025390625-.316400527954102-.07598876953125-.085899353027344-.1719970703125-.149698257446289-.28900146484375-.191398620605469-.114990234375-.044300079345703-.25299072265625-.066400527954102-.41400146484375-.066400527954102-.16900634765625,0-.3170166015625.036500930786133-.4420166015625.109399795532227-.125.072900772094727-.22900390625.17970085144043-.31195068359375.320301055908203-.0810546875.140598297119141-.14105224609375.313798904418945-.1800537109375.519498825073242-.03900146484375.203100204467773-.0579833984375.434900283813477-.0579833984375.695301055908203v.77349853515625c0,.559900283813477.0780029296875.973899841308594.2340087890625,1.24220085144043.15899658203125.268199920654297.40899658203125.402299880981445.75.402299880981445.2860107421875,0,.51300048828125-.07550048828125.67999267578125-.226600646972656.166015625-.153598785400391.259033203125-.400999069213867.2769775390625-.742099761962891h1.0980224609375Zm5.0350341796875-3.011798858642578h-1.7540283203125v4.792999267578125h-1.10198974609375v-4.792999267578125h-1.72998046875v-.894500732421875h4.58599853515625v.894500732421875Zm3.4219970703125,3.605499267578125h-1.70703125l-.33599853515625,1.1875h-1.156005859375l1.863037109375-5.6875h.9959716796875l1.8280029296875,5.6875h-1.156005859375l-.33197021484375-1.1875Zm-1.43804931640625-.933599472045898h1.1800537109375l-.58203125-2.093700408935547-.5980224609375,2.093700408935547Zm5.906005859375,2.121099472045898v-2.238300323486328h-.87799072265625l-1.07098388671875,2.238300323486328h-1.176025390625l1.23101806640625-2.57029914855957c-.302001953125-.148500442504883-.53302001953125-.341201782226562-.69097900390625-.578100204467773-.15704345703125-.239601135253906-.23504638671875-.52869987487793-.23504638671875-.86720085144043,0-.273500442504883.04803466796875-.514299392700195.14501953125-.722700119018555.09600830078125-.20829963684082.2340087890625-.38279914855957.41400146484375-.523399353027344.1820068359375-.140600204467773.4019775390625-.246099472045898.6600341796875-.316400527954102.25799560546875-.072898864746094.5469970703125-.109399795532227.866943359375-.109399795532227h1.83599853515625v5.6875h-1.10198974609375Zm-1.72198486328125-3.949199676513672c0,.296899795532227.08203125.516899108886719.24603271484375.660099029541016.16400146484375.140701293945312.41094970703125.211000442504883.741943359375.211000442504883h.7340087890625v-1.718799591064453h-.7340087890625c-.33795166015625,0-.58795166015625.074199676513672-.75.222700119018555-.15899658203125.148399353027344-.23797607421875.356800079345703-.23797607421875.625Zm-33.64898681640625,11.058599472045898c-.0150146484375.17180061340332-.00201416015625.32550048828125.03900146484375.460899353027344.0419921875.135400772094727.10296630859375.25.1839599609375.343801498413086.0830078125.093700408935547.1810302734375.165298461914062.29302978515625.214797973632812.114990234375.04949951171875.23797607421875.074199676513672.3709716796875.074199676513672.156005859375,0,.29803466796875-.025997161865234.426025390625-.078098297119141.12701416015625-.052101135253906.23602294921875-.135400772094727.323974609375-.25.08905029296875-.11720085144043.156005859375-.266899108886719.2030029296875-.449199676513672.050048828125-.182300567626953.07403564453125-.405000686645508.07403564453125-.668001174926758v-.152299880981445h-1.49603271484375v-.886699676513672h1.49603271484375v-.152399063110352c0-.25-.02301025390625-.466100692749023-.07000732421875-.648401260375977-.04400634765625-.18229866027832-.1090087890625-.332099914550781-.19500732421875-.449199676513672-.083984375-.11979866027832-.18597412109375-.208398818969727-.30902099609375-.26569938659668-.1199951171875-.057300567626953-.25396728515625-.085899353027344-.4019775390625-.085899353027344-.15899658203125,0-.301025390625.024698257446289-.426025390625.074199676513672-.1219482421875.04949951171875-.2239990234375.122400283813477-.30499267578125.218799591064453-.0799560546875.093700408935547-.13897705078125.209600448608398-.17498779296875.347599029541016-.0369873046875.13800048828125-.04901123046875.294300079345703-.0360107421875.468801498413086h-1.09698486328125c0-.273500442504883.0469970703125-.531301498413086.1400146484375-.773500442504883.09698486328125-.24220085144043.2340087890625-.454401016235352.4110107421875-.636699676513672.177001953125-.182300567626953.38995361328125-.32550048828125.63995361328125-.42970085144043.2530517578125-.106800079345703.5350341796875-.160099029541016.8480224609375-.160099029541016.30499267578125,0,.5830078125.054599761962891.83599853515625.163999557495117.2550048828125.106800079345703.4739990234375.260398864746094.656005859375.461000442504883.1820068359375.200498580932617.323974609375.446599960327148.426025390625.738199234008789.1009521484375.289100646972656.1519775390625.614599227905273.1519775390625.976600646972656v1.183599472045898c0,.364599227905273-.04901123046875.691400527954102-.14801025390625.980499267578125-.0989990234375.286399841308594-.240966796875.529899597167969-.42596435546875.730400085449219-.1820068359375.198001861572266-.405029296875.350299835205078-.66802978515625.457099914550781-.260009765625.106700897216797-.552978515625.160099029541016-.8790283203125.160099029541016-.28900146484375,0-.55694580078125-.044197082519531-.80499267578125-.132797241210938-.24395751953125-.0885009765625-.45697021484375-.217399597167969-.635986328125-.386699676513672-.177001953125-.169300079345703-.31396484375-.375-.40997314453125-.61720085144043-.0970458984375-.244800567626953-.1409912109375-.522100448608398-.13299560546875-.832000732421875h1.09698486328125Zm7.83599853515625,1.890600204467773h-1.08599853515625v-2.464799880981445h-1.6090087890625v2.464799880981445h-1.09002685546875v-5.6875h1.09002685546875v2.332000732421875h1.6090087890625v-2.332000732421875h1.08599853515625v5.6875Zm4.55096435546875-2.49220085144043h-2.33599853515625v1.605501174926758h2.73101806640625v.886699676513672h-3.83197021484375v-5.6875h3.82000732421875v.894500732421875h-2.71905517578125v1.433599472045898h2.33599853515625v.867198944091797Zm2.4730224609375.406301498413086v2.085899353027344h-1.0980224609375v-5.6875h1.94500732421875c.30999755859375,0,.59002685546875.045600891113281.84002685546875.136699676513672.25.088600158691406.46197509765625.213600158691406.63702392578125.375.17694091796875.158901214599609.31195068359375.350299835205078.40594482421875.574199676513672.0970458984375.224000930786133.14501953125.472700119018555.14501953125.746101379394531,0,.255199432373047-.0479736328125.490900039672852-.14501953125.707099914550781-.093994140625.216098785400391-.22900390625.403598785400391-.40594482421875.5625-.175048828125.156198501586914-.38702392578125.278598785400391-.63702392578125.367099761962891-.25.088600158691406-.530029296875.132900238037109-.84002685546875.132900238037109h-.84698486328125Zm0-.890701293945312h.84698486328125c.15704345703125,0,.2919921875-.023399353027344.40704345703125-.07029914855957.11395263671875-.046899795532227.208984375-.110700607299805.28497314453125-.191400527954102.0780029296875-.080699920654297.135009765625-.173200607299805.1719970703125-.277299880981445.03900146484375-.106800079345703.0579833984375-.217500686645508.0579833984375-.332099914550781,0-.13279914855957-.01898193359375-.256500244140625-.0579833984375-.371099472045898-.0369873046875-.114500045776367-.093994140625-.214799880981445-.1719970703125-.300701141357422-.07598876953125-.08599853515625-.1710205078125-.15369987487793-.28497314453125-.20319938659668-.11505126953125-.049400329589844-.25-.074199676513672-.40704345703125-.074199676513672h-.84698486328125v1.82029914855957Zm7.35498046875-1.82029914855957h-2.58197021484375v4.796899795532227h-1.09698486328125v-5.6875h3.678955078125v.890600204467773Zm3.71905517578125-.890600204467773h1.10198974609375v5.6875h-1.10198974609375v-3.628900527954102l-1.613037109375,3.628900527954102h-1.0980224609375v-5.6875h1.0980224609375v3.63279914855957l1.613037109375-3.63279914855957Zm4.63299560546875,5.6875v-2.238300323486328h-.8790283203125l-1.07000732421875,2.238300323486328h-1.17596435546875l1.22998046875-2.57029914855957c-.302001953125-.148500442504883-.531982421875-.341201782226562-.69097900390625-.578100204467773-.156005859375-.239601135253906-.23504638671875-.52869987487793-.23504638671875-.86720085144043,0-.273500442504883.04901123046875-.514299392700195.14501953125-.722700119018555.09600830078125-.20829963684082.2340087890625-.38279914855957.41400146484375-.523399353027344.1820068359375-.140600204467773.4019775390625-.246099472045898.65997314453125-.316400527954102.25799560546875-.072898864746094.5469970703125-.109399795532227.86700439453125-.109399795532227h1.83599853515625v5.6875h-1.1009521484375Zm-1.7230224609375-3.949199676513672c0,.296899795532227.08197021484375.516899108886719.2459716796875.660099029541016.16400146484375.140701293945312.41204833984375.211000442504883.74200439453125.211000442504883h.73504638671875v-1.718799591064453h-.73504638671875c-.33795166015625,0-.58795166015625.074199676513672-.75.222700119018555-.157958984375.148399353027344-.23797607421875.356800079345703-.23797607421875.625Z" fill="#fff"/>
    </g>
  </g>
</svg>