<?xml version="1.0" encoding="UTF-8"?>
<svg id="uuid-460f38ae-2fac-4a01-8d0b-bd922b4f875f" data-name="Layer 1" xmlns="http://www.w3.org/2000/svg" width="101" height="101" xmlns:xlink="http://www.w3.org/1999/xlink" viewBox="0 0 101 101">
  <defs>
    <clipPath id="uuid-25fb8745-b1ba-4eb8-b9b3-21ad8f48d857">
      <rect x=".2349853515625" width="100.7650146484375" height="101" fill="none"/>
    </clipPath>
  </defs>
  <g clip-path="url(#uuid-25fb8745-b1ba-4eb8-b9b3-21ad8f48d857)" fill="none">
    <g>
      <path d="m101,0H.2349853515625v101h100.7650146484375V0Z" fill="#566e78"/>
      <path d="m69.642916394918757,49.617099761962891l-10.21752574376751,9.888099670410156c-.351668917089228.353099822998047-.528056894391739.706298828125-.528056894391739,1.412601470947266v27.545402526855469c0,.353195190429688.176387977302511.529792785644531.528056894391739.529792785644531h10.393913721070021c.352652950436095,0,.527995392307275-.353195190429688.527995392307275-.529792785644531v-38.493003845214844c.176326475218048-.353099822998047,0-1.059398651123047-.704383369609786-.353099822998047Z" fill="#fff" fill-rule="evenodd"/>
      <path d="m40.223578954711229,62.330501556396484l-10.393913721069111,9.888095855712891c-.351668917090137.353103637695312-.527995392308185.706298828125-.527995392308185,1.412605285644531v14.655494689941406c0,.353202819824219.351668917090137.529800415039062.527995392308185.529800415039062h10.746566671505207c.351668917090137,0,.528056894391739-.353195190429688.528056894391739-.529800415039062v-25.603096008300781c.176326475218048-.353099822998047-.176387977301601-1.059402465820312-.880709844827834-.353099822998047Z" fill="#fff" fill-rule="evenodd"/>
      <path d="m74.399057067409558,37.786701202392578v-.176502227783203h-.17534244187209l-7.92817216388903,1.765701293945312h-.351668917089228c-.176387977302511.176601409912109-.176387977302511.353199005126953,0,.353199005126953l1.761358187571204,1.765701293945312-17.792060923874487,17.833900451660156-8.103576107844674-8.298999786376953q-.176326475218048-.176502227783203-.352652950436095,0l-2.290399115308901,2.295497894287109-13.212308228687107,13.243000030517578v.353202819824219l2.29039911530981,2.295394897460938h.352652950435186l13.035981753469059-13.066398620605469,5.989503467752911,6.003501892089844,2.29039911530981,2.295402526855469c0,.176597595214844.176326475218048.176597595214844.351668917089228,0l20.082460039183388-20.305904388427734,1.937684662789252,1.942302703857422c.176326475218048.176597595214844.352714452520559.176597595214844.352714452520559,0v-.176601409912109l1.761358187571204-8.122398376464844Z" fill="#fff" fill-rule="evenodd"/>
      <path d="m55.020918895751493,64.096099853515625l-4.932467147707939,5.120697021484375h-.351668917090137l-4.580736728534248-4.590995788574219c-.880709844826924-.882801055908203-1.057036320044972-.176498413085938-1.057036320044972.176597595214844v23.660804748535156c0,.353195190429688.352652950435186.529792785644531.529040927737697.529792785644531h10.745521136074785c.352714452520559,0,.529040927738606-.353195190429688.529040927738606-.529792785644531v-24.190505981445312c.17534244187118-.353096008300781-.176326475218048-.882896423339844-.881693878173792-.176597595214844Z" fill="#fff" fill-rule="evenodd"/>
      <path d="m19.788465965091746,24.013900756835938v-2.295400619506836c0-1.942300796508789-.704383369608877-3.354900360107422-2.289415081962943-4.061199188232422,1.408705237136019-.706300735473633,1.937746164873715-1.942300796508789,1.937746164873715-3.531500816345215v-.882900238037109c0-3.178299903869629-1.586077247783578-4.944009780883789-4.756140672489892-4.944009780883789-3.171047458053181,0-4.757124705836759,1.76570987701416-4.757124705836759,4.944009780883789v.882900238037109c0,1.589200019836426.529040927738606,2.825200080871582,1.937746164873715,3.531500816345215-1.585031712353157.706298828125-2.289415081962943,2.118898391723633-2.289415081962943,4.061199188232422v2.295400619506836c0,3.178298950195312,1.408705237135109,5.297199249267578,5.108793622925987,5.297199249267578,3.69910435244401,0,5.107809589579119-2.295400619506836,5.107809589579119-5.297199249267578Zm-6.517498860061096-11.124100685119629c0-1.236000061035156.352652950436095-1.942299842834473,1.585031712353157-1.942299842834473,1.233362795263929,0,1.586015745700024.706299781799316,1.586015745700024,1.942299842834473v1.412599563598633c0,1.236000061035156-.352652950436095,1.942299842834473-1.586015745700024,1.942299842834473-1.057036320044972,0-1.585031712353157-.706299781799316-1.585031712353157-1.942299842834473v-1.412599563598633Zm3.171047458053181,11.477299690246582c0,1.236000061035156-.352652950436095,2.118801116943359-1.761358187571204,2.118801116943359-1.233362795263929,0-1.586015745699115-.882801055908203-1.586015745699115-2.118801116943359v-3.354900360107422c0-1.236000061035156.352652950435186-2.118900299072266,1.586015745699115-2.118900299072266,1.232378761917062,0,1.761358187571204.882900238037109,1.761358187571204,2.118900299072266v3.354900360107422Z" fill="#fff" fill-rule="evenodd"/>
      <path d="m31.415680979341232,10.770999908447266v3.884699821472168c0,1.236000061035156-.528979425654143,2.29539966583252-2.114011138007299,2.29539966583252h-2.290399115308901v-8.475509643554688h2.290399115308901c1.585031712353157,0,2.114011138007299.88286018371582,2.114011138007299,2.29541015625Zm-2.290337613225347,4.944100379943848c.528979425654143,0,.88064834274428-.35319995880127.88064834274428-.882900238037109v-4.414299964904785c0-.529729843139648-.176326475218048-.882869720458984-.88064834274428-.882869720458984h-.704383369608877v6.180069923400879h.704383369608877Z" fill="#fff" fill-rule="evenodd"/>
      <path d="m32.121048382296976,8.475589752197266h3.522777877226872v1.236010551452637h-1.937746164873715v2.295499801635742h1.40975077256553v1.236000061035156h-1.40975077256553v2.472000122070312h1.937746164873715v1.23599910736084h-3.522777877226872v-8.475509643554688Z" fill="#fff" fill-rule="evenodd"/>
      <path d="m36.348148127049171,14.832200050354004v-4.061200141906738c0-1.41254997253418.527995392307275-2.29541015625,2.114072640090853-2.29541015625,1.585031712353157,0,1.937684662789252.88286018371582,1.937684662789252,2.11890983581543v1.05940055847168h-1.23336279526302v-1.236000061035156c0-.529729843139648-.176326475218048-.882869720458984-.704321867526232-.882869720458984-.529040927737697,0-.705367402955744.353139877319336-.705367402955744.882869720458984v4.590899467468262c0,.52970027923584.176326475218048.882900238037109.705367402955744.882900238037109.527995392308185,0,.704321867526232-.35319995880127.704321867526232-.882900238037109v-1.412599563598633h1.23336279526302v1.412599563598633c0,1.236001014709473-.528979425653233,2.118901252746582-1.937684662789252,2.118901252746582-1.586077247783578,0-2.114072640090853-.882900238037109-2.114072640090853-2.295500755310059Z" fill="#fff" fill-rule="evenodd"/>
      <path d="m41.28061527475711,8.475589752197266h3.347435435354782v1.236010551452637h-1.937746164873715v2.295499801635742h1.409689270481977v1.236000061035156h-1.409689270481977v2.472000122070312h1.937746164873715v1.23599910736084h-3.347435435354782v-8.475509643554688Z" fill="#fff" fill-rule="evenodd"/>
      <path d="m46.565735372901145,11.653900146484375v5.297199249267578h-1.057036320045881v-8.475509643554688h1.232378761917062l1.586015745700024,4.767510414123535v-4.767510414123535h1.057036320044972v8.475509643554688h-1.057036320044972l-1.761358187571204-5.297199249267578Z" fill="#fff" fill-rule="evenodd"/>
      <path d="m50.089497283473975,8.475589752197266h3.875430827662058v1.236010551452637h-1.233362795263929v7.239499092102051h-1.40975077256553v-7.239499092102051h-1.232317259832598v-1.236010551452637Z" fill="#fff" fill-rule="evenodd"/>
      <path d="m58.897333756759508,11.653900146484375l-.704321867525323,5.297199249267578h-1.409689270481067l-1.232378761917971-8.475509643554688h1.408705237135109l.704321867526232,5.297210693359375.705367402955744-5.297210693359375h1.232378761917062l.881693878173792,5.297210693359375.704321867526232-5.297210693359375h1.23336279526302l-1.23336279526302,8.475509643554688h-1.409689270481977l-.880709844827834-5.297199249267578Z" fill="#fff" fill-rule="evenodd"/>
      <path d="m62.771780551075608,14.832200050354004v-4.061200141906738c0-1.41254997253418.705367402956654-2.29541015625,2.114011138007299-2.29541015625,1.40975077256553,0,2.114072640090853.88286018371582,2.114072640090853,2.29541015625v4.061200141906738c0,1.412600517272949-.704321867525323,2.295500755310059-2.114072640090853,2.295500755310059-1.408643735050646,0-2.114011138007299-.882900238037109-2.114011138007299-2.295500755310059Zm2.819378540963044.176599502563477v-4.414299964904785c0-.529799461364746-.176326475218048-.882899284362793-.705367402955744-.882899284362793-.527995392307275,0-.704321867525323.353099822998047-.704321867525323.882899284362793v4.590900421142578c0,.52970027923584.176326475218048.88279914855957.704321867525323.88279914855957.529040927737697-.176499366760254.705367402955744-.529699325561523.705367402955744-1.059399604797363Z" fill="#fff" fill-rule="evenodd"/>
      <path d="m69.290263444483571,13.066499710083008v3.884599685668945h-1.408705237136019v-8.475509643554688h2.114072640091763c1.408705237135109,0,1.937684662789252.706290245056152,1.937684662789252,1.942310333251953v1.059399604797363c0,.882900238037109-.352652950436095,1.412600517272949-1.057036320045881,1.589200019836426l1.408705237135109,3.884599685668945h-1.585031712353157l-1.409689270481067-3.884599685668945Zm0-3.354899406433105v2.648599624633789h.529040927737697c.527995392307275,0,.704321867525323-.176599502563477.704321867525323-.706299781799316v-1.412600517272949c0-.529699325561523-.176326475218048-.706269264221191-.704321867525323-.706269264221191h-.529040927737697v.176569938659668Z" fill="#fff" fill-rule="evenodd"/>
      <path d="m74.223714625537468,12.889900207519531v4.061199188232422h-1.585031712353157v-8.475509643554688h1.585031712353157v3.708010673522949l1.409689270481067-3.708010673522949h1.408705237136019l-1.585031712354066,3.884610176086426,1.761358187571204,4.590899467468262h-1.585031712353157l-1.409689270481067-4.061199188232422Z" fill="#fff" fill-rule="evenodd"/>
      <path d="m78.803467320725758,16.951099395751953l1.585031712353157-8.475509643554688h1.586077247783578l1.585031712353157,8.475509643554688h-1.409689270481977l-.17534244187118-1.589199066162109h-1.586077247783578l-.176326475218048,1.589199066162109h-1.408705237135109Zm1.761358187570295-2.648599624633789h1.057036320045881l-.528979425653233-3.354899406433105-.528056894392648,3.354899406433105Z" fill="#fff" fill-rule="evenodd"/>
      <path d="m85.321950214132812,11.653900146484375v5.297199249267578h-1.233362795263929v-8.475509643554688h1.408705237135109l1.586077247783578,4.767510414123535v-4.767510414123535h1.233362795263929v8.475509643554688h-1.233362795263929l-1.761419689654758-5.297199249267578Z" fill="#fff" fill-rule="evenodd"/>
      <path d="m93.425464819893023,10.770999908447266v3.884699821472168c0,1.236000061035156-.528979425653233,2.29539966583252-2.11401113800639,2.29539966583252h-2.114072640091763v-8.475509643554688h2.114072640091763c1.585031712353157,0,2.11401113800639.88286018371582,2.11401113800639,2.29541015625Zm-2.290337613224438,4.944100379943848c.528979425653233,0,.88064834274337-.35319995880127.88064834274337-.882900238037109v-4.414299964904785c0-.529729843139648-.176326475218048-.882869720458984-.88064834274337-.882869720458984h-.528056894391739v6.180069923400879h.528056894391739Z" fill="#fff" fill-rule="evenodd"/>
      <path d="m27.011270726025032,20.482500076293945h3.347435435354782v1.236000061035156h-1.937746164872806v2.472000122070312h1.408705237135109v1.059499740600586h-1.408705237135109v2.648599624633789h1.937746164872806v1.05940055847168h-3.347435435354782v-8.475500106811523Z" fill="#fff" fill-rule="evenodd"/>
      <path d="m31.064012062252004,26.662599563598633v-4.061199188232422c0-1.412599563598633.704383369608877-2.295400619506836,2.114072640090853-2.295400619506836,1.585031712353157,0,2.114072640090853.882801055908203,2.114072640090853,2.118801116943359v1.059499740600586h-1.409689270481067v-1.059499740600586c0-.529701232910156-.176387977302511-.882801055908203-.704383369609786-.882801055908203-.528979425654143,0-.705367402955744.353099822998047-.705367402955744.882801055908203v4.590999603271484c0,.529699325561523.176387977301601.88279914855957.705367402955744.88279914855957.527995392307275,0,.704383369609786-.353099822998047.704383369609786-.88279914855957v-1.589200973510742h1.409689270481067v1.412599563598633c0,1.236000061035156-.529040927737697,2.118900299072266-2.114072640090853,2.118900299072266-1.409689270481977,0-2.114072640090853-.882900238037109-2.114072640090853-2.295499801635742Z" fill="#fff" fill-rule="evenodd"/>
      <path d="m36.171821651831124,26.662599563598633v-4.061199188232422c0-1.412599563598633.704321867525323-2.295400619506836,2.114072640091763-2.295400619506836,1.409689270481067,0,2.11401113800639.882801055908203,2.11401113800639,2.295400619506836v4.061199188232422c0,1.412599563598633-.704321867525323,2.295499801635742-2.11401113800639,2.295499801635742-1.585031712354066,0-2.114072640091763-.882900238037109-2.114072640091763-2.295499801635742Zm2.818394507617086.353200912475586v-4.590999603271484c0-.529701232910156-.176326475218048-.882801055908203-.704321867525323-.882801055908203-.529040927738606,0-.704383369609786.353099822998047-.704383369609786.882801055908203v4.590999603271484c0,.529699325561523.17534244187118.88279914855957.704383369609786.88279914855957.527995392307275,0,.704321867525323-.353099822998047.704321867525323-.88279914855957Z" fill="#fff" fill-rule="evenodd"/>
      <path d="m42.513978070021039,23.660800933837891v5.297199249267578h-1.233362795263929v-8.475500106811523h1.409689270481067l1.585031712354066,4.944000244140625v-4.944000244140625h1.23336279526302v8.475500106811523h-1.408705237135109l-1.586015745699115-5.297199249267578Z" fill="#fff" fill-rule="evenodd"/>
      <path d="m46.036694445163448,26.662599563598633v-4.061199188232422c0-1.412599563598633.704383369608877-2.295400619506836,2.290399115308901-2.295400619506836,1.585031712353157,0,2.290399115308901.882801055908203,2.290399115308901,2.295400619506836v4.061199188232422c0,1.412599563598633-.705367402955744,2.295499801635742-2.290399115308901,2.295499801635742-1.586015745700024,0-2.290399115308901-.882900238037109-2.290399115308901-2.295499801635742Zm2.994782484918687.353200912475586v-4.590999603271484c0-.529701232910156-.176387977302511-.882801055908203-.704383369609786-.882801055908203-.528979425654143,0-.704321867526232.353099822998047-.704321867526232.882801055908203v4.590999603271484c0,.529699325561523.17534244187209.88279914855957.704321867526232.88279914855957.527995392307275,0,.704383369609786-.353099822998047.704383369609786-.88279914855957Z" fill="#fff" fill-rule="evenodd"/>
      <path d="m55.19724537096954,23.484199523925781l-1.057036320045881,5.473800659179688h-.527995392307275l-1.057036320045881-5.473800659179688v5.473800659179688h-1.233362795263929v-8.475500106811523h1.586077247783578l1.057036320045881,4.767499923706055.704321867525323-4.767499923706055h1.761358187571204v8.475500106811523h-1.23336279526302v-5.473800659179688Z" fill="#fff" fill-rule="evenodd"/>
      <path d="m58.721007281541461,20.482500076293945h-1.408705237135109v8.475500106811523h1.408705237135109v-8.475500106811523Z" fill="#fff"/>
      <path d="m59.601717126369294,26.662599563598633v-4.061199188232422c0-1.412599563598633.704321867525323-2.295400619506836,2.114011138007299-2.295400619506836,1.585031712353157,0,2.114072640090853.882801055908203,2.114072640090853,2.118801116943359v1.059499740600586h-1.409689270481067v-1.059499740600586c0-.529701232910156-.176326475218048-.882801055908203-.704383369609786-.882801055908203-.528979425654143,0-.704321867525323.353099822998047-.704321867525323.882801055908203v4.590999603271484c0,.529699325561523.17534244187118.88279914855957.704321867525323.88279914855957.528056894391739,0,.704383369609786-.353099822998047.704383369609786-.88279914855957v-1.589200973510742h1.409689270481067v1.412599563598633c0,1.236000061035156-.529040927737697,2.118900299072266-2.114072640090853,2.118900299072266-1.409689270481977,0-2.114011138007299-.882900238037109-2.114011138007299-2.295499801635742Z" fill="#fff" fill-rule="evenodd"/>
      <path d="m67.881558207347553,24.367099761962891h2.114072640091763v4.590900421142578h-1.057036320045881v-.882900238037109c-.176326475218048.706300735473633-.527995392307275,1.059499740600586-1.409689270481067,1.059499740600586-1.232378761917971,0-1.761419689655668-.882900238037109-1.761419689655668-2.295499801635742v-4.061199188232422c0-1.412601470947266.704383369609786-2.295400619506836,2.114072640090853-2.295400619506836,1.585031712354066,0,2.114072640091763.88279914855957,2.114072640091763,2.118900299072266v.706298828125h-1.40975077256553v-.882898330688477c0-.529701232910156-.175280939787626-.882900238037109-.704321867526232-.882900238037109-.527995392307275,0-.704321867525323.353199005126953-.704321867525323.882900238037109v4.590898513793945c0,.529701232910156.176326475218048.882900238037109.704321867525323.882900238037109.529040927738606,0,.704321867526232-.353199005126953.704321867526232-.882900238037109v-1.412599563598633h-.704321867526232v-1.236000061035156Z" fill="#fff" fill-rule="evenodd"/>
      <path d="m72.286029962748216,25.073400497436523v3.884599685668945h-1.40975077256553v-8.475500106811523h2.114072640090853c1.409689270481977,0,1.937684662789252.706300735473633,1.937684662789252,1.942300796508789v1.059398651123047c0,.882900238037109-.351668917089228,1.412599563598633-1.05599078461546,1.589200973510742l1.408705237136019,3.884599685668945h-1.408705237136019l-1.586015745699115-3.884599685668945Zm0-3.354900360107422v2.648599624633789h.528979425654143c.527995392307275,0,.704383369609786-.176599502563477.704383369609786-.706298828125v-1.236000061035156c0-.529701232910156-.176387977302511-.706300735473633-.704383369609786-.706300735473633h-.528979425654143Z" fill="#fff" fill-rule="evenodd"/>
      <path d="m75.632419862672577,26.662599563598633v-4.061199188232422c0-1.412599563598633.705367402955744-2.295400619506836,2.114011138007299-2.295400619506836,1.40975077256553,0,2.114072640090853.882801055908203,2.114072640090853,2.295400619506836v4.061199188232422c0,1.412599563598633-.704321867525323,2.295499801635742-2.114072640090853,2.295499801635742-1.408643735051555,0-2.114011138007299-.882900238037109-2.114011138007299-2.295499801635742Zm2.818394507617086.353200912475586v-4.590999603271484c0-.529701232910156-.17534244187209-.882801055908203-.704383369609786-.882801055908203-.527995392308185,0-.704321867525323.353099822998047-.704321867525323.882801055908203v4.590999603271484c0,.529699325561523.176326475217138.88279914855957.704321867525323.88279914855957.529040927737697,0,.704383369609786-.353099822998047.704383369609786-.88279914855957Z" fill="#fff" fill-rule="evenodd"/>
      <path d="m83.736918501779655,23.837400436401367l-.70530590087219,5.120599746704102h-1.408705237135109l-1.057036320045881-8.475500106811523h1.408705237136019l.528979425653233,5.473800659179688.704383369609786-5.473800659179688h1.233362795263929l.88064834274337,5.473800659179688.528056894391739-5.473800659179688h1.23336279526302l-1.057036320044972,8.475500106811523h-1.408705237135109l-.880709844827834-5.120599746704102Z" fill="#fff" fill-rule="evenodd"/>
      <path d="m87.435038820877708,20.482500076293945h3.875369325578504v1.236000061035156h-1.233362795263929v7.239500045776367h-1.408643735050646v-7.239500045776367h-1.233362795263929v-1.236000061035156Z" fill="#fff" fill-rule="evenodd"/>
      <path d="m94.657843581810994,25.25h-1.232378761917971v3.708000183105469h-1.409689270481067v-8.475500106811523h1.409689270481067v3.708000183105469h1.232378761917971v-3.708000183105469h1.586077247783578v8.475500106811523h-1.586077247783578v-3.708000183105469Z" fill="#fff" fill-rule="evenodd"/>
      <rect x="26.433889160156468" width="72.550810546874345" height="36" fill="#566e78"/>
      <path d="m28.822999120503482,16.398399353027344h-.952175266593258v-1.398399353027344h-2.169486017897725v1.398399353027344h-.932064085081038l-.173312873095711-2.28119945526123h.212612704857747c.120913097412085-.0625.225712648779336-.149800300598145.314337152020016-.261699676513672.089731540753746-.112000465393066.16427206672688-.263100624084473.224728615432468-.453200340270996.060456548705588-.192699432373047.108858688920918-.430899620056152.145083416477064-.714799880981445.037331765070121-.286499977111816.063531652912388-.63539981842041.079645198956314-1.046899795532227l.157199327050876-2.328100204467773h2.829464882761386v4.804699897766113h.421166272163646l-.157199327051785,2.28119945526123Zm-2.141256561279079-4.75779914855957c-.013099943920679.304699897766113-.032227092086941.58080005645752-.058426979929209.82819938659668-.024170319065888.247300148010254-.055413377806872.472599983215332-.094713209569818.675700187683105-.039299831762946.200600624084473-.085672403200988.381500244140625-.138072178884613.543000221252441-.052338273600071.158900260925293-.109781220183322.30210018157959-.173312873095711.429699897766113h1.240435534939024v-3.91409969329834h-.681135581806302l-.094774711653372,1.4375Zm7.09285085715328.933599472045898c0,.36460018157959-.048340638130867.70050048828125-.145083416477064,1.007800102233887-.097726811691246.307300567626953-.237767057269593.571599960327148-.421166272162736.793000221252441-.184444750324474.221400260925293-.408127830326521.394499778747559-.673140310868803.519499778747559-.262982911765903.122400283813477-.559238451049168.183600425720215-.889750651195754.183600425720215s-.624738170653472-.061200141906738-.881693878173792-.183600425720215c-.256955707520319-.125-.473566047847271-.298099517822266-.649954025148872-.519499778747559-.175280939787626-.223999977111816-.309355483204854-.488300323486328-.400993588566962-.793000221252441-.091699607447481-.307299613952637-.138072178885523-.643199920654297-.138072178885523-1.007800102233887v-.828099250793457c0-.36460018157959.046372571438042-.70050048828125.138072178885523-1.007800102233887.091638105362108-.307300567626953.225712648779336-.571599960327148.400993588566962-.792990684509277.176387977301601-.223959922790527.390968748852174-.398429870605469.645956389679668-.523429870605469.256894205436765-.125.551181678027206-.1875.881693878173792-.1875.333525802269833,0,.630765374899056.0625.893748286664959.1875.265012480542282.125.488695560544329.299469947814941.673140310868803.523429870605469.183399214893143.221390724182129.323439460471491.485690116882324.421166272162736.792990684509277.096742778346197.307299613952637.145083416477064.643199920654297.145083416477064,1.007800102233887v.828099250793457Zm-1.121490504219764-.835899353027344c0-.231800079345703-.020172683596684-.445300102233887-.05947251535963-.640600204467773-.036224727556146-.195400238037109-.095697242915776-.363300323486328-.176326475218048-.503900527954102-.08161326564823-.14069938659668-.186412817016389-.25-.315382687449528-.32819938659668-.125956268310802-.080699920654297-.279096457808919-.121100425720215-.460466103926592-.121100425720215-.178356043994427,0-.328544133453761.040400505065918-.448411695435425.121100425720215-.120913097411176.07819938659668-.217655875757373.1875-.29121236838364.32819938659668-.073556492627176.140600204467773-.125956268310802.308500289916992-.158244862482206.503900527954102-.031243058740984.195300102233887-.047356604784909.40880012512207-.047356604784909.640600204467773v.835899353027344c0,.22920036315918.016113546043925.441400527954102.047356604784909.636700630187988.032288594171405.195300102233887.08468836985503.364599227905273.158244862482206.507899284362793.073556492626267.143200874328613.170299270972464.255200386047363.29121236838364.33590030670166.119867561981664.080699920654297.271039684787866.121100425720215.452409330904629.121100425720215.178356043994427,0,.330512200146586-.040400505065918.456468468457388-.121100425720215.128969870433139-.080699920654297.231739853024919-.191399574279785.311385051980324-.331999778747559.080567730218718-.14330005645752.141024278924306-.3125.180324110687252-.507900238037109.039299831762946-.195300102233887.05947251535963-.40880012512207.05947251535963-.640600204467773v-.835899353027344Zm5.943130896314869,1.480499267578125c-.018143114820305.28640079498291-.080629232302272.54419994354248-.188442385792769.77340030670166-.10479955136816.22920036315918-.246869365721977.424500465393066-.425225409716404.58590030670166-.178356043994427.161499977111816-.390968748852174.286499977111816-.637838114574151.375-.246869365721977.085999488830566-.519938619286222.128899574279785-.818223727345867.128899574279785-.338568973168549,0-.638822147921019-.061200141906738-.901866561770476-.183599472045898-.261937376335482-.125-.482606854215192-.298100471496582-.660962898209618-.519500732421875-.178356043994427-.223999977111816-.315444189533991-.492199897766113-.409111863672479-.804699897766113-.094713209569818-.3125-.142069814354727-.65619945526123-.142069814354727-1.03119945526123v-.765700340270996c0-.377599716186523.049324671477734-.722599983215332.149081051946268-1.035099983215332s.241887696906815-.580699920654297.425225409716404-.804699897766113c.184444750323564-.223959922790527.406098261550142-.397139549255371.66508353784684-.519530296325684.262982911764993-.125.55720888227188-.1875.881693878173792-.1875.315382687449528,0,.594479145258447.044270515441895.838334908857178.132810592651367.246869365721977.088540077209473.457514003887809.214839935302734.629781341553098.378910064697266.173312873095711.164059638977051.310401018634366.364609718322754.4101573991029.601609230041504.099756380468534.236900329589844.162180995866947.503900527954102.188380883709215.800700187683105h-1.102363356054411c-.010086341798342-.16919994354248-.0362862296397-.317699432373047-.078599663525893-.445300102233887-.039299831762946-.127599716186523-.097726811692155-.233099937438965-.176326475218048-.316399574279785-.076570094748604-.08590030670166-.173312873094801-.149700164794922-.29121236838364-.191400527954102-.11586992651246-.044299125671387-.25492613874394-.066399574279785-.418152670040399-.066399574279785-.170299270973373,0-.318457791656328.036499977111816-.44441405996713.109399795532227s-.230694317594498.179699897766113-.314337152019107.320300102233887c-.08161326564823.140600204467773-.142069814353817.313799858093262-.181369646116764.519499778747559-.039299831762946.203100204467773-.05947251535963.434900283813477-.05947251535963.695300102233887v.773500442504883c0,.55989933013916.078599663525893.973899841308594.236783023923635,1.242199897766113.159228895828164.268199920654297.411141432448858.402299880981445.75573760986299.402299880981445.288198766261303,0,.516925017162976-.075499534606934.684210686013103-.22659969329834.168269702196085-.153600692749023.260953342989524-.401000022888184.28014199323934-.742100715637207h1.105376958176748Zm5.073491426631335-3.011799812316895h-1.766401358469921v4.793000221252441h-1.110420129075465v-4.793000221252441h-1.7432150727509v-.894499778747559h4.620036560296285v.894499778747559Zm4.629138868749578,2.367199897766113c0,.36460018157959-.048340638130867.70050048828125-.145083416477064,1.007800102233887-.097726811692155.307300567626953-.237828559354057.571599960327148-.421166272162736.793000221252441-.184444750324474.221400260925293-.40812783032743.394499778747559-.673140310868803.519499778747559-.262982911765903.122400283813477-.559238451049168.183600425720215-.889750651195754.183600425720215-.330512200147496,0-.624738170653472-.061200141906738-.881693878173792-.183600425720215-.256955707520319-.125-.473566047847271-.298099517822266-.649954025149782-.519499778747559-.175280939787626-.223999977111816-.309355483203944-.488300323486328-.400993588566962-.793000221252441-.091699607446571-.307299613952637-.138072178884613-.643199920654297-.138072178884613-1.007800102233887v-.828099250793457c0-.36460018157959.046372571438042-.70050048828125.138072178884613-1.007800102233887.091638105363018-.307300567626953.225712648779336-.571599960327148.400993588566962-.792990684509277.176387977302511-.223959922790527.390968748853084-.398429870605469.645894887597024-.523429870605469.25695570751941-.125.55124318011076-.1875.881693878173792-.1875.333587304353387,0,.63082687698261.0625.893809788748513.1875.265012480541372.125.488695560544329.299469947814941.673140310868803.523429870605469.183337712808679.221390724182129.323439460470581.485690116882324.421166272162736.792990684509277.096742778346197.307299613952637.145083416477064.643199920654297.145083416477064,1.007800102233887v.828099250793457Zm-1.121490504219764-.835899353027344c0-.231800079345703-.020172683596684-.445300102233887-.05947251535963-.640600204467773-.036224727556146-.195400238037109-.095697242915776-.363300323486328-.176326475218048-.503900527954102-.08161326564823-.14069938659668-.186412817016389-.25-.315382687449528-.32819938659668-.125956268310802-.080699920654297-.279096457808919-.121100425720215-.460527606010146-.121100425720215-.178294541910873,0-.327437095940695.040400505065918-.448350193351871.121100425720215-.120913097411176.07819938659668-.217655875757373.1875-.29121236838364.32819938659668-.073556492627176.140600204467773-.125956268310802.308500289916992-.158244862482206.503900527954102-.031243058740984.195300102233887-.046311069354488.40880012512207-.046311069354488.640600204467773v.835899353027344c0,.22920036315918.015068010613504.441400527954102.046311069354488.636700630187988.032288594171405.195300102233887.08468836985503.364599227905273.158244862482206.507899284362793.073556492626267.143200874328613.170299270972464.255200386047363.29121236838364.33590030670166s.271039684786956.121100425720215.452409330904629.121100425720215c.178356043994427,0,.330512200146586-.040400505065918.456468468457388-.121100425720215.128969870433139-.080699920654297.232785388454431-.191399574279785.311385051980324-.331999778747559.080567730218718-.14330005645752.141024278924306-.3125.180324110687252-.507900238037109.039299831762946-.195300102233887.05947251535963-.40880012512207.05947251535963-.640600204467773v-.835899353027344Zm4.617084460258411-2.425800323486328h1.110420129075465v5.6875h-1.110420129075465v-3.628899574279785l-1.625377079546524,3.628899574279785h-1.10642249360717v-5.6875h1.10642249360717v3.632800102233887l1.625377079546524-3.632800102233887Zm.499765935688629-1.480470180511475c0,.169270038604736-.031243058740984.324220180511475-.094713209568908.464849948883057-.060456548705588.140620231628418-.149142554029822.261710166931152-.267042049318661.363280296325684-.11586992651246.098950386047363-.255910172089898.177080154418945-.421166272163646.234370231628418-.165256100073748.054689407348633-.35068488374327.082029342651367-.555240815579964.082029342651367-.207569533959031,0-.393982350975421-.027339935302734-.559238451048259-.082029342651367-.165256100073748-.057290077209473-.306341881081607-.135419845581055-.425225409716404-.234370231628418-.114885893166502-.101570129394531-.204555931836694-.222660064697266-.267042049318661-.363280296325684-.060456548705588-.140629768371582-.09065407201706-.29557991027832-.09065407201706-.464849948883057h.78691916652042c0,.067710399627686.009102308452384.134119987487793.027245423272689.199220180511475.021156716942642.0625.054429344460004.118490219116211.098710845038113.167969703674316.044343002661662.046870231628418.100801915898955.084630012512207.169315237626506.113280296325684.07054289050393.028650283813477.157199327051785.042969703674316.259969309642656.042969703674316.099756380468534,0,.183399214894052-.01431941986084.251912536621603-.042969703674316.07054289050393-.028650283813477.126940301656759-.066410064697266.169315237626506-.113280296325684.044281500577199-.049479484558105.075524559318183-.105469703674316.094713209568908-.167969703674316.02011118151222-.065100193023682.031243058740984-.131509780883789.031243058740984-.199220180511475h.790978304073178Zm5.471532915160424,7.167970180511475h-1.094306583032449v-2.464799880981445h-1.622301975339724v2.464799880981445h-1.097320185153876v-5.6875h1.097320185153876v2.331999778747559h1.622301975339724v-2.331999778747559h1.094306583032449v5.6875Zm3.876414861008016-1.1875h-1.720028787030969l-.338568973169458,1.1875h-1.164849473535469l1.877228114083664-5.6875h1.004636544361347l1.841987419873476,5.6875h-1.165833506882336l-.334571337700254-1.1875Zm-1.447943566813592-.933600425720215h1.189019792601357l-.586483874320948-2.09369945526123-.60253591828041,2.09369945526123Zm5.951126167252369,2.121100425720215v-2.238300323486328h-.885691513642087l-1.078193036988523,2.238300323486328h-1.185022157133062l1.240435534939024-2.570300102233887c-.304312312304319-.148499488830566-.537097700759659-.34119987487793-.697310629933781-.578100204467773-.157137824967322-.239599227905273-.235737488493214-.52869987487793-.235737488493214-.867199897766113,0-.273499488830566.048340638130867-.514299392700195.145083416477064-.722700119018555.097726811692155-.20829963684082.236783023923635-.382789611816406.417168636694441-.523419380187988.18438324824001-.140620231628418.406098261550142-.246089935302734.666067571192798-.316400527954102.258923774212235-.072919845581055.550136142596784-.109379768371582.873637105151829-.109379768371582h1.850044192895439v5.6875h-1.110481631159928Zm-1.735158299728937-3.949199676513672c0,.296899795532227.082658801078651.516900062561035.247914901152399.660099983215332.165256100072838.14069938659668.414093532487641.210999488830566.747680836841027.210999488830566h.739562561735511v-1.718799591064453h-.739562561735511c-.341644077375349,0-.593556613996043.074199676513672-.75573760986299.222700119018555-.160212929174122.148399353027344-.239858128130436.356800079345703-.239858128130436.625Zm-38.298762339428322,10.863300323486328v2.085899353027344h-1.10642249360626v-5.6875h1.959886915162315c.312369085326281,0,.594540647342001.045600891113281.846453183963604.136699676513672.251912536620694.088600158691406.465509274825308.213600158691406.641897252127819.375.178356043994427.158901214599609.314337152019107.350299835205078.409050361588015.574199676513672.097788313776618.224000930786133.146128951907485.472700119018555.146128951907485.746101379394531,0,.255199432373047-.048340638130867.490900039672852-.146128951907485.707099914550781-.094713209568908.216098785400391-.230694317593588.403598785400391-.409050361588015.5625-.176387977302511.156198501586914-.389984715507126.278598785400391-.641897252127819.367099761962891-.251912536621603.088600158691406-.534084098637322.132900238037109-.846453183963604.132900238037109h-.853464421556055Zm0-.890701293945312h.853464421556055c.158244862481297,0,.294225970505977-.023399353027344.4101573991029-.07029914855957.114824391082038-.046899795532227.210583136081368-.110700607299805.287153230830882-.191400527954102.078599663525893-.080699920654297.136042610109143-.173200607299805.173312873094801-.277299880981445.039299831762946-.106800079345703.058426979929209-.217500686645508.058426979929209-.332099914550781,0-.13279914855957-.019127148166262-.256500244140625-.058426979929209-.371099472045898-.037270262985658-.114500045776367-.094713209568908-.214799880981445-.173312873094801-.300701141357422-.076570094749513-.08599853515625-.172328839748843-.15369987487793-.287153230830882-.20319938659668-.115931428596923-.049400329589844-.251912536621603-.074199676513672-.4101573991029-.074199676513672h-.853464421556055v1.82029914855957Zm6.482196663767354,1.789100646972656h-1.720028787031879l-.338568973168549,1.1875h-1.164849473536378l1.877228114083664-5.6875h1.003652511015389l1.842971453219434,5.6875h-1.165833506881427l-.334571337700254-1.1875Zm-1.447943566814502-.933599472045898h1.187974257171845l-.586422372237394-2.093700408935547-.601551884934452,2.093700408935547Zm7.18350492917034-2.675800323486328h-2.601722665205671v1.211000442504883h.644849352166602c.330512200146586,0,.627813274860273.042900085449219.889750651194845.128898620605469.265012480542282.083301544189453.487711527199281.201801300048828.669081173316044.355400085449219.183399214893143.15369987487793.324484995901912.339900970458984.4212277742472.558601379394531.096742778346197.218799591064453.146128951907485.46099853515625.146128951907485.726598739624023,0,.27079963684082-.049386173561288.518199920654297-.146128951907485.74220085144043-.096742778345288.22130012512207-.237828559354057.411399841308594-.4212277742472.57029914855957-.181369646116764.15880012512207-.404068692773762.282501220703125-.669081173316044.371101379394531-.261937376334572.088499069213867-.559238451048259.13279914855957-.889750651194845.13279914855957h-1.75533098332653v-5.6875h3.712204296365599v.890600204467773Zm-2.601722665205671,2.093799591064453v1.820301055908203h.644849352166602c.173312873094801,0,.323500962555045-.024801254272461.449457230865846-.074201583862305.127924335002717-.04949951171875.234753455147256-.117198944091797.318396289571865-.20319938659668.086656436547855-.085899353027344.149142554029822-.186199188232422.188442385792769-.300699234008789.042313433885283-.114601135253906.063470150827925-.235700607299805.063470150827925-.363300323486328,0-.122400283813477-.021156716942642-.23699951171875-.063470150827925-.343799591064453-.039299831762946-.106700897216797-.101785949244913-.199201583862305-.188442385792769-.277299880981445-.083642834424609-.080699920654297-.190471954569148-.143199920654297-.318396289571865-.1875-.125956268310802-.046901702880859-.276144357771045-.070301055908203-.449457230865846-.070301055908203h-.644849352166602Zm7.730688971728341.277299880981445c0,.364601135253906-.049386173561288.70050048828125-.146128951907485,1.007801055908203-.096742778345288.30729866027832-.237828559354057.571599960327148-.4212277742472.792999267578125-.183337712809589.221399307250977-.408066328242967.394500732421875-.673078808784339.519500732421875-.261998878419945.122398376464844-.559238451049168.183599472045898-.889750651195754.183599472045898-.330512200147496,0-.624738170653472-.061201095581055-.881693878173792-.183599472045898-.256955707520319-.125-.473627549931734-.298101425170898-.648908489719361-.519500732421875-.176387977301601-.224000930786133-.310401018634366-.488300323486328-.402100626080937-.792999267578125-.091699607446571-.307300567626953-.137026643455101-.643199920654297-.137026643455101-1.007801055908203v-.828100204467773c0-.364599227905273.04532703600853-.700498580932617.137026643455101-1.00779914855957s.225712648779336-.571599960327148.402100626080937-.793001174926758c.175280939787626-.223899841308594.390968748853084-.398399353027344.644849352166602-.523399353027344.258001242949831-.125.551181678026296-.1875.881693878173792-.1875.333525802268923,0,.631810910328568.0625.893809788748513.1875.265012480541372.125.48974109597475.29949951171875.673078808784339.523399353027344.183399214893143.221401214599609.324484995901912.485700607299805.4212277742472.793001174926758.096742778346197.307300567626953.146128951907485.643199920654297.146128951907485,1.00779914855957v.828100204467773Zm-1.122536039650186-.835899353027344c0-.231800079345703-.019127148166262-.445301055908203-.058426979929209-.640600204467773-.037331765071031-.195400238037109-.095758745000239-.363300323486328-.177372010648469-.503900527954102-.08161326564823-.14069938659668-.186412817016389-.25-.315382687449528-.32819938659668-.125956268310802-.080699920654297-.279157959893382-.121099472045898-.460527606010146-.121099472045898-.178356043994427,0-.327437095940695.040399551391602-.448411695436334.121099472045898-.120913097411176.07819938659668-.21759437367291.1875-.291150866299176.32819938659668-.07361799471073.140600204467773-.125956268310802.308500289916992-.157199327051785.503900527954102-.032288594171405.19529914855957-.047356604784909.40880012512207-.047356604784909.640600204467773v.835899353027344c0,.22920036315918.015068010613504.441400527954102.047356604784909.636699676513672.031243058740984.195301055908203.083581332341055.364601135253906.157199327051785.507900238037109.073556492626267.143199920654297.170237768888001.25520133972168.291150866299176.335901260375977.120974599495639.080699920654297.272085220218287.121099472045898.452470832989093.121099472045898.178356043994427,0,.330512200146586-.040399551391602.456468468457388-.121099472045898.128969870433139-.080699920654297.232785388454431-.191400527954102.311385051980324-.332000732421875.081613265649139-.143301010131836.142069814354727-.3125.181369646117673-.507900238037109.039299831762946-.19529914855957.058426979929209-.40880012512207.058426979929209-.640600204467773v-.835899353027344Zm6.175854782684837-1.531299591064453h-1.767385391815878v4.792999267578125h-1.109436095729507v-4.792999267578125h-1.744260608181321v-.894500732421875h4.621082095726706v.894500732421875Zm3.448175849170184,3.605499267578125h-1.720028787031879l-.338568973168549,1.1875h-1.164849473536378l1.877228114083664-5.6875h1.003652511015389l1.841987419873476,5.6875h-1.164849473536378l-.334571337699344-1.1875Zm-1.447943566814502-.933599472045898h1.187974257170936l-.586422372236484-2.093700408935547-.601551884934452,2.093700408935547Zm10.965206580609447-3.566400527954102h1.110481631159928v5.6875h-1.110481631159928v-3.628900527954102l-1.625315577462061,3.628900527954102h-1.10642249360717v-5.6875h1.10642249360717v3.63279914855957l1.625315577462061-3.63279914855957Zm7.758918428346078,3.796899795532227c-.016113546043016.17180061340332-.003013602122337.32550048828125.039299831762946.460899353027344.041329400539325.135400772094727.102769982591781.25.18438324824001.343801498413086.08468836985503.093698501586914.182415181547185.165298461914062.295271505937308.214799880981445.11586992651155.04949951171875.239796626045973.074199676513672.373809667378737.074199676513672.158244862481297,0,.300314676836024-.0260009765625.429284547269162-.078100204467773s.237828559354057-.135400772094727.326453062593828-.25c.089731540754656-.11720085144043.158244862482206-.266899108886719.204555931835785-.449199676513672.050431708991709-.182300567626953.075586061403556-.405000686645508.075586061403556-.668001174926758v-.152299880981445h-1.507416082173222v-.886699676513672h1.507416082173222v-.152399063110352c0-.25-.024170319064979-.466100692749023-.071526923849888-.648401260375977-.044343002662572-.18229866027832-.109842722266876-.332099914550781-.196499158814731-.449199676513672-.083642834424609-.11979866027832-.187396850362347-.208398818969727-.311385051980324-.26569938659668-.119867561981664-.057300567626953-.255910172089898-.085899353027344-.40505272611972-.085899353027344-.160212929175032,0-.30332827895927.024698257446289-.429284547270072.074199676513672-.122881164103092.04949951171875-.225712648778426.122400283813477-.306280378997144.218799591064453-.08161326564823.093700408935547-.14108578100786.209600448608398-.177372010648469.347599029541016-.037270262985658.13800048828125-.048340638130867.294300079345703-.035240694209278.468801498413086h-1.10642249360717c0-.273500442504883.047356604784909-.531301498413086.142069814353817-.773500442504883.096742778346197-.24220085144043.23481495723172-.454401016235352.413171001226146-.636699676513672.178356043994427-.182300567626953.392936815544999-.32550048828125.644849352165693-.42970085144043.25492613874394-.106800079345703.540111302882906-.160099029541016.854509956986476-.160099029541016.307325914427565,0,.587467907666905.054599761962891.842394046410845.163999557495117.256955707520319.106800079345703.477625185400029.260398864746094.661024400293172.461000442504883.18438324824001.200498580932617.326453062593828.446599960327148.429223045185608.738199234008789.102831484675335.289100646972656.153201691582581.614599227905273.153201691582581.976600646972656v1.183599472045898c0,.364599227905273-.049386173561288.691400527954102-.149142554029822.980499267578125-.099756380468534.286399841308594-.242871730252773.529901504516602-.429284547269162.730400085449219-.183337712809589.197999954223633-.408066328242057.350299835205078-.673078808784339.457099914550781-.261998878419945.106700897216797-.557208882272789.160100936889648-.88575301572655.160100936889648-.291212368384549,0-.561206517741084-.044200897216797-.81010545224035-.132801055908203-.246869365721977-.088499069213867-.460527606010146-.217399597167969-.64189725212691-.386699676513672-.178356043994427-.169300079345703-.316428222879949-.375-.413109499141683-.617198944091797-.097788313776618-.244800567626953-.142131316438281-.522100448608398-.134013041332764-.832000732421875h1.106360991522706Zm5.757702112645347-.44529914855957h-.460466103926592v2.335899353027344h-1.105376958176748v-5.6875h1.105376958176748v2.503900527954102h.272085220217377l1.499359309152169-2.503900527954102h1.279735366701971l-1.709019913971133,2.738300323486328,1.775503666922305,2.949199676513672h-1.282748968824308l-1.374448576271789-2.335899353027344Zm7.195620839745061-.089900970458984c0,.364601135253906-.048340638131776.70050048828125-.145083416477064,1.007801055908203-.097726811692155.30729866027832-.237767057269593.571599960327148-.421166272163646.792999267578125-.184444750323564.221399307250977-.408127830326521.394500732421875-.673140310868803.519500732421875-.262982911764993.122398376464844-.559238451048259.183599472045898-.889750651195754.183599472045898-.330512200146586,0-.624738170653472-.061201095581055-.881693878173792-.183599472045898-.256955707520319-.125-.473566047847271-.298101425170898-.649954025148872-.519500732421875-.175280939787626-.224000930786133-.309293981120391-.488300323486328-.400993588566962-.792999267578125-.091699607446571-.307300567626953-.138072178885523-.643199920654297-.138072178885523-1.007801055908203v-.828100204467773c0-.364599227905273.046372571438951-.700498580932617.138072178885523-1.00779914855957s.225712648779336-.571599960327148.400993588566962-.793001174926758c.176387977301601-.223899841308594.390968748852174-.398399353027344.645956389680578-.523399353027344.256894205435856-.125.551181678026296-.1875.881693878173792-.1875.333525802268923,0,.630765374899056.0625.893748286664049.1875.265012480542282.125.488695560545239.29949951171875.673140310868803.523399353027344.183399214894052.221401214599609.323439460471491.485700607299805.421166272163646.793001174926758.096742778345288.307300567626953.145083416477064.643199920654297.145083416477064,1.00779914855957v.828100204467773Zm-1.121490504220674-.835899353027344c0-.231800079345703-.020172683596684-.445301055908203-.05947251535963-.640600204467773-.036224727556146-.195400238037109-.095697242915776-.363300323486328-.177310508564005-.503900527954102-.080629232302272-.14069938659668-.186412817016389-.25-.31439865410357-.32819938659668-.125956268309892-.080699920654297-.279096457808919-.121099472045898-.460466103925683-.121099472045898-.178356043994427,0-.32854413345467.040399551391602-.448411695435425.121099472045898-.120913097412085.07819938659668-.218701411187794.1875-.292257903814971.32819938659668-.072510957195846.140600204467773-.125956268309892.308500289916992-.157199327051785.503900527954102-.03118155665652.19529914855957-.047356604784.40880012512207-.047356604784.640600204467773v.835899353027344c0,.22920036315918.016175048127479.441400527954102.047356604784.636699676513672.031243058741893.195301055908203.08468836985594.364601135253906.157199327051785.507900238037109.073556492627176.143199920654297.171344806402885.25520133972168.292257903814971.335901260375977.119867561980755.080699920654297.271039684786956.121099472045898.45240933090372.121099472045898.178356043994427,0,.330512200147496-.040399551391602.456468468457388-.121099472045898.127985837087181-.080699920654297.231739853024919-.191400527954102.310339516550812-.332000732421875.08161326564823-.143301010131836.142069814353817-.3125.181369646116764-.507900238037109.039299831762946-.19529914855957.05947251535963-.40880012512207.05947251535963-.640600204467773v-.835899353027344Zm5.746631737500138,3.261699676513672h-1.094306583031539v-2.464799880981445h-1.621317941993766v2.464799880981445h-1.098304218500743v-5.6875h1.098304218500743v2.332000732421875h1.621317941993766v-2.332000732421875h1.094306583031539v5.6875Zm5.057377880588319-2.425800323486328c0,.364601135253906-.048340638130867.70050048828125-.145083416476155,1.007801055908203-.096742778346197.30729866027832-.237828559354057.571599960327148-.421166272163646.792999267578125-.183399214894052.221399307250977-.408127830326521.394500732421875-.673140310868803.519500732421875-.261998878419035.122398376464844-.559238451049168.183599472045898-.889750651195754.183599472045898s-.624738170653472-.061201095581055-.881693878173792-.183599472045898c-.256955707520319-.125-.473627549931734-.298101425170898-.648908489719361-.519500732421875-.176387977301601-.224000930786133-.310401018634366-.488300323486328-.402100626080937-.792999267578125-.091699607446571-.307300567626953-.138010676801059-.643199920654297-.138010676801059-1.007801055908203v-.828100204467773c0-.364599227905273.046311069354488-.700498580932617.138010676801059-1.00779914855957s.225712648779336-.571599960327148.402100626080937-.793001174926758c.175280939787626-.223899841308594.390968748853084-.398399353027344.644849352166602-.523399353027344.256955707520319-.125.551181678027206-.1875.881693878173792-.1875.333587304353387,0,.631810910329477.0625.893809788748513.1875.265012480542282.125.48974109597475.29949951171875.673140310868803.523399353027344.183337712809589.221401214599609.324423493817449.485700607299805.421166272163646.793001174926758.096742778345288.307300567626953.145083416476155.643199920654297.145083416476155,1.00779914855957v.828100204467773Zm-1.121490504219764-.835899353027344c0-.231800079345703-.019127148166262-.445301055908203-.058426979929209-.640600204467773-.037331765071031-.195400238037109-.096742778346197-.363300323486328-.177372010648469-.503900527954102-.08161326564823-.14069938659668-.186412817016389-.25-.315382687449528-.32819938659668-.125956268310802-.080699920654297-.279096457808919-.121099472045898-.460527606010146-.121099472045898-.178356043994427,0-.327437095939786.040399551391602-.448350193351871.121099472045898-.120974599495639.07819938659668-.217655875757373.1875-.29121236838364.32819938659668-.073556492627176.140600204467773-.125956268310802.308500289916992-.157199327051785.503900527954102-.032288594171405.19529914855957-.047356604784909.40880012512207-.047356604784909.640600204467773v.835899353027344c0,.22920036315918.015068010613504.441400527954102.047356604784909.636699676513672.031243058740984.195301055908203.083642834424609.364601135253906.157199327051785.507900238037109.073556492626267.143199920654297.170237768888001.25520133972168.29121236838364.335901260375977.120913097412085.080699920654297.271039684787866.121099472045898.452409330904629.121099472045898.178356043994427,0,.330512200146586-.040399551391602.456468468457388-.121099472045898.128969870433139-.080699920654297.232785388455341-.191400527954102.311385051981233-.332000732421875.08161326564823-.143301010131836.141024278923396-.3125.181369646116764-.507900238037109.039299831762946-.19529914855957.058426979929209-.40880012512207.058426979929209-.640600204467773v-.835899353027344Zm5.837285809517198,1.191400527954102h-3.278860611543678v-.878900527954102h3.278860611543678v.878900527954102Zm-70.295652125776542,5.38279914855957l.543124905005243,2.136699676513672.618710966408798-2.136699676513672h1.373403040840458v5.6875h-1.015706919505647v-1.683599472045898l.047356604784909-2.660200119018555-.751678472310232,2.468799591064453h-.547184042558911l-.673140310867893-2.363300323486328.047418106868463,2.55470085144043v1.683599472045898h-1.01576842159011v-5.6875h1.373464542924921Zm6.1365549509228,0h1.110481631159928v5.6875h-1.110481631159928v-3.628900527954102l-1.625315577462061,3.628900527954102h-1.10642249360717v-5.6875h1.10642249360717v3.63279914855957l1.625315577462061-3.63279914855957Zm6.077143937647634,0v5.6875h-1.109374593645043v-2.167999267578125c-.068574823812014.018299102783203-.13905621223148.035200119018555-.212612704858657.050798416137695-.07361799471073.01300048828125-.147174487336997.024801254272461-.220730979964173.035200119018555-.070481388419466.007801055908203-.140040245577438.014301300048828-.208553567304989.019500732421875-.065499719605214.005199432373047-.122942666187555.00779914855957-.173312873095711.00779914855957-.283155595361677,0-.540111302881996-.035099029541016-.770867122560048-.105499267578125-.228726250901673-.072900772094727-.424241376370446-.184900283813477-.586422372237394-.335899353027344-.160212929174122-.1510009765625-.285185164138056-.343700408935547-.373871169462291-.578100204467773-.086656436547855-.23699951171875-.129953903780006-.518199920654297-.129953903780006-.843799591064453v-1.769500732421875h1.105376958176748v1.769500732421875c0,.190099716186523.015129512697968.347700119018555.043297467232151.472700119018555.032288594171405.125.078599663525893.225198745727539.142131316438281.300798416137695.062424615397504.072900772094727.142069814353817.125.235737488493214.156200408935547.094713209568908.02869987487793.206585500613073.043001174926758.334571337699344.043001174926758.052399775684535,0,.111872291044165-.001300811767578.177310508564915-.003900527954102.065499719604304-.005199432373047.134074543416318-.011699676513672.204555931835785-.019599914550781.073556492627176-.010400772094727.147112985253443-.022100448608398.220730979964173-.035100936889648.073556492627176-.012998580932617.144037881046643-.02869987487793.212612704858657-.046899795532227v-2.636699676513672h1.109374593645043Zm4.48005781680331,3.19529914855957h-2.353869266137735v1.605501174926758h2.750865219235493v.886699676513672h-3.861346850394511v-5.6875h3.850276475250212v.894500732421875h-2.739794844091193v1.433599472045898h2.353869266137735v.867198944091797Zm5.294160904511955.711000442504883c-.019127148166262.286399841308594-.08161326564823.544200897216797-.189426419138726.773401260375977-.10479955136816.22920036315918-.246869365721977.424497604370117-.425225409716404.585897445678711-.178356043994427.161502838134766-.390968748853084.286502838134766-.636854081228194.375-.246869365721977.086002349853516-.519938619286222.128902435302734-.819207760691825.128902435302734-.338568973168549,0-.638822147921019-.061199188232422-.901866561770476-.183601379394531-.261998878419945-.125-.482668356299655-.298099517822266-.661024400294082-.519500732421875-.178356043994427-.2239990234375-.314337152019107-.492198944091797-.409050361588925-.804698944091797-.094774711653372-.3125-.142131316438281-.656200408935547-.142131316438281-1.031200408935547v-.76569938659668c0-.377599716186523.050431708991709-.722599029541016.150188089460244-1.035099029541016s.24078065939284-.580699920654297.425225409716404-.80470085144043c.183399214894052-.224000930786133.40505272611972-.397100448608398.665022035763286-.519500732421875.261998878419035-.125.556224848925922-.1875.881693878173792-.1875.314398654102661,0,.59454064734291.044200897216797.838396410941641.132801055908203.246869365721977.088499069213867.456468468457388.214799880981445.629781341553098.378900527954102.173312873094801.163999557495117.309293981119481.364599227905273.409050361588015.601598739624023.099756380468534.236900329589844.163288033381832.503900527954102.18948792122319.800701141357422h-1.102363356053502c-.011131877228763-.169200897216797-.037331765071031-.31770133972168-.078599663525893-.445301055908203-.039299831762946-.127599716186523-.098772347122576-.233098983764648-.177372010648469-.316400527954102-.076570094749513-.085899353027344-.173312873094801-.149698257446289-.29121236838364-.191398620605469-.11586992651246-.044300079345703-.25492613874394-.066400527954102-.417168636694441-.066400527954102-.170299270973373,0-.319441825003196.036500930786133-.445398093313088.109399795532227-.125956268310802.072900772094727-.230755819678961.17970085144043-.314337152019107.320301055908203-.081674767732693.140598297119141-.142131316438281.313798904418945-.181431148201227.519498825073242-.039299831762946.203100204467773-.058426979929209.434900283813477-.058426979929209.695301055908203v.77349853515625c0,.559900283813477.078599663525893.973899841308594.235798990576768,1.24220085144043.160212929175032.268198013305664.412125465795725.402299880981445.7557376098639.402299880981445.288198766261303,0,.516925017162976-.07550048828125.68519471935906-.226600646972656.167285668850127-.153598785400391.261014845073078-.400999069213867.279096457808919-.742099761962891h1.10642249360717Zm2.507070957720316-.554698944091797h-.460527606010146v2.335899353027344h-1.10642249360717v-5.6875h1.10642249360717v2.503900527954102h.271039684786956l1.50040484458259-2.503900527954102h1.278689831271549l-1.707912876457158,2.738300323486328,1.775442164837841,2.949199676513672h-1.283733002170266l-1.373403040841367-2.335899353027344Zm5.849401720091919-3.351600646972656h1.109374593645043v5.6875h-1.109374593645043v-3.628900527954102l-1.626361112892482,3.628900527954102h-1.105376958176748v-5.6875h1.105376958176748v3.63279914855957l1.626361112892482-3.63279914855957Zm4.840706038176904,0h1.110481631159928v5.6875h-1.110481631159928v-3.628900527954102l-1.625315577462061,3.628900527954102h-1.10642249360717v-5.6875h1.10642249360717v3.63279914855957l1.625315577462061-3.63279914855957Zm.499827437773092-1.480499267578125c0,.169300079345703-.031243058740984.324199676513672-.093729176222951.464899063110352-.060456548705588.140600204467773-.15012658737669.261699676513672-.268026082664619.363300323486328-.11586992651246.098899841308594-.255971674174361.177000045776367-.421227774248109.23430061340332-.165256100072838.054698944091797-.350623381658806.082099914550781-.555179313495501.082099914550781-.206585500613073,0-.392998317629463-.027400970458984-.558254417702301-.082099914550781-.165256100073748-.057300567626953-.307325914427565-.135400772094727-.425225409716404-.23430061340332-.11586992651246-.101600646972656-.204555931836694-.222700119018555-.268026082664619-.363300323486328-.060456548706497-.14069938659668-.090715574100614-.295598983764648-.090715574100614-.464899063110352h.788026204034395c0,.067699432373047.009040806367921.134099960327148.027183921188225.199199676513672.021156716942642.062599182128906.053383809029583.118499755859375.098772347122576.167999267578125.044343002661662.046899795532227.100740413814492.084699630737305.169253735542043.113300323486328.07054289050393.028600692749023.157199327051785.042999267578125.258985276296698.042999267578125.099756380468534,0,.18438324824001-.014398574829102.251912536620694-.042999267578125.071526923850797-.028600692749023.127985837087181-.066400527954102.169253735542952-.113300323486328.045388538092084-.04949951171875.076631596833067-.105400085449219.094713209568908-.167999267578125.021218219027105-.065099716186523.031243058740984-.131500244140625.031243058740984-.199199676513672h.791039806157642Zm7.70750268600932,5.082099914550781v2.085899353027344h-1.10642249360717v-5.6875h1.960932450592736c.31132354989586,0,.593495111912489.045600891113281.845407648533183.136699676513672.251912536621603.088600158691406.46655481025573.213600158691406.641835750043356.375.178356043994427.158901214599609.315444189533991.350299835205078.409111863672479.574199676513672.097788313776618.224000930786133.146128951907485.472700119018555.146128951907485.746101379394531,0,.255199432373047-.048340638130867.490900039672852-.146128951907485.707099914550781-.093667674138487.216098785400391-.230755819678052.403598785400391-.409111863672479.5625-.175280939787626.156198501586914-.389923213421753.278598785400391-.641835750043356.367099761962891-.251912536620694.088600158691406-.534084098637322.132900238037109-.845407648533183.132900238037109h-.854509956985567Zm0-.890701293945312h.854509956985567c.157199327051785,0,.293180435076465-.023399353027344.409111863672479-.07029914855957.114824391082038-.046899795532227.210583136081368-.110700607299805.287153230830882-.191400527954102.078599663525893-.080699920654297.136042610109143-.173200607299805.173312873095711-.277299880981445.039299831762946-.106800079345703.058426979929209-.217500686645508.058426979929209-.332099914550781,0-.13279914855957-.019127148166262-.256500244140625-.058426979929209-.371099472045898-.037270262986567-.114500045776367-.094713209569818-.214799880981445-.173312873095711-.300701141357422-.076570094749513-.08599853515625-.172328839748843-.15369987487793-.287153230830882-.20319938659668-.115931428596014-.049400329589844-.251912536620694-.074199676513672-.409111863672479-.074199676513672h-.854509956985567v1.82029914855957Zm7.663159683346748.550800323486328c0,.364601135253906-.048340638131776.70050048828125-.145083416477064,1.007801055908203-.097726811692155.30729866027832-.237828559354057.571598052978516-.421166272163646.792999267578125-.183399214893143.221401214599609-.408127830326521.394500732421875-.673140310868803.519500732421875-.262982911764993.122398376464844-.559238451048259.183597564697266-.889750651195754.183597564697266-.330512200146586,0-.624738170653472-.061199188232422-.881693878173792-.183597564697266-.256955707520319-.125-.473627549930825-.298099517822266-.648908489718451-.519500732421875-.176387977302511-.2239990234375-.310401018634366-.488300323486328-.402100626081847-.792999267578125-.091638105362108-.307300567626953-.138010676801059-.643199920654297-.138010676801059-1.007801055908203v-.828100204467773c0-.364599227905273.046372571438951-.700498580932617.138010676801059-1.00779914855957.091699607447481-.307300567626953.225712648779336-.571599960327148.402100626081847-.793001174926758.175280939787626-.223899841308594.390968748852174-.398399353027344.644849352165693-.523399353027344.256955707520319-.125.551181678027206-.1875.881693878173792-.1875.333587304353387,0,.630826876983519.0625.893809788748513.1875.265012480542282.125.48974109597566.29949951171875.673140310868803.523399353027344.183337712809589.221401214599609.323439460471491.485700607299805.421166272163646.793001174926758.096742778345288.307300567626953.145083416477064.643199920654297.145083416477064,1.00779914855957v.828100204467773Zm-1.121490504220674-.835899353027344c0-.231800079345703-.019127148166262-.445301055908203-.05947251535963-.640600204467773-.0362862296397-.195400238037109-.095697242915776-.363300323486328-.176326475218048-.503900527954102-.08161326564823-.14069938659668-.18641281701548-.25-.315382687449528-.32819938659668-.125956268309892-.080699920654297-.279096457808919-.121099472045898-.460527606010146-.121099472045898-.178356043994427,0-.327437095939786.040399551391602-.448350193350961.121099472045898-.120974599495639.07819938659668-.217655875757373.1875-.291212368384549.32819938659668-.073556492626267.140600204467773-.125956268310802.308500289916992-.157199327051785.503900527954102-.032288594171405.19529914855957-.047356604784909.40880012512207-.047356604784909.640600204467773v.835899353027344c0,.22920036315918.015068010613504.441400527954102.047356604784909.636699676513672.031243058740984.195301055908203.083642834425518.364601135253906.157199327051785.507900238037109.073556492627176.143199920654297.17023776888891.25520133972168.291212368384549.335899353027344.120913097411176.080699920654297.271039684786956.121101379394531.45240933090372.121101379394531.178356043994427,0,.330512200147496-.040401458740234.456468468457388-.121101379394531.128969870434048-.080698013305664.232785388455341-.191398620605469.311385051981233-.331998825073242.08161326564823-.143301010131836.141024278923396-.3125.180324110686342-.507900238037109.040345367193368-.19529914855957.05947251535963-.40880012512207.05947251535963-.640600204467773v-.835899353027344Zm5.943130896314869,1.480499267578125c-.018143114820305.286399841308594-.080629232302272.544200897216797-.188442385792769.773401260375977-.10479955136725.22920036315918-.246869365721977.424497604370117-.425225409716404.585897445678711-.178356043994427.161502838134766-.390968748852174.286502838134766-.637838114574151.375-.24588533237602.086002349853516-.518954585939355.128902435302734-.818223727345867.128902435302734-.338568973168549,0-.638822147920109-.061199188232422-.901866561770476-.183601379394531-.261937376334572-.125-.482668356298745-.298099517822266-.661024400293172-.519500732421875-.178294541910873-.2239990234375-.314337152019107-.492198944091797-.409050361588925-.804698944091797-.094774711653372-.3125-.142131316438281-.656200408935547-.142131316438281-1.031200408935547v-.76569938659668c0-.377599716186523.050431708991709-.722599029541016.150188089460244-1.035099029541016s.24078065939193-.580699920654297.424179874285983-.80470085144043c.184444750323564-.224000930786133.406098261550142-.397100448608398.666067571192798-.519500732421875.261998878419945-.125.556224848925922-.1875.881693878173792-.1875.31439865410357,0,.593495111912489.044200897216797.838396410942551.132801055908203.245823830291556.088499069213867.456468468457388.214799880981445.629781341552189.378900527954102.173312873095711.163999557495117.309355483203944.364599227905273.409111863673388.601598739624023.099756380468534.236900329589844.162180995866038.503900527954102.188380883708305.800701141357422h-1.10131782062399c-.011131877227854-.169200897216797-.037331765070121-.31770133972168-.078599663525893-.445301055908203-.040345367192458-.127599716186523-.098772347121667-.233098983764648-.177372010647559-.316400527954102-.076570094749513-.085899353027344-.173312873095711-.149698257446289-.291212368384549-.191398620605469-.11586992651155-.044300079345703-.25492613874394-.066400527954102-.417168636694441-.066400527954102-.171283304318422,0-.319441825002286.036500930786133-.445398093313088.109399795532227-.125956268309892.072900772094727-.230755819678052.17970085144043-.314337152019107.320301055908203-.08161326564823.140598297119141-.142131316438281.313798904418945-.181431148201227.519498825073242-.039238329678483.203100204467773-.059411013275167.434900283813477-.059411013275167.695301055908203v.77349853515625c0,.559900283813477.07958369687185.973899841308594.236783023923635,1.24220085144043.160212929174122.268198013305664.412125465795725.402299880981445.75573760986299.402299880981445.288198766261303,0,.516925017163885-.07550048828125.68519471935997-.226600646972656.167285668849217-.153598785400391.261014845073078-.400999069213867.279157959893382-.742099761962891h1.105376958175839Zm5.074536962062666-3.011798858642578h-1.767446893901251v4.792999267578125h-1.110420129075465v-4.792999267578125h-1.7432150727509v-.894500732421875h4.621082095727616v.894500732421875Z" fill="#fff"/>
    </g>
  </g>
</svg>