<?xml version="1.0" encoding="UTF-8"?>
<svg id="uuid-c900ec2a-8ad4-45fc-9073-e5eb5ba4bb4f" data-name="Layer 1" xmlns="http://www.w3.org/2000/svg" width="101" height="101" xmlns:xlink="http://www.w3.org/1999/xlink" viewBox="0 0 101 101">
  <defs>
    <clipPath id="uuid-35a4ef4e-3fb2-40e3-ad7b-aef53ac721e1">
      <rect width="101" height="101" fill="none"/>
    </clipPath>
  </defs>
  <g clip-path="url(#uuid-35a4ef4e-3fb2-40e3-ad7b-aef53ac721e1)" fill="none">
    <g>
      <path d="m101,0H0v101h101V0Z" fill="#566e78"/>
      <path d="m77.1209716796875,66.391700744628906l-12.0279541015625-6.886402130126953v-13.772697448730469c0-.353202819824219-.177001953125-.529701232910156-.35400390625-.706302642822266l-12.38201904296875-7.062896728515625c-.177001953125-.176601409912109-.52996826171875-.176601409912109-.88397216796875,0l-12.38201904296875,7.062896728515625c-.35400390625.176601409912109-.35400390625.353099822998047-.35400390625.706302642822266v13.772697448730469l-12.02801513671875,6.886402130126953c-.177001953125.176597595214844-.35400390625.353096008300781-.35400390625.706298828125v14.302398681640625c0,.353202819824219.177001953125.529701232910156.35400390625.706298828125l12.38201904296875,7.239501953125c.177001953125,0,.177001953125.176597595214844.35400390625.176597595214844s.35400390625,0,.35400390625-.176597595214844l12.02801513671875-6.886299133300781,12.0279541015625,6.886299133300781c.177001953125,0,.177001953125.176597595214844.35302734375.176597595214844.177001953125,0,.35400390625,0,.35400390625-.176597595214844l12.3819580078125-7.239501953125c.177001953125-.176597595214844.35400390625-.353096008300781.35400390625-.706298828125v-14.302398681640625c.177001953125-.176597595214844,0-.529701232910156-.177001953125-.706298828125Zm-26.178955078125,13.596099853515625l-9.905029296875-5.650299072265625,9.905029296875-5.650398254394531v11.300697326660156Zm11.67401123046875-19.952800750732422l-9.905029296875,5.650402069091797v-11.477302551269531l9.905029296875,5.826900482177734Zm-11.67401123046875,5.650402069091797l-9.905029296875-5.650402069091797,9.905029296875-5.650299072265625v11.300701141357422Zm2.47698974609375,1.41259765625l10.78900146484375-6.180099487304688,10.78997802734375,6.180099487304688-10.78997802734375,6.180000305175781-10.78900146484375-6.180000305175781Zm9.90496826171875-8.475498199462891l-9.90496826171875-5.650402069091797,9.90496826171875-5.650299072265625v11.300701141357422Zm-13.2659912109375-5.826999664306641l-9.906005859375,5.650398254394531v-11.477298736572266l9.906005859375,5.826900482177734Zm-11.49798583984375,34.431900024414062l-10.78900146484375-6.180099487304688v-12.360198974609375l10.78900146484375,6.180099487304688v12.360198974609375Zm1.59197998046875,0v-11.477302551269531l9.906005859375,5.650299072265625-9.906005859375,5.827003479003906Zm35.73101806640625-6.180099487304688l-10.78997802734375,6.180099487304688v-12.360198974609375l10.78997802734375-6.180099487304688v12.360198974609375Z" fill="#fff" fill-rule="evenodd"/>
      <path d="m17.10400390625,13.596099853515625c0-3.178299903869629-1.41497802734375-5.473790168762207-4.9530029296875-5.473790168762207s-4.9530029296875,1.942290306091309-4.9530029296875,5.120590209960938v3.001799583435059c0,3.354900360107422,1.239013671875,4.944000244140625,3.71502685546875,4.944000244140625,1.41497802734375,0,2.2989501953125-.706199645996094,2.8299560546875-1.589099884033203v4.414300918579102c0,1.236000061035156-.531005859375,2.118898391723633-1.76898193359375,2.118898391723633s-1.76898193359375-.706298828125-1.76898193359375-1.942298889160156v-1.412599563598633h-3.18402099609375v1.059398651123047c0,3.001800537109375,1.06201171875,5.120700836181641,4.7760009765625,5.120700836181641,3.53802490234375,0,4.9530029296875-2.295499801635742,4.9530029296875-5.473800659179688v-9.888099670410156h.35400390625Zm-3.36102294921875,3.178300857543945c0,1.059499740600586-.531005859375,1.76569938659668-1.59197998046875,1.76569938659668-1.23797607421875,0-1.59197998046875-.706199645996094-1.59197998046875-1.942300796508789v-3.531399726867676c0-1.23599910736084.531005859375-1.942299842834473,1.59197998046875-1.942299842834473s1.59197998046875.706300735473633,1.59197998046875,1.942299842834473v3.708001136779785Z" fill="#fff" fill-rule="evenodd"/>
      <path d="m25.47198486328125,8.475589752197266h-1.239013671875v8.475509643554688h1.239013671875v-8.475509643554688Z" fill="#fff"/>
      <path d="m27.06298828125,11.653900146484375v5.297199249267578h-1.23797607421875v-8.475509643554688h1.41497802734375l1.59197998046875,4.767510414123535v-4.767510414123535h1.238037109375v8.475509643554688h-1.238037109375l-1.76898193359375-5.297199249267578Z" fill="#fff" fill-rule="evenodd"/>
      <path d="m34.84600830078125,10.770999908447266v3.884699821472168c0,1.236000061035156-.531005859375,2.29539966583252-2.12298583984375,2.29539966583252h-2.12200927734375v-8.475509643554688h2.12200927734375c1.59197998046875,0,2.12298583984375.88286018371582,2.12298583984375,2.29541015625Zm-2.29998779296875,4.944100379943848c.531005859375,0,.885009765625-.35319995880127.885009765625-.882900238037109v-4.414299964904785c0-.529729843139648-.177001953125-.882869720458984-.885009765625-.882869720458984h-.530029296875v6.180069923400879h.530029296875Z" fill="#fff" fill-rule="evenodd"/>
      <path d="m39.4439697265625,8.475589752197266v6.533209800720215c0,1.412600517272949-.52996826171875,2.118901252746582-2.1219482421875,2.118901252746582-1.592041015625,0-2.123046875-.882900238037109-2.123046875-2.118901252746582v-6.533209800720215h1.4150390625v6.709810256958008c0,.52970027923584.177001953125.88279914855957.7080078125.88279914855957.52996826171875,0,.70697021484375-.35309886932373.70697021484375-.88279914855957v-6.709810256958008h1.41497802734375Z" fill="#fff" fill-rule="evenodd"/>
      <path d="m39.79901123046875,15.185400009155273v-1.059499740600586h1.23797607421875v1.236000061035156c0,.529799461364746.177001953125.706298828125.7080078125.706298828125.35302734375,0,.70703125-.35309886932373.70703125-.706298828125v-.353100776672363c0-.529699325561523-.177001953125-.882899284362793-.70703125-1.23599910736084l-.885009765625-.882900238037109c-.70697021484375-.882800102233887-1.23797607421875-1.236000061035156-1.23797607421875-2.295400619506836v-.176599502563477c0-1.059450149536133.7080078125-1.942310333251953,1.94598388671875-1.942310333251953,1.41497802734375,0,1.94598388671875.706290245056152,1.94598388671875,1.942310333251953v.706299781799316h-.88494873046875v-.706299781799316c0-.529729843139648-.177001953125-.706299781799316-.70703125-.706299781799316-.35400390625,0-.7080078125.176569938659668-.7080078125.706299781799316v.176599502563477c0,.52970027923584.35400390625.706300735473633.7080078125,1.05940055847168l.884033203125.882900238037109c.70697021484375.706299781799316,1.06097412109375,1.236000061035156,1.06097412109375,2.118899345397949v.353099822998047c0,1.236001014709473-.70703125,1.942299842834473-2.12200927734375,1.942299842834473s-1.94598388671875-.529699325561523-1.94598388671875-1.76569938659668Z" fill="#fff" fill-rule="evenodd"/>
      <path d="m43.86602783203125,8.475589752197266h3.8919677734375v1.236010551452637h-1.239013671875v7.239499092102051h-1.41497802734375v-7.239499092102051h-1.23797607421875v-1.236010551452637Z" fill="#fff" fill-rule="evenodd"/>
      <path d="m49.5269775390625,13.066499710083008v3.884599685668945h-1.41497802734375v-8.475509643554688h2.12298583984375c1.4150390625,0,1.946044921875.706290245056152,1.946044921875,1.942310333251953v1.059399604797363c0,.882900238037109-.35400390625,1.412600517272949-1.06201171875,1.589200019836426l1.41497802734375,3.884599685668945h-1.41497802734375l-1.592041015625-3.884599685668945Zm0-3.354899406433105v2.648599624633789h.531005859375c.531005859375,0,.7080078125-.176599502563477.7080078125-.706299781799316v-1.412600517272949c0-.529699325561523-.177001953125-.706269264221191-.7080078125-.706269264221191h-.531005859375v.176569938659668Z" fill="#fff" fill-rule="evenodd"/>
      <path d="m55.18798828125,13.772800445556641v3.178298950195312h-1.41497802734375v-3.178298950195312l-1.59197998046875-5.297210693359375h1.41497802734375l1.06097412109375,3.178310394287109.884033203125-3.178310394287109h1.239013671875l-1.592041015625,5.297210693359375Z" fill="#fff" fill-rule="evenodd"/>
      <path d="m57.66302490234375,15.715100288391113l-.70703125,2.118899345397949h-.885009765625l.177001953125-2.118899345397949h1.4150390625Z" fill="#fff" fill-rule="evenodd"/>
      <path d="m60.31597900390625,8.475589752197266h-1.41497802734375v8.475509643554688h1.41497802734375v-8.475509643554688Z" fill="#fff"/>
      <path d="m62.08599853515625,11.653900146484375v5.297199249267578h-1.23797607421875v-8.475509643554688h1.41497802734375l1.59197998046875,4.767510414123535v-4.767510414123535h1.238037109375v8.475509643554688h-1.238037109375l-1.76898193359375-5.297199249267578Z" fill="#fff" fill-rule="evenodd"/>
      <path d="m66.68402099609375,11.653900146484375v5.297199249267578h-1.06103515625v-8.475509643554688h1.238037109375l1.59197998046875,4.767510414123535v-4.767510414123535h1.06097412109375v8.475509643554688h-1.23797607421875l-1.59197998046875-5.297199249267578Z" fill="#fff" fill-rule="evenodd"/>
      <path d="m70.2230224609375,14.832200050354004v-4.061200141906738c0-1.41254997253418.70697021484375-2.29541015625,2.1219482421875-2.29541015625,1.4150390625,0,2.123046875.88286018371582,2.123046875,2.29541015625v4.061200141906738c0,1.412600517272949-.7080078125,2.295500755310059-2.123046875,2.295500755310059-1.41497802734375,0-2.1219482421875-.882900238037109-2.1219482421875-2.295500755310059Zm2.8299560546875.176599502563477v-4.414299964904785c0-.529799461364746-.177001953125-.882899284362793-.7080078125-.882899284362793-.52996826171875,0-.70697021484375.353099822998047-.70697021484375.882899284362793v4.590900421142578c0,.52970027923584.177001953125.88279914855957.70697021484375.88279914855957.531005859375-.176499366760254.7080078125-.529699325561523.7080078125-1.059399604797363Z" fill="#fff" fill-rule="evenodd"/>
      <path d="m79.41998291015625,8.475589752197266l-1.76800537109375,8.475509643554688h-1.59197998046875l-1.59197998046875-8.475509643554688h1.41497802734375l1.06097412109375,5.826910018920898,1.06103515625-5.826910018920898h1.41497802734375Z" fill="#fff" fill-rule="evenodd"/>
      <path d="m78.5360107421875,16.951099395751953l1.59197998046875-8.475509643554688h1.59197998046875l1.592041015625,8.475509643554688h-1.4150390625l-.177001953125-1.589199066162109h-1.59197998046875l-.35400390625,1.589199066162109h-1.23797607421875Zm1.76898193359375-2.648599624633789h1.238037109375l-.530029296875-3.354899406433105-.7080078125,3.354899406433105Z" fill="#fff" fill-rule="evenodd"/>
      <path d="m82.781005859375,8.475589752197266h3.7149658203125v1.236010551452637h-1.06195068359375v7.239499092102051h-1.4150390625v-7.239499092102051h-1.23797607421875v-1.236010551452637Z" fill="#fff" fill-rule="evenodd"/>
      <path d="m88.2650146484375,8.475589752197266h-1.239013671875v8.475509643554688h1.239013671875v-8.475509643554688Z" fill="#fff"/>
      <path d="m88.97198486328125,14.832200050354004v-4.061200141906738c0-1.41254997253418.70703125-2.29541015625,2.12200927734375-2.29541015625s2.12298583984375.88286018371582,2.12298583984375,2.29541015625v4.061200141906738c0,1.412600517272949-.7080078125,2.295500755310059-2.12298583984375,2.295500755310059-1.59197998046875,0-2.12200927734375-.882900238037109-2.12200927734375-2.295500755310059Zm2.83001708984375.176599502563477v-4.414299964904785c0-.529799461364746-.177001953125-.882899284362793-.7080078125-.882899284362793-.52996826171875,0-.70697021484375.353099822998047-.70697021484375.882899284362793v4.590900421142578c0,.52970027923584.177001953125.88279914855957.70697021484375.88279914855957.35400390625-.176499366760254.7080078125-.529699325561523.7080078125-1.059399604797363Z" fill="#fff" fill-rule="evenodd"/>
      <path d="m94.80902099609375,11.653900146484375v5.297199249267578h-1.238037109375v-8.475509643554688h1.4150390625l1.59197998046875,4.767510414123535v-4.767510414123535h1.239013671875v8.475509643554688h-1.239013671875l-1.76898193359375-5.297199249267578Z" fill="#fff" fill-rule="evenodd"/>
      <path d="m23.7020263671875,28.958000183105469l1.59197998046875-8.475500106811523h1.59197998046875l1.592041015625,8.475500106811523h-1.4150390625l-.177001953125-1.589200973510742h-1.59197998046875l-.177001953125,1.589200973510742h-1.41497802734375Zm1.76898193359375-2.648599624633789h1.06097412109375l-.52996826171875-3.354900360107422-.531005859375,3.354900360107422Z" fill="#fff" fill-rule="evenodd"/>
      <path d="m30.07000732421875,23.660800933837891v5.297199249267578h-1.238037109375v-8.475500106811523h1.4150390625l1.59197998046875,4.944000244140625v-4.944000244140625h1.238037109375v8.475500106811523h-1.238037109375l-1.76898193359375-5.297199249267578Z" fill="#fff" fill-rule="evenodd"/>
      <path d="m37.676025390625,22.777900695800781v3.884698867797852c0,1.236000061035156-.531005859375,2.295400619506836-2.123046875,2.295400619506836h-2.1219482421875v-8.475500106811523h2.1219482421875c1.592041015625,0,2.123046875,1.05940055847168,2.123046875,2.295400619506836Zm-2.123046875,5.120698928833008c.531005859375,0,.885009765625-.353199005126953.885009765625-.882900238037109v-4.414299011230469c0-.529800415039062-.177001953125-.882900238037109-.885009765625-.882900238037109h-.52996826171875v6.180099487304688h.52996826171875Z" fill="#fff" fill-rule="evenodd"/>
      <path d="m40.6829833984375,20.482500076293945h-1.41497802734375v8.475500106811523h1.41497802734375v-8.475500106811523Z" fill="#fff"/>
      <path d="m42.2750244140625,23.660800933837891v5.297199249267578h-1.06103515625v-8.475500106811523h1.238037109375l1.59197998046875,4.944000244140625v-4.944000244140625h1.06097412109375v8.475500106811523h-1.06097412109375l-1.76898193359375-5.297199249267578Z" fill="#fff" fill-rule="evenodd"/>
      <path d="m45.81201171875,20.482500076293945h3.1839599609375v1.236000061035156h-1.7679443359375v2.472000122070312h1.23797607421875v1.059499740600586h-1.23797607421875v3.708000183105469h-1.416015625v-8.475500106811523Z" fill="#fff" fill-rule="evenodd"/>
      <path d="m50.7659912109375,25.073400497436523v3.884599685668945h-1.41497802734375v-8.475500106811523h2.12200927734375c1.41497802734375,0,1.94598388671875.706300735473633,1.94598388671875,1.942300796508789v1.059398651123047c0,.882900238037109-.35400390625,1.412599563598633-1.06103515625,1.589200973510742l1.4150390625,3.884599685668945h-1.4150390625l-1.59197998046875-3.884599685668945Zm0-3.354900360107422v2.648599624633789h.530029296875c.531005859375,0,.7080078125-.176599502563477.7080078125-.706298828125v-1.236000061035156c0-.529701232910156-.177001953125-.706300735473633-.7080078125-.706300735473633h-.530029296875Z" fill="#fff" fill-rule="evenodd"/>
      <path d="m53.59600830078125,28.958000183105469l1.59197998046875-8.475500106811523h1.592041015625l1.59197998046875,8.475500106811523h-1.416015625l-.17596435546875-1.589200973510742h-1.592041015625l-.177001953125,1.589200973510742h-1.41497802734375Zm1.94500732421875-2.648599624633789h1.239013671875l-.531005859375-3.354900360107422-.7080078125,3.354900360107422Z" fill="#fff" fill-rule="evenodd"/>
      <path d="m58.5479736328125,27.015800476074219v-1.059499740600586h1.238037109375v1.236000061035156c0,.52979850769043.177001953125.706298828125.7080078125.706298828125.35296630859375,0,.70697021484375-.353099822998047.70697021484375-.706298828125v-.35310173034668c0-.529699325561523-.177001953125-.882898330688477-.531005859375-1.235998153686523l-.88397216796875-.882900238037109c-.70703125-.882900238037109-1.238037109375-1.236000061035156-1.238037109375-2.295499801635742v-.35310173034668c0-1.059398651123047.70703125-1.942298889160156,1.946044921875-1.942298889160156,1.41497802734375,0,1.94500732421875.706298828125,1.94500732421875,1.942298889160156v.882900238037109h-1.238037109375v-.706298828125c0-.529701232910156-.177001953125-.706300735473633-.70697021484375-.706300735473633-.35400390625,0-.7080078125.176599502563477-.7080078125.706300735473633v.17650032043457c0,.52979850769043.35400390625.706298828125.7080078125,1.059499740600586l.88397216796875.882900238037109c.70703125.706298828125,1.06103515625,1.236000061035156,1.06103515625,2.118799209594727v.353199005126953c0,1.236000061035156-.70703125,1.942300796508789-2.12200927734375,1.942300796508789-1.4150390625,0-1.76904296875-.529699325561523-1.76904296875-1.76569938659668Z" fill="#fff" fill-rule="evenodd"/>
      <path d="m62.61602783203125,20.482500076293945h3.7149658203125v1.236000061035156h-1.06201171875v7.239500045776367h-1.41497802734375v-7.239500045776367h-1.23797607421875v-1.236000061035156Z" fill="#fff" fill-rule="evenodd"/>
      <path d="m68.2760009765625,25.073400497436523v3.884599685668945h-1.41497802734375v-8.475500106811523h2.12298583984375c1.41497802734375,0,1.94598388671875.706300735473633,1.94598388671875,1.942300796508789v1.059398651123047c0,.882900238037109-.35400390625,1.412599563598633-1.06201171875,1.589200973510742l1.4150390625,3.884599685668945h-1.4150390625l-1.59197998046875-3.884599685668945Zm0-3.354900360107422v2.648599624633789h.531005859375c.531005859375,0,.7080078125-.176599502563477.7080078125-.706298828125v-1.236000061035156c0-.529701232910156-.177001953125-.706300735473633-.7080078125-.706300735473633h-.531005859375Z" fill="#fff" fill-rule="evenodd"/>
      <path d="m75.35101318359375,20.482500076293945v6.356599807739258c0,1.236000061035156-.530029296875,2.118900299072266-1.94500732421875,2.118900299072266s-2.12298583984375-.882900238037109-2.12298583984375-2.118900299072266v-6.356599807739258h1.41497802734375v6.533199310302734c0,.529701232910156.177001953125.882900238037109.7080078125.882900238037109.52996826171875,0,.70697021484375-.353199005126953.70697021484375-.882900238037109v-6.533199310302734h1.238037109375Z" fill="#fff" fill-rule="evenodd"/>
      <path d="m75.70599365234375,26.662599563598633v-4.061199188232422c0-1.412599563598633.7080078125-2.295400619506836,2.12298583984375-2.295400619506836,1.592041015625,0,2.12200927734375.882801055908203,2.12200927734375,2.118801116943359v1.059499740600586h-1.41497802734375v-1.059499740600586c0-.529701232910156-.177001953125-.882801055908203-.70703125-.882801055908203-.531005859375,0-.7080078125.353099822998047-.7080078125.882801055908203v4.590999603271484c0,.529699325561523.177001953125.88279914855957.7080078125.88279914855957.530029296875,0,.70703125-.353099822998047.70703125-.88279914855957v-1.589200973510742h1.41497802734375v1.412599563598633c0,1.236000061035156-.52996826171875,2.118900299072266-2.12200927734375,2.118900299072266-1.41497802734375,0-2.12298583984375-.882900238037109-2.12298583984375-2.295499801635742Z" fill="#fff" fill-rule="evenodd"/>
      <path d="m80.12799072265625,20.482500076293945h3.8909912109375v1.236000061035156h-1.23797607421875v7.239500045776367h-1.41497802734375v-7.239500045776367h-1.238037109375v-1.236000061035156Z" fill="#fff" fill-rule="evenodd"/>
      <path d="m88.4420166015625,20.482500076293945v6.356599807739258c0,1.236000061035156-.531005859375,2.118900299072266-2.123046875,2.118900299072266-1.59197998046875,0-2.12298583984375-.882900238037109-2.12298583984375-2.118900299072266v-6.356599807739258h1.4150390625v6.533199310302734c0,.529701232910156.177001953125.882900238037109.70794677734375.882900238037109.531005859375,0,.70703125-.353199005126953.70703125-.882900238037109v-6.533199310302734h1.416015625Z" fill="#fff" fill-rule="evenodd"/>
      <path d="m90.38702392578125,25.073400497436523v3.884599685668945h-1.4150390625v-8.475500106811523h2.12200927734375c1.41497802734375,0,1.94598388671875.706300735473633,1.94598388671875,1.942300796508789v1.059398651123047c0,.882900238037109-.35400390625,1.412599563598633-1.06097412109375,1.589200973510742l1.41497802734375,3.884599685668945h-1.41497802734375l-1.59197998046875-3.884599685668945Zm0-3.354900360107422v2.648599624633789h.52996826171875c.531005859375,0,.7080078125-.176599502563477.7080078125-.706298828125v-1.236000061035156c0-.529701232910156-.177001953125-.706300735473633-.7080078125-.706300735473633h-.52996826171875Z" fill="#fff" fill-rule="evenodd"/>
      <path d="m93.39398193359375,20.482500076293945h3.36004638671875v1.236000061035156h-1.94500732421875v2.472000122070312h1.41497802734375v1.059499740600586h-1.41497802734375v2.648599624633789h1.94500732421875v1.05940055847168h-3.36004638671875v-8.475500106811523Z" fill="#fff" fill-rule="evenodd"/>
      <rect x="20" y="5" width="78" height="33" fill="#566e78"/>
      <path d="m24.14501953125,9.3125h1.1009521484375v5.6875h-1.1009521484375v-3.628899574279785l-1.614013671875,3.628899574279785h-1.09698486328125v-5.6875h1.09698486328125v3.632800102233887l1.614013671875-3.632800102233887Zm5.92498779296875,5.6875h-1.08599853515625v-2.464799880981445h-1.6090087890625v2.464799880981445h-1.09002685546875v-5.6875h1.09002685546875v2.331999778747559h1.6090087890625v-2.331999778747559h1.08599853515625v5.6875Zm4.90997314453125,1.398399353027344h-.94500732421875v-1.398399353027344h-2.1519775390625v1.398399353027344h-.926025390625l-.1719970703125-2.28119945526123h.21099853515625c.12005615234375-.0625.2239990234375-.149800300598145.31304931640625-.261699676513672.08795166015625-.112000465393066.1619873046875-.263100624084473.22198486328125-.453200340270996.05999755859375-.192699432373047.10797119140625-.430899620056152.14501953125-.714799880981445.03594970703125-.286499977111816.06195068359375-.63539981842041.0780029296875-1.046899795532227l.15594482421875-2.328100204467773h2.80902099609375v4.804699897766113h.41802978515625l-.15704345703125,2.28119945526123Zm-2.125-4.75779914855957c-.01300048828125.304699897766113-.031982421875.58080005645752-.0579833984375.82819938659668-.02398681640625.247300148010254-.05499267578125.472599983215332-.093994140625.675700187683105-.03900146484375.200600624084473-.08502197265625.381500244140625-.13702392578125.543000221252441-.052001953125.158900260925293-.1090087890625.30210018157959-.17095947265625.429699897766113h1.22998046875v-3.91409969329834h-.676025390625l-.093994140625,1.4375Zm4.63702392578125-.375l.3709716796875,1.050799369812012,1.18804931640625-3.003899574279785h1.1949462890625l-2.02294921875,4.609399795532227c-.0679931640625.153599739074707-.14703369140625.300800323486328-.239013671875.441400527954102-.0880126953125.140599250793457-.19598388671875.264299392700195-.32403564453125.371099472045898-.125.10669994354248-.27197265625.191400527954102-.44097900390625.253900527954102-.16998291015625.0625-.3690185546875.09369945526123-.5980224609375.09369945526123-.18499755859375,0-.3489990234375-.015600204467773-.491943359375-.046799659729004-.14105224609375-.02869987487793-.2550048828125-.054699897766113-.34405517578125-.078200340270996l.07000732421875-.859299659729004c.03399658203125.01039981842041.07501220703125.022099494934082.12200927734375.035099983215332.04901123046875.01039981842041.10003662109375.02079963684082.15203857421875.031299591064453.052001953125.010400772094727.10498046875.019500732421875.15997314453125.027299880981445.05499267578125.005200386047363.10699462890625.007800102233887.156005859375.007800102233887.125,0,.2349853515625-.012999534606934.3280029296875-.038999557495117.093994140625-.026100158691406.17498779296875-.0625.24298095703125-.109399795532227.0670166015625-.046900749206543.12298583984375-.102900505065918.16802978515625-.168000221252441.04595947265625-.067700386047363.083984375-.143199920654297.11297607421875-.22659969329834l.1090087890625-.242100715637207-1.9840087890625-4.10159969329834h1.18701171875l.88299560546875,1.953100204467773Zm7.18798828125,1.95319938659668c-.01898193359375.28640079498291-.08099365234375.54419994354248-.18798828125.77340030670166-.10400390625.22920036315918-.2449951171875.424500465393066-.4219970703125.58590030670166-.177001953125.161499977111816-.38800048828125.286499977111816-.63201904296875.375-.2449951171875.085999488830566-.5159912109375.128899574279785-.81298828125.128899574279785-.33599853515625,0-.63397216796875-.061200141906738-.89501953125-.183599472045898-.260009765625-.125-.47900390625-.298100471496582-.656005859375-.519500732421875-.177001953125-.223999977111816-.31195068359375-.492199897766113-.40594482421875-.804699897766113-.09405517578125-.3125-.14105224609375-.65619945526123-.14105224609375-1.03119945526123v-.765700340270996c0-.377599716186523.050048828125-.722599983215332.1490478515625-1.035099983215332s.23895263671875-.580699920654297.4219970703125-.804699897766113c.1820068359375-.223959922790527.4019775390625-.397139549255371.65997314453125-.519530296325684.260009765625-.125.552001953125-.1875.875-.1875.31201171875,0,.59002685546875.044270515441895.83203125.132810592651367.2449951171875.088540077209473.4530029296875.214839935302734.625.378910064697266.1719970703125.164059638977051.30694580078125.364609718322754.40594482421875.601609230041504.0989990234375.236900329589844.16204833984375.503900527954102.18804931640625.800700187683105h-1.093994140625c-.01104736328125-.16919994354248-.03704833984375-.317699432373047-.0780029296875-.445300102233887-.03900146484375-.127599716186523-.0980224609375-.233099937438965-.176025390625-.316399574279785-.07598876953125-.08590030670166-.1719970703125-.149700164794922-.28900146484375-.191400527954102-.114990234375-.044299125671387-.25299072265625-.066399574279785-.41400146484375-.066399574279785-.16900634765625,0-.3170166015625.036499977111816-.4420166015625.109399795532227s-.22900390625.179699897766113-.31195068359375.320300102233887c-.0810546875.140600204467773-.14105224609375.313799858093262-.1800537109375.519499778747559-.03900146484375.203100204467773-.0579833984375.434900283813477-.0579833984375.695300102233887v.773500442504883c0,.55989933013916.0780029296875.973899841308594.2340087890625,1.242199897766113.15899658203125.268199920654297.40899658203125.402299880981445.75.402299880981445.2860107421875,0,.51300048828125-.075499534606934.67999267578125-.22659969329834.166015625-.153600692749023.259033203125-.401000022888184.2769775390625-.742100715637207h1.0980224609375Zm5.0350341796875-3.011799812316895h-1.7540283203125v4.793000221252441h-1.10198974609375v-4.793000221252441h-1.72998046875v-.894499778747559h4.58599853515625v.894499778747559Zm1.79296875,2.707099914550781v2.08590030670166h-1.0980224609375v-5.6875h1.94500732421875c.30999755859375,0,.59002685546875.045570373535156.84002685546875.136719703674316.25.088540077209473.4630126953125.213540077209473.636962890625.375.177001953125.15885066986084.31304931640625.35028076171875.406005859375.574180603027344.0970458984375.223999977111816.14501953125.472700119018555.14501953125.746099472045898,0,.255200386047363-.0479736328125.490900039672852-.14501953125.707099914550781-.09295654296875.216100692749023-.22900390625.403600692749023-.406005859375.5625-.1739501953125.156200408935547-.386962890625.278600692749023-.636962890625.367100715637207-.25.08859920501709-.530029296875.132899284362793-.84002685546875.132899284362793h-.84698486328125Zm0-.89069938659668h.84698486328125c.15704345703125,0,.2919921875-.02340030670166.40704345703125-.070300102233887.11395263671875-.046899795532227.208984375-.110700607299805.28497314453125-.191400527954102.0780029296875-.080699920654297.135009765625-.173199653625488.1719970703125-.277299880981445.03900146484375-.106800079345703.0579833984375-.217499732971191.0579833984375-.332099914550781,0-.132800102233887-.01898193359375-.256500244140625-.0579833984375-.371099472045898-.0369873046875-.114500045776367-.093994140625-.214800834655762-.1719970703125-.300700187683105-.07598876953125-.086000442504883-.1710205078125-.15369987487793-.28497314453125-.203200340270996-.11505126953125-.049400329589844-.25-.074199676513672-.40704345703125-.074199676513672h-.84698486328125v1.820300102233887Zm6.26898193359375-2.71090030670166h1.10205078125v5.6875h-1.10205078125v-3.628899574279785l-1.61297607421875,3.628899574279785h-1.0980224609375v-5.6875h1.0980224609375v3.632800102233887l1.61297607421875-3.632800102233887Zm4.968994140625,4.5h-1.70697021484375l-.33599853515625,1.1875h-1.156005859375l1.86297607421875-5.6875h.99603271484375l1.8280029296875,5.6875h-1.156005859375l-.33203125-1.1875Zm-1.43695068359375-.933600425720215h1.178955078125l-.58197021484375-2.09369945526123-.59698486328125,2.09369945526123Zm7.24200439453125-3.566399574279785v5.6875h-1.10205078125v-4.796899795532227h-1.17596435546875l-.01898193359375,2.085999488830566c-.008056640625.497400283813477-.04705810546875.917900085449219-.11700439453125,1.261700630187988-.06805419921875.34369945526123-.16705322265625.623700141906738-.2969970703125.839799880981445-.1300048828125.213600158691406-.29302978515625.368499755859375-.488037109375.464900016784668-.19598388671875.09630012512207-.42401123046875.144499778747559-.6839599609375.144499778747559h-.27301025390625v-.882800102233887h.156005859375c.126953125-.012999534606934.22900390625-.050800323486328.303955078125-.113300323486328.07904052734375-.065099716186523.13800048828125-.166699409484863.17999267578125-.304699897766113.04400634765625-.140599250793457.07403564453125-.324199676513672.09002685546875-.550799369812012.0159912109375-.229100227355957.0260009765625-.515600204467773.031005859375-.85930061340332l.02398681640625-2.97659969329834h3.37103271484375Zm3.63995361328125,0h1.10205078125v5.6875h-1.10205078125v-3.628899574279785l-1.61297607421875,3.628899574279785h-1.0980224609375v-5.6875h1.0980224609375v3.632800102233887l1.61297607421875-3.632800102233887Zm6.15301513671875,1.543000221252441c0,.130199432373047-.02099609375.255199432373047-.06298828125.375-.03900146484375.119799613952637-.09600830078125.232999801635742-.1719970703125.339799880981445-.07501220703125.10420036315918-.16802978515625.199199676513672-.27703857421875.285200119018555-.10894775390625.085899353027344-.23297119140625.160099983215332-.3709716796875.222599983215332.31500244140625.109399795532227.55499267578125.276100158691406.718994140625.5.166015625.221400260925293.25.49739933013916.25.828100204467773,0,.26569938659668-.05499267578125.502699851989746-.16400146484375.710999488830566-.10699462890625.20829963684082-.25701904296875.384099960327148-.45001220703125.527299880981445-.19000244140625.140700340270996-.41900634765625.248700141906738-.68695068359375.324299812316895-.26605224609375.072900772094727-.5560302734375.10930061340332-.87103271484375.10930061340332-.2550048828125,0-.50799560546875-.031200408935547-.75799560546875-.093700408935547-.25-.065099716186523-.4749755859375-.16409969329834-.676025390625-.296899795532227-.197998046875-.13539981842041-.35894775390625-.307299613952637-.48394775390625-.515600204467773-.123046875-.208399772644043-.18402099609375-.458399772644043-.18402099609375-.75h1.10198974609375c0,.10930061340332.02301025390625.21090030670166.07000732421875.304699897766113.04998779296875.093700408935547.1190185546875.175700187683105.20697021484375.246100425720215.08905029296875.070300102233887.19403076171875.126299858093262.3170166015625.167900085449219.12200927734375.03909969329834.25701904296875.058599472045898.406005859375.058599472045898.1719970703125,0,.323974609375-.019499778747559.45703125-.058599472045898.13299560546875-.041600227355957.2449951171875-.098899841308594.33599853515625-.17180061340332.09100341796875-.072999954223633.15997314453125-.157599449157715.20697021484375-.253999710083008.0469970703125-.098899841308594.07000732421875-.205699920654297.07000732421875-.320300102233887,0-.304699897766113-.08599853515625-.524700164794922-.25799560546875-.660099983215332-.16900634765625-.13539981842041-.41900634765625-.20319938659668-.75-.20319938659668h-.7650146484375v-.85930061340332h.7650146484375c.16400146484375,0,.30401611328125-.01830005645752.41796875-.054699897766113.11700439453125-.03909969329834.2130126953125-.093799591064453.2850341796875-.16409969329834.07598876953125-.070300102233887.1309814453125-.153599739074707.16497802734375-.25.0360107421875-.098899841308594.05401611328125-.208300590515137.05401611328125-.328100204467773,0-.10159969329834-.01898193359375-.19789981842041-.0579833984375-.28909969329834-.03900146484375-.093700408935547-.0989990234375-.174400329589844-.17999267578125-.242100715637207-.0810546875-.06779956817627-.18402099609375-.121099472045898-.30902099609375-.160199165344238-.12200927734375-.04170036315918-.26800537109375-.0625-.43701171875-.0625-.1300048828125,0-.2509765625.016899108886719-.36297607421875.050799369812012-.11199951171875.03380012512207-.21002197265625.081999778747559-.29302978515625.144499778747559-.08099365234375.0625-.14599609375.13800048828125-.19598388671875.226600646972656-.0469970703125.088500022888184-.07000732421875.1875-.07000732421875.296799659729004h-1.0980224609375c0-.25.05401611328125-.473899841308594.1600341796875-.671799659729004.1099853515625-.19795036315918.25701904296875-.365920066833496.4420166015625-.503940582275391.18499755859375-.138019561767578.39794921875-.243489265441895.63995361328125-.316399574279785.2449951171875-.075520515441895.5040283203125-.113280296325684.77801513671875-.113280296325684.31500244140625,0,.60101318359375.035150527954102.8590087890625.105460166931152.25799560546875.067709922790527.47698974609375.17057991027832.656005859375.308600425720215.1829833984375.135409355163574.322998046875.304679870605469.4219970703125.507760047912598.0989990234375.200599670410156.14898681640625.433599472045898.14898681640625.699299812316895Zm3.62103271484375,2.956999778747559h-1.70703125l-.33599853515625,1.1875h-1.156005859375l1.863037109375-5.6875h.9959716796875l1.8280029296875,5.6875h-1.156005859375l-.33197021484375-1.1875Zm-1.43804931640625-.933600425720215h1.17999267578125l-.58197021484375-2.09369945526123-.5980224609375,2.09369945526123Zm7.28900146484375.050800323486328h-3.25396728515625v-.878899574279785h3.25396728515625v.878899574279785Zm-66.38995361328125,5.382800102233887h1.093994140625v4.80470085144043h1.54998779296875v-4.80470085144043h1.10198974609375v4.808599472045898h.73797607421875l-.0780029296875,2.25h-1.0159912109375v-1.371099472045898h-3.38995361328125v-5.6875Zm7.52294921875,0h1.10205078125v5.6875h-1.10205078125v-3.628900527954102l-1.61297607421875,3.628900527954102h-1.0980224609375v-5.6875h1.0980224609375v3.63279914855957l1.61297607421875-3.63279914855957Zm4.63299560546875,5.6875v-2.238300323486328h-.87896728515625l-1.07000732421875,2.238300323486328h-1.176025390625l1.23101806640625-2.57029914855957c-.302978515625-.148500442504883-.532958984375-.341201782226562-.6920166015625-.578100204467773-.15594482421875-.239601135253906-.23394775390625-.52869987487793-.23394775390625-.86720085144043,0-.273500442504883.0479736328125-.514299392700195.14398193359375-.722700119018555.09698486328125-.20829963684082.2349853515625-.38279914855957.41400146484375-.523399353027344.1829833984375-.140600204467773.40301513671875-.246099472045898.65997314453125-.316400527954102.25799560546875-.072898864746094.5469970703125-.109399795532227.8680419921875-.109399795532227h1.83599853515625v5.6875h-1.10205078125Zm-1.72296142578125-3.949199676513672c0,.296899795532227.08197021484375.516899108886719.2459716796875.660099029541016.1650390625.140701293945312.41204833984375.211000442504883.7430419921875.211000442504883h.73394775390625v-1.718799591064453h-.73394775390625c-.33905029296875,0-.58905029296875.074199676513672-.75.222700119018555-.15899658203125.148399353027344-.239013671875.356800079345703-.239013671875.625Zm6.3289794921875,3.863300323486328c0,.148399353027344-.02099609375.300699234008789-.06298828125.456998825073242-.03900146484375.156200408935547-.093994140625.307300567626953-.16400146484375.453100204467773-.07000732421875.145900726318359-.15496826171875.283901214599609-.2540283203125.414100646972656-.095947265625.130199432373047-.199951171875.246099472045898-.31195068359375.347599029541016l-.57501220703125-.296798706054688c.04998779296875-.093801498413086.094970703125-.188800811767578.136962890625-.285200119018555.04400634765625-.09630012512207.08203125-.197900772094727.113037109375-.30470085144043.031982421875-.106800079345703.05596923828125-.219999313354492.07501220703125-.339799880981445.01800537109375-.119800567626953.0269775390625-.251298904418945.0269775390625-.394599914550781v-.913999557495117h1.01898193359375l-.00299072265625.863300323486328Zm5.17498779296875-5.601600646972656h1.10205078125v5.6875h-1.10205078125v-3.628900527954102l-1.61297607421875,3.628900527954102h-1.0980224609375v-5.6875h1.0980224609375v3.63279914855957l1.61297607421875-3.63279914855957Zm5.926025390625,5.6875h-1.08599853515625v-2.464799880981445h-1.6090087890625v2.464799880981445h-1.0899658203125v-5.6875h1.0899658203125v2.332000732421875h1.6090087890625v-2.332000732421875h1.08599853515625v5.6875Zm4.80499267578125,0h-1.08599853515625v-2.464799880981445h-1.6099853515625v2.464799880981445h-1.0889892578125v-5.6875h1.0889892578125v2.332000732421875h1.6099853515625v-2.332000732421875h1.08599853515625v5.6875Zm5.01898193359375-2.425800323486328c0,.364601135253906-.0479736328125.70050048828125-.14398193359375,1.007801055908203-.09698486328125.30729866027832-.23602294921875.571599960327148-.41796875.792999267578125-.18304443359375.221399307250977-.405029296875.394500732421875-.66802978515625.519500732421875-.260986328125.122398376464844-.55499267578125.183599472045898-.88299560546875.183599472045898s-.6199951171875-.061201095581055-.875-.183599472045898c-.2550048828125-.125-.469970703125-.298101425170898-.64501953125-.519500732421875-.1739501953125-.224000930786133-.3070068359375-.488300323486328-.39801025390625-.792999267578125-.0909423828125-.307300567626953-.136962890625-.643199920654297-.136962890625-1.007801055908203v-.828100204467773c0-.364599227905273.0460205078125-.700498580932617.136962890625-1.00779914855957.09100341796875-.307300567626953.22406005859375-.571599960327148.39801025390625-.793001174926758.175048828125-.223899841308594.38800048828125-.398399353027344.6409912109375-.523399353027344.2550048828125-.125.54705810546875-.1875.875-.1875.3310546875,0,.62603759765625.0625.88702392578125.1875.26300048828125.125.4849853515625.29949951171875.66802978515625.523399353027344.18194580078125.221401214599609.32098388671875.485700607299805.41796875.793001174926758.09600830078125.307300567626953.14398193359375.643199920654297.14398193359375,1.00779914855957v.828100204467773Zm-1.11297607421875-.835899353027344c0-.231800079345703-.02001953125-.445301055908203-.05902099609375-.640600204467773-.03594970703125-.195400238037109-.094970703125-.363300323486328-.17498779296875-.503900527954102-.08099365234375-.14069938659668-.18499755859375-.25-.31298828125-.32819938659668-.125-.080699920654297-.2769775390625-.121099472045898-.45703125-.121099472045898-.177001953125,0-.324951171875.040399551391602-.4449462890625.121099472045898-.1199951171875.07819938659668-.21600341796875.1875-.28900146484375.32819938659668-.072998046875.140600204467773-.125.308500289916992-.15704345703125.503900527954102-.031005859375.19529914855957-.04595947265625.40880012512207-.04595947265625.640600204467773v.835899353027344c0,.22920036315918.01495361328125.441400527954102.04595947265625.636699676513672.03204345703125.195301055908203.08404541015625.364601135253906.15704345703125.507900238037109.072998046875.143199920654297.16900634765625.25520133972168.28900146484375.335901260375977s.26898193359375.121099472045898.448974609375.121099472045898c.177001953125,0,.3280029296875-.040399551391602.4530029296875-.121099472045898.12799072265625-.080699920654297.23101806640625-.191400527954102.30902099609375-.332000732421875.0799560546875-.143301010131836.13995361328125-.3125.178955078125-.507900238037109.03900146484375-.19529914855957.05902099609375-.40880012512207.05902099609375-.640600204467773v-.835899353027344Zm1.94097900390625,3.261699676513672v-5.6875h1.9110107421875c.30902099609375,0,.59100341796875.031299591064453.843017578125.093700408935547.2559814453125.062599182128906.4730224609375.157600402832031.65301513671875.285200119018555.178955078125.127599716186523.31695556640625.289098739624023.41400146484375.484399795532227.0989990234375.19529914855957.14794921875.425800323486328.14794921875.691400527954102-.001953125.265598297119141-.073974609375.503898620605469-.2149658203125.714799880981445-.13800048828125.21099853515625-.34197998046875.371099472045898-.613037109375.480499267578125.16400146484375.04170036315918.3060302734375.10420036315918.426025390625.1875s.218994140625.182300567626953.2969970703125.296899795532227c.08001708984375.11199951171875.13897705078125.235700607299805.17498779296875.371099472045898.0400390625.132801055908203.05902099609375.270801544189453.05902099609375.41400146484375,0,.27349853515625-.0469970703125.514398574829102-.1409912109375.722700119018555-.093017578125.20829963684082-.22698974609375.38279914855957-.40203857421875.523399353027344-.1739501953125.14069938659668-.386962890625.246099472045898-.636962890625.316400527954102-.25.07029914855957-.531005859375.105499267578125-.843017578125.105499267578125h-2.07501220703125Zm1.10205078125-2.50779914855957v1.621099472045898h.97698974609375c.2989501953125-.002599716186523.5269775390625-.07550048828125.6829833984375-.218799591064453.15899658203125-.145801544189453.23797607421875-.335901260375977.23797607421875-.570301055908203.00299072265625-.260398864746094-.06695556640625-.463499069213867-.21099853515625-.609399795532227-.14300537109375-.14579963684082-.36395263671875-.219999313354492-.66400146484375-.222599029541016h-1.02294921875Zm0-.793001174926758h.81597900390625c.30499267578125-.002599716186523.53900146484375-.066400527954102.7030029296875-.191400527954102.16497802734375-.125.24798583984375-.308599472045898.25-.550798416137695,0-.265600204467773-.08203125-.455699920654297-.24603271484375-.570301055908203-.16400146484375-.117198944091797-.4010009765625-.177099227905273-.71099853515625-.179698944091797h-.81195068359375v1.492198944091797Zm6.50799560546875,2.113300323486328h-1.70703125l-.33599853515625,1.1875h-1.156005859375l1.863037109375-5.6875h.9959716796875l1.8280029296875,5.6875h-1.156005859375l-.33197021484375-1.1875Zm-1.43804931640625-.933599472045898h1.1800537109375l-.58203125-2.093700408935547-.5980224609375,2.093700408935547Zm3.36004638671875-3.566400527954102h1.09295654296875v4.80470085144043h1.551025390625v-4.80470085144043h1.10198974609375v4.808599472045898h.73797607421875l-.07794189453125,2.25h-1.01605224609375v-1.371099472045898h-3.38995361328125v-5.6875Zm7.52294921875,0h1.10205078125v5.6875h-1.10205078125v-3.628900527954102l-1.61297607421875,3.628900527954102h-1.0980224609375v-5.6875h1.0980224609375v3.63279914855957l1.61297607421875-3.63279914855957Zm4.8050537109375,0h1.1009521484375v5.6875h-1.1009521484375v-3.628900527954102l-1.613037109375,3.628900527954102h-1.09796142578125v-5.6875h1.09796142578125v3.63279914855957l1.613037109375-3.63279914855957Zm-57.656005859375,9h1.1009521484375v5.6875h-1.1009521484375v-3.628900527954102l-1.614013671875,3.628900527954102h-1.09698486328125v-5.6875h1.09698486328125v3.63279914855957l1.614013671875-3.63279914855957Zm9.6090087890625,0h1.1009521484375v5.6875h-1.1009521484375v-3.628900527954102l-1.613037109375,3.628900527954102h-1.09796142578125v-5.6875h1.09796142578125v3.63279914855957l1.613037109375-3.63279914855957Zm5.92596435546875,5.6875h-1.08599853515625v-2.464799880981445h-1.6099853515625v2.464799880981445h-1.0889892578125v-5.6875h1.0889892578125v2.332000732421875h1.6099853515625v-2.332000732421875h1.08599853515625v5.6875Zm3.67901611328125-4.921899795532227c.2659912109375.02869987487793.50799560546875.0989990234375.72698974609375.211000442504883.218994140625.111898422241211.406005859375.259099960327148.56201171875.441398620605469.15899658203125.182300567626953.281982421875.397100448608398.36798095703125.644500732421875.0880126953125.244800567626953.13201904296875.515600204467773.13201904296875.8125,0,.29170036315918-.04400634765625.558599472045898-.13201904296875.800800323486328-.08599853515625.239599227905273-.208984375.449199676513672-.36798095703125.628900527954102-.156005859375.179698944091797-.343017578125.325498580932617-.56201171875.437498092651367-.218994140625.109401702880859-.46099853515625.178401947021484-.72698974609375.207000732421875v.738300323486328h-1.093017578125v-.738300323486328c-.2659912109375-.028598785400391-.50897216796875-.097599029541016-.73101806640625-.207000732421875-.218994140625-.109399795532227-.406982421875-.252599716186523-.56597900390625-.429698944091797-.156982421875-.17970085144043-.27899169921875-.389299392700195-.36700439453125-.628900527954102-.08599853515625-.242198944091797-.12896728515625-.509099960327148-.12896728515625-.800800323486328,0-.296899795532227.04296875-.568998336791992.12896728515625-.816398620605469.0880126953125-.247400283813477.21002197265625-.462200164794922.36700439453125-.644500732421875.15899658203125-.184900283813477.34698486328125-.333400726318359.56597900390625-.44529914855957.2220458984375-.112001419067383.46502685546875-.182300567626953.73101806640625-.211000442504883v-.765600204467773h1.093017578125v.765600204467773Zm-1.8079833984375,2.117198944091797c0,.315101623535156.06396484375.566400527954102.19097900390625.753900527954102.12799072265625.184900283813477.302001953125.303400039672852.52398681640625.355501174926758v-2.269500732421875c-.22198486328125.054599761962891-.39599609375.179599761962891-.52398681640625.375-.12701416015625.19529914855957-.19097900390625.457000732421875-.19097900390625.785099029541016Zm2.510986328125-.00779914855957c0-.32550048828125-.06201171875-.584600448608398-.18701171875-.777299880981445-.125-.195400238037109-.2969970703125-.320400238037109-.5159912109375-.375v2.265600204467773c.218994140625-.052101135253906.3909912109375-.171899795532227.5159912109375-.359399795532227s.18701171875-.438800811767578.18701171875-.753900527954102Zm2.6409912109375.726600646972656v2.085899353027344h-1.0980224609375v-5.6875h1.946044921875c.30999755859375,0,.5899658203125.045600891113281.8399658203125.136699676513672.25.088600158691406.4620361328125.213600158691406.635986328125.375.177001953125.158901214599609.31304931640625.350299835205078.40704345703125.574199676513672.09600830078125.224000930786133.14398193359375.472700119018555.14398193359375.746101379394531,0,.255199432373047-.0479736328125.490900039672852-.14398193359375.707099914550781-.093994140625.216098785400391-.23004150390625.403598785400391-.40704345703125.5625-.1739501953125.156198501586914-.385986328125.278598785400391-.635986328125.367099761962891-.25.088600158691406-.52996826171875.132900238037109-.8399658203125.132900238037109h-.8480224609375Zm0-.890701293945312h.8480224609375c.15594482421875,0,.29095458984375-.023399353027344.40594482421875-.07029914855957.11505126953125-.046899795532227.21002197265625-.110700607299805.2850341796875-.191400527954102.0780029296875-.080699920654297.135986328125-.173200607299805.1719970703125-.277299880981445.03900146484375-.106800079345703.05902099609375-.217500686645508.05902099609375-.332099914550781,0-.13279914855957-.02001953125-.256500244140625-.05902099609375-.371099472045898-.0360107421875-.114500045776367-.093994140625-.214799880981445-.1719970703125-.300701141357422-.07501220703125-.08599853515625-.16998291015625-.15369987487793-.2850341796875-.20319938659668-.114990234375-.049400329589844-.25-.074199676513672-.40594482421875-.074199676513672h-.8480224609375v1.82029914855957Zm6.43402099609375,1.789100646972656h-1.70703125l-.33599853515625,1.1875h-1.156005859375l1.863037109375-5.6875h.9959716796875l1.8280029296875,5.6875h-1.156005859375l-.33197021484375-1.1875Zm-1.43804931640625-.933599472045898h1.1800537109375l-.58203125-2.093700408935547-.5980224609375,2.093700408935547Zm7.39501953125.339899063110352c-.01800537109375.286399841308594-.08099365234375.544200897216797-.18798828125.773401260375977-.10400390625.22920036315918-.2449951171875.424497604370117-.4219970703125.585897445678711-.177001953125.161502838134766-.38800048828125.286502838134766-.63201904296875.375-.2449951171875.086002349853516-.5159912109375.128902435302734-.81298828125.128902435302734-.33599853515625,0-.63397216796875-.061199188232422-.89398193359375-.183601379394531-.26104736328125-.125-.48004150390625-.298099517822266-.65704345703125-.519500732421875-.177001953125-.2239990234375-.31195068359375-.492198944091797-.406005859375-.804698944091797-.093994140625-.3125-.1409912109375-.656200408935547-.1409912109375-1.031200408935547v-.76569938659668c0-.377599716186523.050048828125-.722599029541016.1490478515625-1.035099029541016s.23895263671875-.580699920654297.4219970703125-.80470085144043c.18194580078125-.224000930786133.4019775390625-.397100448608398.65997314453125-.519500732421875.260009765625-.125.552001953125-.1875.875-.1875.31201171875,0,.59002685546875.044200897216797.83203125.132801055908203.2449951171875.088499069213867.45294189453125.214799880981445.625.378900527954102.1719970703125.163999557495117.30694580078125.364599227905273.40594482421875.601598739624023.0989990234375.236900329589844.16204833984375.503900527954102.18804931640625.800701141357422h-1.093994140625c-.01104736328125-.169200897216797-.03704833984375-.31770133972168-.0780029296875-.445301055908203-.03900146484375-.127599716186523-.0980224609375-.233098983764648-.176025390625-.316400527954102-.07598876953125-.085899353027344-.1719970703125-.149698257446289-.28900146484375-.191398620605469-.114990234375-.044300079345703-.25299072265625-.066400527954102-.41400146484375-.066400527954102-.16900634765625,0-.3170166015625.036500930786133-.4420166015625.109399795532227-.125.072900772094727-.22900390625.17970085144043-.31195068359375.320301055908203-.0810546875.140598297119141-.14105224609375.313798904418945-.1800537109375.519498825073242-.03900146484375.203100204467773-.0579833984375.434900283813477-.0579833984375.695301055908203v.77349853515625c0,.559900283813477.0780029296875.973899841308594.2340087890625,1.24220085144043.15899658203125.268198013305664.40899658203125.402299880981445.75.402299880981445.2869873046875,0,.51300048828125-.07550048828125.67999267578125-.226600646972656.166015625-.153598785400391.259033203125-.400999069213867.2769775390625-.742099761962891h1.0980224609375Zm5.0350341796875-3.011798858642578h-1.7540283203125v4.792999267578125h-1.10198974609375v-4.792999267578125h-1.72998046875v-.894500732421875h4.58599853515625v.894500732421875Zm1.79296875,2.707099914550781v2.085899353027344h-1.0980224609375v-5.6875h1.946044921875c.3089599609375,0,.5889892578125.045600891113281.8389892578125.136699676513672.25.088600158691406.4630126953125.213600158691406.636962890625.375.177001953125.158901214599609.31304931640625.350299835205078.406005859375.574199676513672.0970458984375.224000930786133.14501953125.472700119018555.14501953125.746101379394531,0,.255199432373047-.0479736328125.490900039672852-.14501953125.707099914550781-.09295654296875.216098785400391-.22900390625.403598785400391-.406005859375.5625-.1739501953125.156198501586914-.386962890625.278598785400391-.636962890625.367099761962891-.25.088600158691406-.530029296875.132900238037109-.8389892578125.132900238037109h-.8480224609375Zm0-.890701293945312h.8480224609375c.156005859375,0,.29095458984375-.023399353027344.406005859375-.07029914855957.11395263671875-.046899795532227.208984375-.110700607299805.28497314453125-.191400527954102.0780029296875-.080699920654297.135009765625-.173200607299805.1719970703125-.277299880981445.03900146484375-.106800079345703.0579833984375-.217500686645508.0579833984375-.332099914550781,0-.13279914855957-.01898193359375-.256500244140625-.0579833984375-.371099472045898-.0369873046875-.114500045776367-.093994140625-.214799880981445-.1719970703125-.300701141357422-.07598876953125-.08599853515625-.1710205078125-.15369987487793-.28497314453125-.20319938659668-.11505126953125-.049400329589844-.25-.074199676513672-.406005859375-.074199676513672h-.8480224609375v1.82029914855957Zm5.2030029296875-.75779914855957l.3709716796875,1.050800323486328,1.18804931640625-3.003900527954102h1.19500732421875l-2.0240478515625,4.609399795532227c-.06695556640625.153600692749023-.14697265625.300798416137695-.23797607421875.441400527954102-.0880126953125.140598297119141-.19598388671875.264301300048828-.323974609375.371101379394531-.125.106697082519531-.27203369140625.191398620605469-.4410400390625.253898620605469-.16998291015625.0625-.3690185546875.093700408935547-.59796142578125.093700408935547-.18505859375,0-.3489990234375-.015602111816406-.49200439453125-.046802520751953-.14105224609375-.028697967529297-.2550048828125-.054698944091797-.343994140625-.078197479248047l.0699462890625-.859302520751953c.03399658203125.010402679443359.07403564453125.022102355957031.12103271484375.035102844238281.04998779296875.010398864746094.10101318359375.020797729492188.15301513671875.031299591064453.052001953125.010398864746094.10498046875.019500732421875.15997314453125.027297973632812.05499267578125.005203247070312.10699462890625.007801055908203.156005859375.007801055908203.125,0,.2340087890625-.01300048828125.3280029296875-.03900146484375.093994140625-.026096343994141.17498779296875-.0625.24200439453125-.109397888183594.0679931640625-.046901702880859.12396240234375-.102899551391602.16796875-.168001174926758.0469970703125-.067699432373047.08502197265625-.143199920654297.114013671875-.226598739624023l.1090087890625-.242099761962891-1.9840087890625-4.101600646972656h1.18701171875l.88299560546875,1.953100204467773Zm4.8709716796875,1.398500442504883h-.45697021484375v2.335899353027344h-1.0980224609375v-5.6875h1.0980224609375v2.503900527954102h.27001953125l1.48797607421875-2.503900527954102h1.26898193359375l-1.69500732421875,2.738300323486328,1.76202392578125,2.949199676513672h-1.27398681640625l-1.363037109375-2.335899353027344Zm7.35205078125-2.457099914550781h-1.7540283203125v4.792999267578125h-1.10198974609375v-4.792999267578125h-1.72998046875v-.894500732421875h4.58599853515625v.894500732421875Zm2.19097900390625,1.058599472045898l.3709716796875,1.050800323486328,1.18804931640625-3.003900527954102h1.19500732421875l-2.02301025390625,4.609399795532227c-.0679931640625.153600692749023-.14801025390625.300798416137695-.239013671875.441400527954102-.0880126953125.140598297119141-.19598388671875.264301300048828-.32403564453125.371101379394531-.125.106697082519531-.27197265625.191398620605469-.44097900390625.253898620605469-.16998291015625.0625-.3690185546875.093700408935547-.59796142578125.093700408935547-.18505859375,0-.34906005859375-.015602111816406-.49200439453125-.046802520751953-.14105224609375-.028697967529297-.2550048828125-.054698944091797-.34405517578125-.078197479248047l.07000732421875-.859302520751953c.03399658203125.010402679443359.07501220703125.022102355957031.12103271484375.035102844238281.04998779296875.010398864746094.10101318359375.020797729492188.15301513671875.031299591064453.052001953125.010398864746094.10498046875.019500732421875.15997314453125.027297973632812.05499267578125.005203247070312.10699462890625.007801055908203.156005859375.007801055908203.125,0,.2349853515625-.01300048828125.3280029296875-.03900146484375.093994140625-.026096343994141.17498779296875-.0625.24200439453125-.109397888183594.0679931640625-.046901702880859.12396240234375-.102899551391602.16796875-.168001174926758.0469970703125-.067699432373047.08502197265625-.143199920654297.114013671875-.226598739624023l.1090087890625-.242099761962891-1.9840087890625-4.101600646972656h1.18701171875l.88299560546875,1.953100204467773Zm4.406005859375,1.648500442504883v2.085899353027344h-1.09698486328125v-5.6875h1.94500732421875c.30999755859375,0,.5899658203125.045600891113281.8399658203125.136699676513672.25.088600158691406.46197509765625.213600158691406.63702392578125.375.177001953125.158901214599609.31195068359375.350299835205078.406005859375.574199676513672.095947265625.224000930786133.14398193359375.472700119018555.14398193359375.746101379394531,0,.255199432373047-.04803466796875.490900039672852-.14398193359375.707099914550781-.09405517578125.216098785400391-.22900390625.403598785400391-.406005859375.5625-.175048828125.156198501586914-.38702392578125.278598785400391-.63702392578125.367099761962891-.25.088600158691406-.52996826171875.132900238037109-.8399658203125.132900238037109h-.8480224609375Zm0-.890701293945312h.8480224609375c.15594482421875,0,.2919921875-.023399353027344.40594482421875-.07029914855957.11505126953125-.046899795532227.21002197265625-.110700607299805.2850341796875-.191400527954102.0780029296875-.080699920654297.135986328125-.173200607299805.1719970703125-.277299880981445.03900146484375-.106800079345703.05902099609375-.217500686645508.05902099609375-.332099914550781,0-.13279914855957-.02001953125-.256500244140625-.05902099609375-.371099472045898-.0360107421875-.114500045776367-.093994140625-.214799880981445-.1719970703125-.300701141357422-.07501220703125-.08599853515625-.16998291015625-.15369987487793-.2850341796875-.20319938659668-.11395263671875-.049400329589844-.25-.074199676513672-.40594482421875-.074199676513672h-.8480224609375v1.82029914855957Zm6.43402099609375,1.789100646972656h-1.70703125l-.33599853515625,1.1875h-1.156005859375l1.863037109375-5.6875h.9959716796875l1.8280029296875,5.6875h-1.156005859375l-.33197021484375-1.1875Zm-1.43804931640625-.933599472045898h1.17999267578125l-.58197021484375-2.093700408935547-.5980224609375,2.093700408935547Z" fill="#fff"/>
    </g>
  </g>
</svg>