<svg width="54" height="54" fill="none" xmlns="http://www.w3.org/2000/svg"><g clip-path="url(#clip0_590_337)"><mask id="a" style="mask-type:luminance" maskUnits="userSpaceOnUse" x="0" y="0" width="54" height="54"><path d="M54 0H0v54h54V0z" fill="#fff"/></mask><g mask="url(#a)"><path d="M54 0H0v54h54V0z" fill="#566D79"/><path fill-rule="evenodd" clip-rule="evenodd" d="M9.252 41.044h8.119c.094 0 .189-.095.189-.19 0-.094 0-.094-.095-.094l-4.059-5.201s-.095-.095-.19-.095h-.093l-3.965 5.202-.095.094v.095c0 .094.095.189.189.189zm8.119.851h-8.12c-.093 0-.188.095-.188.19v6.43c0 .095.095.19.189.19h2.643v-4.067c0-.095.095-.19.19-.19h2.453c.095 0 .19.095.19.19v4.066h2.643c.094 0 .189-.094.189-.189v-6.43c0-.19-.095-.19-.189-.19zm28.132-1.702H37.48c-.094 0-.189.094-.189.189v8.133c0 .095.095.19.189.19h8.024c.095 0 .19-.095.19-.19v-8.133c0-.19-.095-.19-.19-.19zm-4.437 5.296a.203.203 0 01-.188.189h-2.36a.204.204 0 01-.19-.19V44.07c0-.095.095-.189.19-.189h2.36c.094 0 .188.094.188.189v1.419zm0-2.743c0 .095-.094.19-.188.19h-2.36a.204.204 0 01-.19-.19v-1.418c0-.095.095-.19.19-.19h2.36c.094 0 .188.095.188.19v1.418zm3.682 2.743a.203.203 0 01-.189.189H42.2a.203.203 0 01-.188-.19V44.07c0-.095.094-.189.188-.189h2.36c.095 0 .189.094.189.189v1.419zm0-2.743c0 .095-.094.19-.189.19H42.2c-.094 0-.188-.095-.188-.19v-1.418c0-.095.094-.19.188-.19h2.36c.095 0 .189.095.189.19v1.418zM26.717 21.279h-7.836a.203.203 0 00-.189.188V48.42c0 .095.095.19.19.19h7.835c.094 0 .189-.095.189-.19V21.467c.094-.094 0-.188-.189-.188zm-4.626 24.304c0 .063-.031.095-.095.095h-1.793c-.063 0-.094-.032-.094-.095v-1.986c0-.095.094-.095.094-.095h1.794c.094 0 .094.095.094.095v1.986zm0-4.634c0 .063-.031.095-.095.095h-1.793c-.094 0-.094-.095-.094-.095v-1.986c0-.094.094-.094.094-.094h1.794c.063 0 .094.031.094.094v1.986zm0-4.634c0 .063-.031.095-.095.095h-1.793c-.063 0-.094-.032-.094-.095V34.33c0-.095.094-.095.094-.095h1.794c.094 0 .094.095.094.095v1.986zm0-4.634c0 .063-.031.095-.095.095h-1.793c-.063 0-.094-.032-.094-.095v-1.986c0-.095.094-.095.094-.095h1.794c.063 0 .094.032.094.095v1.986zm0-4.54c0 .064-.031.095-.095.095h-1.793c-.094 0-.094-.094-.094-.094v-1.986c0-.095.094-.095.094-.095h1.794c.063 0 .094.032.094.095v1.986zm3.493 18.442c0 .063-.032.095-.095.095h-1.793c-.063 0-.094-.032-.094-.095v-1.986c0-.063.03-.095.094-.095h1.793c.095 0 .095.095.095.095v1.986zm0-4.634c0 .063-.032.095-.095.095h-1.793c-.094 0-.094-.095-.094-.095v-1.986c0-.063.03-.094.094-.094h1.793c.063 0 .095.031.095.094v1.986zm0-4.634c0 .063-.032.095-.095.095h-1.793c-.063 0-.094-.032-.094-.095V34.33c0-.063.03-.095.094-.095h1.793c.095 0 .095.095.095.095v1.986zm0-4.634c0 .063-.032.095-.095.095h-1.793c-.063 0-.094-.032-.094-.095v-1.986c0-.063.03-.095.094-.095h1.793c.063 0 .095.032.095.095v1.986zm0-4.54c0 .064-.032.095-.095.095h-1.793c-.094 0-.094-.094-.094-.094v-1.986c0-.063.03-.095.094-.095h1.793c.063 0 .095.032.095.095v1.986zm20.108 12.2c0 .095-.094.19-.189.19H37.48c-.094 0-.189-.095-.189-.19v-1.607c0-.095.095-.19.189-.19h8.024c.095 0 .19.095.19.19v1.607zm-9.346-12.956c0-.095-.094-.19-.189-.19h-.094l-.094.095-7.742 9.836s-.094.095-.094.19V48.42c0 .095.094.19.189.19h7.93c.094 0 .189-.095.189-.19l-.095-22.035zm-3.304 5.296c.566-.756 1.51-1.891 1.888-2.364l.095-.095c.063-.063.126-.094.188-.094.095 0 .189.095.189.19v2.552c0 .095-.094.19-.189.19h-1.982c-.094 0-.189-.095-.189-.19v-.189zm-1.227 13.807c0 .095-.095.19-.19.19h-2.36c-.094 0-.188-.095-.188-.19v-1.513c0-.095.094-.189.189-.189h2.36c.094 0 .189.094.189.19v1.512zm0-2.742c0 .095-.095.19-.19.19h-2.36c-.094 0-.188-.095-.188-.19v-1.513c0-.095.094-.19.189-.19h2.36c.094 0 .189.095.189.19v1.513zm0-2.743c0 .095-.095.19-.19.19h-2.36c-.094 0-.188-.095-.188-.19V38.49c0-.095.094-.19.189-.19h2.36c.094 0 .189.096.189.19v1.513zm0-5.957v3.215c0 .095-.095.189-.19.189h-2.36a.203.203 0 01-.188-.189v-.473c.283-.473 1.7-2.08 2.266-2.837l.094-.095s.095-.094.189-.094.189.094.189.284zm3.682 11.442c0 .095-.095.19-.19.19h-2.36c-.094 0-.188-.095-.188-.19v-1.513c0-.095.094-.189.188-.189h2.36c.095 0 .19.094.19.19v1.512zm0-2.742c0 .095-.095.19-.19.19h-2.36c-.094 0-.188-.095-.188-.19v-1.513c0-.095.094-.19.188-.19h2.36c.095 0 .19.095.19.19v1.513zm0-2.743c0 .095-.095.19-.19.19h-2.36c-.094 0-.188-.095-.188-.19V38.49c0-.095.094-.19.188-.19h2.36c.095 0 .19.096.19.19v1.513zm0-2.647c0 .094-.095.188-.19.188h-2.36a.202.202 0 01-.188-.188v-1.514c0-.094.094-.189.188-.189h2.36c.095 0 .19.095.19.189v1.514zm0-2.743c0 .095-.095.19-.19.19h-2.36c-.094 0-.188-.095-.188-.19V33.1c0-.095.094-.19.188-.19h2.36c.095 0 .19.095.19.19v1.513zM3.87 6.526v1.891l1.322-1.324v8.322h1.794V4.54H5.57l-1.7 1.987zm4.154 0v1.891l1.322-1.324v8.322h1.888V4.54h-1.51l-1.7 1.987zm6.892 1.513V7.47h.66v.662c0 .284.095.378.379.378a.406.406 0 00.377-.378v-.189c0-.284-.095-.378-.377-.662l-.472-.473c-.378-.378-.661-.662-.661-1.23V5.39c0-.567.283-1.04 1.038-1.04.756 0 1.038.379 1.038 1.04v.379h-.66V5.39c0-.283-.095-.378-.378-.378-.189 0-.377.095-.377.378v.095c0 .284.094.379.377.567l.472.474c.378.472.566.661.566 1.134v.19c0 .661-.282 1.04-1.133 1.04-.566.19-.85-.284-.85-.851zM19.73 4.54v3.404c0 .662-.283 1.135-1.132 1.135-.85 0-1.133-.473-1.133-1.135V4.539h.755v3.5c0 .284.094.472.378.472.283 0 .377-.188.377-.472v-3.5h.756zm.284 3.499V7.47h.755v.662c0 .284.095.378.378.378a.406.406 0 00.378-.378v-.189c0-.284-.095-.378-.378-.662l-.472-.473c-.472-.378-.66-.662-.66-1.23V5.39c0-.567.282-1.04 1.037-1.04.755 0 1.039.379 1.039 1.04v.379h-.661V5.39c0-.283-.094-.378-.378-.378-.188 0-.377.095-.377.378v.095c0 .284.189.379.377.567l.473.474c.377.472.566.661.566 1.134v.19c0 .661-.378 1.04-1.133 1.04s-.944-.284-.944-.851zM22.28 4.54h2.077v.567h-.662V9.08h-.754V5.107h-.661V4.54zm1.982 4.54l.85-4.54h.85l.849 4.54h-.755l-.095-.852h-.85l-.094.851h-.755zm.944-1.42h.567l-.284-1.891-.283 1.892z" fill="#fff"/><path d="M27.756 4.54h-.661v4.54h.66V4.54z" fill="#fff"/><path fill-rule="evenodd" clip-rule="evenodd" d="M28.794 6.242v2.837h-.567V4.54h.756l.755 2.554V4.539h.66v4.54h-.66l-.944-2.837zm1.793 2.838l.85-4.54h.85l.85 4.54h-.756l-.095-.852h-.849l-.094.851h-.756zm.945-1.42h.566l-.284-1.891-.282 1.892zm1.888-3.12h1.132c.755 0 1.039.378 1.039.945v.473c0 .378-.19.662-.472.757.377.094.566.378.566.756v.568c0 .662-.283.945-1.038.945h-1.228V4.54zm.754 1.89h.284c.283 0 .377-.094.377-.377v-.568c0-.283-.094-.378-.377-.378h-.284v1.324zm0 .568v1.42h.378c.283 0 .378-.095.378-.38v-.661c0-.284-.095-.379-.378-.379h-.378zm1.889-2.458h.755v3.877h.944v.662h-1.699V4.54zm1.887 0h1.794v.567h-1.038v1.324h.756v.662h-.756v1.324h1.038v.662h-1.793V4.54zm2.833 3.31V5.673c0-.756.283-1.23 1.133-1.23.85 0 1.038.474 1.038 1.136v.567h-.66V5.58c0-.284-.095-.473-.378-.473-.284 0-.378.189-.378.473v2.459c0 .283.094.472.378.472.283 0 .377-.189.377-.472v-.852h.66v.757c0 .662-.282 1.135-1.037 1.135-.85 0-1.133-.568-1.133-1.23z" fill="#fff"/><path d="M43.993 4.54h-.755v4.54h.755V4.54z" fill="#fff"/><path fill-rule="evenodd" clip-rule="evenodd" d="M44.37 4.54h2.077v.567h-.66V9.08h-.756V5.107h-.66V4.54z" fill="#fff"/><path d="M47.392 4.54h-.755v4.54h.755V4.54z" fill="#fff"/><path fill-rule="evenodd" clip-rule="evenodd" d="M47.769 4.54h1.888v.567h-1.133v1.324h.755v.662h-.755v1.324h1.133v.662h-1.888V4.54zm2.171 3.499V7.47h.661v.662c0 .284.095.378.378.378a.406.406 0 00.378-.378v-.189c0-.284-.095-.378-.378-.662l-.472-.473c-.472-.378-.661-.662-.661-1.23V5.39c0-.567.283-1.04 1.039-1.04.755 0 1.038.379 1.038 1.04v.379h-.661V5.39c0-.283-.094-.378-.377-.378-.19 0-.378.095-.378.378v.095c0 .284.094.379.378.567l.472.474c.377.472.566.661.566 1.134v.19c0 .661-.378 1.04-1.133 1.04s-.85-.284-.85-.851zm-35.118 7.376l.85-4.54h.849l.85 4.54h-.755l-.095-.85h-.85l-.094.85h-.755zm.943-1.418h.661l-.283-1.797-.378 1.797zm2.55-1.419v2.837h-.66v-4.54h.754l.85 2.554v-2.553h.66v4.54h-.66l-.944-2.838zm4.248-.473v2.08c0 .663-.284 1.23-1.133 1.23h-1.133v-4.54h1.133c.85 0 1.133.474 1.133 1.23zm-1.228 2.648c.284 0 .472-.189.472-.473v-2.364c0-.283-.094-.473-.472-.473h-.283v3.31h.283zm2.267-.473v-2.27c0-.756.377-1.23 1.132-1.23.85 0 1.133.474 1.133 1.136v.567h-.755v-.567c0-.284-.095-.473-.378-.473-.283 0-.378.189-.378.473v2.459c0 .284.095.472.378.472.283 0 .378-.188.378-.472v-.851h.755v.756c0 .662-.283 1.135-1.133 1.135-.85.095-1.132-.473-1.132-1.135zm2.548 0v-2.27c0-.756.378-1.23 1.133-1.23.756 0 1.133.569 1.133 1.23v2.27c0 .757-.377 1.23-1.133 1.23-.755 0-1.133-.568-1.133-1.23zm1.51.095v-2.46c0-.283-.093-.472-.377-.472-.283 0-.377.189-.377.473v2.459c0 .284.094.472.377.472.284 0 .378-.188.378-.472zm3.21-1.892l-.472 2.932h-.377l-.566-2.932v2.932h-.661v-4.54h.85l.566 2.554.377-2.553h1.039v4.54h-.755v-2.933zm3.21 0l-.566 2.932h-.378l-.566-2.932v2.932h-.66v-4.54h.943l.472 2.554.472-2.553h.944v4.54h-.66v-2.933zm3.305-1.607v3.499c0 .756-.283 1.135-1.133 1.135-.85 0-1.133-.473-1.133-1.135v-3.5h.755v3.594c0 .284.095.473.377.473.284 0 .379-.189.379-.473v-3.593h.755zm1.038 1.702v2.837h-.66v-4.54h.755l.85 2.554v-2.553h.66v4.54h-.755l-.85-2.838z" fill="#fff"/><path d="M40.971 10.876h-.66v4.54h.66v-4.54z" fill="#fff"/><path fill-rule="evenodd" clip-rule="evenodd" d="M41.35 10.876h2.076v.662h-.66v3.877h-.756v-3.877h-.66v-.662z" fill="#fff"/><path d="M44.37 10.876h-.755v4.54h.756v-4.54z" fill="#fff"/><path fill-rule="evenodd" clip-rule="evenodd" d="M44.748 10.876h1.889v.662h-1.039v1.23h.756v.661h-.756v1.324h1.039v.662h-1.889v-4.54zm2.172 3.594v-.663h.66v.662c0 .284.095.379.378.379.189 0 .378-.19.378-.379v-.189c0-.283-.094-.473-.378-.662l-.472-.472c-.377-.474-.66-.662-.66-1.23v-.189c0-.568.283-1.04 1.038-1.04.755 0 1.038.378 1.038 1.04v.378h-.66v-.378c0-.284-.095-.378-.378-.378-.19 0-.378.094-.378.378v.094c0 .284.095.379.378.663l.472.472c.378.473.566.662.566 1.23v.189c0 .662-.378 1.04-1.133 1.04s-.85-.378-.85-.946z" fill="#fff"/><path d="M52.396 0h-39.03v20.852h39.03V0z" fill="#566D79"/><path d="M15.012 5.489l.198.561.635-1.606h.64L15.402 6.91a1.92 1.92 0 01-.128.236.819.819 0 01-.409.334.918.918 0 01-.32.05c-.099 0-.186-.008-.263-.025a3.284 3.284 0 01-.184-.042l.038-.459.064.019.082.016c.028.006.056.01.086.015a.764.764 0 00.259-.017.425.425 0 00.13-.058.358.358 0 00.09-.09.514.514 0 00.06-.121l.058-.13-1.06-2.193h.634l.472 1.045zm3.843 1.044a1.15 1.15 0 01-.1.413.95.95 0 01-.564.514 1.3 1.3 0 01-.435.07 1.1 1.1 0 01-.478-.1.997.997 0 01-.35-.277 1.278 1.278 0 01-.218-.43 1.904 1.904 0 01-.075-.551v-.41c0-.202.026-.386.08-.553a1.28 1.28 0 01.225-.43.994.994 0 01.353-.278c.139-.067.295-.1.468-.1.166 0 .315.023.445.07a.942.942 0 01.334.203.936.936 0 01.217.322c.053.127.086.27.1.428h-.585a.995.995 0 00-.041-.238.425.425 0 00-.095-.17.367.367 0 00-.154-.102.62.62 0 00-.221-.035.46.46 0 00-.237.058.468.468 0 00-.166.172.878.878 0 00-.097.277c-.02.109-.03.233-.03.372v.414c0 .299.041.52.124.664.085.143.22.215.401.215.153 0 .275-.04.364-.121.089-.083.138-.215.148-.397h.587zm2.692-1.61h-.938v2.562h-.589V4.923h-.925v-.479h2.452v.479zm2.456 1.265c0 .195-.026.375-.077.54a1.245 1.245 0 01-.224.423 1.03 1.03 0 01-.829.376c-.175 0-.332-.033-.468-.098a.985.985 0 01-.344-.278 1.269 1.269 0 01-.213-.424 1.889 1.889 0 01-.073-.539v-.443c0-.194.024-.374.073-.538.048-.165.12-.306.213-.424a.978.978 0 01.81-.38c.177 0 .335.033.474.1.14.067.26.16.357.28.098.118.172.26.224.424.051.164.077.344.077.538v.443zm-.595-.447c0-.123-.01-.238-.031-.342a.85.85 0 00-.094-.27.48.48 0 00-.168-.175.44.44 0 00-.244-.065.415.415 0 00-.393.24.88.88 0 00-.083.27 2.126 2.126 0 00-.025.342v.447c0 .123.008.236.025.34a.913.913 0 00.083.272c.04.077.09.137.155.18a.424.424 0 00.24.065.44.44 0 00.407-.243.92.92 0 00.097-.271c.02-.104.03-.219.03-.343v-.447zm2.45-1.297h.589v3.041h-.59v-1.94l-.862 1.94h-.587v-3.04h.587v1.942l.863-1.943zm.265-.791a.61.61 0 01-.05.248.525.525 0 01-.142.195.691.691 0 01-.224.125.94.94 0 01-.294.044.945.945 0 01-.297-.044.708.708 0 01-.225-.125.557.557 0 01-.19-.443h.417c0 .036.005.071.015.106a.25.25 0 00.052.09.263.263 0 00.09.06.365.365 0 00.138.023.338.338 0 00.133-.023.228.228 0 00.14-.15.344.344 0 00.017-.106h.42zm2.96.791v3.041h-.59V6.326c-.036.01-.073.019-.112.027a2.967 2.967 0 01-.118.02l-.11.01a1.396 1.396 0 01-.501-.052.81.81 0 01-.311-.18.814.814 0 01-.199-.31 1.323 1.323 0 01-.069-.45v-.947h.587v.946c0 .102.008.187.023.253a.4.4 0 00.075.16.28.28 0 00.125.085c.05.015.11.023.178.023l.094-.002.108-.011a2.949 2.949 0 00.23-.044v-1.41h.59zm1.913 0h.588v3.041h-.588v-1.94l-.863 1.94h-.587v-3.04h.587v1.942l.863-1.943zm1.157 3.041v-3.04h1.02c.166 0 .317.016.452.05.136.033.252.084.349.152a.66.66 0 01.22.26c.054.103.08.227.08.369a.686.686 0 01-.114.382.682.682 0 01-.329.256.703.703 0 01.228.1.606.606 0 01.159.16.61.61 0 01.094.198.935.935 0 01-.044.608.746.746 0 01-.215.28.94.94 0 01-.34.17 1.677 1.677 0 01-.452.055h-1.108zm.588-1.34v.866h.523c.16-.001.281-.04.365-.117a.395.395 0 00.127-.305.44.44 0 00-.112-.325c-.077-.079-.195-.118-.355-.12h-.548zm0-.425h.437c.163 0 .288-.035.376-.102a.353.353 0 00.133-.294c0-.143-.043-.244-.131-.305-.088-.063-.214-.095-.38-.096h-.435v.797zm2.452-.04h.132a.82.82 0 01.336.065.64.64 0 01.244.18.78.78 0 01.151.282c.035.108.052.23.052.366 0 .133-.019.256-.056.369a.796.796 0 01-.163.288.734.734 0 01-.268.188.94.94 0 01-.365.067h-.65v-3.04h.587V5.68zm1.665 1.805h-.587v-3.04h.587v3.04zm-1.665-1.35v.899h.096a.165.165 0 00.107-.035.266.266 0 00.073-.1.57.57 0 00.042-.149 1.224 1.224 0 000-.353.483.483 0 00-.042-.138.24.24 0 00-.071-.092.172.172 0 00-.109-.033h-.096zm3.973.018h-1.25v.858h1.46v.474h-2.049v-3.04h2.043v.478h-1.453v.766h1.248v.464zm-23.003 3.58h-1.38v2.564h-.587V9.256h1.967v.476zM18.865 11a1.8 1.8 0 01-.077.539 1.254 1.254 0 01-.223.424 1.037 1.037 0 01-.357.278c-.14.065-.297.098-.473.098-.175 0-.331-.033-.467-.098a.993.993 0 01-.345-.278 1.278 1.278 0 01-.213-.424 1.889 1.889 0 01-.073-.539v-.443c0-.194.024-.374.073-.539a1.27 1.27 0 01.213-.424.98.98 0 01.81-.38 1.1 1.1 0 01.475.1c.14.068.259.16.357.28.097.12.171.26.223.424.052.165.077.345.077.54V11zm-.595-.447c0-.123-.01-.238-.031-.342a.848.848 0 00-.094-.27.48.48 0 00-.167-.175.44.44 0 00-.245-.065.414.414 0 00-.392.24.89.89 0 00-.084.27 2.184 2.184 0 00-.025.342V11c0 .123.008.236.025.34a.924.924 0 00.084.272c.039.077.09.137.154.18a.422.422 0 00.24.065.44.44 0 00.408-.243.931.931 0 00.096-.271c.02-.104.031-.219.031-.343v-.447zm1.667.629v1.115h-.587V9.256h1.04c.166 0 .316.025.45.073a.974.974 0 01.34.2.847.847 0 01.217.308c.051.12.077.252.077.399a.921.921 0 01-.077.378.86.86 0 01-.218.3.999.999 0 01-.34.197 1.333 1.333 0 01-.449.07h-.453zm0-.477h.453a.572.572 0 00.217-.037.426.426 0 00.245-.25.513.513 0 00.031-.178c0-.07-.01-.137-.031-.199a.431.431 0 00-.245-.27.55.55 0 00-.217-.039h-.453v.973zm4.066.295a1.8 1.8 0 01-.077.539 1.245 1.245 0 01-.224.424 1.032 1.032 0 01-.829.376c-.175 0-.332-.033-.468-.098a.986.986 0 01-.344-.278 1.27 1.27 0 01-.213-.424 1.89 1.89 0 01-.073-.539v-.443c0-.194.024-.374.073-.539.048-.164.12-.305.213-.424a.978.978 0 01.81-.38 1.03 1.03 0 01.831.38c.098.12.172.26.224.424.051.165.077.345.077.54V11zm-.595-.447c0-.123-.01-.238-.031-.342a.85.85 0 00-.094-.27.48.48 0 00-.168-.175.44.44 0 00-.244-.065.415.415 0 00-.393.24.88.88 0 00-.083.27 2.125 2.125 0 00-.025.342V11c0 .123.008.236.025.34a.912.912 0 00.083.272c.04.077.09.137.155.18a.424.424 0 00.24.065.44.44 0 00.407-.243.92.92 0 00.097-.271c.02-.104.03-.219.03-.343v-.447zm3.105 2.492h-.505v-.748h-1.15v.748h-.496l-.091-1.22h.112a.515.515 0 00.167-.14.752.752 0 00.12-.242c.031-.103.057-.23.076-.382.02-.153.034-.34.042-.56l.084-1.245h1.501v2.569h.224l-.084 1.22zM25.378 10.5c-.007.163-.017.31-.031.443a3.634 3.634 0 01-.05.361 2.499 2.499 0 01-.073.29 1.834 1.834 0 01-.092.23h.657V9.732h-.36l-.05.77zm3.137 1.16h-.912l-.18.636h-.618l.996-3.041h.532l.978 3.041h-.618l-.178-.635zm-.768-.498h.63l-.311-1.12-.32 1.12zm5.818-1.907h.59v3.041h-.59v-1.94l-.862 1.94h-.587v-3.04h.587v1.942l.862-1.942zm5.737 3.041h-.58V10.98h-.861v1.318h-.582V9.256h.582v1.247h.86V9.256h.581v3.041zm2.057-.635h-.912l-.18.635h-.618l.996-3.041h.533l.977 3.041h-.618l-.178-.635zm-.768-.499h.63l-.31-1.12-.32 1.12zm3.953.182a1.14 1.14 0 01-.1.413.95.95 0 01-.564.514c-.13.046-.275.069-.434.069a1.11 1.11 0 01-.479-.098.999.999 0 01-.35-.278 1.279 1.279 0 01-.217-.43 1.904 1.904 0 01-.076-.552v-.41c0-.2.027-.385.08-.552a1.29 1.29 0 01.225-.43 1.01 1.01 0 01.353-.278c.14-.067.295-.1.468-.1a1.3 1.3 0 01.445.07.95.95 0 01.334.203.937.937 0 01.217.322c.053.126.086.27.1.428h-.584a.995.995 0 00-.042-.238.432.432 0 00-.094-.17.367.367 0 00-.155-.102.62.62 0 00-.22-.035.46.46 0 00-.237.058.468.468 0 00-.167.172.878.878 0 00-.096.277 1.98 1.98 0 00-.032.372v.413c0 .3.043.521.126.665a.433.433 0 00.4.215.52.52 0 00.364-.121c.09-.083.139-.215.148-.397h.587zm2.329-.38h-1.249v.858h1.46v.474h-2.05v-3.04h2.044v.479h-1.454v.766h1.249v.464zm2.752.225h-1.74v-.47h1.74v.47zm-33.42 2.878v3.041h-.588v-2.565h-.63l-.01 1.115a3.683 3.683 0 01-.062.675c-.036.184-.09.333-.159.45a.638.638 0 01-.261.248.811.811 0 01-.365.077h-.147v-.472h.084a.298.298 0 00.163-.06.333.333 0 00.096-.164c.024-.074.04-.173.048-.294.008-.123.014-.275.017-.46l.012-1.591h1.803zm2.41 1.709h-1.248v.858h1.46v.474h-2.05v-3.041h2.043v.478h-1.453v.767h1.248v.464zm2.705 1.332h-.58V15.79h-.86v1.318h-.583v-3.041h.582v1.247h.86v-1.247h.581v3.041zm2.57 0h-.581V15.79h-.861v1.318h-.582v-3.041h.582v1.247h.86v-1.247h.581v3.041zm1.029-1.805h.132a.82.82 0 01.335.065c.098.042.18.102.245.18a.786.786 0 01.15.282c.035.108.052.23.052.365 0 .134-.018.257-.056.37a.79.79 0 01-.163.288.735.735 0 01-.267.188.94.94 0 01-.365.067h-.65v-3.041h.587v1.237zm1.664 1.805h-.587v-3.041h.587v3.041zm-1.665-1.351v.9h.097a.164.164 0 00.106-.036.26.26 0 00.073-.1.533.533 0 00.042-.148 1.22 1.22 0 000-.353.454.454 0 00-.042-.138.24.24 0 00-.07-.092.171.171 0 00-.11-.033h-.096zm3.973.019h-1.249v.858h1.46v.474h-2.049v-3.041h2.043v.478H27.64v.767h1.249v.464zm5.28 1.332h-.587v-2.565h-.86v2.565h-.588v-3.041h2.035v3.041zm1.393-1.996l.198.561.635-1.606h.64l-1.083 2.465a1.66 1.66 0 01-.127.235.844.844 0 01-.173.199.766.766 0 01-.236.136.913.913 0 01-.32.05 1.29 1.29 0 01-.263-.025 3.293 3.293 0 01-.184-.042l.038-.46.064.02.082.016.085.015a.769.769 0 00.26-.017.424.424 0 00.129-.058.342.342 0 00.09-.09.477.477 0 00.06-.122l.059-.129-1.061-2.193h.635l.472 1.045zm3.738 1.996h-.58V15.79h-.861v1.318h-.582v-3.041h.582v1.247h.86v-1.247h.581v3.041zm1.435-1.249h-.244v1.249h-.587v-3.041h.587v1.339h.144l.795-1.34h.68l-.907 1.465.942 1.577h-.68l-.73-1.249zm3.93-1.314h-.937v2.563h-.589v-2.563h-.925v-.478h2.452v.478zm.803.759h.131a.82.82 0 01.336.064c.098.042.18.102.245.18a.77.77 0 01.15.282c.035.108.052.23.052.365 0 .134-.018.257-.056.37a.74.74 0 01-.43.476.941.941 0 01-.366.067h-.65v-3.041h.587v1.237zm1.664 1.804h-.587v-3.041h.587v3.041zm-1.665-1.351v.9h.097a.165.165 0 00.106-.036.266.266 0 00.073-.1.57.57 0 00.042-.148 1.31 1.31 0 000-.353.484.484 0 00-.042-.138.245.245 0 00-.07-.092.173.173 0 00-.11-.033h-.096z" fill="#fff"/></g></g><defs><clipPath id="clip0_590_337"><path fill="#fff" d="M0 0h54v54H0z"/></clipPath></defs></svg>