<svg width="54" height="54" fill="none" xmlns="http://www.w3.org/2000/svg"><g clip-path="url(#clip0_590_115)"><mask id="a" style="mask-type:luminance" maskUnits="userSpaceOnUse" x="0" y="0" width="54" height="54"><path d="M54 0H0v54h54V0z" fill="#fff"/></mask><g mask="url(#a)"><path d="M54 0H0v54h54V0z" fill="#566D79"/><path fill-rule="evenodd" clip-rule="evenodd" d="M40.689 27.993c-2.36-1.891-5.57-1.891-6.703-1.702h-.095c-1.322.283-3.493.85-5.947 3.972h-.094v.189l.094.094c.283.474.66 1.23 1.039 1.797 0 .095.094.095.188.095.063 0 .094-.032.094-.095v-.094c2.172-3.026 3.965-3.5 5.098-3.783h.095c.566-.095 2.927-.095 4.626 1.23 1.321 1.04 1.982 2.647 1.982 4.917 0 3.688-1.794 5.107-3.304 5.674-2.36.851-4.626-.284-4.626-.284l-.094-.094c-1.322-.568-3.21-1.702-5.004-5.39-3.681-7.283-6.703-8.04-8.685-8.512h-.094c-.944-.19-4.06-.378-6.61 1.608-1.32 1.04-2.831 3.12-2.831 6.809 0 2.27.472 3.783 1.7 5.39.282.379 2.926 3.878 8.118 2.837a7.964 7.964 0 003.21-1.513l1.133 1.04c.094.096.188.096.283 0v-.094l.85-5.107v-.094c0-.064-.032-.095-.095-.095h-.189l-4.908 1.324h-.095s-.095 0-.095.095c-.094.094-.094.189 0 .283h.095l1.133 1.04c-.756.473-1.322.663-1.794.757-3.776.757-5.664-1.797-5.664-1.891-.85-1.135-1.133-2.08-1.133-3.878 0-2.175.66-3.877 1.888-4.917 1.605-1.324 3.87-1.324 4.532-1.135h.094c1.7.378 3.87.851 6.986 7.187 1.605 3.31 3.682 5.39 6.23 6.526.284.189 1.889.851 3.871.851.85 0 1.794-.095 2.738-.473 1.51-.568 4.91-2.46 4.91-8.039 0-3.498-1.606-5.485-2.927-6.525zM5.381 7.093v8.322H7.27V4.54H5.76l-1.7 1.987v1.891l1.322-1.324zm2.927-.284v1.324h1.699V6.715c0-.663.283-.851.755-.851.378 0 .661.188.661.85v.852c0 .945-.095 1.229-.66 1.891l-1.04 1.135c-1.038 1.04-1.32 1.797-1.32 2.837v1.986h4.814v-1.513h-3.021v-.473c0-.851.283-1.135.755-1.702l1.133-1.23c.944-1.04 1.133-1.702 1.133-2.742v-1.04c0-1.608-.756-2.27-2.36-2.27-1.794 0-2.55.85-2.55 2.364zm9.723.189V9.08h-.755V4.54h1.133c.755 0 1.039.379 1.039 1.04v.568c0 .473-.19.757-.567.851l.755 2.081h-.85L18.032 7zm0-1.89v1.418h.284c.283 0 .377-.095.377-.379v-.662c0-.283-.094-.378-.377-.378h-.284zm1.794-.568h1.794v.567h-1.038v1.324h.755v.662h-.755v1.324h1.038v.662h-1.794V4.54zm1.983 3.499V7.47h.755v.662c0 .284.094.378.378.378.283 0 .377-.188.377-.378v-.189c0-.284-.094-.378-.378-.662l-.472-.473c-.472-.378-.66-.662-.66-1.23V5.39c0-.567.377-1.04 1.133-1.04.755 0 1.133.379 1.133 1.04v.379h-.756V5.39c0-.283-.094-.378-.378-.378-.188 0-.377.095-.377.378v.095c0 .284.189.379.378.567l.472.474c.472.472.66.661.66 1.134v.19c0 .661-.377 1.04-1.133 1.04-.755 0-1.132-.284-1.132-.851zM24.45 4.54h1.134c.755 0 1.038.378 1.038 1.04v.946c0 .661-.283 1.04-1.038 1.04h-.378v1.513h-.755V4.54zm.756.567v1.797h.284c.282 0 .377-.095.377-.378v-1.04c0-.284-.095-.379-.378-.379h-.283zm1.699 2.743V5.673c0-.756.378-1.23 1.133-1.23.756 0 1.133.568 1.133 1.23V7.85c0 .757-.377 1.23-1.133 1.23-.755 0-1.133-.568-1.133-1.23zm1.51.094V5.485c0-.284-.093-.473-.377-.473-.283 0-.377.19-.377.473v2.459c0 .284.094.473.377.473.284 0 .378-.19.378-.473zm1.795-1.702v2.837h-.66V4.54h.754l.85 2.554V4.539h.66v4.54h-.66l-.944-2.837zm1.793 1.797V7.47h.756v.662c0 .284.094.378.377.378.284 0 .378-.188.378-.378v-.189c0-.284-.094-.378-.378-.662l-.472-.473c-.471-.378-.66-.662-.66-1.23V5.39c0-.567.377-1.04 1.132-1.04.756 0 1.133.379 1.133 1.04v.379h-.755V5.39c0-.283-.094-.378-.378-.378-.188 0-.377.095-.377.378v.095c0 .284.189.379.377.567l.472.474c.378.472.661.661.661 1.134v.19c0 .661-.377 1.04-1.133 1.04-.755.19-1.133-.284-1.133-.851z" fill="#fff"/><path d="M35.308 4.54h-.755v4.54h.755V4.54z" fill="#fff"/><path fill-rule="evenodd" clip-rule="evenodd" d="M35.685 4.54h1.133c.756 0 1.039.378 1.039 1.04v.473c0 .378-.094.662-.472.756.378.095.566.378.566.757v.567c0 .662-.283.946-1.038.946h-1.227V4.54zm.756 1.89h.283c.283 0 .378-.094.378-.377v-.568c0-.283-.095-.378-.378-.378h-.283v1.324zm0 .568v1.42h.377c.284 0 .378-.095.378-.38v-.661c0-.284-.094-.379-.377-.379h-.378zM38.14 4.54h.756v3.877h.943v.662H38.14V4.54zm2.077 0h1.794v.567h-1.039v1.324h.756v.662h-.756v1.324h1.039v.662h-1.794V4.54zm-22.941 9.74v-2.27c0-.756.378-1.23 1.133-1.23.85 0 1.133.474 1.133 1.136v.567h-.755v-.567c0-.284-.095-.473-.378-.473-.283 0-.378.189-.378.473v2.459c0 .284.095.472.378.472.283 0 .378-.188.378-.472v-.851h.755v.756c0 .662-.283 1.135-1.133 1.135-.755.095-1.133-.473-1.133-1.135zm2.644 0v-2.27c0-.756.377-1.23 1.132-1.23.755 0 1.133.569 1.133 1.23v2.27c0 .757-.378 1.23-1.133 1.23s-1.133-.568-1.133-1.23zm1.51.095v-2.46c0-.283-.095-.472-.378-.472-.283 0-.378.189-.378.473v2.459c0 .284.095.472.378.472.283 0 .378-.188.378-.472zm1.794-1.797v2.837h-.661v-4.54h.756l.849 2.554v-2.553h.66v4.54h-.755l-.85-2.838zm1.794 1.892v-.663h.755v.662c0 .284.094.379.378.379.283 0 .377-.19.377-.379v-.189c0-.283-.094-.473-.377-.662l-.473-.472c-.472-.474-.66-.662-.66-1.23v-.189c0-.568.377-1.04 1.133-1.04.754 0 1.132.378 1.132 1.04v.378h-.755v-.378c0-.284-.094-.378-.377-.378-.19 0-.378.094-.378.378v.094c0 .284.189.379.378.663l.472.472c.377.473.66.662.66 1.23v.189c0 .662-.378 1.04-1.133 1.04-.85.095-1.132-.378-1.132-.946zm4.72-3.594v3.499c0 .756-.283 1.135-1.133 1.135-.85 0-1.133-.473-1.133-1.135v-3.5h.755v3.594c0 .284.095.473.378.473.283 0 .378-.189.378-.473v-3.593h.755zm2.454 1.607l-.472 2.932h-.377l-.567-2.932v2.932h-.66v-4.54h.849l.567 2.554.472-2.553h.943v4.54h-.755v-2.933zm1.133-1.607h1.133c.755 0 1.038.378 1.038 1.04v.946c0 .662-.283 1.04-1.038 1.04h-.378v1.513h-.755v-4.54zm.755.662v1.796h.283c.283 0 .378-.094.378-.378v-1.04c0-.283-.095-.378-.378-.378h-.283zm1.605-.662h1.983v.662h-.566v3.877h-.756v-3.877h-.66v-.662z" fill="#fff"/><path d="M38.706 10.876h-.755v4.54h.755v-4.54z" fill="#fff"/><path fill-rule="evenodd" clip-rule="evenodd" d="M39.084 14.28v-2.27c0-.756.378-1.23 1.133-1.23s1.133.569 1.133 1.23v2.27c0 .757-.378 1.23-1.133 1.23s-1.133-.568-1.133-1.23zm1.51.095v-2.46c0-.283-.094-.472-.377-.472-.283 0-.378.189-.378.473v2.459c0 .284.095.472.378.472.283 0 .378-.188.378-.472zm1.7-1.797v2.837h-.661v-4.54h.85l.755 2.554v-2.553h.66v4.54h-.66l-.944-2.838zm-25.112 9.173l.85-4.539h.85l.849 4.54h-.755l-.095-.852h-.85l-.094.851h-.755zm.944-1.418h.66l-.282-1.797-.378 1.797zm2.549-1.419v2.837h-.66v-4.539h.754l.85 2.648v-2.648h.66v4.54h-.66l-.944-2.838zm4.249-.473v2.08c0 .663-.284 1.23-1.133 1.23h-1.133v-4.539h1.133c.85 0 1.133.567 1.133 1.23zm-1.228 2.743c.283 0 .472-.19.472-.473v-2.364c0-.284-.094-.473-.472-.473h-.283v3.31h.283zm2.077-3.972h1.133c.755 0 1.133.378 1.133 1.04v.946c0 .662-.284 1.04-1.133 1.04h-.378v1.513h-.755v-4.539zm.85.662v1.797h.283c.283 0 .377-.095.377-.378v-1.04c0-.284-.094-.379-.377-.379h-.284zm2.454 1.797v2.08h-.755v-4.539h1.133c.755 0 1.038.378 1.038 1.04v.568c0 .473-.189.756-.567.851l.756 2.08h-.756l-.85-2.08zm0-1.797v1.419h.283c.283 0 .378-.095.378-.379v-.662c0-.283-.095-.378-.378-.378h-.283zm1.699 2.742v-2.175c0-.756.378-1.229 1.227-1.229.85 0 1.227.567 1.227 1.23v2.174c0 .757-.377 1.23-1.227 1.23-.85 0-1.227-.473-1.227-1.23zm1.605.19v-2.46c0-.283-.094-.472-.378-.472-.283 0-.377.19-.377.473v2.459c0 .284.094.473.377.473.284 0 .378-.19.378-.473zm3.399-2.365v2.08c0 .663-.283 1.23-1.133 1.23h-1.133v-4.539h1.133c.85 0 1.133.567 1.133 1.23zm-1.227 2.743c.283 0 .472-.19.472-.473v-2.364c0-.284-.095-.473-.472-.473h-.284v3.31h.284zm3.681-3.972v3.499c0 .757-.283 1.135-1.038 1.135-.755 0-1.133-.473-1.133-1.135v-3.499h.755v3.594c0 .284.095.473.378.473.283 0 .377-.19.377-.473v-3.594h.661zm.378 3.404v-2.175c0-.756.378-1.229 1.133-1.229.85 0 1.133.473 1.133 1.135v.567h-.755v-.567c0-.284-.095-.473-.378-.473-.283 0-.378.19-.378.473v2.459c0 .284.095.473.378.473.283 0 .378-.19.378-.473v-.852h.755v.757c0 .662-.283 1.135-1.133 1.135-.755 0-1.133-.473-1.133-1.23zm2.455-3.404h2.077v.662h-.661v3.877h-.755v-3.877h-.661v-.662z" fill="#fff"/><path d="M44.087 17.212h-.755v4.54h.755v-4.54z" fill="#fff"/><path fill-rule="evenodd" clip-rule="evenodd" d="M44.465 20.616v-2.175c0-.756.377-1.229 1.133-1.229.755 0 1.133.567 1.133 1.23v2.174c0 .757-.378 1.23-1.133 1.23-.756 0-1.133-.473-1.133-1.23zm1.51.19v-2.46c0-.283-.094-.472-.377-.472-.284 0-.378.19-.378.473v2.459c0 .284.094.473.378.473.283 0 .377-.19.377-.473zm1.795-1.892v2.837h-.662v-4.539h.756l.85 2.648v-2.648h.66v4.54h-.66l-.945-2.838z" fill="#fff"/><path d="M54 2.139H14.97V21.92H54V2.139z" fill="#566D79"/><path d="M17.9 6.188c0 .195-.025.375-.077.539a1.243 1.243 0 01-.223.424 1.03 1.03 0 01-.83.376c-.175 0-.33-.033-.467-.098a.984.984 0 01-.345-.278 1.27 1.27 0 01-.213-.424 1.892 1.892 0 01-.073-.539v-.443c0-.194.024-.374.073-.539a1.25 1.25 0 01.214-.424.979.979 0 01.81-.38 1.03 1.03 0 01.831.38c.097.12.172.26.223.424.052.165.077.345.077.54v.442zm-.595-.447c0-.123-.01-.238-.03-.342a.848.848 0 00-.095-.27.48.48 0 00-.167-.175.44.44 0 00-.245-.065.415.415 0 00-.392.24.88.88 0 00-.083.27 2.125 2.125 0 00-.026.342v.447c0 .122.009.236.026.34a.913.913 0 00.083.272c.039.077.09.137.154.18a.424.424 0 00.24.065.44.44 0 00.408-.243.917.917 0 00.096-.271 1.75 1.75 0 00.031-.343v-.447zm3.277-.818h-.938v2.562h-.588V4.922h-.926v-.478h2.452v.479zm.33 2.562V4.444h1.021c.166 0 .317.017.451.05.137.034.253.085.35.153a.69.69 0 01.22.259c.054.104.08.228.08.37a.68.68 0 01-.443.639.704.704 0 01.228.1.622.622 0 01.159.159.61.61 0 01.093.198.933.933 0 01-.044.608.744.744 0 01-.214.28.947.947 0 01-.34.169 1.671 1.671 0 01-.452.056h-1.109zm.59-1.34v.866h.521c.16-.001.282-.04.366-.117a.395.395 0 00.127-.305.436.436 0 00-.113-.326c-.076-.078-.194-.117-.355-.119h-.547zm0-.425h.436c.163 0 .288-.035.375-.102a.352.352 0 00.134-.295c0-.142-.044-.243-.131-.304-.088-.063-.215-.095-.38-.096H21.5v.797zm3.855.433h-1.25v.858h1.46v.474h-2.049V4.444h2.043v.479h-1.453v.766h1.249v.464zm2.932-1.23h-.938v2.562h-.589V4.922h-.925v-.478h2.452v.479zm2.445 1.61a1.15 1.15 0 01-.1.413.95.95 0 01-.564.514 1.302 1.302 0 01-.434.069 1.11 1.11 0 01-.479-.098.996.996 0 01-.35-.278 1.27 1.27 0 01-.217-.43 1.908 1.908 0 01-.076-.552v-.41c0-.2.027-.385.08-.552a1.29 1.29 0 01.225-.43c.098-.12.216-.213.353-.278.14-.067.296-.1.468-.1.167 0 .315.023.445.07.13.048.242.115.334.203a.943.943 0 01.217.322c.053.126.086.27.1.428h-.584a.97.97 0 00-.042-.238.425.425 0 00-.094-.17.367.367 0 00-.154-.102.62.62 0 00-.222-.035.46.46 0 00-.236.058.468.468 0 00-.167.172.878.878 0 00-.096.277 1.98 1.98 0 00-.032.372v.413c0 .3.042.521.126.664.085.144.219.216.401.216a.52.52 0 00.363-.121c.09-.083.139-.215.149-.397h.586zm2.693-1.61h-.938v2.562h-.59V4.922h-.924v-.478h2.452v.479zm.33 2.562V4.444h1.02c.166 0 .317.017.452.05.136.034.252.085.349.153.096.068.17.154.22.259.054.104.08.228.08.37a.685.685 0 01-.114.382.682.682 0 01-.329.256.703.703 0 01.228.1.605.605 0 01.159.16c.043.06.074.126.094.198a.935.935 0 01-.044.608.746.746 0 01-.215.28.94.94 0 01-.34.169 1.675 1.675 0 01-.452.056h-1.108zm.588-1.34v.866h.523c.16-.001.281-.04.365-.117a.395.395 0 00.128-.305.44.44 0 00-.113-.326c-.077-.078-.195-.117-.355-.119h-.548zm0-.425h.437c.163 0 .288-.035.376-.102a.353.353 0 00.133-.295c0-.142-.043-.243-.131-.304-.088-.063-.214-.095-.38-.096h-.435v.797zm3.856.433h-1.25v.858h1.46v.474h-2.048V4.444h2.042v.479h-1.453v.766H38.2v.464zm2.704 1.332h-.58V6.167h-.861v1.318h-.582V4.444h.582v1.247h.86V4.444h.581v3.041zm2.569 0h-.58V6.167h-.861v1.318h-.583V4.444h.583v1.247h.86V4.444h.58v3.041zm2.684-1.297c0 .195-.026.375-.077.539a1.252 1.252 0 01-.224.424 1.035 1.035 0 01-.357.278c-.14.065-.297.098-.472.098s-.331-.033-.468-.098a.991.991 0 01-.345-.278 1.28 1.28 0 01-.212-.424 1.892 1.892 0 01-.074-.539v-.443c0-.194.025-.374.074-.539a1.26 1.26 0 01.212-.424.981.981 0 01.811-.38 1.03 1.03 0 01.831.38c.098.12.172.26.224.424.051.165.077.345.077.54v.442zm-.595-.447c0-.123-.01-.238-.032-.342a.836.836 0 00-.094-.27.48.48 0 00-.167-.175.44.44 0 00-.244-.065.414.414 0 00-.393.24.893.893 0 00-.083.27 2.184 2.184 0 00-.025.342v.447c0 .122.008.236.025.34a.928.928 0 00.083.272c.039.077.09.137.155.18a.422.422 0 00.24.065.44.44 0 00.407-.243.917.917 0 00.096-.271c.021-.105.032-.219.032-.343v-.447zm2.913.412h-1.249v.858h1.46v.474h-2.05V4.444h2.044v.479h-1.454v.766h1.25v.464zm-30.684 6.144h-.587V9.732h-.86v2.565h-.587V9.256h2.034v3.041zM20.469 11c0 .195-.025.375-.077.539a1.25 1.25 0 01-.223.424 1.035 1.035 0 01-.357.278 1.1 1.1 0 01-.472.098 1.07 1.07 0 01-.468-.098.99.99 0 01-.345-.278 1.28 1.28 0 01-.213-.424 1.891 1.891 0 01-.073-.54v-.442c0-.194.024-.374.073-.539a1.26 1.26 0 01.213-.424.981.981 0 01.81-.38 1.1 1.1 0 01.475.1c.14.068.259.16.357.28.097.119.171.26.223.424.052.165.077.345.077.54V11zm-.595-.447c0-.124-.01-.238-.031-.342a.848.848 0 00-.094-.27.48.48 0 00-.167-.175.44.44 0 00-.245-.065.414.414 0 00-.392.24.893.893 0 00-.084.27 2.183 2.183 0 00-.025.342V11c0 .122.009.236.025.34a.929.929 0 00.084.272c.04.076.09.136.154.18a.422.422 0 00.24.064.44.44 0 00.408-.242.93.93 0 00.096-.271c.02-.105.031-.22.031-.343v-.447zm3.277-.819h-.938v2.563h-.589V9.734H20.7v-.478h2.452v.478zm.959 1.448v1.115h-.587V9.256h1.04c.165 0 .315.024.449.073a.982.982 0 01.34.2.848.848 0 01.217.307c.052.12.078.253.078.4a.915.915 0 01-.078.378.862.862 0 01-.217.3 1.01 1.01 0 01-.34.197 1.332 1.332 0 01-.45.07h-.452zm0-.477h.453a.572.572 0 00.217-.037.436.436 0 00.153-.102.406.406 0 00.092-.149.511.511 0 00.03-.177c0-.07-.01-.137-.03-.199a.438.438 0 00-.245-.27.55.55 0 00-.217-.039h-.453v.973zm3.815.26h-1.248v.858h1.46v.474h-2.05V9.256h2.043v.478h-1.453v.767h1.248v.464zm2.667-1.233h-1.38v.648h.342c.176 0 .333.023.472.069.14.044.26.108.355.19a.811.811 0 01.224.298.949.949 0 01.077.389.99.99 0 01-.077.397.846.846 0 01-.224.304 1.011 1.011 0 01-.355.199 1.468 1.468 0 01-.472.071h-.931V9.256h1.97v.476zm-1.38 1.12v.973h.342a.653.653 0 00.239-.04.47.47 0 00.169-.108c.046-.046.08-.1.1-.161a.573.573 0 000-.378.37.37 0 00-.1-.148.45.45 0 00-.17-.1.68.68 0 00-.238-.038h-.342zm4.01-1.596v3.041h-.59V9.732h-.628l-.01 1.116c-.005.265-.025.49-.063.674-.036.184-.09.333-.159.45a.636.636 0 01-.26.248.816.816 0 01-.366.077h-.147v-.472h.084a.298.298 0 00.163-.06.328.328 0 00.096-.164 1.32 1.32 0 00.048-.294 8.48 8.48 0 00.017-.46l.013-1.591h1.802zm2.41 1.709h-1.249v.858h1.46v.474h-2.049V9.256h2.042v.478h-1.453v.767h1.25v.464zm2.704 1.332h-.58v-1.318h-.86v1.318h-.583V9.256h.582v1.247h.86V9.256h.581v3.041zm1.97-3.041h.589v3.041h-.589v-1.94l-.863 1.94h-.586V9.256h.586v1.942l.863-1.942zm3.033 1.709h-1.25v.858h1.46v.474h-2.048V9.256h2.042v.478H42.09v.767h1.249v.464zm-26.152 3.103h.588v3.04h-.588v-1.94l-.863 1.94h-.587v-3.04h.587v1.942l.863-1.942zm5.743 3.04h-.587v-2.564h-.86v2.565h-.588v-3.041h2.035v3.04zm1.18-1.114v1.115h-.587v-3.041h1.04c.165 0 .315.024.449.073a.982.982 0 01.34.2.848.848 0 01.217.307c.052.12.078.253.078.4a.916.916 0 01-.078.378.862.862 0 01-.217.3.98.98 0 01-.34.196 1.334 1.334 0 01-.45.072h-.452zm0-.477h.453a.572.572 0 00.217-.037.437.437 0 00.245-.251.512.512 0 00.03-.177.643.643 0 00-.03-.199.438.438 0 00-.245-.27.55.55 0 00-.217-.039h-.453v.973zm4.066.295c0 .195-.026.375-.077.539a1.252 1.252 0 01-.224.424 1.034 1.034 0 01-.829.376 1.08 1.08 0 01-.468-.098.99.99 0 01-.345-.278 1.281 1.281 0 01-.212-.424 1.892 1.892 0 01-.074-.54v-.442c0-.194.025-.374.074-.539a1.26 1.26 0 01.212-.424.98.98 0 01.811-.38c.177 0 .335.034.474.1.14.067.26.16.357.28.098.119.172.26.224.424a1.8 1.8 0 01.077.54v.442zm-.595-.447c0-.124-.01-.238-.032-.342a.847.847 0 00-.093-.27.48.48 0 00-.168-.175.44.44 0 00-.244-.065.415.415 0 00-.393.24.892.892 0 00-.083.27 2.188 2.188 0 00-.025.342v.447c0 .122.008.236.025.34a.929.929 0 00.083.272.48.48 0 00.155.18.423.423 0 00.24.064.44.44 0 00.407-.242.93.93 0 00.096-.271c.021-.105.032-.22.032-.343v-.447zm2.45-1.297h.589v3.04h-.59v-1.94l-.862 1.94h-.587v-3.04h.587v1.942l.863-1.942zm3.289.825a.678.678 0 01-.273.535.958.958 0 01-.199.119.774.774 0 01.384.267.71.71 0 01.134.443.801.801 0 01-.328.662 1.134 1.134 0 01-.368.173 1.753 1.753 0 01-.87.008 1.197 1.197 0 01-.362-.158.881.881 0 01-.259-.276.779.779 0 01-.098-.4h.589a.36.36 0 00.148.294.566.566 0 00.17.09.869.869 0 00.461 0 .546.546 0 00.18-.092.39.39 0 00.11-.136.395.395 0 00.038-.171c0-.163-.046-.281-.138-.354-.09-.072-.224-.108-.4-.108h-.41v-.46h.41c.087 0 .161-.01.223-.029a.397.397 0 00.152-.088.328.328 0 00.088-.133.499.499 0 00.03-.176.387.387 0 00-.032-.154.33.33 0 00-.097-.13.466.466 0 00-.164-.085.723.723 0 00-.235-.034c-.07 0-.134.01-.194.027a.506.506 0 00-.156.078.392.392 0 00-.105.12.334.334 0 00-.037.16h-.587c0-.134.028-.254.085-.36a.844.844 0 01.236-.27c.1-.073.214-.129.343-.168.131-.04.27-.061.415-.061.169 0 .322.02.46.057.138.036.255.09.351.164a.74.74 0 01.226.272.834.834 0 01.079.374zm.437 2.216v-3.041h1.02c.166 0 .317.017.452.05.136.034.252.085.349.152.096.069.17.155.22.26.054.104.08.228.08.37a.684.684 0 01-.114.381.682.682 0 01-.329.257.704.704 0 01.228.1.604.604 0 01.159.16.61.61 0 01.094.198.935.935 0 01-.044.608.746.746 0 01-.215.28.939.939 0 01-.34.169 1.676 1.676 0 01-.452.056h-1.108zm.588-1.341v.867h.523c.16-.002.281-.04.365-.117a.395.395 0 00.128-.305.44.44 0 00-.113-.326c-.077-.078-.195-.117-.355-.12h-.548zm0-.424h.437c.163-.001.288-.035.376-.102a.353.353 0 00.133-.295c0-.142-.043-.243-.131-.304-.088-.063-.214-.095-.38-.097h-.435v.798zm4.106.468c0 .195-.025.375-.077.539a1.233 1.233 0 01-.224.424 1.027 1.027 0 01-.828.376c-.176 0-.332-.033-.468-.098a.986.986 0 01-.345-.278 1.281 1.281 0 01-.213-.424 1.892 1.892 0 01-.073-.54v-.442c0-.194.025-.374.073-.539a1.26 1.26 0 01.213-.424.98.98 0 01.81-.38 1.1 1.1 0 01.475.1c.14.067.259.16.356.28.098.119.172.26.224.424.052.165.077.345.077.54v.442zm-.595-.447c0-.124-.01-.238-.031-.342a.835.835 0 00-.094-.27.48.48 0 00-.167-.175.44.44 0 00-.245-.065.417.417 0 00-.393.24.879.879 0 00-.083.27 2.185 2.185 0 00-.025.342v.447c0 .122.009.236.025.34a.914.914 0 00.083.272c.04.076.091.136.155.18a.425.425 0 00.24.064.44.44 0 00.407-.242.916.916 0 00.097-.271c.02-.105.031-.22.031-.343v-.447zm3.105 2.491h-.505v-.747h-1.15v.747h-.495l-.092-1.22h.112a.51.51 0 00.167-.14.752.752 0 00.12-.241c.032-.103.057-.231.077-.382.02-.154.033-.34.042-.56l.083-1.245h1.502v2.569h.223l-.084 1.22zm-1.136-2.543c-.007.162-.017.31-.03.443-.014.132-.03.252-.05.361a2.54 2.54 0 01-.074.29 1.747 1.747 0 01-.092.23h.658v-2.093h-.361l-.05.769zm3.754.844c-.01.153-.044.29-.1.413a.94.94 0 01-.227.313.99.99 0 01-.337.2 1.305 1.305 0 01-.435.07 1.1 1.1 0 01-.478-.099.992.992 0 01-.351-.277 1.279 1.279 0 01-.217-.43 1.908 1.908 0 01-.076-.552v-.41c0-.2.027-.385.08-.553.053-.167.128-.31.225-.43a1.024 1.024 0 01.821-.378 1.3 1.3 0 01.445.071.944.944 0 01.334.203.937.937 0 01.217.322c.053.126.087.269.1.428h-.584a.948.948 0 00-.042-.239.425.425 0 00-.094-.169.365.365 0 00-.154-.102.62.62 0 00-.222-.036.46.46 0 00-.236.059.47.47 0 00-.167.171.88.88 0 00-.096.278 1.967 1.967 0 00-.031.372v.413c0 .3.041.521.125.664a.434.434 0 00.4.216c.154 0 .275-.04.364-.122.09-.082.139-.214.149-.396h.587zm2.692-1.61h-.938v2.562h-.589v-2.563h-.925v-.478h2.452v.478zm.33 2.562v-3.041h1.02c.166 0 .317.017.452.05.136.034.253.085.349.152a.68.68 0 01.22.26c.054.104.08.228.08.37a.68.68 0 01-.443.639.704.704 0 01.229.1.611.611 0 01.158.158.6.6 0 01.094.199.933.933 0 01-.044.608.75.75 0 01-.215.28.946.946 0 01-.34.169 1.673 1.673 0 01-.452.056H46.6zm.589-1.341v.867h.522c.16-.002.282-.04.365-.117a.395.395 0 00.128-.305.438.438 0 00-.113-.326c-.077-.078-.195-.117-.355-.12h-.547zm0-.424h.436c.163-.001.288-.035.376-.102a.352.352 0 00.133-.295c0-.142-.043-.243-.131-.304-.088-.063-.214-.095-.38-.097h-.434v.798zm4.105.468c0 .195-.025.375-.077.539a1.243 1.243 0 01-.223.424 1.03 1.03 0 01-.83.376c-.175 0-.33-.033-.467-.098a.984.984 0 01-.345-.278 1.273 1.273 0 01-.213-.424 1.892 1.892 0 01-.073-.54v-.442c0-.194.025-.374.073-.539a1.27 1.27 0 01.213-.424.979.979 0 01.81-.38c.177 0 .336.034.475.1.14.067.26.16.357.28.097.119.172.26.223.424.052.165.077.345.077.54v.442zm-.595-.447c0-.124-.01-.238-.03-.342a.862.862 0 00-.095-.27.48.48 0 00-.167-.175.44.44 0 00-.245-.065.415.415 0 00-.392.24.879.879 0 00-.083.27 2.126 2.126 0 00-.026.342v.447c0 .122.008.236.026.34a.914.914 0 00.083.272c.039.076.09.136.154.18a.423.423 0 00.24.064.44.44 0 00.408-.242.933.933 0 00.096-.271c.021-.105.031-.22.031-.343v-.447z" fill="#fff"/></g></g><defs><clipPath id="clip0_590_115"><path fill="#fff" d="M0 0h54v54H0z"/></clipPath></defs></svg>