<svg width="53" height="54" fill="none" xmlns="http://www.w3.org/2000/svg"><g clip-path="url(#clip0_590_187)"><mask id="a" style="mask-type:luminance" maskUnits="userSpaceOnUse" x="0" y="0" width="53" height="54"><path d="M53 0H0v54h53V0z" fill="#fff"/></mask><g mask="url(#a)"><path d="M53 0H0v54h53V0z" fill="#566D79"/><path fill-rule="evenodd" clip-rule="evenodd" d="M46.422 33.762c-1.39-1.986-7.691-10.024-19.459-10.024-11.767 0-18.068 7.943-19.458 10.024-.092.094-.092.189-.185.189 0 .095.093.095.185.19 1.39 1.985 7.691 10.023 19.458 10.023 11.768 0 18.068-8.038 19.459-10.024.092-.094.092-.189.185-.189-.093 0-.185-.095-.185-.19zm-26.037-4.918c.093-.19.463-.567.463-.662.093-.095.278-.19.37-.19.093 0 .279 0 .279.095s-.093.474-.093.568c-.186.189-.649.473-.834.378-.185 0-.185-.094-.185-.189zm-.463.851c.185-.19.463-.284.74-.284.186 0 .464.095.464.19 0 .094-.556.378-.648.473-.279.283-.742.85-1.02.85h-.185c.278-.378.463-.85.649-1.229zm4.447 9.268c-.185.662-.37.852-.463 1.04-.185.19-.741.474-1.112.474-.37 0-.464-1.041-.464-1.608 0-.19-.277.378-.37-.757-.093-.662-.556.095-.556-.378s-.278-.378-.463-.662c-.186-.284-.463 0-.834.19-.278.094-.185.188-.649.094-.37-1.04-.648-2.081-.648-3.216v-.85s0-.096.092-.096c.464-.567.464-.661.464-.661l.463-.19s.741.095 1.39.378c.463.19 1.204.568 1.667.379.279-.095.556-.284.556-.567 0-.379-.277-.379-.648-.19-.093.095-.37-.473-.556-.473-.185 0 .185.663.092.757-.184 0-.463-.662-.555-.85-.093-.096-.278-.38-.556-.19-.464.472-1.297.472-1.39.567-.463.379-.649-.095-.556-.378 0-.063.03-.126.093-.19.185-.188.74-.188.926-.094.186.095.37 0 .463-.095.093-.094.093-.189 0-.378 0-.094.093-.189.186-.189s.463-.284.649-.378c.184-.095.926-.19 1.204 0 .37.189.648 0 .834-.19.185-.283.463-.472.556-.472.093-.095-.278-.473-.649 0-.37.473-.463.473-.649.473-.185 0-1.111-.284-1.204-.568-.092-.284.278-.567.648-.756.371-.19 1.298-.19 1.576-.19.463-.094 1.111-.378 1.482-.188.278.188-1.297.567-.834.945.186.095 1.02-.567 1.39-.662.742-.378-.648-.473-.463-1.23.185-.85-1.668-.567-2.687-.472a7.96 7.96 0 014.447-1.324c3.892 0 7.135 2.743 7.969 6.43v.379c-.093.284-.649.567-.927.094-.092-.094-.463-.472-.37.095 0 .568.556.662 0 .946-.556.378-.649.284-.834.378-.278.094-.463.662-.37 1.04.092.284.833 1.23.277 1.135-.093 0-1.112-.662-1.297-1.135a28.198 28.198 0 01-.464-1.229c-.092-.379-.463-.473-.74-.19-.279.19.092.38-.093.852-.186.473-.37.851-.649.473-.834-.946-1.946-.473-2.131-1.514-.093-.567-.556-.472-1.02-.85-.37-.284-.648-.473-.74-.284-.093.189 1.297 1.23 1.39 1.513.092.378-.371.757-.835.851-.463.095-.555-.19-.926-.662-.37-.473-.556-.662-.556-.378 0 .472.37 1.135.741 1.418.37.19.742.284.556.663-.093.378 0 .188-.37.567-.371.378-.464.473-.464 1.04 0 .568-.092.568-.185.946-.556.283-.649-.095-.834.567zm8.803-3.404c.277 0 .648.378.556.472-.186.19-.556.095-.742-.094-.278-.094 0-.378.186-.378zm-.371-.19c-.093 0-.185-.094-.185-.377-.093-.19.092-.284.277-.19.186.095.371.378.371.473-.092.095-.37.095-.463.095zm-3.614-.094c-.185.19-.556.095-.74-.095-.186-.188.091-.472.277-.472.185.094.649.472.463.567zm-3.335 1.702c-.093.19-.371 1.608-.649 1.419-.186-.19.093-1.608.093-1.703.37-.662 1.112-.567.556.284zm1.111 5.485c-.834 0-1.575-.094-2.316-.378-.093-.095-.185-.19-.093-.378.278-.662 1.02-.946 1.576-1.04 1.297-.095 3.057.85 3.335.756.278-.189.834-.945 1.668-.85.556 0 .556.094.741.188-1.297 1.04-3.057 1.702-4.91 1.702zm5.745-2.459c-.092 0-.185 0-.278-.094-.463-.19-.37.189-.649.094-.185-.094.279-.567-.37-.188-.649.472-.463-.095-.742-.852-.277-.756.372-1.607.835-1.797.74-.283 1.112-.283 1.482-.378 1.02-.283 1.205-.851 1.39-.473 0 .095.093.095.093.19.092.094.092.377.092.567-.37 1.135-1.019 2.08-1.853 2.931zm2.224-4.255c-.185-.095-1.112-1.324-.464-2.175.093-.095-.277-.568-.092-.568.37 0 .649.19.741.567v.474c0 .567 0 1.134-.185 1.702zM6.764 4.54v10.875H4.911V7.093L3.614 8.417V6.526l1.668-1.987h1.482zm5.93 2.269v.946c0 .945-.463 1.513-1.204 1.797.926.189 1.297.85 1.297 1.891v1.608c0 1.513-.834 2.459-2.595 2.459-1.852 0-2.501-1.04-2.501-2.743v-1.418h1.668v1.607c0 .662.185 1.04.834 1.04.556 0 .833-.378.833-.945v-1.797c0-.567-.277-.851-.926-.851h-.741V8.984h.648c.556 0 .927-.284.927-.85V6.997c0-.567-.185-.946-.741-.946s-.742.379-.742 1.04v1.136H7.784v-.946c0-1.608.648-2.743 2.501-2.743 1.668-.283 2.41.662 2.41 2.27zm3.614 1.041V5.673c0-.756.37-1.23 1.111-1.23.835 0 1.113.474 1.113 1.136v.567h-.741V5.58c0-.284-.093-.473-.372-.473-.277 0-.37.189-.37.473v2.459c0 .283.093.472.37.472.279 0 .372-.189.372-.472v-.852h.74v.757c0 .662-.277 1.135-1.111 1.135-.741 0-1.112-.568-1.112-1.23zm2.687-3.405h.74v3.877h.928v.662h-1.668v-4.54z" fill="#fff"/><path d="M21.59 4.445h-.65v4.54h.65v-4.54z" fill="#fff"/><path fill-rule="evenodd" clip-rule="evenodd" d="M24.183 5.958l-.556 3.026h-.37L22.7 5.958v3.026h-.649v-4.54h.927l.463 2.554.464-2.553h.926v4.54h-.649V5.957zm1.02 3.026l.834-4.54h.834l.834 4.54h-.742l-.092-.85h-.834l-.093.85h-.74zm.927-1.513h.556l-.279-1.797-.277 1.797zm1.482-3.026h2.038v.567h-.648v3.972h-.742V5.012h-.648v-.567zm2.409 0h1.76v.567h-1.019v1.324h.742v.567h-.742v1.42h1.02v.661h-1.76v-4.54zm-13.806 10.97l.834-4.634h.834l.834 4.634h-.741l-.093-.851h-.834l-.093.851h-.74zm.927-1.513h.556l-.279-1.891-.277 1.891zm1.853.283V12.01c0-.756.37-1.23 1.112-1.23.833 0 1.111.474 1.111 1.136v.473h-.741v-.568c0-.283-.093-.472-.37-.472-.279 0-.371.189-.371.472v2.46c0 .283.092.472.37.472s.371-.189.371-.473v-.851h.741v.851c0 .662-.278 1.135-1.111 1.135-.835 0-1.112-.568-1.112-1.23zm2.409-3.405h2.039v.663h-.65v3.972h-.74v-3.972h-.649v-.662z" fill="#fff"/><path d="M24.462 10.78h-.741v4.635h.74v-4.634z" fill="#fff"/><path fill-rule="evenodd" clip-rule="evenodd" d="M25.018 14.185V12.01c0-.756.37-1.23 1.111-1.23.742 0 1.112.569 1.112 1.23v2.175c0 .757-.37 1.23-1.111 1.23-.742 0-1.112-.568-1.112-1.23zm1.482.095v-2.459c0-.283-.093-.472-.37-.472-.278 0-.371.189-.371.472v2.46c0 .283.093.472.37.472.278 0 .371-.189.371-.473zm1.76-1.797v2.932h-.648v-4.634h.74l.835 2.648V10.78h.648v4.634h-.648l-.927-2.932z" fill="#fff"/><path d="M39.22 4.277H16.43v14.436h22.79V4.277z" fill="#566D79"/><path d="M17.593 4.92h-1.368v.648h.34c.173 0 .33.023.467.069.14.044.257.108.352.19.097.082.17.181.222.299.05.117.076.246.076.388 0 .145-.025.277-.076.397a.857.857 0 01-.222.305 1.004 1.004 0 01-.352.198 1.433 1.433 0 01-.468.071h-.923V4.444h1.952v.476zm-1.368 1.12v.973h.34a.64.64 0 00.235-.04.468.468 0 00.168-.108.411.411 0 00.1-.161.565.565 0 000-.378.367.367 0 00-.1-.148.446.446 0 00-.168-.1.665.665 0 00-.236-.038h-.34zm4.066.148c0 .195-.026.375-.076.539a1.255 1.255 0 01-.222.424 1.027 1.027 0 01-.354.278 1.084 1.084 0 01-.468.098c-.174 0-.328-.033-.464-.098a.984.984 0 01-.341-.278 1.286 1.286 0 01-.212-.424 1.907 1.907 0 01-.072-.539v-.443c0-.194.024-.374.072-.539.049-.164.12-.305.212-.424a.973.973 0 01.34-.28c.134-.066.29-.1.463-.1a1.013 1.013 0 01.824.38c.097.12.17.26.222.424.05.165.076.345.076.54v.442zm-.59-.447c0-.123-.01-.238-.031-.342a.855.855 0 00-.093-.27.48.48 0 00-.166-.175.433.433 0 00-.242-.065.408.408 0 00-.39.24.902.902 0 00-.082.27 2.21 2.21 0 00-.025.342v.447c0 .123.008.236.025.34a.937.937 0 00.083.272c.039.077.09.137.153.18a.416.416 0 00.238.065.434.434 0 00.24-.065.487.487 0 00.164-.178.936.936 0 00.095-.271c.02-.104.031-.219.031-.343v-.447zm1.652.629v1.115h-.582V4.444h1.031c.165 0 .313.025.446.073a.965.965 0 01.337.2.848.848 0 01.215.308c.051.12.077.253.077.4a.93.93 0 01-.076.377.862.862 0 01-.216.3.99.99 0 01-.337.197 1.31 1.31 0 01-.446.07h-.449zm0-.477h.45a.562.562 0 00.215-.037.423.423 0 00.242-.25.514.514 0 00.031-.178c0-.07-.01-.137-.031-.199a.432.432 0 00-.242-.269.541.541 0 00-.216-.04h-.449v.973zm2.511-.325h.34c.174 0 .33.023.468.069a1 1 0 01.352.19c.096.082.17.181.221.299a.96.96 0 01.077.388c0 .145-.026.277-.077.397a.857.857 0 01-.221.305 1.005 1.005 0 01-.352.198 1.433 1.433 0 01-.468.071h-.923V4.444h.583v1.124zm0 .472v.973h.34a.64.64 0 00.236-.04.467.467 0 00.168-.108.41.41 0 00.099-.161.565.565 0 000-.378.365.365 0 00-.1-.148.446.446 0 00-.167-.1.664.664 0 00-.236-.038h-.34zm3.915-1.12h-1.368v.648h.34c.173 0 .33.023.467.069a1 1 0 01.352.19c.097.082.17.181.222.299.05.117.076.246.076.388 0 .145-.025.277-.076.397a.856.856 0 01-.222.305 1.006 1.006 0 01-.352.198 1.427 1.427 0 01-.467.071h-.924V4.444h1.952v.476zm-1.368 1.12v.973h.34a.64.64 0 00.235-.04.461.461 0 00.168-.108.414.414 0 00.1-.161.567.567 0 000-.378.44.44 0 00-.267-.249.665.665 0 00-.236-.037h-.34zm3.445.81h-.905l-.178.635h-.613l.988-3.041h.528l.969 3.041h-.613l-.176-.635zm-.762-.499h.625l-.308-1.12-.317 1.12zm-11.36 4.994a1.15 1.15 0 01-.1.413.947.947 0 01-.558.514c-.13.046-.274.069-.43.069a.99.99 0 01-.822-.376 1.282 1.282 0 01-.216-.43 1.922 1.922 0 01-.074-.552v-.41c0-.2.026-.385.078-.553a1.31 1.31 0 01.224-.43.996.996 0 01.35-.277c.137-.067.292-.1.463-.1.166 0 .313.023.441.07.13.048.24.115.332.203a.937.937 0 01.215.322c.052.126.086.27.1.428h-.58a.949.949 0 00-.042-.239.426.426 0 00-.093-.168.36.36 0 00-.153-.103.606.606 0 00-.22-.035.448.448 0 00-.233.058.468.468 0 00-.166.171.899.899 0 00-.096.278 2.01 2.01 0 00-.03.372v.413c0 .3.04.521.124.664a.428.428 0 00.397.216.51.51 0 00.36-.121c.089-.083.138-.215.147-.397h.582zm4.395-2.09h.584v3.042h-.584v-1.94l-.854 1.94h-.582V9.256h.582v1.942l.855-1.942zm3.261.826a.678.678 0 01-.27.535.956.956 0 01-.198.119.767.767 0 01.381.267.719.719 0 01.133.443.806.806 0 01-.325.662 1.12 1.12 0 01-.365.174 1.724 1.724 0 01-.863.008 1.182 1.182 0 01-.358-.159.879.879 0 01-.257-.276.784.784 0 01-.097-.4h.584a.362.362 0 00.147.294.557.557 0 00.167.09.853.853 0 00.457 0 .542.542 0 00.179-.092.396.396 0 00.11-.136.397.397 0 00.037-.171c0-.163-.045-.28-.137-.354-.09-.072-.222-.108-.397-.108h-.406v-.46h.406c.087 0 .16-.009.221-.029a.394.394 0 00.151-.087.332.332 0 00.087-.134.513.513 0 00.03-.175.39.39 0 00-.032-.155.33.33 0 00-.095-.13.46.46 0 00-.163-.085.713.713 0 00-.232-.034.654.654 0 00-.193.028.499.499 0 00-.155.077.391.391 0 00-.104.121.336.336 0 00-.037.159h-.581c0-.134.027-.254.084-.36a.832.832 0 01.234-.269c.098-.074.211-.13.34-.169.13-.04.267-.06.412-.06.166 0 .319.018.455.056.137.036.253.09.348.165a.738.738 0 01.224.271.843.843 0 01.078.374zm1.151-.825l.286 1.143.325-1.143h.723v3.041h-.535v-.9l.025-1.422-.395 1.32h-.288l-.354-1.264.025 1.366v.9h-.534V9.256h.722zm3.688 1.709H28.99v.858h1.448v.474h-2.031V9.256h2.024v.478h-1.44v.767h1.238v.464zm2.68 1.332h-.575v-1.318h-.853v1.318h-.577V9.256h.577v1.247h.853V9.256h.576v3.041zm2.413-1.332h-1.238v.858h1.447v.474H33.5V9.256h2.024v.478h-1.44v.767h1.238v.464zm2.68 1.332h-.575v-1.318h-.853v1.318h-.578V9.256h.578v1.247h.853V9.256h.575v3.041zm1.953-3.041h.584v3.041h-.584v-1.94l-.855 1.94h-.582V9.256h.582v1.942l.855-1.942zm3.006 1.709h-1.238v.858h1.447v.474h-2.03V9.256h2.024v.478h-1.44v.767h1.237v.464zm1.406-1.71l.285 1.143.325-1.142h.723v3.041h-.534v-.9l.025-1.422-.396 1.32h-.287l-.354-1.264.024 1.366v.9h-.534V9.256h.723zm-27.86 6.605h-.242v1.249h-.582v-3.041h.582v1.339h.142l.789-1.34h.673l-.898 1.465.933 1.577h-.675l-.722-1.249zm3.693-1.792v3.04h-.584v-2.564h-.623l-.01 1.115a3.69 3.69 0 01-.063.675 1.387 1.387 0 01-.157.45.632.632 0 01-.259.247.798.798 0 01-.362.078h-.145v-.472h.083a.295.295 0 00.162-.06.334.334 0 00.095-.164 1.32 1.32 0 00.048-.294c.007-.123.013-.276.016-.46l.012-1.591H20.2zm1.93 0h.583v3.04h-.584v-1.94l-.854 1.94h-.582v-3.04h.582v1.942l.855-1.942zm1.865 0l.285 1.142.326-1.142h.722v3.04h-.534v-.9l.025-1.422-.396 1.32h-.287l-.354-1.263.024 1.366v.9h-.534v-3.041h.723zm3.314 2.406h-.905l-.177.635h-.613l.987-3.041h.529l.968 3.04h-.613l-.176-.634zm-.761-.5h.625l-.308-1.119-.317 1.12zm4.04-1.428h-.929v2.563h-.584v-2.563h-.917v-.478h2.43v.478zm1.815 1.928h-.905l-.178.635h-.613l.988-3.041h.527l.97 3.04h-.614l-.175-.634zm-.763-.5h.626l-.309-1.119-.317 1.12z" fill="#fff"/></g></g><defs><clipPath id="clip0_590_187"><path fill="#fff" d="M0 0h53v54H0z"/></clipPath></defs></svg>