<svg width="53" height="54" fill="none" xmlns="http://www.w3.org/2000/svg"><g clip-path="url(#clip0_590_212)"><path d="M53 0H0v54h53V0z" fill="#566D79"/><path fill-rule="evenodd" clip-rule="evenodd" d="M22.277 36.505c.092 0 .092.094.092.094v3.972c0 .095-.092.095-.092.095h-1.578c-.093 0-.093-.095-.093-.095V36.6c0-.094.093-.094.093-.094h1.578zm17.264 5.768H13.738c-.093 0-.093.095-.093.095v1.702c0 .095.093.095.093.095H39.54c.093 0 .093-.095.093-.095v-1.702c.093 0 0-.095-.093-.095zm0 3.31H13.738c-.093 0-.093.095-.093.095v1.607c0 .095.093.095.093.095H39.54c.093 0 .093-.095.093-.095v-1.607c.093 0 0-.095-.093-.095zm-4.92-13.429c-.278-.284-1.206-.851-2.227-.851-.743 0-1.485.284-2.042.946 0 0-.093.094-.093.189v.189c0 .063.03.126.093.189.093 0 .093.095.186 0h.092s.093 0 .093-.095c.093-.094.464-.188 1.021-.188.557 0 1.67.188 2.692 1.134a.284.284 0 00.185.095c.093 0 .186 0 .186-.095a3.646 3.646 0 012.692-1.134c.557 0 .928.094 1.02.188 0 0 .094.095.187.095h.185c.093 0 .186-.095.186-.19v-.093c0-.063-.03-.127-.093-.19-.65-.567-1.392-.945-2.135-.945-1.02-.095-1.949.472-2.228.756zm-1.577-10.497c-.093 0-.093.094-.093.094v.284c0 .094.093.094.186.094h.278c.093 0 1.114 0 1.856 1.23 0 .094.093.094.186.094h.186a2.43 2.43 0 011.114-.283c.65 0 1.114.283 1.206.378 0 0 0 .095.093.095h.186c.093 0 .093-.095.093-.095v-.284c-.465-.85-1.207-1.04-1.764-1.04-.371 0-.742.095-.928.19-.279-.285-.836-.947-1.764-.947-.185 0-.464 0-.835.19zm-5.477 4.066v.095c0 .063.031.126.093.19.093 0 .093.094.186 0 .092 0 .092-.096.092-.096.093-.094.464-.189 1.021-.189.464 0 1.3.095 2.043.757.061.063.123.094.185.094.093 0 .186-.094.186-.094.835-.852 1.763-1.04 2.32-1.04.371 0 .557.094.65.094l.093.095h.186c.092 0 .185-.095.185-.19v-.094c0-.063-.031-.095-.093-.095-.556-.378-1.114-.661-1.67-.661-.929 0-1.671.472-1.95.756-.278-.19-.928-.568-1.763-.568-.743 0-1.3.284-1.857.851.093-.094.093 0 .093.095zM14.48 27.804c0-1.608 1.299-2.837 2.784-2.837h.186c.185-1.986 1.763-3.594 3.806-3.594 2.041 0 3.805 1.702 3.805 3.878 0 .567-.186 1.134-.371 1.702 1.856.473 3.34 2.175 3.34 4.255 0 2.364-1.855 4.35-4.268 4.35H18.1c-1.671 0-2.97-1.323-2.97-3.025 0-.852.278-1.514.835-2.081-.836-.662-1.486-1.513-1.486-2.648zM3.805 6.43v1.892l1.3-1.324v8.417h1.763V4.445H5.476L3.806 6.43zm7.333 1.42c-.743 0-1.207.283-1.485.756V5.864h3.063V4.35H7.982v6.241h1.67v-.284c0-.662.28-1.04.743-1.04.557 0 .743.378.743.946v2.648c0 .567-.186.945-.743.945-.65 0-.835-.378-.835-1.04V11.35H7.982v1.229c0 1.702.65 2.743 2.506 2.743 1.764 0 2.507-.946 2.507-2.554V10.12c0-1.513-.929-2.27-1.857-2.27zm5.755-3.405h.743v3.877h.928v.662h-1.67v-4.54z" fill="#fff"/><path d="M19.585 4.445h-.743v4.54h.743v-4.54z" fill="#fff"/><path fill-rule="evenodd" clip-rule="evenodd" d="M19.956 4.445h1.764v.567h-1.021v1.324h.835v.567H20.7v2.081h-.743v-4.54zm2.135 0h1.764v.567h-1.021v1.324h.742v.567h-.742v1.42h1.02v.661h-1.763v-4.54zm-5.198 9.74V12.01c0-.756.371-1.23 1.114-1.23.742 0 1.114.569 1.114 1.23v2.175c0 .757-.372 1.23-1.114 1.23-.835 0-1.114-.568-1.114-1.23zm1.485.095v-2.459c0-.283-.093-.472-.371-.472-.279 0-.371.189-.371.472v2.46c0 .283.092.472.37.472.186 0 .372-.189.372-.473zm1.764-1.797v2.932h-.65v-4.634h.743l.928 2.648V10.78h.557v4.634h-.65l-.928-2.932zm3.434-1.703h.742v3.973h.928v.662h-1.67v-4.634zm1.857 4.635l.835-4.634h.835l.836 4.634h-.743l-.186-.851h-.835l-.093.851h-.65zm.928-1.513h.65l-.28-1.891-.37 1.891zm2.599-1.419v2.932h-.65v-4.634h.743l.742 2.648V10.78h.65v4.634h-.65l-.835-2.932zm4.176-.473v2.175c0 .757-.278 1.23-1.113 1.23h-1.114v-4.634h1.114c.835 0 1.113.473 1.113 1.23zm-1.206 2.743c.279 0 .464-.189.464-.473v-2.459c0-.283-.093-.472-.464-.472h-.279v3.404h.279z" fill="#fff"/><path d="M41.758 3.743H14.455v11.762h27.303V3.743z" fill="#566D79"/><path d="M17.914 6.533c-.01.153-.044.29-.1.413a.949.949 0 01-.565.514 1.309 1.309 0 01-.435.069c-.18 0-.34-.033-.48-.098a1 1 0 01-.35-.278 1.279 1.279 0 01-.218-.43 1.905 1.905 0 01-.075-.552v-.41c0-.2.026-.385.08-.552a1.29 1.29 0 01.225-.43.994.994 0 01.353-.278c.14-.067.296-.1.469-.1a1.3 1.3 0 01.445.07.945.945 0 01.335.203.937.937 0 01.217.322 1.4 1.4 0 01.1.428h-.585a.94.94 0 00-.042-.238.426.426 0 00-.094-.17.365.365 0 00-.154-.102.618.618 0 00-.222-.035.46.46 0 00-.236.058.47.47 0 00-.168.172.891.891 0 00-.096.277 1.981 1.981 0 00-.031.372v.413c0 .3.041.521.125.664.085.144.219.216.402.216.153 0 .274-.04.364-.121.089-.083.138-.215.148-.397h.588zm2.582-.345c0 .195-.025.375-.077.539a1.252 1.252 0 01-.224.424 1.037 1.037 0 01-.357.278c-.14.065-.297.098-.473.098s-.332-.033-.468-.098a.993.993 0 01-.346-.278 1.28 1.28 0 01-.213-.424 1.888 1.888 0 01-.073-.539v-.443c0-.194.024-.374.073-.539a1.26 1.26 0 01.213-.424.981.981 0 01.812-.38 1.03 1.03 0 01.832.38c.098.12.172.26.224.424.052.165.077.345.077.54v.442zm-.596-.447c0-.123-.01-.238-.031-.342a.85.85 0 00-.094-.27.48.48 0 00-.167-.175.44.44 0 00-.245-.065.415.415 0 00-.393.24.89.89 0 00-.084.27 2.184 2.184 0 00-.025.342v.447c0 .122.008.236.025.34a.925.925 0 00.084.272c.039.077.09.137.155.18a.423.423 0 00.24.065.442.442 0 00.408-.243.934.934 0 00.096-.271 1.83 1.83 0 00.031-.343v-.447zm2.075-.206l.542-1.091h.69l-.858 1.508.879 1.533h-.687l-.558-1.107-.556 1.107h-.694l.878-1.533-.855-1.508h.686l.533 1.09zm2.166.835v1.115h-.587V4.444h1.04c.167 0 .317.025.45.073a.984.984 0 01.342.2.848.848 0 01.217.308c.052.12.078.253.078.399a.914.914 0 01-.295.678 1.01 1.01 0 01-.341.197 1.336 1.336 0 01-.45.07h-.453zm0-.477h.454a.574.574 0 00.218-.037.438.438 0 00.152-.102.406.406 0 00.092-.149.51.51 0 00.032-.177c0-.07-.01-.137-.032-.199a.438.438 0 00-.244-.27.552.552 0 00-.218-.039h-.453v.973zm3.444.957h-.913l-.18.635h-.62l.998-3.041h.534l.979 3.041h-.62l-.178-.635zm-.769-.499h.632l-.312-1.12-.32 1.12zm3.854 1.134h-.581V6.167h-.862v1.318h-.583V4.444h.583v1.247h.862V4.444h.581v3.041zm2.436-1.332h-1.25v.858h1.461v.474h-2.051V4.444h2.046v.479h-1.456v.766h1.25v.464zm2.708 1.332h-.581V6.167h-.861v1.318h-.584V4.444h.584v1.247h.86V4.444h.582v3.041zm1.972-3.041h.59v3.041h-.59v-1.94l-.863 1.94h-.588V4.444h.588v1.942l.863-1.942zm3.037 1.709h-1.25v.858h1.461v.474h-2.051V4.444h2.045v.479h-1.456v.766h1.251v.464zm-24.637 5.133a.65.65 0 00.021.246.452.452 0 00.454.338c.083 0 .16-.013.228-.04a.413.413 0 00.174-.135.669.669 0 00.108-.24c.027-.097.04-.216.04-.357v-.082h-.801v-.473h.8v-.082c0-.134-.012-.25-.037-.347a.668.668 0 00-.104-.24.413.413 0 00-.165-.142.496.496 0 00-.216-.046.622.622 0 00-.228.04.417.417 0 00-.163.117.463.463 0 00-.094.186.75.75 0 00-.019.25h-.587a1.043 1.043 0 01.295-.754c.094-.097.208-.173.342-.229.136-.057.287-.086.454-.086.164 0 .312.03.448.088a.97.97 0 01.351.247c.098.107.174.238.228.394.054.155.082.328.082.522v.633c0 .195-.027.37-.08.524a1.096 1.096 0 01-.228.39.98.98 0 01-.358.245 1.23 1.23 0 01-.47.086c-.155 0-.298-.024-.431-.071a.92.92 0 01-.56-.537 1.12 1.12 0 01-.071-.445h.587zm3.06-.238H19v1.249h-.587V9.256H19v1.339h.145l.796-1.34h.68l-.908 1.465.943 1.577h-.682l-.73-1.249zM23.069 11c0 .195-.026.375-.078.539a1.232 1.232 0 01-.224.424 1.03 1.03 0 01-.83.376c-.176 0-.332-.033-.468-.098a.987.987 0 01-.345-.278 1.277 1.277 0 01-.213-.424 1.867 1.867 0 01-.074-.54v-.442c0-.194.024-.374.074-.539.048-.164.12-.305.213-.424a.982.982 0 01.811-.38 1.03 1.03 0 01.832.38c.098.119.173.26.224.424.052.165.078.345.078.54V11zm-.596-.447c0-.124-.011-.238-.032-.342a.838.838 0 00-.094-.27.484.484 0 00-.167-.175.441.441 0 00-.245-.065.418.418 0 00-.393.24.877.877 0 00-.084.27 2.182 2.182 0 00-.025.342V11c0 .122.009.236.025.34a.91.91 0 00.084.272c.039.076.09.136.154.18a.425.425 0 00.241.064.44.44 0 00.408-.242.916.916 0 00.096-.271c.021-.105.032-.22.032-.343v-.447zm3.157.792a1.15 1.15 0 01-.1.413.956.956 0 01-.565.514 1.308 1.308 0 01-.435.069c-.18 0-.34-.033-.479-.099a.993.993 0 01-.35-.277 1.27 1.27 0 01-.219-.43 1.927 1.927 0 01-.075-.552v-.41c0-.2.027-.385.08-.553.053-.166.128-.31.226-.43a.991.991 0 01.353-.277 1.07 1.07 0 01.468-.101 1.3 1.3 0 01.446.071.945.945 0 01.334.203.937.937 0 01.218.322 1.4 1.4 0 01.1.428h-.585a.94.94 0 00-.042-.239.426.426 0 00-.094-.169.365.365 0 00-.155-.102.617.617 0 00-.222-.035.46.46 0 00-.236.058.474.474 0 00-.167.171.881.881 0 00-.096.278 1.94 1.94 0 00-.032.372v.413c0 .3.042.521.126.664.085.144.219.216.401.216a.52.52 0 00.364-.121c.09-.083.139-.215.148-.397h.588zm1.868-2.09h.59v3.042h-.59v-1.94l-.864 1.94h-.588V9.256h.588v1.942l.864-1.942zm3.276 2.09a1.13 1.13 0 01-.1.413.95.95 0 01-.564.514 1.305 1.305 0 01-.435.069c-.18 0-.34-.033-.48-.099a.997.997 0 01-.35-.277 1.269 1.269 0 01-.218-.43 1.905 1.905 0 01-.075-.552v-.41c0-.2.026-.385.079-.553a1.29 1.29 0 01.226-.43 1.01 1.01 0 01.353-.277c.14-.067.296-.101.47-.101.166 0 .314.024.445.071a.95.95 0 01.334.203.945.945 0 01.218.322c.053.126.086.27.1.428h-.585a.965.965 0 00-.043-.239.424.424 0 00-.094-.169.368.368 0 00-.154-.102.622.622 0 00-.222-.035.46.46 0 00-.236.058.469.469 0 00-.168.171.879.879 0 00-.096.278 1.98 1.98 0 00-.031.372v.413c0 .3.041.521.125.664.085.144.22.216.402.216.153 0 .274-.04.363-.121.09-.083.139-.215.15-.397h.587zm2.697-1.61h-.94v2.562h-.59V9.734h-.926v-.478h2.456v.478zm2.208 1.23h-1.25v.858h1.46v.474h-2.05V9.256h2.044v.478h-1.455v.767h1.25v.464zm1.42-1.71l.288 1.143.328-1.142h.73v3.041h-.54v-.9l.026-1.423-.4 1.32h-.29l-.358-1.263.025 1.366v.9h-.54V9.256h.73zm-19.185 6.902c-.01.153-.044.29-.1.413a.947.947 0 01-.565.514 1.308 1.308 0 01-.435.069c-.18 0-.34-.033-.48-.099a.999.999 0 01-.35-.277 1.278 1.278 0 01-.218-.43 1.905 1.905 0 01-.075-.552v-.41c0-.2.026-.385.08-.553a1.29 1.29 0 01.225-.43c.097-.12.215-.212.353-.278.14-.066.296-.1.469-.1a1.3 1.3 0 01.445.071.945.945 0 01.335.203.936.936 0 01.217.322c.053.126.087.269.1.428h-.585a.94.94 0 00-.042-.239.425.425 0 00-.094-.169.365.365 0 00-.154-.102.619.619 0 00-.222-.036.46.46 0 00-.236.059.469.469 0 00-.168.171.892.892 0 00-.096.278 1.967 1.967 0 00-.031.372v.413c0 .3.041.521.125.664a.435.435 0 00.402.216c.153 0 .274-.04.364-.122.089-.082.138-.214.148-.396h.588zm1.296-1.044l.199.56.635-1.605h.64l-1.083 2.464a1.67 1.67 0 01-.127.236.842.842 0 01-.174.199.76.76 0 01-.236.135.915.915 0 01-.32.05c-.099 0-.187-.008-.263-.024a3.242 3.242 0 01-.184-.042l.037-.46.065.02.082.016.085.014a.755.755 0 00.26-.016.422.422 0 00.129-.058.342.342 0 00.09-.09.496.496 0 00.06-.122l.06-.13-1.063-2.192h.636l.472 1.045zm2.202-1.045v2.569h.293v-2.57h.554v2.57h.289v-2.57h.57v3.042H20.84v-3.041h.573zm3.514 0h.59v3.04h-.59v-1.94l-.864 1.94h-.588v-3.04h.588v1.942l.864-1.942z" fill="#fff"/></g><defs><clipPath id="clip0_590_212"><path fill="#fff" d="M0 0h53v54H0z"/></clipPath></defs></svg>