<svg width="54" height="54" fill="none" xmlns="http://www.w3.org/2000/svg"><g clip-path="url(#clip0_590_431)"><path d="M54 0H0v54h54V0z" fill="#566D79"/><path fill-rule="evenodd" clip-rule="evenodd" d="M38.495 36.041c0-2.979-2.47-5.436-5.557-5.585-.772-2.16-2.933-3.723-5.403-3.723-2.47 0-4.631 1.564-5.404 3.723-3.087.075-5.557 2.532-5.557 5.585 0 1.788.85 3.352 2.239 4.394A5.48 5.48 0 0018.58 42c0 3.053 2.624 5.585 5.789 5.585a5.903 5.903 0 003.242-.968c.926.596 2.007.968 3.164.968 3.165 0 5.79-2.457 5.79-5.585 0-.521-.078-1.042-.232-1.49 1.312-1.116 2.161-2.68 2.161-4.468zm-6.406-3.723c0 2.234-1.698 4.096-3.937 4.393 0-.223-.077-.446-.077-.67 0-2.234 1.698-4.095 3.936-4.393.078.223.078.447.078.67zm-4.554 12.809c-.85-.82-1.39-1.937-1.39-3.203 0-1.19.54-2.308 1.39-3.127.849.819 1.39 1.936 1.39 3.202 0 1.191-.541 2.308-1.39 3.128zm-4.555-13.48c2.239.299 3.937 2.16 3.937 4.395 0 .223 0 .446-.077.67-2.238-.298-3.936-2.16-3.936-4.394 0-.223.076-.447.076-.67zm3.397 6.405c-.772 1.415-2.316 2.458-4.091 2.458-.772 0-1.467-.15-2.084-.522.772-1.49 2.315-2.457 4.091-2.457.771 0 1.467.149 2.084.52zm2.238-.075c.618-.297 1.39-.52 2.161-.52 1.776 0 3.397 1.042 4.091 2.457-.617.298-1.39.521-2.16.521-1.776.075-3.32-.968-4.092-2.458zm-1.08-10.053c1.852 0 3.473 1.117 4.245 2.681-1.853.298-3.473 1.49-4.245 3.128-.772-1.638-2.316-2.83-4.245-3.128.694-1.564 2.315-2.68 4.245-2.68zm-9.803 8.117c0-2.308 1.775-4.17 4.09-4.393 0 .223-.076.447-.076.744 0 1.639.694 3.053 1.852 4.096-1.93.223-3.55 1.34-4.4 2.905-.926-.894-1.466-2.011-1.466-3.352zM19.739 42c0-.298 0-.596.077-.894.772.373 1.62.522 2.47.522a5.88 5.88 0 002.778-.67c-.076.297-.076.67-.076 1.042 0 1.49.617 2.904 1.62 3.872a4.846 4.846 0 01-2.315.596c-2.547-.075-4.554-2.085-4.554-4.468zm15.591-.075c0 2.458-2.084 4.468-4.63 4.468a4.334 4.334 0 01-2.24-.595c1.004-.968 1.545-2.309 1.545-3.798 0-.373 0-.745-.078-1.042a5.89 5.89 0 002.78.67 5.24 5.24 0 002.469-.596c.154.298.154.596.154.893zm-3.859-5.51c1.158-1.043 1.852-2.458 1.852-4.096 0-.223 0-.447-.077-.745 2.316.223 4.091 2.16 4.091 4.394 0 1.266-.617 2.458-1.544 3.277-.849-1.49-2.47-2.607-4.322-2.83zM8.119 4.54v10.875H6.325V7.093L5.003 8.417V6.526l1.7-1.987H8.12zm.849 0h4.627v1.702l-2.455 9.173H9.346l2.455-9.362H8.968V4.539zm8.592-.095h1.133c.754 0 1.038.378 1.038 1.04v.946c0 .662-.284 1.04-1.039 1.04h-.378v1.513h-.754v-4.54zm.755.567V6.81h.283c.283 0 .377-.094.377-.378V5.39c0-.284-.094-.379-.377-.379h-.284zm1.416 3.972l.85-4.54h.85l.85 4.54h-.756l-.189-.85h-.85l-.094.85h-.661zm.944-1.513h.661l-.283-1.797-.378 1.797zm2.738-.568v2.081h-.755v-4.54h1.133c.755 0 1.038.38 1.038 1.041v.567c0 .473-.189.757-.566.851l.755 2.081h-.755l-.85-2.08zm0-1.89V6.43h.283c.283 0 .378-.095.378-.379V5.39c0-.283-.095-.378-.378-.378h-.283zm1.699-.568h2.077v.567h-.66v3.972h-.756V5.012h-.66v-.567zm3.021 1.607v2.932h-.566v-4.54h.66l.85 2.554V4.445h.566v4.54h-.566l-.944-2.933zm1.982-1.607h1.794v.567h-1.038v1.324h.755v.567h-.755v1.42h1.038v.661h-1.794v-4.54zm3.021 2.458v2.081h-.755v-4.54h1.133c.755 0 1.039.38 1.039 1.041v.567c0 .473-.19.757-.567.851l.755 2.081h-.755l-.85-2.08zm0-1.89V6.43h.284c.282 0 .377-.095.377-.379V5.39c0-.283-.094-.378-.377-.378h-.284zm1.794 3.026V7.47h.661v.662c0 .284.095.378.377.378.19 0 .378-.188.378-.378v-.189c0-.284-.094-.378-.283-.662l-.472-.473c-.472-.378-.66-.662-.66-1.23V5.39c0-.567.283-1.04 1.038-1.04.755 0 1.038.379 1.038 1.04v.379h-.66V5.39c0-.283-.095-.378-.379-.378-.188 0-.377.095-.377.378v.095c0 .284.189.379.377.567l.473.474c.378.472.566.661.566 1.134v.19c0 .661-.378 1.04-1.133 1.04s-.944-.284-.944-.851zm4.06-1.136h-.756v2.081h-.755v-4.54h.755v1.892h.755V4.445h.755v4.54h-.755V6.902z" fill="#fff"/><path d="M40.972 4.445h-.755v4.54h.755v-4.54z" fill="#fff"/><path fill-rule="evenodd" clip-rule="evenodd" d="M41.35 4.445h1.133c.755 0 1.133.378 1.133 1.04v.946c0 .662-.284 1.04-1.133 1.04h-.378v1.513h-.755v-4.54zm.755.567V6.81h.283c.283 0 .377-.094.377-.378V5.39c0-.284-.094-.379-.377-.379h-.283zm1.888 3.027V7.47h.66v.662c0 .284.096.378.378.378a.407.407 0 00.378-.378v-.189c0-.284-.094-.378-.378-.662l-.472-.473c-.471-.378-.66-.662-.66-1.23V5.39c0-.567.283-1.04 1.038-1.04.755 0 1.039.379 1.039 1.04v.379h-.661V5.39c0-.283-.095-.378-.378-.378-.188 0-.378.095-.378.378v.095c0 .284.095.379.378.567l.472.474c.378.472.567.661.567 1.134v.19c0 .661-.284 1.04-1.133 1.04-.85 0-.85-.284-.85-.851zM17.56 10.78h1.793v.663h-1.039v1.324h.756v.567h-.756v2.081h-.754v-4.634zm2.077 3.405V12.01c0-.756.377-1.23 1.227-1.23.85 0 1.227.569 1.227 1.23v2.175c0 .757-.378 1.23-1.227 1.23-.85 0-1.227-.568-1.227-1.23zm1.51.095v-2.459c0-.283-.095-.472-.378-.472-.283 0-.377.189-.377.472v2.46c0 .283.094.472.377.472.284 0 .378-.189.378-.473zm2.077-1.04v2.175h-.756v-4.634h1.133c.756 0 1.039.378 1.039 1.04v.568c0 .473-.19.85-.567.945l.756 2.081h-.756l-.85-2.175zm0-1.797v1.419h.283c.283 0 .378-.19.378-.379v-.662c0-.283-.095-.378-.378-.378h-.283zm2.36-.663h2.077v.663h-.66v3.972h-.756v-3.972h-.66v-.662zm3.871 2.554h-.756v2.081h-.755v-4.634h.755v1.986h.756v-1.986h.755v4.634h-.755v-2.08zm1.227-2.554h1.794v.663h-1.039v1.324h.756v.567h-.756v1.42h1.039v.661h-1.794v-4.634zm4.154 2.176h1.133v2.46h-.66v-.474c-.096.379-.284.568-.756.568-.661 0-.945-.473-.945-1.23v-2.175c0-.756.378-1.23 1.133-1.23.85 0 1.133.474 1.133 1.136v.378h-.755v-.473c0-.283-.094-.473-.378-.473-.283 0-.377.19-.377.473v2.364c0 .284.094.473.377.473.284 0 .378-.094.378-.473v-.851h-.378v-.473h.095zm1.416 1.229V12.01c0-.756.377-1.23 1.226-1.23.85 0 1.228.569 1.228 1.23v2.175c0 .757-.378 1.23-1.228 1.23s-1.227-.568-1.227-1.23zm1.604.095v-2.459c0-.283-.094-.472-.378-.472-.283 0-.377.189-.377.472v2.46c0 .283.094.472.377.472.284 0 .378-.189.378-.473zm1.039 1.135l.85-4.634h.85l.85 4.634h-.756l-.095-.851h-.85l-.093.851h-.756zm.944-1.513h.566l-.282-1.891-.284 1.891zm1.888-3.122h.756v3.973h.944v.662h-1.7v-4.634zm1.983 3.595v-.568h.66v.662c0 .284.095.379.378.379.189 0 .378-.19.378-.379v-.189c0-.283-.094-.378-.378-.662l-.472-.472c-.472-.379-.66-.662-.66-1.23v-.189c0-.568.283-1.04 1.038-1.04.755 0 1.038.378 1.038 1.04v.378h-.66v-.378c0-.284-.095-.378-.378-.378-.19 0-.378.094-.378.378v.094c0 .284.189.379.377.568l.473.473c.378.473.566.662.566 1.135v.188c0 .663-.283 1.041-1.133 1.041-.85 0-.85-.283-.85-.851z" fill="#fff"/><path d="M52.396 4.277H13.9v16.575h38.495V4.277z" fill="#566D79"/><path d="M18.326 7.485h-.586V4.92h-.86v2.565h-.587V4.444h2.033v3.041zm2.051-.635h-.912l-.18.635h-.618l.996-3.041h.532l.978 3.041h-.618l-.178-.635zm-.768-.499h.63l-.31-1.12-.32 1.12zm2.466.019v1.115h-.587V4.444h1.04c.167 0 .316.025.45.073a.975.975 0 01.34.2.848.848 0 01.217.308c.052.12.078.253.078.399a.921.921 0 01-.078.378.862.862 0 01-.217.3 1 1 0 01-.34.197 1.333 1.333 0 01-.45.07h-.453zm0-.477h.454a.571.571 0 00.217-.037.427.427 0 00.244-.25.512.512 0 00.032-.178.62.62 0 00-.032-.199.431.431 0 00-.244-.27.55.55 0 00-.217-.039h-.454v.973zm4.18-.97h-.938v2.562h-.59V4.922h-.924v-.478h2.451v.479zm2.34 2.562h-.58V6.167h-.86v1.318h-.583V4.444h.583v1.247h.86V4.444h.58v3.041zm2.434-1.332h-1.25v.858h1.46v.474h-2.048V4.444h2.043v.479H29.78v.766h1.249v.464zm1.322.217v1.115h-.587V4.444h1.04c.165 0 .315.025.449.073a.977.977 0 01.34.2.841.841 0 01.217.308c.052.12.078.253.078.399a.914.914 0 01-.295.678.997.997 0 01-.34.197 1.332 1.332 0 01-.45.07h-.452zm0-.477h.453a.572.572 0 00.217-.037.436.436 0 00.245-.25.512.512 0 00.03-.178c0-.07-.01-.137-.03-.199a.438.438 0 00-.245-.27.55.55 0 00-.217-.039h-.453v.973zm4.056.64a1.15 1.15 0 01-.1.413.948.948 0 01-.564.514 1.305 1.305 0 01-.435.069c-.18 0-.339-.033-.478-.098a.993.993 0 01-.351-.278 1.28 1.28 0 01-.217-.43 1.908 1.908 0 01-.076-.552v-.41c0-.2.027-.385.08-.552.053-.167.128-.311.226-.43a1 1 0 01.352-.278c.14-.067.296-.1.468-.1a1.3 1.3 0 01.445.07.943.943 0 01.334.203.937.937 0 01.217.322 1.4 1.4 0 01.1.428h-.584a.995.995 0 00-.042-.238.426.426 0 00-.094-.17.367.367 0 00-.154-.102.62.62 0 00-.222-.035c-.09 0-.17.019-.236.058a.468.468 0 00-.167.172.88.88 0 00-.096.277 2.07 2.07 0 00-.031.372v.413c0 .3.042.521.125.664.085.144.219.216.401.216.154 0 .274-.04.364-.121.088-.083.138-.215.148-.397h.587zm2.692-1.61h-.938v2.562h-.59V4.922h-.924v-.478h2.452v.479zm.33 2.562V4.444h1.02a1.9 1.9 0 01.452.05c.136.034.253.085.349.153.096.068.17.154.221.259.053.104.08.228.08.37a.68.68 0 01-.443.639.695.695 0 01.227.1.605.605 0 01.159.159.6.6 0 01.094.198.933.933 0 01-.044.608.75.75 0 01-.215.28.947.947 0 01-.34.169 1.672 1.672 0 01-.451.056h-1.11zm.589-1.34v.866h.522c.16-.001.282-.04.365-.117a.395.395 0 00.128-.305.438.438 0 00-.113-.326c-.077-.078-.195-.117-.355-.119h-.547zm0-.425h.436c.163 0 .288-.035.376-.102a.352.352 0 00.134-.295c0-.142-.044-.243-.132-.304-.088-.063-.214-.095-.38-.096h-.434v.797zm4.105.468c0 .195-.025.375-.077.539a1.253 1.253 0 01-.223.424 1.031 1.031 0 01-.83.376c-.175 0-.33-.033-.467-.098a.984.984 0 01-.344-.278 1.27 1.27 0 01-.214-.424 1.892 1.892 0 01-.073-.539v-.443c0-.194.025-.374.073-.539a1.25 1.25 0 01.214-.424.979.979 0 01.81-.38 1.03 1.03 0 01.831.38c.097.12.172.26.223.424.052.165.077.345.077.54v.442zm-.595-.447c0-.123-.01-.238-.031-.342a.85.85 0 00-.094-.27.48.48 0 00-.167-.175.44.44 0 00-.244-.065.415.415 0 00-.393.24.88.88 0 00-.083.27 2.125 2.125 0 00-.025.342v.447c0 .122.008.236.025.34a.913.913 0 00.083.272c.04.077.09.137.155.18a.423.423 0 00.24.065.44.44 0 00.407-.243.92.92 0 00.096-.271 1.71 1.71 0 00.031-.343v-.447zM16.31 12.297V9.256h1.021c.166 0 .316.017.452.05.136.034.252.085.348.153.096.068.17.154.222.259a.82.82 0 01.08.37.69.69 0 01-.116.382.684.684 0 01-.328.256.693.693 0 01.228.1.606.606 0 01.159.16c.043.06.074.126.094.198a.935.935 0 01-.044.608.752.752 0 01-.215.28.948.948 0 01-.34.169 1.67 1.67 0 01-.452.056H16.31zm.589-1.34v.866h.522c.16-.001.282-.04.366-.117a.397.397 0 00.127-.305.438.438 0 00-.113-.326c-.076-.078-.195-.117-.355-.119h-.547zm0-.425h.437c.163-.001.288-.035.375-.102.088-.067.133-.165.134-.295 0-.142-.044-.243-.131-.304-.088-.063-.215-.095-.38-.097h-.435v.798zm5.96-1.276h.59v3.041h-.59v-1.94l-.862 1.94h-.587V9.256h.587v1.942l.863-1.942zm3.169 3.041h-.58v-1.318h-.861v1.318h-.583V9.256h.583v1.247h.86V9.256h.581v3.041zm2.796-2.563h-.938v2.563h-.588V9.734h-.926v-.478h2.452v.478zm2.206 1.23h-1.25v.859h1.46v.474h-2.048V9.256h2.043v.478H29.78v.767h1.249v.464zm1.322.218v1.115h-.587V9.256h1.04c.165 0 .315.024.449.073a.977.977 0 01.34.2.841.841 0 01.217.307c.052.12.078.253.078.4a.914.914 0 01-.295.678.997.997 0 01-.34.197 1.332 1.332 0 01-.45.07h-.452zm0-.477h.453a.572.572 0 00.217-.037.436.436 0 00.153-.102.406.406 0 00.092-.149.511.511 0 00.03-.177c0-.07-.01-.137-.03-.199a.438.438 0 00-.245-.27.55.55 0 00-.217-.039h-.453v.973zm3.816.26h-1.25v.858h1.46v.474h-2.049V9.256h2.043v.478h-1.453v.767h1.249v.464zm2.808.38a1.15 1.15 0 01-.1.413.95.95 0 01-.564.514 1.302 1.302 0 01-.434.069 1.11 1.11 0 01-.479-.099.996.996 0 01-.35-.277 1.27 1.27 0 01-.217-.43 1.905 1.905 0 01-.076-.552v-.41c0-.2.027-.385.08-.553a1.28 1.28 0 01.225-.43 1.01 1.01 0 01.353-.277 1.07 1.07 0 01.468-.101c.167 0 .315.024.445.071.13.048.242.115.334.203a.945.945 0 01.217.322 1.4 1.4 0 01.1.428h-.584a.965.965 0 00-.042-.239.424.424 0 00-.094-.169.367.367 0 00-.154-.102.62.62 0 00-.222-.035.46.46 0 00-.236.058.468.468 0 00-.167.171.879.879 0 00-.096.278 1.98 1.98 0 00-.032.372v.413c0 .3.043.521.126.664.085.144.219.216.401.216a.52.52 0 00.363-.121c.09-.083.14-.215.149-.397h.586zm1.953.317h-.912l-.18.635h-.618l.996-3.041h.532l.978 3.041h-.618l-.178-.635zm-.768-.499h.63l-.31-1.12-.32 1.12zm2.871-.816l.541-1.091h.69l-.857 1.508.877 1.533h-.685l-.557-1.107-.556 1.107h-.693l.877-1.533-.854-1.508h.685l.532 1.09zm-25.88 4.766l.198.56.635-1.605h.64l-1.082 2.464c-.037.083-.08.161-.128.236a.814.814 0 01-.729.385c-.099 0-.187-.009-.263-.025a3.318 3.318 0 01-.184-.042l.037-.46.065.02.082.016.085.014a.767.767 0 00.26-.016.36.36 0 00.22-.148.513.513 0 00.06-.122l.058-.13-1.061-2.192h.635l.472 1.045zm3.843 1.044a1.15 1.15 0 01-.1.413.946.946 0 01-.565.514 1.3 1.3 0 01-.434.069 1.11 1.11 0 01-.479-.099.995.995 0 01-.35-.277 1.277 1.277 0 01-.217-.43 1.904 1.904 0 01-.076-.552v-.41c0-.2.027-.385.08-.553.053-.167.128-.31.226-.43a1.011 1.011 0 01.82-.378 1.3 1.3 0 01.445.071.943.943 0 01.334.203.937.937 0 01.217.322c.053.126.087.269.1.428h-.584a.995.995 0 00-.042-.239.424.424 0 00-.094-.169.368.368 0 00-.154-.102.62.62 0 00-.222-.036.46.46 0 00-.236.059.468.468 0 00-.167.171.88.88 0 00-.096.278c-.02.108-.031.232-.031.372v.413c0 .3.042.521.125.664a.434.434 0 00.401.216c.153 0 .274-.04.364-.122.088-.082.138-.214.148-.396h.587zm2.692-1.61h-.938v2.562h-.59v-2.563h-.924v-.478h2.452v.478zm2.456 1.265c0 .195-.026.375-.078.539a1.243 1.243 0 01-.223.424 1.03 1.03 0 01-.83.376c-.175 0-.33-.033-.467-.098a.983.983 0 01-.344-.278 1.27 1.27 0 01-.214-.424 1.892 1.892 0 01-.073-.54v-.442c0-.194.025-.374.073-.539a1.25 1.25 0 01.214-.424.978.978 0 01.81-.38c.176 0 .335.034.474.1.14.067.26.16.357.28.097.119.172.26.223.424a1.8 1.8 0 01.078.54v.442zm-.596-.447c0-.124-.01-.238-.03-.342a.85.85 0 00-.095-.27.48.48 0 00-.167-.175.44.44 0 00-.245-.065.415.415 0 00-.392.24.879.879 0 00-.083.27 2.126 2.126 0 00-.025.342v.447c0 .122.008.236.025.34a.914.914 0 00.083.272.48.48 0 00.155.18.424.424 0 00.24.064.44.44 0 00.407-.242.916.916 0 00.096-.271c.021-.105.031-.22.031-.343v-.447zm2.45-1.297h.59v3.04h-.59v-1.94l-.862 1.94h-.587v-3.04h.587v1.942l.862-1.942zm.265-.791c0 .09-.016.173-.05.248a.526.526 0 01-.142.194.691.691 0 01-.223.126.939.939 0 01-.295.044.944.944 0 01-.296-.044.708.708 0 01-.226-.126.556.556 0 01-.19-.442h.418c0 .036.005.071.015.106a.252.252 0 00.052.09.264.264 0 00.09.06.365.365 0 00.137.023.34.34 0 00.134-.023.228.228 0 00.14-.15.344.344 0 00.017-.106h.42zm2.96.79v3.042h-.589v-1.16a2.64 2.64 0 01-.113.028 2.962 2.962 0 01-.117.019l-.11.01a1.397 1.397 0 01-.501-.052.81.81 0 01-.312-.18.815.815 0 01-.198-.309 1.323 1.323 0 01-.07-.45v-.947h.587v.946c0 .102.009.186.023.253.018.067.042.12.076.16a.281.281 0 00.125.084c.05.015.11.023.177.023.028 0 .06 0 .095-.002.034-.002.07-.006.108-.01a3.16 3.16 0 00.117-.02c.04-.006.077-.015.113-.024v-1.41h.59zm1.913 0h.589v3.042h-.589v-1.94l-.863 1.94h-.586v-3.041h.586v1.942l.863-1.942zm1.157 3.042v-3.041h1.021c.166 0 .316.017.452.05.136.034.252.085.348.152.096.069.17.155.221.26.053.104.08.228.08.37a.685.685 0 01-.115.381.682.682 0 01-.328.257.704.704 0 01.228.1.604.604 0 01.158.16.61.61 0 01.095.198.935.935 0 01-.044.608.746.746 0 01-.216.28.94.94 0 01-.34.169 1.677 1.677 0 01-.451.056h-1.109zm.589-1.341v.867h.522c.16-.002.282-.04.365-.117a.395.395 0 00.128-.305.44.44 0 00-.113-.326c-.076-.078-.195-.117-.355-.12h-.547zm0-.424h.437c.162-.001.288-.035.376-.102a.353.353 0 00.133-.295c0-.142-.044-.243-.131-.304-.088-.063-.215-.095-.38-.097h-.435v.798zm4.106.468c0 .195-.026.375-.078.539a1.233 1.233 0 01-.223.424 1.027 1.027 0 01-.829.376 1.08 1.08 0 01-.468-.098.986.986 0 01-.344-.278 1.28 1.28 0 01-.213-.424 1.888 1.888 0 01-.074-.54v-.442c0-.194.025-.374.074-.539a1.27 1.27 0 01.212-.424.98.98 0 01.811-.38c.177 0 .335.034.474.1.14.067.26.16.357.28.098.119.172.26.223.424.052.165.078.345.078.54v.442zm-.595-.447c0-.124-.01-.238-.032-.342a.835.835 0 00-.094-.27.48.48 0 00-.167-.175.44.44 0 00-.244-.065.417.417 0 00-.393.24.879.879 0 00-.083.27 2.185 2.185 0 00-.026.342v.447c0 .122.01.236.026.34a.914.914 0 00.083.272c.04.076.091.136.155.18a.425.425 0 00.24.064.44.44 0 00.407-.242.92.92 0 00.096-.271c.021-.105.032-.22.032-.343v-.447zm3.03-.82h-1.38v2.564h-.587v-3.041h1.967v.476zm2.702 1.267c0 .195-.025.375-.077.539a1.253 1.253 0 01-.223.424 1.03 1.03 0 01-.83.376c-.175 0-.33-.033-.467-.098a.983.983 0 01-.344-.278 1.27 1.27 0 01-.214-.424 1.892 1.892 0 01-.073-.54v-.442c0-.194.025-.374.073-.539a1.25 1.25 0 01.214-.424.978.978 0 01.81-.38c.177 0 .334.034.474.1.14.067.26.16.357.28.097.119.172.26.223.424a1.8 1.8 0 01.077.54v.442zm-.595-.447c0-.124-.01-.238-.031-.342a.85.85 0 00-.094-.27.48.48 0 00-.167-.175.44.44 0 00-.244-.065.415.415 0 00-.393.24.879.879 0 00-.083.27 2.126 2.126 0 00-.025.342v.447c0 .122.008.236.025.34a.914.914 0 00.083.272.48.48 0 00.155.18.423.423 0 00.24.064.44.44 0 00.407-.242.919.919 0 00.096-.271 1.71 1.71 0 00.031-.343v-.447zm-26.59 5.44v1.116h-.587V18.88h1.04c.166 0 .315.024.449.073a.983.983 0 01.34.2.847.847 0 01.218.307c.051.12.077.253.077.4a.914.914 0 01-.295.678.97.97 0 01-.34.196 1.333 1.333 0 01-.45.071h-.452zm0-.476h.453a.573.573 0 00.217-.037.437.437 0 00.245-.251.512.512 0 00.03-.178c0-.07-.01-.136-.03-.198a.439.439 0 00-.245-.27.552.552 0 00-.217-.039h-.453v.973zm3.44.957h-.913l-.18.635h-.618l.996-3.041h.532l.978 3.04h-.618l-.178-.634zm-.769-.5h.63l-.31-1.119-.32 1.12zm3.97-1.081a.664.664 0 01-.126.382.753.753 0 01-.147.152.964.964 0 01-.199.12.778.778 0 01.385.267.718.718 0 01.133.442.8.8 0 01-.328.663 1.134 1.134 0 01-.367.173 1.757 1.757 0 01-.871.008 1.205 1.205 0 01-.362-.158.773.773 0 01-.357-.677h.59a.36.36 0 00.148.295.572.572 0 00.169.09.871.871 0 00.462 0 .56.56 0 00.18-.093.398.398 0 00.11-.135.402.402 0 00.037-.171c0-.163-.046-.281-.138-.354-.09-.072-.224-.108-.4-.108h-.41v-.46h.41a.76.76 0 00.223-.029.399.399 0 00.152-.088.328.328 0 00.088-.133.5.5 0 00.03-.176.387.387 0 00-.032-.154.333.333 0 00-.096-.13.473.473 0 00-.165-.085.723.723 0 00-.234-.034.67.67 0 00-.195.027.407.407 0 00-.26.198.333.333 0 00-.038.16h-.587c0-.134.028-.254.086-.36a.844.844 0 01.236-.27c.099-.073.213-.13.342-.168.131-.04.27-.061.416-.061.169 0 .321.02.46.057a.97.97 0 01.35.164.734.734 0 01.226.272c.053.107.08.232.08.374zm.437 2.216V18.88h1.02a1.9 1.9 0 01.452.05c.136.034.253.084.349.152a.68.68 0 01.221.26c.053.104.08.227.08.369a.69.69 0 01-.115.382.683.683 0 01-.328.257.698.698 0 01.227.1.607.607 0 01.159.16.6.6 0 01.094.198.935.935 0 01-.044.608.75.75 0 01-.215.28.948.948 0 01-.34.169 1.674 1.674 0 01-.451.056h-1.11zm.589-1.341v.867h.522c.16-.002.281-.04.365-.117a.395.395 0 00.128-.305.438.438 0 00-.113-.326c-.077-.078-.195-.118-.355-.12h-.547zm0-.424h.436c.163-.001.288-.035.376-.102.088-.067.132-.165.134-.295 0-.142-.044-.244-.132-.305-.088-.062-.214-.094-.38-.096h-.434v.798zm3.391-1.276h.59v3.04h-.59v-1.94l-.862 1.94h-.587v-3.04h.587v1.942l.862-1.942zm3.396.478h-.938v2.563h-.589v-2.563h-.925v-.478h2.452v.478zm1.742-.478h.589v3.04h-.589v-1.94l-.863 1.94h-.586v-3.04h.586v1.942l.863-1.942zm2.477 3.04v-1.196h-.47l-.572 1.197h-.63l.659-1.374a.919.919 0 01-.37-.31.828.828 0 01-.125-.463.91.91 0 01.078-.387.747.747 0 01.22-.28c.098-.075.216-.131.354-.169a1.7 1.7 0 01.463-.058h.982v3.04h-.59zm-.921-2.11c0 .158.044.276.132.352.087.076.22.113.396.113h.393v-.919h-.393c-.18 0-.314.04-.4.12a.435.435 0 00-.128.333z" fill="#fff"/></g><defs><clipPath id="clip0_590_431"><path fill="#fff" d="M0 0h54v54H0z"/></clipPath></defs></svg>