<svg width="53" height="54" fill="none" xmlns="http://www.w3.org/2000/svg"><g clip-path="url(#clip0_590_235)"><mask id="a" style="mask-type:luminance" maskUnits="userSpaceOnUse" x="0" y="0" width="53" height="54"><path d="M53 0H0v54h53V0z" fill="#fff"/></mask><g mask="url(#a)"><path d="M53 0H0v54h53V0z" fill="#566D79"/><path fill-rule="evenodd" clip-rule="evenodd" d="M44.661 33.797c0-1.51-.927-2.737-2.41-2.737-.74 0-1.574.85-2.038 1.321-.463-.472-1.297-1.321-2.038-1.321-1.39 0-2.41 1.227-2.41 2.737 0 .756.279 1.416.742 1.983l3.706 3.776 3.707-3.776c.463-.567.741-1.227.741-1.983z" fill="#fff"/><path fill-rule="evenodd" clip-rule="evenodd" d="M28.909 45.692c-.278 0-.556-.189-.648-.566l-1.854-11.14-2.872 5.381c-.093.189-.37.378-.648.283-.279-.094-.464-.283-.464-.566l-1.204-8.591-2.224 5.098c-.093.189-.278.377-.556.377H9.822a.64.64 0 01-.649-.66.64.64 0 01.649-.661h8.246l2.872-6.703c.093-.283.371-.378.65-.378.277 0 .462.284.555.567l1.297 8.874 2.78-5.287c.093-.189.37-.377.649-.283.278 0 .463.283.463.472l1.76 10.385 6.394-21.525c.093-.283.278-.472.556-.472s.463.095.649.378l3.335 7.08c.185.283 0 .661-.278.85a.74.74 0 01-.834-.283l-2.687-5.665-6.764 22.563c-.092.283-.278.472-.556.472zM7.968 15.671c1.76 0 2.595-.944 2.595-2.454v-1.605c0-1.039-.37-1.7-1.298-1.888.742-.283 1.205-.85 1.205-1.794v-.944c0-1.51-.741-2.455-2.317-2.455-1.852 0-2.501 1.133-2.501 2.738v.944h1.575V6.986c0-.66.185-1.038.741-1.038s.741.377.741.944v1.132c0 .567-.37.85-.926.85h-.649v1.51h.742c.648 0 .833.284.833.85v1.794c0 .566-.277.944-.833.944-.556 0-.835-.378-.835-1.038v-1.605H5.466v1.416c.093 1.794.649 2.926 2.502 2.926zm8.803-8.874h1.112v2.455h-.556V8.78c-.093.377-.278.566-.741.566-.65 0-.927-.472-.927-1.227V5.853c0-.755.37-1.227 1.112-1.227.834 0 1.112.472 1.112 1.133v.377h-.741V5.76c0-.283-.093-.472-.37-.472-.28 0-.372.189-.372.472v2.454c0 .284.093.472.371.472s.37-.094.37-.472v-.755h-.37v-.66zm1.575 1.228V5.853c0-.755.371-1.227 1.112-1.227.742 0 1.112.472 1.112 1.227v2.172c0 .755-.37 1.227-1.112 1.227-.74 0-1.112-.472-1.112-1.227zm1.483.188V5.76c0-.283-.093-.472-.37-.472-.279 0-.371.189-.371.472v2.454c0 .284.092.472.37.472s.37-.188.37-.472zm1.111-.188V5.853c0-.755.371-1.227 1.113-1.227.74 0 1.112.472 1.112 1.227v2.172c0 .755-.371 1.227-1.112 1.227-.742 0-1.112-.472-1.112-1.227zm1.483.188V5.76c0-.283-.092-.472-.37-.472s-.371.189-.371.472v2.454c0 .284.093.472.37.472.279 0 .371-.188.371-.472zm3.428-2.36V7.93c0 .661-.278 1.227-1.112 1.227h-1.112V4.626h1.112c.834 0 1.112.566 1.112 1.227zM24.74 8.591c.278 0 .464-.189.464-.472v-2.36c0-.283-.093-.472-.464-.472h-.277V8.59h.277zm3.798-1.416h-.74v1.982h-.835V4.626h.834v1.888h.741V4.626h.742v4.531h-.742V7.175zm1.112-2.549h1.761v.66h-1.02v1.228h.742v.66h-.741v1.417h1.019v.566h-1.76V4.626zm2.131 4.531l.834-4.531h.834l.834 4.531h-.741l-.093-.85h-.834l-.093.85h-.74zm.927-1.416h.648l-.278-1.793-.37 1.793zm1.946-3.115h.741v3.965h.927v.566h-1.668V4.626zm1.482 0h1.946v.66h-.556v3.871h-.834v-3.87h-.556v-.661zm3.799 2.549h-.74v1.982h-.742V4.626h.741v1.888h.741V4.626h.742v4.531h-.742V7.175zm-24.369 8.496l.835-4.531h.833l.834 4.531h-.74l-.094-.85h-.833l-.093.85h-.742zm.927-1.51h.556l-.278-1.794-.278 1.794zm2.501-1.416v2.926h-.555V11.14h.648l.834 2.549v-2.55h.649v4.532h-.65l-.926-2.926zm4.171-.472v2.077c0 .66-.278 1.227-1.112 1.227H20.94v-4.532h1.112c.834.095 1.112.567 1.112 1.228zm-1.112 2.737c.278 0 .463-.188.463-.472v-2.36c0-.283-.093-.472-.463-.472h-.278v3.304h.278zm3.892-2.17l-.464 2.831h-.648l-.649-4.531h.741l.371 2.832.37-2.832h.556l.464 2.832.37-2.832h.556l-.556 4.531h-.648l-.463-2.832zm2.037-1.7h1.853v.566h-1.112v1.322h.835v.566h-.835v1.417h1.112v.66h-1.853V11.14zm2.224 0h.742v3.87h.926v.661h-1.668V11.14zm2.039 0h.74v3.87h.928v.661h-1.668V11.14z" fill="#fff"/><path d="M34.747 13.122h-1.02v.661h1.02v-.66z" fill="#fff"/><path fill-rule="evenodd" clip-rule="evenodd" d="M35.21 11.14h1.111c.742 0 1.02.377 1.02.944v.472c0 .378-.093.66-.464.755.371.095.556.378.556.755v.567c0 .66-.277.944-1.019.944H35.21V11.14zm.74 1.888h.28c.277 0 .37-.094.37-.378v-.566c0-.283-.093-.378-.37-.378h-.28v1.322zm0 .566v1.417h.371c.279 0 .371-.095.371-.378v-.66c0-.19-.092-.379-.37-.379h-.371zm1.854-2.454h1.76v.566h-1.018v1.322h.74v.566h-.74v1.417h1.019v.66h-1.76V11.14z" fill="#fff"/><path d="M40.677 11.14h-.65v4.531h.65V11.14z" fill="#fff"/><path fill-rule="evenodd" clip-rule="evenodd" d="M41.788 12.745v2.926h-.648V11.14h.741l.834 2.549v-2.55h.648v4.532h-.74l-.835-2.926zm3.151.377h1.111v2.455h-.555v-.472c-.093.377-.278.566-.741.566-.65 0-.927-.472-.927-1.227v-2.171c0-.756.37-1.228 1.112-1.228.834 0 1.111.472 1.111 1.133v.378h-.74v-.472c0-.283-.093-.472-.371-.472s-.37.189-.37.472v2.454c0 .284.092.472.37.472s.37-.094.37-.472v-.85h-.37v-.566z" fill="#fff"/><path d="M48.76 3.208H14.84v17.109h33.92V3.208z" fill="#566D79"/><path d="M15.072 6.07l.536-1.091h.683l-.849 1.508.87 1.533h-.68l-.552-1.107-.55 1.107h-.688l.87-1.533-.847-1.508h.678l.529 1.09zm3.629.653c0 .195-.026.374-.076.539a1.258 1.258 0 01-.222.424 1.024 1.024 0 01-.822.376c-.174 0-.329-.033-.464-.099a.982.982 0 01-.342-.277 1.285 1.285 0 01-.21-.424 1.908 1.908 0 01-.073-.54V6.28c0-.195.024-.374.072-.539.049-.164.12-.305.211-.424a.975.975 0 01.34-.28c.135-.066.29-.1.464-.1a1.014 1.014 0 01.824.38c.096.119.17.26.222.424.05.165.076.344.076.54v.442zm-.59-.447c0-.124-.01-.238-.031-.343a.86.86 0 00-.093-.269.48.48 0 00-.166-.175.434.434 0 00-.242-.065.409.409 0 00-.39.24.905.905 0 00-.082.27 2.212 2.212 0 00-.025.342v.447c0 .122.008.236.025.34a.934.934 0 00.083.272c.038.076.09.136.153.18a.412.412 0 00.238.064.43.43 0 00.24-.065.484.484 0 00.164-.177.933.933 0 00.095-.272 1.77 1.77 0 00.03-.342v-.447zm1.652.629V8.02h-.582V4.979h1.031c.165 0 .313.024.446.073a.957.957 0 01.337.2.848.848 0 01.215.308c.051.12.077.252.077.399a.928.928 0 01-.077.378.862.862 0 01-.215.3.992.992 0 01-.337.197 1.33 1.33 0 01-.446.07h-.449zm0-.477h.45a.563.563 0 00.215-.037.418.418 0 00.242-.25.517.517 0 00.031-.178.616.616 0 00-.031-.199.428.428 0 00-.242-.27.537.537 0 00-.216-.039h-.449v.973zm4.031.295c0 .195-.026.374-.077.539-.05.164-.125.305-.221.424a1.018 1.018 0 01-.822.376.975.975 0 01-.805-.376 1.277 1.277 0 01-.212-.424 1.904 1.904 0 01-.072-.54V6.28c0-.195.024-.374.072-.539a1.25 1.25 0 01.212-.424.974.974 0 01.339-.28c.136-.066.29-.1.464-.1.175 0 .332.034.47.1.14.067.257.16.354.28.096.119.17.26.221.424.051.165.077.344.077.54v.442zm-.59-.447c0-.124-.01-.238-.031-.343a.861.861 0 00-.093-.269.481.481 0 00-.166-.175.434.434 0 00-.242-.065.41.41 0 00-.39.24.888.888 0 00-.082.27 2.14 2.14 0 00-.025.342v.447c0 .122.008.236.025.34a.916.916 0 00.083.272c.038.076.09.136.153.18a.415.415 0 00.238.064.43.43 0 00.24-.065.48.48 0 00.164-.177.918.918 0 00.095-.272c.02-.104.03-.218.03-.342v-.447zM24.7 4.979v2.569h.29V4.979h.55v2.569h.285V4.979h.565v3.04h-2.257V4.98h.567zm3.938 1.708H27.4v.859h1.448v.474h-2.031V4.979h2.024v.478h-1.44v.767h1.237v.463zm2.547 0h-1.238v.859h1.447v.474h-2.031V4.979h2.025v.478h-1.441v.767h1.238v.463zm-15.024 3.929a.686.686 0 01-.271.535.944.944 0 01-.197.118.768.768 0 01.38.268.718.718 0 01.133.443.813.813 0 01-.325.662c-.1.075-.222.133-.364.173a1.728 1.728 0 01-.864.008 1.172 1.172 0 01-.357-.158.873.873 0 01-.258-.276.786.786 0 01-.097-.401h.584a.361.361 0 00.147.295.55.55 0 00.168.09.853.853 0 00.457 0 .539.539 0 00.178-.093.396.396 0 00.11-.135.397.397 0 00.038-.172c0-.163-.046-.28-.137-.353-.09-.072-.223-.108-.398-.108h-.406v-.46h.406c.087 0 .16-.01.222-.029a.392.392 0 00.15-.088.333.333 0 00.088-.133.515.515 0 00.029-.176.392.392 0 00-.031-.154.333.333 0 00-.096-.13.46.46 0 00-.163-.085.717.717 0 00-.232-.034.656.656 0 00-.192.027.491.491 0 00-.156.078.39.39 0 00-.103.12.336.336 0 00-.038.16h-.581a.748.748 0 01.318-.63c.098-.073.212-.13.34-.168.13-.04.267-.06.412-.06.167 0 .319.018.456.056a.968.968 0 01.347.164.735.735 0 01.224.272.84.84 0 01.078.374zm2.482 2.963h-.501v-.747h-1.14v.747h-.492l-.09-1.22h.111a.516.516 0 00.166-.14.765.765 0 00.118-.242 2.34 2.34 0 00.076-.382c.02-.153.034-.34.042-.56l.082-1.244h1.49v2.569h.22l-.082 1.22zm-1.126-2.543a7.14 7.14 0 01-.032.442 3.614 3.614 0 01-.05.362c-.02.107-.044.204-.071.29a1.837 1.837 0 01-.091.23h.651v-2.093h-.357l-.05.769zm3.73.499c0 .195-.025.374-.076.539a1.25 1.25 0 01-.222.424 1.02 1.02 0 01-.821.376 1.05 1.05 0 01-.464-.099.976.976 0 01-.342-.277 1.286 1.286 0 01-.21-.424 1.886 1.886 0 01-.074-.54v-.442c0-.195.024-.375.073-.539.048-.164.119-.305.211-.424a.974.974 0 01.34-.28c.135-.066.29-.1.463-.1.175 0 .332.034.47.1.14.067.258.16.354.28.097.119.17.26.222.424.051.164.076.344.076.539v.443zm-.59-.447c0-.124-.01-.238-.03-.343a.845.845 0 00-.094-.269.483.483 0 00-.165-.176.435.435 0 00-.242-.064.412.412 0 00-.39.24.89.89 0 00-.083.27 2.21 2.21 0 00-.025.342v.447c0 .122.009.236.025.34a.918.918 0 00.083.272c.039.076.09.136.153.18a.415.415 0 00.239.064.43.43 0 00.24-.065.482.482 0 00.163-.177.912.912 0 00.095-.272c.021-.104.032-.218.032-.342v-.447zm1.653.629v1.115h-.582V9.79h1.03c.165 0 .313.024.446.073a.965.965 0 01.337.2.847.847 0 01.215.307c.052.12.077.253.077.4a.92.92 0 01-.292.678 1.001 1.001 0 01-.337.197c-.133.047-.281.07-.445.07h-.45zm0-.477h.449a.563.563 0 00.215-.037.429.429 0 00.242-.25.517.517 0 00.031-.178.616.616 0 00-.03-.199.435.435 0 00-.243-.27.538.538 0 00-.215-.039h-.45v.973zm4.03.295c0 .195-.025.374-.076.539a1.256 1.256 0 01-.222.424 1.024 1.024 0 01-.822.376c-.173 0-.328-.033-.463-.099a.98.98 0 01-.342-.277 1.286 1.286 0 01-.211-.424 1.908 1.908 0 01-.073-.54v-.442c0-.195.025-.375.073-.539a1.26 1.26 0 01.21-.424.974.974 0 01.34-.28c.136-.066.29-.1.464-.1a1.015 1.015 0 01.824.38c.097.119.17.26.222.424.05.164.076.344.076.539v.443zm-.59-.447c0-.124-.01-.238-.03-.343a.86.86 0 00-.094-.269.48.48 0 00-.166-.176.434.434 0 00-.242-.064.41.41 0 00-.389.24.904.904 0 00-.083.27 2.214 2.214 0 00-.024.342v.447c0 .122.008.236.024.34a.933.933 0 00.083.272c.039.076.09.136.153.18a.413.413 0 00.238.064.43.43 0 00.24-.065.479.479 0 00.164-.177.932.932 0 00.095-.272 1.81 1.81 0 00.031-.342v-.447zm1.03 1.744V9.79h1.012c.164 0 .313.017.447.05.135.033.25.084.346.152a.69.69 0 01.22.26.813.813 0 01.078.37.677.677 0 01-.439.64.689.689 0 01.226.098.618.618 0 01.157.16.61.61 0 01.093.198.938.938 0 01-.043.608.74.74 0 01-.214.28.927.927 0 01-.337.168 1.636 1.636 0 01-.447.057h-1.1zm.583-1.341v.867h.517c.16-.002.28-.04.363-.117a.396.396 0 00.126-.305.438.438 0 00-.112-.326c-.076-.078-.193-.118-.352-.12h-.542zm0-.424h.433a.612.612 0 00.372-.102.353.353 0 00.133-.295c0-.142-.044-.243-.13-.305a.655.655 0 00-.377-.096h-.43v.798zm2.55-.152h.34c.174 0 .33.023.468.068.14.045.257.108.352.19.097.083.17.182.222.3.05.116.076.246.076.388a.999.999 0 01-.076.396.85.85 0 01-.222.305 1.01 1.01 0 01-.352.199 1.438 1.438 0 01-.468.07h-.923v-3.04h.584v1.123zm0 .472v.973h.34c.091 0 .17-.013.236-.04a.465.465 0 00.168-.109.412.412 0 00.1-.16.564.564 0 000-.378.368.368 0 00-.1-.149.45.45 0 00-.168-.1.665.665 0 00-.236-.037h-.34zm3.819.112h-1.239v.859h1.447v.474h-2.03V9.79h2.024v.478h-1.44v.767h1.238v.463zm-18.285 3.104h.583v3.04h-.583v-1.94l-.856 1.94h-.581v-3.04h.581v1.942l.856-1.942zm5.65.476h-1.369v.647h.34c.173 0 .33.023.467.07.14.044.257.107.352.19.096.081.17.181.222.298.05.117.076.247.076.389a.999.999 0 01-.076.396.85.85 0 01-.222.305 1.01 1.01 0 01-.352.199 1.439 1.439 0 01-.468.07h-.923v-3.04h1.952v.476zm-1.369 1.12v.973h.34c.09 0 .17-.014.236-.04a.462.462 0 00.167-.109.41.41 0 00.1-.16.564.564 0 000-.378.368.368 0 00-.1-.149.448.448 0 00-.167-.1.669.669 0 00-.237-.038h-.339zm3.975-1.596v3.04h-.584V15.08h-.623l-.01 1.115a3.869 3.869 0 01-.062.675 1.41 1.41 0 01-.158.449.631.631 0 01-.259.248.803.803 0 01-.362.078H21.5v-.472h.083a.291.291 0 00.161-.06.333.333 0 00.096-.164 1.34 1.34 0 00.047-.294c.008-.123.014-.276.017-.46l.012-1.591h1.787zm2.016 2.406h-.905l-.178.635h-.612l.987-3.041h.528l.97 3.04h-.614l-.176-.634zm-.762-.5h.626l-.309-1.119-.317 1.12zm3.797-1.43h-1.368v2.565h-.582v-3.041h1.95v.476zm2.68 1.268c0 .195-.026.374-.077.538a1.25 1.25 0 01-.222.424 1.02 1.02 0 01-.822.376c-.174 0-.328-.032-.464-.098a.975.975 0 01-.34-.277 1.275 1.275 0 01-.212-.424 1.908 1.908 0 01-.073-.54v-.442c0-.195.024-.375.073-.539a1.24 1.24 0 01.211-.424.972.972 0 01.34-.28c.135-.067.29-.1.463-.1.175 0 .332.033.47.1.14.067.258.16.354.28.097.118.17.26.222.424.05.164.076.344.076.539v.443zm-.59-.447c0-.124-.01-.238-.032-.343a.862.862 0 00-.093-.27.48.48 0 00-.166-.175.433.433 0 00-.242-.064.41.41 0 00-.389.24.889.889 0 00-.083.27 2.213 2.213 0 00-.025.342v.447c0 .122.009.236.025.34a.915.915 0 00.083.272c.039.076.09.136.153.18a.414.414 0 00.238.064.43.43 0 00.24-.065.478.478 0 00.164-.177.919.919 0 00.095-.272c.021-.104.031-.218.031-.342V15.9zm3.028 1.744h-.582v-2.565h-.853v2.565h-.582v-3.041h2.017v3.04zm2.654-1.297c0 .195-.025.374-.077.538-.05.165-.124.306-.221.424a1.017 1.017 0 01-.822.376 1.05 1.05 0 01-.463-.098.977.977 0 01-.342-.277 1.286 1.286 0 01-.211-.424 1.908 1.908 0 01-.073-.54v-.442c0-.195.025-.375.073-.539.048-.164.119-.306.21-.424a.975.975 0 01.34-.28c.136-.067.29-.1.464-.1.176 0 .332.033.47.1.14.067.258.16.354.28.097.118.17.26.221.424.052.164.077.344.077.539v.443zm-.59-.447c0-.124-.01-.238-.03-.343a.85.85 0 00-.094-.27.48.48 0 00-.165-.175.435.435 0 00-.243-.064.412.412 0 00-.39.24.889.889 0 00-.082.27 2.213 2.213 0 00-.025.342v.447c0 .122.009.236.025.34a.915.915 0 00.083.272c.038.076.09.136.153.18a.415.415 0 00.238.064.43.43 0 00.24-.065.483.483 0 00.164-.177.919.919 0 00.095-.272 1.81 1.81 0 00.031-.342V15.9zm3.046-1.297v3.04h-.584V15.08h-.623l-.01 1.115a3.858 3.858 0 01-.063.675 1.407 1.407 0 01-.157.449.634.634 0 01-.259.248.806.806 0 01-.362.078h-.145v-.472h.083a.291.291 0 00.16-.06.328.328 0 00.096-.164c.024-.075.04-.173.048-.294a8.48 8.48 0 00.017-.46l.012-1.591h1.787zm1.364 1.044l.197.562.63-1.606h.633l-1.073 2.464a1.721 1.721 0 01-.126.236.83.83 0 01-.406.334.91.91 0 01-.317.05 1.22 1.22 0 01-.26-.025 3.278 3.278 0 01-.183-.041l.037-.46.065.019a21.924 21.924 0 00.165.031.65.65 0 00.257-.017.413.413 0 00.128-.058.338.338 0 00.09-.09.5.5 0 00.06-.12l.057-.13-1.051-2.193h.629l.468 1.044zm3.762-1.044v3.04h-.584v-1.159c-.036.01-.073.02-.112.028a3.593 3.593 0 01-.116.018 3.4 3.4 0 01-.2.015c-.15 0-.285-.019-.406-.056a.802.802 0 01-.309-.18.814.814 0 01-.196-.309 1.334 1.334 0 01-.069-.451v-.946h.582v.946c0 .101.008.186.022.253a.41.41 0 00.075.16.277.277 0 00.124.084c.05.015.109.023.176.023.028 0 .059 0 .093-.002a3.14 3.14 0 00.108-.01 2.344 2.344 0 00.228-.044v-1.41h.584zm1.896 0h.584v3.04h-.584v-1.94l-.855 1.94h-.581v-3.04h.581v1.942l.855-1.942zm3.007 1.708h-1.239v.859h1.447v.474h-2.03v-3.041h2.024v.478h-1.44v.767h1.237v.463z" fill="#fff"/></g></g><defs><clipPath id="clip0_590_235"><path fill="#fff" d="M0 0h53v54H0z"/></clipPath></defs></svg>