<svg width="54" height="54" fill="none" xmlns="http://www.w3.org/2000/svg"><g clip-path="url(#clip0_590_273)"><mask id="a" style="mask-type:luminance" maskUnits="userSpaceOnUse" x="0" y="0" width="54" height="54"><path d="M54 0H0v54h54V0z" fill="#fff"/></mask><g mask="url(#a)"><path d="M54 0H0v54h54V0z" fill="#566D79"/><path fill-rule="evenodd" clip-rule="evenodd" d="M23.927 28.982l-9.647-5.664v18.126l9.647 2.927V28.982zm1.04 0v15.389l9.74-2.927V23.318l-9.74 5.664zM40.003 41.16l1.23 4.06 1.135-4.06V25.018h-2.365v16.144z" fill="#fff"/><path fill-rule="evenodd" clip-rule="evenodd" d="M36.882 24.168l-1.04-.85V42.01l-10.875 3.493h-1.04l-10.782-3.02V23.317l-1.04.85v19.07l11.726 3.21h1.23l10.781-3.4 1.04-.282V24.168zm5.485-1.322c0-.66-.567-1.133-1.229-1.133-.662 0-1.229.472-1.229 1.133v1.227h2.364v-1.227h.094zm-33.95-7.458h1.702v-1.794h.756v-1.416h-.756V4.531H8.322l-3.12 8.025v1.133h3.215v1.7zm-1.608-3.21l1.608-4.437v4.437H6.81zm9.93-2.643v-.283c-.662-.095-.946-.567-.946-1.133V5.853c0-.755.379-1.227 1.23-1.227.85 0 1.229.472 1.229 1.227v2.172c0 .472-.19.944-.567 1.038l.567.094v.567l-1.513-.189zm.662-1.322V5.76c0-.283-.095-.472-.378-.472-.284 0-.379.189-.379.472v2.454c0 .284.095.472.379.472.283 0 .378-.188.378-.472zm3.405-3.587v3.493c0 .755-.284 1.133-1.135 1.133s-1.135-.472-1.135-1.133V4.626h.757v3.587c0 .284.094.472.378.472.284 0 .378-.188.378-.472V4.626h.757zm.283 4.531l.851-4.531h.851l.851 4.531h-.756l-.095-.85h-.851l-.095.85h-.756zm.946-1.416h.567l-.283-1.793-.284 1.793zm1.986-3.115h.757v3.965h.851v.566h-1.608V4.626z" fill="#fff"/><path d="M26.67 4.626h-.757v4.531h.756V4.626z" fill="#fff"/><path fill-rule="evenodd" clip-rule="evenodd" d="M27.047 4.626h2.08v.66h-.661v3.871h-.757v-3.87h-.662v-.661zm3.973 2.832v1.7h-.851v-1.7l-.852-2.832h.852l.472 1.7.473-1.7h.757l-.851 2.832zM15.888 11.14h1.797v.566h-1.04v1.322h.756v.566h-.757v1.417h1.04v.66h-1.796V11.14zm4.539 1.133v2.077c0 .66-.284 1.227-1.135 1.227h-1.135v-4.532h1.135c.85.095 1.135.567 1.135 1.228zm-1.23 2.737c.284 0 .473-.188.473-.472v-2.36c0-.283-.094-.472-.472-.472h-.284v3.304h.284zm3.783-3.87v3.399c0 .66-.283 1.132-1.04 1.132-.756 0-1.134-.472-1.134-1.132v-3.4h.756v3.494c0 .283.095.472.379.472.283 0 .378-.189.378-.472V11.14h.662zm.474 3.304v-2.171c0-.756.378-1.228 1.135-1.228.85 0 1.134.472 1.134 1.133v.567h-.756v-.567c0-.283-.095-.472-.378-.472-.284 0-.379.189-.379.472v2.455c0 .283.095.472.379.472.283 0 .378-.189.378-.472v-.85h.756v.755c0 .661-.283 1.133-1.134 1.133-.757 0-1.135-.566-1.135-1.227zm2.459 1.227l.85-4.531h.852l.851 4.531h-.756l-.095-.85h-.851l-.095.85h-.756zm1.04-1.51h.567l-.284-1.794-.283 1.794zm1.512-3.021h1.987v.566h-.568v3.965h-.757v-3.965h-.662v-.566z" fill="#fff"/><path d="M31.587 11.14h-.757v4.531h.757V11.14z" fill="#fff"/><path fill-rule="evenodd" clip-rule="evenodd" d="M32.06 14.444v-2.171c0-.756.378-1.228 1.134-1.228.757 0 1.135.472 1.135 1.228v2.171c0 .755-.378 1.227-1.135 1.227-.756 0-1.134-.566-1.134-1.227zm1.513.094v-2.454c0-.283-.095-.472-.379-.472-.283 0-.378.189-.378.472v2.454c0 .284.095.472.378.472.284 0 .379-.188.379-.472zm1.891-1.793v2.926h-.662V11.14h.757l.756 2.549v-2.55h.662v4.532h-.662l-.85-2.926z" fill="#fff"/><path d="M47.584 2.673H14.435v15.505h33.15V2.673z" fill="#566D79"/><path d="M14.513 6.77h-.244v1.25h-.587V4.979h.587v1.339h.144l.795-1.34h.68l-.907 1.465.942 1.577h-.681l-.729-1.25zm3.191.615h-.913l-.18.635h-.617l.996-3.041h.532l.978 3.04h-.619l-.177-.634zm-.768-.5h.63l-.311-1.119-.32 1.12zM20.84 4.98v3.04h-.589V6.862c-.036.01-.074.018-.113.027l-.117.019a3.22 3.22 0 01-.202.014 1.39 1.39 0 01-.41-.056.81.81 0 01-.31-.18.813.813 0 01-.199-.309 1.323 1.323 0 01-.069-.451V4.98h.587v.946c0 .102.008.186.023.253a.39.39 0 00.075.16.277.277 0 00.125.084.61.61 0 00.178.023c.027 0 .059 0 .094-.002l.108-.01a2.195 2.195 0 00.23-.044V4.98h.589zm2.377 1.708h-1.249v.859h1.46v.474h-2.05V4.979h2.044v.478h-1.454v.767h1.249v.463zm2.809.38a1.15 1.15 0 01-.1.414.949.949 0 01-.564.514 1.305 1.305 0 01-.435.069 1.1 1.1 0 01-.478-.099.994.994 0 01-.351-.277 1.282 1.282 0 01-.217-.43 1.91 1.91 0 01-.075-.552v-.41c0-.201.026-.386.08-.553.052-.167.127-.31.225-.43.097-.12.215-.212.353-.278.139-.067.295-.1.468-.1.166 0 .315.024.444.071a.938.938 0 01.335.203.936.936 0 01.217.321c.053.127.086.27.1.428h-.585a.994.994 0 00-.041-.238.426.426 0 00-.095-.169.366.366 0 00-.154-.102.617.617 0 00-.221-.036c-.09 0-.17.02-.237.059a.469.469 0 00-.167.171.885.885 0 00-.096.278 2.06 2.06 0 00-.03.372v.413c0 .3.04.52.124.664.085.144.219.215.401.215.153 0 .274-.04.364-.12.089-.083.138-.215.148-.398h.587zm2.692-1.61h-.938V8.02h-.589V5.457h-.925V4.98h2.452v.478zm.33 2.563V4.979h1.021c.166 0 .316.017.451.05.137.033.253.084.349.152.096.069.17.155.221.26.053.104.08.227.08.37a.686.686 0 01-.115.381.685.685 0 01-.328.257.688.688 0 01.227.1.61.61 0 01.16.16.59.59 0 01.093.198.932.932 0 01-.044.608.752.752 0 01-.214.28.943.943 0 01-.341.168 1.666 1.666 0 01-.451.057h-1.11zm.589-1.341v.867h.522c.16-.002.282-.04.366-.117a.394.394 0 00.127-.305.438.438 0 00-.113-.326c-.076-.078-.195-.118-.355-.119h-.547zm0-.424h.436c.163-.001.288-.036.376-.102.088-.067.133-.165.134-.295 0-.142-.044-.243-.132-.305-.087-.062-.214-.094-.38-.096h-.434v.798zm3.855.432h-1.248v.859h1.46v.474h-2.05V4.979h2.043v.478h-1.453v.767h1.248v.463zm2.705 1.333h-.58V6.702h-.861V8.02h-.583V4.979h.583v1.247h.86V4.979h.58v3.04zm2.569 0h-.58V6.702h-.862V8.02h-.582V4.979h.582v1.247h.861V4.979h.58v3.04zm2.683-1.297c0 .195-.026.374-.077.539a1.252 1.252 0 01-.223.424 1.028 1.028 0 01-.83.376.98.98 0 01-.812-.376 1.272 1.272 0 01-.213-.424 1.893 1.893 0 01-.073-.54V6.28c0-.195.024-.374.073-.539a1.27 1.27 0 01.213-.424.98.98 0 01.342-.28c.137-.066.293-.1.468-.1.177 0 .335.034.474.1.141.067.26.16.358.28.097.119.171.26.223.424.052.165.077.344.077.54v.442zm-.595-.447c0-.124-.01-.238-.031-.343a.853.853 0 00-.094-.269.483.483 0 00-.167-.176.44.44 0 00-.245-.064.417.417 0 00-.392.24.885.885 0 00-.084.27 2.127 2.127 0 00-.025.342v.447c0 .122.008.236.025.34a.913.913 0 00.084.272c.039.076.09.136.154.18a.42.42 0 00.24.064.437.437 0 00.243-.065.482.482 0 00.165-.177.91.91 0 00.096-.272 1.81 1.81 0 00.031-.342v-.447zm2.913.411H42.52v.859h1.46v.474h-2.048V4.979h2.042v.478H42.52v.767h1.25v.463zm-28.006 4.848c0 .195-.026.374-.077.538a1.244 1.244 0 01-.224.425 1.027 1.027 0 01-.83.375.981.981 0 01-.812-.376 1.273 1.273 0 01-.213-.424 1.893 1.893 0 01-.073-.538v-.443c0-.195.025-.375.073-.539.05-.164.12-.306.214-.424a.98.98 0 01.81-.38c.177 0 .335.033.474.1.14.067.26.16.357.28.098.119.172.26.224.424.051.164.077.344.077.539v.443zm-.595-.447c0-.124-.01-.238-.031-.343a.854.854 0 00-.095-.27.484.484 0 00-.167-.175.44.44 0 00-.244-.064.416.416 0 00-.393.24.885.885 0 00-.083.27 2.127 2.127 0 00-.025.342v.447c0 .122.008.236.025.34a.912.912 0 00.083.272.48.48 0 00.155.18.421.421 0 00.24.064.437.437 0 00.242-.065.48.48 0 00.165-.177.91.91 0 00.097-.272c.02-.104.03-.218.03-.342v-.447zm3.011-.821h-1.38v.647h.343a1.5 1.5 0 01.471.07.98.98 0 01.355.19.81.81 0 01.224.298.95.95 0 01.077.389.989.989 0 01-.077.396.844.844 0 01-.224.305 1.016 1.016 0 01-.355.199 1.457 1.457 0 01-.471.07h-.932v-3.04h1.97v.476zm-1.38 1.12v.973h.343a.648.648 0 00.237-.04.462.462 0 00.17-.109.432.432 0 00.1-.16.573.573 0 000-.379.37.37 0 00-.1-.148.448.448 0 00-.17-.1.678.678 0 00-.238-.038h-.342zm2.604.33v1.115h-.587V9.79h1.04c.166 0 .316.024.45.073a.968.968 0 01.34.2.847.847 0 01.217.307c.052.12.077.253.077.4a.92.92 0 01-.077.377.861.861 0 01-.217.301 1.005 1.005 0 01-.34.196 1.34 1.34 0 01-.45.071h-.453zm0-.477h.453a.57.57 0 00.218-.037.423.423 0 00.244-.251.515.515 0 00.031-.178.614.614 0 00-.031-.198.428.428 0 00-.244-.27.546.546 0 00-.218-.039h-.453v.973zm3.44.957h-.913l-.18.635h-.618l.997-3.041h.532l.978 3.04h-.619l-.177-.634zm-.769-.5h.631l-.311-1.119-.32 1.12zm3.97-1.081a.684.684 0 01-.274.535.96.96 0 01-.198.118.775.775 0 01.385.268c.09.118.134.266.134.442a.807.807 0 01-.328.663 1.134 1.134 0 01-.368.173 1.76 1.76 0 01-.871.008 1.196 1.196 0 01-.361-.158.874.874 0 01-.26-.276.78.78 0 01-.098-.401h.59a.359.359 0 00.148.294.56.56 0 00.17.09.867.867 0 00.461 0 .544.544 0 00.18-.092.395.395 0 00.11-.135.394.394 0 00.037-.172c0-.163-.046-.28-.137-.353-.09-.072-.225-.108-.401-.108h-.41v-.46h.41c.088 0 .162-.01.223-.029a.395.395 0 00.153-.088.333.333 0 00.087-.133.511.511 0 00.03-.176.39.39 0 00-.032-.154.335.335 0 00-.096-.13.47.47 0 00-.165-.085.726.726 0 00-.234-.034c-.07 0-.134.01-.194.027a.498.498 0 00-.157.078.339.339 0 00-.142.28h-.587a.76.76 0 01.086-.36.838.838 0 01.236-.27 1.09 1.09 0 01.343-.168c.13-.04.27-.061.415-.061.169 0 .322.019.46.056a.978.978 0 01.35.165.73.73 0 01.226.272c.053.107.08.232.08.374zm2.563.919c0 .195-.026.374-.077.538a1.233 1.233 0 01-.224.425 1.026 1.026 0 01-.829.375.982.982 0 01-.813-.376 1.28 1.28 0 01-.212-.424 1.89 1.89 0 01-.073-.538v-.443c0-.195.024-.375.073-.539.049-.164.12-.306.213-.424a.98.98 0 01.81-.38c.177 0 .335.033.474.1.14.067.26.16.357.28.098.119.172.26.224.424.052.164.077.344.077.539v.443zm-.595-.447c0-.124-.01-.238-.031-.343a.842.842 0 00-.095-.27.48.48 0 00-.166-.175.441.441 0 00-.245-.064.418.418 0 00-.393.24.885.885 0 00-.083.27 2.185 2.185 0 00-.025.342v.447c0 .122.008.236.025.34a.912.912 0 00.083.272.47.47 0 00.155.18.422.422 0 00.24.064.436.436 0 00.243-.065.484.484 0 00.164-.177.91.91 0 00.097-.272 1.81 1.81 0 00.031-.342v-.447zm1.038 1.744V9.79h1.021c.166 0 .316.017.451.05.137.033.253.084.349.152.096.069.17.155.221.26.053.104.08.227.08.369a.686.686 0 01-.115.382.685.685 0 01-.328.257.689.689 0 01.227.1.612.612 0 01.16.16.586.586 0 01.093.197.931.931 0 01-.044.608.752.752 0 01-.214.28.944.944 0 01-.341.17 1.666 1.666 0 01-.451.056h-1.11zm.589-1.341v.867h.522c.16-.002.282-.04.366-.117a.394.394 0 00.127-.305.439.439 0 00-.113-.326c-.076-.078-.195-.118-.355-.12h-.547zm0-.424h.436c.163-.002.288-.036.376-.103.088-.066.133-.165.134-.294 0-.142-.044-.244-.132-.305-.087-.063-.214-.095-.38-.096h-.434v.798zm3.479 1.13h-.913l-.18.635h-.617l.996-3.041h.533l.977 3.04h-.618l-.178-.634zm-.768-.5h.63l-.31-1.119-.32 1.12zm3.849 1.135h-.58v-1.318h-.861v1.318h-.583V9.79h.583v1.247h.86V9.79h.58v3.04zm1.97-3.041h.588v3.04h-.589v-1.94l-.863 1.94h-.586v-3.04h.586v1.942l.863-1.942zm3.032 1.708H39.95v.859h1.46v.474h-2.05V9.79h2.043v.478H39.95v.767h1.25v.463z" fill="#fff"/></g></g><defs><clipPath id="clip0_590_273"><path fill="#fff" d="M0 0h54v54H0z"/></clipPath></defs></svg>