<svg width="54" height="54" fill="none" xmlns="http://www.w3.org/2000/svg"><g clip-path="url(#clip0_590_38)"><path d="M53.858 0H0v53.86h53.858V0z" fill="#566D79"/><path d="M36.85 21.78a.237.237 0 00-.177-.076h-19.54a.235.235 0 00-.175.076.233.233 0 00-.05.184L20.19 41.82c.017.11.112.19.225.19h4.03l.276 3.234-1.696.001 3.945 3.946 3.955-3.954-1.696.003.275-3.23h4.101a.226.226 0 00.224-.195l3.071-19.85a.227.227 0 00-.05-.185zm-7.552 15.895s-.888.913-2.33.813c-1.45.1-2.336-.813-2.336-.813-1.465-1.463-.943-3.282-.432-4.222.315-.589 2.564-3.968 2.757-4.254v-.023l.01.01.007-.01v.023c.187.286 2.441 3.665 2.755 4.254.512.94 1.032 2.76-.43 4.222zm6.2-11.717c-.53-.235-1.203-.15-1.847.111-2.424.982-4.075 1.335-6.625.54-1.606-.504-3.109-1.558-4.885-.917-1.178.423-2.276.83-3.61.817l-.769-3.944H36.05l-.553 3.393zM7.962 15.754c1.936 0 2.691-1.057 2.691-2.739v-1.6c0-1.779-.705-2.675-2.02-2.675-.768 0-1.23.352-1.505.88h-.016V7.281c0-.658.21-1.123.865-1.123s.85.385.85 1.057v.722h1.665V7.36c0-1.603-.53-2.724-2.546-2.724-1.922 0-2.643 1.234-2.643 2.932v5.285c0 1.683.736 2.9 2.66 2.9zm-.85-4.565c.033-.608.29-.993.865-.993.624 0 .864.385.864 1.09v1.89c0 .69-.256 1.09-.879 1.09-.61 0-.85-.419-.85-1.09v-1.987zm9.432-6.258h.675v4.301h-.675V7.48a.85.85 0 01-.601.234c-.51 0-.812-.3-.812-.92V4.93h.675v1.776c0 .264.11.392.327.392.276 0 .41-.159.41-.479V4.931zm2.619 0h.682v4.301h-.603v-2.79l-.836 2.79h-.68v-4.3h.6v2.777l.837-2.778zm1.137.995c0-.668.352-1.057.996-1.057.646 0 .995.39.995 1.057v.454h-.64v-.497c0-.264-.11-.399-.336-.399-.228 0-.34.135-.34.4v2.401c0 .265.112.393.34.393.226 0 .337-.128.337-.393V7.66h.639v.576c0 .671-.35 1.058-.995 1.058-.644 0-.995-.387-.995-1.058v-2.31zm2.92 3.306V5.546h-.706v-.615h2.09v.615h-.71v3.686h-.674zm2.077-1.425h.608l-.307-2.17-.3 2.17zm.812 1.425l-.117-.841h-.78l-.117.84h-.627l.7-4.3h.915l.701 4.3h-.675zm2.293-2.458V5.546h-.308c-.226 0-.344.147-.344.442v.332c0 .324.135.454.406.454h.246zm.675 2.458h-.675V7.39h-.234c-.314 0-.425.135-.425.53v.784c0 .227-.017.406-.06.53h-.69c.05-.118.075-.289.075-.524v-.755c0-.51.149-.817.449-.909v-.014c-.295-.115-.442-.399-.442-.848v-.262c0-.67.307-.99 1-.99h1.002v4.301zm2.163-.615h.388c.24 0 .35-.11.35-.425v-.375c0-.392-.122-.52-.436-.52h-.301v1.32zm0-1.935h.266c.269 0 .406-.129.406-.456v-.238c0-.295-.118-.442-.344-.442h-.327v1.136zm-.674 2.55v-4.3h1.019c.695 0 1.002.32 1.002.99v.17c0 .442-.147.725-.437.843v.012c.339.115.504.411.504.896v.368c0 .663-.355 1.021-1.026 1.021h-1.062zm3.81-3.324c0-.284-.118-.425-.351-.425-.233 0-.351.141-.351.425v2.345c0 .284.118.425.351.425.233 0 .351-.14.351-.425V5.908zm-1.377.043c0-.687.363-1.08 1.026-1.08s1.026.393 1.026 1.08v2.261c0 .688-.363 1.081-1.026 1.081s-1.026-.393-1.026-1.08V5.95zm4.131 2.667V5.547h-.591l-.068 2.593a.802.802 0 01-.153.478h.812zm.675 0h.332V9.81h-.676v-.577h-1.475v.577h-.675V8.618h.362c.075-.093.111-.24.118-.442l.11-3.244h1.904v3.686zm1.298-.811h.608l-.308-2.17-.3 2.17zm.81 1.425l-.116-.841h-.78l-.116.84h-.627l.7-4.3h.915l.701 4.3h-.677zm-23.247 2.051h.683v4.301h-.602v-2.79l-.838 2.79h-.68v-4.301h.602v2.778l.835-2.778zm2.122.995c0-.67.351-1.057.995-1.057.646 0 .995.387.995 1.057v.454h-.639v-.497c0-.264-.11-.399-.337-.399-.228 0-.339.135-.339.4v2.401c0 .265.111.393.34.393.225 0 .336-.128.336-.393v-.626h.64v.576c0 .671-.35 1.058-.996 1.058-.644 0-.995-.387-.995-1.058v-2.309zm3.037 1.88h.608l-.308-2.168-.3 2.168zm.81 1.425l-.116-.84h-.781l-.115.84h-.627l.699-4.3h.916l.7 4.3h-.676zm.997 0v-4.3h.675v1.751h.726v-1.752h.675v4.301h-.675v-1.935h-.726v1.935h-.675zm4.019-4.3h.682v4.301h-.603v-2.79l-.836 2.79h-.68v-4.301h.601v2.778l.836-2.778zm1.716 4.3v-3.686h-.707v-.615h2.089v.615h-.707v3.686h-.675zm2.078-1.425h.608l-.308-2.168-.3 2.168zm.81 1.425l-.116-.84h-.78l-.116.84h-.627l.699-4.3h.916l.7 4.3h-.676zm1.672-2.365h.32c.221 0 .332-.11.332-.406v-.51c0-.293-.11-.403-.332-.403h-.32v1.319zm-.675 2.365v-4.3h.995c.67 0 1.007.357 1.007 1.063v.423c0 .707-.337 1.064-1.007 1.064h-.32v1.75h-.675zm3.804-4.3h.682v4.301h-.603v-2.79l-.836 2.79h-.68v-4.301h.601v2.778l.836-2.778zm2.484 1.843v-1.228h-.308c-.226 0-.344.147-.344.442v.332c0 .324.135.454.406.454h.246zm.675 2.458h-.675v-1.843h-.234c-.314 0-.425.135-.425.527v.787c0 .227-.017.406-.06.53h-.687c.048-.118.072-.29.072-.524v-.755c0-.51.149-.817.449-.91v-.013c-.295-.115-.442-.399-.442-.846v-.264c0-.67.307-.99 1-.99h1.002v4.301z" fill="#fff"/></g><defs><clipPath id="clip0_590_38"><path fill="#fff" d="M0 0h53.858v53.86H0z"/></clipPath></defs></svg>