<svg width="54" height="54" fill="none" xmlns="http://www.w3.org/2000/svg"><g clip-path="url(#clip0_590_64)"><path d="M53.858 0H0v53.86h53.858V0z" fill="#566D79"/><path d="M26.949 26.097a7.895 7.895 0 10.001 15.79 7.895 7.895 0 00-.001-15.79zm-.585 3.117c0-.262.266-.551.589-.551.323 0 .584.289.584.55v2.712c0 .26-.261.547-.584.547-.323 0-.59-.286-.59-.547v-2.711zm.587 8.822a4.107 4.107 0 01-1.221-8.03v1.532a2.685 2.685 0 001.22 5.08 2.687 2.687 0 001.214-5.086v-1.525a4.106 4.106 0 01-1.213 8.029zm-9.064-4.115c0-.358-.316-.648-.606-.648h-3.457c-.292 0-.613.29-.613.648 0 .36.321.651.613.651h3.457c.29 0 .606-.292.606-.65zm22.802 0c0-.358-.316-.648-.606-.648h-3.457c-.292 0-.611.29-.611.648 0 .36.319.651.61.651h3.458c.29 0 .606-.292.606-.65zM26.952 47.66c.358 0 .648-.317.648-.607v-3.457c0-.292-.29-.61-.648-.61-.359 0-.65.318-.65.61v3.457c0 .29.291.606.65.606z" fill="#fff"/><path d="M38.875 40.745c.178-.311.047-.72-.206-.862l-2.998-1.719c-.254-.145-.676-.052-.853.26-.178.31-.045.723.207.868l3 1.717c.252.144.672.047.85-.264zm-18.746 5.101c.31.178.72.047.862-.204l1.719-3.002c.145-.25.05-.674-.26-.85-.31-.179-.723-.046-.867.206l-1.718 3c-.144.251-.047.672.264.85zM33.8 45.83c.311-.177.402-.597.26-.85l-1.723-2.994c-.147-.254-.556-.385-.867-.207-.31.178-.404.6-.259.855l1.722 2.997c.145.248.556.378.867.2zm-18.757-5.059c.178.311.598.402.85.26l2.995-1.725c.252-.143.385-.554.207-.865-.178-.31-.601-.404-.855-.26l-2.995 1.723c-.25.145-.382.556-.202.867zM26.952 24.86c.358 0 .648-.317.648-.607v-3.457c0-.293-.29-.613-.648-.613-.359 0-.65.32-.65.613v3.457c0 .29.291.606.65.606zm-7.867 4.56c.178-.312.047-.72-.205-.865l-2.999-1.717c-.254-.145-.676-.05-.854.258-.177.313-.044.724.21.87l2.998 1.716c.252.143.672.048.85-.263zm12.369-3.363c.311.178.72.047.862-.205l1.72-3.001c.144-.252.05-.674-.26-.851-.31-.18-.724-.045-.869.207l-1.717 3c-.144.252-.047.672.264.85zm-9.02.008c.311-.178.402-.598.26-.85l-1.725-2.997c-.145-.25-.554-.383-.865-.205-.31.178-.404.6-.259.855l1.722 2.995c.147.252.556.38.867.202zm12.374 3.34c.178.31.598.402.85.259l2.995-1.724c.252-.143.385-.554.207-.865-.178-.311-.6-.404-.855-.26l-2.995 1.723c-.25.145-.382.556-.202.867zM5.687 6.016h2.821L6.07 15.385h1.811l2.387-9.177V4.525H5.687v1.49zm8.005 2.999V4.714h.675v1.752h.726V4.714h.675v4.3h-.675V7.08h-.726v1.935h-.675zm2.581 0V4.714h1.843v.615h-1.168v1.137h.928v.614h-.928V8.4h1.168v.615h-1.843zm3.842-.615V5.33h-.591l-.068 2.592a.803.803 0 01-.153.479h.812zm.675 0h.332v1.193h-.676v-.577H18.97v.577h-.675V8.4h.362c.075-.091.11-.24.118-.442l.11-3.244h1.904V8.4zm1.98-2.709c0-.283-.117-.423-.35-.423-.233 0-.351.14-.351.423v2.347c0 .282.118.423.35.423.234 0 .352-.14.352-.423V5.691zm-1.376.043c0-.688.363-1.08 1.026-1.08s1.026.392 1.026 1.08v2.261c0 .688-.363 1.081-1.026 1.081s-1.026-.393-1.026-1.08V5.733zm3.183.916h.32c.221 0 .332-.11.332-.407v-.509c0-.294-.11-.406-.332-.406h-.32V6.65zm-.675 2.364v-4.3h.995c.67 0 1.007.357 1.007 1.063V6.2c0 .707-.337 1.064-1.007 1.064h-.32v1.75h-.675zm3.694-3.323c0-.283-.118-.423-.351-.423-.233 0-.351.14-.351.423v2.347c0 .282.118.423.35.423.234 0 .352-.14.352-.423V5.691zm-1.377.043c0-.688.363-1.08 1.026-1.08s1.026.392 1.026 1.08v2.261c0 .688-.363 1.081-1.026 1.081s-1.026-.393-1.026-1.08V5.733zm2.508 3.281V4.714h1.726v.615h-1.05v3.686h-.675zm3.356-3.324c0-.283-.118-.423-.35-.423-.234 0-.352.14-.352.423v2.347c0 .282.118.423.351.423.233 0 .351-.14.351-.423V5.691zm-1.377.043c0-.688.363-1.08 1.026-1.08s1.026.392 1.026 1.08v2.261c0 .688-.363 1.081-1.026 1.081s-1.026-.393-1.026-1.08V5.733zm2.459-.024c0-.67.351-1.057.995-1.057.646 0 .995.387.995 1.057v.454h-.639v-.497c0-.264-.111-.4-.337-.4-.228 0-.339.136-.339.4v2.402c0 .265.111.393.339.393.226 0 .337-.128.337-.393v-.626h.639v.576c0 .67-.349 1.058-.995 1.058-.644 0-.995-.387-.995-1.058v-2.31zm2.919 3.305V5.329h-.707v-.615h2.09v.615h-.708v3.686h-.675zm3.013-3.324c0-.283-.118-.423-.351-.423-.233 0-.351.14-.351.423v2.347c0 .282.118.423.35.423.234 0 .352-.14.352-.423V5.691zm-1.377.043c0-.688.363-1.08 1.026-1.08s1.026.392 1.026 1.08v2.261c0 .688-.363 1.081-1.026 1.081s-1.026-.393-1.026-1.08V5.733zm3.805.824V5.33h-.308c-.226 0-.344.147-.344.442v.332c0 .324.135.454.406.454h.246zm.675 2.458h-.675V7.173h-.234c-.314 0-.424.135-.424.527v.787c0 .227-.018.406-.061.529h-.69c.05-.118.075-.29.075-.523v-.755c0-.512.147-.817.449-.911v-.012c-.295-.115-.442-.4-.442-.848v-.262c0-.671.307-.99 1-.99H42.2v4.3zm3.675-.616h.356v1.2h-.675v-.585h-2.85v-4.3h.675V8.4h.572V4.714h.675V8.4h.572V4.714h.675V8.4zm1.33-.81h.608l-.309-2.169-.3 2.168zm.81 1.424l-.117-.84h-.78l-.116.84h-.627l.7-4.3h.915l.7 4.3h-.675zm2.294-2.456V5.33H50c-.226 0-.344.147-.344.442v.332c0 .324.135.454.406.454h.246zm.675 2.458h-.675V7.173h-.234c-.314 0-.424.135-.424.527v.787c0 .227-.018.406-.061.529h-.69c.05-.118.075-.29.075-.523v-.755c0-.512.149-.817.449-.911v-.012c-.295-.115-.442-.4-.442-.848v-.262c0-.671.308-.99 1-.99h1.002v4.3zm-35.854 2.05h.681v4.301h-.603v-2.79l-.836 2.79h-.68v-4.3h.601v2.776l.836-2.777zm3.485 0h.675v4.301h-.675v-1.75a.854.854 0 01-.603.232c-.51 0-.81-.3-.81-.923v-1.86h.675v1.776c0 .264.11.392.327.392.276 0 .41-.159.41-.479v-1.689zm2.618 0h.682v4.301h-.603v-2.79l-.836 2.79h-.68v-4.3h.601v2.776l.836-2.777zm1.139.995c0-.668.35-1.057.995-1.057.646 0 .995.39.995 1.057v.454h-.64v-.497c0-.265-.11-.399-.336-.399-.228 0-.34.134-.34.4v2.401c0 .265.112.393.34.393.226 0 .337-.128.337-.393v-.627h.639v.577c0 .671-.35 1.057-.995 1.057-.644 0-.995-.386-.995-1.057v-2.309zm2.918 3.306V11.68h-.706v-.615h2.088v.615h-.707v3.686h-.674zm2.079-1.426h.608l-.308-2.168-.3 2.168zm.81 1.425l-.116-.84h-.781l-.115.84h-.627l.699-4.299h.916l.7 4.3h-.676zm2.293-2.457V11.68h-.308c-.226 0-.344.147-.344.442v.332c0 .324.135.454.406.454h.246zm.675 2.458h-.675v-1.843h-.234c-.314 0-.424.135-.424.529v.785c0 .228-.018.406-.06.529h-.688c.048-.117.072-.288.072-.522v-.756c0-.51.15-.817.45-.91v-.013c-.296-.115-.443-.399-.443-.848v-.262c0-.67.308-.99 1-.99h1.002v4.3zm3.382-.996c0 .67-.351 1.057-1.007 1.057-.658 0-1.01-.387-1.01-1.057v-.363h.64v.413c0 .264.118.392.35.392.234 0 .352-.128.352-.392v-.99h-.683v-.614h.683v-.799c0-.264-.118-.399-.351-.399-.233 0-.351.135-.351.4v.283h-.64v-.24c0-.67.352-1.057 1.01-1.057.656 0 1.007.386 1.007 1.057v2.31zm.455.996v-4.301h.675v1.75h.726v-1.75h.675v4.3h-.675v-1.934h-.726v1.935h-.675zm2.582 0v-4.301h1.843v.615h-1.168v1.136h.928v.615h-.928v1.32h1.168v.615h-1.843zm2.883-2.366h.32c.22 0 .332-.11.332-.405v-.51c0-.295-.111-.407-.332-.407h-.32v1.322zm-.675 2.366v-4.3h.995c.67 0 1.007.355 1.007 1.061v.425c0 .705-.337 1.062-1.007 1.062h-.32v1.752h-.675zm2.366 0v-4.301h1.726v.615h-1.05v3.686h-.676zm3.49-4.301h.682v4.301h-.603v-2.79l-.836 2.79h-.68v-4.3h.601v2.776l.836-2.777zm2.485 1.843V11.68h-.309c-.225 0-.343.147-.343.442v.332c0 .324.135.454.406.454h.246zm.675 2.458h-.675v-1.843h-.234c-.314 0-.425.135-.425.529v.785c0 .228-.018.406-.06.529h-.69c.05-.117.075-.288.075-.522v-.756c0-.51.147-.817.449-.91v-.013c-.295-.115-.442-.399-.442-.848v-.262c0-.67.306-.99 1-.99h1.002v4.3z" fill="#fff"/></g><defs><clipPath id="clip0_590_64"><path fill="#fff" d="M0 0h53.858v53.86H0z"/></clipPath></defs></svg>