<svg width="54" height="54" fill="none" xmlns="http://www.w3.org/2000/svg"><mask id="a" style="mask-type:luminance" maskUnits="userSpaceOnUse" x="0" y="0" width="54" height="54"><path d="M54 0H0v54h54V0z" fill="#fff"/></mask><g mask="url(#a)"><path d="M54 0H0v54h54V0z" fill="#566D79"/><path fill-rule="evenodd" clip-rule="evenodd" d="M41.233 35.497l-6.43-3.682V24.45c0-.189-.095-.283-.19-.377l-6.62-3.777c-.095-.094-.284-.094-.473 0l-6.62 3.777c-.19.094-.19.188-.19.377v7.364l-6.43 3.682c-.095.094-.19.188-.19.377v7.647c0 .189.095.283.19.378l6.62 3.87c.095 0 .095.095.19.095.094 0 .189 0 .189-.095l6.43-3.681 6.431 3.681c.095 0 .095.095.19.095.094 0 .188 0 .188-.095l6.62-3.87c.095-.095.19-.189.19-.378v-7.647c.094-.094 0-.283-.095-.377zm-13.997 7.269l-5.295-3.021 5.295-3.021v6.042zm6.242-10.668l-5.296 3.021v-6.136l5.296 3.115zm-6.242 3.021l-5.295-3.021 5.295-3.02v6.041zm1.325.755l5.768-3.304 5.769 3.304-5.769 3.304-5.768-3.304zm5.295-4.531l-5.295-3.021 5.295-3.021v6.042zm-7.092-3.116l-5.297 3.021v-6.136l5.297 3.115zm-6.148 18.41l-5.768-3.305v-6.608l5.768 3.304v6.608zm.851 0V40.5l5.297 3.021-5.297 3.115zm19.104-3.305l-5.769 3.304v-6.608l5.77-3.304v6.608zM9.145 7.27c0-1.7-.757-2.927-2.648-2.927-1.892 0-2.648 1.038-2.648 2.737v1.605c0 1.794.662 2.643 1.986 2.643.756 0 1.229-.377 1.513-.85v2.361c0 .66-.284 1.133-.946 1.133-.662 0-.946-.378-.946-1.039v-.755H3.754v.567c0 1.605.568 2.737 2.553 2.737 1.892 0 2.649-1.227 2.649-2.926V7.269h.189zM7.348 8.967c0 .567-.284.944-.851.944-.662 0-.851-.377-.851-1.038V6.986c0-.66.283-1.039.85-1.039.568 0 .852.378.852 1.039v1.982z" fill="#fff"/><path d="M13.618 4.531h-.662v4.532h.662V4.531z" fill="#fff"/><path fill-rule="evenodd" clip-rule="evenodd" d="M14.47 6.23v2.833h-.662V4.531h.756l.851 2.55V4.53h.662v4.532h-.662L14.47 6.23zm4.16-.471v2.077c0 .66-.284 1.227-1.135 1.227h-1.134V4.531h1.134c.851 0 1.135.473 1.135 1.228zM17.4 8.402c.285 0 .474-.189.474-.472V5.57c0-.283-.095-.472-.473-.472h-.284v3.304h.284zm3.689-3.871v3.494c0 .755-.283 1.132-1.135 1.132-.85 0-1.135-.472-1.135-1.133V4.531h.757V8.12c0 .283.095.472.378.472.284 0 .378-.189.378-.472V4.53h.757zm.19 3.588v-.567h.662v.661c0 .284.094.378.378.378a.406.406 0 00.378-.378v-.188c0-.284-.095-.473-.378-.661l-.473-.472c-.378-.472-.662-.661-.662-1.228V5.57c0-.566.379-1.039 1.04-1.039.757 0 1.04.378 1.04 1.039v.378h-.472V5.57c0-.283-.095-.378-.378-.378-.19 0-.379.095-.379.378v.094c0 .284.19.378.379.567l.472.472c.378.377.568.66.568 1.133v.188c0 .661-.378 1.039-1.135 1.039-.756 0-1.04-.283-1.04-.944zm2.174-3.588h2.081v.661h-.662v3.871h-.757v-3.87h-.662V4.53zm3.027 2.455v2.077h-.757V4.531h1.135c.757 0 1.04.378 1.04 1.039v.566c0 .472-.189.756-.567.85l.756 2.077h-.756l-.851-2.077zm0-1.794v1.416h.284c.284 0 .378-.094.378-.377v-.755c0-.284-.095-.378-.378-.378h-.284v.094zm3.027 2.172v1.699h-.757v-1.7l-.85-2.831h.756l.568 1.7.472-1.7h.663l-.851 2.833zm1.323 1.038l-.378 1.133h-.474l.095-1.133h.757z" fill="#fff"/><path d="M32.248 4.531h-.756v4.532h.756V4.531z" fill="#fff"/><path fill-rule="evenodd" clip-rule="evenodd" d="M33.195 6.23v2.833h-.662V4.531h.756l.851 2.55V4.53h.662v4.532h-.662l-.945-2.832zm2.458 0v2.833h-.568V4.531h.662l.852 2.55V4.53h.567v4.532h-.662l-.851-2.832zm1.892 1.7V5.76c0-.755.378-1.228 1.134-1.228.757 0 1.136.473 1.136 1.228v2.17c0 .755-.379 1.227-1.136 1.227-.756 0-1.134-.472-1.134-1.227zm1.513.095v-2.36c0-.284-.095-.473-.379-.473-.283 0-.378.19-.378.472V8.12c0 .283.095.472.378.472.284-.094.379-.283.379-.566zm3.404-3.494l-.945 4.532h-.851l-.851-4.532h.756l.567 3.116.568-3.116h.756zm-.472 4.532l.85-4.532h.852l.851 4.532h-.756l-.095-.85h-.851l-.19.85h-.661zm.945-1.416h.662l-.283-1.794-.379 1.794zm1.325-3.116h1.986v.661h-.568v3.871h-.757v-3.87h-.662V4.53z" fill="#fff"/><path d="M47.191 4.531h-.662v4.532h.662V4.531z" fill="#fff"/><path fill-rule="evenodd" clip-rule="evenodd" d="M47.57 7.93V5.76c0-.755.377-1.228 1.134-1.228.756 0 1.135.473 1.135 1.228v2.17c0 .755-.379 1.227-1.135 1.227-.851 0-1.135-.472-1.135-1.227zm1.512.095v-2.36c0-.284-.094-.473-.378-.473-.284 0-.378.19-.378.472V8.12c0 .283.094.472.378.472.19-.094.378-.283.378-.566zM50.69 6.23v2.833h-.662V4.531h.756l.852 2.55V4.53h.662v4.532h-.663L50.69 6.23zm-38.018 9.252l.851-4.531h.852l.85 4.531h-.756l-.094-.85h-.851l-.095.85h-.757zm.946-1.416h.567l-.283-1.793-.284 1.793zm2.459-1.416v2.832h-.662v-4.531h.757l.85 2.643v-2.643h.663v4.531h-.662l-.946-2.832zm4.067-.472v2.077c0 .661-.284 1.227-1.135 1.227h-1.135v-4.531h1.135c.85 0 1.135.566 1.135 1.227zm-1.135 2.738c.283 0 .473-.189.473-.472v-2.36c0-.284-.095-.472-.473-.472h-.284v3.304h.284z" fill="#fff"/><path d="M21.751 10.95h-.756v4.532h.756v-4.531z" fill="#fff"/><path fill-rule="evenodd" clip-rule="evenodd" d="M22.602 12.65v2.832h-.567v-4.531h.662l.851 2.643v-2.643h.568v4.531h-.568l-.946-2.832zm1.892-1.7h1.702v.662h-.945v1.321h.662v.567h-.662v1.982h-.757v-4.531zm2.648 2.455v2.077h-.756v-4.531h1.134c.757 0 1.04.378 1.04 1.038v.567c0 .472-.189.755-.567.85l.757 2.076h-.757l-.85-2.076zm0-1.793v1.416h.284c.284 0 .378-.095.378-.378v-.66c0-.284-.094-.378-.378-.378h-.284z" fill="#fff"/><path fill-rule="evenodd" clip-rule="evenodd" d="M28.655 15.482l.851-4.531h.852l.85 4.531h-.756l-.094-.85h-.852l-.094.85h-.757zm1.04-1.416h.663l-.284-1.793-.379 1.793zm1.608.378v-.566h.662v.66c0 .284.094.378.378.378a.406.406 0 00.378-.378v-.188c0-.284-.094-.472-.284-.661l-.472-.472c-.378-.472-.662-.661-.662-1.228v-.188c0-.567.378-1.039 1.04-1.039.757 0 1.04.378 1.04 1.039v.472h-.662v-.378c0-.283-.094-.377-.378-.377-.19 0-.378.094-.378.377v.095c0 .283.189.377.378.566l.473.472c.378.378.567.66.567 1.133v.189c0 .66-.378 1.038-1.134 1.038-.757 0-.946-.283-.946-.944zm2.175-3.494h1.986v.662h-.568v3.87h-.756v-3.87h-.662v-.661zm3.026 2.455v2.077h-.756v-4.531h1.135c.756 0 1.04.378 1.04 1.038v.567c0 .472-.19.755-.568.85l.757 2.076h-.757l-.85-2.076zm0-1.793v1.416h.284c.284 0 .379-.095.379-.378v-.66c0-.284-.095-.378-.379-.378h-.284zm3.783-.662v3.4c0 .66-.284 1.132-1.04 1.132-.757 0-1.135-.472-1.135-1.132v-3.4h.756v3.494c0 .283.095.472.379.472.283 0 .378-.189.378-.472V10.95h.662zm.19 3.305v-2.171c0-.755.378-1.227 1.135-1.227.85 0 1.134.472 1.134 1.133v.566h-.756v-.566c0-.284-.095-.473-.378-.473-.284 0-.379.19-.379.473v2.454c0 .283.095.472.379.472.283 0 .378-.189.378-.472v-.85h.756v.756c0 .66-.283 1.133-1.134 1.133-.757 0-1.135-.473-1.135-1.228zm2.363-3.305h2.081v.662h-.662v3.87h-.756v-3.87h-.662v-.661zm4.446 0v3.4c0 .66-.284 1.132-1.135 1.132-.852 0-1.135-.472-1.135-1.132v-3.4h.756v3.494c0 .283.095.472.379.472.284 0 .378-.189.378-.472V10.95h.757zm1.04 2.455v2.077h-.757v-4.531h1.135c.756 0 1.04.378 1.04 1.038v.567c0 .472-.189.755-.567.85l.757 2.076h-.757l-.851-2.076zm0-1.793v1.416h.283c.284 0 .379-.095.379-.378v-.66c0-.284-.095-.378-.379-.378h-.283zm1.608-.662h1.796v.662h-1.04v1.321h.757v.567h-.757v1.416h1.04v.566h-1.796v-4.531z" fill="#fff"/><path d="M52.396 2.673H10.693v17.644h41.703V2.673z" fill="#566D79"/><path d="M12.91 4.979h.588v3.04h-.589V6.08l-.863 1.94h-.586V4.98h.586v1.94l.863-1.942zm3.167 3.04h-.58V6.703h-.86V8.02h-.584V4.979h.583v1.247h.86V4.979h.581v3.04zm2.625.748h-.505V8.02h-1.15v.747h-.496l-.092-1.22h.113a.519.519 0 00.168-.14.76.76 0 00.118-.241c.032-.103.058-.23.078-.383.019-.153.033-.34.041-.56l.084-1.244h1.502v2.569h.223l-.084 1.22zm-1.136-2.543c-.007.163-.017.31-.03.442-.014.133-.03.253-.051.362a2.72 2.72 0 01-.073.29 1.834 1.834 0 01-.092.23h.658V5.455h-.362l-.05.769zm2.48-.2l.198.561.635-1.606h.639l-1.082 2.464a1.539 1.539 0 01-.128.236.828.828 0 01-.409.335.925.925 0 01-.32.05 1.24 1.24 0 01-.262-.025 3.41 3.41 0 01-.184-.042l.037-.46.065.02a8.395 8.395 0 00.167.03.658.658 0 00.259-.017.43.43 0 00.13-.058.356.356 0 00.09-.09.516.516 0 00.06-.12l.058-.13-1.06-2.193h.634l.472 1.044zm3.842 1.043a1.15 1.15 0 01-.1.414.95.95 0 01-.564.514 1.3 1.3 0 01-.434.069c-.18 0-.34-.033-.479-.099a.994.994 0 01-.35-.277 1.28 1.28 0 01-.218-.43 1.907 1.907 0 01-.075-.552v-.41c0-.201.027-.386.08-.553.053-.167.127-.31.225-.43a1.014 1.014 0 01.821-.378c.167 0 .315.024.445.071a.94.94 0 01.334.203.937.937 0 01.217.321c.053.127.087.27.1.428h-.584a.994.994 0 00-.042-.238.424.424 0 00-.094-.169.365.365 0 00-.155-.102.617.617 0 00-.221-.036.46.46 0 00-.236.059.469.469 0 00-.167.171.885.885 0 00-.096.278 1.967 1.967 0 00-.031.372v.413c0 .3.041.52.125.664.085.144.218.215.4.215.154 0 .275-.04.364-.12.089-.083.139-.215.148-.398h.587zm2.692-1.61h-.937V8.02h-.59V5.457h-.925V4.98h2.452v.478zm.959 1.448V8.02h-.587V4.979h1.04c.166 0 .315.024.449.073a.97.97 0 01.34.2.84.84 0 01.218.308c.052.12.077.252.077.398a.912.912 0 01-.294.68 1.006 1.006 0 01-.341.195 1.338 1.338 0 01-.45.072h-.452zm0-.477h.453a.573.573 0 00.217-.037.43.43 0 00.245-.25.515.515 0 00.03-.178.613.613 0 00-.03-.199.435.435 0 00-.245-.27.548.548 0 00-.217-.039h-.453v.973zm3.352-1.45h.589V8.02h-.59V6.08l-.862 1.94h-.587V4.979h.587V6.92l.863-1.942zm2.656 2.407h-.912l-.18.635h-.618l.996-3.041h.533l.977 3.04h-.618l-.178-.634zm-.768-.5h.63l-.31-1.119-.32 1.12zm3.872-1.906v3.04h-.59V5.456h-.628l-.01 1.115a3.674 3.674 0 01-.063.675 1.407 1.407 0 01-.158.449.636.636 0 01-.261.248.82.82 0 01-.366.078h-.146v-.472h.084a.295.295 0 00.162-.06.327.327 0 00.096-.164c.024-.075.04-.173.048-.294a8.71 8.71 0 00.017-.46l.013-1.591h1.802zm1.946 0h.59v3.04h-.59V6.08l-.862 1.94h-.587V4.98h.587v1.94l.862-1.942zm3.29.825a.671.671 0 01-.274.535.956.956 0 01-.198.119.775.775 0 01.384.267.718.718 0 01.134.443.809.809 0 01-.328.662 1.124 1.124 0 01-.368.173 1.758 1.758 0 01-.87.008 1.197 1.197 0 01-.362-.158.775.775 0 01-.357-.677h.589a.359.359 0 00.148.295.559.559 0 00.17.09.867.867 0 00.461 0 .544.544 0 00.18-.093.396.396 0 00.11-.135.393.393 0 00.038-.172c0-.163-.046-.28-.138-.353-.09-.072-.224-.108-.401-.108h-.41v-.46h.41a.76.76 0 00.223-.029.393.393 0 00.153-.088.329.329 0 00.088-.133.51.51 0 00.029-.176.39.39 0 00-.031-.154.335.335 0 00-.097-.13.475.475 0 00-.165-.085.726.726 0 00-.233-.034.667.667 0 00-.194.027.497.497 0 00-.157.078.398.398 0 00-.105.12.332.332 0 00-.037.16h-.587a.749.749 0 01.322-.63 1.07 1.07 0 01.342-.168c.13-.04.27-.06.416-.06.168 0 .321.018.459.056a.971.971 0 01.35.165.731.731 0 01.226.271c.053.107.08.232.08.374zm1.936 1.58h-.913l-.18.636h-.617l.996-3.041h.532l.977 3.04H44l-.177-.634zm-.769-.498h.631l-.311-1.12-.32 1.12zm3.897.027h-1.74v-.47h1.74v.47zM11.456 9.79h.585v2.569h.828V9.79h.59v2.572h.394l-.042 1.203h-.543v-.733h-1.812V9.79zm4.022 0h.589v3.04h-.59v-1.94l-.862 1.94h-.587V9.79h.587v1.942l.863-1.942zm2.477 3.04v-1.196h-.47l-.572 1.197h-.629l.658-1.375a.919.919 0 01-.37-.309.831.831 0 01-.125-.463c0-.146.026-.275.077-.387a.756.756 0 01.221-.28 1.01 1.01 0 01.353-.169c.138-.039.293-.058.464-.058h.982v3.04h-.59zm-.921-2.11c0 .158.043.275.131.352.088.075.22.113.397.113h.393v-.919h-.393c-.18 0-.315.04-.4.119a.435.435 0 00-.128.334zm3.383 2.065c0 .08-.01.16-.033.244a1.26 1.26 0 01-.224.464c-.051.07-.107.131-.167.186l-.307-.16a2.15 2.15 0 00.134-.314 1.404 1.404 0 00.054-.393v-.489h.545l-.002.462zm2.767-2.995h.59v3.04h-.59v-1.94l-.862 1.94h-.587V9.79h.587v1.942l.862-1.942zm3.169 3.04h-.581v-1.317h-.86v1.318h-.583V9.79h.583v1.247h.86V9.79h.58v3.04zm2.569 0h-.581v-1.317h-.86v1.318h-.583V9.79h.582v1.247h.861V9.79h.58v3.04zm2.683-1.296c0 .195-.026.374-.077.538a1.252 1.252 0 01-.223.425 1.032 1.032 0 01-.83.375c-.175 0-.331-.032-.468-.098a.988.988 0 01-.344-.277 1.283 1.283 0 01-.213-.425 1.893 1.893 0 01-.073-.538v-.443c0-.195.024-.375.073-.539.049-.164.12-.306.213-.424a.983.983 0 01.342-.28c.137-.067.293-.1.468-.1.177 0 .335.033.474.1.141.067.26.16.358.28.097.119.171.26.223.424.051.164.077.344.077.539v.443zm-.595-.447c0-.124-.01-.238-.032-.343a.856.856 0 00-.093-.27.483.483 0 00-.168-.175.44.44 0 00-.244-.064.416.416 0 00-.392.24.896.896 0 00-.084.27 2.188 2.188 0 00-.025.342v.447c0 .122.008.236.025.34a.924.924 0 00.084.272c.039.076.09.136.154.18a.42.42 0 00.24.064.436.436 0 00.242-.065.48.48 0 00.166-.177.924.924 0 00.095-.272c.021-.104.032-.218.032-.342v-.447zm1.038 1.744V9.79h1.021c.166 0 .316.017.451.05.137.033.253.084.35.152a.69.69 0 01.22.26.79.79 0 01.08.369.682.682 0 01-.115.382.683.683 0 01-.328.257.697.697 0 01.228.1.612.612 0 01.159.16.762.762 0 01.125.42.931.931 0 01-.076.385.742.742 0 01-.215.28.94.94 0 01-.34.17 1.665 1.665 0 01-.45.056h-1.11zm.589-1.341v.867h.522c.16-.002.282-.04.365-.117a.394.394 0 00.128-.305.436.436 0 00-.113-.326c-.077-.078-.195-.118-.355-.12h-.547zm0-.424h.436c.163-.002.288-.036.376-.103.088-.066.133-.165.134-.294 0-.142-.044-.244-.132-.305-.087-.063-.214-.095-.38-.096h-.434v.798zm3.48 1.13h-.913l-.18.635h-.618l.996-3.041h.533l.977 3.04h-.618l-.177-.634zm-.77-.5h.631l-.31-1.119-.32 1.12zm1.797-1.906h.584v2.569h.83V9.79h.589v2.572h.394l-.041 1.203h-.544v-.733h-1.812V9.79zm4.022 0h.59v3.04h-.59v-1.94l-.862 1.94h-.587V9.79h.587v1.942l.862-1.942zm2.57 0h.588v3.04h-.589v-1.94l-.862 1.94h-.587V9.79h.587v1.942l.862-1.942zm-30.827 4.812h.589v3.04h-.589v-1.94l-.863 1.94h-.586v-3.04h.586v1.942l.863-1.942zm5.138 0h.588v3.04h-.588v-1.94l-.863 1.94h-.587v-3.04h.587v1.942l.863-1.942zm3.168 3.04h-.58v-1.317h-.861v1.317h-.582v-3.04h.582v1.247h.86v-1.247h.581v3.04zm1.967-2.631c.142.015.272.053.389.113a1.032 1.032 0 01.497.58c.047.131.07.276.07.435 0 .156-.023.299-.07.428a1.024 1.024 0 01-.497.57 1.133 1.133 0 01-.389.11v.395h-.584v-.394a1.155 1.155 0 01-.391-.11 1.006 1.006 0 01-.303-.23 1.061 1.061 0 01-.196-.337 1.271 1.271 0 01-.069-.428c0-.159.023-.304.07-.436a1.04 1.04 0 01.195-.345.987.987 0 01.303-.238c.119-.06.248-.098.39-.113v-.41h.585v.41zm-.966 1.132c0 .168.034.303.102.403a.455.455 0 00.28.19v-1.213a.454.454 0 00-.28.2.761.761 0 00-.103.42zm1.342-.004a.756.756 0 00-.1-.416.445.445 0 00-.276-.2v1.211a.444.444 0 00.276-.192c.067-.1.1-.235.1-.403zm1.412.388v1.116h-.587v-3.041h1.04c.166 0 .316.024.45.073a.967.967 0 01.34.2.848.848 0 01.217.307c.052.12.077.253.077.4a.92.92 0 01-.077.377.862.862 0 01-.218.301 1.003 1.003 0 01-.34.196 1.338 1.338 0 01-.449.071h-.453zm0-.476h.453a.571.571 0 00.217-.037.423.423 0 00.245-.251.515.515 0 00.031-.178.613.613 0 00-.031-.198.428.428 0 00-.245-.27.546.546 0 00-.217-.04h-.453v.974zm3.44.957h-.913l-.18.634H26.7l.996-3.04h.532l.977 3.04h-.617l-.178-.634zm-.769-.5h.631l-.311-1.119-.32 1.12zm3.954.182c-.01.153-.043.291-.1.414a.95.95 0 01-.564.513 1.304 1.304 0 01-.435.07 1.11 1.11 0 01-.478-.099.99.99 0 01-.351-.278 1.28 1.28 0 01-.217-.43 1.91 1.91 0 01-.075-.551v-.41c0-.201.026-.386.08-.553.052-.167.127-.31.225-.43.097-.12.215-.212.353-.278.139-.067.295-.1.467-.1.167 0 .316.024.445.07a.94.94 0 01.334.203.936.936 0 01.218.322c.052.127.086.27.1.428h-.585a.994.994 0 00-.042-.238.425.425 0 00-.094-.17.366.366 0 00-.154-.101.616.616 0 00-.222-.036.46.46 0 00-.236.059.47.47 0 00-.167.17.885.885 0 00-.096.279c-.02.108-.03.232-.03.371v.414c0 .3.04.52.124.664.085.143.219.215.401.215.154 0 .274-.04.364-.121.088-.082.138-.214.148-.397h.587zm2.692-1.61h-.938v2.563h-.59V15.08h-.924v-.478h2.452v.478zm.959 1.447v1.116h-.588v-3.041h1.04c.166 0 .316.024.45.073a.97.97 0 01.34.2.841.841 0 01.217.307c.052.12.078.253.078.4a.912.912 0 01-.295.678 1.006 1.006 0 01-.34.196 1.337 1.337 0 01-.45.071h-.453zm0-.476h.453a.572.572 0 00.217-.037.432.432 0 00.244-.251.515.515 0 00.031-.178.613.613 0 00-.03-.198.435.435 0 00-.245-.27.547.547 0 00-.217-.04h-.453v.974zm2.781-.405l.199.562.635-1.606h.639l-1.082 2.464c-.036.082-.079.16-.128.236a.828.828 0 01-.409.334.925.925 0 01-.32.05 1.24 1.24 0 01-.262-.025 3.298 3.298 0 01-.184-.041l.037-.46.065.019a19.034 19.034 0 00.167.031c.03.003.057.004.084.004a.66.66 0 00.175-.02.42.42 0 00.13-.059.34.34 0 00.09-.09.5.5 0 00.06-.12l.058-.13-1.06-2.193h.634l.472 1.044zm2.605.748h-.245v1.248H39.8v-3.04h.587v1.338h.145l.795-1.338h.679l-.907 1.464.943 1.576h-.682l-.728-1.248zm3.93-1.314h-.937v2.563h-.59V15.08h-.924v-.478h2.451v.478zm1.172.566l.198.562.635-1.606h.64l-1.082 2.464a1.92 1.92 0 01-.128.236.828.828 0 01-.41.334.925.925 0 01-.319.05 1.24 1.24 0 01-.263-.025 3.326 3.326 0 01-.184-.041l.038-.46.064.019a19.034 19.034 0 00.168.031.807.807 0 00.083.004.658.658 0 00.175-.02.42.42 0 00.13-.059.34.34 0 00.09-.09.5.5 0 00.06-.12l.059-.13-1.06-2.193h.634l.472 1.044zm2.355.881v1.116h-.586v-3.041h1.04c.166 0 .315.024.449.073a.975.975 0 01.34.2.848.848 0 01.218.307c.05.12.077.253.077.4a.921.921 0 01-.077.377.862.862 0 01-.217.301 1.012 1.012 0 01-.341.196 1.338 1.338 0 01-.45.071h-.453zm0-.476h.454a.57.57 0 00.217-.037.423.423 0 00.244-.251.515.515 0 00.032-.178.613.613 0 00-.032-.198.428.428 0 00-.244-.27.544.544 0 00-.217-.04h-.453v.974zm3.44.957h-.912l-.18.634h-.618l.996-3.04h.533l.977 3.04h-.618l-.178-.634zm-.768-.5h.63l-.31-1.119-.32 1.12z" fill="#fff"/></g></svg>