<svg width="54" height="54" viewBox="0 0 54 54" fill="none" xmlns="http://www.w3.org/2000/svg">
<g clip-path="url(#clip0_590_337)">
<mask id="mask0_590_337" style="mask-type:luminance" maskUnits="userSpaceOnUse" x="0" y="0" width="54" height="54">
<path d="M54 0H0V54H54V0Z" fill="white"/>
</mask>
<g mask="url(#mask0_590_337)">
<path d="M54 0H0V54H54V0Z" fill="#566D79"/>
<path fill-rule="evenodd" clip-rule="evenodd" d="M9.25172 41.0438H17.371C17.4651 41.0438 17.5597 40.9491 17.5597 40.8545C17.5597 40.7599 17.5597 40.7599 17.4651 40.7599L13.406 35.5587C13.406 35.5587 13.3113 35.4641 13.2167 35.4641H13.1226L9.15762 40.6658L9.06299 40.7599V40.8545C9.06299 40.9491 9.15762 41.0438 9.25172 41.0438Z" fill="white"/>
<path fill-rule="evenodd" clip-rule="evenodd" d="M17.371 41.895H9.25172C9.15762 41.895 9.06299 41.9897 9.06299 42.0843V48.5151C9.06299 48.6097 9.15762 48.7044 9.25172 48.7044H11.8951V44.6378C11.8951 44.5432 11.9897 44.4485 12.0843 44.4485H14.5384C14.633 44.4485 14.7276 44.5432 14.7276 44.6378V48.7044H17.371C17.4651 48.7044 17.5597 48.6097 17.5597 48.5151V42.0843C17.5597 41.895 17.4651 41.895 17.371 41.895Z" fill="white"/>
<path fill-rule="evenodd" clip-rule="evenodd" d="M45.5034 40.1926H37.4788C37.3847 40.1926 37.29 40.2873 37.29 40.3819V48.515C37.29 48.6097 37.3847 48.7043 37.4788 48.7043H45.5034C45.598 48.7043 45.6921 48.6097 45.6921 48.515V40.3819C45.6921 40.1926 45.598 40.1926 45.5034 40.1926ZM41.0663 45.4889C41.0663 45.583 40.9717 45.6776 40.8776 45.6776H38.5176C38.423 45.6776 38.3283 45.583 38.3283 45.4889V44.0699C38.3283 43.9753 38.423 43.8812 38.5176 43.8812H40.8776C40.9717 43.8812 41.0663 43.9753 41.0663 44.0699V45.4889ZM41.0663 42.7461C41.0663 42.8408 40.9717 42.9354 40.8776 42.9354H38.5176C38.423 42.9354 38.3283 42.8408 38.3283 42.7461V41.3277C38.3283 41.2331 38.423 41.1384 38.5176 41.1384H40.8776C40.9717 41.1384 41.0663 41.2331 41.0663 41.3277V42.7461ZM44.7479 45.4889C44.7479 45.583 44.6538 45.6776 44.5592 45.6776H42.1992C42.1046 45.6776 42.0105 45.583 42.0105 45.4889V44.0699C42.0105 43.9753 42.1046 43.8812 42.1992 43.8812H44.5592C44.6538 43.8812 44.7479 43.9753 44.7479 44.0699V45.4889ZM44.7479 42.7461C44.7479 42.8408 44.6538 42.9354 44.5592 42.9354H42.1992C42.1046 42.9354 42.0105 42.8408 42.0105 42.7461V41.3277C42.0105 41.2331 42.1046 41.1384 42.1992 41.1384H44.5592C44.6538 41.1384 44.7479 41.2331 44.7479 41.3277V42.7461Z" fill="white"/>
<path fill-rule="evenodd" clip-rule="evenodd" d="M26.717 21.2786H18.8811C18.7865 21.2786 18.6924 21.3727 18.6924 21.4673V48.4202C18.6924 48.5149 18.7865 48.6095 18.8811 48.6095H26.717C26.8111 48.6095 26.9057 48.5149 26.9057 48.4202V21.4673C26.9998 21.3727 26.9057 21.2786 26.717 21.2786ZM22.0912 45.5828C22.0912 45.6459 22.0596 45.6775 21.9965 45.6775H20.2028C20.14 45.6775 20.1087 45.6459 20.1087 45.5828V43.5971C20.1087 43.5025 20.2028 43.5025 20.2028 43.5025H21.9965C22.0912 43.5025 22.0912 43.5971 22.0912 43.5971V45.5828ZM22.0912 40.949C22.0912 41.0121 22.0596 41.0436 21.9965 41.0436H20.2028C20.1087 41.0436 20.1087 40.949 20.1087 40.949V38.9633C20.1087 38.8687 20.2028 38.8687 20.2028 38.8687H21.9965C22.0596 38.8687 22.0912 38.9002 22.0912 38.9633V40.949ZM22.0912 36.3152C22.0912 36.3783 22.0596 36.4098 21.9965 36.4098H20.2028C20.14 36.4098 20.1087 36.3783 20.1087 36.3152V34.3289C20.1087 34.2343 20.2028 34.2343 20.2028 34.2343H21.9965C22.0912 34.2343 22.0912 34.3289 22.0912 34.3289V36.3152ZM22.0912 31.6813C22.0912 31.7444 22.0596 31.776 21.9965 31.776H20.2028C20.14 31.776 20.1087 31.7444 20.1087 31.6813V29.6951C20.1087 29.6004 20.2028 29.6004 20.2028 29.6004H21.9965C22.0596 29.6004 22.0912 29.632 22.0912 29.6951V31.6813ZM22.0912 27.1416C22.0912 27.2047 22.0596 27.2362 21.9965 27.2362H20.2028C20.1087 27.2362 20.1087 27.1416 20.1087 27.1416V25.1559C20.1087 25.0612 20.2028 25.0612 20.2028 25.0612H21.9965C22.0596 25.0612 22.0912 25.0928 22.0912 25.1559V27.1416ZM25.5841 45.5828C25.5841 45.6459 25.5525 45.6775 25.4894 45.6775H23.6957C23.6329 45.6775 23.6016 45.6459 23.6016 45.5828V43.5971C23.6016 43.534 23.6329 43.5025 23.6957 43.5025H25.4894C25.5841 43.5025 25.5841 43.5971 25.5841 43.5971V45.5828ZM25.5841 40.949C25.5841 41.0121 25.5525 41.0436 25.4894 41.0436H23.6957C23.6016 41.0436 23.6016 40.949 23.6016 40.949V38.9633C23.6016 38.9002 23.6329 38.8687 23.6957 38.8687H25.4894C25.5525 38.8687 25.5841 38.9002 25.5841 38.9633V40.949ZM25.5841 36.3152C25.5841 36.3783 25.5525 36.4098 25.4894 36.4098H23.6957C23.6329 36.4098 23.6016 36.3783 23.6016 36.3152V34.3289C23.6016 34.2658 23.6329 34.2343 23.6957 34.2343H25.4894C25.5841 34.2343 25.5841 34.3289 25.5841 34.3289V36.3152ZM25.5841 31.6813C25.5841 31.7444 25.5525 31.776 25.4894 31.776H23.6957C23.6329 31.776 23.6016 31.7444 23.6016 31.6813V29.6951C23.6016 29.632 23.6329 29.6004 23.6957 29.6004H25.4894C25.5525 29.6004 25.5841 29.632 25.5841 29.6951V31.6813ZM25.5841 27.1416C25.5841 27.2047 25.5525 27.2362 25.4894 27.2362H23.6957C23.6016 27.2362 23.6016 27.1416 23.6016 27.1416V25.1559C23.6016 25.0928 23.6329 25.0612 23.6957 25.0612H25.4894C25.5525 25.0612 25.5841 25.0928 25.5841 25.1559V27.1416Z" fill="white"/>
<path fill-rule="evenodd" clip-rule="evenodd" d="M45.6921 39.3414C45.6921 39.436 45.598 39.5307 45.5034 39.5307H37.4788C37.3847 39.5307 37.29 39.436 37.29 39.3414V37.7337C37.29 37.6391 37.3847 37.5444 37.4788 37.5444H45.5034C45.598 37.5444 45.6921 37.6391 45.6921 37.7337V39.3414Z" fill="white"/>
<path fill-rule="evenodd" clip-rule="evenodd" d="M36.3462 26.3851C36.3462 26.2904 36.2515 26.1958 36.1574 26.1958H36.0628L35.9687 26.2904L28.2274 36.1259C28.2274 36.1259 28.1328 36.2206 28.1328 36.3152V48.4203C28.1328 48.5149 28.2274 48.6095 28.3215 48.6095H36.2515C36.3462 48.6095 36.4408 48.5149 36.4408 48.4203L36.3462 26.3851ZM33.042 31.6813C33.6082 30.9248 34.5524 29.7897 34.9299 29.3171L35.0245 29.2225C35.0876 29.1594 35.1505 29.1278 35.2132 29.1278C35.3079 29.1278 35.402 29.2225 35.402 29.3171V31.8701C35.402 31.9647 35.3079 32.0593 35.2132 32.0593H33.2307C33.1366 32.0593 33.042 31.9647 33.042 31.8701V31.6813ZM31.815 45.4882C31.815 45.5829 31.7203 45.6775 31.6257 45.6775H29.2657C29.1711 45.6775 29.077 45.5829 29.077 45.4882V43.9752C29.077 43.8805 29.1711 43.7864 29.2657 43.7864H31.6257C31.7203 43.7864 31.815 43.8805 31.815 43.9752V45.4882ZM31.815 42.746C31.815 42.8406 31.7203 42.9353 31.6257 42.9353H29.2657C29.1711 42.9353 29.077 42.8406 29.077 42.746V41.2329C29.077 41.1383 29.1711 41.0437 29.2657 41.0437H31.6257C31.7203 41.0437 31.815 41.1383 31.815 41.2329V42.746ZM31.815 40.0032C31.815 40.0979 31.7203 40.1925 31.6257 40.1925H29.2657C29.1711 40.1925 29.077 40.0979 29.077 40.0032V38.4902C29.077 38.3955 29.1711 38.3009 29.2657 38.3009H31.6257C31.7203 38.3009 31.815 38.3955 31.815 38.4902V40.0032ZM31.815 34.0456V37.261C31.815 37.3556 31.7203 37.4497 31.6257 37.4497H29.2657C29.1711 37.4497 29.077 37.3556 29.077 37.261V36.7878C29.3604 36.3152 30.7761 34.7075 31.3429 33.951L31.437 33.8563C31.437 33.8563 31.5316 33.7617 31.6257 33.7617C31.7203 33.7617 31.815 33.8563 31.815 34.0456ZM35.4966 45.4882C35.4966 45.5829 35.402 45.6775 35.3079 45.6775H32.9474C32.8533 45.6775 32.7586 45.5829 32.7586 45.4882V43.9752C32.7586 43.8805 32.8533 43.7864 32.9474 43.7864H35.3079C35.402 43.7864 35.4966 43.8805 35.4966 43.9752V45.4882ZM35.4966 42.746C35.4966 42.8406 35.402 42.9353 35.3079 42.9353H32.9474C32.8533 42.9353 32.7586 42.8406 32.7586 42.746V41.2329C32.7586 41.1383 32.8533 41.0437 32.9474 41.0437H35.3079C35.402 41.0437 35.4966 41.1383 35.4966 41.2329V42.746ZM35.4966 40.0032C35.4966 40.0979 35.402 40.1925 35.3079 40.1925H32.9474C32.8533 40.1925 32.7586 40.0979 32.7586 40.0032V38.4902C32.7586 38.3955 32.8533 38.3009 32.9474 38.3009H35.3079C35.402 38.3009 35.4966 38.3955 35.4966 38.4902V40.0032ZM35.4966 37.3556C35.4966 37.4497 35.402 37.5444 35.3079 37.5444H32.9474C32.8533 37.5444 32.7586 37.4497 32.7586 37.3556V35.842C32.7586 35.7479 32.8533 35.6533 32.9474 35.6533H35.3079C35.402 35.6533 35.4966 35.7479 35.4966 35.842V37.3556ZM35.4966 34.6128C35.4966 34.7075 35.402 34.8021 35.3079 34.8021H32.9474C32.8533 34.8021 32.7586 34.7075 32.7586 34.6128V33.0998C32.7586 33.0051 32.8533 32.9105 32.9474 32.9105H35.3079C35.402 32.9105 35.4966 33.0051 35.4966 33.0998V34.6128Z" fill="white"/>
<path fill-rule="evenodd" clip-rule="evenodd" d="M3.87012 6.52555V8.41715L5.19178 7.09281V15.4152H6.98554V4.53931H5.56978L3.87012 6.52555Z" fill="white"/>
<path fill-rule="evenodd" clip-rule="evenodd" d="M8.02441 6.52555V8.41715L9.34608 7.09281V15.4152H11.2339V4.53931H9.72354L8.02441 6.52555Z" fill="white"/>
<path fill-rule="evenodd" clip-rule="evenodd" d="M14.9159 8.03863V7.47136H15.5767V8.13326C15.5767 8.41662 15.6713 8.51126 15.9547 8.51126C16.1434 8.51126 16.3322 8.32253 16.3322 8.13326V7.94399C16.3322 7.66009 16.2375 7.56599 15.9547 7.28209L15.4826 6.80892C15.1046 6.43092 14.8218 6.14702 14.8218 5.57975V5.39049C14.8218 4.82322 15.1046 4.35059 15.8601 4.35059C16.6155 4.35059 16.8984 4.72859 16.8984 5.39049V5.76902H16.2375V5.39049C16.2375 5.10712 16.1434 5.01249 15.8601 5.01249C15.6713 5.01249 15.4826 5.10712 15.4826 5.39049V5.48512C15.4826 5.76902 15.5767 5.86366 15.8601 6.05239L16.3322 6.52556C16.7096 6.99819 16.8984 7.18746 16.8984 7.66009V7.84936C16.8984 8.51126 16.6155 8.88979 15.7654 8.88979C15.1992 9.07906 14.9159 8.60589 14.9159 8.03863Z" fill="white"/>
<path fill-rule="evenodd" clip-rule="evenodd" d="M19.7307 4.53931V7.94398C19.7307 8.60588 19.4473 9.07905 18.5978 9.07905C17.7482 9.07905 17.4648 8.60588 17.4648 7.94398V4.53931H18.2203V8.03862C18.2203 8.32252 18.3144 8.51125 18.5978 8.51125C18.8811 8.51125 18.9752 8.32252 18.9752 8.03862V4.53931H19.7307Z" fill="white"/>
<path fill-rule="evenodd" clip-rule="evenodd" d="M20.0142 8.03863V7.47136H20.7691V8.13326C20.7691 8.41662 20.8637 8.51126 21.1466 8.51126C21.3358 8.51126 21.5246 8.32253 21.5246 8.13326V7.94399C21.5246 7.66009 21.4299 7.56599 21.1466 7.28209L20.675 6.80892C20.2029 6.43092 20.0142 6.14702 20.0142 5.57975V5.39049C20.0142 4.82322 20.297 4.35059 21.0525 4.35059C21.8074 4.35059 22.0907 4.72859 22.0907 5.39049V5.76902H21.4299V5.39049C21.4299 5.10712 21.3358 5.01249 21.0525 5.01249C20.8637 5.01249 20.675 5.10712 20.675 5.39049V5.48512C20.675 5.76902 20.8637 5.86366 21.0525 6.05239L21.5246 6.52556C21.902 6.99819 22.0907 7.18746 22.0907 7.66009V7.84936C22.0907 8.51126 21.7133 8.88979 20.9578 8.88979C20.2029 8.88979 20.0142 8.60589 20.0142 8.03863Z" fill="white"/>
<path fill-rule="evenodd" clip-rule="evenodd" d="M22.2798 4.53931H24.3569V5.10711H23.6955V9.07905H22.9406V5.10711H22.2798V4.53931Z" fill="white"/>
<path fill-rule="evenodd" clip-rule="evenodd" d="M24.2622 9.07905L25.1118 4.53931H25.9613L26.8109 9.07905H26.056L25.9613 8.22788H25.1118L25.0171 9.07905H24.2622ZM25.2064 7.66062H25.7726L25.4892 5.76901L25.2064 7.66062Z" fill="white"/>
<path d="M27.7556 4.53931H27.0947V9.07905H27.7556V4.53931Z" fill="white"/>
<path fill-rule="evenodd" clip-rule="evenodd" d="M28.7937 6.24165V9.07905H28.2275V4.53931H28.9825L29.7379 7.09281V4.53931H30.3988V9.07905H29.7379L28.7937 6.24165Z" fill="white"/>
<path fill-rule="evenodd" clip-rule="evenodd" d="M30.5874 9.07905L31.437 4.53931H32.2865L33.1361 9.07905H32.3812L32.2865 8.22788H31.437L31.3429 9.07905H30.5874ZM31.5316 7.66062H32.0978L31.8144 5.76901L31.5316 7.66062Z" fill="white"/>
<path fill-rule="evenodd" clip-rule="evenodd" d="M33.4194 4.53931H34.5524C35.3073 4.53931 35.5907 4.91784 35.5907 5.48511V5.95828C35.5907 6.33628 35.4019 6.62018 35.1186 6.71481C35.496 6.80945 35.6853 7.09281 35.6853 7.47135V8.03862C35.6853 8.70052 35.4019 8.98442 34.6465 8.98442H33.4194V4.53931ZM34.1744 6.43091H34.4577C34.7411 6.43091 34.8352 6.33628 34.8352 6.05291V5.48511C34.8352 5.20174 34.7411 5.10711 34.4577 5.10711H34.1744V6.43091ZM34.1744 6.99818V8.41715H34.5524C34.8352 8.41715 34.9298 8.32252 34.9298 8.03862V7.37671C34.9298 7.09281 34.8352 6.99818 34.5524 6.99818H34.1744Z" fill="white"/>
<path fill-rule="evenodd" clip-rule="evenodd" d="M36.063 4.53931H36.8185V8.41715H37.7621V9.07905H36.063V4.53931Z" fill="white"/>
<path fill-rule="evenodd" clip-rule="evenodd" d="M37.9507 4.53931H39.7445V5.10711H38.7062V6.43091H39.4616V7.09281H38.7062V8.41715H39.7445V9.07905H37.9507V4.53931Z" fill="white"/>
<path fill-rule="evenodd" clip-rule="evenodd" d="M40.7827 7.84925V5.67428C40.7827 4.91775 41.0661 4.44458 41.9156 4.44458C42.7652 4.44458 42.9539 4.91775 42.9539 5.57965V6.14692H42.2931V5.57965C42.2931 5.29575 42.199 5.10701 41.9156 5.10701C41.6323 5.10701 41.5382 5.29575 41.5382 5.57965V8.03852C41.5382 8.32242 41.6323 8.51115 41.9156 8.51115C42.199 8.51115 42.2931 8.32242 42.2931 8.03852V7.18735H42.9539V7.94389C42.9539 8.60579 42.6711 9.07896 41.9156 9.07896C41.0661 9.07896 40.7827 8.51115 40.7827 7.84925Z" fill="white"/>
<path d="M43.9933 4.53931H43.2378V9.07905H43.9933V4.53931Z" fill="white"/>
<path fill-rule="evenodd" clip-rule="evenodd" d="M44.3701 4.53931H46.4472V5.10711H45.7864V9.07905H45.031V5.10711H44.3701V4.53931Z" fill="white"/>
<path d="M47.3917 4.53931H46.6367V9.07905H47.3917V4.53931Z" fill="white"/>
<path fill-rule="evenodd" clip-rule="evenodd" d="M47.769 4.53931H49.6569V5.10711H48.524V6.43091H49.2794V7.09281H48.524V8.41715H49.6569V9.07905H47.769V4.53931Z" fill="white"/>
<path fill-rule="evenodd" clip-rule="evenodd" d="M49.9403 8.03863V7.47136H50.6012V8.13326C50.6012 8.41662 50.6958 8.51126 50.9786 8.51126C51.1679 8.51126 51.3566 8.32253 51.3566 8.13326V7.94399C51.3566 7.66009 51.262 7.56599 50.9786 7.28209L50.5065 6.80892C50.035 6.43092 49.8457 6.14702 49.8457 5.57975V5.39049C49.8457 4.82322 50.1291 4.35059 50.8845 4.35059C51.6395 4.35059 51.9228 4.72859 51.9228 5.39049V5.76902H51.262V5.39049C51.262 5.10712 51.1679 5.01249 50.8845 5.01249C50.6958 5.01249 50.5065 5.10712 50.5065 5.39049V5.48512C50.5065 5.76902 50.6012 5.86366 50.8845 6.05239L51.3566 6.52556C51.7341 6.99819 51.9228 7.18746 51.9228 7.66009V7.84936C51.9228 8.51126 51.5454 8.88979 50.7899 8.88979C50.035 8.88979 49.9403 8.60589 49.9403 8.03863Z" fill="white"/>
<path fill-rule="evenodd" clip-rule="evenodd" d="M14.8218 15.4152L15.6713 10.8755H16.5209L17.3705 15.4152H16.6155L16.5209 14.5641H15.6713L15.5767 15.4152H14.8218ZM15.7654 13.9968H16.4263L16.1434 12.1998L15.7654 13.9968Z" fill="white"/>
<path fill-rule="evenodd" clip-rule="evenodd" d="M18.3151 12.5778V15.4152H17.6543V10.8755H18.4092L19.2588 13.429V10.8755H19.9196V15.4152H19.2588L18.3151 12.5778Z" fill="white"/>
<path fill-rule="evenodd" clip-rule="evenodd" d="M22.5627 12.1052V14.1855C22.5627 14.848 22.2794 15.4152 21.4298 15.4152H20.2969V10.8755H21.4298C22.2794 10.8755 22.5627 11.3487 22.5627 12.1052ZM21.3352 14.7533C21.6185 14.7533 21.8073 14.5641 21.8073 14.2802V11.9159C21.8073 11.6326 21.7126 11.4433 21.3352 11.4433H21.0518V14.7533H21.3352Z" fill="white"/>
<path fill-rule="evenodd" clip-rule="evenodd" d="M23.6016 14.2801V12.0105C23.6016 11.2539 23.979 10.7808 24.734 10.7808C25.5841 10.7808 25.8669 11.2539 25.8669 11.9158V12.4831H25.112V11.9158C25.112 11.6319 25.0173 11.4432 24.734 11.4432C24.4511 11.4432 24.3565 11.6319 24.3565 11.9158V14.3747C24.3565 14.6586 24.4511 14.8473 24.734 14.8473C25.0173 14.8473 25.112 14.6586 25.112 14.3747V13.5235H25.8669V14.2801C25.8669 14.942 25.5841 15.4151 24.734 15.4151C23.8844 15.5098 23.6016 14.942 23.6016 14.2801Z" fill="white"/>
<path fill-rule="evenodd" clip-rule="evenodd" d="M26.1504 14.2801V12.0105C26.1504 11.2539 26.5279 10.7808 27.2833 10.7808C28.0388 10.7808 28.4163 11.3486 28.4163 12.0105V14.2801C28.4163 15.0366 28.0388 15.5098 27.2833 15.5098C26.5279 15.5098 26.1504 14.942 26.1504 14.2801ZM27.6608 14.3747V11.9158C27.6608 11.6319 27.5667 11.4432 27.2833 11.4432C27 11.4432 26.9059 11.6319 26.9059 11.9158V14.3747C26.9059 14.6586 27 14.8473 27.2833 14.8473C27.5667 14.8473 27.6608 14.6586 27.6608 14.3747Z" fill="white"/>
<path fill-rule="evenodd" clip-rule="evenodd" d="M30.8706 12.4832L30.3985 15.4152H30.021L29.4548 12.4832V15.4152H28.7935V10.8755H29.6436L30.2098 13.429L30.5872 10.8755H31.626V15.4152H30.8706V12.4832Z" fill="white"/>
<path fill-rule="evenodd" clip-rule="evenodd" d="M34.0804 12.4832L33.5137 15.4152H33.1362L32.57 12.4832V15.4152H31.9092V10.8755H32.8528L33.3249 13.429L33.797 10.8755H34.7412V15.4152H34.0804V12.4832Z" fill="white"/>
<path fill-rule="evenodd" clip-rule="evenodd" d="M37.3845 10.8755V14.3748C37.3845 15.1313 37.1016 15.5099 36.2515 15.5099C35.402 15.5099 35.1191 15.0367 35.1191 14.3748V10.8755H35.8741V14.4694C35.8741 14.7533 35.9687 14.9421 36.2515 14.9421C36.5349 14.9421 36.6295 14.7533 36.6295 14.4694V10.8755H37.3845Z" fill="white"/>
<path fill-rule="evenodd" clip-rule="evenodd" d="M38.4235 12.5778V15.4152H37.7627V10.8755H38.5176L39.3677 13.429V10.8755H40.0286V15.4152H39.2731L38.4235 12.5778Z" fill="white"/>
<path d="M40.9714 10.8755H40.3105V15.4152H40.9714V10.8755Z" fill="white"/>
<path fill-rule="evenodd" clip-rule="evenodd" d="M41.3496 10.8755H43.4262V11.5379H42.7654V15.4152H42.0104V11.5379H41.3496V10.8755Z" fill="white"/>
<path d="M44.3707 10.8755H43.6152V15.4152H44.3707V10.8755Z" fill="white"/>
<path fill-rule="evenodd" clip-rule="evenodd" d="M44.7485 10.8755H46.6369V11.5379H45.5981V12.7671H46.3536V13.429H45.5981V14.7533H46.6369V15.4152H44.7485V10.8755Z" fill="white"/>
<path fill-rule="evenodd" clip-rule="evenodd" d="M46.9198 14.4694V13.8075H47.5807V14.4694C47.5807 14.7533 47.6748 14.848 47.9581 14.848C48.1469 14.848 48.3356 14.6587 48.3356 14.4694V14.2802C48.3356 13.9968 48.2415 13.8075 47.9581 13.6183L47.486 13.1456C47.1086 12.6725 46.8252 12.4837 46.8252 11.9159V11.7272C46.8252 11.1594 47.1086 10.6868 47.8635 10.6868C48.619 10.6868 48.9023 11.0648 48.9023 11.7272V12.1052H48.2415V11.7272C48.2415 11.4433 48.1469 11.3487 47.8635 11.3487C47.6748 11.3487 47.486 11.4433 47.486 11.7272V11.8213C47.486 12.1052 47.5807 12.1998 47.8635 12.4837L48.3356 12.9564C48.7136 13.429 48.9023 13.6183 48.9023 14.1855V14.3748C48.9023 15.0367 48.5243 15.4152 47.7694 15.4152C47.0139 15.4152 46.9198 15.0367 46.9198 14.4694Z" fill="white"/>
<path d="M52.3959 0H13.3662V20.8515H52.3959V0Z" fill="#566D79"/>
<path d="M15.012 5.48883L15.2104 6.05022L15.8455 4.44412H16.4844L15.4028 6.90887C15.3665 6.99121 15.3237 7.0698 15.2751 7.14465C15.228 7.22004 15.1703 7.28634 15.1018 7.34301C15.035 7.40022 14.9564 7.44566 14.866 7.47881C14.7752 7.5125 14.6688 7.52907 14.5463 7.52907C14.4474 7.52907 14.3597 7.52052 14.2833 7.50394C14.2079 7.48897 14.1469 7.47454 14.0994 7.46224L14.1368 7.00297C14.155 7.00832 14.1769 7.01473 14.2015 7.02168C14.2282 7.02703 14.2555 7.03291 14.2833 7.03826C14.3111 7.04361 14.3394 7.04895 14.3688 7.05269C14.3982 7.0559 14.426 7.05697 14.4522 7.05697C14.5191 7.05697 14.5779 7.05002 14.6276 7.03612C14.6779 7.02222 14.7212 7.00297 14.7575 6.97784C14.7933 6.95271 14.8233 6.92277 14.8473 6.88802C14.8719 6.85166 14.8922 6.81156 14.9077 6.76665L14.966 6.63727L13.9053 4.44412H14.5399L15.012 5.48883ZM18.8551 6.53301C18.8449 6.68592 18.8118 6.82386 18.7546 6.9463C18.699 7.06873 18.6236 7.17352 18.529 7.25961C18.4343 7.34622 18.3215 7.41305 18.1905 7.4601C18.0601 7.50608 17.9152 7.52907 17.7564 7.52907C17.5767 7.52907 17.4174 7.49646 17.2779 7.43069C17.1389 7.36386 17.0218 7.27137 16.9271 7.15321C16.8325 7.03344 16.7603 6.89016 16.7101 6.72281C16.6598 6.556 16.6347 6.37208 16.6347 6.17158V5.76204C16.6347 5.56048 16.6614 5.37602 16.7143 5.20867C16.7673 5.04186 16.8421 4.89804 16.94 4.77881C17.0373 4.65905 17.1549 4.56602 17.2928 4.50079C17.4319 4.43396 17.588 4.40028 17.7607 4.40028C17.9275 4.40028 18.0761 4.42434 18.2055 4.47139C18.3365 4.51897 18.4477 4.58634 18.5396 4.67402C18.6316 4.7617 18.7038 4.86917 18.7567 4.99588C18.8097 5.12259 18.8428 5.26535 18.8572 5.42414H18.2723C18.2664 5.33325 18.2525 5.25412 18.2306 5.18568C18.2098 5.11778 18.1782 5.06111 18.1365 5.01673C18.0959 4.97075 18.0446 4.93654 17.982 4.91408C17.9205 4.89056 17.8467 4.87879 17.7607 4.87879C17.6698 4.87879 17.5912 4.89804 17.5243 4.93707C17.4575 4.9761 17.4019 5.03331 17.3575 5.10869C17.3142 5.18354 17.2821 5.27604 17.2613 5.38618C17.2404 5.49471 17.2303 5.61875 17.2303 5.7583V6.17158C17.2303 6.47099 17.272 6.69234 17.3554 6.83563C17.4404 6.97891 17.5741 7.05109 17.7564 7.05109C17.9093 7.05109 18.0307 7.01046 18.12 6.92972C18.2087 6.84739 18.2584 6.71533 18.268 6.53301H18.8551ZM21.5471 4.92263H20.6093V7.48523H20.0201V4.92263H19.0952V4.44412H21.5471V4.92263ZM24.0033 6.18816C24.0033 6.38331 23.9771 6.56295 23.9258 6.72709C23.8744 6.89123 23.7996 7.03291 23.7023 7.15107C23.605 7.26923 23.4857 7.36226 23.3451 7.42909C23.2061 7.49432 23.0484 7.52693 22.873 7.52693C22.6977 7.52693 22.5415 7.49432 22.4052 7.42909C22.2689 7.36226 22.1539 7.26923 22.0609 7.15107C21.9673 7.03131 21.8962 6.89016 21.8476 6.72709C21.7989 6.56295 21.7748 6.38331 21.7748 6.18816V5.74547C21.7748 5.55085 21.7989 5.37121 21.8476 5.20653C21.8962 5.0424 21.9673 4.90125 22.0609 4.78255C22.1539 4.66279 22.2683 4.56976 22.4031 4.50293C22.5399 4.4361 22.6955 4.40242 22.8709 4.40242C23.0479 4.40242 23.2061 4.4361 23.3451 4.50293C23.4857 4.56976 23.605 4.66279 23.7023 4.78255C23.7996 4.90125 23.8744 5.0424 23.9258 5.20653C23.9771 5.37121 24.0033 5.55085 24.0033 5.74547V6.18816ZM23.4077 5.74119C23.4077 5.61769 23.3975 5.50327 23.3767 5.39901C23.3569 5.29422 23.3259 5.2044 23.2826 5.12955C23.2393 5.05416 23.1837 4.99588 23.1152 4.95418C23.0484 4.91087 22.9671 4.88948 22.8709 4.88948C22.7762 4.88948 22.6971 4.91087 22.633 4.95418C22.5688 4.99588 22.5175 5.05416 22.4784 5.12955C22.4394 5.2044 22.4116 5.29422 22.395 5.39901C22.3779 5.50327 22.3699 5.61769 22.3699 5.74119V6.18816C22.3699 6.31059 22.3779 6.42447 22.395 6.52873C22.4116 6.63299 22.4394 6.72388 22.4784 6.80034C22.5175 6.87679 22.5688 6.93667 22.633 6.97998C22.6971 7.02275 22.7773 7.04467 22.873 7.04467C22.9676 7.04467 23.0484 7.02275 23.1152 6.97998C23.1837 6.93667 23.2387 6.87733 23.2804 6.80248C23.3237 6.72549 23.3558 6.63513 23.3767 6.53087C23.3975 6.42661 23.4077 6.3122 23.4077 6.18816V5.74119ZM25.8575 4.44412H26.4466V7.48523H25.8575V5.54497L24.9951 7.48523H24.408V4.44412H24.9951V6.38651L25.8575 4.44412ZM26.1226 3.65283C26.1226 3.74319 26.1061 3.82606 26.0729 3.90144C26.0408 3.97683 25.9933 4.04152 25.9307 4.09553C25.8692 4.14846 25.7949 4.19016 25.7072 4.22117C25.6195 4.25004 25.5212 4.26501 25.4126 4.26501C25.303 4.26501 25.2041 4.25004 25.1164 4.22117C25.0282 4.19016 24.9534 4.14846 24.8908 4.09553C24.8293 4.04152 24.7823 3.97683 24.7486 3.90144C24.7165 3.82606 24.7005 3.74319 24.7005 3.65283H25.118C25.118 3.68919 25.1234 3.72448 25.133 3.75923C25.1442 3.79291 25.1613 3.82285 25.1849 3.84905C25.2089 3.87418 25.2389 3.89449 25.2747 3.90946C25.3126 3.92497 25.3586 3.93246 25.4126 3.93246C25.4656 3.93246 25.5105 3.92497 25.5463 3.90946C25.5842 3.89449 25.6142 3.87418 25.6361 3.84905C25.6596 3.82285 25.6767 3.79291 25.6864 3.75923C25.6976 3.72448 25.7029 3.68919 25.7029 3.65283H26.1226ZM29.0825 4.44412V7.48523H28.4933V6.3261C28.4569 6.33572 28.4195 6.34481 28.3805 6.35337C28.3415 6.36032 28.3024 6.36673 28.2634 6.37208C28.226 6.37636 28.1891 6.37956 28.1527 6.38277C28.118 6.38545 28.0875 6.38651 28.0608 6.38651C27.9105 6.38651 27.7742 6.3678 27.6517 6.33037C27.5304 6.29135 27.4267 6.23146 27.3406 6.15073C27.2556 6.07 27.1893 5.96681 27.1422 5.8417C27.0962 5.71499 27.0733 5.56475 27.0733 5.39046V4.44412H27.6598V5.39046C27.6598 5.49204 27.6678 5.57652 27.6828 5.64335C27.6999 5.71018 27.7245 5.76364 27.7581 5.80374C27.7913 5.84277 27.8335 5.87058 27.8833 5.88768C27.9335 5.90265 27.9929 5.91067 28.0608 5.91067C28.0886 5.91067 28.1201 5.9096 28.1549 5.90854C28.1896 5.90586 28.226 5.90212 28.2634 5.89784C28.3024 5.8925 28.3415 5.88608 28.3805 5.87913C28.4195 5.87218 28.4569 5.86363 28.4933 5.854V4.44412H29.0825ZM30.9955 4.44412H31.5841V7.48523H30.9955V5.54497L30.1325 7.48523H29.546V4.44412H30.1325V6.38651L30.9955 4.44412ZM32.1525 7.48523V4.44412H33.1737C33.3394 4.44412 33.4896 4.46123 33.6249 4.49438C33.7612 4.52806 33.8773 4.57885 33.9735 4.64675C34.0697 4.71519 34.1435 4.80127 34.1948 4.90606C34.2478 5.01032 34.274 5.13382 34.274 5.2755C34.2729 5.41772 34.2344 5.54497 34.1596 5.65778C34.0858 5.77059 33.9762 5.85614 33.8313 5.91441C33.919 5.93687 33.9949 5.97055 34.059 6.01493C34.1232 6.05931 34.1761 6.11224 34.2178 6.17372C34.2611 6.2336 34.2922 6.2999 34.3119 6.37208C34.3328 6.44319 34.3429 6.51697 34.3429 6.59343C34.3429 6.73939 34.3183 6.86824 34.2681 6.97998C34.2178 7.09119 34.1462 7.18475 34.0526 7.25961C33.9596 7.33499 33.8462 7.39113 33.7126 7.42909C33.5789 7.46651 33.4281 7.48523 33.2613 7.48523H32.1525ZM32.7411 6.14432V7.01099H33.2635C33.4233 7.00992 33.5452 6.97089 33.6286 6.89443C33.7137 6.81638 33.7564 6.71479 33.7564 6.58915C33.7575 6.45014 33.7201 6.3416 33.6436 6.26354C33.5672 6.18549 33.4485 6.14592 33.2886 6.14432H32.7411ZM32.7411 5.72034H33.1779C33.3405 5.71927 33.4661 5.68505 33.5538 5.61822C33.6415 5.55139 33.6859 5.45301 33.6875 5.32362C33.6875 5.18141 33.6436 5.07982 33.5559 5.01887C33.4683 4.95632 33.3415 4.92424 33.1758 4.92263H32.7411V5.72034ZM35.193 5.68077H35.3246C35.4513 5.68077 35.5636 5.70216 35.6609 5.74547C35.7587 5.78717 35.84 5.84705 35.9052 5.92511C35.972 6.00317 36.0223 6.09727 36.056 6.20687C36.0907 6.3154 36.1078 6.43731 36.1078 6.57257C36.1078 6.70624 36.0891 6.82921 36.0517 6.94202C36.0153 7.05376 35.9608 7.14947 35.8886 7.2302C35.8164 7.31093 35.7272 7.37402 35.6213 7.4184C35.5154 7.46277 35.3935 7.48523 35.2556 7.48523H34.6065V4.44412H35.193V5.68077ZM36.858 7.48523H36.2709V4.44412H36.858V7.48523ZM35.193 6.13416V7.03398H35.2893C35.331 7.03398 35.3663 7.02222 35.3957 6.99869C35.4261 6.97356 35.4507 6.93988 35.4689 6.89818C35.4882 6.85541 35.5021 6.80568 35.5106 6.75008C35.5192 6.69287 35.5229 6.63245 35.5229 6.5683C35.5229 6.50735 35.5192 6.45014 35.5106 6.39721C35.5021 6.34428 35.4882 6.2983 35.4689 6.25927C35.4507 6.22024 35.4272 6.18976 35.3978 6.16731C35.3684 6.14485 35.3326 6.13416 35.2893 6.13416H35.193ZM39.1655 6.15287H37.9166V7.01099H39.3762V7.48523H37.3274V4.44412H39.3703V4.92263H37.9166V5.68933H39.1655V6.15287ZM16.1626 9.73238H14.7821V12.2971H14.1956V9.256H16.1626V9.73238ZM18.8653 11C18.8653 11.1952 18.8396 11.3748 18.7883 11.539C18.7364 11.7031 18.6621 11.8448 18.5648 11.963C18.4669 12.0811 18.3482 12.1741 18.2076 12.241C18.0681 12.3062 17.9109 12.3388 17.7355 12.3388C17.5602 12.3388 17.404 12.3062 17.2677 12.241C17.1314 12.1741 17.0164 12.0811 16.9229 11.963C16.8298 11.8432 16.7587 11.702 16.7101 11.539C16.6614 11.3748 16.6368 11.1952 16.6368 11V10.5573C16.6368 10.3627 16.6614 10.1831 16.7101 10.0184C16.7587 9.85428 16.8298 9.71313 16.9229 9.59444C17.0164 9.47467 17.1303 9.38164 17.2656 9.31481C17.4019 9.24798 17.558 9.2143 17.7334 9.2143C17.9104 9.2143 18.0681 9.24798 18.2076 9.31481C18.3482 9.38164 18.4669 9.47467 18.5648 9.59444C18.6621 9.71313 18.7364 9.85428 18.7883 10.0184C18.8396 10.1831 18.8653 10.3627 18.8653 10.5573V11ZM18.2702 10.5531C18.2702 10.4296 18.2595 10.3151 18.2386 10.2109C18.2194 10.1061 18.1879 10.0163 18.1451 9.94143C18.1018 9.86604 18.0462 9.80776 17.9777 9.76606C17.9109 9.72275 17.8296 9.70136 17.7334 9.70136C17.6388 9.70136 17.5591 9.72275 17.4955 9.76606C17.4313 9.80776 17.38 9.86604 17.341 9.94143C17.3019 10.0163 17.2741 10.1061 17.257 10.2109C17.2404 10.3151 17.2319 10.4296 17.2319 10.5531V11C17.2319 11.1225 17.2404 11.2364 17.257 11.3406C17.2741 11.4449 17.3019 11.5358 17.341 11.6122C17.38 11.6887 17.4313 11.7486 17.4955 11.7919C17.5591 11.8346 17.6393 11.8566 17.7355 11.8566C17.8302 11.8566 17.9109 11.8346 17.9777 11.7919C18.0462 11.7486 18.1007 11.6892 18.1429 11.6144C18.1857 11.5374 18.2178 11.447 18.2386 11.3428C18.2595 11.2385 18.2702 11.1241 18.2702 11V10.5531ZM19.9367 11.1818V12.2971H19.3496V9.256H20.3901C20.5558 9.256 20.7055 9.2806 20.8392 9.32925C20.9729 9.37683 21.0862 9.44366 21.1792 9.52974C21.2739 9.61475 21.3466 9.71687 21.3968 9.83664C21.4482 9.9564 21.4738 10.0895 21.4738 10.236C21.4738 10.3724 21.4482 10.498 21.3968 10.614C21.3466 10.7295 21.2739 10.8295 21.1792 10.9145C21.0862 10.9979 20.9729 11.0637 20.8392 11.1107C20.7055 11.1583 20.5558 11.1818 20.3901 11.1818H19.9367ZM19.9367 10.7054H20.3901C20.4735 10.7054 20.5457 10.6931 20.6072 10.668C20.6686 10.6429 20.7194 10.6087 20.7595 10.5659C20.8012 10.5226 20.8322 10.4734 20.8515 10.4173C20.8723 10.3606 20.883 10.3012 20.883 10.2398C20.883 10.1692 20.8723 10.1029 20.8515 10.0414C20.8322 9.98046 20.8012 9.92646 20.7595 9.88048C20.7194 9.83503 20.6686 9.79868 20.6072 9.77194C20.5457 9.74574 20.4735 9.73238 20.3901 9.73238H19.9367V10.7054ZM24.0033 11C24.0033 11.1952 23.9771 11.3748 23.9258 11.539C23.8744 11.7031 23.7996 11.8448 23.7023 11.963C23.605 12.0811 23.4857 12.1741 23.3451 12.241C23.2061 12.3062 23.0484 12.3388 22.873 12.3388C22.6977 12.3388 22.5415 12.3062 22.4052 12.241C22.2689 12.1741 22.1539 12.0811 22.0609 11.963C21.9673 11.8432 21.8962 11.702 21.8476 11.539C21.7989 11.3748 21.7748 11.1952 21.7748 11V10.5573C21.7748 10.3627 21.7989 10.1831 21.8476 10.0184C21.8962 9.85428 21.9673 9.71313 22.0609 9.59444C22.1539 9.47467 22.2683 9.38164 22.4031 9.31481C22.5399 9.24798 22.6955 9.2143 22.8709 9.2143C23.0479 9.2143 23.2061 9.24798 23.3451 9.31481C23.4857 9.38164 23.605 9.47467 23.7023 9.59444C23.7996 9.71313 23.8744 9.85428 23.9258 10.0184C23.9771 10.1831 24.0033 10.3627 24.0033 10.5573V11ZM23.4077 10.5531C23.4077 10.4296 23.3975 10.3151 23.3767 10.2109C23.3569 10.1061 23.3259 10.0163 23.2826 9.94143C23.2393 9.86604 23.1837 9.80776 23.1152 9.76606C23.0484 9.72275 22.9671 9.70136 22.8709 9.70136C22.7762 9.70136 22.6971 9.72275 22.633 9.76606C22.5688 9.80776 22.5175 9.86604 22.4784 9.94143C22.4394 10.0163 22.4116 10.1061 22.395 10.2109C22.3779 10.3151 22.3699 10.4296 22.3699 10.5531V11C22.3699 11.1225 22.3779 11.2364 22.395 11.3406C22.4116 11.4449 22.4394 11.5358 22.4784 11.6122C22.5175 11.6887 22.5688 11.7486 22.633 11.7919C22.6971 11.8346 22.7773 11.8566 22.873 11.8566C22.9676 11.8566 23.0484 11.8346 23.1152 11.7919C23.1837 11.7486 23.2387 11.6892 23.2804 11.6144C23.3237 11.5374 23.3558 11.447 23.3767 11.3428C23.3975 11.2385 23.4077 11.1241 23.4077 11V10.5531ZM26.5135 13.0446H26.0082V12.2971H24.8571V13.0446H24.362L24.2706 11.825H24.3829C24.447 11.7919 24.5026 11.7448 24.5502 11.6849C24.5978 11.625 24.6374 11.5443 24.6695 11.4427C24.7015 11.3401 24.7272 11.2123 24.7464 11.061C24.7662 10.9075 24.7801 10.721 24.7882 10.5012L24.8721 9.256H26.3734V11.825H26.5969L26.5135 13.0446ZM25.3773 10.5012C25.3704 10.6637 25.3597 10.8113 25.3458 10.9439C25.3335 11.076 25.3169 11.1963 25.2955 11.3053C25.2747 11.4123 25.2506 11.509 25.2228 11.5956C25.195 11.6801 25.164 11.7571 25.1309 11.825H25.7885V9.73238H25.4276L25.3773 10.5012ZM28.5141 11.6619H27.6015L27.4219 12.2971H26.8038L27.7999 9.256H28.3324L29.3097 12.2971H28.6917L28.5141 11.6619ZM27.7459 11.1631H28.3762L28.065 10.0435L27.7459 11.1631ZM33.5639 9.256H34.1531V12.2971H33.5639V10.3569L32.7016 12.2971H32.1145V9.256H32.7016V11.1984L33.5639 9.256ZM39.3013 12.2971H38.7207V10.9792H37.8599V12.2971H37.2777V9.256H37.8599V10.5033H38.7207V9.256H39.3013V12.2971ZM41.3581 11.6619H40.4455L40.2658 12.2971H39.6478L40.6444 9.256H41.1769L42.1542 12.2971H41.5362L41.3581 11.6619ZM40.5898 11.1631H41.2207L40.9096 10.0435L40.5898 11.1631ZM44.5431 11.3449C44.5334 11.4978 44.5003 11.6357 44.4431 11.7582C44.3875 11.8806 44.3121 11.9854 44.2175 12.0715C44.1228 12.1581 44.01 12.2249 43.879 12.272C43.7486 12.318 43.6037 12.341 43.4449 12.341C43.2652 12.341 43.1059 12.3083 42.9664 12.2426C42.8274 12.1757 42.7103 12.0832 42.6156 11.9651C42.521 11.8453 42.4488 11.702 42.3986 11.5347C42.3483 11.3679 42.3232 11.184 42.3232 10.9835V10.5739C42.3232 10.3724 42.3499 10.1879 42.4028 10.0206C42.4558 9.85374 42.5306 9.70992 42.6279 9.5907C42.7258 9.47093 42.8434 9.3779 42.9813 9.31267C43.1203 9.24584 43.2765 9.21216 43.4492 9.21216C43.616 9.21216 43.7641 9.23622 43.894 9.28327C44.0244 9.33085 44.1362 9.39822 44.2282 9.4859C44.3201 9.57358 44.3923 9.68105 44.4452 9.80776C44.4981 9.93448 44.5313 10.0772 44.5452 10.236H43.9608C43.9549 10.1451 43.941 10.066 43.9191 9.99756C43.8977 9.92966 43.8667 9.87299 43.825 9.82862C43.7844 9.78263 43.7331 9.74842 43.6705 9.72596C43.609 9.70244 43.5352 9.69067 43.4492 9.69067C43.3583 9.69067 43.2797 9.70992 43.2128 9.74895C43.146 9.78798 43.0904 9.84519 43.046 9.92057C43.0027 9.99543 42.9706 10.0879 42.9498 10.1981C42.9289 10.3066 42.9182 10.4306 42.9182 10.5702V10.9835C42.9182 11.2829 42.9605 11.5042 43.0439 11.6475C43.1289 11.7908 43.2626 11.863 43.4449 11.863C43.5978 11.863 43.7192 11.8223 43.8084 11.7416C43.8972 11.6593 43.9469 11.5272 43.9565 11.3449H44.5431ZM46.872 10.9648H45.6231V11.8229H47.0827V12.2971H45.0339V9.256H47.0768V9.73452H45.6231V10.5012H46.872V10.9648ZM49.6244 11.1904H47.8846V10.7204H49.6244V11.1904ZM16.2048 14.0679V17.109H15.6156V14.5443H14.9869L14.9767 15.6595C14.9724 15.9253 14.9516 16.1504 14.9142 16.3343C14.8778 16.5182 14.8249 16.6674 14.7554 16.7834C14.6853 16.8973 14.5987 16.9801 14.4939 17.0315C14.3897 17.0833 14.2678 17.109 14.1288 17.109H13.9823V16.6369H14.0662C14.1341 16.6299 14.1886 16.6096 14.2287 16.5765C14.2704 16.5417 14.3025 16.4872 14.325 16.4134C14.3485 16.3386 14.3645 16.2402 14.3731 16.1188C14.3811 15.9964 14.387 15.8435 14.3897 15.6595L14.4025 14.0679H16.2048ZM18.6145 15.7766H17.3656V16.6348H18.8257V17.109H16.7769V14.0679H18.8193V14.5464H17.3656V15.3131H18.6145V15.7766ZM21.3193 17.109H20.7387V15.7911H19.8784V17.109H19.2957V14.0679H19.8784V15.3152H20.7387V14.0679H21.3193V17.109ZM23.8883 17.109H23.3077V15.7911H22.4469V17.109H21.8647V14.0679H22.4469V15.3152H23.3077V14.0679H23.8883V17.109ZM24.9175 15.3045H25.0496C25.1763 15.3045 25.2881 15.3259 25.3854 15.3692C25.4832 15.4109 25.5645 15.4708 25.6302 15.5489C25.6965 15.6269 25.7468 15.721 25.7805 15.8306C25.8152 15.9392 25.8323 16.0611 25.8323 16.1963C25.8323 16.33 25.8136 16.453 25.7762 16.5658C25.7398 16.6775 25.6858 16.7732 25.6131 16.854C25.5409 16.9347 25.4517 16.9978 25.3458 17.0422C25.2399 17.0865 25.118 17.109 24.9806 17.109H24.331V14.0679H24.9175V15.3045ZM26.5824 17.109H25.9954V14.0679H26.5824V17.109ZM24.9175 15.7579V16.6577H25.0138C25.0555 16.6577 25.0913 16.646 25.1202 16.6225C25.1512 16.5973 25.1752 16.5636 25.1934 16.5219C25.2132 16.4792 25.2271 16.4294 25.2351 16.3738C25.2437 16.3166 25.248 16.2562 25.248 16.1921C25.248 16.1311 25.2437 16.0739 25.2351 16.021C25.2271 15.968 25.2132 15.9221 25.1934 15.883C25.1752 15.844 25.1517 15.8135 25.1223 15.7911C25.0934 15.7686 25.0571 15.7579 25.0138 15.7579H24.9175ZM28.89 15.7766H27.6411V16.6348H29.1012V17.109H27.0524V14.0679H29.0948V14.5464H27.6411V15.3131H28.89V15.7766ZM34.1697 17.109H33.5827V14.5443H32.7224V17.109H32.1354V14.0679H34.1697V17.109ZM35.563 15.1126L35.7614 15.674L36.396 14.0679H37.0355L35.9533 16.5326C35.917 16.615 35.8747 16.6936 35.8261 16.7684C35.7785 16.8438 35.7207 16.9101 35.6528 16.9668C35.586 17.024 35.5069 17.0694 35.4165 17.1026C35.3262 17.1363 35.2198 17.1528 35.0973 17.1528C34.9984 17.1528 34.9107 17.1443 34.8337 17.1277C34.7589 17.1127 34.6974 17.0983 34.6504 17.086L34.6878 16.6267C34.706 16.6321 34.7274 16.6385 34.7525 16.6454C34.7787 16.6508 34.806 16.6567 34.8337 16.662C34.8616 16.6674 34.8904 16.6727 34.9193 16.6765C34.9487 16.6797 34.9765 16.6807 35.0032 16.6807C35.0701 16.6807 35.1283 16.6738 35.1786 16.6599C35.2289 16.646 35.2716 16.6267 35.308 16.6016C35.3443 16.5765 35.3743 16.5465 35.3978 16.5118C35.4229 16.4754 35.4433 16.4353 35.4582 16.3904L35.517 16.261L34.4558 14.0679H35.0909L35.563 15.1126ZM39.3013 17.109H38.7207V15.7911H37.8599V17.109H37.2777V14.0679H37.8599V15.3152H38.7207V14.0679H39.3013V17.109ZM40.7358 15.86H40.4915V17.109H39.9049V14.0679H40.4915V15.4067H40.6358L41.4314 14.0679H42.1104L41.2036 15.5323L42.1457 17.109H41.4651L40.7358 15.86ZM44.6666 14.5464H43.7288V17.109H43.1401V14.5464H42.2146V14.0679H44.6666V14.5464ZM45.4685 15.3045H45.6001C45.7268 15.3045 45.8391 15.3259 45.9364 15.3692C46.0337 15.4109 46.1155 15.4708 46.1807 15.5489C46.2475 15.6269 46.2978 15.721 46.3309 15.8306C46.3657 15.9392 46.3833 16.0611 46.3833 16.1963C46.3833 16.33 46.3646 16.453 46.3267 16.5658C46.2908 16.6775 46.2363 16.7732 46.1641 16.854C46.0914 16.9347 46.0027 16.9978 45.8968 17.0422C45.7909 17.0865 45.669 17.109 45.5311 17.109H44.8815V14.0679H45.4685V15.3045ZM47.1329 17.109H46.5464V14.0679H47.1329V17.109ZM45.4685 15.7579V16.6577H45.5648C45.6065 16.6577 45.6418 16.646 45.6712 16.6225C45.7017 16.5973 45.7262 16.5636 45.7444 16.5219C45.7637 16.4792 45.7776 16.4294 45.7861 16.3738C45.7941 16.3166 45.7984 16.2562 45.7984 16.1921C45.7984 16.1311 45.7941 16.0739 45.7861 16.021C45.7776 15.968 45.7637 15.9221 45.7444 15.883C45.7262 15.844 45.7022 15.8135 45.6733 15.7911C45.6439 15.7686 45.6076 15.7579 45.5648 15.7579H45.4685Z" fill="white"/>
</g>
</g>
<defs>
<clipPath id="clip0_590_337">
<rect width="54" height="54" fill="white"/>
</clipPath>
</defs>
</svg>
