<svg width="54" height="54" viewBox="0 0 54 54" fill="none" xmlns="http://www.w3.org/2000/svg">
<g clip-path="url(#clip0_590_115)">
<mask id="mask0_590_115" style="mask-type:luminance" maskUnits="userSpaceOnUse" x="0" y="0" width="54" height="54">
<path d="M54 0H0V54H54V0Z" fill="white"/>
</mask>
<g mask="url(#mask0_590_115)">
<path d="M54 0H0V54H54V0Z" fill="#566D79"/>
<path fill-rule="evenodd" clip-rule="evenodd" d="M40.6888 27.9929C38.3283 26.1018 35.1187 26.1018 33.9858 26.2905H33.8912C32.5695 26.5744 30.3983 27.1417 27.9437 30.263H27.8496V30.4517L27.9437 30.5464C28.2271 31.0195 28.6045 31.7761 28.9825 32.3433C28.9825 32.438 29.0766 32.438 29.1713 32.438C29.234 32.438 29.2654 32.4064 29.2654 32.3433V32.2487C31.4371 29.2226 33.2303 28.7494 34.3633 28.466H34.4579C35.0241 28.3714 37.3846 28.3714 39.0837 29.6952C40.4054 30.7356 41.0662 32.3433 41.0662 34.6129C41.0662 38.3015 39.2725 39.7199 37.7621 40.2872C35.4021 41.1384 33.1362 40.0033 33.1362 40.0033L33.0416 39.9092C31.7199 39.3414 29.8321 38.2069 28.0383 34.5183C24.3567 27.2363 21.3354 26.4798 19.3529 26.0072H19.2588C18.3146 25.8179 15.1992 25.6286 12.6499 27.6149C11.3283 28.6548 9.81787 30.7356 9.81787 34.4237C9.81787 36.6938 10.29 38.2069 11.5175 39.8146C11.8004 40.1926 14.4437 43.6919 19.6362 42.6515C20.4858 42.4622 21.6187 42.0842 22.8458 41.1384L23.9787 42.1788C24.0733 42.2735 24.1674 42.2735 24.2621 42.1788V42.0842L25.1116 36.9772V36.8825C25.1116 36.8195 25.0803 36.7879 25.0175 36.7879H24.8283L19.9196 38.1122H19.825C19.825 38.1122 19.7303 38.1122 19.7303 38.2069C19.6362 38.3015 19.6362 38.3956 19.7303 38.4902H19.825L20.9579 39.5307C20.2024 40.0033 19.6362 40.1926 19.1641 40.2872C15.3879 41.0437 13.5 38.4902 13.5 38.3956C12.6499 37.2611 12.3671 36.3153 12.3671 34.5183C12.3671 32.3433 13.0279 30.641 14.255 29.6006C15.86 28.2768 18.1258 28.2768 18.7867 28.466H18.8808C20.5804 28.844 22.7517 29.3172 25.8671 35.6534C27.4721 38.9634 29.5487 41.0437 32.0979 42.1788C32.3808 42.3676 33.9858 43.03 35.9683 43.03C36.8179 43.03 37.7621 42.9354 38.7063 42.5568C40.2167 41.9895 43.6154 40.0979 43.6154 34.5183C43.6154 31.0195 42.0104 29.0333 40.6888 27.9929Z" fill="white"/>
<path fill-rule="evenodd" clip-rule="evenodd" d="M5.38123 7.09281V15.4152H7.26909V4.53931H5.7587L4.05957 6.52555V8.41715L5.38123 7.09281Z" fill="white"/>
<path fill-rule="evenodd" clip-rule="evenodd" d="M8.30762 6.80882V8.13315H10.0068V6.71472C10.0068 6.05228 10.2901 5.86355 10.7622 5.86355C11.1397 5.86355 11.423 6.05228 11.423 6.71472V7.56589C11.423 8.51115 11.3284 8.79505 10.7622 9.45696L9.72392 10.592C8.68509 11.6319 8.40225 12.389 8.40225 13.4289V15.4151H13.2168V13.9021H10.196V13.4289C10.196 12.5777 10.4788 12.2944 10.9509 11.7266L12.0839 10.4974C13.0281 9.45696 13.2168 8.79505 13.2168 7.75462V6.71472C13.2168 5.10701 12.4613 4.44458 10.8568 4.44458C9.06309 4.44458 8.30762 5.29575 8.30762 6.80882Z" fill="white"/>
<path fill-rule="evenodd" clip-rule="evenodd" d="M18.0313 6.99818V9.07905H17.2759V4.53931H18.4088C19.1643 4.53931 19.4476 4.91784 19.4476 5.57974V6.14701C19.4476 6.62018 19.2589 6.90355 18.8809 6.99818L19.6364 9.07905H18.7868L18.0313 6.99818ZM18.0313 5.10711V6.52555H18.3147C18.5981 6.52555 18.6922 6.43091 18.6922 6.14701V5.48511C18.6922 5.20174 18.5981 5.10711 18.3147 5.10711H18.0313Z" fill="white"/>
<path fill-rule="evenodd" clip-rule="evenodd" d="M19.8252 4.53931H21.619V5.10711H20.5807V6.43091H21.3356V7.09281H20.5807V8.41715H21.619V9.07905H19.8252V4.53931Z" fill="white"/>
<path fill-rule="evenodd" clip-rule="evenodd" d="M21.8076 8.03863V7.47136H22.5631V8.13326C22.5631 8.41662 22.6572 8.51126 22.9405 8.51126C23.2239 8.51126 23.318 8.32253 23.318 8.13326V7.94399C23.318 7.66009 23.2239 7.56599 22.9405 7.28209L22.4685 6.80892C21.9964 6.43092 21.8076 6.14702 21.8076 5.57975V5.39049C21.8076 4.82322 22.1851 4.35059 22.9405 4.35059C23.696 4.35059 24.0735 4.72859 24.0735 5.39049V5.76902H23.318V5.39049C23.318 5.10712 23.2239 5.01249 22.9405 5.01249C22.7518 5.01249 22.5631 5.10712 22.5631 5.39049V5.48512C22.5631 5.76902 22.7518 5.86366 22.9405 6.05239L23.4126 6.52556C23.8848 6.99819 24.0735 7.18746 24.0735 7.66009V7.84936C24.0735 8.51126 23.696 8.88979 22.9405 8.88979C22.1851 8.88979 21.8076 8.60589 21.8076 8.03863Z" fill="white"/>
<path fill-rule="evenodd" clip-rule="evenodd" d="M24.4507 4.53931H25.5836C26.3391 4.53931 26.6225 4.91784 26.6225 5.57974V6.52555C26.6225 7.18745 26.3391 7.56598 25.5836 7.56598H25.2062V9.07905H24.4507V4.53931ZM25.2062 5.10711V6.90355H25.4895C25.7723 6.90355 25.867 6.80945 25.867 6.52555V5.48511C25.867 5.20174 25.7723 5.10711 25.4895 5.10711H25.2062Z" fill="white"/>
<path fill-rule="evenodd" clip-rule="evenodd" d="M26.9053 7.84925V5.67428C26.9053 4.91775 27.2833 4.44458 28.0382 4.44458C28.7937 4.44458 29.1711 5.01238 29.1711 5.67428V7.84925C29.1711 8.60579 28.7937 9.07896 28.0382 9.07896C27.2833 9.07896 26.9053 8.51115 26.9053 7.84925ZM28.4157 7.94389V5.48502C28.4157 5.20111 28.3216 5.01238 28.0382 5.01238C27.7548 5.01238 27.6607 5.20111 27.6607 5.48502V7.94389C27.6607 8.22779 27.7548 8.41652 28.0382 8.41652C28.3216 8.41652 28.4157 8.22779 28.4157 7.94389Z" fill="white"/>
<path fill-rule="evenodd" clip-rule="evenodd" d="M30.2101 6.24165V9.07905H29.5493V4.53931H30.3042L31.1538 7.09281V4.53931H31.8146V9.07905H31.1538L30.2101 6.24165Z" fill="white"/>
<path fill-rule="evenodd" clip-rule="evenodd" d="M32.0034 8.03863V7.47136H32.7589V8.13326C32.7589 8.41662 32.8535 8.51126 33.1363 8.51126C33.4197 8.51126 33.5143 8.32253 33.5143 8.13326V7.94399C33.5143 7.66009 33.4197 7.56599 33.1363 7.28209L32.6642 6.80892C32.1927 6.43092 32.0034 6.14702 32.0034 5.57975V5.39049C32.0034 4.82322 32.3814 4.35059 33.1363 4.35059C33.8918 4.35059 34.2693 4.72859 34.2693 5.39049V5.76902H33.5143V5.39049C33.5143 5.10712 33.4197 5.01249 33.1363 5.01249C32.9476 5.01249 32.7589 5.10712 32.7589 5.39049V5.48512C32.7589 5.76902 32.9476 5.86366 33.1363 6.05239L33.6084 6.52556C33.9859 6.99819 34.2693 7.18746 34.2693 7.66009V7.84936C34.2693 8.51126 33.8918 8.88979 33.1363 8.88979C32.3814 9.07906 32.0034 8.60589 32.0034 8.03863Z" fill="white"/>
<path d="M35.3082 4.53931H34.5527V9.07905H35.3082V4.53931Z" fill="white"/>
<path fill-rule="evenodd" clip-rule="evenodd" d="M35.6855 4.53931H36.8185C37.5739 4.53931 37.8568 4.91784 37.8568 5.57974V6.05291C37.8568 6.43091 37.7627 6.71481 37.3847 6.80945C37.7627 6.90355 37.9514 7.18745 37.9514 7.56598V8.13325C37.9514 8.79515 37.668 9.07905 36.9131 9.07905H35.6855V4.53931ZM36.441 6.43091H36.7239C37.0072 6.43091 37.1019 6.33628 37.1019 6.05291V5.48511C37.1019 5.20174 37.0072 5.10711 36.7239 5.10711H36.441V6.43091ZM36.441 6.99818V8.41715H36.8185C37.1019 8.41715 37.1959 8.32252 37.1959 8.03862V7.37671C37.1959 7.09281 37.1019 6.99818 36.8185 6.99818H36.441Z" fill="white"/>
<path fill-rule="evenodd" clip-rule="evenodd" d="M38.1401 4.53931H38.8956V8.41715H39.8393V9.07905H38.1401V4.53931Z" fill="white"/>
<path fill-rule="evenodd" clip-rule="evenodd" d="M40.2173 4.53931H42.011V5.10711H40.9722V6.43091H41.7277V7.09281H40.9722V8.41715H42.011V9.07905H40.2173V4.53931Z" fill="white"/>
<path fill-rule="evenodd" clip-rule="evenodd" d="M17.2759 14.2801V12.0105C17.2759 11.2539 17.6539 10.7808 18.4088 10.7808C19.2589 10.7808 19.5417 11.2539 19.5417 11.9158V12.4831H18.7868V11.9158C18.7868 11.6319 18.6922 11.4432 18.4088 11.4432C18.126 11.4432 18.0313 11.6319 18.0313 11.9158V14.3747C18.0313 14.6586 18.126 14.8473 18.4088 14.8473C18.6922 14.8473 18.7868 14.6586 18.7868 14.3747V13.5235H19.5417V14.2801C19.5417 14.942 19.2589 15.4151 18.4088 15.4151C17.6539 15.5098 17.2759 14.942 17.2759 14.2801Z" fill="white"/>
<path fill-rule="evenodd" clip-rule="evenodd" d="M19.9194 14.2801V12.0105C19.9194 11.2539 20.2969 10.7808 21.0524 10.7808C21.8073 10.7808 22.1853 11.3486 22.1853 12.0105V14.2801C22.1853 15.0366 21.8073 15.5098 21.0524 15.5098C20.2969 15.5098 19.9194 14.942 19.9194 14.2801ZM21.4298 14.3747V11.9158C21.4298 11.6319 21.3352 11.4432 21.0524 11.4432C20.769 11.4432 20.6744 11.6319 20.6744 11.9158V14.3747C20.6744 14.6586 20.769 14.8473 21.0524 14.8473C21.3352 14.8473 21.4298 14.6586 21.4298 14.3747Z" fill="white"/>
<path fill-rule="evenodd" clip-rule="evenodd" d="M23.2238 12.5778V15.4152H22.563V10.8755H23.3185L24.168 13.429V10.8755H24.8288V15.4152H24.0734L23.2238 12.5778Z" fill="white"/>
<path fill-rule="evenodd" clip-rule="evenodd" d="M25.0176 14.4694V13.8075H25.773V14.4694C25.773 14.7533 25.8671 14.848 26.1505 14.848C26.4339 14.848 26.528 14.6587 26.528 14.4694V14.2802C26.528 13.9968 26.4339 13.8075 26.1505 13.6183L25.6784 13.1456C25.2063 12.6725 25.0176 12.4837 25.0176 11.9159V11.7272C25.0176 11.1594 25.395 10.6868 26.1505 10.6868C26.9054 10.6868 27.2834 11.0648 27.2834 11.7272V12.1052H26.528V11.7272C26.528 11.4433 26.4339 11.3487 26.1505 11.3487C25.9618 11.3487 25.773 11.4433 25.773 11.7272V11.8213C25.773 12.1052 25.9618 12.1998 26.1505 12.4837L26.6226 12.9564C27.0001 13.429 27.2834 13.6183 27.2834 14.1855V14.3748C27.2834 15.0367 26.9054 15.4152 26.1505 15.4152C25.3009 15.5099 25.0176 15.0367 25.0176 14.4694Z" fill="white"/>
<path fill-rule="evenodd" clip-rule="evenodd" d="M29.738 10.8755V14.3748C29.738 15.1313 29.4547 15.5099 28.6051 15.5099C27.7555 15.5099 27.4722 15.0367 27.4722 14.3748V10.8755H28.2271V14.4694C28.2271 14.7533 28.3217 14.9421 28.6051 14.9421C28.8879 14.9421 28.9826 14.7533 28.9826 14.4694V10.8755H29.738Z" fill="white"/>
<path fill-rule="evenodd" clip-rule="evenodd" d="M32.1924 12.4832L31.7203 15.4152H31.3428L30.7761 12.4832V15.4152H30.1152V10.8755H30.9648L31.5315 13.429L32.0036 10.8755H32.9473V15.4152H32.1924V12.4832Z" fill="white"/>
<path fill-rule="evenodd" clip-rule="evenodd" d="M33.3247 10.8755H34.4576C35.2131 10.8755 35.4959 11.254 35.4959 11.9159V12.8617C35.4959 13.5236 35.2131 13.9022 34.4576 13.9022H34.0802V15.4152H33.3247V10.8755ZM34.0802 11.5379V13.3344H34.363C34.6464 13.3344 34.741 13.2403 34.741 12.9564V11.9159C34.741 11.6326 34.6464 11.5379 34.363 11.5379H34.0802Z" fill="white"/>
<path fill-rule="evenodd" clip-rule="evenodd" d="M35.6855 10.8755H37.668V11.5379H37.1019V15.4152H36.3464V11.5379H35.6855V10.8755Z" fill="white"/>
<path d="M38.7061 10.8755H37.9507V15.4152H38.7061V10.8755Z" fill="white"/>
<path fill-rule="evenodd" clip-rule="evenodd" d="M39.0845 14.2801V12.0105C39.0845 11.2539 39.462 10.7808 40.2169 10.7808C40.9723 10.7808 41.3498 11.3486 41.3498 12.0105V14.2801C41.3498 15.0366 40.9723 15.5098 40.2169 15.5098C39.462 15.5098 39.0845 14.942 39.0845 14.2801ZM40.5949 14.3747V11.9158C40.5949 11.6319 40.5002 11.4432 40.2169 11.4432C39.934 11.4432 39.8394 11.6319 39.8394 11.9158V14.3747C39.8394 14.6586 39.934 14.8473 40.2169 14.8473C40.5002 14.8473 40.5949 14.6586 40.5949 14.3747Z" fill="white"/>
<path fill-rule="evenodd" clip-rule="evenodd" d="M42.2937 12.5778V15.4152H41.6328V10.8755H42.4824L43.2378 13.429V10.8755H43.8987V15.4152H43.2378L42.2937 12.5778Z" fill="white"/>
<path fill-rule="evenodd" clip-rule="evenodd" d="M17.1821 21.7514L18.0317 17.2122H18.8813L19.7308 21.7514H18.9759L18.8813 20.9002H18.0317L17.9371 21.7514H17.1821ZM18.1258 20.3329H18.7866L18.5038 18.536L18.1258 20.3329Z" fill="white"/>
<path fill-rule="evenodd" clip-rule="evenodd" d="M20.675 18.914V21.7514H20.0142V17.2122H20.7691L21.6187 19.8598V17.2122H22.2795V21.7514H21.6187L20.675 18.914Z" fill="white"/>
<path fill-rule="evenodd" clip-rule="evenodd" d="M24.9236 18.4413V20.5217C24.9236 21.1841 24.6402 21.7514 23.7906 21.7514H22.6577V17.2122H23.7906C24.6402 17.2122 24.9236 17.7794 24.9236 18.4413ZM23.696 21.1841C23.9794 21.1841 24.1681 20.9948 24.1681 20.7109V18.3467C24.1681 18.0633 24.074 17.8741 23.696 17.8741H23.4132V21.1841H23.696Z" fill="white"/>
<path fill-rule="evenodd" clip-rule="evenodd" d="M25.7729 17.2122H26.9059C27.6613 17.2122 28.0388 17.5902 28.0388 18.2521V19.1979C28.0388 19.8598 27.7554 20.2383 26.9059 20.2383H26.5284V21.7514H25.7729V17.2122ZM26.6225 17.8741V19.671H26.9059C27.1892 19.671 27.2833 19.5764 27.2833 19.2925V18.2521C27.2833 17.9687 27.1892 17.8741 26.9059 17.8741H26.6225Z" fill="white"/>
<path fill-rule="evenodd" clip-rule="evenodd" d="M29.0767 19.671V21.7514H28.3218V17.2122H29.4547C30.2096 17.2122 30.493 17.5902 30.493 18.2521V18.8199C30.493 19.2925 30.3043 19.5764 29.9263 19.671L30.6817 21.7514H29.9263L29.0767 19.671ZM29.0767 17.8741V19.2925H29.3601C29.6434 19.2925 29.7375 19.1979 29.7375 18.914V18.2521C29.7375 17.9687 29.6434 17.8741 29.3601 17.8741H29.0767Z" fill="white"/>
<path fill-rule="evenodd" clip-rule="evenodd" d="M30.7759 20.6163V18.4413C30.7759 17.6848 31.1539 17.2122 32.0034 17.2122C32.853 17.2122 33.2305 17.7794 33.2305 18.4413V20.6163C33.2305 21.3728 32.853 21.846 32.0034 21.846C31.1539 21.846 30.7759 21.3728 30.7759 20.6163ZM32.3809 20.8056V18.3467C32.3809 18.0633 32.2868 17.8741 32.0034 17.8741C31.7201 17.8741 31.626 18.0633 31.626 18.3467V20.8056C31.626 21.0895 31.7201 21.2787 32.0034 21.2787C32.2868 21.2787 32.3809 21.0895 32.3809 20.8056Z" fill="white"/>
<path fill-rule="evenodd" clip-rule="evenodd" d="M35.7795 18.4413V20.5217C35.7795 21.1841 35.4967 21.7514 34.6466 21.7514H33.5142V17.2122H34.6466C35.4967 17.2122 35.7795 17.7794 35.7795 18.4413ZM34.5525 21.1841C34.8358 21.1841 35.0246 20.9948 35.0246 20.7109V18.3467C35.0246 18.0633 34.9299 17.8741 34.5525 17.8741H34.2691V21.1841H34.5525Z" fill="white"/>
<path fill-rule="evenodd" clip-rule="evenodd" d="M38.2342 17.2122V20.7109C38.2342 21.4675 37.9514 21.846 37.1959 21.846C36.4405 21.846 36.063 21.3728 36.063 20.7109V17.2122H36.8185V20.8056C36.8185 21.0895 36.9126 21.2787 37.1959 21.2787C37.4793 21.2787 37.5734 21.0895 37.5734 20.8056V17.2122H38.2342Z" fill="white"/>
<path fill-rule="evenodd" clip-rule="evenodd" d="M38.6123 20.6163V18.4413C38.6123 17.6848 38.9898 17.2122 39.7452 17.2122C40.5948 17.2122 40.8782 17.6848 40.8782 18.3467V18.914H40.1227V18.3467C40.1227 18.0633 40.0281 17.8741 39.7452 17.8741C39.4619 17.8741 39.3672 18.0633 39.3672 18.3467V20.8056C39.3672 21.0895 39.4619 21.2787 39.7452 21.2787C40.0281 21.2787 40.1227 21.0895 40.1227 20.8056V19.9544H40.8782V20.7109C40.8782 21.3728 40.5948 21.846 39.7452 21.846C38.9898 21.846 38.6123 21.3728 38.6123 20.6163Z" fill="white"/>
<path fill-rule="evenodd" clip-rule="evenodd" d="M41.0669 17.2122H43.1435V17.8741H42.4827V21.7514H41.7277V17.8741H41.0669V17.2122Z" fill="white"/>
<path d="M44.087 17.2122H43.332V21.7514H44.087V17.2122Z" fill="white"/>
<path fill-rule="evenodd" clip-rule="evenodd" d="M44.4648 20.6163V18.4413C44.4648 17.6848 44.8423 17.2122 45.5978 17.2122C46.3527 17.2122 46.7307 17.7794 46.7307 18.4413V20.6163C46.7307 21.3728 46.3527 21.846 45.5978 21.846C44.8423 21.846 44.4648 21.3728 44.4648 20.6163ZM45.9752 20.8056V18.3467C45.9752 18.0633 45.8812 17.8741 45.5978 17.8741C45.3144 17.8741 45.2203 18.0633 45.2203 18.3467V20.8056C45.2203 21.0895 45.3144 21.2787 45.5978 21.2787C45.8812 21.2787 45.9752 21.0895 45.9752 20.8056Z" fill="white"/>
<path fill-rule="evenodd" clip-rule="evenodd" d="M47.7692 18.914V21.7514H47.1084V17.2122H47.8639L48.7134 19.8598V17.2122H49.3743V21.7514H48.7134L47.7692 18.914Z" fill="white"/>
<path d="M53.9999 2.13867H14.9702V21.9208H53.9999V2.13867Z" fill="#566D79"/>
<path d="M17.9003 6.18802C17.9003 6.38318 17.8747 6.56282 17.8233 6.72696C17.772 6.8911 17.6971 7.03278 17.5998 7.15094C17.5025 7.2691 17.3833 7.36212 17.2427 7.42895C17.1037 7.49418 16.946 7.5268 16.7706 7.5268C16.5952 7.5268 16.4391 7.49418 16.3028 7.42895C16.1664 7.36212 16.0515 7.2691 15.9585 7.15094C15.8649 7.03118 15.7938 6.89003 15.7451 6.72696C15.6965 6.56282 15.6719 6.38318 15.6719 6.18802V5.74533C15.6719 5.55072 15.6965 5.37107 15.7451 5.2064C15.7938 5.04226 15.8649 4.90111 15.9585 4.78242C16.0515 4.66266 16.1659 4.56963 16.3006 4.5028C16.437 4.43596 16.5931 4.40228 16.7685 4.40228C16.9454 4.40228 17.1037 4.43596 17.2427 4.5028C17.3833 4.56963 17.5025 4.66266 17.5998 4.78242C17.6971 4.90111 17.772 5.04226 17.8233 5.2064C17.8747 5.37107 17.9003 5.55072 17.9003 5.74533V6.18802ZM17.3052 5.74106C17.3052 5.61755 17.2951 5.50313 17.2742 5.39888C17.2545 5.29409 17.2234 5.20426 17.1801 5.12941C17.1368 5.05403 17.0812 4.99575 17.0128 4.95405C16.946 4.91074 16.8647 4.88935 16.7685 4.88935C16.6738 4.88935 16.5947 4.91074 16.5305 4.95405C16.4664 4.99575 16.415 5.05403 16.376 5.12941C16.337 5.20426 16.3092 5.29409 16.2926 5.39888C16.2755 5.50313 16.2675 5.61755 16.2675 5.74106V6.18802C16.2675 6.31046 16.2755 6.42434 16.2926 6.5286C16.3092 6.63286 16.337 6.72375 16.376 6.80021C16.415 6.87666 16.4664 6.93654 16.5305 6.97985C16.5947 7.02262 16.6749 7.04454 16.7706 7.04454C16.8652 7.04454 16.946 7.02262 17.0128 6.97985C17.0812 6.93654 17.1363 6.87719 17.178 6.80234C17.2213 6.72535 17.2534 6.635 17.2742 6.53074C17.2951 6.42648 17.3052 6.31207 17.3052 6.18802V5.74106ZM20.5821 4.9225H19.6444V7.4851H19.0557V4.9225H18.1302V4.44398H20.5821V4.9225ZM20.912 7.4851V4.44398H21.9332C22.0989 4.44398 22.2497 4.4611 22.3845 4.49424C22.5208 4.52793 22.6373 4.57872 22.7336 4.64662C22.8293 4.71506 22.9031 4.80114 22.9549 4.90593C23.0079 5.01019 23.0341 5.13369 23.0341 5.27537C23.0324 5.41759 22.9945 5.54484 22.9191 5.65765C22.8453 5.77046 22.7363 5.85601 22.5914 5.91428C22.679 5.93674 22.755 5.97042 22.8191 6.0148C22.8827 6.05917 22.9357 6.1121 22.9779 6.17359C23.0207 6.23347 23.0522 6.29977 23.0715 6.37195C23.0923 6.44306 23.103 6.51684 23.103 6.59329C23.103 6.73926 23.0779 6.86811 23.0276 6.97985C22.9779 7.09106 22.9057 7.18462 22.8127 7.25947C22.7191 7.33486 22.6058 7.39099 22.4721 7.42895C22.3385 7.46638 22.1882 7.4851 22.0214 7.4851H20.912ZM21.5012 6.14418V7.01086H22.023C22.1834 7.00979 22.3053 6.97076 22.3887 6.8943C22.4737 6.81624 22.516 6.71466 22.516 6.58901C22.5176 6.45001 22.4802 6.34147 22.4032 6.26341C22.3267 6.18535 22.2085 6.14579 22.0482 6.14418H21.5012ZM21.5012 5.7202H21.9375C22.1005 5.71913 22.2257 5.68492 22.3133 5.61809C22.401 5.55126 22.4459 5.45288 22.447 5.32349C22.447 5.18127 22.4032 5.07969 22.3155 5.01874C22.2278 4.95618 22.1011 4.9241 21.9353 4.9225H21.5012V5.7202ZM25.3566 6.15274H24.1076V7.01086H25.5672V7.4851H23.5185V4.44398H25.5614V4.9225H24.1076V5.68919H25.3566V6.15274ZM28.2886 4.9225H27.3509V7.4851H26.7622V4.9225H25.8367V4.44398H28.2886V4.9225ZM30.7341 6.53288C30.7245 6.68579 30.6914 6.82373 30.6342 6.94616C30.5785 7.0686 30.5032 7.17339 30.4085 7.25947C30.3139 7.34608 30.2011 7.41292 30.0701 7.45997C29.9391 7.50595 29.7947 7.52894 29.636 7.52894C29.4563 7.52894 29.297 7.49633 29.1574 7.43056C29.0184 7.36373 28.9013 7.27123 28.8067 7.15307C28.7121 7.03331 28.6394 6.89003 28.5896 6.72268C28.5394 6.55587 28.5143 6.37195 28.5143 6.17145V5.76191C28.5143 5.56034 28.541 5.37589 28.5934 5.20854C28.6463 5.04173 28.7217 4.89791 28.819 4.77868C28.9168 4.65892 29.0345 4.56589 29.1719 4.50066C29.3114 4.43383 29.4675 4.40015 29.6402 4.40015C29.807 4.40015 29.9551 4.4242 30.0851 4.47125C30.2155 4.51884 30.3273 4.58621 30.4192 4.67389C30.5107 4.76157 30.5834 4.86904 30.6363 4.99575C30.6892 5.12246 30.7224 5.26521 30.7363 5.424H30.1519C30.146 5.33311 30.1321 5.25399 30.1097 5.18555C30.0888 5.11765 30.0578 5.06098 30.0161 5.0166C29.9755 4.97062 29.9241 4.9364 29.8616 4.91395C29.8001 4.89042 29.7263 4.87866 29.6402 4.87866C29.5493 4.87866 29.4707 4.89791 29.4039 4.93694C29.3371 4.97597 29.2815 5.03318 29.2371 5.10856C29.1938 5.18341 29.1617 5.27591 29.1409 5.38604C29.12 5.49458 29.1093 5.61862 29.1093 5.75816V6.17145C29.1093 6.47086 29.151 6.6922 29.235 6.83549C29.32 6.97878 29.4536 7.05096 29.636 7.05096C29.7889 7.05096 29.9102 7.01032 29.999 6.92959C30.0883 6.84725 30.1375 6.71519 30.1476 6.53288H30.7341ZM33.4266 4.9225H32.4889V7.4851H31.8997V4.9225H30.9747V4.44398H33.4266V4.9225ZM33.7565 7.4851V4.44398H34.7777C34.9435 4.44398 35.0937 4.4611 35.229 4.49424C35.3653 4.52793 35.4813 4.57872 35.5776 4.64662C35.6738 4.71506 35.7476 4.80114 35.7989 4.90593C35.8518 5.01019 35.878 5.13369 35.878 5.27537C35.877 5.41759 35.8385 5.54484 35.7636 5.65765C35.6898 5.77046 35.5802 5.85601 35.4353 5.91428C35.523 5.93674 35.599 5.97042 35.6631 6.0148C35.7273 6.05917 35.7802 6.1121 35.8219 6.17359C35.8652 6.23347 35.8962 6.29977 35.916 6.37195C35.9368 6.44306 35.947 6.51684 35.947 6.59329C35.947 6.73926 35.9224 6.86811 35.8722 6.97985C35.8219 7.09106 35.7503 7.18462 35.6567 7.25947C35.5637 7.33486 35.4503 7.39099 35.3166 7.42895C35.183 7.46638 35.0322 7.4851 34.8654 7.4851H33.7565ZM34.3452 6.14418V7.01086H34.8675C35.0274 7.00979 35.1493 6.97076 35.2327 6.8943C35.3177 6.81624 35.3605 6.71466 35.3605 6.58901C35.3616 6.45001 35.3241 6.34147 35.2477 6.26341C35.1712 6.18535 35.0525 6.14579 34.8927 6.14418H34.3452ZM34.3452 5.7202H34.782C34.9445 5.71913 35.0702 5.68492 35.1579 5.61809C35.2455 5.55126 35.2899 5.45288 35.2915 5.32349C35.2915 5.18127 35.2477 5.07969 35.16 5.01874C35.0723 4.95618 34.9456 4.9241 34.7799 4.9225H34.3452V5.7202ZM38.2006 6.15274H36.9516V7.01086H38.4118V7.4851H36.363V4.44398H38.4053V4.9225H36.9516V5.68919H38.2006V6.15274ZM40.9054 7.4851H40.3247V6.16718H39.464V7.4851H38.8817V4.44398H39.464V5.69133H40.3247V4.44398H40.9054V7.4851ZM43.4739 7.4851H42.8938V6.16718H42.033V7.4851H41.4502V4.44398H42.033V5.69133H42.8938V4.44398H43.4739V7.4851ZM46.1578 6.18802C46.1578 6.38318 46.1322 6.56282 46.0808 6.72696C46.029 6.8911 45.9546 7.03278 45.8573 7.15094C45.7595 7.2691 45.6408 7.36212 45.5002 7.42895C45.3607 7.49418 45.2035 7.5268 45.0281 7.5268C44.8527 7.5268 44.6966 7.49418 44.5603 7.42895C44.4239 7.36212 44.309 7.2691 44.2154 7.15094C44.1224 7.03118 44.0513 6.89003 44.0026 6.72696C43.954 6.56282 43.9294 6.38318 43.9294 6.18802V5.74533C43.9294 5.55072 43.954 5.37107 44.0026 5.2064C44.0513 5.04226 44.1224 4.90111 44.2154 4.78242C44.309 4.66266 44.4229 4.56963 44.5581 4.5028C44.6945 4.43596 44.8506 4.40228 45.026 4.40228C45.2029 4.40228 45.3607 4.43596 45.5002 4.5028C45.6408 4.56963 45.7595 4.66266 45.8573 4.78242C45.9546 4.90111 46.029 5.04226 46.0808 5.2064C46.1322 5.37107 46.1578 5.55072 46.1578 5.74533V6.18802ZM45.5627 5.74106C45.5627 5.61755 45.5521 5.50313 45.5312 5.39888C45.512 5.29409 45.4804 5.20426 45.4371 5.12941C45.3943 5.05403 45.3382 4.99575 45.2703 4.95405C45.2035 4.91074 45.1222 4.88935 45.026 4.88935C44.9313 4.88935 44.8517 4.91074 44.788 4.95405C44.7239 4.99575 44.672 5.05403 44.633 5.12941C44.5945 5.20426 44.5662 5.29409 44.5496 5.39888C44.533 5.50313 44.5245 5.61755 44.5245 5.74106V6.18802C44.5245 6.31046 44.533 6.42434 44.5496 6.5286C44.5662 6.63286 44.5945 6.72375 44.633 6.80021C44.672 6.87666 44.7239 6.93654 44.788 6.97985C44.8517 7.02262 44.9319 7.04454 45.0281 7.04454C45.1227 7.04454 45.2035 7.02262 45.2703 6.97985C45.3382 6.93654 45.3933 6.87719 45.435 6.80234C45.4783 6.72535 45.5104 6.635 45.5312 6.53074C45.5521 6.42648 45.5627 6.31207 45.5627 6.18802V5.74106ZM48.4761 6.15274H47.2271V7.01086H48.6867V7.4851H46.6379V4.44398H48.6808V4.9225H47.2271V5.68919H48.4761V6.15274ZM17.7918 12.297H17.2053V9.73225H16.3445V12.297H15.758V9.25587H17.7918V12.297ZM20.4693 10.9999C20.4693 11.1951 20.4437 11.3747 20.3923 11.5388C20.3405 11.703 20.2662 11.8447 20.1689 11.9628C20.071 12.081 19.9523 12.174 19.8117 12.2408C19.6722 12.3061 19.515 12.3387 19.3396 12.3387C19.1642 12.3387 19.0081 12.3061 18.8718 12.2408C18.7354 12.174 18.6205 12.081 18.5269 11.9628C18.4339 11.8431 18.3628 11.7019 18.3141 11.5388C18.2655 11.3747 18.2409 11.1951 18.2409 10.9999V10.5572C18.2409 10.3626 18.2655 10.183 18.3141 10.0183C18.3628 9.85414 18.4339 9.713 18.5269 9.5943C18.6205 9.47454 18.7344 9.38151 18.8696 9.31468C19.006 9.24785 19.1621 9.21417 19.3375 9.21417C19.5144 9.21417 19.6722 9.24785 19.8117 9.31468C19.9523 9.38151 20.071 9.47454 20.1689 9.5943C20.2662 9.713 20.3405 9.85414 20.3923 10.0183C20.4437 10.183 20.4693 10.3626 20.4693 10.5572V10.9999ZM19.8743 10.5529C19.8743 10.4294 19.8636 10.315 19.8427 10.2108C19.8235 10.106 19.7919 10.0161 19.7491 9.94129C19.7058 9.86591 19.6502 9.80763 19.5818 9.76593C19.515 9.72262 19.4337 9.70123 19.3375 9.70123C19.2428 9.70123 19.1632 9.72262 19.0995 9.76593C19.0354 9.80763 18.9841 9.86591 18.945 9.94129C18.906 10.0161 18.8782 10.106 18.8611 10.2108C18.8445 10.315 18.836 10.4294 18.836 10.5529V10.9999C18.836 11.1223 18.8445 11.2362 18.8611 11.3405C18.8782 11.4447 18.906 11.5356 18.945 11.6121C18.9841 11.6885 19.0354 11.7484 19.0995 11.7917C19.1632 11.8345 19.2434 11.8564 19.3396 11.8564C19.4342 11.8564 19.515 11.8345 19.5818 11.7917C19.6502 11.7484 19.7048 11.6891 19.747 11.6142C19.7898 11.5372 19.8219 11.4469 19.8427 11.3426C19.8636 11.2384 19.8743 11.1239 19.8743 10.9999V10.5529ZM23.1511 9.73438H22.2134V12.297H21.6242V9.73438H20.6992V9.25587H23.1511V9.73438ZM24.1098 11.1817V12.297H23.5227V9.25587H24.5626C24.7284 9.25587 24.8781 9.28046 25.0117 9.32911C25.1454 9.3767 25.2587 9.44353 25.3523 9.52961C25.4469 9.61462 25.5191 9.71674 25.5694 9.8365C25.6212 9.95626 25.6469 10.0894 25.6469 10.2359C25.6469 10.3722 25.6212 10.4979 25.5694 10.6139C25.5191 10.7294 25.4469 10.8294 25.3523 10.9144C25.2587 10.9978 25.1454 11.0635 25.0117 11.1106C24.8781 11.1582 24.7284 11.1817 24.5626 11.1817H24.1098ZM24.1098 10.7053H24.5626C24.6466 10.7053 24.7187 10.693 24.7802 10.6679C24.8412 10.6428 24.892 10.6085 24.9326 10.5658C24.9743 10.5225 25.0048 10.4733 25.0246 10.4171C25.0454 10.3605 25.0556 10.3011 25.0556 10.2396C25.0556 10.1691 25.0454 10.1028 25.0246 10.0413C25.0048 9.98032 24.9743 9.92632 24.9326 9.88034C24.892 9.8349 24.8412 9.79854 24.7802 9.77181C24.7187 9.74561 24.6466 9.73225 24.5626 9.73225H24.1098V10.7053ZM27.9251 10.9646H26.6767V11.8227H28.1363V12.297H26.0875V9.25587H28.1298V9.73438H26.6767V10.5011H27.9251V10.9646ZM30.5924 9.73225H29.212V10.3797H29.5542C29.7295 10.3797 29.8872 10.4027 30.0263 10.4487C30.1669 10.4931 30.2856 10.5567 30.3813 10.6385C30.4791 10.7208 30.5534 10.8203 30.6048 10.9374C30.6566 11.0544 30.6823 11.1838 30.6823 11.326C30.6823 11.4704 30.6566 11.603 30.6048 11.7228C30.5534 11.8409 30.4791 11.9425 30.3813 12.0275C30.2856 12.1125 30.1669 12.1788 30.0263 12.2259C29.8872 12.2735 29.7295 12.297 29.5542 12.297H28.6228V9.25587H30.5924V9.73225ZM29.212 10.8518V11.8249H29.5542C29.6461 11.8249 29.7258 11.8115 29.7926 11.7853C29.8605 11.7586 29.9172 11.7228 29.9616 11.6768C30.0075 11.6308 30.0412 11.5773 30.0621 11.5158C30.084 11.4544 30.0952 11.3897 30.0952 11.3218C30.0952 11.256 30.084 11.1951 30.0621 11.1378C30.0412 11.0806 30.0075 11.0315 29.9616 10.9897C29.9172 10.9464 29.8605 10.9128 29.7926 10.8892C29.7258 10.8641 29.6461 10.8518 29.5542 10.8518H29.212ZM33.2219 9.25587V12.297H32.6327V9.73225H32.0039L31.9938 10.8475C31.9895 11.1133 31.9686 11.3383 31.9312 11.5223C31.8949 11.7062 31.8419 11.8554 31.7724 11.9714C31.7029 12.0853 31.6158 12.1681 31.5115 12.2195C31.4067 12.2713 31.2848 12.297 31.1458 12.297H30.9993V11.8249H31.0833C31.1512 11.8179 31.2057 11.7976 31.2458 11.7645C31.288 11.7297 31.3196 11.6752 31.342 11.6014C31.3656 11.5265 31.3816 11.4282 31.3902 11.3068C31.3987 11.1844 31.4041 11.0315 31.4067 10.8475L31.4196 9.25587H33.2219ZM35.6321 10.9646H34.3831V11.8227H35.8427V12.297H33.794V9.25587H35.8363V9.73438H34.3831V10.5011H35.6321V10.9646ZM38.3364 12.297H37.7557V10.9791H36.8955V12.297H36.3127V9.25587H36.8955V10.5032H37.7557V9.25587H38.3364V12.297ZM40.306 9.25587H40.8947V12.297H40.306V10.3567L39.4431 12.297H38.8566V9.25587H39.4431V11.1983L40.306 9.25587ZM43.3386 10.9646H42.0896V11.8227H43.5492V12.297H41.5005V9.25587H43.5428V9.73438H42.0896V10.5011H43.3386V10.9646ZM17.1866 14.0677H17.7752V17.1089H17.1866V15.1686L16.3236 17.1089H15.7371V14.0677H16.3236V16.0101L17.1866 14.0677ZM22.9298 17.1089H22.3427V14.5441H21.4825V17.1089H20.8954V14.0677H22.9298V17.1089ZM24.1098 15.9936V17.1089H23.5227V14.0677H24.5626C24.7284 14.0677 24.8781 14.0923 25.0117 14.141C25.1454 14.1886 25.2587 14.2554 25.3523 14.3415C25.4469 14.4265 25.5191 14.5286 25.5694 14.6484C25.6212 14.7681 25.6469 14.9013 25.6469 15.0478C25.6469 15.1841 25.6212 15.3097 25.5694 15.4258C25.5191 15.5413 25.4469 15.6412 25.3523 15.7262C25.2587 15.8097 25.1454 15.8754 25.0117 15.9225C24.8781 15.97 24.7284 15.9936 24.5626 15.9936H24.1098ZM24.1098 15.5172H24.5626C24.6466 15.5172 24.7187 15.5049 24.7802 15.4798C24.8412 15.4546 24.892 15.4204 24.9326 15.3776C24.9743 15.3343 25.0048 15.2852 25.0246 15.229C25.0454 15.1723 25.0556 15.113 25.0556 15.0515C25.0556 14.9809 25.0454 14.9146 25.0246 14.8532C25.0048 14.7922 24.9743 14.7382 24.9326 14.6922C24.892 14.6468 24.8412 14.6104 24.7802 14.5837C24.7187 14.5575 24.6466 14.5441 24.5626 14.5441H24.1098V15.5172ZM28.1758 15.8118C28.1758 16.0069 28.1502 16.1866 28.0988 16.3507C28.047 16.5149 27.9726 16.6565 27.8753 16.7747C27.7775 16.8929 27.6588 16.9859 27.5182 17.0527C27.3787 17.1179 27.2215 17.1506 27.0461 17.1506C26.8707 17.1506 26.7146 17.1179 26.5783 17.0527C26.4419 16.9859 26.327 16.8929 26.2334 16.7747C26.1404 16.6549 26.0693 16.5138 26.0206 16.3507C25.972 16.1866 25.9474 16.0069 25.9474 15.8118V15.3691C25.9474 15.1745 25.972 14.9948 26.0206 14.8302C26.0693 14.666 26.1404 14.5249 26.2334 14.4062C26.327 14.2864 26.4409 14.1934 26.5761 14.1266C26.7125 14.0597 26.8686 14.026 27.044 14.026C27.2209 14.026 27.3787 14.0597 27.5182 14.1266C27.6588 14.1934 27.7775 14.2864 27.8753 14.4062C27.9726 14.5249 28.047 14.666 28.0988 14.8302C28.1502 14.9948 28.1758 15.1745 28.1758 15.3691V15.8118ZM27.5807 15.3648C27.5807 15.2413 27.5701 15.1269 27.5492 15.0226C27.53 14.9178 27.4984 14.828 27.4556 14.7532C27.4123 14.6778 27.3567 14.6195 27.2883 14.5778C27.2215 14.5345 27.1402 14.5131 27.044 14.5131C26.9493 14.5131 26.8702 14.5345 26.806 14.5778C26.7419 14.6195 26.6906 14.6778 26.6515 14.7532C26.6125 14.828 26.5847 14.9178 26.5676 15.0226C26.551 15.1269 26.543 15.2413 26.543 15.3648V15.8118C26.543 15.9342 26.551 16.0481 26.5676 16.1524C26.5847 16.2566 26.6125 16.3475 26.6515 16.424C26.6906 16.5004 26.7419 16.5603 26.806 16.6036C26.8702 16.6464 26.9499 16.6683 27.0461 16.6683C27.1407 16.6683 27.2215 16.6464 27.2883 16.6036C27.3567 16.5603 27.4118 16.501 27.4535 16.4261C27.4963 16.3491 27.5284 16.2588 27.5492 16.1545C27.5701 16.0502 27.5807 15.9358 27.5807 15.8118V15.3648ZM30.0305 14.0677H30.6197V17.1089H30.0305V15.1686L29.1681 17.1089H28.5811V14.0677H29.1681V16.0101L30.0305 14.0677ZM33.3197 14.8927C33.3197 14.9628 33.3085 15.0296 33.2866 15.0932C33.2657 15.1574 33.2347 15.2183 33.1946 15.275C33.154 15.3306 33.1048 15.3819 33.0465 15.4274C32.9877 15.4733 32.9219 15.5135 32.8481 15.5466C33.0166 15.6054 33.1444 15.6942 33.232 15.8139C33.3213 15.9321 33.3657 16.0802 33.3657 16.2566C33.3657 16.3988 33.3368 16.5255 33.278 16.6368C33.2208 16.7485 33.1411 16.8421 33.038 16.9191C32.9364 16.9939 32.8139 17.0517 32.6701 17.0923C32.5284 17.1313 32.3729 17.1506 32.2044 17.1506C32.0681 17.1506 31.9334 17.134 31.7997 17.1003C31.666 17.0656 31.5452 17.0126 31.4383 16.942C31.3324 16.8693 31.2458 16.7774 31.179 16.6662C31.1137 16.555 31.0811 16.4213 31.0811 16.2652H31.6698C31.6698 16.3235 31.6826 16.378 31.7077 16.4282C31.7339 16.478 31.7708 16.5218 31.8184 16.5598C31.8655 16.5972 31.9221 16.6271 31.9874 16.6496C32.0531 16.6704 32.1253 16.6806 32.2044 16.6806C32.2964 16.6806 32.3782 16.6704 32.4488 16.6496C32.5199 16.6271 32.5798 16.5967 32.6284 16.5576C32.6771 16.5186 32.7145 16.4732 32.7391 16.4218C32.7642 16.3689 32.777 16.3117 32.777 16.2507C32.777 16.0877 32.7311 15.97 32.6391 15.8973C32.5487 15.8252 32.4151 15.7888 32.2381 15.7888H31.8286V15.3295H32.2381C32.3258 15.3295 32.4001 15.3199 32.4616 15.3001C32.5242 15.2793 32.5749 15.2499 32.614 15.2124C32.6546 15.175 32.6835 15.1301 32.7017 15.0788C32.7214 15.0259 32.7311 14.9676 32.7311 14.9034C32.7311 14.8489 32.7204 14.7976 32.6995 14.7489C32.6787 14.6986 32.6466 14.6553 32.6033 14.6195C32.5605 14.5832 32.5054 14.5548 32.4386 14.534C32.3729 14.5115 32.2953 14.5003 32.2044 14.5003C32.1349 14.5003 32.0702 14.5094 32.0104 14.5275C31.9505 14.5457 31.8981 14.5714 31.8537 14.6045C31.8104 14.6382 31.7756 14.6783 31.7494 14.7259C31.7243 14.7735 31.7115 14.8259 31.7115 14.8847H31.125C31.125 14.751 31.1533 14.6313 31.2105 14.5254C31.2688 14.4196 31.3479 14.3297 31.4463 14.2559C31.5452 14.1822 31.6596 14.126 31.789 14.087C31.92 14.0464 32.0585 14.026 32.2044 14.026C32.3729 14.026 32.5263 14.0453 32.6642 14.0827C32.8022 14.1191 32.9187 14.1736 33.015 14.2474C33.1123 14.3201 33.1877 14.4105 33.2406 14.519C33.2935 14.6265 33.3197 14.751 33.3197 14.8927ZM33.7565 17.1089V14.0677H34.7777C34.9435 14.0677 35.0937 14.0849 35.229 14.118C35.3653 14.1517 35.4813 14.2025 35.5776 14.2704C35.6738 14.3388 35.7476 14.4249 35.7989 14.5297C35.8518 14.6339 35.878 14.7575 35.878 14.8991C35.877 15.0414 35.8385 15.1686 35.7636 15.2814C35.6898 15.3942 35.5802 15.4798 35.4353 15.538C35.523 15.5605 35.599 15.5942 35.6631 15.6386C35.7273 15.6829 35.7802 15.7359 35.8219 15.7974C35.8652 15.8572 35.8962 15.9235 35.916 15.9957C35.9368 16.0668 35.947 16.1406 35.947 16.2171C35.947 16.363 35.9224 16.4919 35.8722 16.6036C35.8219 16.7148 35.7503 16.8084 35.6567 16.8832C35.5637 16.9586 35.4503 17.0148 35.3166 17.0527C35.183 17.0901 35.0322 17.1089 34.8654 17.1089H33.7565ZM34.3452 15.7679V16.6346H34.8675C35.0274 16.6335 35.1493 16.5945 35.2327 16.5181C35.3177 16.44 35.3605 16.3384 35.3605 16.2128C35.3616 16.0738 35.3241 15.9652 35.2477 15.8872C35.1712 15.8091 35.0525 15.7695 34.8927 15.7679H34.3452ZM34.3452 15.344H34.782C34.9445 15.3429 35.0702 15.3087 35.1579 15.2418C35.2455 15.175 35.2899 15.0766 35.2915 14.9473C35.2915 14.805 35.2477 14.7035 35.16 14.6425C35.0723 14.5799 34.9456 14.5479 34.7799 14.5463H34.3452V15.344ZM38.4513 15.8118C38.4513 16.0069 38.4257 16.1866 38.3738 16.3507C38.3225 16.5149 38.2482 16.6565 38.1503 16.7747C38.053 16.8929 37.9343 16.9859 37.7937 17.0527C37.6542 17.1179 37.497 17.1506 37.3216 17.1506C37.1462 17.1506 36.9901 17.1179 36.8538 17.0527C36.7169 16.9859 36.6025 16.8929 36.5089 16.7747C36.4159 16.6549 36.3448 16.5138 36.2961 16.3507C36.2475 16.1866 36.2229 16.0069 36.2229 15.8118V15.3691C36.2229 15.1745 36.2475 14.9948 36.2961 14.8302C36.3448 14.666 36.4159 14.5249 36.5089 14.4062C36.6025 14.2864 36.7164 14.1934 36.8516 14.1266C36.988 14.0597 37.1441 14.026 37.3195 14.026C37.4964 14.026 37.6542 14.0597 37.7937 14.1266C37.9343 14.1934 38.053 14.2864 38.1503 14.4062C38.2482 14.5249 38.3225 14.666 38.3738 14.8302C38.4257 14.9948 38.4513 15.1745 38.4513 15.3691V15.8118ZM37.8563 15.3648C37.8563 15.2413 37.8456 15.1269 37.8247 15.0226C37.8055 14.9178 37.7739 14.828 37.7306 14.7532C37.6878 14.6778 37.6317 14.6195 37.5638 14.5778C37.497 14.5345 37.4152 14.5131 37.3195 14.5131C37.2248 14.5131 37.1452 14.5345 37.081 14.5778C37.0174 14.6195 36.9655 14.6778 36.9265 14.7532C36.8875 14.828 36.8597 14.9178 36.8431 15.0226C36.8265 15.1269 36.818 15.2413 36.818 15.3648V15.8118C36.818 15.9342 36.8265 16.0481 36.8431 16.1524C36.8597 16.2566 36.8875 16.3475 36.9265 16.424C36.9655 16.5004 37.0174 16.5603 37.081 16.6036C37.1452 16.6464 37.2254 16.6683 37.3216 16.6683C37.4162 16.6683 37.497 16.6464 37.5638 16.6036C37.6317 16.5603 37.6868 16.501 37.7285 16.4261C37.7718 16.3491 37.8039 16.2588 37.8247 16.1545C37.8456 16.0502 37.8563 15.9358 37.8563 15.8118V15.3648ZM40.9615 17.8563H40.4563V17.1089H39.3057V17.8563H38.8106L38.7186 16.6368H38.8315C38.8956 16.6036 38.9512 16.5566 38.9983 16.4967C39.0459 16.4368 39.0854 16.3561 39.1175 16.2545C39.1496 16.1518 39.1752 16.024 39.195 15.8727C39.2143 15.7193 39.2282 15.5327 39.2367 15.313L39.3201 14.0677H40.822V16.6368H41.0455L40.9615 17.8563ZM39.8254 15.313C39.8184 15.4755 39.8083 15.6231 39.7944 15.7556C39.7815 15.8877 39.765 16.008 39.7441 16.1171C39.7233 16.224 39.6987 16.3208 39.6709 16.4074C39.6431 16.4919 39.6126 16.5689 39.5789 16.6368H40.2371V14.5441H39.8756L39.8254 15.313ZM43.5786 16.1566C43.569 16.3096 43.5353 16.4475 43.4781 16.5699C43.4225 16.6924 43.3477 16.7972 43.2525 16.8832C43.1579 16.9699 43.0451 17.0367 42.9146 17.0837C42.7836 17.1297 42.6387 17.1527 42.4799 17.1527C42.3003 17.1527 42.141 17.1201 42.002 17.0543C41.8624 16.9875 41.7453 16.895 41.6507 16.7768C41.5561 16.6571 41.4839 16.5138 41.4336 16.3464C41.3834 16.1796 41.3582 15.9957 41.3582 15.7952V15.3857C41.3582 15.1841 41.385 14.9996 41.4379 14.8323C41.4908 14.6655 41.5657 14.5217 41.6635 14.4024C41.7608 14.2827 41.8785 14.1896 42.0164 14.1244C42.1554 14.0576 42.3115 14.0239 42.4842 14.0239C42.651 14.0239 42.7997 14.048 42.929 14.095C43.06 14.1426 43.1712 14.21 43.2632 14.2977C43.3552 14.3853 43.4273 14.4928 43.4803 14.6195C43.5332 14.7462 43.5669 14.889 43.5808 15.0478H42.9959C42.9905 14.9569 42.9766 14.8777 42.9542 14.8093C42.9333 14.7414 42.9018 14.6847 42.8601 14.6404C42.82 14.5944 42.7681 14.5602 42.7056 14.5377C42.6441 14.5142 42.5703 14.5024 42.4842 14.5024C42.3939 14.5024 42.3153 14.5217 42.2484 14.5607C42.1816 14.5997 42.1255 14.6569 42.0811 14.7323C42.0378 14.8072 42.0057 14.8997 41.9849 15.0098C41.964 15.1183 41.9538 15.2424 41.9538 15.3819V15.7952C41.9538 16.0946 41.9955 16.316 42.0789 16.4593C42.164 16.6025 42.2976 16.6747 42.4799 16.6747C42.6334 16.6747 42.7542 16.6341 42.8435 16.5534C42.9323 16.471 42.982 16.339 42.9916 16.1566H43.5786ZM46.2706 14.5463H45.3328V17.1089H44.7442V14.5463H43.8187V14.0677H46.2706V14.5463ZM46.6005 17.1089V14.0677H47.6217C47.7874 14.0677 47.9377 14.0849 48.0729 14.118C48.2093 14.1517 48.3258 14.2025 48.4215 14.2704C48.5178 14.3388 48.5916 14.4249 48.6429 14.5297C48.6958 14.6339 48.7226 14.7575 48.7226 14.8991C48.721 15.0414 48.683 15.1686 48.6076 15.2814C48.5338 15.3942 48.4247 15.4798 48.2799 15.538C48.3675 15.5605 48.4435 15.5942 48.5076 15.6386C48.5712 15.6829 48.6242 15.7359 48.6659 15.7974C48.7092 15.8572 48.7407 15.9235 48.76 15.9957C48.7808 16.0668 48.7915 16.1406 48.7915 16.2171C48.7915 16.363 48.7664 16.4919 48.7161 16.6036C48.6659 16.7148 48.5942 16.8084 48.5012 16.8832C48.4076 16.9586 48.2943 17.0148 48.1606 17.0527C48.027 17.0901 47.8767 17.1089 47.7094 17.1089H46.6005ZM47.1897 15.7679V16.6346H47.7115C47.8719 16.6335 47.9938 16.5945 48.0772 16.5181C48.1622 16.44 48.2045 16.3384 48.2045 16.2128C48.2061 16.0738 48.1681 15.9652 48.0917 15.8872C48.0152 15.8091 47.897 15.7695 47.7367 15.7679H47.1897ZM47.1897 15.344H47.626C47.789 15.3429 47.9142 15.3087 48.0018 15.2418C48.0895 15.175 48.1344 15.0766 48.1355 14.9473C48.1355 14.805 48.0917 14.7035 48.004 14.6425C47.9163 14.5799 47.7896 14.5479 47.6238 14.5463H47.1897V15.344ZM51.2953 15.8118C51.2953 16.0069 51.2696 16.1866 51.2183 16.3507C51.167 16.5149 51.0921 16.6565 50.9948 16.7747C50.8975 16.8929 50.7783 16.9859 50.6377 17.0527C50.4987 17.1179 50.341 17.1506 50.1656 17.1506C49.9902 17.1506 49.8341 17.1179 49.6978 17.0527C49.5614 16.9859 49.4465 16.8929 49.3534 16.7747C49.2599 16.6549 49.1888 16.5138 49.1401 16.3507C49.0915 16.1866 49.0669 16.0069 49.0669 15.8118V15.3691C49.0669 15.1745 49.0915 14.9948 49.1401 14.8302C49.1888 14.666 49.2599 14.5249 49.3534 14.4062C49.4465 14.2864 49.5609 14.1934 49.6956 14.1266C49.832 14.0597 49.9881 14.026 50.1634 14.026C50.3404 14.026 50.4987 14.0597 50.6377 14.1266C50.7783 14.1934 50.8975 14.2864 50.9948 14.4062C51.0921 14.5249 51.167 14.666 51.2183 14.8302C51.2696 14.9948 51.2953 15.1745 51.2953 15.3691V15.8118ZM50.7002 15.3648C50.7002 15.2413 50.6901 15.1269 50.6692 15.0226C50.6494 14.9178 50.6179 14.828 50.5751 14.7532C50.5318 14.6778 50.4762 14.6195 50.4078 14.5778C50.341 14.5345 50.2597 14.5131 50.1634 14.5131C50.0688 14.5131 49.9897 14.5345 49.9255 14.5778C49.8614 14.6195 49.81 14.6778 49.771 14.7532C49.732 14.828 49.7042 14.9178 49.6876 15.0226C49.6705 15.1269 49.6625 15.2413 49.6625 15.3648V15.8118C49.6625 15.9342 49.6705 16.0481 49.6876 16.1524C49.7042 16.2566 49.732 16.3475 49.771 16.424C49.81 16.5004 49.8614 16.5603 49.9255 16.6036C49.9897 16.6464 50.0693 16.6683 50.1656 16.6683C50.2602 16.6683 50.341 16.6464 50.4078 16.6036C50.4762 16.5603 50.5313 16.501 50.573 16.4261C50.6163 16.3491 50.6478 16.2588 50.6692 16.1545C50.6901 16.0502 50.7002 15.9358 50.7002 15.8118V15.3648Z" fill="white"/>
</g>
</g>
<defs>
<clipPath id="clip0_590_115">
<rect width="54" height="54" fill="white"/>
</clipPath>
</defs>
</svg>
