<svg width="53" height="54" viewBox="0 0 53 54" fill="none" xmlns="http://www.w3.org/2000/svg">
<g clip-path="url(#clip0_590_187)">
<mask id="mask0_590_187" style="mask-type:luminance" maskUnits="userSpaceOnUse" x="0" y="0" width="53" height="54">
<path d="M53 0H0V54H53V0Z" fill="white"/>
</mask>
<g mask="url(#mask0_590_187)">
<path d="M53 0H0V54H53V0Z" fill="#566D79"/>
<path fill-rule="evenodd" clip-rule="evenodd" d="M46.4216 33.7618C45.0314 31.7761 38.7308 23.7375 26.9632 23.7375C15.1961 23.7375 8.89546 31.6814 7.50528 33.7618C7.41252 33.8564 7.41252 33.951 7.32031 33.951C7.32031 34.0457 7.41252 34.0457 7.50528 34.1403C8.89546 36.126 15.1961 44.1645 26.9632 44.1645C38.7308 44.1645 45.0314 36.126 46.4216 34.1403C46.5143 34.0457 46.5143 33.951 46.6066 33.951C46.5143 33.951 46.4216 33.8564 46.4216 33.7618ZM20.3848 28.844C20.4776 28.6548 20.848 28.2768 20.848 28.1821C20.9408 28.0875 21.1257 27.9929 21.2185 27.9929C21.3112 27.9929 21.4967 27.9929 21.4967 28.0875C21.4967 28.1821 21.404 28.5607 21.404 28.6548C21.2185 28.844 20.7553 29.1279 20.5703 29.0333C20.3848 29.0333 20.3848 28.9387 20.3848 28.844ZM19.9216 29.6952C20.1066 29.5059 20.3848 29.4113 20.6625 29.4113C20.848 29.4113 21.1257 29.5059 21.1257 29.6006C21.1257 29.6952 20.5703 29.9791 20.4776 30.0737C20.1993 30.3571 19.7361 30.9249 19.4584 30.9249H19.2729C19.5506 30.5464 19.7361 30.0737 19.9216 29.6952ZM24.3688 38.9634C24.1838 39.6253 23.9983 39.8146 23.9056 40.0033C23.7206 40.1926 23.1647 40.4765 22.7937 40.4765C22.4232 40.4765 22.3304 39.436 22.3304 38.8688C22.3304 38.6795 22.0527 39.2468 21.96 38.1122C21.8672 37.4503 21.404 38.2069 21.404 37.7337C21.404 37.2611 21.1257 37.3557 20.9408 37.0718C20.7553 36.7879 20.4776 37.0718 20.1066 37.2611C19.8288 37.3557 19.9216 37.4503 19.4584 37.3557C19.0874 36.3153 18.8096 35.2748 18.8096 34.1403V33.2891C18.8096 33.2891 18.8096 33.1945 18.9024 33.1945C19.3656 32.6267 19.3656 32.5326 19.3656 32.5326L19.8288 32.3433C19.8288 32.3433 20.5703 32.438 21.2185 32.7213C21.6817 32.9106 22.4232 33.2891 22.8864 33.0999C23.1647 33.0052 23.4424 32.816 23.4424 32.5326C23.4424 32.1541 23.1647 32.1541 22.7937 32.3433C22.7014 32.438 22.4232 31.8702 22.2377 31.8702C22.0527 31.8702 22.4232 32.5326 22.3304 32.6267C22.1455 32.6267 21.8672 31.9648 21.7745 31.7761C21.6817 31.6814 21.4967 31.3975 21.2185 31.5868C20.7553 32.0594 19.9216 32.0594 19.8288 32.1541C19.3656 32.5326 19.1801 32.0594 19.2729 31.7761C19.2729 31.713 19.3038 31.6499 19.3656 31.5868C19.5506 31.3975 20.1066 31.3975 20.2921 31.4922C20.4776 31.5868 20.6625 31.4922 20.7553 31.3975C20.848 31.3029 20.848 31.2083 20.7553 31.019C20.7553 30.9249 20.848 30.8303 20.9408 30.8303C21.0335 30.8303 21.404 30.5464 21.5895 30.4517C21.7745 30.3571 22.5159 30.2625 22.7937 30.4517C23.1647 30.641 23.4424 30.4517 23.6279 30.2625C23.8128 29.9791 24.0911 29.7898 24.1838 29.7898C24.2766 29.6952 23.9056 29.3172 23.5351 29.7898C23.1647 30.2625 23.0719 30.2625 22.8864 30.2625C22.7009 30.2625 21.7745 29.9791 21.6817 29.6952C21.5895 29.4113 21.96 29.1279 22.3304 28.9387C22.7014 28.7494 23.6279 28.7494 23.9056 28.7494C24.3688 28.6548 25.0175 28.3714 25.388 28.5607C25.6663 28.7494 24.0911 29.1279 24.5543 29.5059C24.7398 29.6006 25.5735 28.9387 25.944 28.844C26.6855 28.466 25.2958 28.3714 25.4808 27.6149C25.6663 26.7637 23.8128 27.0471 22.7937 27.1417C24.0911 26.2905 25.5735 25.8179 27.2414 25.8179C31.1332 25.8179 34.3757 28.5607 35.21 32.2487V32.6267C35.1172 32.9106 34.5612 33.1945 34.2835 32.7213C34.1908 32.6267 33.8203 32.2487 33.9125 32.816C33.9125 33.3838 34.4685 33.4779 33.9125 33.7618C33.3566 34.1403 33.2643 34.0457 33.0788 34.1403C32.8006 34.2344 32.6156 34.8022 32.7084 35.1802C32.8006 35.4641 33.5421 36.4099 32.9861 36.3153C32.8933 36.3153 31.8742 35.6534 31.6892 35.1802C31.5037 34.7076 31.3182 34.2349 31.2254 33.951C31.1332 33.5725 30.7622 33.4779 30.4845 33.7618C30.2062 33.951 30.5772 34.1403 30.3917 34.6129C30.2062 35.0856 30.0213 35.4641 29.743 35.0856C28.9093 34.1403 27.7974 34.6129 27.6119 33.5725C27.5191 33.0052 27.0559 33.0999 26.5927 32.7213C26.2222 32.438 25.944 32.2487 25.8518 32.438C25.759 32.6267 27.1487 33.6671 27.2414 33.951C27.3342 34.329 26.871 34.7076 26.4072 34.8022C25.944 34.8968 25.8518 34.6129 25.4808 34.1403C25.1103 33.6671 24.9248 33.4779 24.9248 33.7618C24.9248 34.2344 25.2958 34.8968 25.6663 35.1802C26.0367 35.3695 26.4077 35.4641 26.2222 35.8426C26.1295 36.2206 26.2222 36.0314 25.8518 36.4099C25.4808 36.7879 25.388 36.8825 25.388 37.4503C25.388 38.0176 25.2958 38.0176 25.203 38.3956C24.6471 38.6795 24.5543 38.301 24.3688 38.9634ZM33.1716 35.5587C33.4493 35.5587 33.8203 35.9367 33.7276 36.0314C33.5421 36.2206 33.1716 36.126 32.9861 35.9367C32.7084 35.8426 32.9861 35.5587 33.1716 35.5587ZM32.8006 35.3695C32.7084 35.3695 32.6156 35.2748 32.6156 34.9915C32.5229 34.8022 32.7084 34.7076 32.8933 34.8022C33.0788 34.8968 33.2643 35.1802 33.2643 35.2748C33.1716 35.3695 32.8933 35.3695 32.8006 35.3695ZM29.1871 35.2748C29.0021 35.4641 28.6311 35.3695 28.4461 35.1802C28.2606 34.9915 28.5383 34.7076 28.7238 34.7076C28.9093 34.8022 29.3726 35.1802 29.1871 35.2748ZM25.8518 36.9772C25.759 37.1664 25.4808 38.5849 25.203 38.3956C25.0175 38.2069 25.2958 36.7879 25.2958 36.6933C25.6663 36.0314 26.4077 36.126 25.8518 36.9772ZM26.9632 42.4622C26.1295 42.4622 25.388 42.3676 24.6471 42.0842C24.5543 41.9895 24.4616 41.8949 24.5543 41.7057C24.832 41.0437 25.5735 40.7598 26.1295 40.6657C27.4269 40.5711 29.1871 41.5164 29.4653 41.4223C29.743 41.233 30.299 40.4765 31.1332 40.5711C31.6892 40.5711 31.6892 40.6657 31.8742 40.7598C30.5772 41.8003 28.8166 42.4622 26.9632 42.4622ZM32.7084 40.0033C32.6156 40.0033 32.5229 40.0033 32.4301 39.9087C31.9669 39.7199 32.0596 40.0979 31.7814 40.0033C31.5964 39.9087 32.0596 39.436 31.4109 39.8146C30.7622 40.2872 30.9477 39.7199 30.6695 38.9634C30.3917 38.2069 31.0405 37.3557 31.5037 37.1664C32.2446 36.8825 32.6156 36.8825 32.9861 36.7879C34.0053 36.5045 34.1908 35.9367 34.3757 36.3153C34.3757 36.4099 34.4685 36.4099 34.4685 36.5045C34.5612 36.5992 34.5612 36.8825 34.5612 37.0718C34.1908 38.2069 33.5421 39.1521 32.7084 40.0033ZM34.9317 35.748C34.7467 35.6534 33.8203 34.4237 34.4685 33.5725C34.5612 33.4779 34.1908 33.0052 34.3757 33.0052C34.7467 33.0052 35.0245 33.1945 35.1172 33.5725V34.0457C35.1172 34.6129 35.1172 35.1802 34.9317 35.748Z" fill="white"/>
<path fill-rule="evenodd" clip-rule="evenodd" d="M6.76409 4.53931V15.4152H4.91121V7.09281L3.61377 8.41715V6.52555L5.28168 4.53931H6.76409Z" fill="white"/>
<path fill-rule="evenodd" clip-rule="evenodd" d="M12.6941 6.80878V7.75458C12.6941 8.70039 12.2309 9.26765 11.49 9.55155C12.4164 9.74082 12.7869 10.4027 12.7869 11.4432V13.0509C12.7869 14.5639 11.9532 15.5097 10.1925 15.5097C8.33964 15.5097 7.69092 14.4693 7.69092 12.767V11.3485H9.35883V12.9562C9.35883 13.6181 9.5438 13.9967 10.1925 13.9967C10.7485 13.9967 11.0262 13.6181 11.0262 13.0509V11.2539C11.0262 10.6866 10.7485 10.4027 10.0998 10.4027H9.35883V8.98429H10.007C10.563 8.98429 10.934 8.70039 10.934 8.13312V6.99805C10.934 6.43078 10.7485 6.05225 10.1925 6.05225C9.63656 6.05225 9.45106 6.43078 9.45106 7.09268V8.22775H7.78368V7.28195C7.78368 5.67425 8.43186 4.53918 10.2853 4.53918C11.9532 4.25581 12.6941 5.20108 12.6941 6.80878Z" fill="white"/>
<path fill-rule="evenodd" clip-rule="evenodd" d="M16.3081 7.84925V5.67428C16.3081 4.91775 16.6786 4.44458 17.4195 4.44458C18.2537 4.44458 18.5315 4.91775 18.5315 5.57965V6.14692H17.7905V5.57965C17.7905 5.29575 17.6978 5.10701 17.4195 5.10701C17.1418 5.10701 17.0491 5.29575 17.0491 5.57965V8.03852C17.0491 8.32242 17.1418 8.51115 17.4195 8.51115C17.6978 8.51115 17.7905 8.32242 17.7905 8.03852V7.18735H18.5315V7.94389C18.5315 8.60579 18.2537 9.07896 17.4195 9.07896C16.6786 9.07896 16.3081 8.51115 16.3081 7.84925Z" fill="white"/>
<path fill-rule="evenodd" clip-rule="evenodd" d="M18.9946 4.44458H19.7356V8.32242H20.6625V8.98432H18.9946V4.44458Z" fill="white"/>
<path d="M21.5896 4.44458H20.9409V8.98432H21.5896V4.44458Z" fill="white"/>
<path fill-rule="evenodd" clip-rule="evenodd" d="M24.1834 5.95818L23.6274 8.98432H23.2569L22.701 5.95818V8.98432H22.0522V4.44458H22.9792L23.4424 6.99808L23.9057 4.44458H24.8321V8.98432H24.1834V5.95818Z" fill="white"/>
<path fill-rule="evenodd" clip-rule="evenodd" d="M25.2031 8.98432L26.0368 4.44458H26.871L27.7047 8.98432H26.9632L26.871 8.13315H26.0368L25.9441 8.98432H25.2031ZM26.1296 7.47125H26.6855L26.4073 5.67428L26.1296 7.47125Z" fill="white"/>
<path fill-rule="evenodd" clip-rule="evenodd" d="M27.6118 4.44458H29.6502V5.01238H29.0015V8.98432H28.26V5.01238H27.6118V4.44458Z" fill="white"/>
<path fill-rule="evenodd" clip-rule="evenodd" d="M30.0215 4.44458H31.7816V5.01238H30.7624V6.33618H31.5039V6.90345H30.7624V8.32242H31.7816V8.98432H30.0215V4.44458Z" fill="white"/>
<path fill-rule="evenodd" clip-rule="evenodd" d="M16.2153 15.4151L17.049 10.7808H17.8832L18.7169 15.4151H17.9755L17.8832 14.564H17.049L16.9563 15.4151H16.2153ZM17.1418 13.9021H17.6977L17.4195 12.0105L17.1418 13.9021Z" fill="white"/>
<path fill-rule="evenodd" clip-rule="evenodd" d="M18.9946 14.1854V12.0105C18.9946 11.2539 19.3651 10.7808 20.1066 10.7808C20.9403 10.7808 21.2185 11.2539 21.2185 11.9158V12.3885H20.477V11.8212C20.477 11.5378 20.3843 11.3486 20.1066 11.3486C19.8283 11.3486 19.7356 11.5378 19.7356 11.8212V14.2801C19.7356 14.564 19.8283 14.7532 20.1066 14.7532C20.3843 14.7532 20.477 14.564 20.477 14.2801V13.4289H21.2185V14.2801C21.2185 14.942 20.9403 15.4151 20.1066 15.4151C19.2724 15.4151 18.9946 14.8473 18.9946 14.1854Z" fill="white"/>
<path fill-rule="evenodd" clip-rule="evenodd" d="M21.4043 10.7808H23.4427V11.4432H22.7939V15.4151H22.053V11.4432H21.4043V10.7808Z" fill="white"/>
<path d="M24.4616 10.7808H23.7207V15.4151H24.4616V10.7808Z" fill="white"/>
<path fill-rule="evenodd" clip-rule="evenodd" d="M25.0176 14.1854V12.0105C25.0176 11.2539 25.3881 10.7808 26.1295 10.7808C26.871 10.7808 27.2414 11.3486 27.2414 12.0105V14.1854C27.2414 14.942 26.871 15.4151 26.1295 15.4151C25.3881 15.4151 25.0176 14.8473 25.0176 14.1854ZM26.5 14.2801V11.8212C26.5 11.5378 26.4072 11.3486 26.1295 11.3486C25.8518 11.3486 25.759 11.5378 25.759 11.8212V14.2801C25.759 14.564 25.8518 14.7532 26.1295 14.7532C26.4072 14.7532 26.5 14.564 26.5 14.2801Z" fill="white"/>
<path fill-rule="evenodd" clip-rule="evenodd" d="M28.26 12.4831V15.4151H27.6118V10.7808H28.3528L29.187 13.4289V10.7808H29.8352V15.4151H29.187L28.26 12.4831Z" fill="white"/>
<path d="M39.2202 4.27734H16.4302V18.713H39.2202V4.27734Z" fill="#566D79"/>
<path d="M17.5933 4.92042H16.2248V5.56789H16.5645C16.7384 5.56789 16.8942 5.59088 17.0325 5.63686C17.1719 5.68123 17.2891 5.74486 17.3845 5.82666C17.4809 5.909 17.5546 6.00844 17.606 6.12553C17.6569 6.24262 17.6823 6.37201 17.6823 6.51422C17.6823 6.65858 17.6569 6.79118 17.606 6.91094C17.5546 7.0291 17.4809 7.13068 17.3845 7.21569C17.2891 7.3007 17.1719 7.367 17.0325 7.41404C16.8942 7.46163 16.7384 7.48516 16.5645 7.48516H15.6413V4.44404H17.5933V4.92042ZM16.2248 6.03999V7.01305H16.5645C16.6557 7.01305 16.7341 6.99969 16.8004 6.97349C16.8682 6.94676 16.9239 6.91094 16.9684 6.86496C17.014 6.81898 17.0468 6.76551 17.0675 6.70403C17.0898 6.64254 17.1009 6.57785 17.1009 6.50995C17.1009 6.44419 17.0898 6.38324 17.0675 6.32603C17.0468 6.26882 17.014 6.21963 16.9684 6.17793C16.9239 6.13462 16.8682 6.10094 16.8004 6.07741C16.7341 6.05228 16.6557 6.03999 16.5645 6.03999H16.2248ZM20.291 6.18808C20.291 6.38324 20.2655 6.56288 20.2147 6.72702C20.1633 6.89116 20.0896 7.03284 19.9931 7.151C19.8961 7.26916 19.7785 7.36218 19.6391 7.42901C19.5008 7.49424 19.3449 7.52686 19.1711 7.52686C18.9972 7.52686 18.8425 7.49424 18.7073 7.42901C18.5722 7.36218 18.4582 7.26916 18.3655 7.151C18.2733 7.03123 18.2028 6.89009 18.1545 6.72702C18.1063 6.56288 18.0819 6.38324 18.0819 6.18808V5.74539C18.0819 5.55078 18.1063 5.37113 18.1545 5.20646C18.2028 5.04232 18.2733 4.90117 18.3655 4.78248C18.4582 4.66272 18.5711 4.56969 18.7052 4.50286C18.8404 4.43602 18.9951 4.40234 19.169 4.40234C19.3444 4.40234 19.5008 4.43602 19.6391 4.50286C19.7785 4.56969 19.8961 4.66272 19.9931 4.78248C20.0896 4.90117 20.1633 5.04232 20.2147 5.20646C20.2655 5.37113 20.291 5.55078 20.291 5.74539V6.18808ZM19.7011 5.74111C19.7011 5.61761 19.6905 5.50319 19.6698 5.39894C19.6507 5.29415 19.6195 5.20432 19.5771 5.12947C19.5341 5.05409 19.479 4.99581 19.4112 4.9541C19.3449 4.9108 19.2644 4.88941 19.169 4.88941C19.0752 4.88941 18.9962 4.9108 18.9331 4.9541C18.8695 4.99581 18.8186 5.05409 18.7799 5.12947C18.7413 5.20432 18.7137 5.29415 18.6967 5.39894C18.6803 5.50319 18.6718 5.61761 18.6718 5.74111V6.18808C18.6718 6.31052 18.6803 6.4244 18.6967 6.52866C18.7137 6.63292 18.7413 6.72381 18.7799 6.80026C18.8186 6.87672 18.8695 6.9366 18.9331 6.97991C18.9962 7.02268 19.0757 7.0446 19.1711 7.0446C19.2649 7.0446 19.3449 7.02268 19.4112 6.97991C19.479 6.9366 19.5331 6.87725 19.5749 6.8024C19.6174 6.72541 19.6491 6.63506 19.6698 6.5308C19.6905 6.42654 19.7011 6.31213 19.7011 6.18808V5.74111ZM21.3531 6.36987V7.48516H20.7712V4.44404H21.8025C21.9668 4.44404 22.1152 4.46864 22.2477 4.51729C22.3802 4.56488 22.4926 4.63171 22.5848 4.71779C22.6786 4.8028 22.7507 4.90492 22.8005 5.02468C22.8514 5.14444 22.8768 5.27757 22.8768 5.42406C22.8768 5.5604 22.8514 5.68605 22.8005 5.80206C22.7507 5.91755 22.6786 6.01753 22.5848 6.10254C22.4926 6.18595 22.3802 6.25171 22.2477 6.29876C22.1152 6.34634 21.9668 6.36987 21.8025 6.36987H21.3531ZM21.3531 5.89349H21.8025C21.8852 5.89349 21.9568 5.88119 22.0177 5.85607C22.0787 5.83094 22.129 5.79672 22.1688 5.75395C22.2101 5.71064 22.2408 5.66145 22.2599 5.60531C22.2806 5.54864 22.2912 5.48929 22.2912 5.42781C22.2912 5.35723 22.2806 5.29094 22.2599 5.22945C22.2408 5.1685 22.2101 5.1145 22.1688 5.06852C22.129 5.02307 22.0787 4.98672 22.0177 4.95999C21.9568 4.93379 21.8852 4.92042 21.8025 4.92042H21.3531V5.89349ZM23.8642 5.56789H24.204C24.3778 5.56789 24.5336 5.59088 24.672 5.63686C24.8113 5.68123 24.9285 5.74486 25.0239 5.82666C25.1203 5.909 25.194 6.00844 25.2454 6.12553C25.2963 6.24262 25.3217 6.37201 25.3217 6.51422C25.3217 6.65858 25.2963 6.79118 25.2454 6.91094C25.194 7.0291 25.1203 7.13068 25.0239 7.21569C24.9285 7.3007 24.8113 7.367 24.672 7.41404C24.5336 7.46163 24.3778 7.48516 24.204 7.48516H23.2807V4.44404H23.8642V5.56789ZM23.8642 6.03999V7.01305H24.204C24.2951 7.01305 24.3736 6.99969 24.4398 6.97349C24.5077 6.94676 24.5633 6.91094 24.6078 6.86496C24.6534 6.81898 24.6863 6.76551 24.7069 6.70403C24.7292 6.64254 24.7403 6.57785 24.7403 6.50995C24.7403 6.44419 24.7292 6.38324 24.7069 6.32603C24.6863 6.26882 24.6534 6.21963 24.6078 6.17793C24.5633 6.13462 24.5077 6.10094 24.4398 6.07741C24.3736 6.05228 24.2951 6.03999 24.204 6.03999H23.8642ZM27.7793 4.92042H26.4109V5.56789H26.7506C26.9245 5.56789 27.0803 5.59088 27.2181 5.63686C27.3575 5.68123 27.4751 5.74486 27.5705 5.82666C27.667 5.909 27.7407 6.00844 27.7921 6.12553C27.8429 6.24262 27.8684 6.37201 27.8684 6.51422C27.8684 6.65858 27.8429 6.79118 27.7921 6.91094C27.7407 7.0291 27.667 7.13068 27.5705 7.21569C27.4751 7.3007 27.3575 7.367 27.2181 7.41404C27.0803 7.46163 26.9245 7.48516 26.7506 7.48516H25.8268V4.44404H27.7793V4.92042ZM26.4109 6.03999V7.01305H26.7506C26.8418 7.01305 26.9202 6.99969 26.9865 6.97349C27.0543 6.94676 27.11 6.91094 27.154 6.86496C27.1995 6.81898 27.2329 6.76551 27.2536 6.70403C27.2758 6.64254 27.2865 6.57785 27.2865 6.50995C27.2865 6.44419 27.2758 6.38324 27.2536 6.32603C27.2329 6.26882 27.1995 6.21963 27.154 6.17793C27.11 6.13462 27.0543 6.10094 26.9865 6.07741C26.9202 6.05228 26.8418 6.03999 26.7506 6.03999H26.4109ZM29.8559 6.84998H28.9512L28.7731 7.48516H28.1604L29.1478 4.44404H29.6757L30.6445 7.48516H30.0318L29.8559 6.84998ZM29.0943 6.35115H29.7191L29.4107 5.23159L29.0943 6.35115ZM17.7343 11.3448C17.7247 11.4977 17.6913 11.6357 17.6346 11.7581C17.5795 11.8805 17.5053 11.9853 17.4115 12.0714C17.3172 12.158 17.2058 12.2249 17.076 12.2719C16.9461 12.3179 16.8025 12.3409 16.6451 12.3409C16.467 12.3409 16.3091 12.3083 16.1713 12.2425C16.033 12.1757 15.9174 12.0832 15.8231 11.965C15.7293 11.8453 15.6577 11.702 15.6079 11.5346C15.5581 11.3678 15.5337 11.1839 15.5337 10.9834V10.5738C15.5337 10.3723 15.5597 10.1878 15.6121 10.0205C15.6646 9.85367 15.7393 9.70985 15.8358 9.59062C15.9323 9.47086 16.0489 9.37783 16.1856 9.3126C16.3234 9.24577 16.4782 9.21209 16.6493 9.21209C16.8152 9.21209 16.962 9.23615 17.0903 9.28319C17.2202 9.33078 17.3304 9.39815 17.4216 9.48583C17.5127 9.57351 17.5843 9.68098 17.6367 9.80769C17.6892 9.9344 17.7226 10.0772 17.7364 10.2359H17.1566C17.1513 10.1451 17.1375 10.0659 17.1152 9.99749C17.0945 9.92959 17.0633 9.87292 17.0219 9.82854C16.9822 9.78256 16.9308 9.74834 16.8688 9.72589C16.8083 9.70236 16.7352 9.6906 16.6493 9.6906C16.5598 9.6906 16.4819 9.70985 16.4156 9.74888C16.3494 9.78791 16.2937 9.84512 16.2497 9.9205C16.2068 9.99535 16.1755 10.0878 16.1543 10.198C16.1337 10.3065 16.1236 10.4306 16.1236 10.5701V10.9834C16.1236 11.2828 16.1649 11.5041 16.2476 11.6474C16.3319 11.7907 16.4644 11.8629 16.6451 11.8629C16.7972 11.8629 16.917 11.8223 17.0055 11.7415C17.094 11.6592 17.1428 11.5271 17.1523 11.3448H17.7343ZM22.1295 9.25593H22.7131V12.297H22.1295V10.3568L21.2747 12.297H20.6927V9.25593H21.2747V11.1983L22.1295 9.25593ZM25.3901 10.0809C25.3901 10.1509 25.379 10.2178 25.3572 10.2814C25.3366 10.3456 25.3058 10.4065 25.2661 10.4632C25.2258 10.5188 25.177 10.5701 25.1193 10.6156C25.061 10.6615 24.9953 10.7016 24.9221 10.7348C25.0896 10.7936 25.2163 10.8823 25.3032 11.0021C25.3917 11.1203 25.4357 11.2684 25.4357 11.4448C25.4357 11.587 25.4071 11.7137 25.3488 11.8249C25.2921 11.9367 25.2131 12.0302 25.1108 12.1072C25.0101 12.1821 24.8887 12.2398 24.7462 12.2805C24.6057 12.3195 24.4515 12.3387 24.2845 12.3387C24.1494 12.3387 24.0153 12.3222 23.8828 12.2885C23.7503 12.2537 23.631 12.2008 23.525 12.1302C23.4201 12.0575 23.3342 11.9655 23.268 11.8543C23.2033 11.7431 23.171 11.6095 23.171 11.4534H23.7545C23.7545 11.5116 23.7672 11.5662 23.7922 11.6164C23.8181 11.6661 23.8547 11.71 23.9019 11.7479C23.9485 11.7854 24.0047 11.8153 24.0693 11.8378C24.134 11.8586 24.2061 11.8688 24.2845 11.8688C24.3757 11.8688 24.4568 11.8586 24.5267 11.8378C24.5972 11.8153 24.6566 11.7848 24.7048 11.7458C24.7531 11.7068 24.7896 11.6613 24.8145 11.61C24.8394 11.5571 24.8522 11.4999 24.8522 11.4389C24.8522 11.2758 24.8066 11.1582 24.7154 11.0855C24.6258 11.0133 24.4933 10.977 24.3179 10.977H23.9119V10.5177H24.3179C24.4048 10.5177 24.4785 10.5081 24.5395 10.4883C24.6015 10.4675 24.6518 10.438 24.6905 10.4006C24.7303 10.3632 24.7594 10.3183 24.7774 10.267C24.7965 10.214 24.8066 10.1558 24.8066 10.0916C24.8066 10.0371 24.796 9.98573 24.7753 9.93708C24.7546 9.88682 24.7228 9.84351 24.6799 9.80769C24.6375 9.77133 24.5829 9.743 24.5167 9.72214C24.4515 9.69969 24.3746 9.68846 24.2845 9.68846C24.2156 9.68846 24.1515 9.69755 24.0921 9.71573C24.0328 9.73391 23.9808 9.75957 23.9368 9.79272C23.8939 9.8264 23.8595 9.8665 23.8335 9.91409C23.8086 9.96167 23.7959 10.0141 23.7959 10.0729H23.2145C23.2145 9.93921 23.2425 9.81945 23.2993 9.71359C23.357 9.60773 23.4349 9.51791 23.533 9.44413C23.631 9.37034 23.7445 9.3142 23.8727 9.27517C24.0026 9.23454 24.1398 9.21423 24.2845 9.21423C24.4515 9.21423 24.6036 9.23347 24.7403 9.2709C24.8771 9.30725 24.9926 9.36179 25.088 9.43557C25.1845 9.50828 25.2592 9.59864 25.3117 9.70717C25.3641 9.81464 25.3901 9.93921 25.3901 10.0809ZM26.5413 9.25593L26.8269 10.3985L27.1518 9.25593H27.8747V12.297H27.3405V11.3967L27.3654 9.9745L26.97 11.2946H26.6822L26.3282 10.0312L26.3531 11.3967V12.297H25.8189V9.25593H26.5413ZM30.2285 10.9647H28.9904V11.8228H30.4378V12.297H28.4069V9.25593H30.4315V9.73444H28.9904V10.5011H30.2285V10.9647ZM32.9097 12.297H32.3342V10.9791H31.4809V12.297H30.9037V9.25593H31.4809V10.5033H32.3342V9.25593H32.9097V12.297ZM35.3218 10.9647H34.0837V11.8228H35.5306V12.297H33.4996V9.25593H35.5242V9.73444H34.0837V10.5011H35.3218V10.9647ZM38.0025 12.297H37.4269V10.9791H36.5742V12.297H35.9965V9.25593H36.5742V10.5033H37.4269V9.25593H38.0025V12.297ZM39.955 9.25593H40.5386V12.297H39.955V10.3568L39.0996 12.297H38.5182V9.25593H39.0996V11.1983L39.955 9.25593ZM42.9612 10.9647H41.7231V11.8228H43.17V12.297H41.1391V9.25593H43.1637V9.73444H41.7231V10.5011H42.9612V10.9647ZM44.3668 9.25593L44.6524 10.3985L44.9773 9.25593H45.7002V12.297H45.166V11.3967L45.1909 9.9745L44.7955 11.2946H44.5077L44.1537 10.0312L44.1781 11.3967V12.297H43.6444V9.25593H44.3668ZM16.5068 15.86H16.2646V17.1089H15.6826V14.0678H16.2646V15.4066H16.4071L17.1958 14.0678H17.8689L16.9705 15.5322L17.9039 17.1089H17.2292L16.5068 15.86ZM20.1998 14.0678V17.1089H19.6163V14.5442H18.993L18.9824 15.6595C18.9787 15.9252 18.958 16.1503 18.9204 16.3342C18.8849 16.5181 18.8324 16.6673 18.763 16.7833C18.6941 16.8972 18.6077 16.9801 18.5043 17.0314C18.401 17.0833 18.2802 17.1089 18.1418 17.1089H17.9971V16.6368H18.0798C18.1477 16.6299 18.2012 16.6095 18.2415 16.5764C18.2828 16.5416 18.3146 16.4871 18.3369 16.4133C18.3602 16.3385 18.3761 16.2401 18.3846 16.1187C18.3925 15.9963 18.3983 15.8434 18.401 15.6595L18.4132 14.0678H20.1998ZM22.1295 14.0678H22.7131V17.1089H22.1295V15.1687L21.2747 17.1089H20.6927V14.0678H21.2747V16.0102L22.1295 14.0678ZM23.9946 14.0678L24.2803 15.2104L24.6057 14.0678H25.3281V17.1089H24.7939V16.2086L24.8188 14.7864L24.4234 16.1064H24.1356L23.7816 14.8431L23.8065 16.2086V17.1089H23.2722V14.0678H23.9946ZM27.3092 16.4737H26.4045L26.2265 17.1089H25.6138L26.6012 14.0678H27.1296L28.0984 17.1089H27.4852L27.3092 16.4737ZM26.5476 15.9749H27.173L26.8646 14.8554L26.5476 15.9749ZM30.5889 14.5463H29.6593V17.1089H29.0752V14.5463H28.1583V14.0678H30.5889V14.5463ZM32.4025 16.4737H31.4978L31.3197 17.1089H30.7071L31.6945 14.0678H32.2223L33.1912 17.1089H32.5785L32.4025 16.4737ZM31.6404 15.9749H32.2658L31.9573 14.8554L31.6404 15.9749Z" fill="white"/>
</g>
</g>
<defs>
<clipPath id="clip0_590_187">
<rect width="53" height="54" fill="white"/>
</clipPath>
</defs>
</svg>
