<svg width="53" height="54" viewBox="0 0 53 54" fill="none" xmlns="http://www.w3.org/2000/svg">
<g clip-path="url(#clip0_590_212)">
<path d="M53 0H0V54H53V0Z" fill="#566D79"/>
<path fill-rule="evenodd" clip-rule="evenodd" d="M22.2768 36.5046C22.3694 36.5046 22.3694 36.5993 22.3694 36.5993V40.5712C22.3694 40.6658 22.2768 40.6658 22.2768 40.6658H20.6991C20.606 40.6658 20.606 40.5712 20.606 40.5712V36.5993C20.606 36.5046 20.6991 36.5046 20.6991 36.5046H22.2768Z" fill="white"/>
<path fill-rule="evenodd" clip-rule="evenodd" d="M39.5412 42.2729H13.7377C13.6445 42.2729 13.6445 42.3676 13.6445 42.3676V44.0699C13.6445 44.1646 13.7377 44.1646 13.7377 44.1646H39.5412C39.6343 44.1646 39.6343 44.0699 39.6343 44.0699V42.3676C39.7269 42.3676 39.6343 42.2729 39.5412 42.2729Z" fill="white"/>
<path fill-rule="evenodd" clip-rule="evenodd" d="M39.5412 45.583H13.7377C13.6445 45.583 13.6445 45.6776 13.6445 45.6776V47.2853C13.6445 47.38 13.7377 47.38 13.7377 47.38H39.5412C39.6343 47.38 39.6343 47.2853 39.6343 47.2853V45.6776C39.7269 45.6776 39.6343 45.583 39.5412 45.583Z" fill="white"/>
<path fill-rule="evenodd" clip-rule="evenodd" d="M34.6214 32.1541C34.343 31.8702 33.4147 31.303 32.3938 31.303C31.6513 31.303 30.9087 31.5869 30.3519 32.2488C30.3519 32.2488 30.2588 32.3434 30.2588 32.438V32.6268C30.2588 32.6899 30.2898 32.753 30.3519 32.816C30.4445 32.816 30.4445 32.9107 30.5377 32.816H30.6303C30.6303 32.816 30.7229 32.816 30.7229 32.7214C30.8161 32.6268 31.1871 32.5327 31.7444 32.5327C32.3012 32.5327 33.4147 32.7214 34.4361 33.6672C34.5288 33.7618 34.6214 33.7618 34.6214 33.7618C34.7145 33.7618 34.8072 33.7618 34.8072 33.6672C35.8281 32.6268 36.9421 32.5327 37.4989 32.5327C38.0557 32.5327 38.4272 32.6268 38.5198 32.7214C38.5198 32.7214 38.613 32.816 38.7056 32.816H38.8914C38.984 32.816 39.0771 32.7214 39.0771 32.6268V32.5327C39.0771 32.4696 39.0461 32.4065 38.984 32.3434C38.3346 31.7761 37.5921 31.3976 36.849 31.3976C35.8281 31.303 34.9003 31.8702 34.6214 32.1541Z" fill="white"/>
<path fill-rule="evenodd" clip-rule="evenodd" d="M33.0438 21.6566C32.9512 21.6566 32.9512 21.7512 32.9512 21.7512V22.0351C32.9512 22.1292 33.0438 22.1292 33.1369 22.1292H33.4153C33.508 22.1292 34.5289 22.1292 35.2714 23.3589C35.2714 23.4535 35.3645 23.4535 35.4572 23.4535H35.6429C36.0139 23.2643 36.3855 23.1696 36.7565 23.1696C37.4064 23.1696 37.8705 23.4535 37.9632 23.5482C37.9632 23.5482 37.9632 23.6428 38.0563 23.6428H38.2415C38.3347 23.6428 38.3347 23.5482 38.3347 23.5482V23.2643C37.8705 22.4131 37.128 22.2238 36.5712 22.2238C36.1997 22.2238 35.8287 22.3185 35.6429 22.4131C35.3645 22.1292 34.8073 21.4673 33.8795 21.4673C33.6937 21.4673 33.4153 21.4673 33.0438 21.6566Z" fill="white"/>
<path fill-rule="evenodd" clip-rule="evenodd" d="M27.5673 25.7232V25.8178C27.5673 25.8809 27.5981 25.944 27.6599 26.0071C27.7525 26.0071 27.7525 26.1017 27.8456 26.0071C27.9383 26.0071 27.9383 25.9124 27.9383 25.9124C28.0314 25.8178 28.4024 25.7232 28.9592 25.7232C29.4233 25.7232 30.259 25.8178 31.0016 26.4797C31.0633 26.5428 31.1252 26.5743 31.1873 26.5743C31.28 26.5743 31.3726 26.4797 31.3726 26.4797C32.2083 25.6285 33.1365 25.4393 33.6933 25.4393C34.0643 25.4393 34.2501 25.5339 34.3427 25.5339L34.4358 25.6285H34.6216C34.7142 25.6285 34.8069 25.5339 34.8069 25.4393V25.3452C34.8069 25.2821 34.776 25.2505 34.7142 25.2505C34.1575 24.872 33.6002 24.5886 33.0434 24.5886C32.1151 24.5886 31.3726 25.0613 31.0942 25.3452C30.8158 25.1559 30.1659 24.7774 29.3307 24.7774C28.5882 24.7774 28.0314 25.0613 27.4741 25.6285C27.5673 25.5339 27.5673 25.6285 27.5673 25.7232Z" fill="white"/>
<path fill-rule="evenodd" clip-rule="evenodd" d="M14.4795 27.8036C14.4795 26.1959 15.7788 24.9667 17.2639 24.9667H17.4496C17.6354 22.9805 19.2131 21.3728 21.2555 21.3728C23.2973 21.3728 25.0608 23.0751 25.0608 25.2506C25.0608 25.8179 24.875 26.3852 24.6898 26.953C26.5458 27.4256 28.0309 29.1279 28.0309 31.2083C28.0309 33.5725 26.1748 35.5588 23.7615 35.5588H18.0996C16.4287 35.5588 15.1294 34.235 15.1294 32.5326C15.1294 31.6815 15.4078 31.019 15.9646 30.4517C15.1294 29.7899 14.4795 28.9387 14.4795 27.8036Z" fill="white"/>
<path fill-rule="evenodd" clip-rule="evenodd" d="M3.80518 6.43082V8.32242L5.10504 6.99808V15.4151H6.86849V4.44458H5.47603L3.80518 6.43082Z" fill="white"/>
<path fill-rule="evenodd" clip-rule="evenodd" d="M11.1379 7.84936C10.3953 7.84936 9.93118 8.13326 9.65279 8.60589V5.86366H12.7161V4.35059H7.98193V10.5921H9.65279V10.3082C9.65279 9.64633 9.93118 9.26779 10.3953 9.26779C10.9521 9.26779 11.1379 9.64633 11.1379 10.2136V12.8617C11.1379 13.429 10.9521 13.8075 10.3953 13.8075C9.74539 13.8075 9.56015 13.429 9.56015 12.7671V11.3487H7.98193V12.5778C7.98193 14.2802 8.63188 15.3206 10.4879 15.3206C12.2519 15.3206 12.9945 14.3748 12.9945 12.7671V10.119C12.9945 8.60589 12.0662 7.84936 11.1379 7.84936Z" fill="white"/>
<path fill-rule="evenodd" clip-rule="evenodd" d="M16.8931 4.44458H17.6356V8.32242H18.5639V8.98432H16.8931V4.44458Z" fill="white"/>
<path d="M19.5848 4.44458H18.8423V8.98432H19.5848V4.44458Z" fill="white"/>
<path fill-rule="evenodd" clip-rule="evenodd" d="M19.9561 4.44458H21.72V5.01238H20.6986V6.33618H21.5343V6.90345H20.6986V8.98432H19.9561V4.44458Z" fill="white"/>
<path fill-rule="evenodd" clip-rule="evenodd" d="M22.0913 4.44458H23.8548V5.01238H22.8338V6.33618H23.5764V6.90345H22.8338V8.32242H23.8548V8.98432H22.0913V4.44458Z" fill="white"/>
<path fill-rule="evenodd" clip-rule="evenodd" d="M16.8931 14.1854V12.0105C16.8931 11.2539 17.2641 10.7808 18.0066 10.7808C18.7491 10.7808 19.1207 11.3486 19.1207 12.0105V14.1854C19.1207 14.942 18.7491 15.4151 18.0066 15.4151C17.1715 15.4151 16.8931 14.8473 16.8931 14.1854ZM18.3781 14.2801V11.8212C18.3781 11.5378 18.285 11.3486 18.0066 11.3486C17.7282 11.3486 17.6356 11.5378 17.6356 11.8212V14.2801C17.6356 14.564 17.7282 14.7532 18.0066 14.7532C18.1924 14.7532 18.3781 14.564 18.3781 14.2801Z" fill="white"/>
<path fill-rule="evenodd" clip-rule="evenodd" d="M20.1421 12.4831V15.4151H19.4922V10.7808H20.2347L21.163 13.4289V10.7808H21.7198V15.4151H21.0704L20.1421 12.4831Z" fill="white"/>
<path fill-rule="evenodd" clip-rule="evenodd" d="M23.5757 10.7808H24.3182V14.7532H25.2465V15.4151H23.5757V10.7808Z" fill="white"/>
<path fill-rule="evenodd" clip-rule="evenodd" d="M25.4326 15.4151L26.2678 10.7808H27.1035L27.9386 15.4151H27.1961L27.0103 14.564H26.1752L26.0825 15.4151H25.4326ZM26.3609 13.9021H27.0103L26.7319 12.0105L26.3609 13.9021Z" fill="white"/>
<path fill-rule="evenodd" clip-rule="evenodd" d="M28.96 12.4831V15.4151H28.3101V10.7808H29.0526L29.7952 13.4289V10.7808H30.4451V15.4151H29.7952L28.96 12.4831Z" fill="white"/>
<path fill-rule="evenodd" clip-rule="evenodd" d="M33.1363 12.0105V14.1854C33.1363 14.942 32.8579 15.4151 32.0228 15.4151H30.9087V10.7808H32.0228C32.8579 10.7808 33.1363 11.2539 33.1363 12.0105ZM31.9296 14.7532C32.2086 14.7532 32.3938 14.564 32.3938 14.2801V11.8212C32.3938 11.5378 32.3012 11.3486 31.9296 11.3486H31.6512V14.7532H31.9296Z" fill="white"/>
<path d="M41.7576 3.74268H14.4546V15.5051H41.7576V3.74268Z" fill="#566D79"/>
<path d="M17.9137 6.53288C17.9041 6.68579 17.8703 6.82373 17.8131 6.94616C17.7574 7.0686 17.6824 7.17339 17.5877 7.25947C17.4924 7.34608 17.3799 7.41292 17.2488 7.45997C17.1176 7.50595 16.9725 7.52894 16.8135 7.52894C16.6337 7.52894 16.4741 7.49633 16.3349 7.43056C16.1952 7.36373 16.0785 7.27123 15.9832 7.15307C15.8884 7.03331 15.8162 6.89003 15.7658 6.72268C15.7155 6.55587 15.6909 6.37195 15.6909 6.17145V5.76191C15.6909 5.56034 15.7171 5.37589 15.7701 5.20854C15.8232 5.04173 15.8986 4.89791 15.9961 4.77868C16.0935 4.65892 16.2113 4.56589 16.3494 4.50066C16.4886 4.43383 16.6449 4.40015 16.8178 4.40015C16.9854 4.40015 17.1337 4.4242 17.2632 4.47125C17.3944 4.51884 17.5057 4.58621 17.5978 4.67389C17.6899 4.76157 17.7622 4.86904 17.8152 4.99575C17.8682 5.12246 17.9019 5.26521 17.9158 5.424H17.3301C17.3248 5.33311 17.3109 5.25399 17.2884 5.18555C17.2675 5.11765 17.2359 5.06098 17.1942 5.0166C17.154 4.97062 17.1021 4.9364 17.0395 4.91395C16.9784 4.89042 16.9045 4.87866 16.8178 4.87866C16.7273 4.87866 16.6487 4.89791 16.5817 4.93694C16.5148 4.97597 16.4586 5.03318 16.4142 5.10856C16.3708 5.18341 16.3392 5.27591 16.3178 5.38604C16.2969 5.49458 16.2868 5.61862 16.2868 5.75816V6.17145C16.2868 6.47086 16.3285 6.6922 16.412 6.83549C16.4971 6.97878 16.631 7.05096 16.8135 7.05096C16.9672 7.05096 17.0882 7.01032 17.1776 6.92959C17.267 6.84725 17.3162 6.71519 17.3259 6.53288H17.9137ZM20.4962 6.18802C20.4962 6.38318 20.4705 6.56282 20.4191 6.72696C20.3672 6.8911 20.2928 7.03278 20.1954 7.15094C20.0974 7.2691 19.9785 7.36212 19.8377 7.42895C19.698 7.49418 19.5406 7.5268 19.365 7.5268C19.1894 7.5268 19.0331 7.49418 18.8966 7.42895C18.7601 7.36212 18.645 7.2691 18.5513 7.15094C18.4582 7.03118 18.3869 6.89003 18.3382 6.72696C18.2895 6.56282 18.2649 6.38318 18.2649 6.18802V5.74533C18.2649 5.55072 18.2895 5.37107 18.3382 5.2064C18.3869 5.04226 18.4582 4.90111 18.5513 4.78242C18.645 4.66266 18.759 4.56963 18.8945 4.5028C19.031 4.43596 19.1873 4.40228 19.3629 4.40228C19.5401 4.40228 19.698 4.43596 19.8377 4.5028C19.9785 4.56963 20.0974 4.66266 20.1954 4.78242C20.2928 4.90111 20.3672 5.04226 20.4191 5.2064C20.4705 5.37107 20.4962 5.55072 20.4962 5.74533V6.18802ZM19.9004 5.74106C19.9004 5.61755 19.8897 5.50313 19.8688 5.39888C19.8495 5.29409 19.8179 5.20426 19.7751 5.12941C19.7317 5.05403 19.6761 4.99575 19.6076 4.95405C19.5406 4.91074 19.4593 4.88935 19.3629 4.88935C19.2682 4.88935 19.1884 4.91074 19.1247 4.95405C19.0604 4.99575 19.009 5.05403 18.97 5.12941C18.9309 5.20426 18.903 5.29409 18.8859 5.39888C18.8693 5.50313 18.8607 5.61755 18.8607 5.74106V6.18802C18.8607 6.31046 18.8693 6.42434 18.8859 6.5286C18.903 6.63286 18.9309 6.72375 18.97 6.80021C19.009 6.87666 19.0604 6.93654 19.1247 6.97985C19.1884 7.02262 19.2687 7.04454 19.365 7.04454C19.4598 7.04454 19.5406 7.02262 19.6076 6.97985C19.6761 6.93654 19.7307 6.87719 19.773 6.80234C19.8158 6.72535 19.8479 6.635 19.8688 6.53074C19.8897 6.42648 19.9004 6.31207 19.9004 6.18802V5.74106ZM21.9749 5.53468L22.5167 4.44398H23.2067L22.3491 5.95225L23.2276 7.4851H22.5413L21.9829 6.37836L21.4267 7.4851H20.7329L21.6108 5.95225L20.7559 4.44398H21.4417L21.9749 5.53468ZM24.1415 6.36981V7.4851H23.5536V4.44398H24.5949C24.7609 4.44398 24.9108 4.46858 25.0446 4.51723C25.1784 4.56482 25.2919 4.63165 25.3856 4.71773C25.4804 4.80274 25.5526 4.90486 25.603 5.02462C25.6549 5.14438 25.6806 5.27751 25.6806 5.424C25.6806 5.56034 25.6549 5.68599 25.603 5.802C25.5526 5.91749 25.4804 6.01747 25.3856 6.10248C25.2919 6.18589 25.1784 6.25165 25.0446 6.2987C24.9108 6.34628 24.7609 6.36981 24.5949 6.36981H24.1415ZM24.1415 5.89343H24.5949C24.679 5.89343 24.7512 5.88113 24.8128 5.85601C24.8738 5.83088 24.9247 5.79666 24.9654 5.75389C25.0071 5.71058 25.0376 5.66139 25.0574 5.60525C25.0783 5.54858 25.0885 5.48923 25.0885 5.42775C25.0885 5.35717 25.0783 5.29088 25.0574 5.22939C25.0376 5.16844 25.0071 5.11444 24.9654 5.06846C24.9247 5.02301 24.8738 4.98666 24.8128 4.95993C24.7512 4.93373 24.679 4.92036 24.5949 4.92036H24.1415V5.89343ZM27.5854 6.84993H26.6715L26.4917 7.4851H25.8728L26.8701 4.44398H27.4039L28.3825 7.4851H27.7631L27.5854 6.84993ZM26.8161 6.35109H27.4478L27.1362 5.23153L26.8161 6.35109ZM30.6701 7.4851H30.0887V6.16718H29.2273V7.4851H28.6438V4.44398H29.2273V5.69133H30.0887V4.44398H30.6701V7.4851ZM33.1065 6.15274H31.8559V7.01086H33.3174V7.4851H31.2659V4.44398H33.3115V4.9225H31.8559V5.68919H33.1065V6.15274ZM35.8143 7.4851H35.2329V6.16718H34.3715V7.4851H33.788V4.44398H34.3715V5.69133H35.2329V4.44398H35.8143V7.4851ZM37.7865 4.44398H38.3765V7.4851H37.7865V5.54484L36.923 7.4851H36.3352V4.44398H36.923V6.38638L37.7865 4.44398ZM40.8231 6.15274H39.5725V7.01086H41.034V7.4851H38.9825V4.44398H41.0281V4.9225H39.5725V5.68919H40.8231V6.15274ZM16.1861 11.2859C16.1781 11.3779 16.185 11.4602 16.207 11.5324C16.2295 11.6051 16.2621 11.6661 16.3055 11.7163C16.3499 11.7666 16.4024 11.8046 16.4623 11.8313C16.5239 11.8575 16.5898 11.8709 16.6609 11.8709C16.7445 11.8709 16.8205 11.857 16.889 11.8292C16.957 11.8014 17.0154 11.757 17.0625 11.6955C17.1101 11.6329 17.146 11.5527 17.1711 11.4554C17.1979 11.3576 17.2108 11.2389 17.2108 11.0983V11.0165H16.4099V10.5428H17.2108V10.461C17.2108 10.3273 17.1985 10.2118 17.1733 10.1145C17.1497 10.0172 17.1149 9.93702 17.0689 9.87446C17.0239 9.8103 16.9693 9.76272 16.9035 9.73225C16.8392 9.70177 16.7675 9.68626 16.6883 9.68626C16.6031 9.68626 16.5271 9.69963 16.4602 9.72583C16.3949 9.75256 16.3403 9.79159 16.2969 9.84292C16.2541 9.89317 16.2225 9.9552 16.2032 10.029C16.1834 10.1028 16.177 10.1862 16.184 10.2797H15.5967C15.5967 10.1332 15.6218 9.99529 15.6716 9.86591C15.7236 9.73652 15.7969 9.62317 15.8917 9.52533C15.9864 9.42803 16.1004 9.35157 16.2343 9.29597C16.3697 9.23876 16.5207 9.21042 16.6883 9.21042C16.8515 9.21042 17.0004 9.23929 17.1358 9.2981C17.2723 9.35478 17.3896 9.43712 17.487 9.54458C17.5845 9.65151 17.6605 9.78303 17.7151 9.93915C17.7691 10.0937 17.7965 10.2674 17.7965 10.461V11.094C17.7965 11.2892 17.7702 11.4635 17.7172 11.618C17.6642 11.7714 17.5882 11.9013 17.4892 12.0088C17.3917 12.1147 17.2723 12.1959 17.1315 12.2531C16.9923 12.3103 16.8355 12.3387 16.6609 12.3387C16.5062 12.3387 16.3628 12.3152 16.23 12.2676C16.0994 12.2205 15.9854 12.1515 15.8895 12.0612C15.7948 11.9703 15.7214 11.8607 15.67 11.7308C15.6181 11.6003 15.5946 11.4517 15.5988 11.2859H16.1861ZM19.2456 11.048H19.001V12.297H18.4137V9.25587H19.001V10.5946H19.1456L19.9421 9.25587H20.6221L19.7141 10.7203L20.6574 12.297H19.9753L19.2456 11.048ZM23.0686 10.9999C23.0686 11.1951 23.0429 11.3747 22.991 11.5388C22.9396 11.703 22.8652 11.8447 22.7672 11.9628C22.6698 12.081 22.5504 12.174 22.4096 12.2408C22.2704 12.3061 22.113 12.3387 21.9374 12.3387C21.7613 12.3387 21.6055 12.3061 21.469 12.2408C21.3319 12.174 21.2174 12.081 21.1237 11.9628C21.0305 11.8431 20.9593 11.7019 20.9106 11.5388C20.8613 11.3747 20.8373 11.1951 20.8373 10.9999V10.5572C20.8373 10.3626 20.8613 10.183 20.9106 10.0183C20.9593 9.85414 21.0305 9.713 21.1237 9.5943C21.2174 9.47454 21.3314 9.38151 21.4668 9.31468C21.6034 9.24785 21.7597 9.21417 21.9353 9.21417C22.1119 9.21417 22.2704 9.24785 22.4096 9.31468C22.5504 9.38151 22.6698 9.47454 22.7672 9.5943C22.8652 9.713 22.9396 9.85414 22.991 10.0183C23.0429 10.183 23.0686 10.3626 23.0686 10.5572V10.9999ZM22.4728 10.5529C22.4728 10.4294 22.462 10.315 22.4412 10.2108C22.4219 10.106 22.3903 10.0161 22.347 9.94129C22.3036 9.86591 22.2479 9.80763 22.1799 9.76593C22.113 9.72262 22.0311 9.70123 21.9353 9.70123C21.8405 9.70123 21.7607 9.72262 21.6965 9.76593C21.6328 9.80763 21.5809 9.86591 21.5418 9.94129C21.5027 10.0161 21.4749 10.106 21.4583 10.2108C21.4417 10.315 21.4331 10.4294 21.4331 10.5529V10.9999C21.4331 11.1223 21.4417 11.2362 21.4583 11.3405C21.4749 11.4447 21.5027 11.5356 21.5418 11.6121C21.5809 11.6885 21.6328 11.7484 21.6965 11.7917C21.7607 11.8345 21.841 11.8564 21.9374 11.8564C22.0322 11.8564 22.113 11.8345 22.1799 11.7917C22.2479 11.7484 22.303 11.6891 22.3448 11.6142C22.3882 11.5372 22.4203 11.4469 22.4412 11.3426C22.462 11.2384 22.4728 11.1239 22.4728 10.9999V10.5529ZM25.6303 11.3448C25.6206 11.4977 25.5869 11.6356 25.5302 11.758C25.474 11.8805 25.399 11.9853 25.3042 12.0714C25.2095 12.158 25.0965 12.2248 24.9654 12.2718C24.8342 12.3178 24.6891 12.3408 24.5301 12.3408C24.3503 12.3408 24.1907 12.3082 24.0515 12.2424C23.9118 12.1756 23.7951 12.0831 23.7003 11.965C23.605 11.8452 23.5327 11.7019 23.4824 11.5346C23.4327 11.3677 23.4075 11.1838 23.4075 10.9833V10.5738C23.4075 10.3722 23.4337 10.1878 23.4867 10.0204C23.5397 9.85361 23.6152 9.70979 23.7127 9.59056C23.8101 9.4708 23.9279 9.37777 24.066 9.31254C24.2057 9.24571 24.3615 9.21203 24.5344 9.21203C24.702 9.21203 24.8503 9.23609 24.9798 9.28313C25.111 9.33072 25.2223 9.39809 25.3144 9.48577C25.4065 9.57345 25.4788 9.68092 25.5318 9.80763C25.5848 9.93434 25.6185 10.0771 25.6324 10.2359H25.0467C25.0414 10.145 25.0275 10.0659 25.005 9.99743C24.9841 9.92953 24.9525 9.87286 24.9108 9.82848C24.8706 9.7825 24.8187 9.74828 24.756 9.72583C24.695 9.7023 24.6211 9.69054 24.5344 9.69054C24.4439 9.69054 24.3653 9.70979 24.2983 9.74882C24.2314 9.78785 24.1757 9.84506 24.1307 9.92044C24.0874 9.99529 24.0558 10.0878 24.0349 10.1979C24.0135 10.3065 24.0033 10.4305 24.0033 10.57V10.9833C24.0033 11.2827 24.0451 11.5041 24.1286 11.6474C24.2137 11.7907 24.3476 11.8628 24.5301 11.8628C24.6838 11.8628 24.8048 11.8222 24.8942 11.7415C24.9836 11.6591 25.0328 11.5271 25.0424 11.3448H25.6303ZM27.4976 9.25587H28.0876V12.297H27.4976V10.3567L26.6341 12.297H26.0462V9.25587H26.6341V11.1983L27.4976 9.25587ZM30.7745 11.3448C30.7649 11.4977 30.7317 11.6356 30.6744 11.758C30.6187 11.8805 30.5432 11.9853 30.4485 12.0714C30.3537 12.158 30.2407 12.2248 30.1096 12.2718C29.9784 12.3178 29.8339 12.3408 29.6749 12.3408C29.495 12.3408 29.3355 12.3082 29.1957 12.2424C29.0566 12.1756 28.9393 12.0831 28.8446 11.965C28.7498 11.8452 28.677 11.7019 28.6272 11.5346C28.5769 11.3677 28.5517 11.1838 28.5517 10.9833V10.5738C28.5517 10.3722 28.5785 10.1878 28.6309 10.0204C28.6839 9.85361 28.7594 9.70979 28.8568 9.59056C28.9548 9.4708 29.0726 9.37777 29.2102 9.31254C29.3499 9.24571 29.5062 9.21203 29.6792 9.21203C29.8462 9.21203 29.9945 9.23609 30.1246 9.28313C30.2552 9.33072 30.3671 9.39809 30.4592 9.48577C30.5507 9.57345 30.6235 9.68092 30.6765 9.80763C30.7295 9.93434 30.7627 10.0771 30.7766 10.2359H30.1915C30.1856 10.145 30.1717 10.0659 30.1492 9.99743C30.1283 9.92953 30.0973 9.87286 30.0555 9.82848C30.0148 9.7825 29.9634 9.74828 29.9008 9.72583C29.8392 9.7023 29.7653 9.69054 29.6792 9.69054C29.5881 9.69054 29.5094 9.70979 29.4425 9.74882C29.3756 9.78785 29.32 9.84506 29.2755 9.92044C29.2322 9.99529 29.2 10.0878 29.1792 10.1979C29.1583 10.3065 29.1476 10.4305 29.1476 10.57V10.9833C29.1476 11.2827 29.1893 11.5041 29.2734 11.6474C29.3585 11.7907 29.4923 11.8628 29.6749 11.8628C29.828 11.8628 29.9495 11.8222 30.0384 11.7415C30.1278 11.6591 30.177 11.5271 30.1872 11.3448H30.7745ZM33.4705 9.73438H32.5315V12.297H31.9416V9.73438H31.0154V9.25587H33.4705V9.73438ZM35.6789 10.9646H34.4283V11.8227H35.8898V12.297H33.8383V9.25587H35.8834V9.73438H34.4283V10.5011H35.6789V10.9646ZM37.0986 9.25587L37.3872 10.3984L37.7153 9.25587H38.445V12.297H37.9059V11.3966L37.9311 9.97444L37.5312 11.2945H37.2405L36.8834 10.0311L36.908 11.3966V12.297H36.3689V9.25587H37.0986ZM17.9137 16.1566C17.9041 16.3096 17.8703 16.4475 17.8131 16.5699C17.7574 16.6924 17.6824 16.7972 17.5877 16.8832C17.4924 16.9699 17.3799 17.0367 17.2488 17.0837C17.1176 17.1297 16.9725 17.1527 16.8135 17.1527C16.6337 17.1527 16.4741 17.1201 16.3349 17.0543C16.1952 16.9875 16.0785 16.895 15.9832 16.7768C15.8884 16.6571 15.8162 16.5138 15.7658 16.3464C15.7155 16.1796 15.6909 15.9957 15.6909 15.7952V15.3857C15.6909 15.1841 15.7171 14.9996 15.7701 14.8323C15.8232 14.6655 15.8986 14.5217 15.9961 14.4024C16.0935 14.2827 16.2113 14.1896 16.3494 14.1244C16.4886 14.0576 16.6449 14.0239 16.8178 14.0239C16.9854 14.0239 17.1337 14.048 17.2632 14.095C17.3944 14.1426 17.5057 14.21 17.5978 14.2977C17.6899 14.3853 17.7622 14.4928 17.8152 14.6195C17.8682 14.7462 17.9019 14.889 17.9158 15.0478H17.3301C17.3248 14.9569 17.3109 14.8777 17.2884 14.8093C17.2675 14.7414 17.2359 14.6847 17.1942 14.6404C17.154 14.5944 17.1021 14.5602 17.0395 14.5377C16.9784 14.5142 16.9045 14.5024 16.8178 14.5024C16.7273 14.5024 16.6487 14.5217 16.5817 14.5607C16.5148 14.5997 16.4586 14.6569 16.4142 14.7323C16.3708 14.8072 16.3392 14.8997 16.3178 15.0098C16.2969 15.1183 16.2868 15.2424 16.2868 15.3819V15.7952C16.2868 16.0946 16.3285 16.316 16.412 16.4593C16.4971 16.6025 16.631 16.6747 16.8135 16.6747C16.9672 16.6747 17.0882 16.6341 17.1776 16.5534C17.267 16.471 17.3162 16.339 17.3259 16.1566H17.9137ZM19.2103 15.1125L19.4089 15.6738L20.0444 14.0677H20.6847L19.6011 16.5325C19.5653 16.6148 19.5224 16.6934 19.4737 16.7683C19.4261 16.8437 19.3682 16.91 19.3003 16.9666C19.2334 17.0238 19.1546 17.0693 19.0636 17.1024C18.9732 17.1361 18.8666 17.1527 18.744 17.1527C18.645 17.1527 18.5572 17.1441 18.4806 17.1276C18.4052 17.1126 18.3436 17.0982 18.2965 17.0859L18.3339 16.6266C18.3522 16.6319 18.3736 16.6384 18.3987 16.6453C18.4255 16.6507 18.4522 16.6565 18.4806 16.6619C18.5085 16.6672 18.5368 16.6726 18.5663 16.6763C18.5952 16.6795 18.623 16.6806 18.6498 16.6806C18.7167 16.6806 18.7751 16.6737 18.8254 16.6598C18.8757 16.6458 18.9191 16.6266 18.955 16.6015C18.9914 16.5763 19.0214 16.5464 19.0449 16.5116C19.07 16.4753 19.0904 16.4352 19.1059 16.3903L19.1643 16.2609L18.1016 14.0677H18.7376L19.2103 15.1125ZM21.4122 14.0677V16.6368H21.7051V14.0677H22.2592V16.6368H22.5477V14.0677H23.1189V17.1089H20.8394V14.0677H21.4122ZM24.9258 14.0677H25.5152V17.1089H24.9258V15.1686L24.0617 17.1089H23.4744V14.0677H24.0617V16.0101L24.9258 14.0677Z" fill="white"/>
</g>
<defs>
<clipPath id="clip0_590_212">
<rect width="53" height="54" fill="white"/>
</clipPath>
</defs>
</svg>
