<svg width="54" height="54" viewBox="0 0 54 54" fill="none" xmlns="http://www.w3.org/2000/svg">
<g clip-path="url(#clip0_590_431)">
<path d="M54 0H0V54H54V0Z" fill="#566D79"/>
<path fill-rule="evenodd" clip-rule="evenodd" d="M38.495 36.0415C38.495 33.0624 36.0249 30.6052 32.9378 30.456C32.1658 28.2965 30.0047 26.7327 27.5346 26.7327C25.0645 26.7327 22.9035 28.2965 22.1314 30.456C19.0443 30.5308 16.5742 32.9881 16.5742 36.0415C16.5742 37.8289 17.4233 39.3927 18.8128 40.4353C18.6583 40.9566 18.5813 41.4779 18.5813 41.9992C18.5813 45.052 21.2054 47.5841 24.37 47.5841C25.605 47.5841 26.6856 47.212 27.6116 46.6159C28.5382 47.212 29.6187 47.5841 30.7762 47.5841C33.9408 47.5841 36.5654 45.1269 36.5654 41.9992C36.5654 41.4779 36.4879 40.9566 36.3339 40.5096C37.646 39.3927 38.495 37.8289 38.495 36.0415ZM32.0888 32.3177C32.0888 34.552 30.3907 36.4136 28.1522 36.7114C28.1522 36.488 28.0751 36.265 28.0751 36.0415C28.0751 33.8072 29.7732 31.9455 32.0113 31.6477C32.0888 31.8712 32.0888 32.0947 32.0888 32.3177ZM27.5346 45.1269C26.6856 44.3073 26.1451 43.1904 26.1451 41.9243C26.1451 40.7331 26.6856 39.6157 27.5346 38.7966C28.3837 39.6157 28.9242 40.7331 28.9242 41.9992C28.9242 43.1904 28.3837 44.3073 27.5346 45.1269ZM22.9804 31.6477C25.219 31.9455 26.9171 33.8072 26.9171 36.0415C26.9171 36.265 26.9171 36.488 26.8401 36.7114C24.6015 36.4136 22.9035 34.552 22.9035 32.3177C22.9035 32.0947 22.9804 31.8712 22.9804 31.6477ZM26.3771 38.0518C25.605 39.467 24.0615 40.5096 22.2859 40.5096C21.5139 40.5096 20.8194 40.3604 20.2018 39.9883C20.9739 38.4988 22.5174 37.5305 24.293 37.5305C25.0645 37.5305 25.7596 37.6797 26.3771 38.0518ZM28.6151 37.9775C29.2327 37.6797 30.0047 37.4562 30.7762 37.4562C32.5518 37.4562 34.1729 38.4988 34.8674 39.914C34.2499 40.2118 33.4778 40.4353 32.7063 40.4353C30.9307 40.5096 29.3872 39.467 28.6151 37.9775ZM27.5346 27.9244C29.3872 27.9244 31.0083 29.0413 31.7798 30.6052C29.9272 30.903 28.3066 32.0947 27.5346 33.7329C26.7626 32.0947 25.219 30.903 23.2895 30.6052C23.984 29.0413 25.605 27.9244 27.5346 27.9244ZM17.7317 36.0415C17.7317 33.7329 19.5073 31.8712 21.8229 31.6477C21.8229 31.8712 21.7459 32.0947 21.7459 32.3925C21.7459 34.0307 22.4404 35.4454 23.598 36.488C21.6684 36.7114 20.0473 37.8289 19.1983 39.3927C18.2723 38.4988 17.7317 37.3819 17.7317 36.0415ZM19.7388 41.9992C19.7388 41.7008 19.7388 41.403 19.8158 41.1052C20.5879 41.4779 21.4369 41.6265 22.2859 41.6265C23.2895 41.6265 24.2155 41.403 25.0645 40.9566C24.9875 41.2544 24.9875 41.6265 24.9875 41.9992C24.9875 43.4882 25.605 44.9034 26.6086 45.8711C25.9136 46.2438 25.1421 46.4673 24.293 46.4673C21.7459 46.3924 19.7388 44.3821 19.7388 41.9992ZM35.3304 41.9243C35.3304 44.3821 33.2463 46.3924 30.6992 46.3924C29.8502 46.3924 29.0782 46.1695 28.4606 45.7968C29.4642 44.8285 30.0047 43.4882 30.0047 41.9992C30.0047 41.6265 30.0047 41.2544 29.9272 40.9566C30.7762 41.403 31.7028 41.6265 32.7063 41.6265C33.6324 41.6265 34.4814 41.403 35.1759 41.0309C35.3304 41.3287 35.3304 41.6265 35.3304 41.9243ZM31.4713 36.4136C32.6288 35.3711 33.3233 33.9564 33.3233 32.3177C33.3233 32.0947 33.3233 31.8712 33.2463 31.5734C35.5619 31.7964 37.3375 33.7329 37.3375 35.9667C37.3375 37.2327 36.72 38.4245 35.7934 39.2436C34.9444 37.754 33.3233 36.6371 31.4713 36.4136Z" fill="white"/>
<path fill-rule="evenodd" clip-rule="evenodd" d="M8.11886 4.53931V15.4152H6.32511V7.09281L5.00342 8.41715V6.52555L6.70309 4.53931H8.11886Z" fill="white"/>
<path fill-rule="evenodd" clip-rule="evenodd" d="M8.96826 4.53931H13.5946V6.24165L11.14 15.4152H9.34628L11.8009 6.05291H8.96826V4.53931Z" fill="white"/>
<path fill-rule="evenodd" clip-rule="evenodd" d="M17.5596 4.44458H18.6925C19.4474 4.44458 19.7308 4.82311 19.7308 5.48502V6.43082C19.7308 7.09272 19.4474 7.47125 18.6925 7.47125H18.3145V8.98432H17.5596V4.44458ZM18.3145 5.01238V6.80882H18.5978C18.8812 6.80882 18.9753 6.71472 18.9753 6.43082V5.39038C18.9753 5.10701 18.8812 5.01238 18.5978 5.01238H18.3145Z" fill="white"/>
<path fill-rule="evenodd" clip-rule="evenodd" d="M19.731 8.98432L20.5805 4.44458H21.4306L22.2802 8.98432H21.5247L21.336 8.13315H20.4864L20.3918 8.98432H19.731ZM20.6752 7.47125H21.336L21.0526 5.67428L20.6752 7.47125Z" fill="white"/>
<path fill-rule="evenodd" clip-rule="evenodd" d="M23.4126 6.90345V8.98432H22.6577V4.44458H23.7907C24.5456 4.44458 24.829 4.82311 24.829 5.48502V6.05228C24.829 6.52545 24.6402 6.80882 24.2628 6.90345L25.0177 8.98432H24.2628L23.4126 6.90345ZM23.4126 5.01238V6.43082H23.696C23.9794 6.43082 24.074 6.33618 24.074 6.05228V5.39038C24.074 5.10701 23.9794 5.01238 23.696 5.01238H23.4126Z" fill="white"/>
<path fill-rule="evenodd" clip-rule="evenodd" d="M25.1123 4.44458H27.1889V5.01238H26.5281V8.98432H25.7731V5.01238H25.1123V4.44458Z" fill="white"/>
<path fill-rule="evenodd" clip-rule="evenodd" d="M28.1331 6.05228V8.98432H27.5669V4.44458H28.2277L29.0773 6.99808V4.44458H29.6435V8.98432H29.0773L28.1331 6.05228Z" fill="white"/>
<path fill-rule="evenodd" clip-rule="evenodd" d="M30.1152 4.44458H31.909V5.01238H30.8707V6.33618H31.6256V6.90345H30.8707V8.32242H31.909V8.98432H30.1152V4.44458Z" fill="white"/>
<path fill-rule="evenodd" clip-rule="evenodd" d="M33.1363 6.90345V8.98432H32.3809V4.44458H33.5138C34.2692 4.44458 34.5526 4.82311 34.5526 5.48502V6.05228C34.5526 6.52545 34.3639 6.80882 33.9859 6.90345L34.7413 8.98432H33.9859L33.1363 6.90345ZM33.1363 5.01238V6.43082H33.4197C33.7025 6.43082 33.7971 6.33618 33.7971 6.05228V5.39038C33.7971 5.10701 33.7025 5.01238 33.4197 5.01238H33.1363Z" fill="white"/>
<path fill-rule="evenodd" clip-rule="evenodd" d="M34.9302 8.03863V7.47136H35.591V8.13326C35.591 8.41662 35.6857 8.51126 35.9685 8.51126C36.1578 8.51126 36.3465 8.32253 36.3465 8.13326V7.94399C36.3465 7.66009 36.2519 7.56599 36.0631 7.28209L35.591 6.80892C35.1189 6.43092 34.9302 6.14702 34.9302 5.57975V5.39049C34.9302 4.82322 35.2136 4.35059 35.9685 4.35059C36.724 4.35059 37.0073 4.72859 37.0073 5.39049V5.76902H36.3465V5.39049C36.3465 5.10712 36.2519 5.01249 35.9685 5.01249C35.7798 5.01249 35.591 5.10712 35.591 5.39049V5.48512C35.591 5.76902 35.7798 5.86366 35.9685 6.05239L36.4406 6.52556C36.8186 6.99819 37.0073 7.18746 37.0073 7.66009V7.84936C37.0073 8.51126 36.6293 8.88979 35.8744 8.88979C35.1189 8.88979 34.9302 8.60589 34.9302 8.03863Z" fill="white"/>
<path fill-rule="evenodd" clip-rule="evenodd" d="M38.9894 6.90345H38.234V8.98432H37.479V4.44458H38.234V6.33618H38.9894V4.44458H39.7443V8.98432H38.9894V6.90345Z" fill="white"/>
<path d="M40.9722 4.44458H40.2173V8.98432H40.9722V4.44458Z" fill="white"/>
<path fill-rule="evenodd" clip-rule="evenodd" d="M41.3496 4.44458H42.4826C43.2375 4.44458 43.6155 4.82311 43.6155 5.48502V6.43082C43.6155 7.09272 43.3321 7.47125 42.4826 7.47125H42.1045V8.98432H41.3496V4.44458ZM42.1045 5.01238V6.80882H42.3879C42.6713 6.80882 42.7654 6.71472 42.7654 6.43082V5.39038C42.7654 5.10701 42.6713 5.01238 42.3879 5.01238H42.1045Z" fill="white"/>
<path fill-rule="evenodd" clip-rule="evenodd" d="M43.9931 8.03863V7.47136H44.6539V8.13326C44.6539 8.41662 44.7485 8.51126 45.0313 8.51126C45.2201 8.51126 45.4094 8.32253 45.4094 8.13326V7.94399C45.4094 7.66009 45.3147 7.56599 45.0313 7.28209L44.5592 6.80892C44.0877 6.43092 43.8984 6.14702 43.8984 5.57975V5.39049C43.8984 4.82322 44.1818 4.35059 44.9373 4.35059C45.6922 4.35059 45.9756 4.72859 45.9756 5.39049V5.76902H45.3147V5.39049C45.3147 5.10712 45.2201 5.01249 44.9373 5.01249C44.7485 5.01249 44.5592 5.10712 44.5592 5.39049V5.48512C44.5592 5.76902 44.6539 5.86366 44.9373 6.05239L45.4094 6.52556C45.7868 6.99819 45.9756 7.18746 45.9756 7.66009V7.84936C45.9756 8.51126 45.6922 8.88979 44.8426 8.88979C43.9931 8.88979 43.9931 8.60589 43.9931 8.03863Z" fill="white"/>
<path fill-rule="evenodd" clip-rule="evenodd" d="M17.5596 10.7808H19.3533V11.4432H18.3145V12.767H19.07V13.3343H18.3145V15.4151H17.5596V10.7808Z" fill="white"/>
<path fill-rule="evenodd" clip-rule="evenodd" d="M19.6367 14.1854V12.0105C19.6367 11.2539 20.0142 10.7808 20.8637 10.7808C21.7133 10.7808 22.0908 11.3486 22.0908 12.0105V14.1854C22.0908 14.942 21.7133 15.4151 20.8637 15.4151C20.0142 15.4151 19.6367 14.8473 19.6367 14.1854ZM21.1471 14.2801V11.8212C21.1471 11.5378 21.0525 11.3486 20.7691 11.3486C20.4863 11.3486 20.3916 11.5378 20.3916 11.8212V14.2801C20.3916 14.564 20.4863 14.7532 20.7691 14.7532C21.0525 14.7532 21.1471 14.564 21.1471 14.2801Z" fill="white"/>
<path fill-rule="evenodd" clip-rule="evenodd" d="M23.2237 13.2396V15.4151H22.4683V10.7808H23.6012C24.3567 10.7808 24.64 11.1593 24.64 11.8212V12.3885C24.64 12.8616 24.4508 13.2396 24.0733 13.3343L24.8288 15.4151H24.0733L23.2237 13.2396ZM23.2237 11.4432V12.8616H23.5071C23.7899 12.8616 23.8846 12.6724 23.8846 12.4831V11.8212C23.8846 11.5378 23.7899 11.4432 23.5071 11.4432H23.2237Z" fill="white"/>
<path fill-rule="evenodd" clip-rule="evenodd" d="M25.5845 10.7808H27.6611V11.4432H27.0002V15.4151H26.2453V11.4432H25.5845V10.7808Z" fill="white"/>
<path fill-rule="evenodd" clip-rule="evenodd" d="M29.4547 13.3343H28.6993V15.4151H27.9443V10.7808H28.6993V12.767H29.4547V10.7808H30.2097V15.4151H29.4547V13.3343Z" fill="white"/>
<path fill-rule="evenodd" clip-rule="evenodd" d="M30.6821 10.7808H32.4759V11.4432H31.4371V12.767H32.1925V13.3343H31.4371V14.7532H32.4759V15.4151H30.6821V10.7808Z" fill="white"/>
<path fill-rule="evenodd" clip-rule="evenodd" d="M34.836 12.9564H35.9689V15.4152H35.3081V14.9421C35.2134 15.3206 35.0247 15.5099 34.5526 15.5099C33.8918 15.5099 33.6084 15.0367 33.6084 14.2802V12.1052C33.6084 11.3487 33.9864 10.8755 34.7413 10.8755C35.5909 10.8755 35.8743 11.3487 35.8743 12.0106V12.3891H35.1188V11.9159C35.1188 11.6326 35.0247 11.4433 34.7413 11.4433C34.458 11.4433 34.3639 11.6326 34.3639 11.9159V14.2802C34.3639 14.5641 34.458 14.7533 34.7413 14.7533C35.0247 14.7533 35.1188 14.6587 35.1188 14.2802V13.429H34.7413V12.9564H34.836Z" fill="white"/>
<path fill-rule="evenodd" clip-rule="evenodd" d="M36.2515 14.1854V12.0105C36.2515 11.2539 36.6289 10.7808 37.4785 10.7808C38.328 10.7808 38.7061 11.3486 38.7061 12.0105V14.1854C38.7061 14.942 38.328 15.4151 37.4785 15.4151C36.6289 15.4151 36.2515 14.8473 36.2515 14.1854ZM37.8559 14.2801V11.8212C37.8559 11.5378 37.7619 11.3486 37.4785 11.3486C37.1951 11.3486 37.101 11.5378 37.101 11.8212V14.2801C37.101 14.564 37.1951 14.7532 37.4785 14.7532C37.7619 14.7532 37.8559 14.564 37.8559 14.2801Z" fill="white"/>
<path fill-rule="evenodd" clip-rule="evenodd" d="M38.895 15.4151L39.7446 10.7808H40.5942L41.4443 15.4151H40.6888L40.5942 14.564H39.7446L39.6505 15.4151H38.895ZM39.8392 13.9021H40.4054L40.1226 12.0105L39.8392 13.9021Z" fill="white"/>
<path fill-rule="evenodd" clip-rule="evenodd" d="M41.7275 10.7808H42.483V14.7532H43.4267V15.4151H41.7275V10.7808Z" fill="white"/>
<path fill-rule="evenodd" clip-rule="evenodd" d="M43.7099 14.3748V13.8075H44.3707V14.4694C44.3707 14.7533 44.4648 14.848 44.7481 14.848C44.9369 14.848 45.1256 14.6587 45.1256 14.4694V14.2802C45.1256 13.9968 45.0315 13.9022 44.7481 13.6183L44.276 13.1456C43.8039 12.7671 43.6152 12.4837 43.6152 11.9159V11.7272C43.6152 11.1594 43.8986 10.6868 44.6535 10.6868C45.409 10.6868 45.6923 11.0648 45.6923 11.7272V12.1052H45.0315V11.7272C45.0315 11.4433 44.9369 11.3487 44.6535 11.3487C44.4648 11.3487 44.276 11.4433 44.276 11.7272V11.8213C44.276 12.1052 44.4648 12.1998 44.6535 12.3891L45.1256 12.8617C45.5036 13.3349 45.6923 13.5236 45.6923 13.9968V14.1855C45.6923 14.848 45.409 15.226 44.5594 15.226C43.7099 15.226 43.7099 14.9426 43.7099 14.3748Z" fill="white"/>
<path d="M52.3959 4.27734H13.9009V20.8516H52.3959V4.27734Z" fill="#566D79"/>
<path d="M18.3264 7.48509H17.7399V4.92036H16.8791V7.48509H16.2926V4.44398H18.3264V7.48509ZM20.3773 6.84992H19.4647L19.285 7.48509H18.667L19.663 4.44398H20.1955L21.1734 7.48509H20.5548L20.3773 6.84992ZM19.609 6.35109H20.2394L19.9282 5.23153L19.609 6.35109ZM22.0754 6.36981V7.48509H21.4883V4.44398H22.5288C22.6945 4.44398 22.8442 4.46858 22.9779 4.51723C23.1115 4.56482 23.2249 4.63165 23.3179 4.71773C23.4125 4.80274 23.4853 4.90486 23.5355 5.02462C23.5869 5.14438 23.6125 5.27751 23.6125 5.424C23.6125 5.56034 23.5869 5.68599 23.5355 5.802C23.4853 5.91749 23.4125 6.01747 23.3179 6.10248C23.2249 6.18589 23.1115 6.25165 22.9779 6.2987C22.8442 6.34628 22.6945 6.36981 22.5288 6.36981H22.0754ZM22.0754 5.89343H22.5288C22.6122 5.89343 22.6843 5.88113 22.7458 5.85601C22.8073 5.83088 22.8581 5.79666 22.8982 5.75389C22.9399 5.71058 22.9709 5.66139 22.9902 5.60525C23.011 5.54858 23.0217 5.48923 23.0217 5.42775C23.0217 5.35717 23.011 5.29088 22.9902 5.22939C22.9709 5.16844 22.9399 5.11444 22.8982 5.06846C22.8581 5.02301 22.8073 4.98666 22.7458 4.95993C22.6843 4.93373 22.6122 4.92036 22.5288 4.92036H22.0754V5.89343ZM26.2542 4.9225H25.317V7.48509H24.7278V4.9225H23.8028V4.44398H26.2542V4.9225ZM28.5955 7.48509H28.0148V6.16718H27.1546V7.48509H26.5718V4.44398H27.1546V5.69133H28.0148V4.44398H28.5955V7.48509ZM31.0287 6.15274H29.7797V7.01086H31.2399V7.48509H29.1911V4.44398H31.2335V4.9225H29.7797V5.68919H31.0287V6.15274ZM32.3509 6.36981V7.48509H31.7638V4.44398H32.8037C32.9695 4.44398 33.1192 4.46858 33.2528 4.51723C33.3865 4.56482 33.5004 4.63165 33.5934 4.71773C33.688 4.80274 33.7608 4.90486 33.8105 5.02462C33.8624 5.14438 33.888 5.27751 33.888 5.424C33.888 5.56034 33.8624 5.68599 33.8105 5.802C33.7608 5.91749 33.688 6.01747 33.5934 6.10248C33.5004 6.18589 33.3865 6.25165 33.2528 6.2987C33.1192 6.34628 32.9695 6.36981 32.8037 6.36981H32.3509ZM32.3509 5.89343H32.8037C32.8877 5.89343 32.9598 5.88113 33.0213 5.85601C33.0823 5.83088 33.1331 5.79666 33.1737 5.75389C33.2154 5.71058 33.2459 5.66139 33.2657 5.60525C33.2865 5.54858 33.2967 5.48923 33.2967 5.42775C33.2967 5.35717 33.2865 5.29088 33.2657 5.22939C33.2459 5.16844 33.2154 5.11444 33.1737 5.06846C33.1331 5.02301 33.0823 4.98666 33.0213 4.95993C32.9598 4.93373 32.8877 4.92036 32.8037 4.92036H32.3509V5.89343ZM36.4068 6.53288C36.3971 6.68579 36.3635 6.82373 36.3062 6.94616C36.2506 7.0686 36.1753 7.17339 36.0806 7.25947C35.986 7.34608 35.8732 7.41292 35.7427 7.45997C35.6117 7.50595 35.4668 7.52894 35.308 7.52894C35.1284 7.52894 34.9691 7.49632 34.8301 7.43056C34.6905 7.36373 34.5734 7.27123 34.4788 7.15307C34.3842 7.03331 34.312 6.89003 34.2617 6.72268C34.2115 6.55587 34.1863 6.37195 34.1863 6.17145V5.76191C34.1863 5.56034 34.2131 5.37589 34.266 5.20854C34.319 5.04173 34.3938 4.89791 34.4916 4.77868C34.5889 4.65892 34.7066 4.56589 34.8445 4.50066C34.9835 4.43383 35.1396 4.40015 35.3123 4.40015C35.4791 4.40015 35.6278 4.4242 35.7572 4.47125C35.8882 4.51884 35.9993 4.58621 36.0913 4.67389C36.1833 4.76157 36.2554 4.86904 36.3084 4.99575C36.3613 5.12246 36.395 5.26521 36.4089 5.424H35.824C35.8181 5.33311 35.8042 5.25399 35.7823 5.18555C35.7614 5.11765 35.7299 5.06098 35.6882 5.0166C35.6476 4.97062 35.5962 4.9364 35.5337 4.91395C35.4722 4.89042 35.3984 4.87866 35.3123 4.87866C35.222 4.87866 35.1428 4.89791 35.076 4.93694C35.0092 4.97597 34.9536 5.03318 34.9092 5.10856C34.8659 5.18341 34.8338 5.2759 34.8129 5.38604C34.7921 5.49458 34.7819 5.61862 34.7819 5.75816V6.17145C34.7819 6.47086 34.8236 6.6922 34.9071 6.83549C34.9921 6.97878 35.1257 7.05096 35.308 7.05096C35.4615 7.05096 35.5823 7.01032 35.6716 6.92959C35.7604 6.84725 35.8101 6.71519 35.8197 6.53288H36.4068ZM39.0988 4.9225H38.161V7.48509H37.5718V4.9225H36.6468V4.44398H39.0988V4.9225ZM39.4286 7.48509V4.44398H40.4498C40.6156 4.44398 40.7658 4.4611 40.9011 4.49424C41.0374 4.52793 41.154 4.57872 41.2496 4.64662C41.3459 4.71506 41.4197 4.80114 41.471 4.90593C41.5239 5.01019 41.5507 5.13369 41.5507 5.27537C41.549 5.41759 41.5111 5.54484 41.4357 5.65765C41.3619 5.77046 41.2529 5.85601 41.108 5.91428C41.1957 5.93674 41.2716 5.97042 41.3352 6.0148C41.3994 6.05917 41.4523 6.1121 41.494 6.17359C41.5373 6.23347 41.5689 6.29977 41.5881 6.37195C41.6089 6.44306 41.6196 6.51684 41.6196 6.59329C41.6196 6.73926 41.5945 6.86811 41.5442 6.97985C41.494 7.09106 41.4223 7.18462 41.3293 7.25947C41.2357 7.33486 41.1224 7.39099 40.9887 7.42895C40.8551 7.46638 40.7048 7.48509 40.5375 7.48509H39.4286ZM40.0178 6.14418V7.01086H40.5396C40.7 7.00979 40.8219 6.97076 40.9053 6.8943C40.9903 6.81624 41.0326 6.71466 41.0326 6.58901C41.0342 6.45001 40.9962 6.34147 40.9198 6.26341C40.8433 6.18535 40.7252 6.14579 40.5647 6.14418H40.0178ZM40.0178 5.7202H40.4541C40.6172 5.71913 40.7423 5.68492 40.83 5.61809C40.9176 5.55126 40.9625 5.45288 40.9636 5.32349C40.9636 5.18127 40.9198 5.07969 40.8321 5.01874C40.7444 4.95618 40.6177 4.9241 40.4519 4.9225H40.0178V5.7202ZM44.1234 6.18802C44.1234 6.38318 44.0978 6.56282 44.0464 6.72696C43.9946 6.89109 43.9202 7.03278 43.823 7.15094C43.7256 7.2691 43.6064 7.36212 43.4658 7.42895C43.3263 7.49418 43.1691 7.5268 42.9937 7.5268C42.8183 7.5268 42.6622 7.49418 42.5259 7.42895C42.3895 7.36212 42.2746 7.2691 42.1816 7.15094C42.088 7.03117 42.0169 6.89003 41.9682 6.72696C41.9196 6.56282 41.895 6.38318 41.895 6.18802V5.74533C41.895 5.55072 41.9196 5.37107 41.9682 5.2064C42.0169 5.04226 42.088 4.90111 42.1816 4.78242C42.2746 4.66266 42.389 4.56963 42.5237 4.5028C42.6601 4.43596 42.8162 4.40228 42.9915 4.40228C43.1685 4.40228 43.3263 4.43596 43.4658 4.5028C43.6064 4.56963 43.7256 4.66266 43.823 4.78242C43.9202 4.90111 43.9946 5.04226 44.0464 5.2064C44.0978 5.37107 44.1234 5.55072 44.1234 5.74533V6.18802ZM43.5283 5.74105C43.5283 5.61755 43.5182 5.50313 43.4968 5.39888C43.4775 5.29409 43.446 5.20426 43.4032 5.12941C43.3599 5.05403 43.3043 4.99575 43.2359 4.95405C43.1691 4.91074 43.0878 4.88935 42.9915 4.88935C42.8969 4.88935 42.8178 4.91074 42.7536 4.95405C42.6895 4.99575 42.6382 5.05403 42.5991 5.12941C42.5601 5.20426 42.5323 5.29409 42.5157 5.39888C42.4986 5.50313 42.4906 5.61755 42.4906 5.74105V6.18802C42.4906 6.31046 42.4986 6.42434 42.5157 6.5286C42.5323 6.63286 42.5601 6.72375 42.5991 6.8002C42.6382 6.87666 42.6895 6.93654 42.7536 6.97985C42.8178 7.02262 42.8975 7.04454 42.9937 7.04454C43.0883 7.04454 43.1691 7.02262 43.2359 6.97985C43.3043 6.93654 43.3594 6.87719 43.4011 6.80234C43.4444 6.72535 43.4759 6.635 43.4968 6.53074C43.5182 6.42648 43.5283 6.31207 43.5283 6.18802V5.74105ZM16.3092 12.297V9.25587H17.3303C17.4961 9.25587 17.6463 9.27298 17.7816 9.30612C17.9179 9.33981 18.0339 9.3906 18.1302 9.4585C18.2264 9.52694 18.3002 9.61302 18.3515 9.71781C18.4044 9.82207 18.4312 9.94557 18.4312 10.0873C18.4296 10.2295 18.3911 10.3567 18.3162 10.4695C18.2424 10.5823 18.1328 10.6679 17.9885 10.7262C18.0762 10.7486 18.1521 10.7823 18.2157 10.8267C18.2799 10.8711 18.3328 10.924 18.3745 10.9855C18.4178 11.0454 18.4494 11.1116 18.4686 11.1838C18.4894 11.2549 18.5001 11.3287 18.5001 11.4052C18.5001 11.5511 18.475 11.68 18.4248 11.7917C18.3745 11.9029 18.3028 11.9965 18.2098 12.0714C18.1162 12.1467 18.0029 12.2029 17.8693 12.2408C17.7356 12.2783 17.5853 12.297 17.418 12.297H16.3092ZM16.8978 10.9561V11.8227H17.4201C17.5806 11.8217 17.7019 11.7826 17.7858 11.7062C17.8703 11.6281 17.9131 11.5265 17.9131 11.4009C17.9147 11.2619 17.8767 11.1534 17.8003 11.0753C17.7238 10.9972 17.6051 10.9577 17.4453 10.9561H16.8978ZM16.8978 10.5321H17.3346C17.4977 10.531 17.6228 10.4968 17.7105 10.43C17.7981 10.3631 17.8425 10.2648 17.8441 10.1354C17.8441 9.99316 17.8003 9.89157 17.7126 9.83062C17.6249 9.76806 17.4982 9.73599 17.3325 9.73438H16.8978V10.5321ZM22.8587 9.25587H23.4473V12.297H22.8587V10.3567L21.9962 12.297H21.4092V9.25587H21.9962V11.1983L22.8587 9.25587ZM26.027 12.297H25.4464V10.9791H24.5856V12.297H24.0033V9.25587H24.5856V10.5032H25.4464V9.25587H26.027V12.297ZM28.8232 9.73438H27.8855V12.297H27.2968V9.73438H26.3713V9.25587H28.8232V9.73438ZM31.0287 10.9646H29.7797V11.8227H31.2399V12.297H29.1911V9.25587H31.2335V9.73438H29.7797V10.5011H31.0287V10.9646ZM32.3509 11.1817V12.297H31.7638V9.25587H32.8037C32.9695 9.25587 33.1192 9.28046 33.2528 9.32911C33.3865 9.3767 33.5004 9.44353 33.5934 9.52961C33.688 9.61462 33.7608 9.71674 33.8105 9.8365C33.8624 9.95626 33.888 10.0894 33.888 10.2359C33.888 10.3722 33.8624 10.4979 33.8105 10.6139C33.7608 10.7294 33.688 10.8294 33.5934 10.9144C33.5004 10.9978 33.3865 11.0635 33.2528 11.1106C33.1192 11.1582 32.9695 11.1817 32.8037 11.1817H32.3509ZM32.3509 10.7053H32.8037C32.8877 10.7053 32.9598 10.693 33.0213 10.6679C33.0823 10.6428 33.1331 10.6085 33.1737 10.5658C33.2154 10.5225 33.2459 10.4733 33.2657 10.4171C33.2865 10.3605 33.2967 10.3011 33.2967 10.2396C33.2967 10.1691 33.2865 10.1028 33.2657 10.0413C33.2459 9.98032 33.2154 9.92632 33.1737 9.88034C33.1331 9.83489 33.0823 9.79854 33.0213 9.77181C32.9598 9.74561 32.8877 9.73224 32.8037 9.73224H32.3509V10.7053ZM36.1667 10.9646H34.9178V11.8227H36.3774V12.297H34.3285V9.25587H36.3709V9.73438H34.9178V10.5011H36.1667V10.9646ZM38.9752 11.3448C38.9656 11.4977 38.9325 11.6356 38.8753 11.758C38.8196 11.8805 38.7443 11.9853 38.6496 12.0714C38.555 12.158 38.4422 12.2248 38.3112 12.2718C38.1802 12.3178 38.0358 12.3408 37.8771 12.3408C37.6974 12.3408 37.5381 12.3082 37.3985 12.2424C37.2595 12.1756 37.1424 12.0831 37.0478 11.965C36.9532 11.8452 36.8805 11.7019 36.8308 11.5346C36.7805 11.3677 36.7553 11.1838 36.7553 10.9833V10.5738C36.7553 10.3722 36.7821 10.1878 36.835 10.0204C36.8874 9.85361 36.9628 9.70979 37.0601 9.59056C37.158 9.4708 37.2756 9.37777 37.4135 9.31254C37.5525 9.24571 37.7086 9.21203 37.8813 9.21203C38.0481 9.21203 38.1962 9.23609 38.3262 9.28313C38.4566 9.33072 38.5684 9.39809 38.6603 9.48577C38.7517 9.57345 38.8245 9.68092 38.8774 9.80763C38.9303 9.93434 38.9635 10.0771 38.9774 10.2359H38.393C38.3871 10.145 38.3732 10.0659 38.3507 9.99743C38.3299 9.92953 38.2989 9.87286 38.2572 9.82848C38.2166 9.7825 38.1652 9.74828 38.1027 9.72583C38.0412 9.7023 37.9674 9.69054 37.8813 9.69054C37.7904 9.69054 37.7118 9.70979 37.645 9.74882C37.5782 9.78785 37.5226 9.84506 37.4782 9.92044C37.4349 9.99529 37.4028 10.0878 37.382 10.1979C37.3611 10.3065 37.3504 10.4305 37.3504 10.57V10.9833C37.3504 11.2827 37.3927 11.5041 37.4761 11.6474C37.5611 11.7907 37.6947 11.8628 37.8771 11.8628C38.03 11.8628 38.1513 11.8222 38.2401 11.7415C38.3294 11.6591 38.3791 11.5271 38.3887 11.3448H38.9752ZM40.9283 11.6618H40.0157L39.836 12.297H39.218L40.214 9.25587H40.7465L41.7239 12.297H41.1058L40.9283 11.6618ZM40.1595 11.163H40.7904L40.4792 10.0434L40.1595 11.163ZM43.0311 10.3466L43.5722 9.25587H44.2613L43.4054 10.7641L44.2822 12.297H43.5973L43.0397 11.1902L42.4842 12.297H41.7907L42.6681 10.7641L41.8137 9.25587H42.4986L43.0311 10.3466ZM17.1507 15.1125L17.349 15.6738L17.9842 14.0677H18.6231L17.5415 16.5325C17.5052 16.6148 17.4624 16.6934 17.4137 16.7683C17.3667 16.8437 17.309 16.91 17.2405 16.9666C17.1737 17.0238 17.0951 17.0693 17.0047 17.1024C16.9138 17.1361 16.8074 17.1527 16.685 17.1527C16.5861 17.1527 16.4984 17.1441 16.422 17.1276C16.3465 17.1126 16.2856 17.0982 16.238 17.0859L16.2754 16.6266C16.2936 16.6319 16.3155 16.6384 16.3402 16.6453C16.3669 16.6507 16.3942 16.6565 16.422 16.6619C16.4498 16.6672 16.4781 16.6726 16.5075 16.6763C16.5369 16.6795 16.5647 16.6806 16.5909 16.6806C16.6577 16.6806 16.7165 16.6737 16.7663 16.6597C16.8165 16.6458 16.8598 16.6266 16.8962 16.6015C16.932 16.5763 16.9619 16.5464 16.986 16.5116C17.0106 16.4753 17.0309 16.4352 17.0464 16.3903L17.1047 16.2609L16.0439 14.0677H16.6786L17.1507 15.1125ZM20.9938 16.1566C20.9836 16.3096 20.9505 16.4475 20.8933 16.5699C20.8377 16.6924 20.7623 16.7972 20.6676 16.8832C20.573 16.9698 20.4602 17.0367 20.3292 17.0837C20.1987 17.1297 20.0538 17.1527 19.8951 17.1527C19.7154 17.1527 19.5561 17.1201 19.4165 17.0543C19.2775 16.9875 19.1604 16.895 19.0658 16.7768C18.9712 16.6571 18.899 16.5138 18.8488 16.3464C18.7985 16.1796 18.7733 15.9957 18.7733 15.7952V15.3857C18.7733 15.1841 18.8001 14.9996 18.853 14.8323C18.906 14.6655 18.9808 14.5217 19.0787 14.4024C19.176 14.2827 19.2936 14.1896 19.4315 14.1244C19.5705 14.0576 19.7266 14.0239 19.8993 14.0239C20.0661 14.0239 20.2148 14.048 20.3442 14.095C20.4752 14.1426 20.5864 14.21 20.6783 14.2977C20.7703 14.3853 20.8424 14.4928 20.8954 14.6195C20.9483 14.7462 20.9815 14.889 20.9959 15.0478H20.411C20.4051 14.9569 20.3912 14.8777 20.3693 14.8093C20.3485 14.7414 20.3169 14.6847 20.2752 14.6404C20.2346 14.5944 20.1832 14.5602 20.1207 14.5377C20.0592 14.5142 19.9854 14.5024 19.8993 14.5024C19.8084 14.5024 19.7298 14.5217 19.663 14.5607C19.5962 14.5997 19.5406 14.6569 19.4962 14.7323C19.4529 14.8072 19.4208 14.8997 19.4 15.0098C19.3791 15.1183 19.369 15.2424 19.369 15.3819V15.7952C19.369 16.0946 19.4107 16.316 19.4941 16.4593C19.5791 16.6025 19.7127 16.6747 19.8951 16.6747C20.048 16.6747 20.1693 16.6341 20.2586 16.5534C20.3474 16.471 20.3971 16.339 20.4067 16.1566H20.9938ZM23.6858 14.5463H22.748V17.1089H22.1588V14.5463H21.2338V14.0677H23.6858V14.5463ZM26.142 15.8118C26.142 16.0069 26.1158 16.1866 26.0644 16.3507C26.0131 16.5149 25.9382 16.6565 25.8409 16.7747C25.7436 16.8929 25.6244 16.9859 25.4838 17.0527C25.3448 17.1179 25.1871 17.1506 25.0117 17.1506C24.8363 17.1506 24.6802 17.1179 24.5439 17.0527C24.4075 16.9859 24.2926 16.8929 24.1996 16.7747C24.106 16.6549 24.0349 16.5138 23.9862 16.3507C23.9376 16.1866 23.9135 16.0069 23.9135 15.8118V15.3691C23.9135 15.1745 23.9376 14.9948 23.9862 14.8302C24.0349 14.666 24.106 14.5249 24.1996 14.4062C24.2926 14.2864 24.407 14.1934 24.5417 14.1266C24.6786 14.0597 24.8342 14.026 25.0095 14.026C25.1865 14.026 25.3448 14.0597 25.4838 14.1266C25.6244 14.1934 25.7436 14.2864 25.8409 14.4062C25.9382 14.5249 26.0131 14.666 26.0644 14.8302C26.1158 14.9948 26.142 15.1745 26.142 15.3691V15.8118ZM25.5463 15.3648C25.5463 15.2413 25.5362 15.1269 25.5153 15.0226C25.4955 14.9178 25.4645 14.828 25.4212 14.7532C25.3779 14.6778 25.3223 14.6195 25.2539 14.5778C25.1871 14.5345 25.1058 14.5131 25.0095 14.5131C24.9149 14.5131 24.8358 14.5345 24.7716 14.5778C24.7075 14.6195 24.6562 14.6778 24.6171 14.7532C24.5781 14.828 24.5503 14.9178 24.5337 15.0226C24.5166 15.1269 24.5086 15.2413 24.5086 15.3648V15.8118C24.5086 15.9342 24.5166 16.0481 24.5337 16.1524C24.5503 16.2566 24.5781 16.3475 24.6171 16.424C24.6562 16.5004 24.7075 16.5603 24.7716 16.6036C24.8358 16.6464 24.916 16.6683 25.0117 16.6683C25.1063 16.6683 25.1871 16.6464 25.2539 16.6036C25.3223 16.5603 25.3774 16.501 25.4191 16.4261C25.4624 16.3491 25.4945 16.2588 25.5153 16.1545C25.5362 16.0502 25.5463 15.9358 25.5463 15.8118V15.3648ZM27.9961 14.0677H28.5853V17.1089H27.9961V15.1686L27.1337 17.1089H26.5467V14.0677H27.1337V16.0101L27.9961 14.0677ZM28.2613 13.2765C28.2613 13.3668 28.2447 13.4497 28.2116 13.5251C28.1795 13.6005 28.1319 13.6652 28.0694 13.7192C28.0079 13.7721 27.9336 13.8138 27.8459 13.8448C27.7582 13.8737 27.6598 13.8886 27.5513 13.8886C27.4417 13.8886 27.3428 13.8737 27.2551 13.8448C27.1669 13.8138 27.092 13.7721 27.0295 13.7192C26.968 13.6652 26.9209 13.6005 26.8873 13.5251C26.8552 13.4497 26.8391 13.3668 26.8391 13.2765H27.2567C27.2567 13.3128 27.262 13.3481 27.2717 13.3829C27.2829 13.4165 27.3 13.4465 27.3235 13.4727C27.3476 13.4978 27.3775 13.5181 27.4134 13.5331C27.4513 13.5486 27.4973 13.5561 27.5513 13.5561C27.6042 13.5561 27.6491 13.5486 27.685 13.5331C27.7229 13.5181 27.7529 13.4978 27.7748 13.4727C27.7983 13.4465 27.8154 13.4165 27.8251 13.3829C27.8363 13.3481 27.8416 13.3128 27.8416 13.2765H28.2613ZM31.2212 14.0677V17.1089H30.632V15.9497C30.5956 15.9594 30.5582 15.9684 30.5191 15.977C30.4801 15.9839 30.4411 15.9904 30.4021 15.9957C30.3647 16 30.3277 16.0032 30.2914 16.0064C30.2566 16.0091 30.2262 16.0101 30.1994 16.0101C30.0492 16.0101 29.9129 15.9914 29.7904 15.954C29.6691 15.915 29.5653 15.8551 29.4793 15.7744C29.3943 15.6936 29.328 15.5904 29.2809 15.4653C29.2349 15.3386 29.2119 15.1884 29.2119 15.0141V14.0677H29.7984V15.0141C29.7984 15.1157 29.8065 15.2001 29.8214 15.267C29.8386 15.3338 29.8631 15.3873 29.8968 15.4274C29.93 15.4664 29.9722 15.4942 30.0219 15.5113C30.0722 15.5263 30.1315 15.5343 30.1994 15.5343C30.2272 15.5343 30.2588 15.5332 30.2935 15.5322C30.3283 15.5295 30.3647 15.5257 30.4021 15.5215C30.4411 15.5161 30.4801 15.5097 30.5191 15.5028C30.5582 15.4958 30.5956 15.4873 30.632 15.4776V14.0677H31.2212ZM33.1342 14.0677H33.7228V17.1089H33.1342V15.1686L32.2712 17.1089H31.6847V14.0677H32.2712V16.0101L33.1342 14.0677ZM34.2911 17.1089V14.0677H35.3123C35.4781 14.0677 35.6283 14.0849 35.7636 14.118C35.8999 14.1517 36.0159 14.2025 36.1122 14.2704C36.2084 14.3388 36.2822 14.4249 36.3335 14.5297C36.3865 14.6339 36.4126 14.7575 36.4126 14.8991C36.4116 15.0413 36.3731 15.1686 36.2982 15.2814C36.2244 15.3942 36.1148 15.4798 35.9699 15.538C36.0576 15.5605 36.1336 15.5942 36.1977 15.6386C36.2619 15.6829 36.3148 15.7359 36.3565 15.7974C36.3998 15.8572 36.4308 15.9235 36.4506 15.9957C36.4715 16.0668 36.4816 16.1406 36.4816 16.2171C36.4816 16.363 36.457 16.4919 36.4068 16.6036C36.3565 16.7148 36.2849 16.8084 36.1913 16.8832C36.0983 16.9586 35.9849 17.0148 35.8513 17.0527C35.7176 17.0901 35.5668 17.1089 35.4 17.1089H34.2911ZM34.8798 15.7679V16.6346H35.4022C35.562 16.6335 35.6839 16.5945 35.7673 16.5181C35.8523 16.44 35.8951 16.3384 35.8951 16.2128C35.8962 16.0738 35.8587 15.9652 35.7823 15.8872C35.7058 15.8091 35.5871 15.7695 35.4273 15.7679H34.8798ZM34.8798 15.344H35.3166C35.4791 15.3429 35.6048 15.3087 35.6925 15.2418C35.7801 15.175 35.8245 15.0766 35.8261 14.9473C35.8261 14.805 35.7823 14.7035 35.6946 14.6425C35.6069 14.5799 35.4802 14.5479 35.3145 14.5463H34.8798V15.344ZM38.9859 15.8118C38.9859 16.0069 38.9603 16.1866 38.9084 16.3507C38.8571 16.5149 38.7828 16.6565 38.6849 16.7747C38.5876 16.8929 38.4689 16.9859 38.3283 17.0527C38.1888 17.1179 38.0316 17.1506 37.8562 17.1506C37.6808 17.1506 37.5247 17.1179 37.3884 17.0527C37.2515 16.9859 37.1371 16.8929 37.0435 16.7747C36.9505 16.6549 36.8794 16.5138 36.8308 16.3507C36.7821 16.1866 36.7575 16.0069 36.7575 15.8118V15.3691C36.7575 15.1745 36.7821 14.9948 36.8308 14.8302C36.8794 14.666 36.9505 14.5249 37.0435 14.4062C37.1371 14.2864 37.251 14.1934 37.3863 14.1266C37.5226 14.0597 37.6787 14.026 37.8541 14.026C38.031 14.026 38.1888 14.0597 38.3283 14.1266C38.4689 14.1934 38.5876 14.2864 38.6849 14.4062C38.7828 14.5249 38.8571 14.666 38.9084 14.8302C38.9603 14.9948 38.9859 15.1745 38.9859 15.3691V15.8118ZM38.3909 15.3648C38.3909 15.2413 38.3802 15.1269 38.3593 15.0226C38.3401 14.9178 38.3085 14.828 38.2652 14.7532C38.2224 14.6778 38.1663 14.6195 38.0984 14.5778C38.0316 14.5345 37.9498 14.5131 37.8541 14.5131C37.7594 14.5131 37.6798 14.5345 37.6156 14.5778C37.552 14.6195 37.5001 14.6778 37.4611 14.7532C37.4221 14.828 37.3943 14.9178 37.3777 15.0226C37.3611 15.1269 37.3525 15.2413 37.3525 15.3648V15.8118C37.3525 15.9342 37.3611 16.0481 37.3777 16.1524C37.3943 16.2566 37.4221 16.3475 37.4611 16.424C37.5001 16.5004 37.552 16.5603 37.6156 16.6036C37.6798 16.6464 37.76 16.6683 37.8562 16.6683C37.9508 16.6683 38.0316 16.6464 38.0984 16.6036C38.1663 16.5603 38.2214 16.501 38.2631 16.4261C38.3064 16.3491 38.3384 16.2588 38.3593 16.1545C38.3802 16.0502 38.3909 15.9358 38.3909 15.8118V15.3648ZM41.4213 14.5441H40.0408V17.1089H39.4538V14.0677H41.4213V14.5441ZM44.1234 15.8118C44.1234 16.0069 44.0978 16.1866 44.0464 16.3507C43.9946 16.5149 43.9202 16.6565 43.823 16.7747C43.7256 16.8929 43.6064 16.9859 43.4658 17.0527C43.3263 17.1179 43.1691 17.1506 42.9937 17.1506C42.8183 17.1506 42.6622 17.1179 42.5259 17.0527C42.3895 16.9859 42.2746 16.8929 42.1816 16.7747C42.088 16.6549 42.0169 16.5138 41.9682 16.3507C41.9196 16.1866 41.895 16.0069 41.895 15.8118V15.3691C41.895 15.1745 41.9196 14.9948 41.9682 14.8302C42.0169 14.666 42.088 14.5249 42.1816 14.4062C42.2746 14.2864 42.389 14.1934 42.5237 14.1266C42.6601 14.0597 42.8162 14.026 42.9915 14.026C43.1685 14.026 43.3263 14.0597 43.4658 14.1266C43.6064 14.1934 43.7256 14.2864 43.823 14.4062C43.9202 14.5249 43.9946 14.666 44.0464 14.8302C44.0978 14.9948 44.1234 15.1745 44.1234 15.3691V15.8118ZM43.5283 15.3648C43.5283 15.2413 43.5182 15.1269 43.4968 15.0226C43.4775 14.9178 43.446 14.828 43.4032 14.7532C43.3599 14.6778 43.3043 14.6195 43.2359 14.5778C43.1691 14.5345 43.0878 14.5131 42.9915 14.5131C42.8969 14.5131 42.8178 14.5345 42.7536 14.5778C42.6895 14.6195 42.6382 14.6778 42.5991 14.7532C42.5601 14.828 42.5323 14.9178 42.5157 15.0226C42.4986 15.1269 42.4906 15.2413 42.4906 15.3648V15.8118C42.4906 15.9342 42.4986 16.0481 42.5157 16.1524C42.5323 16.2566 42.5601 16.3475 42.5991 16.424C42.6382 16.5004 42.6895 16.5603 42.7536 16.6036C42.8178 16.6464 42.8975 16.6683 42.9937 16.6683C43.0883 16.6683 43.1691 16.6464 43.2359 16.6036C43.3043 16.5603 43.3594 16.501 43.4011 16.4261C43.4444 16.3491 43.4759 16.2588 43.4968 16.1545C43.5182 16.0502 43.5283 15.9358 43.5283 15.8118V15.3648ZM16.9379 20.8055V21.9207H16.3508V18.8796H17.3907C17.5565 18.8796 17.7062 18.9042 17.8399 18.9529C17.9735 19.0005 18.0868 19.0673 18.1804 19.1534C18.2751 19.2384 18.3472 19.3405 18.3975 19.4603C18.4494 19.58 18.475 19.7132 18.475 19.8597C18.475 19.996 18.4494 20.1216 18.3975 20.2377C18.3472 20.3531 18.2751 20.4531 18.1804 20.5381C18.0868 20.6215 17.9735 20.6873 17.8399 20.7343C17.7062 20.7819 17.5565 20.8055 17.3907 20.8055H16.9379ZM16.9379 20.3291H17.3907C17.4747 20.3291 17.5468 20.3168 17.6084 20.2917C17.6693 20.2665 17.7201 20.2323 17.7607 20.1895C17.8024 20.1462 17.8329 20.097 17.8527 20.0409C17.8735 19.9842 17.8837 19.9249 17.8837 19.8634C17.8837 19.7928 17.8735 19.7265 17.8527 19.665C17.8329 19.6041 17.8024 19.5501 17.7607 19.5041C17.7201 19.4587 17.6693 19.4223 17.6084 19.3956C17.5468 19.3694 17.4747 19.356 17.3907 19.356H16.9379V20.3291ZM20.3773 21.2856H19.4647L19.285 21.9207H18.667L19.663 18.8796H20.1955L21.1734 21.9207H20.5548L20.3773 21.2856ZM19.609 20.7867H20.2394L19.9282 19.6672L19.609 20.7867ZM23.5793 19.7046C23.5793 19.7746 23.5681 19.8415 23.5457 19.9051C23.5248 19.9693 23.4943 20.0302 23.4537 20.0869C23.4136 20.1425 23.3639 20.1938 23.3056 20.2393C23.2468 20.2852 23.181 20.3253 23.1073 20.3585C23.2757 20.4173 23.4035 20.506 23.4917 20.6258C23.5804 20.744 23.6253 20.8921 23.6253 21.0685C23.6253 21.2107 23.5959 21.3374 23.5371 21.4486C23.4804 21.5604 23.4003 21.6539 23.297 21.7309C23.1955 21.8058 23.0731 21.8635 22.9298 21.9042C22.7875 21.9432 22.6325 21.9624 22.4641 21.9624C22.3272 21.9624 22.1925 21.9459 22.0588 21.9122C21.9251 21.8774 21.8048 21.8245 21.6974 21.7539C21.5915 21.6812 21.5054 21.5893 21.4386 21.478C21.3728 21.3668 21.3402 21.2332 21.3402 21.0771H21.9294C21.9294 21.1353 21.9417 21.1899 21.9668 21.2401C21.993 21.2899 22.0299 21.3337 22.0775 21.3717C22.1251 21.4091 22.1812 21.439 22.2465 21.4615C22.3122 21.4823 22.3844 21.4925 22.4641 21.4925C22.556 21.4925 22.6373 21.4823 22.7084 21.4615C22.779 21.439 22.8388 21.4085 22.8881 21.3695C22.9367 21.3305 22.9736 21.285 22.9987 21.2337C23.0233 21.1808 23.0361 21.1236 23.0361 21.0626C23.0361 20.8995 22.9902 20.7819 22.8982 20.7092C22.8078 20.637 22.6742 20.6007 22.4972 20.6007H22.0877V20.1414H22.4972C22.5849 20.1414 22.6598 20.1318 22.7207 20.112C22.7832 20.0912 22.8341 20.0617 22.8731 20.0243C22.9137 19.9869 22.9426 19.942 22.9608 19.8907C22.9805 19.8377 22.9902 19.7794 22.9902 19.7153C22.9902 19.6608 22.9795 19.6094 22.9586 19.5608C22.9378 19.5105 22.9057 19.4672 22.8629 19.4314C22.8196 19.395 22.7645 19.3667 22.6977 19.3458C22.6325 19.3234 22.5544 19.3122 22.4641 19.3122C22.394 19.3122 22.3293 19.3213 22.2694 19.3394C22.2096 19.3576 22.1577 19.3833 22.1128 19.4164C22.07 19.4501 22.0353 19.4902 22.0085 19.5378C21.9834 19.5854 21.9711 19.6378 21.9711 19.6966H21.3841C21.3841 19.5629 21.4124 19.4432 21.4696 19.3373C21.5284 19.2314 21.607 19.1416 21.7059 19.0678C21.8048 18.994 21.9187 18.9379 22.0481 18.8989C22.1791 18.8582 22.3176 18.8379 22.4641 18.8379C22.6325 18.8379 22.7854 18.8572 22.9233 18.8946C23.0613 18.931 23.1784 18.9855 23.2741 19.0593C23.3719 19.132 23.4468 19.2223 23.4997 19.3309C23.5526 19.4383 23.5793 19.5629 23.5793 19.7046ZM24.0156 21.9207V18.8796H25.0368C25.2026 18.8796 25.3528 18.8967 25.4881 18.9299C25.6244 18.9636 25.741 19.0144 25.8366 19.0823C25.9329 19.1507 26.0067 19.2368 26.058 19.3416C26.1109 19.4458 26.1377 19.5693 26.1377 19.711C26.1361 19.8532 26.0976 19.9805 26.0227 20.0933C25.9489 20.2061 25.8393 20.2917 25.695 20.3499C25.7827 20.3724 25.8586 20.4061 25.9222 20.4504C25.9864 20.4948 26.0393 20.5478 26.081 20.6092C26.1243 20.6691 26.1559 20.7354 26.1751 20.8076C26.1959 20.8787 26.2066 20.9525 26.2066 21.0289C26.2066 21.1749 26.1815 21.3037 26.1313 21.4155C26.081 21.5267 26.0093 21.6203 25.9163 21.6951C25.8227 21.7705 25.7094 21.8266 25.5757 21.8646C25.4421 21.902 25.2918 21.9207 25.1245 21.9207H24.0156ZM24.6048 20.5798V21.4465H25.1266C25.287 21.4454 25.4084 21.4064 25.4923 21.3299C25.5773 21.2519 25.6196 21.1503 25.6196 21.0247C25.6212 20.8856 25.5832 20.7771 25.5068 20.6991C25.4303 20.621 25.3116 20.5814 25.1518 20.5798H24.6048ZM24.6048 20.1558H25.0411C25.2042 20.1548 25.3293 20.1206 25.417 20.0537C25.5046 19.9869 25.549 19.8885 25.5506 19.7591C25.5506 19.6169 25.5068 19.5153 25.4191 19.4544C25.3314 19.3918 25.2047 19.3598 25.0389 19.3581H24.6048V20.1558ZM27.9961 18.8796H28.5853V21.9207H27.9961V19.9805L27.1337 21.9207H26.5467V18.8796H27.1337V20.822L27.9961 18.8796ZM31.3923 19.3581H30.4545V21.9207H29.8653V19.3581H28.9403V18.8796H31.3923V19.3581ZM33.1342 18.8796H33.7228V21.9207H33.1342V19.9805L32.2712 21.9207H31.6847V18.8796H32.2712V20.822L33.1342 18.8796ZM35.6107 21.9207V20.7242H35.1412L34.5686 21.9207H33.9399L34.598 20.5467C34.4366 20.467 34.313 20.3644 34.2286 20.2377C34.1446 20.1093 34.1029 19.9548 34.1029 19.7736C34.1029 19.6276 34.1286 19.4988 34.1805 19.3875C34.2318 19.2758 34.3056 19.1828 34.4018 19.1074C34.4991 19.0325 34.6167 18.9759 34.7547 18.9384C34.8926 18.8994 35.0472 18.8796 35.2182 18.8796H36.1998V21.9207H35.6107ZM34.69 19.8094C34.69 19.9682 34.7338 20.0858 34.8215 20.1623C34.9092 20.2377 35.0412 20.2751 35.2182 20.2751H35.6107V19.356H35.2182C35.0375 19.356 34.9039 19.3956 34.8172 19.4752C34.7322 19.5544 34.69 19.6661 34.69 19.8094Z" fill="white"/>
</g>
<defs>
<clipPath id="clip0_590_431">
<rect width="54" height="54" fill="white"/>
</clipPath>
</defs>
</svg>
