<svg width="53" height="54" viewBox="0 0 53 54" fill="none" xmlns="http://www.w3.org/2000/svg">
<g clip-path="url(#clip0_590_235)">
<mask id="mask0_590_235" style="mask-type:luminance" maskUnits="userSpaceOnUse" x="0" y="0" width="53" height="54">
<path d="M53 0H0V54H53V0Z" fill="white"/>
</mask>
<g mask="url(#mask0_590_235)">
<path d="M53 0H0V54H53V0Z" fill="#566D79"/>
<path fill-rule="evenodd" clip-rule="evenodd" d="M44.6611 33.7973C44.6611 32.2869 43.7342 31.0596 42.2518 31.0596C41.5108 31.0596 40.6766 31.9092 40.2134 32.3812C39.7502 31.9092 38.9159 31.0596 38.175 31.0596C36.7848 31.0596 35.7656 32.2869 35.7656 33.7973C35.7656 34.5526 36.0439 35.2134 36.5071 35.7799L40.2134 39.5561L43.9197 35.7799C44.3829 35.2134 44.6611 34.5526 44.6611 33.7973Z" fill="white"/>
<path fill-rule="evenodd" clip-rule="evenodd" d="M28.909 45.6922C28.6312 45.6922 28.353 45.5034 28.2608 45.1258L26.4073 33.9859L23.5353 39.367C23.4425 39.5558 23.1643 39.7447 22.8866 39.6502C22.6083 39.5558 22.4233 39.367 22.4233 39.0838L21.2187 30.4929L18.9948 35.5908C18.902 35.7796 18.7171 35.9684 18.4388 35.9684H9.82153C9.45106 35.9684 9.17334 35.6852 9.17334 35.3076C9.17334 34.9299 9.45106 34.6467 9.82153 34.6467H18.0683L20.9404 27.9439C21.0331 27.6607 21.3114 27.5663 21.5891 27.5663C21.8674 27.5663 22.0523 27.8495 22.1451 28.1327L23.4425 37.0069L26.2219 31.7202C26.3146 31.5314 26.5928 31.3425 26.8706 31.4369C27.1488 31.4369 27.3338 31.7202 27.3338 31.909L29.0944 42.2936L35.4878 20.7691C35.5806 20.4859 35.7656 20.2971 36.0438 20.2971C36.3215 20.2971 36.507 20.3915 36.6925 20.6747L40.0278 27.7552C40.2133 28.0384 40.0278 28.416 39.7501 28.6048C39.4719 28.6992 39.1014 28.6048 38.9159 28.3216L36.2293 22.6572L29.4649 45.2202C29.3727 45.5034 29.1872 45.6922 28.909 45.6922Z" fill="white"/>
<path fill-rule="evenodd" clip-rule="evenodd" d="M7.96844 15.6713C9.72857 15.6713 10.5628 14.7273 10.5628 13.2168V11.6119C10.5628 10.5735 10.1923 9.91263 9.26535 9.72379C10.0068 9.44058 10.47 8.87417 10.47 7.93008V6.98604C10.47 5.47554 9.72857 4.53149 8.15341 4.53149C6.30053 4.53149 5.65181 5.66438 5.65181 7.26925V8.21328H7.22697V6.98604C7.22697 6.32521 7.41247 5.94758 7.96844 5.94758C8.52441 5.94758 8.70938 6.32521 8.70938 6.89162V8.0245C8.70938 8.59091 8.33891 8.87417 7.78294 8.87417H7.13422V10.3846H7.87569C8.52441 10.3846 8.70938 10.6679 8.70938 11.2343V13.028C8.70938 13.5944 8.43166 13.972 7.87569 13.972C7.31972 13.972 7.04147 13.5944 7.04147 12.9336V11.3287H5.46631V12.7448C5.55906 14.5385 6.11503 15.6713 7.96844 15.6713Z" fill="white"/>
<path fill-rule="evenodd" clip-rule="evenodd" d="M16.7711 6.79728H17.8831V9.25187H17.3271V8.77983C17.2343 9.15745 17.0488 9.34624 16.5856 9.34624C15.9369 9.34624 15.6592 8.87425 15.6592 8.119V5.85324C15.6592 5.09801 16.0296 4.62598 16.7711 4.62598C17.6048 4.62598 17.8831 5.09801 17.8831 5.75882V6.13645H17.1416V5.75882C17.1416 5.47562 17.0488 5.28681 16.7711 5.28681C16.4929 5.28681 16.4001 5.47562 16.4001 5.75882V8.21342C16.4001 8.49662 16.4929 8.68541 16.7711 8.68541C17.0488 8.68541 17.1416 8.59099 17.1416 8.21342V7.45816H16.7711V6.79728Z" fill="white"/>
<path fill-rule="evenodd" clip-rule="evenodd" d="M18.3462 8.02458V5.85324C18.3462 5.09801 18.7172 4.62598 19.4581 4.62598C20.1996 4.62598 20.5701 5.09801 20.5701 5.85324V8.02458C20.5701 8.77983 20.1996 9.25187 19.4581 9.25187C18.7172 9.25187 18.3462 8.77983 18.3462 8.02458ZM19.8286 8.21336V5.75882C19.8286 5.47562 19.7364 5.28681 19.4581 5.28681C19.1804 5.28681 19.0877 5.47562 19.0877 5.75882V8.21336C19.0877 8.49662 19.1804 8.68541 19.4581 8.68541C19.7364 8.68541 19.8286 8.49662 19.8286 8.21336Z" fill="white"/>
<path fill-rule="evenodd" clip-rule="evenodd" d="M20.9409 8.02458V5.85324C20.9409 5.09801 21.3114 4.62598 22.0529 4.62598C22.7938 4.62598 23.1648 5.09801 23.1648 5.85324V8.02458C23.1648 8.77983 22.7938 9.25187 22.0529 9.25187C21.3114 9.25187 20.9409 8.77983 20.9409 8.02458ZM22.4233 8.21336V5.75882C22.4233 5.47562 22.3306 5.28681 22.0529 5.28681C21.7746 5.28681 21.6819 5.47562 21.6819 5.75882V8.21336C21.6819 8.49662 21.7746 8.68541 22.0529 8.68541C22.3306 8.68541 22.4233 8.49662 22.4233 8.21336Z" fill="white"/>
<path fill-rule="evenodd" clip-rule="evenodd" d="M25.8513 5.85324V7.93016C25.8513 8.59099 25.5731 9.15745 24.7394 9.15745H23.6274V4.62598H24.7394C25.5731 4.62598 25.8513 5.19241 25.8513 5.85324ZM24.7394 8.59099C25.0171 8.59099 25.2026 8.4022 25.2026 8.119V5.75882C25.2026 5.47562 25.1098 5.28681 24.7394 5.28681H24.4617V8.59099H24.7394Z" fill="white"/>
<path fill-rule="evenodd" clip-rule="evenodd" d="M28.5385 7.1749H27.7971V9.15745H26.9634V4.62598H27.7971V6.51407H28.5385V4.62598H29.28V9.15745H28.5385V7.1749Z" fill="white"/>
<path fill-rule="evenodd" clip-rule="evenodd" d="M29.6504 4.62598H31.411V5.28681H30.3919V6.51407H31.1333V7.1749H30.3919V8.59099H31.411V9.15745H29.6504V4.62598Z" fill="white"/>
<path fill-rule="evenodd" clip-rule="evenodd" d="M31.7812 9.15745L32.6149 4.62598H33.4492L34.2829 9.15745H33.5419L33.4492 8.30778H32.6149L32.5222 9.15745H31.7812ZM32.7077 7.74137H33.3564L33.0782 5.94766L32.7077 7.74137Z" fill="white"/>
<path fill-rule="evenodd" clip-rule="evenodd" d="M34.6543 4.62598H35.3952V8.59099H36.3222V9.15745H34.6543V4.62598Z" fill="white"/>
<path fill-rule="evenodd" clip-rule="evenodd" d="M36.1362 4.62598H38.0819V5.28681H37.5259V9.15745H36.6922V5.28681H36.1362V4.62598Z" fill="white"/>
<path fill-rule="evenodd" clip-rule="evenodd" d="M39.9355 7.1749H39.1941V9.15745H38.4531V4.62598H39.1941V6.51407H39.9355V4.62598H40.677V9.15745H39.9355V7.1749Z" fill="white"/>
<path fill-rule="evenodd" clip-rule="evenodd" d="M15.5664 15.6713L16.4006 11.1399H17.2343L18.068 15.6713H17.3271L17.2343 14.8217H16.4006L16.3079 15.6713H15.5664ZM16.4928 14.1608H17.0488L16.7711 12.3671L16.4928 14.1608Z" fill="white"/>
<path fill-rule="evenodd" clip-rule="evenodd" d="M18.9945 12.7448V15.6713H18.4385V11.1399H19.0872L19.9209 13.6889V11.1399H20.5696V15.6713H19.9209L18.9945 12.7448Z" fill="white"/>
<path fill-rule="evenodd" clip-rule="evenodd" d="M23.1648 12.2727V14.3496C23.1648 15.0104 22.8866 15.5769 22.0529 15.5769H20.9409V11.0454H22.0529C22.8866 11.1398 23.1648 11.6118 23.1648 12.2727ZM22.0529 15.0104C22.3306 15.0104 22.5161 14.8216 22.5161 14.5384V12.1782C22.5161 11.895 22.4233 11.7062 22.0529 11.7062H21.7746V15.0104H22.0529Z" fill="white"/>
<path fill-rule="evenodd" clip-rule="evenodd" d="M25.9447 12.8392L25.481 15.6713H24.8328L24.1841 11.1399H24.925L25.296 13.9721L25.6665 11.1399H26.2225L26.6857 13.9721L27.0562 11.1399H27.6121L27.0562 15.6713H26.408L25.9447 12.8392Z" fill="white"/>
<path fill-rule="evenodd" clip-rule="evenodd" d="M27.9824 11.1399H29.8353V11.7063H28.7234V13.028H29.5576V13.5944H28.7234V15.0105H29.8353V15.6713H27.9824V11.1399Z" fill="white"/>
<path fill-rule="evenodd" clip-rule="evenodd" d="M30.2061 11.1399H30.9475V15.0105H31.874V15.6713H30.2061V11.1399Z" fill="white"/>
<path fill-rule="evenodd" clip-rule="evenodd" d="M32.2446 11.1399H32.9856V15.0105H33.9125V15.6713H32.2446V11.1399Z" fill="white"/>
<path d="M34.7467 13.1223H33.7275V13.7831H34.7467V13.1223Z" fill="white"/>
<path fill-rule="evenodd" clip-rule="evenodd" d="M35.21 11.1399H36.3214C37.0628 11.1399 37.3411 11.5175 37.3411 12.0839V12.556C37.3411 12.9336 37.2483 13.2168 36.8773 13.3112C37.2483 13.4056 37.4333 13.6889 37.4333 14.0665V14.6329C37.4333 15.2937 37.1556 15.5769 36.4141 15.5769H35.21V11.1399ZM35.9509 13.028H36.2292C36.5069 13.028 36.5996 12.9336 36.5996 12.6504V12.0839C36.5996 11.8007 36.5069 11.7063 36.2292 11.7063H35.9509V13.028ZM35.9509 13.5944V15.0105H36.3214C36.5996 15.0105 36.6924 14.9161 36.6924 14.6329V13.9721C36.6924 13.7832 36.5996 13.5944 36.3214 13.5944H35.9509Z" fill="white"/>
<path fill-rule="evenodd" clip-rule="evenodd" d="M37.8042 11.1399H39.5649V11.7063H38.5457V13.028H39.2866V13.5944H38.5457V15.0105H39.5649V15.6713H37.8042V11.1399Z" fill="white"/>
<path d="M40.6766 11.1399H40.0278V15.6713H40.6766V11.1399Z" fill="white"/>
<path fill-rule="evenodd" clip-rule="evenodd" d="M41.7884 12.7448V15.6713H41.1396V11.1399H41.8811L42.7148 13.6889V11.1399H43.3635V15.6713H42.6221L41.7884 12.7448Z" fill="white"/>
<path fill-rule="evenodd" clip-rule="evenodd" d="M44.9386 13.1223H46.0505V15.5769H45.4946V15.1048C45.4018 15.4824 45.2169 15.6713 44.7536 15.6713C44.1049 15.6713 43.8267 15.1992 43.8267 14.444V12.2727C43.8267 11.5174 44.1977 11.0454 44.9386 11.0454C45.7728 11.0454 46.0505 11.5174 46.0505 12.1782V12.5559H45.3096V12.0839C45.3096 11.8006 45.2169 11.6118 44.9386 11.6118C44.6609 11.6118 44.5681 11.8006 44.5681 12.0839V14.5384C44.5681 14.8216 44.6609 15.0104 44.9386 15.0104C45.2169 15.0104 45.3096 14.916 45.3096 14.5384V13.6887H44.9386V13.1223Z" fill="white"/>
<path d="M48.7598 3.20801H14.8398V20.3169H48.7598V3.20801Z" fill="#566D79"/>
<path d="M15.0719 6.06923L15.6078 4.97902H16.2909L15.4424 6.48691L16.3116 8.01986H15.6327L15.0799 6.91297L14.5292 8.01986H13.8418L14.7115 6.48691L13.8646 4.97902H14.5435L15.0719 6.06923ZM18.7008 6.7229C18.7008 6.91784 18.6754 7.09743 18.6245 7.26173C18.5731 7.42603 18.4994 7.56733 18.403 7.68571C18.306 7.80408 18.1883 7.89663 18.0489 7.96346C17.9106 8.0289 17.7548 8.06162 17.5809 8.06162C17.4071 8.06162 17.2523 8.0289 17.1172 7.96346C16.982 7.89663 16.8681 7.80408 16.7753 7.68571C16.6831 7.56594 16.6126 7.42463 16.5644 7.26173C16.5162 7.09743 16.4918 6.91784 16.4918 6.7229V6.28016C16.4918 6.08522 16.5162 5.90563 16.5644 5.74133C16.6126 5.57703 16.6831 5.43572 16.7753 5.31736C16.8681 5.19762 16.981 5.10434 17.1151 5.0375C17.2502 4.97067 17.405 4.93726 17.5788 4.93726C17.7543 4.93726 17.9106 4.97067 18.0489 5.0375C18.1883 5.10434 18.306 5.19762 18.403 5.31736C18.4994 5.43572 18.5731 5.57703 18.6245 5.74133C18.6754 5.90563 18.7008 6.08522 18.7008 6.28016V6.7229ZM18.1109 6.27599C18.1109 6.15205 18.1003 6.0379 18.0797 5.93349C18.0606 5.82902 18.0293 5.73925 17.9869 5.66407C17.944 5.58885 17.8889 5.53041 17.821 5.4886C17.7548 5.44545 17.6742 5.42385 17.5788 5.42385C17.485 5.42385 17.406 5.44545 17.343 5.4886C17.2794 5.53041 17.2285 5.58885 17.1898 5.66407C17.1511 5.73925 17.1236 5.82902 17.1066 5.93349C17.0902 6.0379 17.0817 6.15205 17.0817 6.27599V6.7229C17.0817 6.84544 17.0902 6.9589 17.1066 7.06332C17.1236 7.16773 17.1511 7.25825 17.1898 7.33487C17.2285 7.41143 17.2794 7.47131 17.343 7.51446C17.406 7.5576 17.4855 7.5792 17.5809 7.5792C17.6748 7.5792 17.7548 7.5576 17.821 7.51446C17.8889 7.47131 17.9429 7.41212 17.9848 7.33695C18.0272 7.26034 18.059 7.16987 18.0797 7.0654C18.1003 6.96098 18.1109 6.84683 18.1109 6.7229V6.27599ZM19.763 6.90463V8.01986H19.181V4.97902H20.2124C20.3767 4.97902 20.5251 5.00339 20.6576 5.05212C20.7901 5.09946 20.9025 5.16629 20.9947 5.25262C21.0885 5.33755 21.1606 5.43989 21.2104 5.5596C21.2613 5.67937 21.2867 5.81233 21.2867 5.95851C21.2867 6.09495 21.2613 6.22097 21.2104 6.33656C21.1606 6.4521 21.0885 6.55235 20.9947 6.6373C20.9025 6.72082 20.7901 6.78626 20.6576 6.83358C20.5251 6.88095 20.3767 6.90463 20.2124 6.90463H19.763ZM19.763 6.42842H20.2124C20.2951 6.42842 20.3666 6.4159 20.4276 6.39083C20.4885 6.36575 20.5389 6.33164 20.5786 6.2885C20.62 6.24535 20.6507 6.19589 20.6698 6.14024C20.6905 6.08314 20.7011 6.02395 20.7011 5.96268C20.7011 5.89168 20.6905 5.82554 20.6698 5.76427C20.6507 5.70305 20.62 5.64942 20.5786 5.6035C20.5389 5.55752 20.4885 5.52132 20.4276 5.49486C20.3666 5.46844 20.2951 5.45519 20.2124 5.45519H19.763V6.42842ZM23.7941 6.7229C23.7941 6.91784 23.7682 7.09743 23.7173 7.26173C23.6664 7.42603 23.5922 7.56733 23.4957 7.68571C23.3993 7.80408 23.2811 7.89663 23.1417 7.96346C23.0039 8.0289 22.8476 8.06162 22.6737 8.06162C22.4999 8.06162 22.3451 8.0289 22.21 7.96346C22.0748 7.89663 21.9609 7.80408 21.8686 7.68571C21.7759 7.56594 21.7054 7.42463 21.6572 7.26173C21.6089 7.09743 21.5851 6.91784 21.5851 6.7229V6.28016C21.5851 6.08522 21.6089 5.90563 21.6572 5.74133C21.7054 5.57703 21.7759 5.43572 21.8686 5.31736C21.9609 5.19762 22.0743 5.10434 22.2078 5.0375C22.3435 4.97067 22.4978 4.93726 22.6716 4.93726C22.847 4.93726 23.0039 4.97067 23.1417 5.0375C23.2811 5.10434 23.3993 5.19762 23.4957 5.31736C23.5922 5.43572 23.6664 5.57703 23.7173 5.74133C23.7682 5.90563 23.7941 6.08522 23.7941 6.28016V6.7229ZM23.2037 6.27599C23.2037 6.15205 23.1936 6.0379 23.173 5.93349C23.1534 5.82902 23.1226 5.73925 23.0797 5.66407C23.0368 5.58885 22.9816 5.53041 22.9138 5.4886C22.8476 5.44545 22.767 5.42385 22.6716 5.42385C22.5778 5.42385 22.4993 5.44545 22.4357 5.4886C22.3721 5.53041 22.3213 5.58885 22.2826 5.66407C22.2439 5.73925 22.2163 5.82902 22.1999 5.93349C22.1829 6.0379 22.175 6.15205 22.175 6.27599V6.7229C22.175 6.84544 22.1829 6.9589 22.1999 7.06332C22.2163 7.16773 22.2439 7.25825 22.2826 7.33487C22.3213 7.41143 22.3721 7.47131 22.4357 7.51446C22.4993 7.5576 22.5788 7.5792 22.6737 7.5792C22.7675 7.5792 22.8476 7.5576 22.9138 7.51446C22.9816 7.47131 23.0362 7.41212 23.0776 7.33695C23.1205 7.26034 23.1523 7.16987 23.173 7.0654C23.1936 6.96098 23.2037 6.84683 23.2037 6.7229V6.27599ZM24.7004 4.97902V7.54787H24.9903V4.97902H25.5394V7.54787H25.8251V4.97902H26.3901V8.01986H24.1333V4.97902H24.7004ZM28.6383 6.6874H27.4003V7.54579H28.8477V8.01986H26.8167V4.97902H28.8413V5.45727H27.4003V6.22375H28.6383V6.6874ZM31.185 6.6874H29.9469V7.54579H31.3938V8.01986H29.3628V4.97902H31.388V5.45727H29.9469V6.22375H31.185V6.6874ZM16.1605 10.6159C16.1605 10.6855 16.1494 10.7523 16.1277 10.8164C16.107 10.8804 16.0763 10.9409 16.0365 10.998C15.9962 11.0538 15.9475 11.1045 15.8892 11.1505C15.8314 11.1965 15.7657 11.2361 15.6926 11.2695C15.8595 11.328 15.9867 11.4172 16.0736 11.5369C16.1621 11.6552 16.2061 11.8028 16.2061 11.9796C16.2061 12.1217 16.177 12.2484 16.1192 12.3598C16.0625 12.4711 15.9835 12.5651 15.8812 12.6417C15.7805 12.7169 15.6592 12.7746 15.5166 12.8151C15.3761 12.854 15.2219 12.8735 15.055 12.8735C14.9198 12.8735 14.7857 12.8568 14.6532 12.8234C14.5207 12.7886 14.4015 12.7357 14.2955 12.6647C14.1905 12.5923 14.1047 12.5004 14.0384 12.389C13.9738 12.2776 13.9414 12.1439 13.9414 11.988H14.525C14.525 12.0464 14.5377 12.1008 14.5626 12.1509C14.5886 12.201 14.6251 12.2449 14.6723 12.2825C14.7189 12.3201 14.7751 12.35 14.8398 12.3723C14.9044 12.3932 14.9765 12.4036 15.055 12.4036C15.1461 12.4036 15.2267 12.3932 15.2972 12.3723C15.3677 12.35 15.427 12.3194 15.4753 12.2804C15.5235 12.2414 15.5601 12.1961 15.585 12.1446C15.6099 12.0917 15.6226 12.0346 15.6226 11.9734C15.6226 11.8105 15.577 11.6928 15.4859 11.6204C15.3958 11.548 15.2633 11.5118 15.0884 11.5118H14.6824V11.0524H15.0884C15.1753 11.0524 15.2489 11.0426 15.3099 11.0231C15.3719 11.0022 15.4223 10.973 15.4609 10.9354C15.5007 10.8978 15.5298 10.8533 15.5479 10.8017C15.5669 10.7488 15.577 10.6904 15.577 10.6263C15.577 10.572 15.5664 10.5205 15.5457 10.4717C15.5251 10.4216 15.4933 10.3785 15.4503 10.3423C15.4079 10.306 15.3534 10.2775 15.2871 10.2566C15.2219 10.2343 15.1451 10.2232 15.055 10.2232C14.9861 10.2232 14.9219 10.2323 14.8626 10.2504C14.8032 10.2685 14.7513 10.2942 14.7073 10.3276C14.6644 10.3611 14.6299 10.4014 14.6039 10.4488C14.579 10.4961 14.5663 10.549 14.5663 10.6075H13.9849C13.9849 10.4738 14.013 10.3541 14.0697 10.2483C14.1275 10.1425 14.2054 10.0527 14.3034 9.97889C14.4015 9.90505 14.5149 9.8487 14.6432 9.80972C14.773 9.7693 14.9103 9.74915 15.055 9.74915C15.2219 9.74915 15.374 9.76791 15.5108 9.8055C15.647 9.84175 15.763 9.89671 15.8584 9.97049C15.9549 10.0429 16.0296 10.1334 16.0821 10.242C16.1346 10.3492 16.1605 10.4738 16.1605 10.6159ZM18.6431 13.5794H18.1417V12.8317H17.0011V13.5794H16.5103L16.4192 12.3598H16.531C16.5946 12.3263 16.6497 12.2797 16.6969 12.2198C16.7435 12.16 16.7833 12.0792 16.8151 11.9775C16.8464 11.8745 16.8723 11.7471 16.8914 11.5954C16.911 11.4422 16.9248 11.2556 16.9328 11.0356L17.0154 9.7909H18.5042V12.3598H18.7257L18.6431 13.5794ZM17.5168 11.0356C17.5099 11.1985 17.4993 11.3462 17.4855 11.4784C17.4734 11.6107 17.4569 11.7311 17.4357 11.8397C17.4151 11.9469 17.3912 12.0437 17.3636 12.13C17.3361 12.215 17.3053 12.2915 17.2725 12.3598H17.9244V10.2671H17.5666L17.5168 11.0356ZM21.2475 11.5348C21.2475 11.7297 21.222 11.9093 21.1706 12.0736C21.1198 12.2379 21.0461 12.3792 20.9491 12.4976C20.8526 12.616 20.7344 12.7085 20.5951 12.7753C20.4573 12.8408 20.3014 12.8735 20.1276 12.8735C19.9532 12.8735 19.799 12.8408 19.6638 12.7753C19.5282 12.7085 19.4147 12.616 19.322 12.4976C19.2298 12.3778 19.1593 12.2365 19.1111 12.0736C19.0623 11.9093 19.0384 11.7297 19.0384 11.5348V11.092C19.0384 10.8971 19.0623 10.7175 19.1111 10.5532C19.1593 10.3889 19.2298 10.2476 19.322 10.1292C19.4147 10.0095 19.5276 9.91623 19.6617 9.8494C19.7969 9.78256 19.9516 9.74915 20.1255 9.74915C20.3004 9.74915 20.4573 9.78256 20.5951 9.8494C20.7344 9.91623 20.8526 10.0095 20.9491 10.1292C21.0461 10.2476 21.1198 10.3889 21.1706 10.5532C21.222 10.7175 21.2475 10.8971 21.2475 11.092V11.5348ZM20.6576 11.0879C20.6576 10.9639 20.647 10.8498 20.6263 10.7454C20.6072 10.6409 20.576 10.5511 20.533 10.476C20.4901 10.4007 20.435 10.3423 20.3677 10.3005C20.3014 10.2573 20.2203 10.2357 20.1255 10.2357C20.0317 10.2357 19.9527 10.2573 19.8891 10.3005C19.826 10.3423 19.7746 10.4007 19.7359 10.476C19.6972 10.5511 19.6697 10.6409 19.6532 10.7454C19.6368 10.8498 19.6283 10.9639 19.6283 11.0879V11.5348C19.6283 11.6573 19.6368 11.7708 19.6532 11.8752C19.6697 11.9796 19.6972 12.0701 19.7359 12.1467C19.7746 12.2233 19.826 12.2832 19.8891 12.3263C19.9527 12.3695 20.0322 12.3911 20.1276 12.3911C20.2214 12.3911 20.3014 12.3695 20.3677 12.3263C20.435 12.2832 20.4896 12.224 20.5309 12.1488C20.5739 12.0722 20.6057 11.9818 20.6263 11.8773C20.647 11.7729 20.6576 11.6587 20.6576 11.5348V11.0879ZM22.3096 11.7165V12.8317H21.7277V9.7909H22.7585C22.9228 9.7909 23.0712 9.81529 23.2037 9.86399C23.3362 9.91136 23.4486 9.97819 23.5413 10.0645C23.6351 10.1494 23.7067 10.2518 23.7565 10.3715C23.8079 10.4912 23.8334 10.6242 23.8334 10.7704C23.8334 10.9068 23.8079 11.0329 23.7565 11.1484C23.7067 11.264 23.6351 11.3642 23.5413 11.4492C23.4486 11.5327 23.3362 11.5981 23.2037 11.6455C23.0712 11.6928 22.9228 11.7165 22.7585 11.7165H22.3096ZM22.3096 11.2403H22.7585C22.8417 11.2403 22.9133 11.2278 22.9742 11.2027C23.0346 11.1776 23.085 11.1435 23.1253 11.1004C23.1666 11.0572 23.1968 11.0078 23.2164 10.9521C23.2371 10.895 23.2472 10.8358 23.2472 10.7746C23.2472 10.7036 23.2371 10.6374 23.2164 10.5762C23.1968 10.5149 23.1666 10.4613 23.1253 10.4154C23.085 10.3694 23.0346 10.3332 22.9742 10.3067C22.9133 10.2803 22.8417 10.2671 22.7585 10.2671H22.3096V11.2403ZM26.3403 11.5348C26.3403 11.7297 26.3148 11.9093 26.2639 12.0736C26.2125 12.2379 26.1389 12.3792 26.0424 12.4976C25.9454 12.616 25.8277 12.7085 25.6884 12.7753C25.55 12.8408 25.3942 12.8735 25.2204 12.8735C25.0465 12.8735 24.8918 12.8408 24.7566 12.7753C24.6215 12.7085 24.5075 12.616 24.4148 12.4976C24.3225 12.3778 24.2521 12.2365 24.2038 12.0736C24.1556 11.9093 24.1312 11.7297 24.1312 11.5348V11.092C24.1312 10.8971 24.1556 10.7175 24.2038 10.5532C24.2521 10.3889 24.3225 10.2476 24.4148 10.1292C24.5075 10.0095 24.6204 9.91623 24.7545 9.8494C24.8896 9.78256 25.0444 9.74915 25.2182 9.74915C25.3937 9.74915 25.55 9.78256 25.6884 9.8494C25.8277 9.91623 25.9454 10.0095 26.0424 10.1292C26.1389 10.2476 26.2125 10.3889 26.2639 10.5532C26.3148 10.7175 26.3403 10.8971 26.3403 11.092V11.5348ZM25.7504 11.0879C25.7504 10.9639 25.7398 10.8498 25.7191 10.7454C25.7 10.6409 25.6687 10.5511 25.6263 10.476C25.5834 10.4007 25.5283 10.3423 25.4605 10.3005C25.3942 10.2573 25.3136 10.2357 25.2182 10.2357C25.1244 10.2357 25.046 10.2573 24.9824 10.3005C24.9188 10.3423 24.8679 10.4007 24.8292 10.476C24.7905 10.5511 24.763 10.6409 24.746 10.7454C24.7296 10.8498 24.7216 10.9639 24.7216 11.0879V11.5348C24.7216 11.6573 24.7296 11.7708 24.746 11.8752C24.763 11.9796 24.7905 12.0701 24.8292 12.1467C24.8679 12.2233 24.9188 12.2832 24.9824 12.3263C25.046 12.3695 25.125 12.3911 25.2204 12.3911C25.3142 12.3911 25.3942 12.3695 25.4605 12.3263C25.5283 12.2832 25.5829 12.224 25.6242 12.1488C25.6666 12.0722 25.6984 11.9818 25.7191 11.8773C25.7398 11.7729 25.7504 11.6587 25.7504 11.5348V11.0879ZM26.7791 12.8317V9.7909H27.7919C27.9557 9.7909 28.1051 9.80764 28.2387 9.841C28.3739 9.87447 28.4894 9.92526 28.5848 9.99348C28.6797 10.0617 28.7528 10.1481 28.8042 10.2525C28.8567 10.3569 28.8827 10.4801 28.8827 10.6221C28.8811 10.7641 28.8434 10.8915 28.7687 11.0043C28.6956 11.1171 28.5875 11.2027 28.4438 11.2612C28.5307 11.2835 28.606 11.3169 28.6696 11.3614C28.7332 11.406 28.7851 11.4589 28.827 11.5202C28.8694 11.5801 28.9007 11.6462 28.9198 11.7186C28.9404 11.7896 28.951 11.8634 28.951 11.9399C28.951 12.0862 28.9261 12.215 28.8763 12.3263C28.827 12.4377 28.756 12.531 28.6632 12.6062C28.571 12.6814 28.4581 12.7378 28.3256 12.7753C28.1931 12.8129 28.0442 12.8317 27.8788 12.8317H26.7791ZM27.3632 11.4909V12.3577H27.8804C28.0394 12.3563 28.1603 12.3173 28.243 12.2407C28.3272 12.1627 28.3691 12.0611 28.3691 11.9358C28.3707 11.7966 28.3336 11.688 28.2573 11.61C28.1815 11.532 28.0643 11.4923 27.9053 11.4909H27.3632ZM27.3632 11.067H27.7956C27.9573 11.0656 28.0813 11.0315 28.1682 10.9646C28.2551 10.8978 28.2997 10.7996 28.3007 10.6701C28.3007 10.5281 28.2573 10.4265 28.1703 10.3652C28.0834 10.3026 27.9578 10.2705 27.7935 10.2692H27.3632V11.067ZM29.9135 10.9145H30.2532C30.4271 10.9145 30.5829 10.9375 30.7212 10.9834C30.8606 11.028 30.9778 11.0913 31.0732 11.1735C31.1696 11.2556 31.2438 11.3552 31.2947 11.4721C31.3456 11.5891 31.371 11.7186 31.371 11.8606C31.371 12.0054 31.3456 12.1377 31.2947 12.2574C31.2438 12.3757 31.1696 12.4774 31.0732 12.5623C30.9778 12.6472 30.8606 12.7134 30.7212 12.7607C30.5829 12.8081 30.4271 12.8317 30.2532 12.8317H29.33V9.7909H29.9135V10.9145ZM29.9135 11.3865V12.3598H30.2532C30.3444 12.3598 30.4228 12.3465 30.4891 12.3201C30.5569 12.2936 30.6126 12.2574 30.6571 12.2114C30.7027 12.1655 30.7355 12.1119 30.7562 12.0507C30.7785 11.9894 30.7896 11.9247 30.7896 11.8564C30.7896 11.791 30.7785 11.7297 30.7562 11.6726C30.7355 11.6156 30.7027 11.5661 30.6571 11.5244C30.6126 11.4812 30.5569 11.4478 30.4891 11.4241C30.4228 11.399 30.3444 11.3865 30.2532 11.3865H29.9135ZM33.7316 11.4993H32.4935V12.3577H33.9405V12.8317H31.9095V9.7909H33.9341V10.2692H32.4935V11.0356H33.7316V11.4993ZM15.4466 14.6028H16.0302V17.6436H15.4466V15.7034L14.5912 17.6436H14.0098V14.6028H14.5912V16.5451L15.4466 14.6028ZM21.0964 15.0789H19.728V15.7264H20.0672C20.241 15.7264 20.3974 15.7494 20.5352 15.7953C20.6746 15.8399 20.7917 15.9032 20.8871 15.9853C20.9835 16.0675 21.0577 16.1671 21.1086 16.284C21.1595 16.401 21.1855 16.5305 21.1855 16.6725C21.1855 16.8173 21.1595 16.9495 21.1086 17.0693C21.0577 17.1876 20.9835 17.2893 20.8871 17.3742C20.7917 17.4591 20.6746 17.5253 20.5352 17.5726C20.3974 17.6199 20.241 17.6436 20.0672 17.6436H19.1439V14.6028H21.0964V15.0789ZM19.728 16.1984V17.1716H20.0672C20.1583 17.1716 20.2373 17.1584 20.3036 17.132C20.3709 17.1055 20.427 17.0693 20.471 17.0233C20.5166 16.9774 20.5495 16.9238 20.5701 16.8626C20.5924 16.8013 20.6035 16.7365 20.6035 16.6683C20.6035 16.6029 20.5924 16.5416 20.5701 16.4845C20.5495 16.4275 20.5166 16.378 20.471 16.3362C20.427 16.2931 20.3709 16.2597 20.3036 16.236C20.2373 16.2109 20.1583 16.1984 20.0672 16.1984H19.728ZM23.703 14.6028V17.6436H23.1189V15.0789H22.4956L22.4856 16.1942C22.4813 16.4602 22.4607 16.685 22.4236 16.8688C22.3875 17.0526 22.335 17.2023 22.2661 17.3178C22.1972 17.432 22.1109 17.5148 22.007 17.5664C21.9036 17.6179 21.7828 17.6436 21.645 17.6436H21.4998V17.1716H21.583C21.6503 17.1647 21.7043 17.1445 21.7441 17.1111C21.7854 17.0763 21.8172 17.0219 21.8395 16.9482C21.8628 16.873 21.8787 16.7748 21.8872 16.6537C21.8951 16.5312 21.901 16.378 21.9036 16.1942L21.9163 14.6028H23.703ZM25.7191 17.0087H24.8144L24.6363 17.6436H24.0236L25.011 14.6028H25.5394L26.5083 17.6436H25.8951L25.7191 17.0087ZM24.9575 16.5096H25.5829L25.2744 15.3902L24.9575 16.5096ZM28.7544 15.0789H27.3859V17.6436H26.804V14.6028H28.7544V15.0789ZM31.4335 16.3467C31.4335 16.5416 31.4076 16.7212 31.3567 16.8855C31.3058 17.0498 31.2316 17.1911 31.1352 17.3095C31.0387 17.4278 30.9205 17.5204 30.7811 17.5872C30.6433 17.6527 30.487 17.6854 30.3131 17.6854C30.1393 17.6854 29.9851 17.6527 29.8494 17.5872C29.7142 17.5204 29.6003 17.4278 29.5081 17.3095C29.4153 17.1897 29.3448 17.0484 29.2966 16.8855C29.2484 16.7212 29.2245 16.5416 29.2245 16.3467V15.9039C29.2245 15.709 29.2484 15.5294 29.2966 15.3651C29.3448 15.2008 29.4153 15.0595 29.5081 14.9411C29.6003 14.8214 29.7137 14.7281 29.8473 14.6613C29.9829 14.5944 30.1372 14.561 30.311 14.561C30.4864 14.561 30.6433 14.5944 30.7811 14.6613C30.9205 14.7281 31.0387 14.8214 31.1352 14.9411C31.2316 15.0595 31.3058 15.2008 31.3567 15.3651C31.4076 15.5294 31.4335 15.709 31.4335 15.9039V16.3467ZM30.8431 15.8997C30.8431 15.7758 30.8331 15.6617 30.8124 15.5572C30.7928 15.4528 30.762 15.363 30.7191 15.2878C30.6762 15.2126 30.6211 15.1542 30.5532 15.1124C30.487 15.0692 30.4064 15.0476 30.311 15.0476C30.2172 15.0476 30.1388 15.0692 30.0752 15.1124C30.0116 15.1542 29.9607 15.2126 29.922 15.2878C29.8833 15.363 29.8557 15.4528 29.8393 15.5572C29.8229 15.6617 29.8144 15.7758 29.8144 15.8997V16.3467C29.8144 16.4692 29.8229 16.5827 29.8393 16.6871C29.8557 16.7915 29.8833 16.882 29.922 16.9586C29.9607 17.0352 30.0116 17.0951 30.0752 17.1382C30.1388 17.1814 30.2183 17.203 30.3131 17.203C30.4069 17.203 30.487 17.1814 30.5532 17.1382C30.6211 17.0951 30.6757 17.0359 30.717 16.9607C30.7599 16.8841 30.7917 16.7936 30.8124 16.6892C30.8331 16.5847 30.8431 16.4706 30.8431 16.3467V15.8997ZM33.8721 17.6436H33.2901V15.0789H32.4374V17.6436H31.8554V14.6028H33.8721V17.6436ZM36.5263 16.3467C36.5263 16.5416 36.5009 16.7212 36.4495 16.8855C36.3986 17.0498 36.3249 17.1911 36.2279 17.3095C36.1315 17.4278 36.0138 17.5204 35.8744 17.5872C35.7361 17.6527 35.5803 17.6854 35.4064 17.6854C35.2326 17.6854 35.0778 17.6527 34.9427 17.5872C34.807 17.5204 34.6936 17.4278 34.6008 17.3095C34.5086 17.1897 34.4381 17.0484 34.3899 16.8855C34.3417 16.7212 34.3173 16.5416 34.3173 16.3467V15.9039C34.3173 15.709 34.3417 15.5294 34.3899 15.3651C34.4381 15.2008 34.5086 15.0595 34.6008 14.9411C34.6936 14.8214 34.8065 14.7281 34.9406 14.6613C35.0757 14.5944 35.2305 14.561 35.4043 14.561C35.5797 14.561 35.7361 14.5944 35.8744 14.6613C36.0138 14.7281 36.1315 14.8214 36.2279 14.9411C36.3249 15.0595 36.3986 15.2008 36.4495 15.3651C36.5009 15.5294 36.5263 15.709 36.5263 15.9039V16.3467ZM35.9364 15.8997C35.9364 15.7758 35.9258 15.6617 35.9052 15.5572C35.8861 15.4528 35.8548 15.363 35.8119 15.2878C35.7695 15.2126 35.7138 15.1542 35.6465 15.1124C35.5803 15.0692 35.4992 15.0476 35.4043 15.0476C35.3105 15.0476 35.2315 15.0692 35.1679 15.1124C35.1049 15.1542 35.0535 15.2126 35.0148 15.2878C34.9761 15.363 34.9485 15.4528 34.9321 15.5572C34.9157 15.6617 34.9072 15.7758 34.9072 15.8997V16.3467C34.9072 16.4692 34.9157 16.5827 34.9321 16.6871C34.9485 16.7915 34.9761 16.882 35.0148 16.9586C35.0535 17.0352 35.1049 17.0951 35.1679 17.1382C35.2315 17.1814 35.311 17.203 35.4064 17.203C35.5002 17.203 35.5803 17.1814 35.6465 17.1382C35.7138 17.0951 35.7684 17.0359 35.8098 16.9607C35.8527 16.8841 35.8845 16.7936 35.9052 16.6892C35.9258 16.5847 35.9364 16.4706 35.9364 16.3467V15.8997ZM38.9818 14.6028V17.6436H38.3978V15.0789H37.7745L37.7644 16.1942C37.7602 16.4602 37.7395 16.685 37.7024 16.8688C37.6664 17.0526 37.6139 17.2023 37.545 17.3178C37.4761 17.432 37.3897 17.5148 37.2863 17.5664C37.1825 17.6179 37.0616 17.6436 36.9238 17.6436H36.7791V17.1716H36.8618C36.9291 17.1647 36.9832 17.1445 37.0229 17.1111C37.0648 17.0763 37.0961 17.0219 37.1183 16.9482C37.1417 16.873 37.1576 16.7748 37.166 16.6537C37.1745 16.5312 37.1798 16.378 37.1825 16.1942L37.1952 14.6028H38.9818ZM40.346 15.647L40.5427 16.2088L41.1723 14.6028H41.8057L40.7329 17.0672C40.6974 17.1493 40.655 17.228 40.6068 17.3032C40.5601 17.3784 40.5029 17.4445 40.4351 17.5016C40.3688 17.5587 40.2909 17.604 40.2013 17.6374C40.1112 17.6708 40.0058 17.6875 39.8844 17.6875C39.7864 17.6875 39.6994 17.6791 39.6236 17.6624C39.5489 17.6471 39.4885 17.6332 39.4413 17.6206L39.4784 17.1612C39.4964 17.1668 39.5176 17.173 39.5426 17.18C39.5691 17.1855 39.5961 17.1911 39.6236 17.1967C39.6512 17.2023 39.6793 17.2071 39.7084 17.2113C39.7376 17.2141 39.7651 17.2155 39.7911 17.2155C39.8574 17.2155 39.9151 17.2085 39.965 17.1946C40.0148 17.1807 40.0577 17.1612 40.0932 17.1361C40.1293 17.1111 40.1589 17.0811 40.1823 17.0463C40.2072 17.0101 40.2273 16.9698 40.2427 16.9252L40.3005 16.7957L39.2489 14.6028H39.878L40.346 15.647ZM44.108 14.6028V17.6436H43.5239V16.4845C43.4879 16.4943 43.4508 16.5033 43.4121 16.5117C43.3734 16.5186 43.3347 16.5249 43.296 16.5305C43.2589 16.5346 43.2223 16.5381 43.1863 16.5409C43.1519 16.5437 43.1216 16.5451 43.0951 16.5451C42.9462 16.5451 42.8111 16.5263 42.6897 16.4887C42.5694 16.4497 42.4666 16.3898 42.3812 16.3091C42.297 16.2283 42.2312 16.1253 42.1846 16C42.139 15.8733 42.1162 15.7229 42.1162 15.5489V14.6028H42.6976V15.5489C42.6976 15.6505 42.7056 15.7348 42.7204 15.8016C42.7374 15.8684 42.7623 15.922 42.7952 15.9624C42.8285 16.0014 42.8699 16.0292 42.9192 16.0459C42.969 16.0613 43.0278 16.0689 43.0951 16.0689C43.1232 16.0689 43.154 16.0682 43.1884 16.0668C43.2229 16.064 43.2589 16.0606 43.296 16.0563C43.3347 16.0508 43.3734 16.0445 43.4121 16.0376C43.4508 16.0306 43.4879 16.0222 43.5239 16.0125V14.6028H44.108ZM46.0043 14.6028H46.5878V17.6436H46.0043V15.7034L45.1494 17.6436H44.5675V14.6028H45.1494V16.5451L46.0043 14.6028ZM49.0105 16.3112H47.7724V17.1696H49.2193V17.6436H47.1883V14.6028H49.2129V15.081H47.7724V15.8475H49.0105V16.3112Z" fill="white"/>
</g>
</g>
<defs>
<clipPath id="clip0_590_235">
<rect width="53" height="54" fill="white"/>
</clipPath>
</defs>
</svg>
