<svg width="54" height="54" viewBox="0 0 54 54" fill="none" xmlns="http://www.w3.org/2000/svg">
<g clip-path="url(#clip0_590_273)">
<mask id="mask0_590_273" style="mask-type:luminance" maskUnits="userSpaceOnUse" x="0" y="0" width="54" height="54">
<path d="M54 0H0V54H54V0Z" fill="white"/>
</mask>
<g mask="url(#mask0_590_273)">
<path d="M54 0H0V54H54V0Z" fill="#566D79"/>
<path fill-rule="evenodd" clip-rule="evenodd" d="M23.9265 28.9824L14.2803 23.3181V41.444L23.9265 44.3706V28.9824Z" fill="white"/>
<path fill-rule="evenodd" clip-rule="evenodd" d="M24.9668 28.9824V44.3706L34.7076 41.444V23.3181L24.9668 28.9824Z" fill="white"/>
<path fill-rule="evenodd" clip-rule="evenodd" d="M40.0034 41.1607L41.2331 45.2202L42.3677 41.1607V25.0173H40.0034V41.1607Z" fill="white"/>
<path fill-rule="evenodd" clip-rule="evenodd" d="M36.8824 24.1677L35.842 23.3181V42.0104L24.9666 45.5034H23.9262L13.1449 42.4824V23.3181L12.105 24.1677V43.2377L23.8315 46.4475H25.0612L35.842 43.0489L36.8824 42.7657V24.1677Z" fill="white"/>
<path fill-rule="evenodd" clip-rule="evenodd" d="M42.3675 22.8463C42.3675 22.1854 41.8003 21.7134 41.1384 21.7134C40.4764 21.7134 39.9092 22.1854 39.9092 22.8463V24.0735H42.2734V22.8463H42.3675Z" fill="white"/>
<path fill-rule="evenodd" clip-rule="evenodd" d="M8.41707 15.3881H10.1189V13.5944H10.8754V12.1783H10.1189V4.53149H8.32244L5.20166 12.556V13.6888H8.41707V15.3881ZM6.80936 12.1783L8.41707 7.74129V12.1783H6.80936Z" fill="white"/>
<path fill-rule="evenodd" clip-rule="evenodd" d="M16.7388 9.53508V9.25187C16.0769 9.15745 15.793 8.68541 15.793 8.119V5.85324C15.793 5.09801 16.1715 4.62598 17.0227 4.62598C17.8733 4.62598 18.2518 5.09801 18.2518 5.85324V8.02458C18.2518 8.49662 18.0626 8.96861 17.6846 9.06303L18.2518 9.15745V9.72386L16.7388 9.53508ZM17.4007 8.21342V5.75882C17.4007 5.47562 17.306 5.28681 17.0227 5.28681C16.7388 5.28681 16.6441 5.47562 16.6441 5.75882V8.21342C16.6441 8.49662 16.7388 8.68541 17.0227 8.68541C17.306 8.68541 17.4007 8.49662 17.4007 8.21342Z" fill="white"/>
<path fill-rule="evenodd" clip-rule="evenodd" d="M20.8057 4.62598V8.119C20.8057 8.87425 20.5218 9.25187 19.6712 9.25187C18.82 9.25187 18.5361 8.77983 18.5361 8.119V4.62598H19.2927V8.21336C19.2927 8.49662 19.3873 8.68541 19.6712 8.68541C19.9546 8.68541 20.0492 8.49662 20.0492 8.21336V4.62598H20.8057Z" fill="white"/>
<path fill-rule="evenodd" clip-rule="evenodd" d="M21.0889 9.15745L21.94 4.62598H22.7912L23.6424 9.15745H22.8858L22.7912 8.30778H21.94L21.8454 9.15745H21.0889ZM22.0347 7.74137H22.6019L22.3186 5.94766L22.0347 7.74137Z" fill="white"/>
<path fill-rule="evenodd" clip-rule="evenodd" d="M24.0215 4.62598H24.778V8.59099H25.6292V9.15745H24.0215V4.62598Z" fill="white"/>
<path d="M26.6691 4.62598H25.9126V9.15745H26.6691V4.62598Z" fill="white"/>
<path fill-rule="evenodd" clip-rule="evenodd" d="M27.0474 4.62598H29.1277V5.28681H28.4658V9.15745H27.7093V5.28681H27.0474V4.62598Z" fill="white"/>
<path fill-rule="evenodd" clip-rule="evenodd" d="M31.0197 7.45816V9.15745H30.1685V7.45816L29.3174 4.62598H30.1685L30.6412 6.32529L31.1143 4.62598H31.8709L31.0197 7.45816Z" fill="white"/>
<path fill-rule="evenodd" clip-rule="evenodd" d="M15.8877 11.1399H17.6847V11.7063H16.6442V13.028H17.4008V13.5944H16.6442V15.0105H17.6847V15.6713H15.8877V11.1399Z" fill="white"/>
<path fill-rule="evenodd" clip-rule="evenodd" d="M20.4268 12.2727V14.3496C20.4268 15.0104 20.1429 15.5769 19.2923 15.5769H18.1572V11.0454H19.2923C20.1429 11.1398 20.4268 11.6118 20.4268 12.2727ZM19.1977 15.0104C19.481 15.0104 19.6703 14.8216 19.6703 14.5384V12.1782C19.6703 11.895 19.5757 11.7062 19.1977 11.7062H18.9138V15.0104H19.1977Z" fill="white"/>
<path fill-rule="evenodd" clip-rule="evenodd" d="M22.9806 11.1399V14.5385C22.9806 15.1993 22.6973 15.6713 21.9407 15.6713C21.1842 15.6713 20.8057 15.1993 20.8057 14.5385V11.1399H21.5622V14.6329C21.5622 14.9161 21.6568 15.1049 21.9407 15.1049C22.2241 15.1049 22.3187 14.9161 22.3187 14.6329V11.1399H22.9806Z" fill="white"/>
<path fill-rule="evenodd" clip-rule="evenodd" d="M23.4536 14.444V12.2727C23.4536 11.5174 23.8322 11.0454 24.5887 11.0454C25.4398 11.0454 25.7232 11.5174 25.7232 12.1782V12.7447H24.9667V12.1782C24.9667 11.895 24.872 11.7062 24.5887 11.7062C24.3048 11.7062 24.2102 11.895 24.2102 12.1782V14.6328C24.2102 14.916 24.3048 15.1048 24.5887 15.1048C24.872 15.1048 24.9667 14.916 24.9667 14.6328V13.7832H25.7232V14.5384C25.7232 15.1992 25.4398 15.6713 24.5887 15.6713C23.8322 15.6713 23.4536 15.1048 23.4536 14.444Z" fill="white"/>
<path fill-rule="evenodd" clip-rule="evenodd" d="M25.9126 15.6713L26.7638 11.1399H27.6149L28.4661 15.6713H27.7096L27.6149 14.8217H26.7638L26.6691 15.6713H25.9126ZM26.953 14.1608H27.5203L27.2364 12.3671L26.953 14.1608Z" fill="white"/>
<path fill-rule="evenodd" clip-rule="evenodd" d="M28.4653 11.1399H30.4516V11.7063H29.8838V15.6713H29.1272V11.7063H28.4653V11.1399Z" fill="white"/>
<path d="M31.5866 11.1399H30.8301V15.6713H31.5866V11.1399Z" fill="white"/>
<path fill-rule="evenodd" clip-rule="evenodd" d="M32.0596 14.444V12.2727C32.0596 11.5174 32.4376 11.0454 33.1941 11.0454C33.9512 11.0454 34.3292 11.5174 34.3292 12.2727V14.444C34.3292 15.1992 33.9512 15.6713 33.1941 15.6713C32.4376 15.6713 32.0596 15.1048 32.0596 14.444ZM33.5726 14.5384V12.0839C33.5726 11.8006 33.478 11.6118 33.1941 11.6118C32.9107 11.6118 32.8161 11.8006 32.8161 12.0839V14.5384C32.8161 14.8216 32.9107 15.0104 33.1941 15.0104C33.478 15.0104 33.5726 14.8216 33.5726 14.5384Z" fill="white"/>
<path fill-rule="evenodd" clip-rule="evenodd" d="M35.4642 12.7448V15.6713H34.8022V11.1399H35.5588L36.3153 13.6889V11.1399H36.9772V15.6713H36.3153L35.4642 12.7448Z" fill="white"/>
<path d="M47.5841 2.67334H14.4355V18.1783H47.5841V2.67334Z" fill="#566D79"/>
<path d="M14.5132 6.77086H14.2689V8.01976H13.6818V4.97892H14.2689V6.31764H14.4127L15.2083 4.97892H15.8873L14.981 6.44296L15.9226 8.01976H15.2419L14.5132 6.77086ZM17.704 7.38486H16.7914L16.6117 8.01976H15.9937L16.9897 4.97892H17.5223L18.5001 8.01976H17.8815L17.704 7.38486ZM16.9357 6.8857H17.5661L17.2549 5.7663L16.9357 6.8857ZM20.8408 4.97892V8.01976H20.2522V6.86063C20.2158 6.87041 20.1784 6.87945 20.1394 6.88779C20.1003 6.89474 20.0613 6.90105 20.0223 6.90661C19.9849 6.91078 19.948 6.91425 19.9116 6.91704C19.8769 6.91982 19.8464 6.92121 19.8197 6.92121C19.6694 6.92121 19.5331 6.90244 19.4106 6.8648C19.2893 6.82582 19.1856 6.76594 19.0995 6.68521C19.0145 6.60448 18.9482 6.50145 18.9011 6.37613C18.8551 6.24941 18.8321 6.09907 18.8321 5.92499V4.97892H19.4187V5.92499C19.4187 6.02662 19.4267 6.11088 19.4417 6.17772C19.4588 6.24455 19.4834 6.29812 19.517 6.33854C19.5502 6.37752 19.5924 6.40537 19.6422 6.42205C19.6924 6.4374 19.7517 6.44504 19.8197 6.44504C19.8475 6.44504 19.879 6.44435 19.9138 6.44296C19.9485 6.44018 19.9849 6.4367 20.0223 6.43248C20.0613 6.42692 20.1003 6.42066 20.1394 6.41371C20.1784 6.40676 20.2158 6.39837 20.2522 6.38864V4.97892H20.8408ZM23.2179 6.68729H21.969V7.54568H23.4286V8.01976H21.3798V4.97892H23.4227V5.45716H21.969V6.22364H23.2179V6.68729ZM26.027 7.06743C26.0168 7.22056 25.9837 7.35839 25.9265 7.48093C25.8709 7.60348 25.7955 7.70789 25.7008 7.79419C25.6062 7.88053 25.4934 7.94737 25.3629 7.99468C25.2319 8.04066 25.0871 8.0636 24.9283 8.0636C24.7486 8.0636 24.5893 8.03088 24.4498 7.96544C24.3107 7.89861 24.1937 7.80606 24.099 7.68768C24.0044 7.56792 23.9322 7.42453 23.8819 7.25745C23.8317 7.09037 23.8066 6.90661 23.8066 6.70611V6.29673C23.8066 6.09485 23.8333 5.91039 23.8862 5.74331C23.9392 5.57623 24.014 5.43284 24.1118 5.31307C24.2092 5.19333 24.3268 5.10074 24.4647 5.03531C24.6037 4.96847 24.7598 4.93506 24.9325 4.93506C25.0994 4.93506 25.248 4.95873 25.3774 5.00607C25.5084 5.0534 25.6196 5.12093 25.7115 5.20865C25.8035 5.29637 25.8757 5.40359 25.9286 5.5303C25.9815 5.65696 26.0152 5.79972 26.0291 5.9584H25.4442C25.4383 5.86794 25.4244 5.78854 25.4025 5.72032C25.3816 5.6521 25.3501 5.59569 25.3084 5.55116C25.2678 5.50523 25.2164 5.47112 25.1539 5.44882C25.0924 5.42514 25.0186 5.41332 24.9325 5.41332C24.8422 5.41332 24.7631 5.43284 24.6962 5.47181C24.6294 5.51079 24.5738 5.56789 24.5294 5.64306C24.4861 5.71824 24.454 5.81084 24.4332 5.92082C24.4123 6.0294 24.4022 6.15334 24.4022 6.29256V6.70611C24.4022 7.00547 24.4439 7.22681 24.5273 7.37026C24.6123 7.51366 24.7459 7.58535 24.9283 7.58535C25.0812 7.58535 25.2025 7.54499 25.2918 7.4642C25.3806 7.38208 25.4303 7.2498 25.4399 7.06743H26.027ZM28.719 5.45716H27.7812V8.01976H27.192V5.45716H26.267V4.97892H28.719V5.45716ZM29.0488 8.01976V4.97892H30.07C30.2358 4.97892 30.386 4.99562 30.5213 5.02904C30.6576 5.06246 30.7742 5.11327 30.8699 5.1815C30.9661 5.24972 31.0399 5.33605 31.0912 5.44048C31.1442 5.5449 31.1709 5.66814 31.1709 5.81014C31.1693 5.95215 31.1313 6.07955 31.0559 6.19231C30.9821 6.30512 30.8726 6.39072 30.7282 6.44921C30.8159 6.47151 30.8918 6.50492 30.9554 6.54946C31.0196 6.594 31.0725 6.64693 31.1142 6.7082C31.1575 6.76808 31.1891 6.83422 31.2083 6.90661C31.2292 6.97761 31.2398 7.05139 31.2398 7.12796C31.2398 7.27418 31.2147 7.40298 31.1645 7.51435C31.1142 7.62572 31.0426 7.71902 30.9495 7.79419C30.856 7.86941 30.7426 7.92577 30.609 7.96335C30.4753 8.00094 30.3251 8.01976 30.1577 8.01976H29.0488ZM29.638 6.67895V7.54568H30.1599C30.3202 7.54429 30.4421 7.50531 30.5256 7.4287C30.6106 7.35075 30.6528 7.24911 30.6528 7.12379C30.6544 6.98456 30.6164 6.87597 30.54 6.79797C30.4635 6.72002 30.3454 6.68034 30.185 6.67895H29.638ZM29.638 6.25497H30.0743C30.2374 6.25358 30.3625 6.21947 30.4502 6.15264C30.5379 6.08581 30.5828 5.98765 30.5838 5.85815C30.5838 5.71615 30.54 5.61451 30.4523 5.55324C30.3646 5.49058 30.2379 5.45855 30.0722 5.45716H29.638V6.25497ZM33.4934 6.68729H32.2445V7.54568H33.7041V8.01976H31.6553V4.97892H33.6977V5.45716H32.2445V6.22364H33.4934V6.68729ZM36.1977 8.01976H35.6171V6.70194H34.7568V8.01976H34.174V4.97892H34.7568V6.22573H35.6171V4.97892H36.1977V8.01976ZM38.7667 8.01976H38.1861V6.70194H37.3253V8.01976H36.743V4.97892H37.3253V6.22573H38.1861V4.97892H38.7667V8.01976ZM41.4501 6.7228C41.4501 6.91773 41.4245 7.09732 41.3731 7.26162C41.3213 7.42592 41.247 7.56723 41.1497 7.6856C41.0523 7.80397 40.9331 7.89652 40.7925 7.96335C40.653 8.02879 40.4958 8.06151 40.3204 8.06151C40.145 8.06151 39.9889 8.02879 39.8526 7.96335C39.7162 7.89652 39.6013 7.80397 39.5083 7.6856C39.4147 7.56584 39.3436 7.42453 39.2949 7.26162C39.2463 7.09732 39.2217 6.91773 39.2217 6.7228V6.28005C39.2217 6.08511 39.2463 5.90552 39.2949 5.74123C39.3436 5.57693 39.4147 5.43562 39.5083 5.31725C39.6013 5.19751 39.7157 5.10423 39.8504 5.0374C39.9868 4.97056 40.1429 4.93715 40.3183 4.93715C40.4952 4.93715 40.653 4.97056 40.7925 5.0374C40.9331 5.10423 41.0523 5.19751 41.1497 5.31725C41.247 5.43562 41.3213 5.57693 41.3731 5.74123C41.4245 5.90552 41.4501 6.08511 41.4501 6.28005V6.7228ZM40.8551 6.27588C40.8551 6.15195 40.8449 6.0378 40.8235 5.93338C40.8043 5.82891 40.7727 5.73914 40.7299 5.66397C40.6866 5.58874 40.631 5.5303 40.5626 5.48849C40.4958 5.44535 40.4145 5.42375 40.3183 5.42375C40.2236 5.42375 40.1445 5.44535 40.0803 5.48849C40.0162 5.5303 39.9649 5.58874 39.9258 5.66397C39.8868 5.73914 39.859 5.82891 39.8424 5.93338C39.8253 6.0378 39.8173 6.15195 39.8173 6.27588V6.7228C39.8173 6.84534 39.8253 6.95879 39.8424 7.06321C39.859 7.16763 39.8868 7.25814 39.9258 7.33476C39.9649 7.41132 40.0162 7.4712 40.0803 7.51435C40.1445 7.5575 40.2242 7.5791 40.3204 7.5791C40.415 7.5791 40.4958 7.5575 40.5626 7.51435C40.631 7.4712 40.6861 7.41202 40.7278 7.33685C40.7711 7.26023 40.8027 7.16977 40.8235 7.06529C40.8449 6.96088 40.8551 6.84673 40.8551 6.7228V6.27588ZM43.7684 6.68729H42.5194V7.54568H43.9796V8.01976H41.9308V4.97892H43.9732V5.45716H42.5194V6.22364H43.7684V6.68729ZM15.7616 11.5347C15.7616 11.7296 15.736 11.9092 15.6846 12.0735C15.6333 12.2378 15.5585 12.3791 15.4612 12.4975C15.3638 12.6159 15.2446 12.7084 15.104 12.7752C14.965 12.8407 14.8073 12.8734 14.6319 12.8734C14.4565 12.8734 14.3004 12.8407 14.1641 12.7752C14.0278 12.7084 13.9128 12.6159 13.8198 12.4975C13.7262 12.3777 13.6551 12.2364 13.6064 12.0735C13.5578 11.9092 13.5332 11.7296 13.5332 11.5347V11.0919C13.5332 10.897 13.5578 10.7174 13.6064 10.5531C13.6551 10.3888 13.7262 10.2475 13.8198 10.1291C13.9128 10.0094 14.0272 9.91612 14.162 9.84929C14.2983 9.78246 14.4544 9.74904 14.6298 9.74904C14.8067 9.74904 14.965 9.78246 15.104 9.84929C15.2446 9.91612 15.3638 10.0094 15.4612 10.1291C15.5585 10.2475 15.6333 10.3888 15.6846 10.5531C15.736 10.7174 15.7616 10.897 15.7616 11.0919V11.5347ZM15.1666 11.0878C15.1666 10.9638 15.1564 10.8497 15.1355 10.7453C15.1158 10.6408 15.0848 10.551 15.0415 10.4758C14.9981 10.4006 14.9425 10.3422 14.8741 10.3004C14.8073 10.2572 14.726 10.2356 14.6298 10.2356C14.5351 10.2356 14.456 10.2572 14.3918 10.3004C14.3277 10.3422 14.2764 10.4006 14.2373 10.4758C14.1983 10.551 14.1705 10.6408 14.1539 10.7453C14.1368 10.8497 14.1288 10.9638 14.1288 11.0878V11.5347C14.1288 11.6572 14.1368 11.7707 14.1539 11.8751C14.1705 11.9795 14.1983 12.07 14.2373 12.1466C14.2764 12.2232 14.3277 12.2831 14.3918 12.3262C14.456 12.3694 14.5362 12.391 14.6319 12.391C14.7265 12.391 14.8073 12.3694 14.8741 12.3262C14.9425 12.2831 14.9976 12.2239 15.0393 12.1487C15.0826 12.0721 15.1147 11.9816 15.1355 11.8772C15.1564 11.7728 15.1666 11.6586 15.1666 11.5347V11.0878ZM18.1783 10.267H16.7978V10.9144H17.1405C17.3159 10.9144 17.4731 10.9374 17.6121 10.9833C17.7527 11.0279 17.8714 11.0912 17.9671 11.1734C18.0649 11.2555 18.1392 11.3551 18.1906 11.472C18.2424 11.589 18.2681 11.7185 18.2681 11.8605C18.2681 12.0053 18.2424 12.1376 18.1906 12.2573C18.1392 12.3756 18.0649 12.4773 17.9671 12.5622C17.8714 12.6471 17.7527 12.7133 17.6121 12.7606C17.4731 12.808 17.3159 12.8316 17.1405 12.8316H16.2086V9.7908H18.1783V10.267ZM16.7978 11.3864V12.3596H17.1405C17.2319 12.3596 17.3116 12.3464 17.3784 12.32C17.4469 12.2935 17.503 12.2573 17.5474 12.2113C17.5934 12.1654 17.627 12.1118 17.6479 12.0506C17.6698 11.9893 17.681 11.9245 17.681 11.8563C17.681 11.7909 17.6698 11.7296 17.6479 11.6725C17.627 11.6155 17.5934 11.566 17.5474 11.5243C17.503 11.4811 17.4469 11.4477 17.3784 11.424C17.3116 11.3989 17.2319 11.3864 17.1405 11.3864H16.7978ZM19.4021 11.7164V12.8316H18.815V9.7908H19.8555C20.0212 9.7908 20.1709 9.81518 20.3046 9.86388C20.4382 9.91126 20.5516 9.97809 20.6446 10.0644C20.7393 10.1493 20.812 10.2517 20.8622 10.3714C20.9136 10.4911 20.9392 10.6241 20.9392 10.7703C20.9392 10.9067 20.9136 11.0327 20.8622 11.1483C20.812 11.2639 20.7393 11.3641 20.6446 11.4491C20.5516 11.5326 20.4382 11.598 20.3046 11.6454C20.1709 11.6927 20.0212 11.7164 19.8555 11.7164H19.4021ZM19.4021 11.2402H19.8555C19.9389 11.2402 20.0111 11.2277 20.0725 11.2026C20.134 11.1775 20.1848 11.1434 20.2249 11.1003C20.2666 11.0571 20.2976 11.0077 20.3169 10.952C20.3377 10.8949 20.3484 10.8357 20.3484 10.7745C20.3484 10.7035 20.3377 10.6373 20.3169 10.576C20.2976 10.5148 20.2666 10.4612 20.2249 10.4153C20.1848 10.3693 20.134 10.3331 20.0725 10.3066C20.0111 10.2802 19.9389 10.267 19.8555 10.267H19.4021V11.2402ZM22.842 12.1967H21.9294L21.7497 12.8316H21.1312L22.1277 9.7908H22.6603L23.6376 12.8316H23.0195L22.842 12.1967ZM22.0732 11.6976H22.7041L22.3929 10.5782L22.0732 11.6976ZM26.0436 10.6158C26.0436 10.6854 26.0323 10.7522 26.0099 10.8163C25.989 10.8803 25.9585 10.9408 25.9184 10.9979C25.8778 11.0536 25.8286 11.1044 25.7698 11.1504C25.7115 11.1963 25.6452 11.236 25.5715 11.2694C25.7399 11.3279 25.8682 11.4171 25.9559 11.5368C26.0452 11.6551 26.0895 11.8027 26.0895 11.9795C26.0895 12.1216 26.0601 12.2483 26.0018 12.3596C25.9446 12.471 25.8644 12.565 25.7618 12.6416C25.6597 12.7168 25.5372 12.7745 25.394 12.815C25.2517 12.8539 25.0967 12.8734 24.9283 12.8734C24.7919 12.8734 24.6567 12.8567 24.523 12.8233C24.3893 12.7885 24.269 12.7356 24.1616 12.6646C24.0557 12.5922 23.9696 12.5003 23.9028 12.3889C23.8376 12.2775 23.8044 12.1438 23.8044 11.9879H24.3936C24.3936 12.0463 24.4059 12.1007 24.431 12.1508C24.4578 12.2009 24.4947 12.2448 24.5417 12.2824C24.5893 12.32 24.6454 12.3499 24.7112 12.3722C24.7764 12.3931 24.8491 12.4035 24.9283 12.4035C25.0202 12.4035 25.1015 12.3931 25.1726 12.3722C25.2437 12.3499 25.3036 12.3193 25.3522 12.2803C25.4009 12.2413 25.4378 12.196 25.4629 12.1445C25.488 12.0916 25.5003 12.0345 25.5003 11.9733C25.5003 11.8103 25.4544 11.6927 25.3629 11.6203C25.2721 11.5479 25.1384 11.5117 24.9619 11.5117H24.5524V11.0523H24.9619C25.0496 11.0523 25.1239 11.0425 25.1849 11.023C25.248 11.0021 25.2988 10.9729 25.3378 10.9353C25.3779 10.8977 25.4073 10.8532 25.4255 10.8016C25.4447 10.7487 25.4544 10.6902 25.4544 10.6262C25.4544 10.5719 25.4442 10.5204 25.4234 10.4716C25.4025 10.4215 25.3704 10.3784 25.3271 10.3422C25.2838 10.3059 25.2293 10.2774 25.1619 10.2565C25.0967 10.2342 25.0186 10.2231 24.9283 10.2231C24.8588 10.2231 24.7941 10.2322 24.7342 10.2503C24.6743 10.2684 24.6219 10.2941 24.5775 10.3275C24.5342 10.361 24.4995 10.4013 24.4727 10.4487C24.4481 10.496 24.4353 10.5489 24.4353 10.6074H23.8483C23.8483 10.4737 23.8771 10.354 23.9343 10.2482C23.9926 10.1424 24.0712 10.0526 24.1701 9.97878C24.269 9.90495 24.3829 9.84859 24.5128 9.80962C24.6433 9.7692 24.7823 9.74904 24.9283 9.74904C25.0967 9.74904 25.2501 9.76781 25.3875 9.80539C25.5255 9.84164 25.6426 9.89661 25.7388 9.97039C25.8361 10.0428 25.9115 10.1333 25.9639 10.2419C26.0168 10.3491 26.0436 10.4737 26.0436 10.6158ZM28.6061 11.5347C28.6061 11.7296 28.5805 11.9092 28.5286 12.0735C28.4773 12.2378 28.403 12.3791 28.3051 12.4975C28.2078 12.6159 28.0886 12.7084 27.948 12.7752C27.809 12.8407 27.6518 12.8734 27.4764 12.8734C27.3005 12.8734 27.1449 12.8407 27.0086 12.7752C26.8717 12.7084 26.7573 12.6159 26.6638 12.4975C26.5707 12.3777 26.4996 12.2364 26.451 12.0735C26.4023 11.9092 26.3777 11.7296 26.3777 11.5347V11.0919C26.3777 10.897 26.4023 10.7174 26.451 10.5531C26.4996 10.3888 26.5707 10.2475 26.6638 10.1291C26.7573 10.0094 26.8712 9.91612 27.0065 9.84929C27.1428 9.78246 27.2989 9.74904 27.4743 9.74904C27.6507 9.74904 27.809 9.78246 27.948 9.84929C28.0886 9.91612 28.2078 10.0094 28.3051 10.1291C28.403 10.2475 28.4773 10.3888 28.5286 10.5531C28.5805 10.7174 28.6061 10.897 28.6061 11.0919V11.5347ZM28.0111 11.0878C28.0111 10.9638 28.0004 10.8497 27.9795 10.7453C27.9603 10.6408 27.9287 10.551 27.8854 10.4758C27.8427 10.4006 27.7865 10.3422 27.7186 10.3004C27.6518 10.2572 27.57 10.2356 27.4743 10.2356C27.3796 10.2356 27.3 10.2572 27.2358 10.3004C27.1722 10.3422 27.1203 10.4006 27.0813 10.4758C27.0423 10.551 27.0145 10.6408 26.9979 10.7453C26.9813 10.8497 26.9728 10.9638 26.9728 11.0878V11.5347C26.9728 11.6572 26.9813 11.7707 26.9979 11.8751C27.0145 11.9795 27.0423 12.07 27.0813 12.1466C27.1203 12.2232 27.1722 12.2831 27.2358 12.3262C27.3 12.3694 27.3802 12.391 27.4764 12.391C27.5711 12.391 27.6518 12.3694 27.7186 12.3262C27.7865 12.2831 27.8416 12.2239 27.8833 12.1487C27.9266 12.0721 27.9587 11.9816 27.9795 11.8772C28.0004 11.7728 28.0111 11.6586 28.0111 11.5347V11.0878ZM29.0488 12.8316V9.7908H30.07C30.2358 9.7908 30.386 9.80753 30.5213 9.84089C30.6576 9.87436 30.7742 9.92516 30.8699 9.99338C30.9661 10.0616 31.0399 10.1479 31.0912 10.2524C31.1442 10.3568 31.1709 10.48 31.1709 10.622C31.1693 10.764 31.1313 10.8914 31.0559 11.0042C30.9821 11.117 30.8726 11.2026 30.7282 11.2611C30.8159 11.2834 30.8918 11.3168 30.9554 11.3613C31.0196 11.4059 31.0725 11.4588 31.1142 11.5201C31.1575 11.58 31.1891 11.6461 31.2083 11.7185C31.2292 11.7895 31.2398 11.8633 31.2398 11.9398C31.2398 12.0861 31.2147 12.2149 31.1645 12.3262C31.1142 12.4376 31.0426 12.5309 30.9495 12.6061C30.856 12.6813 30.7426 12.7376 30.609 12.7752C30.4753 12.8128 30.3251 12.8316 30.1577 12.8316H29.0488ZM29.638 11.4908V12.3576H30.1599C30.3202 12.3562 30.4421 12.3172 30.5256 12.2406C30.6106 12.1626 30.6528 12.061 30.6528 11.9357C30.6544 11.7964 30.6164 11.6879 30.54 11.6098C30.4635 11.5319 30.3454 11.4922 30.185 11.4908H29.638ZM29.638 11.0669H30.0743C30.2374 11.0655 30.3625 11.0314 30.4502 10.9645C30.5379 10.8977 30.5828 10.7995 30.5838 10.67C30.5838 10.528 30.54 10.4264 30.4523 10.3651C30.3646 10.3025 30.2379 10.2704 30.0722 10.269H29.638V11.0669ZM33.117 12.1967H32.2044L32.0247 12.8316H31.4067L32.4027 9.7908H32.9358L33.9131 12.8316H33.2945L33.117 12.1967ZM32.3487 11.6976H32.9796L32.6684 10.5782L32.3487 11.6976ZM36.1977 12.8316H35.6171V11.5138H34.7568V12.8316H34.174V9.7908H34.7568V11.0376H35.6171V9.7908H36.1977V12.8316ZM38.1674 9.7908H38.756V12.8316H38.1674V10.8914L37.3044 12.8316H36.7179V9.7908H37.3044V11.7331L38.1674 9.7908ZM41.1999 11.4992H39.951V12.3576H41.4106V12.8316H39.3618V9.7908H41.4042V10.269H39.951V11.0355H41.1999V11.4992Z" fill="white"/>
</g>
</g>
<defs>
<clipPath id="clip0_590_273">
<rect width="54" height="54" fill="white"/>
</clipPath>
</defs>
</svg>
