<svg width="54" height="54" viewBox="0 0 54 54" fill="none" xmlns="http://www.w3.org/2000/svg">
<g clip-path="url(#clip0_590_38)">
<path d="M53.858 0H0V53.86H53.858V0Z" fill="#566D79"/>
<path d="M36.8501 21.7802C36.8051 21.7311 36.7421 21.7041 36.6731 21.7041H17.1321C17.0651 21.7041 17.0041 21.7311 16.9581 21.7802C16.9141 21.8331 16.8971 21.9021 16.9071 21.9641L20.1911 41.8201C20.2081 41.9291 20.3031 42.0101 20.4161 42.0101H24.4461L24.7221 45.2441L23.0261 45.2451L26.9711 49.1911L30.9261 45.2371L29.2301 45.2401L29.5051 42.0101H33.6061C33.7181 42.0101 33.8131 41.9291 33.8301 41.8151L36.9011 21.9641C36.9121 21.8972 36.8931 21.8322 36.8501 21.7802ZM29.2981 37.6751C29.2981 37.6751 28.4101 38.5881 26.9671 38.4882C25.5181 38.5881 24.6321 37.6751 24.6321 37.6751C23.1671 36.2122 23.6891 34.3931 24.2001 33.4531C24.5151 32.8641 26.7641 29.4851 26.9571 29.1992V29.1761C26.9571 29.1761 26.9611 29.1812 26.9671 29.1862L26.9741 29.1761V29.1992C27.1611 29.4851 29.4151 32.8641 29.7291 33.4531C30.2411 34.3931 30.7611 36.2122 29.2981 37.6751ZM35.4971 25.9581C34.9671 25.7231 34.2951 25.8081 33.6511 26.0692C31.2271 27.0511 29.5761 27.4041 27.0261 26.6082C25.4201 26.1051 23.9171 25.0511 22.1411 25.6921C20.9631 26.1151 19.8651 26.5211 18.5311 26.5092L17.7621 22.5651H36.0501L35.4971 25.9581Z" fill="white"/>
<path d="M7.96223 15.7542C9.89822 15.7542 10.6532 14.6972 10.6532 13.0152V11.4142C10.6532 9.63623 9.94823 8.74023 8.63223 8.74023C7.86523 8.74023 7.40222 9.09222 7.12823 9.6192H7.11223V7.28223C7.11223 6.62421 7.32123 6.15918 7.97723 6.15918C8.63223 6.15918 8.82623 6.54419 8.82623 7.21619V7.93823H10.4922V7.36121C10.4922 5.75818 9.96223 4.63721 7.94623 4.63721C6.02423 4.63721 5.30322 5.87122 5.30322 7.56921V12.8542C5.30322 14.5372 6.03923 15.7542 7.96223 15.7542ZM7.11223 11.1892C7.14523 10.5812 7.40222 10.1962 7.97723 10.1962C8.60123 10.1962 8.84123 10.5812 8.84123 11.2862V13.1752C8.84123 13.8652 8.58524 14.2652 7.96223 14.2652C7.35223 14.2652 7.11223 13.8472 7.11223 13.1752V11.1892Z" fill="white"/>
<path d="M16.5439 4.93115H17.2189V9.23218H16.5439V7.48016C16.3779 7.63416 16.1808 7.71417 15.9429 7.71417C15.4329 7.71417 15.1309 7.41315 15.1309 6.79315V4.93115H15.8058V6.70715C15.8058 6.97113 15.9169 7.09918 16.1329 7.09918C16.4089 7.09918 16.5439 6.94012 16.5439 6.62018V4.93115Z" fill="white"/>
<path d="M19.1626 4.93115H19.8446V9.23218H19.2416V6.44214L18.4056 9.23218H17.7256V4.93115H18.3266V7.70917L19.1626 4.93115Z" fill="white"/>
<path d="M20.3008 5.92615C20.3008 5.25812 20.6518 4.86914 21.2958 4.86914C21.9418 4.86914 22.2908 5.25812 22.2908 5.92615V6.38013H21.6518V5.88312C21.6518 5.61914 21.5408 5.48413 21.3148 5.48413C21.0868 5.48413 20.9758 5.61914 20.9758 5.88312V8.28516C20.9758 8.55017 21.0868 8.67816 21.3148 8.67816C21.5408 8.67816 21.6518 8.55017 21.6518 8.28516V7.65912H22.2908V8.23517C22.2908 8.90613 21.9418 9.29315 21.2958 9.29315C20.6518 9.29315 20.3008 8.90613 20.3008 8.23517V5.92615Z" fill="white"/>
<path d="M23.2197 9.23193V5.54596H22.5137V4.93091H24.6037V5.54596H23.8947V9.23193H23.2197Z" fill="white"/>
<path d="M25.2973 7.8067H25.9053L25.5983 5.63672L25.2973 7.8067ZM26.1093 9.23169L25.9923 8.39069H25.2113L25.0953 9.23169H24.4683L25.1683 4.93066H26.0833L26.7843 9.23169H26.1093Z" fill="white"/>
<path d="M28.4016 6.77417V5.5462H28.0936C27.8676 5.5462 27.7496 5.69318 27.7496 5.98816V6.32019C27.7496 6.64417 27.8846 6.77417 28.1556 6.77417H28.4016ZM29.0766 9.23218H28.4016V7.38916H28.1676C27.8536 7.38916 27.7426 7.52417 27.7426 7.91815V8.70319C27.7426 8.93018 27.7256 9.10919 27.6826 9.23218H26.9937C27.0436 9.11517 27.0676 8.94415 27.0676 8.70917V7.95416C27.0676 7.44415 27.2166 7.13721 27.5166 7.04517V7.03119C27.2216 6.9162 27.0746 6.6322 27.0746 6.18317V5.9212C27.0746 5.25018 27.3816 4.93115 28.0746 4.93115H29.0766V9.23218Z" fill="white"/>
<path d="M31.2409 8.61743H31.6279C31.8679 8.61743 31.9789 8.50745 31.9789 8.19244V7.81744C31.9789 7.42542 31.8559 7.29645 31.5419 7.29645H31.2409V8.61743ZM31.2409 6.68243H31.5059C31.7749 6.68243 31.9119 6.55341 31.9119 6.22644V5.9884C31.9119 5.69342 31.7939 5.54645 31.5679 5.54645H31.2409V6.68243ZM30.5659 9.23242V4.9314H31.5849C32.2799 4.9314 32.5869 5.2514 32.5869 5.92145V6.09241C32.5869 6.53442 32.4399 6.81744 32.1499 6.93542V6.94745C32.4889 7.06244 32.6539 7.3584 32.6539 7.84344V8.21143C32.6539 8.87445 32.2989 9.23242 31.6279 9.23242H30.5659Z" fill="white"/>
<path d="M34.376 5.90833C34.376 5.62433 34.258 5.48334 34.025 5.48334C33.792 5.48334 33.674 5.62433 33.674 5.90833V8.25336C33.674 8.53735 33.792 8.67834 34.025 8.67834C34.258 8.67834 34.376 8.53735 34.376 8.25336V5.90833ZM32.999 5.95135C32.999 5.26434 33.362 4.87036 34.025 4.87036C34.688 4.87036 35.051 5.26434 35.051 5.95135V8.21234C35.051 8.90033 34.688 9.29333 34.025 9.29333C33.362 9.29333 32.999 8.90033 32.999 8.21234V5.95135Z" fill="white"/>
<path d="M37.13 8.61761V5.54663H36.539L36.471 8.13959C36.466 8.32959 36.416 8.48859 36.318 8.61761H37.13ZM37.805 8.61761H38.137V9.80963H37.461V9.2326H35.986V9.80963H35.311V8.61761H35.673C35.748 8.5246 35.784 8.37762 35.791 8.1756L35.901 4.93164H37.805V8.61761Z" fill="white"/>
<path d="M39.1034 7.8067H39.7114L39.4034 5.63672L39.1034 7.8067ZM39.9134 9.23169L39.7974 8.39069H39.0174L38.9014 9.23169H38.2744L38.9734 4.93066H39.8894L40.5904 9.23169H39.9134Z" fill="white"/>
<path d="M16.6665 11.283H17.3485V15.584H16.7465V12.7939L15.9095 15.584H15.2295V11.283H15.8305V14.061L16.6665 11.283Z" fill="white"/>
<path d="M18.7881 12.2782C18.7881 11.6082 19.1391 11.2212 19.7831 11.2212C20.4291 11.2212 20.7781 11.6082 20.7781 12.2782V12.7322H20.1391V12.2352C20.1391 11.9712 20.0281 11.8362 19.8021 11.8362C19.5741 11.8362 19.4631 11.9712 19.4631 12.2352V14.6372C19.4631 14.9022 19.5741 15.0302 19.8021 15.0302C20.0281 15.0302 20.1391 14.9022 20.1391 14.6372V14.0112H20.7781V14.5872C20.7781 15.2582 20.4291 15.6452 19.7831 15.6452C19.1391 15.6452 18.7881 15.2582 18.7881 14.5872V12.2782Z" fill="white"/>
<path d="M21.8246 14.1583H22.4326L22.1246 11.9902L21.8246 14.1583ZM22.6346 15.5833L22.5186 14.7422H21.7376L21.6226 15.5833H20.9956L21.6946 11.2822H22.6106L23.3116 15.5833H22.6346Z" fill="white"/>
<path d="M23.6318 15.5833V11.2822H24.3068V13.0342H25.0328V11.2822H25.7078V15.5833H25.0328V13.6483H24.3068V15.5833H23.6318Z" fill="white"/>
<path d="M27.6514 11.283H28.3334V15.584H27.7303V12.7939L26.8943 15.584H26.2144V11.283H26.8154V14.061L27.6514 11.283Z" fill="white"/>
<path d="M29.3667 15.5833V11.8973H28.6597V11.2822H30.7487V11.8973H30.0417V15.5833H29.3667Z" fill="white"/>
<path d="M31.4447 14.1583H32.0527L31.7447 11.9902L31.4447 14.1583ZM32.2547 15.5833L32.1387 14.7422H31.3587L31.2427 15.5833H30.6157L31.3147 11.2822H32.2307L32.9317 15.5833H32.2547Z" fill="white"/>
<path d="M33.9274 13.218H34.2474C34.4684 13.218 34.5794 13.108 34.5794 12.812V12.3029C34.5794 12.009 34.4684 11.8989 34.2474 11.8989H33.9274V13.218ZM33.2524 15.5829V11.2839H34.2474C34.9174 11.2839 35.2544 11.64 35.2544 12.3459V12.7689C35.2544 13.476 34.9174 13.8329 34.2474 13.8329H33.9274V15.5829H33.2524Z" fill="white"/>
<path d="M37.0561 11.283H37.7381V15.584H37.1351V12.7939L36.2991 15.584H35.6191V11.283H36.2201V14.061L37.0561 11.283Z" fill="white"/>
<path d="M39.5398 13.1262V11.8983H39.2318C39.0058 11.8983 38.8878 12.0452 38.8878 12.3402V12.6722C38.8878 12.9962 39.0228 13.1262 39.2938 13.1262H39.5398ZM40.2148 15.5842H39.5398V13.7412H39.3058C38.9918 13.7412 38.8808 13.8762 38.8808 14.2682V15.0552C38.8808 15.2822 38.8638 15.4612 38.8208 15.5842H38.1338C38.1818 15.4672 38.2058 15.2943 38.2058 15.0612V14.3062C38.2058 13.7962 38.3548 13.4893 38.6548 13.3952V13.3832C38.3598 13.2682 38.2128 12.9843 38.2128 12.5372V12.2733C38.2128 11.6022 38.5198 11.2832 39.2128 11.2832H40.2148V15.5842Z" fill="white"/>
</g>
<defs>
<clipPath id="clip0_590_38">
<rect width="53.858" height="53.86" fill="white"/>
</clipPath>
</defs>
</svg>
