<svg width="54" height="54" viewBox="0 0 54 54" fill="none" xmlns="http://www.w3.org/2000/svg">
<g clip-path="url(#clip0_590_64)">
<path d="M53.858 0H0V53.86H53.858V0Z" fill="#566D79"/>
<path d="M26.9487 26.0967C22.5907 26.0967 19.0547 29.6307 19.0547 33.9897C19.0547 38.3517 22.5907 41.8857 26.9487 41.8857C31.3067 41.8857 34.8427 38.3517 34.8427 33.9897C34.8427 29.6307 31.3067 26.0967 26.9487 26.0967ZM26.3637 29.2137C26.3637 28.9517 26.6297 28.6627 26.9527 28.6627C27.2757 28.6627 27.5367 28.9517 27.5367 29.2137V31.9247C27.5367 32.1857 27.2757 32.4717 26.9527 32.4717C26.6297 32.4717 26.3637 32.1857 26.3637 31.9247V29.2137ZM26.9507 38.0357C24.6827 38.0357 22.8427 36.1977 22.8427 33.9297C22.8427 32.0867 24.0577 30.5267 25.7297 30.0067V31.5377C24.8607 31.9817 24.2627 32.8847 24.2627 33.9297C24.2627 35.4137 25.4647 36.6177 26.9507 36.6177C28.4347 36.6177 29.6367 35.4137 29.6367 33.9297C29.6367 32.8817 29.0377 31.9757 28.1637 31.5317V30.0067C29.8387 30.5217 31.0567 32.0837 31.0567 33.9297C31.0567 36.1977 29.2187 38.0357 26.9507 38.0357Z" fill="white"/>
<path d="M17.8874 33.9212C17.8874 33.5632 17.5714 33.2732 17.2814 33.2732H13.8244C13.5324 33.2732 13.2114 33.5632 13.2114 33.9212C13.2114 34.2802 13.5324 34.5722 13.8244 34.5722H17.2814C17.5714 34.5722 17.8874 34.2802 17.8874 33.9212Z" fill="white"/>
<path d="M40.6887 33.9212C40.6887 33.5632 40.3727 33.2732 40.0827 33.2732H36.6257C36.3336 33.2732 36.0146 33.5632 36.0146 33.9212C36.0146 34.2802 36.3336 34.5722 36.6257 34.5722H40.0827C40.3727 34.5722 40.6887 34.2802 40.6887 33.9212Z" fill="white"/>
<path d="M26.9523 47.6594C27.3103 47.6594 27.6003 47.3434 27.6003 47.0533V43.5964C27.6003 43.3044 27.3103 42.9854 26.9523 42.9854C26.5933 42.9854 26.3013 43.3044 26.3013 43.5964V47.0533C26.3013 47.3434 26.5933 47.6594 26.9523 47.6594Z" fill="white"/>
<path d="M38.875 40.745C39.053 40.434 38.922 40.025 38.669 39.883L35.6709 38.164C35.417 38.019 34.995 38.112 34.818 38.424C34.64 38.734 34.773 39.147 35.025 39.292L38.025 41.0089C38.277 41.153 38.697 41.0559 38.875 40.745Z" fill="white"/>
<path d="M20.1286 45.8462C20.4396 46.0241 20.8486 45.8931 20.9906 45.6422L22.7096 42.6402C22.8546 42.3902 22.7596 41.9661 22.4506 41.7891C22.1396 41.6112 21.7266 41.7442 21.5826 41.9962L19.8646 44.9962C19.7206 45.2472 19.8176 45.6682 20.1286 45.8462Z" fill="white"/>
<path d="M33.8004 45.8306C34.1114 45.6526 34.2024 45.2326 34.0594 44.9806L32.3373 41.9856C32.1904 41.7316 31.7813 41.6006 31.4704 41.7786C31.1594 41.9566 31.0664 42.3796 31.2114 42.6336L32.9334 45.6306C33.0784 45.8785 33.4894 46.0086 33.8004 45.8306Z" fill="white"/>
<path d="M15.0428 40.7712C15.2208 41.0822 15.6408 41.1732 15.8928 41.0302L18.8878 39.3062C19.1398 39.1633 19.2728 38.7523 19.0948 38.4412C18.9168 38.1303 18.4938 38.0372 18.2398 38.1802L15.2448 39.9042C14.9948 40.0493 14.8628 40.4603 15.0428 40.7712Z" fill="white"/>
<path d="M26.9523 24.8591C27.3103 24.8591 27.6003 24.5432 27.6003 24.2531V20.7961C27.6003 20.5031 27.3103 20.1831 26.9523 20.1831C26.5933 20.1831 26.3013 20.5031 26.3013 20.7961V24.2531C26.3013 24.5432 26.5933 24.8591 26.9523 24.8591Z" fill="white"/>
<path d="M19.0852 29.4194C19.2632 29.1084 19.1322 28.6994 18.8802 28.5554L15.8812 26.8384C15.6272 26.6934 15.2052 26.7874 15.0272 27.0964C14.8502 27.4094 14.9832 27.8204 15.2372 27.9664L18.2352 29.6824C18.4872 29.8254 18.9072 29.7304 19.0852 29.4194Z" fill="white"/>
<path d="M31.4543 26.057C31.7653 26.235 32.1733 26.104 32.3163 25.852L34.0353 22.851C34.1803 22.599 34.0863 22.177 33.7753 22C33.4653 21.82 33.0523 21.955 32.9073 22.207L31.1903 25.207C31.0463 25.459 31.1433 25.879 31.4543 26.057Z" fill="white"/>
<path d="M22.4342 26.0646C22.7452 25.8866 22.8361 25.4666 22.6932 25.2146L20.9692 22.2176C20.8242 21.9676 20.4152 21.8346 20.1042 22.0126C19.7931 22.1906 19.7002 22.6136 19.8451 22.8676L21.5671 25.8626C21.7142 26.1146 22.1231 26.2426 22.4342 26.0646Z" fill="white"/>
<path d="M34.8084 29.4049C34.9864 29.7158 35.4064 29.8068 35.6584 29.6638L38.6534 27.9398C38.9054 27.7969 39.0384 27.3859 38.8604 27.0748C38.6824 26.7639 38.2594 26.6708 38.0054 26.8159L35.0104 28.5378C34.7604 28.6829 34.6284 29.0939 34.8084 29.4049Z" fill="white"/>
<path d="M5.68701 6.01593H8.50801L6.07001 15.3849H7.88101L10.268 6.20795V4.5249H5.68701V6.01593Z" fill="white"/>
<path d="M13.6919 9.01465V4.71362H14.3669V6.46564H15.0929V4.71362H15.7679V9.01465H15.0929V7.07965H14.3669V9.01465H13.6919Z" fill="white"/>
<path d="M16.2734 9.01465V4.71362H18.1164V5.32867H16.9484V6.46564H17.8764V7.07965H16.9484V8.39966H18.1164V9.01465H16.2734Z" fill="white"/>
<path d="M20.1149 8.40057V5.32959H19.5239L19.4559 7.92157C19.4509 8.11255 19.4009 8.27155 19.3029 8.40057H20.1149ZM20.7899 8.40057H21.1219V9.59259H20.4459V9.01556H18.9709V9.59259H18.2959V8.40057H18.6579C18.7329 8.30957 18.7689 8.16058 18.7759 7.95856L18.8859 4.7146H20.7899V8.40057Z" fill="white"/>
<path d="M22.7706 5.69128C22.7706 5.40833 22.6526 5.26831 22.4196 5.26831C22.1866 5.26831 22.0686 5.40833 22.0686 5.69128V8.03833C22.0686 8.32031 22.1866 8.4613 22.4196 8.4613C22.6526 8.4613 22.7706 8.32031 22.7706 8.03833V5.69128ZM21.3936 5.73431C21.3936 5.04633 21.7566 4.65332 22.4196 4.65332C23.0826 4.65332 23.4456 5.04633 23.4456 5.73431V7.9953C23.4456 8.68329 23.0826 9.07629 22.4196 9.07629C21.7566 9.07629 21.3936 8.68329 21.3936 7.9953V5.73431Z" fill="white"/>
<path d="M24.5773 6.64941H24.8973C25.1183 6.64941 25.2293 6.53943 25.2293 6.24341V5.73438C25.2293 5.44043 25.1183 5.32843 24.8973 5.32843H24.5773V6.64941ZM23.9023 9.0144V4.71338H24.8973C25.5673 4.71338 25.9043 5.07141 25.9043 5.7774V6.20038C25.9043 6.90741 25.5673 7.2644 24.8973 7.2644H24.5773V9.0144H23.9023Z" fill="white"/>
<path d="M27.5957 5.69128C27.5957 5.40833 27.4778 5.26831 27.2448 5.26831C27.0117 5.26831 26.8938 5.40833 26.8938 5.69128V8.03833C26.8938 8.32031 27.0117 8.4613 27.2448 8.4613C27.4778 8.4613 27.5957 8.32031 27.5957 8.03833V5.69128ZM26.2188 5.73431C26.2188 5.04633 26.5818 4.65332 27.2448 4.65332C27.9077 4.65332 28.2708 5.04633 28.2708 5.73431V7.9953C28.2708 8.68329 27.9077 9.07629 27.2448 9.07629C26.5818 9.07629 26.2188 8.68329 26.2188 7.9953V5.73431Z" fill="white"/>
<path d="M28.7275 9.01465V4.71362H30.4535V5.32867H29.4025V9.01465H28.7275Z" fill="white"/>
<path d="M32.0831 5.69104C32.0831 5.40808 31.9651 5.26807 31.7321 5.26807C31.4991 5.26807 31.381 5.40808 31.381 5.69104V8.03809C31.381 8.32007 31.4991 8.46106 31.7321 8.46106C31.9651 8.46106 32.0831 8.32007 32.0831 8.03809V5.69104ZM30.7061 5.73407C30.7061 5.04608 31.0691 4.65308 31.7321 4.65308C32.3951 4.65308 32.7581 5.04608 32.7581 5.73407V7.99506C32.7581 8.68304 32.3951 9.07605 31.7321 9.07605C31.0691 9.07605 30.7061 8.68304 30.7061 7.99506V5.73407Z" fill="white"/>
<path d="M33.165 5.70959C33.165 5.03961 33.5161 4.65259 34.16 4.65259C34.806 4.65259 35.155 5.03961 35.155 5.70959V6.16357H34.5161V5.66656C34.5161 5.40259 34.405 5.26758 34.179 5.26758C33.951 5.26758 33.84 5.40259 33.84 5.66656V8.0686C33.84 8.33362 33.951 8.46161 34.179 8.46161C34.405 8.46161 34.5161 8.33362 34.5161 8.0686V7.44257H35.155V8.01862C35.155 8.68958 34.806 9.0766 34.16 9.0766C33.5161 9.0766 33.165 8.68958 33.165 8.01862V5.70959Z" fill="white"/>
<path d="M36.0844 9.01465V5.32867H35.3774V4.71362H37.4664V5.32867H36.7594V9.01465H36.0844Z" fill="white"/>
<path d="M39.0967 5.69128C39.0967 5.40833 38.9787 5.26831 38.7457 5.26831C38.5127 5.26831 38.3947 5.40833 38.3947 5.69128V8.03833C38.3947 8.32031 38.5127 8.4613 38.7457 8.4613C38.9787 8.4613 39.0967 8.32031 39.0967 8.03833V5.69128ZM37.7197 5.73431C37.7197 5.04633 38.0827 4.65332 38.7457 4.65332C39.4087 4.65332 39.7717 5.04633 39.7717 5.73431V7.9953C39.7717 8.68329 39.4087 9.07629 38.7457 9.07629C38.0827 9.07629 37.7197 8.68329 37.7197 7.9953V5.73431Z" fill="white"/>
<path d="M41.5247 6.55786V5.3299H41.2167C40.9907 5.3299 40.8727 5.47687 40.8727 5.77185V6.10388C40.8727 6.42786 41.0077 6.55786 41.2787 6.55786H41.5247ZM42.1997 9.01587H41.5247V7.17285H41.2907C40.9767 7.17285 40.8667 7.30786 40.8667 7.69989V8.48688C40.8667 8.71387 40.8487 8.89288 40.8057 9.01587H40.1167C40.1667 8.89789 40.1907 8.72589 40.1907 8.49286V7.73785C40.1907 7.22589 40.3377 6.9209 40.6397 6.82684V6.81488C40.3447 6.69989 40.1977 6.41589 40.1977 5.96686V5.7049C40.1977 5.03387 40.5047 4.71484 41.1977 4.71484H42.1997V9.01587Z" fill="white"/>
<path d="M45.8751 8.40033H46.2311V9.5993H45.5561V9.01532H42.7051V4.71436H43.3811V8.40033H43.9531V4.71436H44.6281V8.40033H45.2001V4.71436H45.8751V8.40033Z" fill="white"/>
<path d="M47.2045 7.58942H47.8125L47.5045 5.42139L47.2045 7.58942ZM48.0145 9.0144L47.8985 8.1734H47.1175L47.0025 9.0144H46.3755L47.0745 4.71338H47.9905L48.6895 9.0144H48.0145Z" fill="white"/>
<path d="M50.3089 6.55762V5.32965H50.0009C49.7749 5.32965 49.6569 5.47662 49.6569 5.77161V6.10364C49.6569 6.42761 49.7919 6.55762 50.0629 6.55762H50.3089ZM50.9839 9.01562H50.3089V7.17261H50.0749C49.7609 7.17261 49.6509 7.30762 49.6509 7.69965V8.48663C49.6509 8.71362 49.6329 8.89264 49.5899 9.01562H48.9009C48.9509 8.89764 48.9749 8.72565 48.9749 8.49261V7.73761C48.9749 7.22565 49.1239 6.92065 49.4239 6.8266V6.81464C49.1289 6.69965 48.9819 6.41565 48.9819 5.96661V5.70465C48.9819 5.03363 49.2899 4.7146 49.9819 4.7146H50.9839V9.01562Z" fill="white"/>
<path d="M15.1294 11.0664H15.8114V15.3674H15.2084V12.5774L14.3724 15.3674H13.6924V11.0664H14.2934V13.8434L15.1294 11.0664Z" fill="white"/>
<path d="M18.6147 11.0664H19.2897V15.3674H18.6147V13.6164C18.4487 13.7694 18.2516 13.8494 18.0117 13.8494C17.5027 13.8494 17.2017 13.5484 17.2017 12.9264V11.0664H17.8766V12.8424C17.8766 13.1064 17.9877 13.2344 18.2037 13.2344C18.4797 13.2344 18.6147 13.0754 18.6147 12.7554V11.0664Z" fill="white"/>
<path d="M21.2334 11.0664H21.9154V15.3674H21.3124V12.5774L20.4764 15.3674H19.7964V11.0664H20.3974V13.8434L21.2334 11.0664Z" fill="white"/>
<path d="M22.3716 12.0614C22.3716 11.3934 22.7226 11.0044 23.3666 11.0044C24.0126 11.0044 24.3616 11.3934 24.3616 12.0614V12.5154H23.7226V12.0184C23.7226 11.7534 23.6116 11.6194 23.3856 11.6194C23.1576 11.6194 23.0466 11.7534 23.0466 12.0184V14.4204C23.0466 14.6854 23.1576 14.8134 23.3856 14.8134C23.6116 14.8134 23.7226 14.6854 23.7226 14.4204V13.7934H24.3616V14.3704C24.3616 15.0414 24.0126 15.4274 23.3666 15.4274C22.7226 15.4274 22.3716 15.0414 22.3716 14.3704V12.0614Z" fill="white"/>
<path d="M25.2905 15.3667V11.6807H24.5845V11.0657H26.6725V11.6807H25.9655V15.3667H25.2905Z" fill="white"/>
<path d="M27.3686 13.9414H27.9766L27.6686 11.7734L27.3686 13.9414ZM28.1786 15.3664L28.0626 14.5254H27.2816L27.1666 15.3664H26.5396L27.2386 11.0674H28.1546L28.8556 15.3664H28.1786Z" fill="white"/>
<path d="M30.4724 12.9089V11.681H30.1644C29.9384 11.681 29.8204 11.8279 29.8204 12.1229V12.455C29.8204 12.7789 29.9554 12.9089 30.2264 12.9089H30.4724ZM31.1474 15.3669H30.4724V13.5239H30.2384C29.9244 13.5239 29.8144 13.6589 29.8144 14.0529V14.838C29.8144 15.0659 29.7964 15.244 29.7534 15.3669H29.0664C29.1144 15.2499 29.1384 15.0789 29.1384 14.845V14.0889C29.1384 13.5789 29.2874 13.272 29.5874 13.1799V13.166C29.2924 13.051 29.1454 12.767 29.1454 12.3179V12.056C29.1454 11.3859 29.4534 11.0659 30.1454 11.0659H31.1474V15.3669Z" fill="white"/>
<path d="M34.5287 14.3712C34.5287 15.0411 34.1777 15.4282 33.5217 15.4282C32.8637 15.4282 32.5127 15.0411 32.5127 14.3712V14.0082H33.1517V14.4211C33.1517 14.6852 33.2697 14.8132 33.5027 14.8132C33.7357 14.8132 33.8537 14.6852 33.8537 14.4211V13.4312H33.1707V12.8171H33.8537V12.0181C33.8537 11.7542 33.7357 11.6191 33.5027 11.6191C33.2697 11.6191 33.1517 11.7542 33.1517 12.0181V12.3022H32.5127V12.0621C32.5127 11.3912 32.8637 11.0051 33.5217 11.0051C34.1777 11.0051 34.5287 11.3912 34.5287 12.0621V14.3712Z" fill="white"/>
<path d="M34.9844 15.3667V11.0657H35.6594V12.8167H36.3854V11.0657H37.0604V15.3667H36.3854V13.4317H35.6594V15.3667H34.9844Z" fill="white"/>
<path d="M37.5664 15.3667V11.0657H39.4094V11.6807H38.2414V12.8167H39.1694V13.4317H38.2414V14.7517H39.4094V15.3667H37.5664Z" fill="white"/>
<path d="M40.4489 13.0014H40.7689C40.9899 13.0014 41.1009 12.8904 41.1009 12.5955V12.0854C41.1009 11.7914 40.9899 11.6794 40.7689 11.6794H40.4489V13.0014ZM39.7739 15.3674V11.0664H40.7689C41.4389 11.0664 41.7759 11.4224 41.7759 12.1284V12.5534C41.7759 13.2584 41.4389 13.6154 40.7689 13.6154H40.4489V15.3674H39.7739Z" fill="white"/>
<path d="M42.1401 15.3667V11.0657H43.8661V11.6807H42.8151V15.3667H42.1401Z" fill="white"/>
<path d="M45.6304 11.0664H46.3124V15.3674H45.7094V12.5774L44.8734 15.3674H44.1934V11.0664H44.7944V13.8434L45.6304 11.0664Z" fill="white"/>
<path d="M48.1146 12.9089V11.681H47.8065C47.5805 11.681 47.4626 11.8279 47.4626 12.1229V12.455C47.4626 12.7789 47.5976 12.9089 47.8686 12.9089H48.1146ZM48.7896 15.3669H48.1146V13.5239H47.8806C47.5666 13.5239 47.4555 13.6589 47.4555 14.0529V14.838C47.4555 15.0659 47.4385 15.244 47.3955 15.3669H46.7065C46.7566 15.2499 46.7805 15.0789 46.7805 14.845V14.0889C46.7805 13.5789 46.9276 13.272 47.2296 13.1799V13.166C46.9345 13.051 46.7875 12.767 46.7875 12.3179V12.056C46.7875 11.3859 47.0945 11.0659 47.7875 11.0659H48.7896V15.3669Z" fill="white"/>
</g>
<defs>
<clipPath id="clip0_590_64">
<rect width="53.858" height="53.86" fill="white"/>
</clipPath>
</defs>
</svg>
