<svg width="54" height="54" viewBox="0 0 54 54" fill="none" xmlns="http://www.w3.org/2000/svg">
<mask id="mask0_590_385" style="mask-type:luminance" maskUnits="userSpaceOnUse" x="0" y="0" width="54" height="54">
<path d="M54 0H0V54H54V0Z" fill="white"/>
</mask>
<g mask="url(#mask0_590_385)">
<path d="M54 0H0V54H54V0Z" fill="#566D79"/>
<path fill-rule="evenodd" clip-rule="evenodd" d="M41.233 35.4967L34.8022 31.8148V24.4512C34.8022 24.2624 34.7076 24.168 34.613 24.0736L27.9929 20.2974C27.8983 20.203 27.7095 20.203 27.5203 20.2974L20.9002 24.0736C20.7109 24.168 20.7109 24.2624 20.7109 24.4512V31.8148L14.2801 35.4967C14.1855 35.5911 14.0908 35.6855 14.0908 35.8743V43.5211C14.0908 43.71 14.1855 43.8043 14.2801 43.8987L20.9002 47.7694C20.9948 47.7694 20.9948 47.8638 21.0894 47.8638C21.1841 47.8638 21.2787 47.8638 21.2787 47.7694L27.7095 44.0876L34.1403 47.7694C34.235 47.7694 34.235 47.8638 34.3291 47.8638C34.4237 47.8638 34.5183 47.8638 34.5183 47.7694L41.1384 43.8987C41.233 43.8043 41.3277 43.71 41.3277 43.5211V35.8743C41.4223 35.7799 41.3277 35.5911 41.233 35.4967ZM27.2364 42.7659L21.9406 39.7449L27.2364 36.7239V42.7659ZM33.4779 32.098L28.1822 35.119V28.9827L33.4779 32.098ZM27.2364 35.119L21.9406 32.098L27.2364 29.0771V35.119ZM28.5607 35.8743L34.3291 32.5701L40.098 35.8743L34.3291 39.1785L28.5607 35.8743ZM33.8564 31.3428L28.5607 28.3218L33.8564 25.3009V31.3428ZM26.7637 28.2274L21.4674 31.2484V25.112L26.7637 28.2274ZM20.6163 46.6365L14.8479 43.3323V36.7239L20.6163 40.0281V46.6365ZM21.4674 46.6365V40.5002L26.7637 43.5211L21.4674 46.6365ZM40.5711 43.3323L34.8022 46.6365V40.0281L40.5711 36.7239V43.3323Z" fill="white"/>
<path fill-rule="evenodd" clip-rule="evenodd" d="M9.14482 7.26911C9.14482 5.56982 8.3883 4.34253 6.49668 4.34253C4.60506 4.34253 3.84854 5.38098 3.84854 7.08027V8.68519C3.84854 10.4789 4.51098 11.3285 5.83479 11.3285C6.59132 11.3285 7.06393 10.9509 7.34784 10.4789V12.839C7.34784 13.4999 7.06393 13.9719 6.40205 13.9719C5.74016 13.9719 5.45625 13.5943 5.45625 12.9334V12.1782H3.75391V12.7446C3.75391 14.3495 4.32171 15.4824 6.30741 15.4824C8.19903 15.4824 8.95555 14.2551 8.95555 12.5558V7.26911H9.14482ZM7.34784 8.9684C7.34784 9.53487 7.06393 9.91244 6.49668 9.91244C5.83479 9.91244 5.64552 9.53487 5.64552 8.87398V6.9859C5.64552 6.32507 5.92943 5.94745 6.49668 5.94745C7.06393 5.94745 7.34784 6.32507 7.34784 6.9859V8.9684Z" fill="white"/>
<path d="M13.6185 4.53149H12.9561V9.06295H13.6185V4.53149Z" fill="white"/>
<path fill-rule="evenodd" clip-rule="evenodd" d="M14.4695 6.23079V9.06295H13.8076V4.53149H14.5641L15.4153 7.08046V4.53149H16.0772V9.06295H15.4153L14.4695 6.23079Z" fill="white"/>
<path fill-rule="evenodd" clip-rule="evenodd" d="M18.6304 5.75874V7.83571C18.6304 8.49654 18.3465 9.06295 17.4954 9.06295H16.3608V4.53149H17.4954C18.3465 4.53149 18.6304 5.00352 18.6304 5.75874ZM17.4007 8.40212C17.6846 8.40212 17.8739 8.21328 17.8739 7.93008V5.56996C17.8739 5.28674 17.7793 5.09793 17.4007 5.09793H17.1174V8.40212H17.4007Z" fill="white"/>
<path fill-rule="evenodd" clip-rule="evenodd" d="M21.0889 4.53149V8.0245C21.0889 8.77975 20.8056 9.15738 19.9544 9.15738C19.1032 9.15738 18.8193 8.68533 18.8193 8.0245V4.53149H19.5759V8.11892C19.5759 8.40212 19.6705 8.59091 19.9544 8.59091C20.2378 8.59091 20.3324 8.40212 20.3324 8.11892V4.53149H21.0889Z" fill="white"/>
<path fill-rule="evenodd" clip-rule="evenodd" d="M21.2787 8.11892V7.55245H21.9406V8.21328C21.9406 8.49654 22.0352 8.59091 22.3191 8.59091C22.5079 8.59091 22.6972 8.40212 22.6972 8.21328V8.0245C22.6972 7.74129 22.6025 7.55245 22.3191 7.36367L21.846 6.89162C21.468 6.41963 21.1841 6.23079 21.1841 5.66438V5.56996C21.1841 5.00352 21.5626 4.53149 22.2245 4.53149C22.981 4.53149 23.2649 4.90911 23.2649 5.56996V5.94758H22.7918V5.56996C22.7918 5.28674 22.6972 5.19233 22.4138 5.19233C22.2245 5.19233 22.0352 5.28674 22.0352 5.56996V5.66438C22.0352 5.94758 22.2245 6.042 22.4138 6.23079L22.8864 6.70283C23.2644 7.08046 23.4537 7.36367 23.4537 7.83571V8.0245C23.4537 8.68533 23.0757 9.06295 22.3191 9.06295C21.5626 9.06295 21.2787 8.77975 21.2787 8.11892Z" fill="white"/>
<path fill-rule="evenodd" clip-rule="evenodd" d="M23.4531 4.53149H25.534V5.19233H24.8715V9.06295H24.115V5.19233H23.4531V4.53149Z" fill="white"/>
<path fill-rule="evenodd" clip-rule="evenodd" d="M26.4797 6.98604V9.06295H25.7231V4.53149H26.8582C27.6148 4.53149 27.8987 4.90911 27.8987 5.56996V6.13637C27.8987 6.60841 27.7094 6.89162 27.3309 6.98604L28.0874 9.06295H27.3309L26.4797 6.98604ZM26.4797 5.19233V6.60841H26.7636C27.0475 6.60841 27.1421 6.51399 27.1421 6.23079V5.47554C27.1421 5.19233 27.0475 5.09793 26.7636 5.09793H26.4797V5.19233Z" fill="white"/>
<path fill-rule="evenodd" clip-rule="evenodd" d="M29.5066 7.36367V9.06295H28.7501V7.36367L27.8989 4.53149H28.6554L29.2227 6.23079L29.6954 4.53149H30.3578L29.5066 7.36367Z" fill="white"/>
<path fill-rule="evenodd" clip-rule="evenodd" d="M30.8297 8.4021L30.4517 9.53498H29.9785L30.0732 8.4021H30.8297Z" fill="white"/>
<path d="M32.2482 4.53149H31.4917V9.06295H32.2482V4.53149Z" fill="white"/>
<path fill-rule="evenodd" clip-rule="evenodd" d="M33.1946 6.23079V9.06295H32.5327V4.53149H33.2892L34.1404 7.08046V4.53149H34.8023V9.06295H34.1404L33.1946 6.23079Z" fill="white"/>
<path fill-rule="evenodd" clip-rule="evenodd" d="M35.6527 6.23079V9.06295H35.0854V4.53149H35.7474L36.5985 7.08046V4.53149H37.1658V9.06295H36.5039L35.6527 6.23079Z" fill="white"/>
<path fill-rule="evenodd" clip-rule="evenodd" d="M37.5449 7.93008V5.75874C37.5449 5.00352 37.9229 4.53149 38.6794 4.53149C39.436 4.53149 39.8145 5.00352 39.8145 5.75874V7.93008C39.8145 8.68533 39.436 9.15738 38.6794 9.15738C37.9229 9.15738 37.5449 8.68533 37.5449 7.93008ZM39.058 8.0245V5.66438C39.058 5.38112 38.9633 5.19233 38.6794 5.19233C38.3961 5.19233 38.3014 5.38112 38.3014 5.66438V8.11892C38.3014 8.40212 38.3961 8.59091 38.6794 8.59091C38.9633 8.49654 39.058 8.3077 39.058 8.0245Z" fill="white"/>
<path fill-rule="evenodd" clip-rule="evenodd" d="M42.462 4.53149L41.5168 9.06295H40.6656L39.8145 4.53149H40.571L41.1382 7.64687L41.7055 4.53149H42.462Z" fill="white"/>
<path fill-rule="evenodd" clip-rule="evenodd" d="M41.9897 9.06295L42.8409 4.53149H43.6921L44.5433 9.06295H43.7867L43.6921 8.21328H42.8409L42.6516 9.06295H41.9897ZM42.9355 7.64687H43.5975L43.3141 5.85316L42.9355 7.64687Z" fill="white"/>
<path fill-rule="evenodd" clip-rule="evenodd" d="M44.2593 4.53149H46.2455V5.19233H45.6777V9.06295H44.9212V5.19233H44.2593V4.53149Z" fill="white"/>
<path d="M47.1913 4.53149H46.5288V9.06295H47.1913V4.53149Z" fill="white"/>
<path fill-rule="evenodd" clip-rule="evenodd" d="M47.5693 7.93008V5.75874C47.5693 5.00352 47.9474 4.53149 48.7039 4.53149C49.4604 4.53149 49.8389 5.00352 49.8389 5.75874V7.93008C49.8389 8.68533 49.4604 9.15738 48.7039 9.15738C47.8527 9.15738 47.5693 8.68533 47.5693 7.93008ZM49.0824 8.0245V5.66438C49.0824 5.38112 48.9878 5.19233 48.7039 5.19233C48.4205 5.19233 48.3259 5.38112 48.3259 5.66438V8.11892C48.3259 8.40212 48.4205 8.59091 48.7039 8.59091C48.8931 8.49654 49.0824 8.3077 49.0824 8.0245Z" fill="white"/>
<path fill-rule="evenodd" clip-rule="evenodd" d="M50.6898 6.23079V9.06295H50.0278V4.53149H50.7844L51.6355 7.08046V4.53149H52.298V9.06295H51.6355L50.6898 6.23079Z" fill="white"/>
<path fill-rule="evenodd" clip-rule="evenodd" d="M12.6724 15.4824L13.5235 10.9509H14.3747L15.2259 15.4824H14.4693L14.3747 14.6327H13.5235L13.4289 15.4824H12.6724ZM13.6182 14.0663H14.1854L13.9021 12.2726L13.6182 14.0663Z" fill="white"/>
<path fill-rule="evenodd" clip-rule="evenodd" d="M16.077 12.6502V15.4824H15.415V10.9509H16.1716L17.0228 13.5943V10.9509H17.6847V15.4824H17.0228L16.077 12.6502Z" fill="white"/>
<path fill-rule="evenodd" clip-rule="evenodd" d="M20.1436 12.1782V14.2551C20.1436 14.916 19.8597 15.4824 19.0085 15.4824H17.874V10.9509H19.0085C19.8597 10.9509 20.1436 11.5173 20.1436 12.1782ZM19.0085 14.916C19.2924 14.916 19.4817 14.7271 19.4817 14.4439V12.0838C19.4817 11.8005 19.3871 11.6118 19.0085 11.6118H18.7252V14.916H19.0085Z" fill="white"/>
<path d="M21.7512 10.9509H20.9946V15.4824H21.7512V10.9509Z" fill="white"/>
<path fill-rule="evenodd" clip-rule="evenodd" d="M22.6024 12.6502V15.4824H22.0352V10.9509H22.6971L23.5482 13.5943V10.9509H24.1155V15.4824H23.5482L22.6024 12.6502Z" fill="white"/>
<path fill-rule="evenodd" clip-rule="evenodd" d="M24.4937 10.9509H26.196V11.6118H25.2507V12.9334H25.9126V13.4999H25.2507V15.4824H24.4937V10.9509Z" fill="white"/>
<path fill-rule="evenodd" clip-rule="evenodd" d="M27.1423 13.4055V15.4824H26.3857V10.9509H27.5203C28.2768 10.9509 28.5607 11.3286 28.5607 11.9894V12.5558C28.5607 13.0278 28.3714 13.311 27.9934 13.4055L28.75 15.4824H27.9934L27.1423 13.4055ZM27.1423 11.6118V13.0278H27.4256C27.7096 13.0278 27.8042 12.9334 27.8042 12.6502V11.9894C27.8042 11.7062 27.7096 11.6118 27.4256 11.6118H27.1423Z" fill="white"/>
<path fill-rule="evenodd" clip-rule="evenodd" d="M28.6553 15.4824L29.5064 10.9509H30.3576L31.2088 15.4824H30.4517L30.3576 14.6327H29.5064L29.4118 15.4824H28.6553ZM29.6952 14.0663H30.3576L30.0737 12.2726L29.6952 14.0663Z" fill="white"/>
<path fill-rule="evenodd" clip-rule="evenodd" d="M31.3027 14.444V13.8776H31.9647V14.5384C31.9647 14.8217 32.0593 14.916 32.3432 14.916C32.5319 14.916 32.7212 14.7273 32.7212 14.5384V14.3496C32.7212 14.0664 32.6265 13.8776 32.4373 13.6888L31.9647 13.2167C31.5866 12.7447 31.3027 12.5559 31.3027 11.9895V11.8007C31.3027 11.2343 31.6808 10.7622 32.3432 10.7622C33.0997 10.7622 33.3831 11.1398 33.3831 11.8007V12.2727H32.7212V11.8951C32.7212 11.6119 32.6265 11.5175 32.3432 11.5175C32.1539 11.5175 31.9647 11.6119 31.9647 11.8951V11.9895C31.9647 12.2727 32.1539 12.3671 32.3432 12.5559L32.8158 13.028C33.1938 13.4056 33.3831 13.6888 33.3831 14.1608V14.3496C33.3831 15.0105 33.0051 15.3881 32.2486 15.3881C31.492 15.3881 31.3027 15.1049 31.3027 14.444Z" fill="white"/>
<path fill-rule="evenodd" clip-rule="evenodd" d="M33.478 10.9509H35.4642V11.6118H34.8964V15.4824H34.1399V11.6118H33.478V10.9509Z" fill="white"/>
<path fill-rule="evenodd" clip-rule="evenodd" d="M36.5041 13.4055V15.4824H35.7476V10.9509H36.8826C37.6391 10.9509 37.923 11.3286 37.923 11.9894V12.5558C37.923 13.0278 37.7338 13.311 37.3552 13.4055L38.1118 15.4824H37.3552L36.5041 13.4055ZM36.5041 11.6118V13.0278H36.788C37.0719 13.0278 37.1665 12.9334 37.1665 12.6502V11.9894C37.1665 11.7062 37.0719 11.6118 36.788 11.6118H36.5041Z" fill="white"/>
<path fill-rule="evenodd" clip-rule="evenodd" d="M40.2868 10.9509V14.3495C40.2868 15.0103 40.0034 15.4824 39.2469 15.4824C38.4904 15.4824 38.1118 15.0103 38.1118 14.3495V10.9509H38.8683V14.4439C38.8683 14.7271 38.963 14.916 39.2469 14.916C39.5302 14.916 39.6249 14.7271 39.6249 14.4439V10.9509H40.2868Z" fill="white"/>
<path fill-rule="evenodd" clip-rule="evenodd" d="M40.4766 14.2553V12.0839C40.4766 11.3287 40.8551 10.8567 41.6116 10.8567C42.4628 10.8567 42.7462 11.3287 42.7462 11.9895V12.556H41.9896V11.9895C41.9896 11.7063 41.895 11.5175 41.6116 11.5175C41.3277 11.5175 41.2331 11.7063 41.2331 11.9895V14.4441C41.2331 14.7273 41.3277 14.9161 41.6116 14.9161C41.895 14.9161 41.9896 14.7273 41.9896 14.4441V13.5944H42.7462V14.3497C42.7462 15.0105 42.4628 15.4826 41.6116 15.4826C40.8551 15.4826 40.4766 15.0105 40.4766 14.2553Z" fill="white"/>
<path fill-rule="evenodd" clip-rule="evenodd" d="M42.8408 10.9509H44.9212V11.6118H44.2593V15.4824H43.5027V11.6118H42.8408V10.9509Z" fill="white"/>
<path fill-rule="evenodd" clip-rule="evenodd" d="M47.2858 10.9509V14.3495C47.2858 15.0103 47.0019 15.4824 46.1507 15.4824C45.2995 15.4824 45.0156 15.0103 45.0156 14.3495V10.9509H45.7722V14.4439C45.7722 14.7271 45.8668 14.916 46.1507 14.916C46.4346 14.916 46.5287 14.7271 46.5287 14.4439V10.9509H47.2858Z" fill="white"/>
<path fill-rule="evenodd" clip-rule="evenodd" d="M48.3259 13.4055V15.4824H47.5693V10.9509H48.7039C49.4604 10.9509 49.7443 11.3286 49.7443 11.9894V12.5558C49.7443 13.0278 49.555 13.311 49.177 13.4055L49.9336 15.4824H49.177L48.3259 13.4055ZM48.3259 11.6118V13.0278H48.6092C48.8931 13.0278 48.9878 12.9334 48.9878 12.6502V11.9894C48.9878 11.7062 48.8931 11.6118 48.6092 11.6118H48.3259Z" fill="white"/>
<path fill-rule="evenodd" clip-rule="evenodd" d="M49.9336 10.9509H51.7301V11.6118H50.6901V12.9334H51.4467V13.4999H50.6901V14.916H51.7301V15.4824H49.9336V10.9509Z" fill="white"/>
<path d="M52.3958 2.67334H10.6929V20.3169H52.3958V2.67334Z" fill="#566D79"/>
<path d="M12.9093 4.97892H13.4979V8.01976H12.9093V6.07955L12.0463 8.01976H11.4598V4.97892H12.0463V6.92121L12.9093 4.97892ZM16.0771 8.01976H15.4965V6.70194H14.6362V8.01976H14.0534V4.97892H14.6362V6.22573H15.4965V4.97892H16.0771V8.01976ZM18.7022 8.76742H18.197V8.01976H17.0464V8.76742H16.5513L16.4594 7.54777H16.5722C16.6364 7.51435 16.6919 7.46767 16.7395 7.40785C16.7866 7.34797 16.8262 7.26718 16.8582 7.16554C16.8903 7.06251 16.916 6.93516 16.9358 6.78337C16.955 6.63019 16.9689 6.44365 16.9775 6.22364L17.0608 4.97892H18.5627V7.54777H18.7862L18.7022 8.76742ZM17.5661 6.22364C17.5591 6.38655 17.549 6.53417 17.5351 6.66644C17.5223 6.79866 17.5057 6.91912 17.4848 7.02771C17.464 7.13496 17.4394 7.23168 17.4116 7.31803C17.3838 7.40298 17.3533 7.47954 17.3202 7.54777H17.9778V5.45508H17.6164L17.5661 6.22364ZM20.0453 6.02315L20.2436 6.58496L20.8788 4.97892H21.5177L20.4361 7.44335C20.3998 7.52547 20.3575 7.60417 20.3083 7.67934C20.2613 7.75452 20.2036 7.82065 20.1351 7.87775C20.0683 7.9348 19.9897 7.98009 19.8993 8.0135C19.8085 8.04692 19.702 8.0636 19.5796 8.0636C19.4807 8.0636 19.393 8.05526 19.3166 8.03858C19.2412 8.02323 19.1802 8.00933 19.1326 7.99677L19.1701 7.53734C19.1882 7.5429 19.2102 7.54916 19.2353 7.55611C19.2615 7.56167 19.2888 7.56723 19.3166 7.57284C19.3444 7.5784 19.3727 7.58327 19.4021 7.58744C19.4315 7.59022 19.4593 7.59161 19.4855 7.59161C19.5523 7.59161 19.6112 7.58466 19.6609 7.57076C19.7111 7.5568 19.7544 7.53734 19.7908 7.51227C19.8266 7.48719 19.8566 7.45725 19.8806 7.42244C19.9052 7.38625 19.9255 7.34588 19.941 7.30129L19.9993 7.17185L18.9386 4.97892H19.5732L20.0453 6.02315ZM23.8884 7.06743C23.8782 7.22056 23.8451 7.35839 23.7879 7.48093C23.7323 7.60348 23.6569 7.70789 23.5623 7.79419C23.4676 7.88053 23.3548 7.94737 23.2243 7.99468C23.0934 8.04066 22.9485 8.0636 22.7897 8.0636C22.61 8.0636 22.4507 8.03088 22.3111 7.96544C22.1721 7.89861 22.055 7.80606 21.9604 7.68768C21.8658 7.56792 21.7936 7.42453 21.7434 7.25745C21.6931 7.09037 21.668 6.90661 21.668 6.70611V6.29673C21.668 6.09485 21.6947 5.91039 21.7476 5.74331C21.8006 5.57623 21.8754 5.43284 21.9733 5.31307C22.0706 5.19333 22.1882 5.10074 22.3261 5.03531C22.4651 4.96847 22.6213 4.93506 22.7939 4.93506C22.9608 4.93506 23.1094 4.95873 23.2388 5.00607C23.3698 5.0534 23.481 5.12093 23.573 5.20865C23.6649 5.29637 23.7371 5.40359 23.79 5.5303C23.8429 5.65696 23.8766 5.79972 23.8905 5.9584H23.3056C23.2997 5.86794 23.2858 5.78854 23.2639 5.72032C23.2431 5.6521 23.2115 5.59569 23.1698 5.55116C23.1292 5.50523 23.0779 5.47112 23.0153 5.44882C22.9538 5.42514 22.88 5.41332 22.7939 5.41332C22.7036 5.41332 22.6245 5.43284 22.5576 5.47181C22.4908 5.51079 22.4352 5.56789 22.3908 5.64306C22.3475 5.71824 22.3154 5.81084 22.2946 5.92082C22.2737 6.0294 22.2636 6.15334 22.2636 6.29256V6.70611C22.2636 7.00547 22.3053 7.22681 22.3887 7.37026C22.4737 7.51366 22.6074 7.58535 22.7897 7.58535C22.9426 7.58535 23.0639 7.54499 23.1532 7.4642C23.242 7.38208 23.2917 7.2498 23.3013 7.06743H23.8884ZM26.5804 5.45716H25.6426V8.01976H25.0534V5.45716H24.1285V4.97892H26.5804V5.45716ZM27.539 6.90452V8.01976H26.9519V4.97892H27.9918C28.1576 4.97892 28.3073 5.00328 28.441 5.05201C28.5746 5.09935 28.6885 5.16618 28.7815 5.25251C28.8762 5.33744 28.9489 5.43979 28.9986 5.5595C29.0505 5.67926 29.0761 5.81223 29.0761 5.9584C29.0761 6.09485 29.0505 6.22086 28.9986 6.33645C28.9489 6.45199 28.8762 6.55224 28.7815 6.6372C28.6885 6.72071 28.5746 6.78615 28.441 6.83347C28.3073 6.88084 28.1576 6.90452 27.9918 6.90452H27.539ZM27.539 6.42831H27.9918C28.0758 6.42831 28.148 6.4158 28.2095 6.39072C28.2704 6.36565 28.3212 6.33154 28.3618 6.28839C28.4035 6.24524 28.434 6.19579 28.4538 6.14013C28.4746 6.08303 28.4848 6.02384 28.4848 5.96257C28.4848 5.89157 28.4746 5.82543 28.4538 5.76416C28.434 5.70294 28.4035 5.64932 28.3618 5.60339C28.3212 5.55741 28.2704 5.52122 28.2095 5.49475C28.148 5.46834 28.0758 5.45508 27.9918 5.45508H27.539V6.42831ZM30.8907 4.97892H31.4799V8.01976H30.8907V6.07955L30.0283 8.01976H29.4413V4.97892H30.0283V6.92121L30.8907 4.97892ZM33.5474 7.38486H32.6348L32.4551 8.01976H31.8371L32.8331 4.97892H33.3657L34.343 8.01976H33.7249L33.5474 7.38486ZM32.7791 6.8857H33.4095L33.0983 5.7663L32.7791 6.8857ZM36.6511 4.97892V8.01976H36.0619V5.45508H35.4332L35.423 6.57037C35.4187 6.8363 35.3979 7.06112 35.3605 7.24494C35.3241 7.4287 35.2711 7.5784 35.2017 7.69394C35.1322 7.80814 35.045 7.89096 34.9407 7.9425C34.836 7.99399 34.714 8.01976 34.5751 8.01976H34.4291V7.54777H34.5125C34.5804 7.54082 34.6349 7.52061 34.675 7.48719C34.7173 7.45238 34.7488 7.39806 34.7712 7.32428C34.7948 7.24911 34.8108 7.15095 34.8194 7.02979C34.8279 6.9073 34.8333 6.75413 34.836 6.57037L34.8488 4.97892H36.6511ZM38.5972 4.97892H39.1864V8.01976H38.5972V6.07955L37.7348 8.01976H37.1478V4.97892H37.7348V6.92121L38.5972 4.97892ZM41.887 5.80389C41.887 5.8735 41.8757 5.94033 41.8533 6.00438C41.8324 6.06843 41.8019 6.12896 41.7613 6.18606C41.7212 6.24177 41.6715 6.29256 41.6132 6.33854C41.555 6.38447 41.4886 6.42414 41.4149 6.45755C41.5833 6.51605 41.7116 6.60517 41.7993 6.72488C41.888 6.84325 41.9329 6.99082 41.9329 7.16763C41.9329 7.30968 41.9035 7.4364 41.8453 7.54777C41.788 7.65913 41.7078 7.75313 41.6047 7.82969C41.5031 7.90491 41.3806 7.96266 41.2374 8.00308C41.0951 8.04205 40.9401 8.06151 40.7717 8.06151C40.6353 8.06151 40.5001 8.04483 40.3664 8.01142C40.2327 7.97661 40.1125 7.92368 40.005 7.85268C39.8991 7.78029 39.8131 7.68838 39.7462 7.57701C39.6804 7.46559 39.6478 7.33193 39.6478 7.17602H40.237C40.237 7.23446 40.2493 7.28878 40.2744 7.33893C40.3012 7.38903 40.3381 7.43287 40.3851 7.47051C40.4327 7.50809 40.4888 7.53804 40.5546 7.56028C40.6198 7.58118 40.692 7.59161 40.7717 7.59161C40.8636 7.59161 40.9449 7.58118 41.016 7.56028C41.0871 7.53804 41.147 7.5074 41.1957 7.46842C41.2443 7.42939 41.2812 7.38416 41.3063 7.33262C41.3315 7.27974 41.3438 7.22264 41.3438 7.16137C41.3438 6.99846 41.2978 6.88084 41.2058 6.80845C41.1155 6.73606 40.9818 6.69981 40.8048 6.69981H40.3958V6.24038H40.8048C40.8925 6.24038 40.9674 6.23059 41.0283 6.21113C41.0909 6.19023 41.1422 6.16098 41.1807 6.1234C41.2213 6.08581 41.2507 6.04127 41.2689 5.98973C41.2881 5.93686 41.2978 5.87836 41.2978 5.81431C41.2978 5.75999 41.2876 5.7085 41.2668 5.65974C41.2459 5.60965 41.2138 5.5665 41.1705 5.5303C41.1272 5.49406 41.0722 5.46556 41.0053 5.44465C40.9401 5.42236 40.862 5.41124 40.7717 5.41124C40.7022 5.41124 40.6375 5.42027 40.5776 5.4384C40.5177 5.45647 40.4653 5.48224 40.4209 5.51565C40.3776 5.54907 40.3429 5.58944 40.3162 5.63681C40.291 5.68412 40.2787 5.73706 40.2787 5.79549H39.6917C39.6917 5.66183 39.7205 5.54212 39.7772 5.43631C39.836 5.33048 39.9146 5.24067 40.0135 5.16688C40.1125 5.09309 40.2263 5.0367 40.3557 4.99771C40.4867 4.95734 40.6252 4.93715 40.7717 4.93715C40.9401 4.93715 41.093 4.95594 41.2309 4.99353C41.3689 5.02974 41.486 5.08473 41.5817 5.15853C41.6795 5.23093 41.7544 5.32143 41.8073 5.43C41.8602 5.53726 41.887 5.66183 41.887 5.80389ZM43.823 7.38486H42.9103L42.7306 8.01976H42.1126L43.1087 4.97892H43.6412L44.6185 8.01976H44.0004L43.823 7.38486ZM43.0541 6.8857H43.685L43.3738 5.7663L43.0541 6.8857ZM46.9512 6.91286H45.2114V6.44296H46.9512V6.91286ZM11.4556 9.7908H12.0405V12.3596H12.8692V9.7908H13.4584V12.3617H13.8529L13.8112 13.5647H13.268V12.8316H11.4556V9.7908ZM15.4777 9.7908H16.067V12.8316H15.4777V10.8914L14.6154 12.8316H14.0283V9.7908H14.6154V11.7331L15.4777 9.7908ZM17.9548 12.8316V11.6349H17.4848L16.9128 12.8316H16.284L16.9422 11.4574C16.7802 11.378 16.6572 11.275 16.5722 11.1483C16.4888 11.0202 16.4471 10.8657 16.4471 10.6847C16.4471 10.5385 16.4727 10.4097 16.5241 10.2983C16.5759 10.1869 16.6497 10.0936 16.7454 10.0185C16.8433 9.94328 16.9609 9.88688 17.0983 9.84929C17.2362 9.81031 17.3907 9.7908 17.5624 9.7908H18.544V12.8316H17.9548ZM17.0336 10.7202C17.0336 10.8789 17.0774 10.9965 17.1651 11.0731C17.2533 11.1483 17.3854 11.1859 17.5624 11.1859H17.9548V10.267H17.5624C17.3811 10.267 17.2474 10.3066 17.1614 10.386C17.0764 10.4654 17.0336 10.5768 17.0336 10.7202ZM20.4174 12.7857C20.4174 12.8651 20.4062 12.9465 20.3837 13.03C20.3629 13.1136 20.3335 13.1943 20.296 13.2723C20.2586 13.3503 20.2132 13.4241 20.1602 13.4937C20.1089 13.5633 20.0533 13.6253 19.9934 13.6795L19.686 13.5209C19.7127 13.4707 19.7368 13.4199 19.7592 13.3684C19.7828 13.3169 19.8031 13.2626 19.8197 13.2055C19.8368 13.1484 19.8496 13.0878 19.8598 13.0238C19.8694 12.9597 19.8742 12.8894 19.8742 12.8128V12.3241H20.419L20.4174 12.7857ZM23.1842 9.7908H23.7734V12.8316H23.1842V10.8914L22.3219 12.8316H21.7348V9.7908H22.3219V11.7331L23.1842 9.7908ZM26.3526 12.8316H25.772V11.5138H24.9117V12.8316H24.329V9.7908H24.9117V11.0376H25.772V9.7908H26.3526V12.8316ZM28.9216 12.8316H28.341V11.5138H27.4802V12.8316H26.898V9.7908H27.4802V11.0376H28.341V9.7908H28.9216V12.8316ZM31.605 11.5347C31.605 11.7296 31.5794 11.9092 31.528 12.0735C31.4762 12.2378 31.4019 12.3791 31.3046 12.4975C31.2067 12.6159 31.088 12.7084 30.9474 12.7752C30.8079 12.8407 30.6507 12.8734 30.4753 12.8734C30.2999 12.8734 30.1438 12.8407 30.0075 12.7752C29.8712 12.7084 29.7562 12.6159 29.6626 12.4975C29.5696 12.3777 29.4985 12.2364 29.4498 12.0735C29.4012 11.9092 29.3766 11.7296 29.3766 11.5347V11.0919C29.3766 10.897 29.4012 10.7174 29.4498 10.5531C29.4985 10.3888 29.5696 10.2475 29.6626 10.1291C29.7562 10.0094 29.8701 9.91612 30.0053 9.84929C30.1417 9.78246 30.2978 9.74904 30.4732 9.74904C30.6502 9.74904 30.8079 9.78246 30.9474 9.84929C31.088 9.91612 31.2067 10.0094 31.3046 10.1291C31.4019 10.2475 31.4762 10.3888 31.528 10.5531C31.5794 10.7174 31.605 10.897 31.605 11.0919V11.5347ZM31.01 11.0878C31.01 10.9638 30.9993 10.8497 30.9784 10.7453C30.9592 10.6408 30.9276 10.551 30.8849 10.4758C30.8416 10.4006 30.7859 10.3422 30.7175 10.3004C30.6507 10.2572 30.5694 10.2356 30.4732 10.2356C30.3785 10.2356 30.2994 10.2572 30.2353 10.3004C30.1711 10.3422 30.1198 10.4006 30.0808 10.4758C30.0417 10.551 30.0139 10.6408 29.9968 10.7453C29.9802 10.8497 29.9722 10.9638 29.9722 11.0878V11.5347C29.9722 11.6572 29.9802 11.7707 29.9968 11.8751C30.0139 11.9795 30.0417 12.07 30.0808 12.1466C30.1198 12.2232 30.1711 12.2831 30.2353 12.3262C30.2994 12.3694 30.3791 12.391 30.4753 12.391C30.57 12.391 30.6507 12.3694 30.7175 12.3262C30.7859 12.2831 30.841 12.2239 30.8827 12.1487C30.9255 12.0721 30.9576 11.9816 30.9784 11.8772C30.9993 11.7728 31.01 11.6586 31.01 11.5347V11.0878ZM32.0477 12.8316V9.7908H33.0694C33.2347 9.7908 33.3854 9.80753 33.5202 9.84089C33.657 9.87436 33.7731 9.92516 33.8693 9.99338C33.965 10.0616 34.0388 10.1479 34.0907 10.2524C34.1436 10.3568 34.1698 10.48 34.1698 10.622C34.1687 10.764 34.1302 10.8914 34.0548 11.0042C33.981 11.117 33.872 11.2026 33.7271 11.2611C33.8147 11.2834 33.8907 11.3168 33.9548 11.3613C34.019 11.4059 34.0719 11.4588 34.1136 11.5201C34.1564 11.58 34.1879 11.6461 34.2072 11.7185C34.2286 11.7895 34.2387 11.8633 34.2387 11.9398C34.2387 12.0861 34.2136 12.2149 34.1634 12.3262C34.1136 12.4376 34.042 12.5309 33.9484 12.6061C33.8554 12.6813 33.7415 12.7376 33.6079 12.7752C33.4742 12.8128 33.324 12.8316 33.1571 12.8316H32.0477ZM32.6369 11.4908V12.3576H33.1593C33.3191 12.3562 33.441 12.3172 33.5244 12.2406C33.6095 12.1626 33.6517 12.061 33.6517 11.9357C33.6533 11.7964 33.6159 11.6879 33.5389 11.6098C33.4624 11.5319 33.3443 11.4922 33.1839 11.4908H32.6369ZM32.6369 11.0669H33.0732C33.2363 11.0655 33.3614 11.0314 33.4491 10.9645C33.5373 10.8977 33.5817 10.7995 33.5827 10.67C33.5827 10.528 33.5389 10.4264 33.4512 10.3651C33.3635 10.3025 33.2368 10.2704 33.071 10.269H32.6369V11.0669ZM36.1165 12.1967H35.2038L35.0241 12.8316H34.4061L35.4022 9.7908H35.9347L36.912 12.8316H36.2939L36.1165 12.1967ZM35.3476 11.6976H35.9785L35.6673 10.5782L35.3476 11.6976ZM37.1441 9.7908H37.7284V12.3596H38.5577V9.7908H39.1469V12.3617H39.5414L39.4997 13.5647H38.9565V12.8316H37.1441V9.7908ZM41.1662 9.7908H41.7554V12.8316H41.1662V10.8914L40.3038 12.8316H39.7168V9.7908H40.3038V11.7331L41.1662 9.7908ZM43.7353 9.7908H44.3239V12.8316H43.7353V10.8914L42.8729 12.8316H42.2858V9.7908H42.8729V11.7331L43.7353 9.7908ZM12.9093 14.6027H13.4979V17.6435H12.9093V15.7033L12.0463 17.6435H11.4598V14.6027H12.0463V16.545L12.9093 14.6027ZM18.0468 14.6027H18.6354V17.6435H18.0468V15.7033L17.1844 17.6435H16.5973V14.6027H17.1844V16.545L18.0468 14.6027ZM21.2151 17.6435H20.6345V16.3257H19.7737V17.6435H19.1915V14.6027H19.7737V15.8495H20.6345V14.6027H21.2151V17.6435ZM23.1821 15.012C23.3243 15.0274 23.4537 15.0649 23.5708 15.1248C23.6879 15.1846 23.7879 15.2634 23.8713 15.3608C23.9563 15.4583 24.022 15.5731 24.068 15.7054C24.1151 15.8363 24.1386 15.9811 24.1386 16.1398C24.1386 16.2958 24.1151 16.4385 24.068 16.568C24.022 16.6961 23.9563 16.8081 23.8713 16.9042C23.7879 17.0003 23.6879 17.0782 23.5708 17.1381C23.4537 17.1966 23.3243 17.2335 23.1821 17.2488V17.6435H22.5977V17.2488C22.4555 17.2335 22.3256 17.1966 22.2069 17.1381C22.0898 17.0796 21.9893 17.0031 21.9043 16.9084C21.8204 16.8123 21.7551 16.7002 21.7081 16.5721C21.6621 16.4426 21.6391 16.2999 21.6391 16.144C21.6391 15.9852 21.6621 15.8398 21.7081 15.7075C21.7551 15.5752 21.8204 15.4604 21.9043 15.3629C21.9893 15.264 22.0898 15.1846 22.2069 15.1248C22.3256 15.0649 22.4555 15.0274 22.5977 15.012V14.6027H23.1821V15.012ZM22.2155 16.144C22.2155 16.3124 22.2497 16.4468 22.3176 16.5471C22.386 16.6459 22.479 16.7093 22.5977 16.7371V15.5237C22.479 15.5529 22.386 15.6197 22.3176 15.7242C22.2497 15.8286 22.2155 15.9686 22.2155 16.144ZM23.558 16.1398C23.558 15.9658 23.5248 15.8272 23.458 15.7242C23.3912 15.6197 23.2992 15.5529 23.1821 15.5237V16.735C23.2992 16.7072 23.3912 16.6431 23.458 16.5429C23.5248 16.4426 23.558 16.3083 23.558 16.1398ZM24.97 16.5283V17.6435H24.3829V14.6027H25.4234C25.5891 14.6027 25.7388 14.6271 25.8725 14.6758C26.0061 14.7231 26.1195 14.79 26.2125 14.8763C26.3071 14.9612 26.3799 15.0636 26.4301 15.1833C26.4815 15.303 26.5071 15.436 26.5071 15.5822C26.5071 15.7186 26.4815 15.8446 26.4301 15.9602C26.3799 16.0758 26.3071 16.176 26.2125 16.261C26.1195 16.3445 26.0061 16.4099 25.8725 16.4572C25.7388 16.5046 25.5891 16.5283 25.4234 16.5283H24.97ZM24.97 16.0521H25.4234C25.5068 16.0521 25.5789 16.0396 25.6404 16.0145C25.7019 15.9894 25.7527 15.9553 25.7928 15.9122C25.8345 15.869 25.8655 15.8195 25.8848 15.7639C25.9056 15.7068 25.9163 15.6476 25.9163 15.5863C25.9163 15.5153 25.9056 15.4492 25.8848 15.3879C25.8655 15.3267 25.8345 15.2731 25.7928 15.2272C25.7527 15.1812 25.7019 15.145 25.6404 15.1185C25.5789 15.0921 25.5068 15.0788 25.4234 15.0788H24.97V16.0521ZM28.41 17.0086H27.4973L27.3176 17.6435H26.6996L27.6957 14.6027H28.2282L29.2055 17.6435H28.5875L28.41 17.0086ZM27.6411 16.5095H28.272L27.9608 15.3901L27.6411 16.5095ZM31.5949 16.6912C31.5853 16.8443 31.5516 16.9822 31.4944 17.1047C31.4388 17.2272 31.3634 17.3317 31.2687 17.418C31.1741 17.5043 31.0613 17.5711 30.9308 17.6184C30.7998 17.6644 30.655 17.6874 30.4962 17.6874C30.3165 17.6874 30.1572 17.6546 30.0182 17.5892C29.8786 17.5224 29.7615 17.4298 29.6669 17.3114C29.5723 17.1917 29.5001 17.0483 29.4498 16.8812C29.3996 16.7141 29.3745 16.5304 29.3745 16.3299V15.9205C29.3745 15.7186 29.4012 15.5342 29.4541 15.3671C29.5071 15.2 29.5819 15.0566 29.6798 14.9368C29.777 14.8171 29.8947 14.7245 30.0326 14.6591C30.1716 14.5923 30.3278 14.5588 30.5004 14.5588C30.6673 14.5588 30.8159 14.5825 30.9453 14.6298C31.0763 14.6772 31.1875 14.7447 31.2794 14.8324C31.3714 14.9201 31.4436 15.0274 31.4965 15.1541C31.5494 15.2807 31.5831 15.4235 31.597 15.5822H31.0121C31.0062 15.4917 30.9923 15.4123 30.9704 15.3441C30.9496 15.2759 30.918 15.2195 30.8763 15.1749C30.8357 15.129 30.7843 15.0949 30.7218 15.0726C30.6603 15.0489 30.5865 15.0371 30.5004 15.0371C30.4101 15.0371 30.3309 15.0566 30.2641 15.0956C30.1973 15.1346 30.1417 15.1917 30.0973 15.2668C30.054 15.342 30.0219 15.4346 30.0011 15.5446C29.9802 15.6532 29.9701 15.7771 29.9701 15.9163V16.3299C29.9701 16.6292 30.0118 16.8506 30.0952 16.994C30.1802 17.1374 30.3138 17.2091 30.4962 17.2091C30.6496 17.2091 30.7704 17.1687 30.8597 17.088C30.9485 17.0058 30.9982 16.8736 31.0078 16.6912H31.5949ZM34.2869 15.0809H33.3491V17.6435H32.7599V15.0809H31.835V14.6027H34.2869V15.0809ZM35.2455 16.5283V17.6435H34.6584V14.6027H35.6989C35.8641 14.6027 36.0138 14.6271 36.1475 14.6758C36.2811 14.7231 36.395 14.79 36.488 14.8763C36.5826 14.9612 36.6554 15.0636 36.7051 15.1833C36.757 15.303 36.7826 15.436 36.7826 15.5822C36.7826 15.7186 36.757 15.8446 36.7051 15.9602C36.6554 16.0758 36.5826 16.176 36.488 16.261C36.395 16.3445 36.2811 16.4099 36.1475 16.4572C36.0138 16.5046 35.8641 16.5283 35.6989 16.5283H35.2455ZM35.2455 16.0521H35.6989C35.7823 16.0521 35.8545 16.0396 35.916 16.0145C35.9769 15.9894 36.0277 15.9553 36.0683 15.9122C36.11 15.869 36.1405 15.8195 36.1603 15.7639C36.1811 15.7068 36.1913 15.6476 36.1913 15.5863C36.1913 15.5153 36.1811 15.4492 36.1603 15.3879C36.1405 15.3267 36.11 15.2731 36.0683 15.2272C36.0277 15.1812 35.9769 15.145 35.916 15.1185C35.8545 15.0921 35.7823 15.0788 35.6989 15.0788H35.2455V16.0521ZM38.0273 15.6469L38.2256 16.2087L38.8608 14.6027H39.4997L38.4176 17.0671C38.3818 17.1492 38.339 17.2279 38.2903 17.3031C38.2433 17.3783 38.1856 17.4444 38.1171 17.5015C38.0503 17.5586 37.9717 17.6039 37.8813 17.6373C37.7904 17.6707 37.684 17.6874 37.5616 17.6874C37.4627 17.6874 37.375 17.679 37.2986 17.6623C37.2232 17.647 37.1622 17.6331 37.1147 17.6205L37.1521 17.1611C37.1702 17.1667 37.1916 17.1729 37.2168 17.1799C37.2435 17.1854 37.2708 17.191 37.2986 17.1966C37.3264 17.2022 37.3547 17.207 37.3841 17.2112C37.4135 17.214 37.4413 17.2154 37.4675 17.2154C37.5343 17.2154 37.5926 17.2084 37.6429 17.1945C37.6931 17.1806 37.7364 17.1611 37.7723 17.136C37.8086 17.111 37.8385 17.081 37.8621 17.0462C37.8872 17.01 37.9075 16.9696 37.923 16.9251L37.9813 16.7956L36.9206 14.6027H37.5552L38.0273 15.6469ZM40.6316 16.3946H40.3873V17.6435H39.8002V14.6027H40.3873V15.9414H40.5316L41.3272 14.6027H42.0056L41.0994 16.0667L42.0415 17.6435H41.3603L40.6316 16.3946ZM44.5624 15.0809H43.6246V17.6435H43.0354V15.0809H42.1105V14.6027H44.5624V15.0809ZM45.7338 15.6469L45.9321 16.2087L46.5673 14.6027H47.2062L46.1246 17.0671C46.0883 17.1492 46.0455 17.2279 45.9968 17.3031C45.9498 17.3783 45.8921 17.4444 45.8236 17.5015C45.7568 17.5586 45.6782 17.6039 45.5878 17.6373C45.4969 17.6707 45.3905 17.6874 45.2681 17.6874C45.1692 17.6874 45.0815 17.679 45.0051 17.6623C44.9297 17.647 44.8687 17.6331 44.8211 17.6205L44.8586 17.1611C44.8767 17.1667 44.8987 17.1729 44.9233 17.1799C44.95 17.1854 44.9773 17.191 45.0051 17.1966C45.0329 17.2022 45.0612 17.207 45.0906 17.2112C45.12 17.214 45.1478 17.2154 45.174 17.2154C45.2408 17.2154 45.2996 17.2084 45.3494 17.1945C45.3996 17.1806 45.4429 17.1611 45.4788 17.136C45.5151 17.111 45.545 17.081 45.5686 17.0462C45.5937 17.01 45.614 16.9696 45.6295 16.9251L45.6878 16.7956L44.6271 14.6027H45.2617L45.7338 15.6469ZM48.0895 16.5283V17.6435H47.503V14.6027H48.5429C48.7086 14.6027 48.8583 14.6271 48.992 14.6758C49.1256 14.7231 49.239 14.79 49.3326 14.8763C49.4272 14.9612 49.4993 15.0636 49.5496 15.1833C49.6009 15.303 49.6266 15.436 49.6266 15.5822C49.6266 15.7186 49.6009 15.8446 49.5496 15.9602C49.4993 16.0758 49.4272 16.176 49.3326 16.261C49.239 16.3445 49.1256 16.4099 48.992 16.4572C48.8583 16.5046 48.7086 16.5283 48.5429 16.5283H48.0895ZM48.0895 16.0521H48.5429C48.6263 16.0521 48.699 16.0396 48.7599 16.0145C48.8214 15.9894 48.8722 15.9553 48.9123 15.9122C48.954 15.869 48.985 15.8195 49.0043 15.7639C49.0251 15.7068 49.0358 15.6476 49.0358 15.5863C49.0358 15.5153 49.0251 15.4492 49.0043 15.3879C48.985 15.3267 48.954 15.2731 48.9123 15.2272C48.8722 15.1812 48.8214 15.145 48.7599 15.1185C48.699 15.0921 48.6263 15.0788 48.5429 15.0788H48.0895V16.0521ZM51.5295 17.0086H50.6168L50.4371 17.6435H49.8191L50.8152 14.6027H51.3477L52.325 17.6435H51.7069L51.5295 17.0086ZM50.7606 16.5095H51.3915L51.0803 15.3901L50.7606 16.5095Z" fill="white"/>
</g>
</svg>
