<?xml version="1.0" encoding="UTF-8"?>
<svg id="uuid-81d7ab0c-8eb2-40ab-8d2d-43688b5aa0e5" data-name="Layer 1" xmlns="http://www.w3.org/2000/svg" width="20" height="20" xmlns:xlink="http://www.w3.org/1999/xlink" viewBox="0 0 20 20">
  <defs>
    <clipPath id="uuid-77080ea8-4328-4baf-adea-8d0c086084b7">
      <rect x="1.496000289916992" y="1.495499610900879" width="17.007999420166016" height="17.009000778198242" fill="none"/>
    </clipPath>
    <clipPath id="uuid-d0553062-6262-4aed-8be5-bb093711ba13">
      <path d="m1.996000289916992,10.000500679016113c0,4.418999671936035,3.583000183105469,8.003999710083008,8.003000259399414,8.003999710083008,4.421999931335449,0,8.004999160766602-3.585000038146973,8.004999160766602-8.003999710083008,0-4.421000480651855-3.582999229431152-8.005001068115234-8.004999160766602-8.005001068115234C5.579000473022461,1.995499610900879,1.996000289916992,5.579500198364258,1.996000289916992,10.000500679016113" fill="none"/>
    </clipPath>
    <clipPath id="uuid-3b31388d-1eeb-4230-b823-5df3da80eb89">
      <rect x="1.496000289916992" y="1.495499610900879" width="17.007999420166016" height="17.009000778198242" fill="none"/>
    </clipPath>
  </defs>
  <g clip-path="url(#uuid-77080ea8-4328-4baf-adea-8d0c086084b7)" fill="none">
    <path d="m18.003900527954102,10.000100135803223c0,4.420000076293945-3.583000183105469,8.003999710083008-8.003999710083008,8.003999710083008-4.421000480652765,0-8.003999710083008-3.583999633789062-8.003999710083008-8.003999710083008C1.995901107788086,5.579100608825684,5.578900337218329,1.996100425720215,9.999900817871094,1.996100425720215c4.420999526977539,0,8.003999710083008,3.583000183105469,8.003999710083008,8.003999710083008" fill="#5e737e"/>
  </g>
  <g clip-path="url(#uuid-d0553062-6262-4aed-8be5-bb093711ba13)" fill="none">
    <path d="m15.727299690246582,8.361000061035156l-3.115999221801758,1.909999847412109-2.611001014708563-2.21299934387207-2.610999584197998,2.21299934387207-3.117000102997736-1.909999847412109,5.727999687195734-3.51200008392334,5.727000236510321,3.51200008392334Zm-1.210999488830566.878000259399414l1.210999488830566.741999626159668-5.727000236510321,3.51200008392334-5.727999687195734-3.51200008392334,1.211999893188477-.741999626159668m9.00100040435791,1.638999938964844l1.241999626159668.76200008392334-5.727000236510321,3.51099967956543-5.727999687195734-3.51099967956543,1.242000579833984-.76200008392334" fill="none" stroke="#fff" stroke-linejoin="round" stroke-width=".75"/>
    <line x1="7.359500408172607" y1="10.271500587463379" x2="12.640501022338867" y2="10.271500587463379" fill="none" stroke="#fff" stroke-miterlimit="10" stroke-width=".75"/>
  </g>
  <g clip-path="url(#uuid-3b31388d-1eeb-4230-b823-5df3da80eb89)" fill="none">
    <path d="m18.003900527954102,10.000100135803223c0,4.420000076293945-3.583000183105469,8.003999710083008-8.003999710083008,8.003999710083008-4.421000480652765,0-8.003999710083008-3.583999633789062-8.003999710083008-8.003999710083008C1.995901107788086,5.579100608825684,5.578900337218329,1.996100425720215,9.999900817871094,1.996100425720215c4.420999526977539,0,8.003999710083008,3.583000183105469,8.003999710083008,8.003999710083008" fill="none" stroke="#fff" stroke-miterlimit="10"/>
  </g>
</svg>