<?xml version="1.0" encoding="UTF-8"?>
<svg id="uuid-2303e12e-4a03-4784-b4f5-ffc00ed2b8ed" data-name="Layer 1" xmlns="http://www.w3.org/2000/svg" width="20" height="20" xmlns:xlink="http://www.w3.org/1999/xlink" viewBox="0 0 20 20">
  <defs>
    <clipPath id="uuid-5fa1ae7d-de36-4c95-a578-07f7b7ee5f6c">
      <rect x="1.496000289916992" y="1.495499610900879" width="17.007999420166016" height="17.009000778197333" fill="none"/>
    </clipPath>
    <clipPath id="uuid-c1cb4d71-ee76-4483-a4e0-6d2dd23be572">
      <path d="m1.996000289916992,10.000500679015204c0,4.418999671937854,3.583000183105469,8.003999710083008,8.003000259399414,8.003999710083008,4.421999931335449,0,8.004999160766602-3.585000038145154,8.004999160766602-8.003999710083008,0-4.421000480650946-3.582999229431152-8.005001068114325-8.004999160766602-8.005001068114325C5.579000473022461,1.995499610900879,1.996000289916992,5.579500198364258,1.996000289916992,10.000500679015204" fill="none"/>
    </clipPath>
    <clipPath id="uuid-87fe2f7f-27da-4640-95bc-1babb3d43d0b">
      <rect x="1.496000289916992" y="1.495499610900879" width="17.007999420166016" height="17.009000778197333" fill="none"/>
    </clipPath>
  </defs>
  <g clip-path="url(#uuid-5fa1ae7d-de36-4c95-a578-07f7b7ee5f6c)" fill="none">
    <path d="m18.003900527954102,10.000100135803223c0,4.420000076293945-3.583000183105469,8.003999710083008-8.003999710083008,8.003999710083008-4.421000480652765,0-8.003999710083008-3.583999633789062-8.003999710083008-8.003999710083008C1.995901107788086,5.579100608825684,5.578900337218329,1.996100425720215,9.999900817871094,1.996100425720215c4.420999526977539,0,8.003999710083008,3.583000183105469,8.003999710083008,8.003999710083008" fill="#5e737e"/>
  </g>
  <g clip-path="url(#uuid-c1cb4d71-ee76-4483-a4e0-6d2dd23be572)" fill="none">
    <path d="m8.116899967193604,9.031100273132324l-.745999813079834,3.980000495910645,1.684000015258789-2.597000122070312c.057999610900879-.08899974822998.157999992370605-.143000602722168.263999938964844-.143000602722168h1.953000068664551l1.520999908446356-4.476999282836914h-1.559999465941473l-1.017000198364258,3.020999908447266c-.043000221252441.128999710083008-.163000106811523.215999603271484-.298000335694269.215999603271484h-1.801000118254706Zm-1.350999832152411,5.806000232696533c-.039000034333185,0-.078999996186212-.00600004196167-.117000102997736-.022000074386597-.138999938964844-.055999994277954-.220999717712402-.202999830245972-.191999912261963-.351000070571899l1.087999820709229-5.806999683380127c.028000354766846-.14900016784668.157999992371515-.256999969482422.310000419616699-.256999969482422h1.835000038146973l1.016999244690851-3.022000312805176c.044000625609442-.128000259399414.164000511168524-.215000152587891.298999786376953-.215000152587891h2.228000640868231c.10099983215332,0,.197000503540039.048999786376953.256000518799738.131999969482422.05900001525788.083000183105469.074998855589911.187999725341797.041999816893622.284999847412109l-1.736000061035156,5.1080002784729c-.044000625609442.128000259399414-.163999557495117.214000225067139-.298999786376953.214000225067139h-2.006000518798828l-2.460000038146973,3.791999816894531c-.059999942778632.092000007629395-.159999847412109.14300012588501-.264999866484686.14300012588501" fill="#fff"/>
  </g>
  <g clip-path="url(#uuid-87fe2f7f-27da-4640-95bc-1babb3d43d0b)" fill="none">
    <path d="m18.003900527954102,10.000100135803223c0,4.420000076293945-3.583000183105469,8.003999710083008-8.003999710083008,8.003999710083008-4.421000480652765,0-8.003999710083008-3.583999633789062-8.003999710083008-8.003999710083008C1.995901107788086,5.579100608825684,5.578900337218329,1.996100425720215,9.999900817871094,1.996100425720215c4.420999526977539,0,8.003999710083008,3.583000183105469,8.003999710083008,8.003999710083008" fill="none" stroke="#fff" stroke-miterlimit="10"/>
  </g>
</svg>