<svg width="20" height="20" viewBox="0 0 20 20" fill="none" xmlns="http://www.w3.org/2000/svg">
	<mask id="mask0_1_2" style="mask-type:luminance" maskUnits="userSpaceOnUse" x="3" y="3" width="14" height="14">
	<path d="M3.4135 10.0005C3.4135 13.6395 6.3625 16.5865 10.0005 16.5865C13.6375 16.5865 16.5865 13.6395 16.5865 10.0005C16.5865 6.3635 13.6375 3.4145 10.0005 3.4145C6.3625 3.4145 3.4135 6.3635 3.4135 10.0005Z" fill="white"/>
	</mask>
	<g mask="url(#mask0_1_2)">
	<path d="M17 10H3V18H17V10Z" fill="#1AB579"/>
	<path d="M23.2175 -17.0755H10.0365V9.9965H23.2175V-17.0755Z" fill="#1AB579"/>
	</g>
	<path d="M10.0001 16.587C13.6377 16.587 16.5866 13.6381 16.5866 10.0005C16.5866 6.36288 13.6377 3.414 10.0001 3.414C6.36248 3.414 3.4136 6.36288 3.4136 10.0005C3.4136 13.6381 6.36248 16.587 10.0001 16.587Z" stroke="#1AB579"/>
</svg>	