<?xml version="1.0" encoding="UTF-8"?>
<svg id="uuid-2c424567-ffb0-4148-83ee-4c10ef2fed93" data-name="Layer 1" xmlns="http://www.w3.org/2000/svg" width="20" height="20" xmlns:xlink="http://www.w3.org/1999/xlink" viewBox="0 0 20 20">
  <defs>
    <clipPath id="uuid-8ffb3861-8950-4108-bff9-6fffdfb052bb">
      <path d="m3.41349983215423,10.000500202178955c0,3.638999938964844,2.948999881743475,6.585999965667725,6.586999893187567,6.585999965667725,3.63700008392334,0,6.586000442504883-2.947000026702881,6.586000442504883-6.585999965667725,0-3.636999607086182-2.949000358581543-6.585999965667725-6.586000442504883-6.585999965667725-3.638000011444092,0-6.586999893187567,2.949000358581543-6.586999893187567,6.585999965667725" fill="none"/>
    </clipPath>
    <clipPath id="uuid-648f4ade-fc1a-4291-bf6e-a9be36bbf0a0">
      <rect x="2.91349983215423" y="2.91349983215332" width="14.17300033569245" height="14.173000335693359" fill="none"/>
    </clipPath>
    <clipPath id="uuid-253ba0ba-611c-4c3b-9b7e-31f57edefe92">
      <path d="m3.41349983215423,44.23642576819384c0,3.638999938964844,2.948999881743475,6.585999965667725,6.586999893187567,6.585999965667725,3.63700008392334,0,6.586000442504883-2.947000026702881,6.586000442504883-6.585999965667725,0-3.636999607086182-2.949000358581543-6.585999965667725-6.586000442504883-6.585999965667725-3.638000011444092,0-6.586999893187567,2.949000358581543-6.586999893187567,6.585999965667725" fill="none"/>
    </clipPath>
  </defs>
  <g>
    <g clip-path="url(#uuid-8ffb3861-8950-4108-bff9-6fffdfb052bb)" fill="none">
      <rect x="10.350499629974365" y="-4.03849983215332" width="13.181000232696533" height="27.072000026702881" fill="#1ab579"/>
    </g>
    <g clip-path="url(#uuid-648f4ade-fc1a-4291-bf6e-a9be36bbf0a0)" fill="none">
      <circle cx="10.000099539756775" cy="10.000500202178955" r="6.586499750614168" fill="none" stroke="#1ab579"/>
    </g>
  </g>
  <g clip-path="url(#uuid-253ba0ba-611c-4c3b-9b7e-31f57edefe92)" fill="none">
    <rect x="10.036499977111816" y="17.160423170385002" width="13.181000709533691" height="27.072002410888672" fill="#1ab579"/>
  </g>
</svg>