<?xml version="1.0" encoding="UTF-8"?>
<svg id="uuid-356e49fe-5af0-47d1-a8e5-8ee1f549edcb" data-name="Layer 1" xmlns="http://www.w3.org/2000/svg" width="20" height="20" xmlns:xlink="http://www.w3.org/1999/xlink" viewBox="0 0 20 20">
  <defs>
    <clipPath id="uuid-0cfc2a68-a186-4e53-bada-7d30a0799486">
      <rect x="1.496000289916992" y="1.495499610900879" width="17.007999420166016" height="17.009000778198242" fill="none"/>
    </clipPath>
    <clipPath id="uuid-b3f77bc1-e2e9-4509-9154-93613754c0a2">
      <path d="m1.996000289916992,10.000500679016113c0,4.418999671936035,3.583000183105469,8.003999710083008,8.003000259399414,8.003999710083008,4.421999931335449,0,8.004999160766602-3.585000038146973,8.004999160766602-8.003999710083008,0-4.421000480652765-3.582999229431152-8.005001068115234-8.004999160766602-8.005001068115234C5.579000473022461,1.995499610900879,1.996000289916992,5.579500198363348,1.996000289916992,10.000500679016113" fill="none"/>
    </clipPath>
    <clipPath id="uuid-c49622cc-3033-4e87-a047-6bccd8ec05f3">
      <rect x="1.496000289916992" y="1.495499610900879" width="17.007999420166016" height="17.009000778198242" fill="none"/>
    </clipPath>
  </defs>
  <g clip-path="url(#uuid-0cfc2a68-a186-4e53-bada-7d30a0799486)" fill="none">
    <path d="m18.003900527954102,10.000100135803223c0,4.420000076293945-3.583000183105469,8.003999710082098-8.003999710083008,8.003999710082098-4.421000480652765,0-8.003999710083008-3.583999633788153-8.003999710083008-8.003999710082098C1.995901107788086,5.579100608825684,5.578900337218329,1.996100425720215,9.999900817871094,1.996100425720215c4.420999526977539,0,8.003999710083008,3.583000183105469,8.003999710083008,8.003999710083008" fill="#5e737e"/>
  </g>
  <g clip-path="url(#uuid-b3f77bc1-e2e9-4509-9154-93613754c0a2)" fill="none">
    <path d="m5.379600524903253,13.618600368499756h2.508999824523926v-5.769999980927423h-2.508999824523926v5.769999980927423Zm2.823999881743475.63100004196167h-3.138999938964844c-.174000024794623,0-.315000057220459-.140999794006348-.315000057220459-.315999984741211v-6.399999618530273c0-.175000190734863.141000032425836-.315999984741211.315000057220459-.315999984741211h3.138999938964844c.175000190734863,0,.315999984741211.140999794006348.315999984741211.315999984741211v6.399999618530273c0,.175000190734863-.140999794006348.315999984741211-.315999984741211.315999984741211" fill="#fff"/>
    <path d="m12.468299865722656,9.315600395202637c-.175000190734863,0-.315999984741211-.140999794007257-.315999984741211-.315999984741211v-2.618000030517578h-5.203000068664551v1.152000427246094c0,.173999786376953-.140999794006348.314999580382391-.315000057220459.314999580382391-.174999713897705,0-.31599998474212-.140999794005438-.31599998474212-.314999580382391v-1.468000411987305c0-.173999786376953.141000270844415-.315000534057617.31599998474212-.315000534057617h5.834000110626221c.175000190734863,0,.315999984741211.141000747680664.315999984741211.315000534057617v2.934000015258789c0,.175000190733954-.140999794006348.315999984741211-.315999984741211.315999984741211" fill="#fff"/>
    <path d="m12.468299865722656,9.315600395202637c-1.187000274658203,0-2.152000427246094.965000152587891-2.152000427246094,2.151999950408936,0,1.186000347137451.965000152587891,2.151000022888184,2.152000427246094,2.151000022888184,1.185999870300293,0,2.152000427246094-.964999675750732,2.152000427246094-2.151000022888184,0-1.186999797821045-.966000556945801-2.151999950408936-2.152000427246094-2.151999950408936m0,4.934000015258789c-1.534000396728516,0-2.781999588012695-1.248000144958496-2.781999588012695-2.782000064849854s1.24799919128418-2.783000469207764,2.781999588012695-2.783000469207764,2.781999588013605,1.249000549316406,2.781999588013605,2.783000469207764-1.247999191285089,2.782000064849854-2.781999588013605,2.782000064849854" fill="#fff"/>
  </g>
  <g clip-path="url(#uuid-c49622cc-3033-4e87-a047-6bccd8ec05f3)" fill="none">
    <path d="m18.003900527954102,10.000100135803223c0,4.420000076293945-3.583000183105469,8.003999710082098-8.003999710083008,8.003999710082098-4.421000480652765,0-8.003999710083008-3.583999633788153-8.003999710083008-8.003999710082098C1.995901107788086,5.579100608825684,5.578900337218329,1.996100425720215,9.999900817871094,1.996100425720215c4.420999526977539,0,8.003999710083008,3.583000183105469,8.003999710083008,8.003999710083008" fill="none" stroke="#fff" stroke-miterlimit="10"/>
  </g>
</svg>