<?xml version="1.0" encoding="UTF-8"?>
<svg id="uuid-2dc864da-229f-4f78-b59f-f791ed9950c6" data-name="Layer 1" xmlns="http://www.w3.org/2000/svg" width="20" height="20" xmlns:xlink="http://www.w3.org/1999/xlink" viewBox="0 0 20 20">
  <defs>
    <clipPath id="uuid-bb67d3d2-c073-4856-939c-98763c3d1da0">
      <rect x="1.496000289916992" y="1.495499610900879" width="17.007999420166016" height="17.009000778198242" fill="none"/>
    </clipPath>
    <clipPath id="uuid-8672ba09-e238-419c-af08-5c68e23a11dc">
      <path d="m1.996000289916992,10.000500679016113c0,4.418999671936035,3.583000183105469,8.003999710083008,8.003000259399414,8.003999710083008,4.421999931335449,0,8.004999160766602-3.585000038146973,8.004999160766602-8.003999710083008,0-4.421000480651855-3.582999229431152-8.005001068115234-8.004999160766602-8.005001068115234C5.579000473022461,1.995499610900879,1.996000289916992,5.579500198364258,1.996000289916992,10.000500679016113" fill="none"/>
    </clipPath>
    <clipPath id="uuid-82b0bc58-f9d9-478c-a7f7-e3548c6d7956">
      <rect x="1.496000289916992" y="1.495499610900879" width="17.007999420166016" height="17.009000778198242" fill="none"/>
    </clipPath>
  </defs>
  <g clip-path="url(#uuid-bb67d3d2-c073-4856-939c-98763c3d1da0)" fill="none">
    <path d="m18.003900527954102,10.000100135803223c0,4.420000076293945-3.583000183105469,8.003999710083008-8.003999710083008,8.003999710083008-4.421000480652765,0-8.003999710083008-3.583999633789062-8.003999710083008-8.003999710083008C1.995901107788086,5.579100608825684,5.578900337218329,1.996100425720215,9.999900817871094,1.996100425720215c4.420999526977539,0,8.003999710083008,3.583000183105469,8.003999710083008,8.003999710083008" fill="#5e737e"/>
  </g>
  <g clip-path="url(#uuid-8672ba09-e238-419c-af08-5c68e23a11dc)" fill="none">
    <path d="m6.810900688171387,15.229400396347046h6.376999855041504l-2.418999671936035-3.478999853134155c-.036999702454523-.053999900817871-.057000160217285-.117000579833984-.057000160217285-.180000305175781v-2.307999610900879h-1.425000190734863v2.307999610900879c0,.062999725341797-.019999980926514.12600040435791-.055999755858466.180000305175781l-2.420000076294855,3.478999853134155Zm6.980999946594238.63100004196167h-7.584000110626221c-.118000030517578,0-.22599983215332-.065000057220459-.279999732972101-.168999910354614-.05400037765412-.104000091552734-.04699993133454-.230000019073486.019999980927423-.326000213623047l2.707999706268311-3.894000053405762v-2.52400016784668c0-.174999237060547.141000270843506-.315999984741211.315999984740301-.315999984741211h2.056000232697443c.173999786376953,0,.315000534057617.141000747680664.315000534057617.315999984741211v2.52400016784668l2.707999229431152,3.894000053405762c.067000389099121.096000194549561.076000213623047.222000122070312.020999908447266.326000213623047-.054999351500555.103999853134155-.163000106810614.168999910354614-.279999732971191.168999910354614" fill="#fff"/>
    <path d="m8.786100387572333,6.257900238037109c-.192999839781805,0-.349999904631659.157000541687012-.349999904631659.35099983215332,0,.193000793457031.157000064849854.350000381469727.349999904631659.350000381469727.192999839783624,0,.349999904633478-.156999588012695.349999904633478-.350000381469727,0-.193999290466309-.157000064849854-.35099983215332-.349999904633478-.35099983215332m0,1.333000183105469c-.54099988937287,0-.981999874113171-.440999984741211-.981999874113171-.982000350952148,0-.540999412535712.440999984740301-.980999946594238.981999874113171-.980999946594238.540999889374689,0,.980999946595148.440000534058527.980999946595148.980999946594238,0,.541000366210938-.440000057220459.982000350952148-.980999946595148.982000350952148" fill="#fff"/>
    <path d="m11.589300155639648,4.770800590515137c-.192999839782715,0-.350000381469727.156999588013605-.350000381469727.34999942779541,0,.194000244140625.157000541687012.351000785827637.350000381469727.351000785827637.194000244141534,0,.35099983215332-.157000541687012.35099983215332-.351000785827637,0-.192999839781805-.156999588011786-.34999942779541-.35099983215332-.34999942779541m0,1.331999778747559c-.541000366210938,0-.980999946594238-.440999984741211-.980999946594238-.982000350952148,0-.540999412536621.439999580383301-.980999946594238.980999946594238-.980999946594238.541999816894531,0,.980999946594238.440000534057617.980999946594238.980999946594238,0,.541000366210938-.439000129699707.982000350952148-.980999946594238.982000350952148" fill="#fff"/>
  </g>
  <g clip-path="url(#uuid-82b0bc58-f9d9-478c-a7f7-e3548c6d7956)" fill="none">
    <path d="m18.003900527954102,10.000100135803223c0,4.420000076293945-3.583000183105469,8.003999710083008-8.003999710083008,8.003999710083008-4.421000480652765,0-8.003999710083008-3.583999633789062-8.003999710083008-8.003999710083008C1.995901107788086,5.579100608825684,5.578900337218329,1.996100425720215,9.999900817871094,1.996100425720215c4.420999526977539,0,8.003999710083008,3.583000183105469,8.003999710083008,8.003999710083008" fill="none" stroke="#fff" stroke-miterlimit="10"/>
  </g>
</svg>