<?xml version="1.0" encoding="UTF-8"?>
<svg id="uuid-ecb9e669-e420-4c76-af63-cecae24cb6d4" data-name="Layer 1" xmlns="http://www.w3.org/2000/svg" width="20" height="20" xmlns:xlink="http://www.w3.org/1999/xlink" viewBox="0 0 20 20">
  <defs>
    <clipPath id="uuid-6cf044a3-dbb6-4296-9526-1e653e1c3064">
      <rect x="1.496000289916992" y="1.495499610900879" width="17.007999420166016" height="17.009000778198242" fill="none"/>
    </clipPath>
    <clipPath id="uuid-4717b748-03db-447b-9541-79a0f6bd868d">
      <path d="m1.996000289916992,10.000500679016113c0,4.418999671936035,3.583000183105469,8.003999710083008,8.003000259399414,8.003999710083008,4.421999931335449,0,8.004999160766602-3.585000038146973,8.004999160766602-8.003999710083008,0-4.421000480651855-3.582999229431152-8.005001068115234-8.004999160766602-8.005001068115234C5.579000473022461,1.995499610900879,1.996000289916992,5.579500198364258,1.996000289916992,10.000500679016113" fill="none"/>
    </clipPath>
    <clipPath id="uuid-e2234cd8-7db5-4dc7-bf6d-0609a1301828">
      <rect x="1.496000289916992" y="1.495499610900879" width="17.007999420166016" height="17.009000778198242" fill="none"/>
    </clipPath>
  </defs>
  <g clip-path="url(#uuid-6cf044a3-dbb6-4296-9526-1e653e1c3064)" fill="none">
    <path d="m18.003900527954102,10.000100135803223c0,4.420000076293945-3.583000183105469,8.003999710083008-8.003999710083008,8.003999710083008-4.421000480652765,0-8.003999710083008-3.583999633789062-8.003999710083008-8.003999710083008C1.995901107788086,5.579100608825684,5.578900337218329,1.996100425720215,9.999900817871094,1.996100425720215c4.420999526977539,0,8.003999710083008,3.583000183105469,8.003999710083008,8.003999710083008" fill="#5e737e"/>
  </g>
  <g clip-path="url(#uuid-4717b748-03db-447b-9541-79a0f6bd868d)" fill="none">
    <path d="m9.656400680541992,15.553300380706787h-2.328999996185303c-.099999904632568,0-.193000316619873-.046000003814697-.252999782562256-.125-.063000202178955-.078000068664551-.08400011062713-.178999900817871-.060000419616699-.275000095367432l1.463000297546387-5.901000022888184c.041999816894531-.173999786376953.21999979019165-.279999732971191.389999866485596-.236000061035156.171999931335449.043000221252441.277999877929688.217000007629395.236000061035156.390000343322754l-1.363999843597412,5.501999855041504h1.916999816894531c.178999900817871,0,.322999954223633.144000053405762.322999954223633.322000026702881,0,.178999900817871-.144000053405762.322999954223633-.322999954223633.322999954223633" fill="#fff"/>
    <path d="m11.985600471496582,15.553300380706787h-2.329999923706055c-.177000045776367,0-.321000099182129-.144000053405762-.321000099182129-.322999954223633,0-.177999973297119.144000053405762-.322000026702881.321000099182129-.322000026702881h1.918000221252441l-1.36400032043457-5.501999855041504c-.041999816894531-.173000335693359.064000129699707-.347000122070312.23699951171875-.390000343322754.169000625610352-.043000221252441.346000671386719.062000274658203.38900089264007.236000061035156l1.462999343871161,5.901000022888184c.02400016784668.096000194549561.003000259399414.197000026702881-.059000015258789.275000095367432-.060999870299383.078999996185303-.154999732971191.125-.253999710083008.125" fill="#fff"/>
    <path d="m5.213500261306763,11.212300300598145c-.134000062941595,0-.257999897003174-.083000183105469-.305000066757202-.217000007629395-.059000015258789-.169000148773193.02999997139068-.35200023651123.197999954223633-.411000251770929l7.88200044631958-2.757999420166016c.167999267578125-.06000041961579.351999282836914.029999732972101.409999847412109.197999954224542.057999610900879.167999267578125-.029000282286688.351999282836914-.197000503540039.410999298095703l-7.881999731063843,2.759000301361084c-.034999847412109.01200008392334-.07099986076355.01800012588501-.105999946594238.01800012588501" fill="#fff"/>
    <path d="m13.492300033570245,7.94320011138916l1.447999954222723,2.15000057220459c.010000228881836-.601000785827637-.062000274658203-1.476000785827637-.407999992370605-2.466000556945801-.348999977111816-.996000289916992-.815999984741211-1.666999816894531-1.175999641418457-2.076000213623047l.135999679566339,2.392000198364258Zm1.682000160216376,3.398000240325928c-.104999542235419,0-.206999778747559-.051000118255615-.267999649047852-.142000198364258l-1.999000549316406-2.967999935150146c-.031999588012695-.048000335693359-.052000045776367-.104999542236328-.054999351501465-.161999702453613l-.187000274658203-3.282000541687012c-.008000373840332-.121000289916992.055000305175781-.237998962403253.161999702454523-.296998977661133.105999946593329-.062000274659113.237999916075751-.057001113891602.33899974822998.01099967956543.050000190733954.033999443054199,1.255000114440008.855998992919922,1.975000381468817,2.913999557495117.715000152587891,2.043000221252441.36299991607666,3.611999988555908.347000122071222,3.677000045776367-.029000282288507.125-.128999710083008.221000194549561-.256000518799738.24399995803833-.019000053405762.004000186920166-.038999557495117.005000114440918-.057999610900879.005000114440918" fill="#fff"/>
    <path d="m10.523600578308105,9.329200744628906c0,.479000091552734-.388999938963934.866000175476074-.866999626159668.866000175476074-.479000091552734,0-.867000579833984-.38700008392334-.867000579833984-.866000175476074s.38800048828125-.866000175476074.867000579833984-.866000175476074c.477999687195734,0,.866999626159668.38700008392334.866999626159668.866000175476074" fill="#fff"/>
    <path d="m9.656400680541992,8.784200668334961c-.301000118255615,0-.545000076293945.244999885559082-.545000076293945.545999526977539,0,.298999786376953.24399995803833.544000625610352.545000076293945.544000625610352.300999641418457,0,.543999671936035-.245000839233398.543999671936035-.544000625610352,0-.300999641418457-.243000030517578-.545999526977539-.543999671936035-.545999526977539m0,1.733999729156494c-.656000137329102,0-1.189000129698798-.533000469208673-1.189000129698798-1.188000202178955,0-.656000137329102.532999992369696-1.189999580383301,1.189000129698798-1.189999580383301.656999588012695,0,1.189000129699707.533999443054199,1.189000129699707,1.189999580383301,0,.654999732970282-.532000541687012,1.188000202178955-1.189000129699707,1.188000202178955" fill="#fff"/>
  </g>
  <g clip-path="url(#uuid-e2234cd8-7db5-4dc7-bf6d-0609a1301828)" fill="none">
    <path d="m18.003900527954102,10.000100135803223c0,4.420000076293945-3.583000183105469,8.003999710083008-8.003999710083008,8.003999710083008-4.421000480652765,0-8.003999710083008-3.583999633789062-8.003999710083008-8.003999710083008C1.995901107788086,5.579100608825684,5.578900337218329,1.996100425720215,9.999900817871094,1.996100425720215c4.420999526977539,0,8.003999710083008,3.583000183105469,8.003999710083008,8.003999710083008" fill="none" stroke="#fff" stroke-miterlimit="10"/>
  </g>
</svg>