<?xml version="1.0" encoding="UTF-8"?>
<svg id="uuid-d4420ca3-83f6-4974-8857-1c4b143eac9f" data-name="Layer 1" xmlns="http://www.w3.org/2000/svg" width="20" height="20" xmlns:xlink="http://www.w3.org/1999/xlink" viewBox="0 0 20 20">
  <defs>
    <clipPath id="uuid-536fe142-7515-46a7-96f2-1ec73cc77742">
      <rect x="1.496000289916992" y="1.495499610900879" width="17.007999420166016" height="17.009000778198242" fill="none"/>
    </clipPath>
    <clipPath id="uuid-a491ee10-a62e-4204-b847-1df86d975726">
      <path d="m1.996000289916992,10.000500679016113c0,4.418999671936035,3.583000183105469,8.003999710083008,8.003000259399414,8.003999710083008,4.421999931335449,0,8.004999160766602-3.585000038146973,8.004999160766602-8.003999710083008,0-4.421000480651855-3.582999229431152-8.005001068115234-8.004999160766602-8.005001068115234C5.579000473022461,1.995499610900879,1.996000289916992,5.579500198364258,1.996000289916992,10.000500679016113" fill="none"/>
    </clipPath>
    <clipPath id="uuid-cc40ea14-7bec-4321-9aaf-9612595475d5">
      <rect x="1.496000289916992" y="1.495499610900879" width="17.007999420166016" height="17.009000778198242" fill="none"/>
    </clipPath>
  </defs>
  <g clip-path="url(#uuid-536fe142-7515-46a7-96f2-1ec73cc77742)" fill="none">
    <path d="m18.003900527954102,10.000100135803223c0,4.420000076293945-3.583000183105469,8.003999710083008-8.003999710083008,8.003999710083008-4.421000480652765,0-8.003999710083008-3.583999633789062-8.003999710083008-8.003999710083008C1.995901107788086,5.579100608825684,5.578900337218329,1.996100425720215,9.999900817871094,1.996100425720215c4.420999526977539,0,8.003999710083008,3.583000183105469,8.003999710083008,8.003999710083008" fill="#5e737e"/>
  </g>
  <g clip-path="url(#uuid-a491ee10-a62e-4204-b847-1df86d975726)" fill="none">
    <path d="m6.215199947357178,13.880600452423096h4.428999423980713v-7.760000705718994h-4.428999423980713v7.760000705718994Zm4.74399995803833.629999876022339h-5.059000015258789c-.175000190734863,0-.315999984741211-.141000032424927-.315999984741211-.31600022315979V5.805600166320801c0-.173999786376953.140999794006348-.315999984741211.315999984741211-.315999984741211h5.059000015258789c.173999786376953,0,.314999580383301.142000198364258.314999580383301.315999984741211v8.388999938964844c0,.175000190734863-.140999794006348.31600022315979-.314999580383301.31600022315979" fill="#fff"/>
    <path d="m12.15369987487793,12.620800495147705h-1.194999694824219c-.173999786376953,0-.315000534057617-.140999794006348-.315000534057617-.315999984741211,0-.174000263214111.141000747680664-.315000057220459.315000534057617-.315000057220459h1.194999694824219c.89900016784668,0,1.631999969483331-.993000030517578,1.631999969483331-2.215000152587891v-2.121000289916992l-.97599983215423-1.689999580383301c-.086999893188477-.151999473571777-.034999847412109-.343999862670898.114999771118164-.430999755859375.151000022888184-.088000297546387.343999862670898-.03600025177002.430999755859375.114999771118164l1.018000602722168,1.763999938964844c.027999877929688.048000335693359.041999816895441.102999687194824.041999816895441.157999992370605v2.204999923706055c0,1.569000244140625-1.015000343323663,2.846000194549561-2.262000083924249,2.846000194549561" fill="#fff"/>
    <path d="m6.215199947357178,8.836600303649902h4.428999423980713v-2.715999603271484h-4.428999423980713v2.715999603271484Zm4.74399995803833.630000114440918h-5.059000015258789c-.175000190734863,0-.315999984741211-.140999794006348-.315999984741211-.314000129699707v-3.347000122070312c0-.173999786376953.140999794006348-.315999984741211.315999984741211-.315999984741211h5.059000015258789c.173999786376953,0,.314999580383301.142000198364258.314999580383301.315999984741211v3.347000122070312c0,.173000335693359-.140999794006348.314000129699707-.314999580383301.314000129699707" fill="#fff"/>
    <path d="m13.43440055847168,7.260400772094727c-.192999839782715,0-.350000381469727.156999588012695-.350000381469727.34999942779541,0,.194000244140625.157000541687012.351000785827637.350000381469727.351000785827637.194000244141534,0,.35099983215332-.157000541687012.35099983215332-.351000785827637,0-.192999839782715-.156999588011786-.34999942779541-.35099983215332-.34999942779541m0,1.331999778747559c-.541000366210938,0-.982000350952148-.440999984741211-.982000350952148-.982000350952148,0-.540999412536621.440999984741211-.980999946594238.982000350952148-.980999946594238s.980999946594238.440000534057617.980999946594238.980999946594238c0,.541000366210938-.439999580383301.982000350952148-.980999946594238.982000350952148" fill="#fff"/>
  </g>
  <g clip-path="url(#uuid-cc40ea14-7bec-4321-9aaf-9612595475d5)" fill="none">
    <path d="m18.003900527954102,10.000100135803223c0,4.420000076293945-3.583000183105469,8.003999710083008-8.003999710083008,8.003999710083008-4.421000480652765,0-8.003999710083008-3.583999633789062-8.003999710083008-8.003999710083008C1.995901107788086,5.579100608825684,5.578900337218329,1.996100425720215,9.999900817871094,1.996100425720215c4.420999526977539,0,8.003999710083008,3.583000183105469,8.003999710083008,8.003999710083008" fill="none" stroke="#fff" stroke-miterlimit="10"/>
  </g>
</svg>