<svg data-name="Layer 1" xmlns="http://www.w3.org/2000/svg" width="20" height="20"><defs><clipPath id="a"><path fill="none" d="M1.496 1.495h17.008v17.009H1.496z"/></clipPath><clipPath id="b"><path d="M1.996 10a8.004 8.004 0 108.003-8.005 8.004 8.004 0 00-8.003 8.006" fill="none"/></clipPath><clipPath id="c"><path fill="none" d="M1.496 1.495h17.008v17.009H1.496z"/></clipPath></defs><g clip-path="url(#a)" fill="none"><path d="M18.004 10a8.004 8.004 0 11-16.008 0 8.004 8.004 0 0116.008 0" fill="#5e737e"/></g><g clip-path="url(#b)" fill="none" stroke="#fff" stroke-width=".75"><path d="M15.727 8.361l-3.116 1.91-2.61-2.213-2.612 2.213-3.117-1.91L10 4.849l5.727 3.512zm-1.21.878l1.21.742L10 13.493 4.272 9.981l1.212-.742m9.001 1.639l1.242.762L10 15.151 4.272 11.64l1.242-.762" stroke-linejoin="round"/><path stroke-miterlimit="10" d="M7.36 10.272h5.281"/></g><g clip-path="url(#c)" fill="none"><path d="M18.004 10a8.004 8.004 0 11-16.008 0 8.004 8.004 0 0116.008 0" stroke="#fff" stroke-miterlimit="10"/></g></svg>