<svg data-name="Layer 1" xmlns="http://www.w3.org/2000/svg" width="20" height="20"><defs><clipPath id="a"><path fill="none" d="M1.496 1.495h17.008v17.009H1.496z"/></clipPath><clipPath id="b"><path d="M1.996 10a8.004 8.004 0 108.003-8.005 8.004 8.004 0 00-8.003 8.006" fill="none"/></clipPath><clipPath id="c"><path fill="none" d="M1.496 1.495h17.008v17.009H1.496z"/></clipPath></defs><g clip-path="url(#a)" fill="none"><path d="M18.004 10a8.004 8.004 0 11-16.008 0 8.004 8.004 0 0116.008 0" fill="#5e737e"/></g><g clip-path="url(#b)" fill="none"><path d="M8.117 9.031l-.746 3.98 1.684-2.597a.316.316 0 01.264-.143h1.953l1.52-4.477h-1.56l-1.016 3.021a.315.315 0 01-.298.216H8.117zm-1.351 5.806a.314.314 0 01-.309-.373l1.088-5.807a.315.315 0 01.31-.257H9.69l1.017-3.022a.317.317 0 01.299-.215h2.228a.315.315 0 01.298.417l-1.736 5.108a.316.316 0 01-.3.214H9.492l-2.46 3.792a.315.315 0 01-.265.143" fill="#fff"/></g><g clip-path="url(#c)" fill="none"><path d="M18.004 10a8.004 8.004 0 11-16.008 0 8.004 8.004 0 0116.008 0" stroke="#fff" stroke-miterlimit="10"/></g></svg>