<svg data-name="Layer 1" xmlns="http://www.w3.org/2000/svg" width="20" height="20"><defs><clipPath id="a"><path fill="none" d="M1.496 1.495h17.008v17.009H1.496z"/></clipPath><clipPath id="b"><path d="M1.996 10a8.004 8.004 0 108.003-8.005 8.004 8.004 0 00-8.003 8.006" fill="none"/></clipPath><clipPath id="c"><path fill="none" d="M1.496 1.495h17.008v17.009H1.496z"/></clipPath></defs><g clip-path="url(#a)" fill="none"><path d="M18.004 10a8.004 8.004 0 11-16.008 0 8.004 8.004 0 0116.008 0" fill="#5e737e"/></g><g clip-path="url(#b)" fill="#fff"><path d="M5.38 13.619h2.509v-5.77h-2.51v5.77zm2.824.63h-3.14a.315.315 0 01-.314-.315v-6.4c0-.175.14-.316.315-.316h3.139c.175 0 .316.14.316.316v6.4a.315.315 0 01-.316.316"/><path d="M12.468 9.316A.315.315 0 0112.152 9V6.382H6.95v1.152a.315.315 0 11-.63 0V6.066c0-.174.14-.315.315-.315h5.834c.175 0 .316.14.316.315V9a.315.315 0 01-.316.316"/><path d="M12.468 9.316a2.154 2.154 0 00-2.152 2.152c0 1.186.965 2.15 2.152 2.15a2.154 2.154 0 002.152-2.15 2.155 2.155 0 00-2.152-2.152m0 4.934c-1.534 0-2.782-1.248-2.782-2.782s1.248-2.783 2.782-2.783 2.782 1.249 2.782 2.783-1.248 2.782-2.782 2.782"/></g><g clip-path="url(#c)" fill="none"><path d="M18.004 10a8.004 8.004 0 11-16.008 0 8.004 8.004 0 0116.008 0" stroke="#fff" stroke-miterlimit="10"/></g></svg>