<svg data-name="Layer 1" xmlns="http://www.w3.org/2000/svg" width="20" height="20"><defs><clipPath id="a"><path fill="none" d="M1.496 1.495h17.008v17.009H1.496z"/></clipPath><clipPath id="b"><path d="M1.996 10a8.004 8.004 0 108.003-8.005 8.004 8.004 0 00-8.003 8.006" fill="none"/></clipPath><clipPath id="c"><path fill="none" d="M1.496 1.495h17.008v17.009H1.496z"/></clipPath></defs><g clip-path="url(#a)" fill="none"><path d="M18.004 10a8.004 8.004 0 11-16.008 0 8.004 8.004 0 0116.008 0" fill="#5e737e"/></g><g clip-path="url(#b)" fill="#fff"><path d="M6.81 15.23h6.378l-2.42-3.48a.32.32 0 01-.056-.18V9.262H9.287v2.308c0 .063-.02.126-.056.18l-2.42 3.48zm6.982.63H6.208a.315.315 0 01-.26-.495l2.708-3.894V8.947c0-.175.14-.316.316-.316h2.056c.174 0 .315.141.315.316v2.524l2.708 3.894a.314.314 0 01-.26.495M8.786 6.258a.35.35 0 10.001.701.35.35 0 000-.701m0 1.333a.984.984 0 01-.983-.982.982.982 0 11.982.982M11.59 4.77a.35.35 0 100 .702.35.35 0 000-.701m0 1.332a.982.982 0 11.002-1.962.982.982 0 01-.003 1.962"/></g><g clip-path="url(#c)" fill="none"><path d="M18.004 10a8.004 8.004 0 11-16.008 0 8.004 8.004 0 0116.008 0" stroke="#fff" stroke-miterlimit="10"/></g></svg>