<svg data-name="Layer 1" xmlns="http://www.w3.org/2000/svg" width="20" height="20"><defs><clipPath id="a"><path fill="none" d="M1.496 1.495h17.008v17.009H1.496z"/></clipPath><clipPath id="b"><path d="M1.996 10a8.004 8.004 0 108.003-8.005 8.004 8.004 0 00-8.003 8.006" fill="none"/></clipPath><clipPath id="c"><path fill="none" d="M1.496 1.495h17.008v17.009H1.496z"/></clipPath></defs><g clip-path="url(#a)" fill="none"><path d="M18.004 10a8.004 8.004 0 11-16.008 0 8.004 8.004 0 0116.008 0" fill="#5e737e"/></g><g clip-path="url(#b)" fill="#fff"><path d="M9.656 15.553H7.327a.316.316 0 01-.253-.125.314.314 0 01-.06-.275l1.463-5.9a.321.321 0 01.39-.237.324.324 0 01.236.39L7.74 14.908h1.917a.322.322 0 110 .645"/><path d="M11.986 15.553h-2.33a.322.322 0 010-.645h1.918L10.21 9.406a.322.322 0 11.626-.154l1.463 5.901a.317.317 0 01-.06.275.321.321 0 01-.253.125"/><path d="M5.214 11.212a.322.322 0 01-.107-.628l7.882-2.758a.323.323 0 01.213.609l-7.882 2.76a.328.328 0 01-.106.017"/><path d="M13.492 7.943l1.448 2.15a7.166 7.166 0 00-.408-2.466c-.349-.996-.816-1.667-1.176-2.076l.136 2.392zm1.682 3.398a.322.322 0 01-.268-.142l-1.999-2.968a.327.327 0 01-.055-.162l-.187-3.282a.317.317 0 01.162-.297.32.32 0 01.34.011c.05.034 1.254.856 1.974 2.914.715 2.043.363 3.612.347 3.677a.321.321 0 01-.314.25m-4.65-2.012a.867.867 0 11-1.734-.002.867.867 0 011.734.001"/><path d="M9.656 8.784a.546.546 0 000 1.09.545.545 0 000-1.09m0 1.734a1.19 1.19 0 11.002-2.38 1.19 1.19 0 01-.002 2.38"/></g><g clip-path="url(#c)" fill="none"><path d="M18.004 10a8.004 8.004 0 11-16.008 0 8.004 8.004 0 0116.008 0" stroke="#fff" stroke-miterlimit="10"/></g></svg>