<svg data-name="Layer 1" xmlns="http://www.w3.org/2000/svg" width="20" height="20"><defs><clipPath id="a"><path fill="none" d="M1.496 1.495h17.008v17.009H1.496z"/></clipPath><clipPath id="b"><path d="M1.996 10a8.004 8.004 0 108.003-8.005 8.004 8.004 0 00-8.003 8.006" fill="none"/></clipPath><clipPath id="c"><path fill="none" d="M1.496 1.495h17.008v17.009H1.496z"/></clipPath></defs><g clip-path="url(#a)" fill="none"><path d="M18.004 10a8.004 8.004 0 11-16.008 0 8.004 8.004 0 0116.008 0" fill="#5e737e"/></g><g clip-path="url(#b)" fill="#fff"><path d="M6.215 13.88h4.43V6.12h-4.43v7.76zm4.744.63H5.9a.315.315 0 01-.316-.315v-8.39c0-.173.141-.315.316-.315h5.06c.173 0 .314.142.314.316v8.389a.315.315 0 01-.315.316"/><path d="M12.154 12.62h-1.195a.315.315 0 010-.63h1.195c.899 0 1.632-.993 1.632-2.215V7.654l-.976-1.69a.316.316 0 01.546-.316l1.018 1.764a.314.314 0 01.042.158v2.205c0 1.569-1.015 2.846-2.262 2.846M6.215 8.837h4.43V6.12h-4.43v2.716zm4.744.63H5.9a.315.315 0 01-.316-.314V5.806c0-.174.141-.316.316-.316h5.06c.173 0 .314.142.314.316v3.347a.315.315 0 01-.315.314"/><path d="M13.434 7.26a.35.35 0 10.001.701.35.35 0 000-.7m0 1.331a.984.984 0 01-.983-.982.982.982 0 11.982.982"/></g><g clip-path="url(#c)" fill="none"><path d="M18.004 10a8.004 8.004 0 11-16.008 0 8.004 8.004 0 0116.008 0" stroke="#fff" stroke-miterlimit="10"/></g></svg>