<svg width="781" height="601" fill="none" xmlns="http://www.w3.org/2000/svg"><path d="M656.573 461.548c-10.711 16.081-29.878 25.522-55.511 28.736-25.631 3.214-57.648.189-93.919-8.587-72.538-17.55-161.956-58.066-251.044-117.406-89.087-59.339-160.933-126.238-205.081-186.409C28.942 147.794 13.813 119.415 6.9 94.525-.011 69.633 1.314 48.31 12.025 32.228c10.711-16.08 29.878-25.52 55.51-28.735 25.632-3.214 57.649-.189 93.92 8.587 72.537 17.55 161.956 58.066 251.044 117.406 89.087 59.339 160.933 126.237 205.081 186.409 22.075 30.087 37.205 58.466 44.117 83.356 6.912 24.892 5.587 46.217-5.124 62.297z" stroke="#00B775" stroke-width="1.191"/><path d="M768.51 568.771c-10.711 16.08-29.877 25.521-55.51 28.735-25.631 3.214-57.649.189-93.92-8.586-72.537-17.55-161.955-58.067-251.043-117.406-89.088-59.34-160.934-126.238-205.082-186.409-22.075-30.088-37.205-58.467-44.117-83.357-6.912-24.892-5.586-46.216 5.125-62.297 10.711-16.08 29.877-25.521 55.51-28.735 25.631-3.214 57.649-.189 93.92 8.586 72.537 17.55 161.955 58.067 251.043 117.406 89.088 59.34 160.934 126.238 205.082 186.409 22.075 30.088 37.205 58.467 44.116 83.357 6.913 24.892 5.587 46.216-5.124 62.297z" stroke="#00B775" stroke-width="1.191"/><path d="M768.51 518.96c-10.711 16.081-29.877 25.522-55.51 28.736-25.631 3.214-57.649.189-93.92-8.587-72.537-17.55-161.955-58.066-251.043-117.406-89.088-59.339-160.934-126.237-205.082-186.409-22.075-30.088-37.205-58.467-44.117-83.356-6.912-24.892-5.586-46.217 5.125-62.297s29.877-25.522 55.51-28.736c25.631-3.214 57.649-.189 93.92 8.587 72.537 17.55 161.955 58.066 251.043 117.406 89.088 59.339 160.934 126.237 205.082 186.409 22.075 30.088 37.205 58.467 44.116 83.356 6.913 24.892 5.587 46.217-5.124 62.297z" stroke="#E74321" stroke-width="1.191"/></svg>