<svg width="871" height="672" fill="none" xmlns="http://www.w3.org/2000/svg"><path d="M733.274 515.707c-11.985 17.993-33.426 28.55-62.083 32.143-28.654 3.593-64.443.211-104.981-9.597-81.07-19.615-181.003-64.896-280.564-131.212-99.562-66.316-179.857-141.08-229.198-208.33-24.672-33.627-41.585-65.349-49.312-93.175-7.728-27.827-6.25-51.68 5.735-69.674C24.856 17.868 46.298 7.312 74.954 3.719c28.655-3.593 64.444-.21 104.981 9.597C261.006 32.93 360.939 78.212 460.5 144.528c99.561 66.315 179.857 141.08 229.198 208.33 24.672 33.627 41.585 65.349 49.312 93.174 7.727 27.828 6.249 51.682-5.736 69.675z" stroke="#00B775" stroke-width="1.191"/><path d="M858.368 635.527c-11.985 17.994-33.427 28.55-62.083 32.143-28.654 3.593-64.443.211-104.981-9.597-81.07-19.614-181.003-64.896-280.565-131.212-99.561-66.315-179.856-141.08-229.197-208.33-24.673-33.627-41.586-65.349-49.312-93.174-7.728-27.828-6.25-51.682 5.735-69.675 11.985-17.993 33.427-28.55 62.083-32.143 28.654-3.593 64.443-.211 104.981 9.597 81.071 19.615 181.004 64.896 280.565 131.212 99.561 66.316 179.856 141.08 229.198 208.33 24.672 33.628 41.585 65.349 49.312 93.175 7.727 27.827 6.249 51.681-5.736 69.674z" stroke="#00B775" stroke-width="1.191"/><path d="M858.368 579.867c-11.985 17.994-33.427 28.55-62.083 32.143-28.654 3.593-64.443.211-104.981-9.597-81.07-19.614-181.003-64.896-280.565-131.212-99.561-66.315-179.856-141.08-229.197-208.33-24.673-33.627-41.586-65.349-49.312-93.174-7.728-27.828-6.25-51.682 5.735-69.675 11.985-17.993 33.427-28.55 62.083-32.143 28.654-3.593 64.443-.21 104.981 9.597 81.071 19.615 181.004 64.896 280.565 131.212 99.561 66.316 179.856 141.08 229.198 208.33 24.672 33.627 41.585 65.349 49.312 93.174 7.727 27.828 6.249 51.682-5.736 69.675z" stroke="#E74321" stroke-width="1.191"/></svg>