<?xml version="1.0" encoding="utf-8"?>
<!-- Generator: Adobe Illustrator 27.4.1, SVG Export Plug-In . SVG Version: 6.00 Build 0)  -->
<svg version="1.1" id="Слой_2" xmlns="http://www.w3.org/2000/svg" xmlns:xlink="http://www.w3.org/1999/xlink" x="0px" y="0px"
	 viewBox="0 0 177 222"  width="177"  style="enable-background:new 0 0 177 222;" xml:space="preserve">
<style type="text/css">
	.st0{fill:#00A767;}
	.st1{fill:none;stroke:#00A767;stroke-width:0.8292;}
	.st2{fill:none;stroke:#8DC9A4;stroke-width:1.1056;}
	.st3{fill:#FFFFFF;}
	.st4{font-family:'DrukWideCyr-Medium';}
	.st5{font-size:18.7997px;}
	.st6{fill:#08A408;}
	.st7{fill:#034D94;}
	.st8{fill:#E31A1A;}
	.st9{fill:none;}
</style>
<path class="st0" d="M9.16,73.43C31.82,75.38,34.3,59.27,74.32,50.6c40.01-8.67,86.83,21.15,95.55,65.06l0,0
	c8.72,43.91-19.92,85.98-63.97,93.96l0,0c-44.05,7.98-89.1-24.79-95.56-65.06c-6.46-40.27,7.38-48.47-2.64-68.99
	c0,0-0.38-0.76,0.15-1.53C8.38,73.26,9.16,73.43,9.16,73.43L9.16,73.43z"/>
<path class="st1" d="M12.32,96.81c22.33-45.4,65.62-57.05,110.18-45.08c40.24,10.81,61.01,60.83,45.29,111.23
	c-13.51,43.31-61.14,61.05-103.16,47.64C13.53,194.29-10.74,143.72,12.32,96.81L12.32,96.81z"/>
<path class="st2" d="M104.58,135.04c20.15-25.11,45.96-37.87,57.63-28.5c11.68,9.37,4.8,37.32-15.35,62.43
	c-20.15,25.11-45.96,37.87-57.63,28.5C77.56,188.1,84.43,160.15,104.58,135.04L104.58,135.04z"/>
<text transform="matrix(1 0 0 1 27.6841 126.1709)" class="st3 st4 st5">1 МЕС</text>
<text transform="matrix(1 0 0 1 100.8271 126.1709)" class="st3 st4 st5">ТО</text>
<path class="st6" d="M12.59,28.42c-0.22-0.01-0.4-0.02-0.58-0.04c-0.27-0.03-0.52-0.31-0.51-0.56c0-0.27,0.24-0.53,0.53-0.55
	c0.18-0.01,0.36,0,0.54,0.02c0.21,0.02,0.3-0.04,0.35-0.26c0.29-1.26,0.59-2.53,0.88-3.79c0.12-0.52,0.25-1.03,0.38-1.58
	c-0.38,0-0.73,0-1.07,0c-0.35-0.01-0.52-0.24-0.42-0.57c0.15-0.53,0.15-0.53,0.72-0.53c0.53,0,1.06,0,1.5,0
	c0.17,0.2,0.32,0.32,0.4,0.48c0.05,0.09,0.04,0.24,0.02,0.34c-0.48,1.86-0.98,3.72-1.49,5.66c1.44-0.57,2.78-1.1,4.21-1.67
	c-0.48-0.23-0.85-0.45-1.25-0.6c-0.61-0.23-0.86-0.6-0.82-1.28c0.06-1.03,0.03-2.07,0.03-3.1c0-0.17-0.02-0.28-0.25-0.25
	c-0.55,0.07-0.79-0.15-0.7-0.7c0.1-0.64,0.26-1.27,0.41-1.9c0.19-0.77,0.38-1.55,0.59-2.32c0.11-0.41,0.36-0.53,0.62-0.32
	c0.1,0.08,0.17,0.22,0.2,0.35c0.2,0.73,0.37,1.46,0.57,2.19c0.16,0.62,0.34,1.23,0.53,1.84c0.06,0.19-0.02,0.3-0.08,0.47
	c-0.16,0.46-0.45,0.41-0.8,0.38c-0.05,0-0.15,0.11-0.16,0.17c-0.01,1.1-0.02,2.19-0.01,3.29c0,0.09,0.09,0.22,0.17,0.26
	c0.43,0.23,0.87,0.44,1.36,0.67c-0.12-0.52-0.23-1.01-0.34-1.49c-0.08-0.34-0.14-0.69-0.23-1.03c-0.04-0.14-0.12-0.26-0.18-0.4
	c-0.05-0.11-0.13-0.22-0.15-0.34c-0.05-0.22-0.06-0.44,0.32-0.39c-0.09-0.3,0.07-0.34,0.29-0.33c0.55,0.01,1.11,0,1.66,0.01
	c0.28,0,0.4,0.2,0.44,0.64c0.02,0.31-0.12,0.44-0.4,0.45c-0.35,0.01-0.7,0-1.09,0c0.06,0.3,0.11,0.55,0.17,0.81
	c0.15,0.65,0.31,1.3,0.44,1.96c0.06,0.29,0.16,0.41,0.49,0.37c0.25-0.03,0.52-0.01,0.75,0.09c0.17,0.07,0.38,0.31,0.37,0.45
	c-0.02,0.17-0.24,0.37-0.42,0.45c-0.24,0.1-0.52,0.09-0.81,0.14c0.2,0.88,0.4,1.74,0.61,2.61c0.08,0.35,0.17,0.7,0.24,1.06
	c0.05,0.24,0.15,0.38,0.43,0.35c0.19-0.02,0.38,0,0.57,0.02c0.26,0.03,0.5,0.26,0.49,0.5c-0.01,0.28-0.17,0.46-0.44,0.51
	c-0.22,0.04-0.44,0.04-0.71,0.06c0.16,0.69,0.31,1.37,0.49,2.16c0.69-0.52,1.36-0.96,1.95-1.49c1.66-1.47,2.71-3.31,3.17-5.49
	c1.16-5.51-2.31-10.98-7.74-12.19c-5.46-1.22-10.8,1.95-12.3,7.32c-0.21,0.75-0.25,1.55-0.37,2.33c-0.01,0.09,0.01,0.2-0.02,0.29
	C6.07,24.17,6,24.49,5.89,24.5c-0.22,0.03-0.48-0.08-0.7-0.19c-0.08-0.05-0.11-0.26-0.1-0.4c0.07-1.15,0.3-2.28,0.69-3.36
	c1.43-3.9,4.16-6.37,8.19-7.45c4.72-1.26,10.6,1.43,12.74,6.37c0.68,1.57,1.12,3.2,1.04,4.92c-0.12,2.6-1.02,4.91-2.69,6.92
	c-0.94,1.13-2.06,2.03-3.36,2.71c-0.02,0.01-0.05,0.01-0.06,0.03c-0.31,0.58-0.94,0.45-1.42,0.61c-0.8,0.26-1.63,0.41-2.44,0.64
	c-1.2,0.34-2.36,0.12-3.53-0.17c-0.63-0.15-1.24-0.37-1.87-0.55c-0.1-0.03-0.21-0.09-0.31-0.07c-0.4,0.09-0.62-0.04-0.78-0.43
	c-0.09-0.22-0.1-0.36-0.02-0.58c0.2-0.54,0.34-1.09,0.48-1.65c0.27-1.07,0.51-2.15,0.76-3.23C12.57,28.57,12.57,28.51,12.59,28.42
	L12.59,28.42z M13.58,28.41c-0.37,1.57-0.73,3.09-1.11,4.64c2.19-0.86,4.33-1.71,6.54-2.59C17.17,29.77,15.4,29.1,13.58,28.41
	L13.58,28.41z M19.98,31.1c-2.3,0.91-4.59,1.81-6.87,2.71c0.15,0.1,0.28,0.13,0.41,0.17c2.27,0.64,4.5,0.54,6.71-0.27
	c0.27-0.1,0.34-0.22,0.27-0.49c-0.16-0.63-0.29-1.26-0.44-1.89C20.05,31.26,20.02,31.19,19.98,31.1L19.98,31.1z M19.67,29.71
	c-0.29-1.25-0.56-2.41-0.83-3.62c-1.44,0.56-2.84,1.11-4.3,1.68C16.27,28.43,17.95,29.06,19.67,29.71L19.67,29.71z"/>
<path class="st6" d="M16.41,35.94c5.22,0,9.84-3.36,11.37-8.31c0.35-1.12,0.51-2.28,0.54-3.46c0.01-0.39,0.12-0.56,0.4-0.52
	c0.38,0.05,0.7,0.18,0.66,0.6c-0.24,2.7-0.98,5.22-2.62,7.42c-1.93,2.6-4.51,4.2-7.65,4.93c-0.73,0.17-1.48,0.32-2.23,0.41
	c-0.49,0.06-1,0-1.5-0.03c-0.16-0.01-0.32-0.1-0.49-0.13c-3.23-0.56-6-1.95-8.16-4.47c-1.53-1.78-2.39-3.86-2.93-6.13
	c-0.52-2.2-0.15-4.3,0.58-6.36c1.17-3.31,3.35-5.77,6.51-7.32c1.72-0.84,3.55-1.26,5.45-1.38c0.32-0.02,0.55,0.21,0.56,0.52
	c0.01,0.41-0.08,0.5-0.51,0.51c-2.51,0.05-4.81,0.73-6.84,2.23c-2.77,2.04-4.47,4.74-4.84,8.18c-0.5,4.68,1.21,8.42,5.01,11.18
	C11.64,35.21,14.08,35.94,16.41,35.94L16.41,35.94z"/>
<path d="M41.37,22.66c0,0.33,0,0.64,0,0.99c-0.31,0-0.6,0.01-0.9-0.01c-0.05,0-0.13-0.11-0.13-0.17c-0.01-0.57-0.01-1.15-0.01-1.74
	c0.6,0.02,0.81-0.33,0.85-0.82c0.08-0.93,0.15-1.86,0.23-2.8c0.01-0.1,0.02-0.21,0.02-0.33c1.25,0,2.49,0,3.75,0
	c0,1.3,0,2.59,0,3.92c0.22,0.01,0.42,0.02,0.65,0.03c0,0.63,0,1.24,0,1.88c-0.32,0-0.64,0-0.99,0c0-0.31,0-0.62,0-0.96
	C43.68,22.66,42.54,22.66,41.37,22.66L41.37,22.66z M44.04,21.71c0-1.02,0-2.01,0-3.01c-0.54,0-1.08,0-1.57,0
	c-0.13,1.03-0.26,2.02-0.39,3.01C42.69,21.71,43.35,21.71,44.04,21.71L44.04,21.71z"/>
<path d="M42.22,27.77c0,0.8-0.01,1.59,0,2.39c0,0.24-0.06,0.34-0.32,0.33c-0.77-0.01-0.77,0-0.77-0.78c0-1.31,0-2.62,0-3.93
	c0-0.07,0.04-0.18,0.09-0.2c0.37-0.16,0.92,0.03,1.13,0.38c0.46,0.8,0.93,1.6,1.4,2.4c0.04,0.07,0.1,0.13,0.18,0.24
	c0.19-0.32,0.36-0.61,0.53-0.9c0.38-0.64,0.74-1.29,1.15-1.92c0.07-0.12,0.29-0.18,0.45-0.19c0.61-0.05,0.61-0.04,0.61,0.57
	c0,1.41,0,2.83,0,4.31c-0.33,0-0.64,0.01-0.96-0.01c-0.05,0-0.12-0.16-0.12-0.24c-0.01-0.73,0-1.47,0.01-2.2c0-0.1,0-0.21-0.07-0.34
	c-0.31,0.5-0.61,1-0.92,1.5c-0.11,0.18-0.22,0.37-0.34,0.54c-0.24,0.35-0.45,0.37-0.69,0.03c-0.35-0.5-0.67-1.03-1.01-1.55
	c-0.1-0.16-0.21-0.31-0.31-0.46C42.26,27.75,42.24,27.76,42.22,27.77L42.22,27.77z"/>
<path d="M79.08,19.52c-0.45,0.6-0.85,1.13-1.24,1.67c-0.25,0.33-0.51,0.65-0.73,1.01c-0.21,0.35-0.48,0.52-0.89,0.46
	c-0.14-0.02-0.29,0-0.47,0c0-1.64,0-3.23,0-4.88c0.31,0,0.63-0.02,0.94,0.01c0.06,0.01,0.14,0.18,0.15,0.28c0.01,0.81,0,1.62,0,2.43
	c0,0.11,0,0.22,0.07,0.36c0.08-0.09,0.16-0.18,0.24-0.28c0.63-0.87,1.25-1.75,1.88-2.61c0.06-0.09,0.2-0.16,0.31-0.17
	c0.26-0.02,0.53,0,0.8,0c0.17,0,0.22,0.07,0.22,0.23c0,1.47,0,2.94,0.01,4.4c0,0.2-0.09,0.24-0.25,0.24c-0.23,0-0.47,0-0.7,0.01
	c-0.22,0.02-0.3-0.06-0.3-0.28c0.01-0.84,0.01-1.68,0.01-2.52C79.1,19.77,79.09,19.69,79.08,19.52L79.08,19.52z"/>
<path d="M60.83,17.82c0.96,0,1.89-0.02,2.81,0.01c0.57,0.01,0.99,0.31,1.2,0.85c0.2,0.54-0.04,0.95-0.42,1.31
	c-0.03,0.03-0.05,0.07-0.09,0.12c0.08,0.06,0.15,0.12,0.22,0.17c0.43,0.28,0.68,0.66,0.56,1.18c-0.12,0.51-0.42,0.91-0.96,1.05
	c-0.22,0.06-0.46,0.1-0.69,0.11c-0.8,0.02-1.6,0.01-2.4,0.02c-0.15,0-0.27-0.01-0.26-0.22c0.01-1.5,0.01-3,0.02-4.5
	C60.81,17.88,60.82,17.84,60.83,17.82L60.83,17.82z M61.91,20.59c0,0.34-0.01,0.67,0.01,0.99c0,0.08,0.12,0.21,0.18,0.21
	c0.43,0.01,0.87,0.02,1.3-0.01c0.35-0.03,0.56-0.29,0.55-0.62c-0.01-0.34-0.23-0.55-0.6-0.56C62.9,20.58,62.45,20.59,61.91,20.59
	L61.91,20.59z M61.92,18.62c0,0.34-0.01,0.67,0.01,0.99c0.01,0.07,0.13,0.19,0.21,0.19c0.37,0,0.74-0.01,1.11-0.05
	c0.32-0.04,0.47-0.26,0.46-0.58c-0.01-0.3-0.17-0.52-0.47-0.54C62.81,18.59,62.39,18.62,61.92,18.62L61.92,18.62z"/>
<path d="M67.36,26.53c-0.57,0-1.1,0-1.61,0c-0.07,0.84-0.1,1.66-0.21,2.47c-0.05,0.38-0.23,0.77-0.43,1.11
	c-0.26,0.44-0.73,0.52-1.21,0.44c-0.1-0.02-0.22-0.16-0.24-0.26c-0.04-0.16-0.04-0.35,0.01-0.5c0.03-0.1,0.17-0.22,0.27-0.23
	c0.3-0.04,0.48-0.18,0.52-0.47c0.07-0.46,0.16-0.92,0.2-1.38c0.04-0.62,0.05-1.23,0.06-1.85c0-0.2,0.05-0.28,0.27-0.28
	c1.07,0.01,2.13,0.01,3.2,0c0.26,0,0.35,0.07,0.35,0.34c-0.02,1.44-0.02,2.87-0.02,4.31c0,0.22-0.08,0.29-0.28,0.27
	c-0.05,0-0.11,0-0.16,0c-0.72,0-0.72,0-0.72-0.72c0.01-1.02,0.02-2.04,0.03-3.06C67.38,26.65,67.37,26.6,67.36,26.53L67.36,26.53z"
	/>
<path d="M49.08,21.32c0,0.42,0,0.84,0,1.32c-0.35,0-0.7,0.01-1.04-0.01c-0.05,0-0.13-0.13-0.13-0.2c-0.01-1.49-0.01-2.98-0.01-4.47
	c0-0.06,0.1-0.19,0.14-0.19c0.94,0.02,1.88-0.01,2.8,0.11c0.82,0.1,1.36,0.9,1.32,1.71c-0.04,0.82-0.64,1.51-1.45,1.62
	C50.18,21.29,49.64,21.29,49.08,21.32L49.08,21.32z M49.07,20.41c0.48-0.03,0.91-0.03,1.32-0.09c0.36-0.05,0.63-0.43,0.62-0.78
	c0-0.37-0.25-0.74-0.58-0.79c-0.39-0.05-0.78-0.05-1.17-0.06c-0.06,0-0.18,0.1-0.18,0.15C49.07,19.35,49.07,19.85,49.07,20.41
	L49.07,20.41z"/>
<path d="M49.12,25.58c0.34,0,0.65,0.01,0.96,0c0.19,0,0.2,0.11,0.2,0.25c0,0.44,0,0.89,0,1.4c0.51,0,1.02-0.01,1.53,0
	c1.05,0.02,1.7,0.81,1.53,1.85c-0.11,0.71-0.73,1.31-1.46,1.35c-0.84,0.04-1.68,0.04-2.52,0.06c-0.15,0-0.24-0.03-0.24-0.21
	C49.13,28.73,49.12,27.18,49.12,25.58L49.12,25.58z M50.26,29.59c0.46,0,0.89,0.02,1.31-0.01c0.37-0.02,0.57-0.29,0.61-0.7
	c0.04-0.36-0.13-0.75-0.41-0.78c-0.5-0.06-1-0.05-1.51-0.08C50.26,28.58,50.26,29.06,50.26,29.59L50.26,29.59z"/>
<path d="M58.83,22.64c-0.36,0-0.69,0.02-1.01-0.01c-0.09-0.01-0.21-0.13-0.25-0.22c-0.34-0.81-0.33-0.81-1.21-0.81
	c-0.39,0-0.79-0.02-1.18,0c-0.1,0-0.25,0.1-0.29,0.2c-0.36,0.87-0.36,0.87-1.3,0.85c-0.05,0-0.1-0.01-0.21-0.02
	c0.08-0.18,0.16-0.33,0.23-0.49c0.6-1.34,1.2-2.67,1.78-4.02c0.1-0.23,0.23-0.33,0.47-0.33c0.82-0.02,0.81-0.02,1.14,0.71
	c0.6,1.34,1.2,2.67,1.81,4.01C58.81,22.53,58.81,22.56,58.83,22.64L58.83,22.64z M55.32,20.71c0.53,0,1.01,0,1.52,0
	c-0.24-0.6-0.46-1.17-0.69-1.74c-0.03,0-0.06,0.01-0.09,0.01C55.81,19.54,55.57,20.1,55.32,20.71L55.32,20.71z"/>
<path d="M67.29,17.78c0.34,0,0.64,0,0.93,0c0.19,0,0.22,0.11,0.22,0.27c-0.01,0.42,0,0.85,0,1.32c0.12,0,0.24,0,0.37,0
	c0.44,0.01,0.87,0.02,1.31,0.04c0.64,0.04,1.11,0.35,1.31,0.95c0.22,0.66,0.13,1.31-0.42,1.78c-0.23,0.2-0.55,0.38-0.84,0.4
	c-0.88,0.07-1.77,0.07-2.65,0.08c-0.07,0-0.21-0.12-0.21-0.19C67.29,20.9,67.29,19.35,67.29,17.78L67.29,17.78z M69.16,20.2
	c-0.2,0-0.37-0.01-0.54,0.01c-0.07,0.01-0.19,0.09-0.19,0.14c-0.02,0.42-0.02,0.85-0.02,1.28c0,0.05,0.1,0.15,0.15,0.15
	c0.4,0,0.81,0.02,1.21-0.04c0.39-0.06,0.61-0.45,0.57-0.87c-0.04-0.38-0.25-0.59-0.67-0.63C69.5,20.22,69.31,20.21,69.16,20.2
	L69.16,20.2z"/>
<path d="M35.35,20.58c0-0.3,0-0.57,0-0.88c0.37,0,0.74,0.01,1.11,0c0.43-0.01,0.7-0.19,0.72-0.44c0.02-0.29-0.28-0.6-0.67-0.65
	c-0.56-0.07-1.07,0.06-1.59,0.32c-0.13-0.24-0.27-0.47-0.36-0.71c-0.02-0.06,0.07-0.22,0.15-0.25c0.92-0.35,1.86-0.46,2.79-0.04
	c0.6,0.27,0.96,0.86,0.79,1.38c-0.09,0.3-0.33,0.55-0.51,0.84c0.09,0.07,0.22,0.16,0.35,0.27c0.51,0.44,0.55,0.99,0.15,1.53
	c-0.36,0.48-0.86,0.68-1.43,0.74c-0.7,0.07-1.38,0-2.04-0.24c-0.22-0.08-0.3-0.2-0.25-0.43c0.04-0.19,0.08-0.39,0.12-0.57
	c0.41,0.11,0.79,0.24,1.19,0.32c0.41,0.08,0.84,0.06,1.2-0.19c0.16-0.11,0.33-0.32,0.33-0.49c0-0.27-0.23-0.46-0.51-0.49
	c-0.35-0.03-0.7-0.02-1.05-0.03C35.68,20.57,35.55,20.58,35.35,20.58L35.35,20.58z"/>
<path d="M59.89,30.59c-1.49,0.01-2.63-1.1-2.64-2.58c-0.01-1.4,1.12-2.49,2.59-2.51c0.69-0.01,1.29,0.2,1.84,0.6
	c0.18,0.13,0.23,0.27,0.04,0.44c-0.16,0.14-0.28,0.39-0.45,0.42c-0.15,0.03-0.35-0.17-0.52-0.28c-0.62-0.38-1.56-0.22-2,0.34
	c-0.54,0.69-0.47,1.59,0.17,2.19c0.56,0.52,1.44,0.54,2,0.01c0.21-0.19,0.35-0.2,0.52,0.01c0.01,0.02,0.03,0.03,0.04,0.05
	c0.46,0.45,0.46,0.45-0.06,0.83C61.02,30.4,60.44,30.58,59.89,30.59L59.89,30.59z"/>
<path d="M38.53,27c-0.38-0.19-0.68-0.4-1.02-0.48c-0.75-0.19-1.41,0.16-1.71,0.83c-0.32,0.72-0.13,1.51,0.49,1.97
	c0.57,0.42,1.38,0.38,1.93-0.13c0.17-0.16,0.29-0.14,0.42,0.01c0.02,0.02,0.05,0.05,0.07,0.07c0.5,0.47,0.5,0.47-0.07,0.87
	c-1.32,0.95-3.42,0.41-3.95-1.12c-0.64-1.84,0.37-3.3,2.21-3.5c0.74-0.08,1.41,0.13,2,0.58c0.2,0.15,0.28,0.28,0.05,0.47
	C38.79,26.7,38.65,26.88,38.53,27L38.53,27z"/>
<path d="M55.07,25.58c0.01,0.11,0.03,0.21,0.03,0.32c0,1.44-0.01,2.87,0,4.31c0,0.22-0.08,0.28-0.27,0.27
	c-1.09-0.03-0.88,0.15-0.88-0.85c-0.01-1.24,0.01-2.49-0.01-3.73c0-0.26,0.06-0.34,0.32-0.32C54.51,25.6,54.78,25.58,55.07,25.58
	L55.07,25.58z"/>
<path d="M72.08,17.77c0.36,0,0.67,0,0.97,0c0.23,0,0.18,0.16,0.18,0.29c0,1.06,0,2.13,0,3.19c0,0.44,0,0.89,0,1.38
	c-0.34,0-0.67,0.01-0.99-0.01c-0.06,0-0.15-0.12-0.15-0.18C72.08,20.9,72.08,19.36,72.08,17.77L72.08,17.77z"/>
<path d="M77.99,17.49c-0.27-0.05-0.56-0.06-0.8-0.18c-0.2-0.1-0.38-0.3-0.5-0.49c-0.08-0.15-0.04-0.36-0.06-0.55
	c0.21-0.01,0.41-0.04,0.62-0.03c0.06,0,0.13,0.14,0.14,0.23c0.05,0.32,0.27,0.41,0.55,0.42c0.27,0.02,0.47-0.06,0.55-0.36
	c0.07-0.29,0.56-0.43,0.79-0.23c0.05,0.04,0.05,0.17,0.03,0.25c-0.19,0.66-0.48,0.88-1.17,0.9c-0.05,0-0.11,0-0.16,0
	C77.99,17.46,77.99,17.47,77.99,17.49L77.99,17.49z"/>
<path d="M116.67,8.96c-0.43,0.01-0.87,0.15-1.2,0.43c-0.57,0.5-1.15,1.01-1.13,1.68c0.02,0.67,0.4,1.05,0.4,1.05s0.26,0.2,0,0.4
	c-0.26,0.2-3.31,2.14-3.15,6.14c0,0,0.08,1.04-0.04,2.15c-0.08,0.8,0.2,1.76,0.36,2.25c0,0,0.08,0.2-0.09,0.09
	c-0.83-0.52-1.5-1.29-2.07-2.26c-0.52-0.94-0.81-2.03-0.81-3.19c0-2.46,1.34-4.6,3.3-5.71c-2.7,0.74-4.69,3.27-4.69,6.28
	c0,0.23,0.01,0.46,0.03,0.68c0.02,0.52,0.08,1.34,0.23,1.67c0.22,0.5,0.2,1.56,0.2,1.74c0,0.18,0.06,6.04,3.53,6.02
	c0,0,1.65,0.04,1.66-0.63c0.01-0.59-0.16-0.66-0.32-1c-0.15-0.33-0.26-0.35-0.18-1.4c0,0,0-0.21,0.08-0.22
	c0.08-0.01,1.05,2.87,2.29,4.38c1.25,1.51,2.5,1.66,3.45,1.66c0,0,1.78,0,1.78-0.89c0-0.89-0.81-0.53-0.81-3.37
	c0-2.83,1.37-2.69,1.53-2c0.16,0.69,0.3,1.25,0.02,3.11c-0.28,1.86,0.48,2.08,1.17,2.08c0.69,0,4.34,0.12,4.97-10.3
	c0,0,0.08-1.68-0.48-3.13c0,0,0.24,2.77-1.49,4.26c-1.72,1.49-2.71,1.27-2.71,1.27s-0.83-0.06-1.17,0.36
	c-0.34,0.42-0.28,0.71-0.99,0.5c-0.71-0.22-0.72-0.4-1.37-0.32c-0.65,0.08-1.05,0.16-1.31-0.38c-0.26-0.54-0.55-0.88-1.08-0.98
	c-0.53-0.1-2.88-1.22-2.82-4.37c0.06-2.93,1.39-3.94,1.39-3.94s0.22-0.24,0.44-0.14c0.22,0.1,0.57,0.12,0.99-0.26
	c0.42-0.38,0.69-0.67,1.45-0.93c0,0,0.51-0.08,0.49-0.6c-0.02-0.51-0.44-1.64-0.97-1.98C117.32,9.03,117,8.95,116.67,8.96
	L116.67,8.96z M118.47,23.14c0.12,0,0.29,0.07,0.47,0.14c0.27,0.1,0.87,0.05,1.11,0.04c0.24-0.02,0.4,0.08,0.21,0.31
	c-0.26,0.31-0.58,0.3-0.97,0.33c-0.39,0.03-0.82-0.36-0.82-0.36c-0.02-0.04-0.21-0.24-0.12-0.39
	C118.37,23.16,118.41,23.14,118.47,23.14L118.47,23.14z M116.44,16.82c0.46-0.56,0.71-0.63,1.11-0.63c0.4,0,0.95,0.25,1.11,0.87
	c0.18,0.67,0.27,0.78-0.37,1.53c-0.46,0.54-1.29,1.72-2.12,0.97C115.33,18.8,115.64,17.8,116.44,16.82L116.44,16.82z M123.88,17.87
	c-0.27-0.67-0.49-0.82-0.87-0.94c-0.38-0.12-0.98-0.04-1.32,0.5c-0.37,0.59-0.5,0.64-0.11,1.55c0.28,0.65,0.73,2.04,1.75,1.58
	C124.35,20.09,124.35,19.04,123.88,17.87L123.88,17.87z M119.5,22.29c0.21-0.33,0.71-0.44,0.99-0.45c0.37-0.01,0.37-0.34,0.37-0.34
	s0.03-0.33-1.33-0.46c-1.35-0.13-1.39,0.22-1.39,0.22s-0.06,0.32,0.3,0.4c0.28,0.06,0.74,0.26,0.89,0.63
	C119.37,22.37,119.45,22.37,119.5,22.29L119.5,22.29z M125.88,14.16c-0.23,0.07-0.58,0.05-0.96-0.37c-0.37-0.42-0.62-0.75-1.33-1.09
	c0,0-0.5-0.14-0.43-0.65c0.08-0.51,0.62-1.59,1.18-1.86c0.57-0.28,1.53-0.11,2.04,0.45c0.52,0.56,1.03,1.13,0.94,1.8
	c-0.09,0.67-0.51,1-0.51,1l0.01,0C126.62,13.71,125.88,14.16,125.88,14.16L125.88,14.16z"/>
<path class="st7" d="M102.12,31.81c0-0.19-0.01-0.36,0-0.53c0-0.11-0.05-0.16-0.15-0.17c-0.24-0.04-0.48-0.04-0.72,0.01
	c-0.1,0.02-0.14,0.07-0.15,0.17c-0.01,0.2-0.03,0.41-0.04,0.61c0,0.07-0.02,0.1-0.1,0.12c-1.41,0.41-2.78,0.94-4.1,1.59
	c-0.02,0.01-0.04,0.01-0.09,0.04c0.09-0.37,0.16-0.71,0.26-1.05c0.06-0.21,0.14-0.41,0.22-0.61c0.03-0.06,0.09-0.13,0.15-0.16
	c1.27-0.63,2.59-1.08,4-1.31c0.96-0.16,1.93-0.22,2.9-0.16c0.37,0.02,0.75,0.09,1.12,0.13c0.04,0.01,0.09,0.03,0.11,0.05
	c0.33,0.34,0.61,0.72,0.83,1.14c0.01,0.01,0.01,0.02,0.01,0.05C104.97,31.52,103.56,31.59,102.12,31.81L102.12,31.81z"/>
<path class="st8" d="M126.32,34.51c0-0.08,0.01-0.11,0.01-0.15c0-0.55,0-1.09,0-1.64c0-0.1,0.03-0.14,0.13-0.14
	c0.29,0.01,0.58,0,0.87,0c0,1.16,0,2.31,0,3.48c-0.04,0-0.08,0.01-0.12,0.01c-0.26,0-0.52,0-0.78,0c-0.08,0-0.12-0.03-0.17-0.09
	c-0.38-0.57-0.77-1.13-1.15-1.69c-0.02-0.03-0.05-0.06-0.1-0.09c0,0.04-0.01,0.09-0.01,0.13c0,0.54,0,1.07,0,1.61
	c0,0.1-0.03,0.14-0.13,0.14c-0.25-0.01-0.5-0.01-0.74,0c-0.09,0-0.13-0.02-0.13-0.12c0-1.08,0-2.15,0-3.23
	c0-0.12,0.04-0.15,0.15-0.14c0.24,0.01,0.48,0.01,0.72,0c0.09,0,0.15,0.02,0.21,0.1c0.38,0.57,0.77,1.13,1.15,1.7
	C126.25,34.41,126.28,34.45,126.32,34.51L126.32,34.51z"/>
<path class="st8" d="M115.96,36.07c-0.22,0-0.42,0-0.61,0c-0.15,0-0.31-0.01-0.46,0c-0.12,0.01-0.17-0.04-0.22-0.14
	c-0.18-0.34-0.37-0.68-0.55-1.02c-0.08-0.15-0.2-0.25-0.39-0.27c-0.09-0.01-0.14,0.01-0.13,0.12c0.01,0.39,0,0.78,0,1.17
	c0,0.1-0.03,0.13-0.13,0.13c-0.28,0-0.56,0-0.84,0c-0.08,0-0.11-0.02-0.11-0.11c0-1.09,0-2.18,0-3.27c0-0.06,0-0.11,0.08-0.11
	c0.71,0.01,1.42,0.01,2.14,0.03c0.15,0,0.31,0.04,0.45,0.11c0.38,0.19,0.5,0.52,0.47,0.92c-0.03,0.39-0.24,0.66-0.6,0.81
	c-0.06,0.03-0.13,0.05-0.2,0.08c0.26,0.08,0.42,0.28,0.55,0.5c0.13,0.22,0.23,0.45,0.35,0.67
	C115.83,35.81,115.89,35.93,115.96,36.07L115.96,36.07z M113.61,33.62c0,0.1-0.01,0.19,0,0.29c0,0.03,0.05,0.08,0.08,0.08
	c0.2,0,0.41-0.01,0.61-0.03c0.21-0.03,0.31-0.16,0.31-0.35c-0.01-0.2-0.12-0.31-0.34-0.33c-0.19-0.01-0.38-0.01-0.58-0.01
	c-0.06,0-0.08,0.03-0.08,0.09C113.62,33.45,113.61,33.53,113.61,33.62L113.61,33.62z"/>
<path class="st8" d="M121.59,32.49c0.26,0.06,0.54,0.09,0.79,0.17c0.48,0.16,0.77,0.51,0.91,0.99c0.13,0.44,0.12,0.89,0,1.34
	c-0.18,0.65-0.7,1.07-1.4,1.12c-0.29,0.02-0.59,0.01-0.87-0.05c-0.61-0.11-0.99-0.5-1.16-1.08c-0.13-0.46-0.13-0.93,0.02-1.38
	c0.23-0.66,0.73-0.98,1.4-1.06c0.1-0.01,0.2-0.01,0.3-0.01C121.58,32.51,121.59,32.5,121.59,32.49L121.59,32.49z M120.81,34.35
	c0.03,0.17,0.05,0.36,0.11,0.55c0.09,0.28,0.35,0.44,0.67,0.44c0.32-0.01,0.55-0.17,0.64-0.46c0.1-0.34,0.11-0.68,0.02-1.02
	c-0.08-0.33-0.33-0.51-0.69-0.52c-0.33-0.01-0.58,0.17-0.67,0.49C120.86,33.98,120.85,34.16,120.81,34.35L120.81,34.35z"/>
<path class="st8" d="M119.28,35.29c0,0.26,0,0.5,0,0.76c-0.97,0-1.94,0-2.92,0c0-1.15,0-2.31,0-3.47c0.96,0,1.91,0,2.86,0
	c0,0.24,0,0.47,0,0.72c-0.06,0-0.11,0-0.16,0c-0.5,0-1,0-1.5,0c-0.11,0-0.16,0.03-0.15,0.15c0.01,0.08,0,0.17,0,0.25
	c0,0.17,0,0.17,0.17,0.17c0.46,0,0.91,0,1.37,0c0.04,0,0.09,0,0.14,0c0,0.22,0,0.43,0,0.64c0,0.08-0.07,0.06-0.11,0.06
	c-0.47,0-0.94,0-1.4,0c-0.16,0-0.16,0-0.16,0.17c0,0.12,0,0.25,0,0.37c0,0.17,0,0.17,0.17,0.17c0.52,0,1.03,0,1.55,0
	C119.18,35.29,119.23,35.29,119.28,35.29L119.28,35.29z"/>
<path class="st7" d="M101.02,32.49c-0.02,0.42-0.05,0.81-0.07,1.21c-0.01,0.15-0.02,0.3-0.03,0.44c0,0.04-0.04,0.09-0.07,0.1
	c-1.26,0.57-2.49,1.18-3.68,1.89c-0.01,0-0.02,0-0.05,0.02c-0.06-0.19-0.14-0.37-0.18-0.56c-0.07-0.37-0.11-0.74-0.17-1.11
	c-0.02-0.11,0.06-0.14,0.13-0.18c0.52-0.27,1.04-0.55,1.58-0.79c0.75-0.33,1.52-0.63,2.28-0.94
	C100.83,32.54,100.92,32.52,101.02,32.49L101.02,32.49z"/>
<path class="st8" d="M111.04,34.65c0.31,0.09,0.61,0.19,0.91,0.28c-0.11,0.63-0.55,1.06-1.16,1.16c-0.36,0.06-0.72,0.05-1.07-0.04
	c-0.54-0.14-0.86-0.5-1.03-1.01c-0.16-0.48-0.16-0.98,0-1.46c0.21-0.65,0.7-0.97,1.36-1.04c0.35-0.04,0.7-0.03,1.03,0.1
	c0.45,0.16,0.7,0.51,0.85,0.96c-0.18,0.04-0.34,0.08-0.5,0.11c-0.12,0.03-0.23,0.06-0.35,0.07c-0.03,0-0.1-0.02-0.11-0.05
	c-0.11-0.31-0.41-0.45-0.69-0.41c-0.3,0.04-0.52,0.24-0.59,0.56c-0.06,0.31-0.06,0.63,0.01,0.94c0.07,0.31,0.26,0.47,0.56,0.5
	c0.33,0.03,0.55-0.1,0.68-0.4C110.97,34.84,111,34.75,111.04,34.65L111.04,34.65z"/>
<path class="st8" d="M106.92,33.25c-0.98-0.04-1.95,0-2.94,0.15c-0.01-0.17-0.01-0.32-0.02-0.48c-0.01-0.18-0.03-0.22-0.21-0.24
	c-0.18-0.01-0.36,0-0.54,0.01c-0.11,0.01-0.17,0.07-0.17,0.2c0,0.2-0.02,0.39-0.03,0.59c0,0.07-0.03,0.1-0.1,0.12
	c-0.24,0.06-0.48,0.13-0.72,0.2c-0.01-0.06-0.01-0.11-0.01-0.16c-0.02-0.42-0.03-0.85-0.05-1.27c0-0.1,0.03-0.14,0.12-0.16
	c1.07-0.22,2.15-0.31,3.24-0.28c0.31,0.01,0.62,0.05,0.93,0.08c0.05,0.01,0.11,0.04,0.13,0.08c0.17,0.35,0.29,0.71,0.36,1.09
	C106.92,33.19,106.92,33.21,106.92,33.25L106.92,33.25z"/>
<path class="st7" d="M97.75,31.16c1.88-2.52,5.39-2.67,7.46-0.94C102.62,29.82,100.15,30.18,97.75,31.16L97.75,31.16z"/>
<path class="st8" d="M97.43,36.8c1.1-0.77,2.25-1.42,3.48-2.01c0,0.07,0,0.11,0,0.15c-0.02,0.46-0.05,0.92-0.07,1.38
	c0,0.1-0.04,0.16-0.12,0.21c-0.75,0.47-1.49,0.94-2.18,1.49c-0.06,0.05-0.1,0.05-0.15,0C98.01,37.67,97.68,37.28,97.43,36.8
	L97.43,36.8z"/>
<path class="st8" d="M104.06,35.17c-0.02-0.45-0.03-0.88-0.04-1.32c0-0.08,0.06-0.09,0.11-0.09c0.44-0.07,0.87-0.16,1.31-0.19
	c0.47-0.04,0.94-0.02,1.41-0.03c0.11,0,0.16,0.04,0.16,0.15c0.01,0.31,0.02,0.63,0.03,0.94c0,0.03-0.05,0.1-0.08,0.1
	c-0.46,0.05-0.91,0.1-1.37,0.15c-0.02,0-0.03,0-0.06,0c-0.01-0.15-0.02-0.3-0.03-0.45c-0.01-0.16-0.03-0.2-0.2-0.21
	c-0.16-0.01-0.33,0-0.49,0.01c-0.08,0.01-0.12,0.05-0.12,0.14c0,0.18-0.02,0.36-0.02,0.54c0,0.08-0.02,0.12-0.1,0.13
	C104.41,35.08,104.25,35.12,104.06,35.17L104.06,35.17z"/>
<path class="st8" d="M99,38.54c0.59-0.45,1.17-0.89,1.77-1.35c0.01,0.07,0.01,0.1,0.01,0.13c-0.02,0.54-0.05,1.09-0.07,1.63
	c0,0.08-0.19,0.3-0.27,0.32c-0.02,0-0.04-0.01-0.06-0.01c-0.46-0.17-0.9-0.37-1.31-0.64C99.06,38.6,99.04,38.58,99,38.54L99,38.54z"
	/>
<path class="st8" d="M105.56,36.37c-0.01-0.37-0.02-0.72-0.03-1.07c0-0.03,0.04-0.07,0.06-0.08c0.45-0.08,0.91-0.15,1.36-0.22
	c0.01,0,0.01,0.01,0.05,0.02c-0.05,0.17-0.09,0.36-0.15,0.53c-0.11,0.34-0.12,0.34-0.45,0.47c-0.24,0.09-0.47,0.2-0.71,0.29
	C105.66,36.33,105.62,36.35,105.56,36.37L105.56,36.37z"/>
<path class="st8" d="M102.99,34.01c-0.02,0.33-0.03,0.62-0.05,0.92c-0.01,0.16-0.02,0.32-0.03,0.48c0,0.04-0.01,0.09-0.04,0.1
	c-0.2,0.09-0.39,0.17-0.61,0.25c-0.01-0.1-0.01-0.17-0.02-0.25c-0.01-0.37-0.02-0.74-0.04-1.11c0-0.08,0.02-0.12,0.1-0.15
	C102.53,34.18,102.74,34.1,102.99,34.01L102.99,34.01z"/>
<path class="st8" d="M102.89,36.05c-0.01,0.33-0.03,0.62-0.04,0.92c-0.01,0.22-0.02,0.43-0.04,0.65c0,0.04-0.01,0.09-0.04,0.1
	c-0.13,0.09-0.26,0.18-0.42,0.28c-0.01-0.09-0.01-0.16-0.02-0.22c-0.02-0.43-0.03-0.87-0.05-1.3c-0.01-0.1,0.03-0.15,0.11-0.18
	C102.55,36.21,102.71,36.13,102.89,36.05L102.89,36.05z"/>
<path class="st8" d="M104.13,37.05c-0.01-0.21-0.02-0.39-0.03-0.57c-0.01-0.26-0.03-0.51-0.04-0.76c-0.01-0.07,0.01-0.11,0.08-0.13
	c0.16-0.05,0.31-0.11,0.49-0.17c-0.01,0.24-0.02,0.45-0.04,0.67c-0.01,0.21-0.02,0.42-0.04,0.63c0,0.04-0.01,0.1-0.04,0.12
	C104.4,36.9,104.28,36.97,104.13,37.05L104.13,37.05z"/>
<rect class="st9" width="177" height="222"/>
</svg>
