<svg data-name="Layer 1" xmlns="http://www.w3.org/2000/svg" width="101" height="101"><defs><clipPath id="a"><path fill="none" d="M0 0h101v101H0z"/></clipPath></defs><g clip-path="url(#a)" fill="none"><path d="M101 0H0v101h101V0z" fill="#566e78"/><path d="M17.304 76.767H32.49c.176 0 .353-.177.353-.354s0-.177-.177-.177l-7.592-9.728s-.177-.177-.354-.177h-.176l-7.416 9.729-.177.176v.177c0 .177.177.354.353.354zm15.186 1.592H17.304c-.176 0-.353.177-.353.354v12.028c0 .177.177.354.353.354h4.944v-7.606a.38.38 0 01.354-.354h4.59a.38.38 0 01.354.354v7.606h4.944c.176 0 .353-.177.353-.354V78.713c0-.354-.177-.354-.353-.354zm52.618-3.184H70.099c-.176 0-.353.177-.353.354v15.212c0 .177.177.354.353.354h15.009c.177 0 .353-.177.353-.354V75.529c0-.354-.176-.354-.353-.354zm-8.299 9.906a.38.38 0 01-.353.353h-4.414c-.177 0-.354-.177-.354-.353v-2.654c0-.177.177-.353.354-.353h4.414a.38.38 0 01.353.353v2.654zm0-5.13c0 .177-.177.354-.353.354h-4.414a.38.38 0 01-.354-.354v-2.653a.38.38 0 01.354-.354h4.414c.176 0 .353.177.353.354v2.653zm6.886 5.13a.38.38 0 01-.353.353h-4.414a.38.38 0 01-.353-.353v-2.654c0-.177.176-.353.353-.353h4.414c.177 0 .353.176.353.353v2.654zm0-5.13c0 .177-.176.354-.353.354h-4.414c-.177 0-.353-.177-.353-.354v-2.653c0-.177.176-.354.353-.354h4.414c.177 0 .353.177.353.354v2.653zM49.971 39.799H35.315a.379.379 0 00-.353.353v50.412c0 .177.176.354.353.354h14.656c.176 0 .353-.177.353-.354V40.152c.176-.177 0-.353-.353-.353zm-8.652 45.458q0 .177-.177.177h-3.355q-.176 0-.176-.177v-3.714c0-.177.176-.177.176-.177h3.355c.177 0 .177.177.177.177v3.714zm0-8.667q0 .177-.177.177h-3.355c-.176 0-.176-.177-.176-.177v-3.714c0-.177.176-.177.176-.177h3.355q.177 0 .177.177v3.714zm0-8.667q0 .177-.177.177h-3.355q-.176 0-.176-.177v-3.715c0-.177.176-.177.176-.177h3.355c.177 0 .177.177.177.177v3.715zm0-8.667q0 .177-.177.177h-3.355q-.176 0-.176-.177v-3.715c0-.177.176-.177.176-.177h3.355q.177 0 .177.177v3.715zm0-8.491q0 .177-.177.177h-3.355c-.176 0-.176-.177-.176-.177v-3.714c0-.177.176-.177.176-.177h3.355q.177 0 .177.177v3.714zm6.533 34.492q0 .177-.177.177H44.32q-.176 0-.176-.177v-3.714q0-.177.176-.177h3.355c.177 0 .177.177.177.177v3.714zm0-8.667q0 .177-.177.177H44.32c-.176 0-.176-.177-.176-.177v-3.714q0-.177.176-.177h3.355q.177 0 .177.177v3.714zm0-8.667q0 .177-.177.177H44.32q-.176 0-.176-.177v-3.715q0-.177.176-.177h3.355c.177 0 .177.177.177.177v3.715zm0-8.667q0 .177-.177.177H44.32q-.176 0-.176-.177v-3.715q0-.177.176-.177h3.355q.177 0 .177.177v3.715zm0-8.491q0 .177-.177.177H44.32c-.176 0-.176-.177-.176-.177v-3.714q0-.177.176-.177h3.355q.177 0 .177.177v3.714zm37.609 22.818c0 .177-.176.354-.353.354H70.099c-.176 0-.353-.177-.353-.354v-3.007c0-.177.177-.354.353-.354h15.009c.177 0 .353.177.353.354v3.007zM67.981 49.35c0-.177-.177-.354-.353-.354h-.177l-.176.177-14.479 18.396s-.177.177-.177.354v22.641c0 .177.177.354.353.354h14.832a.38.38 0 00.354-.354l-.177-41.214zm-6.18 9.906c1.059-1.415 2.825-3.538 3.531-4.422l.177-.177q.177-.177.353-.177c.177 0 .353.177.353.354v4.775c0 .177-.176.354-.353.354h-3.708c-.176 0-.353-.177-.353-.354v-.353zM59.506 85.08a.38.38 0 01-.354.354h-4.414c-.177 0-.353-.177-.353-.354v-2.83c0-.177.176-.353.353-.353h4.414c.177 0 .354.176.354.353v2.83zm0-5.129a.38.38 0 01-.354.354h-4.414c-.177 0-.353-.177-.353-.354v-2.83c0-.177.176-.354.353-.354h4.414a.38.38 0 01.354.354v2.83zm0-5.13a.38.38 0 01-.354.354h-4.414c-.177 0-.353-.177-.353-.354v-2.83c0-.177.176-.354.353-.354h4.414a.38.38 0 01.354.354v2.83zm0-11.143v6.014c0 .177-.177.353-.354.353h-4.414a.379.379 0 01-.353-.353v-.885c.53-.884 3.178-3.891 4.238-5.306l.176-.177s.177-.177.353-.177c.177 0 .354.177.354.531zm6.886 21.402c0 .177-.177.354-.353.354h-4.415c-.176 0-.353-.177-.353-.354v-2.83a.38.38 0 01.353-.353h4.415a.38.38 0 01.353.353v2.83zm0-5.129c0 .177-.177.354-.353.354h-4.415c-.176 0-.353-.177-.353-.354v-2.83c0-.177.177-.354.353-.354h4.415c.176 0 .353.177.353.354v2.83zm0-5.13c0 .177-.177.354-.353.354h-4.415c-.176 0-.353-.177-.353-.354v-2.83c0-.177.177-.354.353-.354h4.415c.176 0 .353.177.353.354v2.83zm0-4.952c0 .176-.177.353-.353.353h-4.415c-.176 0-.353-.177-.353-.353v-2.831c0-.176.177-.353.353-.353h4.415c.176 0 .353.177.353.353v2.831zm0-5.13c0 .177-.177.354-.353.354h-4.415c-.176 0-.353-.177-.353-.354v-2.83c0-.177.177-.354.353-.354h4.415c.176 0 .353.177.353.354v2.83zM7.239 12.205v3.538l2.472-2.477v15.566h3.355V8.49h-2.648l-3.179 3.715zm7.77 0v3.538l2.472-2.477v15.566h3.531V8.49h-2.825l-3.178 3.715zm12.889 2.83v-1.061h1.236v1.238c0 .53.177.707.707.707.353 0 .706-.353.706-.707v-.354c0-.531-.177-.707-.706-1.238l-.883-.885c-.707-.707-1.236-1.238-1.236-2.299v-.354c0-1.061.529-1.945 1.942-1.945s1.942.707 1.942 1.945v.708H30.37v-.708c0-.53-.176-.707-.706-.707-.353 0-.706.177-.706.707v.177c0 .531.176.708.706 1.061l.883.885c.706.884 1.059 1.238 1.059 2.122v.354c0 1.238-.529 1.946-2.119 1.946-1.059.354-1.589-.531-1.589-1.592zm9.006-6.545v6.368c0 1.238-.53 2.123-2.119 2.123-1.589 0-2.119-.885-2.119-2.123V8.49h1.413v6.545c0 .531.176.884.706.884s.706-.353.706-.884V8.49h1.413zm.53 6.545v-1.061h1.412v1.238c0 .53.177.707.706.707.354 0 .707-.353.707-.707v-.354c0-.531-.177-.707-.707-1.238l-.882-.885c-.883-.707-1.236-1.238-1.236-2.299v-.354c0-1.061.529-1.945 1.942-1.945 1.412 0 1.942.707 1.942 1.945v.708h-1.236v-.708c0-.53-.176-.707-.706-.707-.353 0-.706.177-.706.707v.177c0 .531.353.708.706 1.061l.883.885c.706.884 1.059 1.238 1.059 2.122v.354c0 1.238-.706 1.946-2.119 1.946-1.412 0-1.765-.531-1.765-1.592zm4.237-6.545h3.885v1.062h-1.237v7.429h-1.412V9.552h-1.236V8.49zm3.708 8.491l1.589-8.491h1.589l1.589 8.491h-1.412l-.177-1.592h-1.589l-.177 1.592h-1.412zm1.766-2.653h1.059l-.53-3.538-.529 3.538z" fill="#fff" fill-rule="evenodd"/><path d="M51.913 8.49h-1.236v8.491h1.236V8.49z" fill="#fff"/><path d="M53.855 11.674v5.307h-1.059V8.49h1.412l1.413 4.776V8.49h1.236v8.491h-1.236l-1.766-5.307zm3.355 5.307l1.589-8.491h1.589l1.589 8.491h-1.412l-.177-1.592h-1.589l-.176 1.592H57.21zm1.766-2.653h1.059l-.53-3.538-.529 3.538zm3.531-5.838h2.119c1.412 0 1.942.708 1.942 1.769v.885c0 .707-.353 1.238-.883 1.415.706.177 1.06.707 1.06 1.415v1.061c0 1.238-.53 1.769-1.943 1.769h-2.295V8.49zm1.412 3.538h.53c.53 0 .706-.177.706-.707v-1.062c0-.53-.176-.707-.706-.707h-.53v2.476zm0 1.061v2.654h.707c.529 0 .706-.177.706-.708v-1.238c0-.531-.177-.708-.706-.708h-.707zm3.532-4.599h1.413v7.253h1.765v1.238h-3.178V8.49zm3.531 0h3.355v1.062h-1.942v2.476h1.413v1.238h-1.413v2.477h1.942v1.238h-3.355V8.49zm5.297 6.191v-4.068c0-1.415.53-2.3 2.119-2.3 1.589 0 1.942.885 1.942 2.123v1.061h-1.236v-1.061c0-.531-.176-.884-.706-.884s-.706.353-.706.884v4.599c0 .531.176.884.706.884s.706-.353.706-.884v-1.592h1.236v1.415c0 1.238-.529 2.123-1.942 2.123-1.589 0-2.119-1.062-2.119-2.3z" fill="#fff" fill-rule="evenodd"/><path d="M82.284 8.49h-1.413v8.491h1.413V8.49z" fill="#fff"/><path d="M82.989 8.49h3.885v1.062h-1.236v7.429h-1.413V9.552h-1.236V8.49z" fill="#fff" fill-rule="evenodd"/><path d="M88.64 8.49h-1.412v8.491h1.412V8.49z" fill="#fff"/><path d="M89.346 8.49h3.531v1.062h-2.119v2.476h1.413v1.238h-1.413v2.477h2.119v1.238h-3.531V8.49zm4.061 6.545v-1.061h1.236v1.238c0 .53.177.707.706.707.354 0 .707-.353.707-.707v-.354c0-.531-.177-.707-.707-1.238l-.883-.885c-.882-.707-1.236-1.238-1.236-2.299v-.354c0-1.061.53-1.945 1.943-1.945 1.412 0 1.942.707 1.942 1.945v.708h-1.236v-.708c0-.53-.176-.707-.706-.707-.353 0-.707.177-.707.707v.177c0 .531.177.708.707 1.061l.883.885c.706.884 1.059 1.238 1.059 2.122v.354c0 1.238-.706 1.946-2.119 1.946-1.412 0-1.589-.531-1.589-1.592zM27.722 28.832l1.589-8.491H30.9l1.589 8.491h-1.412L30.9 27.24h-1.589l-.177 1.592h-1.412zm1.765-2.653h1.236l-.529-3.361-.707 3.361zm4.769-2.654v5.307H33.02v-8.491h1.412l1.589 4.776v-4.776h1.236v8.491h-1.236l-1.765-5.307zm7.945-.884v3.891c0 1.239-.53 2.3-2.119 2.3h-2.119v-8.491h2.119c1.589 0 2.119.885 2.119 2.3zm-2.296 4.953c.53 0 .883-.354.883-.885v-4.422c0-.53-.177-.884-.883-.884h-.53v6.191h.53zm4.239-.885v-4.245c0-1.415.706-2.3 2.118-2.3 1.59 0 2.119.885 2.119 2.123v1.061h-1.412v-1.061c0-.531-.177-.884-.707-.884-.529 0-.706.353-.706.884v4.599c0 .531.177.884.706.884.53 0 .707-.353.707-.884v-1.592h1.412v1.415c0 1.238-.529 2.123-2.119 2.123-1.589.177-2.118-.885-2.118-2.123zm4.767 0v-4.245c0-1.415.706-2.3 2.119-2.3s2.119 1.062 2.119 2.3v4.245c0 1.415-.706 2.3-2.119 2.3s-2.119-1.062-2.119-2.3zm2.825.177v-4.599c0-.531-.176-.884-.706-.884s-.706.353-.706.884v4.599c0 .531.176.884.706.884s.706-.353.706-.884zm6.003-3.538l-.883 5.484h-.706l-1.059-5.484v5.484h-1.237v-8.491h1.59l1.059 4.776.706-4.776h1.943v8.491h-1.413v-5.484zm6.004 0l-1.06 5.484h-.706l-1.059-5.484v5.484h-1.236v-8.491h1.765l.883 4.776.883-4.776h1.766v8.491h-1.236v-5.484zm6.18-3.007v6.545c0 1.415-.529 2.123-2.119 2.123-1.589 0-2.118-.885-2.118-2.123v-6.545h1.412v6.722c0 .531.177.884.706.884.53 0 .707-.353.707-.884v-6.722h1.412zm1.943 3.184v5.307H70.63v-8.491h1.412l1.59 4.776v-4.776h1.236v8.491h-1.413l-1.589-5.307z" fill="#fff" fill-rule="evenodd"/><path d="M76.632 20.341h-1.236v8.491h1.236v-8.491z" fill="#fff"/><path d="M77.339 20.341h3.884v1.239h-1.236v7.252h-1.412V21.58h-1.236v-1.239z" fill="#fff" fill-rule="evenodd"/><path d="M82.99 20.341h-1.413v8.491h1.413v-8.491z" fill="#fff"/><path d="M83.696 20.341h3.532v1.239h-1.943v2.299h1.413v1.238h-1.413v2.477h1.943v1.238h-3.532v-8.491zm4.061 6.722v-1.238h1.236v1.238c0 .531.176.708.706.708.353 0 .706-.354.706-.708v-.354c0-.53-.176-.884-.706-1.238l-.883-.884c-.706-.885-1.236-1.238-1.236-2.3v-.353c0-1.062.53-1.946 1.942-1.946 1.413 0 1.943.707 1.943 1.946v.707h-1.236v-.707c0-.531-.177-.708-.707-.708-.353 0-.706.177-.706.708v.176c0 .531.177.708.706 1.239l.883.884c.707.884 1.06 1.238 1.06 2.299v.354c0 1.238-.707 1.946-2.119 1.946-1.413 0-1.589-.708-1.589-1.769z" fill="#fff" fill-rule="evenodd"/><path fill="#566e78" d="M25 0h73v39H25z"/><path d="M28.078 10.266l.371 1.05 1.188-3.004h1.195l-2.023 4.61a3.126 3.126 0 01-.239.441 1.532 1.532 0 01-.765.625c-.17.063-.369.094-.598.094-.185 0-.349-.016-.492-.047a6.187 6.187 0 01-.344-.078l.07-.859.121.035.153.031a1.431 1.431 0 00.644-.004.798.798 0 00.243-.109.67.67 0 00.168-.168.963.963 0 00.113-.227l.109-.242-1.984-4.102h1.187l.883 1.954zm7.188 1.953a2.148 2.148 0 01-.188.773 1.775 1.775 0 01-1.055.961 2.43 2.43 0 01-.812.129c-.336 0-.634-.061-.895-.184a1.863 1.863 0 01-.656-.519 2.392 2.392 0 01-.406-.805 3.565 3.565 0 01-.141-1.031v-.766c0-.377.05-.722.149-1.035.099-.312.239-.581.422-.804.182-.224.402-.398.66-.52.26-.125.552-.188.875-.188.312 0 .59.045.832.133.245.089.453.215.625.379s.307.365.406.602.161.504.188.801h-1.094a1.858 1.858 0 00-.078-.446.795.795 0 00-.176-.316.687.687 0 00-.289-.192 1.16 1.16 0 00-.414-.066c-.17 0-.317.036-.442.109s-.229.18-.312.321c-.081.14-.141.313-.18.519a3.718 3.718 0 00-.058.696v.773c0 .56.078.974.234 1.242.159.268.409.403.75.403.286 0 .513-.076.68-.227.166-.154.259-.401.277-.742h1.098zm5.035-3.012h-1.754V14h-1.102V9.207h-1.73v-.895h4.586v.895zm4.594 2.367c0 .365-.049.701-.145 1.008s-.236.572-.418.793-.405.395-.668.52c-.26.122-.555.183-.883.183-.328 0-.62-.061-.875-.183a1.842 1.842 0 01-.644-.52 2.376 2.376 0 01-.399-.793 3.535 3.535 0 01-.136-1.008v-.828c0-.364.045-.7.136-1.008.091-.307.224-.571.399-.793a1.83 1.83 0 01.64-.523c.256-.125.547-.188.875-.188.331 0 .627.063.887.188a1.9 1.9 0 01.668.523c.182.222.322.486.418.793.096.308.145.644.145 1.008v.828zm-1.114-.836c0-.231-.019-.445-.058-.64a1.59 1.59 0 00-.176-.504.898.898 0 00-.313-.328.822.822 0 00-.457-.121.777.777 0 00-.734.449c-.073.14-.125.308-.156.504a3.974 3.974 0 00-.047.64v.836c0 .229.015.442.047.637.031.195.083.365.156.508a.874.874 0 00.289.336c.12.08.27.121.449.121a.823.823 0 00.453-.121.907.907 0 00.309-.332c.081-.144.141-.313.18-.508.039-.195.058-.409.058-.641v-.836zm4.582-2.426h1.102V14h-1.102v-3.629L46.75 14h-1.098V8.312h1.098v3.633l1.613-3.633zm.496-1.48c0 .169-.031.324-.093.465a.983.983 0 01-.266.363 1.292 1.292 0 01-.418.235 1.757 1.757 0 01-.551.082c-.205 0-.39-.028-.554-.082a1.324 1.324 0 01-.422-.235 1.042 1.042 0 01-.266-.363 1.176 1.176 0 01-.09-.465h.781c0 .068.01.134.028.199a.471.471 0 00.097.168.492.492 0 00.168.113.683.683 0 00.258.043.633.633 0 00.25-.043.425.425 0 00.262-.281.641.641 0 00.031-.199h.785zm5.536 1.48V14h-1.102v-2.168a5.048 5.048 0 01-.211.051 5.538 5.538 0 01-.219.035c-.07.008-.139.014-.207.02a2.61 2.61 0 01-.937-.098 1.516 1.516 0 01-.582-.336 1.521 1.521 0 01-.371-.578 2.476 2.476 0 01-.129-.844v-1.77h1.097v1.77c0 .19.015.348.043.473a.748.748 0 00.141.3.525.525 0 00.234.157c.094.028.205.043.332.043.052 0 .111-.002.176-.004.065-.005.133-.012.203-.02.073-.01.146-.022.219-.035s.143-.029.211-.047V8.312h1.102zm3.578 0h1.101V14h-1.101v-3.629L56.359 14h-1.097V8.312h1.097v3.633l1.614-3.633zM60.137 14V8.312h1.91c.31 0 .591.032.844.094.255.063.472.158.652.285.18.128.318.289.414.485.099.195.148.426.148.691a1.282 1.282 0 01-.214.715 1.276 1.276 0 01-.614.48c.164.042.306.105.426.188s.219.182.297.297c.081.112.139.236.176.371.039.133.058.271.058.414 0 .273-.046.514-.14.723a1.395 1.395 0 01-.403.523 1.759 1.759 0 01-.636.317c-.25.07-.532.105-.844.105h-2.074zm1.101-2.508v1.621h.977c.299-.002.527-.075.683-.218a.739.739 0 00.239-.571c.002-.26-.068-.463-.211-.609-.143-.146-.365-.22-.664-.223h-1.024zm0-.793h.817c.304-.002.539-.066.703-.191s.247-.309.25-.551c0-.266-.082-.456-.246-.57-.164-.117-.401-.177-.711-.18h-.813v1.492zm4.586-.074h.246c.237 0 .447.04.629.121.183.078.335.19.457.336.125.146.219.322.282.527.065.203.097.431.097.684 0 .25-.035.48-.105.691-.068.209-.17.388-.305.539s-.302.269-.5.352-.426.125-.684.125h-1.214V8.312h1.097v2.313zM68.938 14H67.84V8.312h1.098V14zm-3.114-2.527v1.683h.18a.308.308 0 00.199-.066.496.496 0 00.137-.188c.036-.08.062-.173.078-.277a2.3 2.3 0 000-.66.91.91 0 00-.078-.258.449.449 0 00-.133-.172.323.323 0 00-.203-.062h-.18zm7.43.035h-2.336v1.605h2.73V14h-3.832V8.312h3.821v.895h-2.719v1.434h2.336v.867zM30.23 18.203h-2.582V23h-1.097v-5.688h3.679v.891zm5.055 2.371c0 .365-.048.701-.144 1.008a2.343 2.343 0 01-.418.793 1.936 1.936 0 01-.668.52c-.261.122-.555.183-.883.183s-.62-.061-.875-.183a1.855 1.855 0 01-.645-.52 2.393 2.393 0 01-.398-.793 3.535 3.535 0 01-.137-1.008v-.828c0-.364.046-.7.137-1.008.091-.307.224-.571.398-.793.175-.224.388-.398.641-.523.255-.125.547-.188.875-.188.331 0 .626.063.887.188.263.125.485.299.668.523.182.222.321.486.418.793.096.308.144.644.144 1.008v.828zm-1.113-.836c0-.231-.02-.445-.059-.64a1.59 1.59 0 00-.175-.504.898.898 0 00-.313-.328.822.822 0 00-.457-.121.774.774 0 00-.734.449 1.67 1.67 0 00-.157.504 4.092 4.092 0 00-.047.64v.836c0 .229.016.442.047.637.032.195.084.365.157.508a.874.874 0 00.289.336c.119.08.269.121.449.121a.823.823 0 00.453-.121.916.916 0 00.309-.332c.08-.144.14-.313.179-.508.039-.195.059-.409.059-.641v-.836zm3.117 1.176V23h-1.098v-5.688h1.946c.31 0 .59.046.84.137.25.089.462.214.636.375.177.159.313.35.407.574.096.224.144.473.144.747 0 .255-.048.49-.144.707-.094.216-.23.403-.407.562a1.871 1.871 0 01-.636.367c-.25.089-.53.133-.84.133h-.848zm0-.891h.848c.156 0 .291-.023.406-.07a.798.798 0 00.457-.469.956.956 0 00.059-.332c0-.132-.02-.256-.059-.371a.805.805 0 00-.457-.504 1.029 1.029 0 00-.406-.074h-.848v1.82zm7.606.551c0 .365-.049.701-.145 1.008s-.236.572-.418.793-.405.395-.668.52c-.26.122-.555.183-.883.183-.328 0-.62-.061-.875-.183a1.842 1.842 0 01-.644-.52 2.376 2.376 0 01-.399-.793 3.535 3.535 0 01-.136-1.008v-.828c0-.364.045-.7.136-1.008.091-.307.224-.571.399-.793a1.83 1.83 0 01.64-.523c.256-.125.547-.188.875-.188.331 0 .627.063.887.188a1.9 1.9 0 01.668.523c.182.222.322.486.418.793.096.308.145.644.145 1.008v.828zm-1.114-.836c0-.231-.019-.445-.058-.64a1.59 1.59 0 00-.176-.504.898.898 0 00-.313-.328.822.822 0 00-.457-.121.777.777 0 00-.734.449c-.073.14-.125.308-.156.504a3.974 3.974 0 00-.047.64v.836c0 .229.015.442.047.637.031.195.083.365.156.508a.874.874 0 00.289.336c.12.08.27.121.449.121a.823.823 0 00.453-.121.907.907 0 00.309-.332c.081-.144.141-.313.18-.508.039-.195.058-.409.058-.641v-.836zm5.809 4.66h-.945V23h-2.153v1.398h-.926l-.171-2.281h.21a.964.964 0 00.313-.262c.089-.112.163-.263.223-.453.06-.192.108-.431.144-.714.037-.287.063-.636.078-1.047l.157-2.329h2.808v4.805h.418l-.156 2.281zm-2.125-4.757c-.013.304-.033.58-.059.828a6.813 6.813 0 01-.094.676c-.039.2-.084.381-.136.543a3.42 3.42 0 01-.172.429h1.23v-3.914h-.675l-.094 1.438zm5.867 2.171h-1.707L51.289 23h-1.156l1.863-5.688h.996L54.82 23h-1.156l-.332-1.188zm-1.437-.933h1.179l-.582-2.094-.597 2.094zm10.882-3.567h1.102V23h-1.102v-3.629L61.164 23h-1.098v-5.688h1.098v3.633l1.613-3.633zM73.508 23h-1.086v-2.465h-1.61V23h-1.089v-5.688h1.089v2.333h1.61v-2.333h1.086V23zm3.847-1.188h-1.707L75.312 23h-1.156l1.864-5.688h.996L78.844 23h-1.156l-.333-1.188zm-1.437-.933h1.18l-.582-2.094-.598 2.094zm7.394.34c-.018.286-.08.544-.187.773a1.775 1.775 0 01-1.055.961 2.431 2.431 0 01-.812.129c-.336 0-.634-.061-.895-.184a1.863 1.863 0 01-.656-.519 2.392 2.392 0 01-.406-.805 3.565 3.565 0 01-.141-1.031v-.766c0-.377.05-.722.149-1.035a2.41 2.41 0 01.421-.804c.183-.224.403-.398.661-.52.26-.125.552-.188.875-.188.312 0 .589.045.832.133.244.089.453.215.625.379s.307.365.406.602.161.504.187.801h-1.093a1.858 1.858 0 00-.078-.446.808.808 0 00-.176-.316.687.687 0 00-.289-.192 1.16 1.16 0 00-.414-.066c-.17 0-.317.036-.442.109s-.229.18-.312.321c-.081.14-.141.313-.18.519a3.712 3.712 0 00-.059.696v.773c0 .56.079.974.235 1.242.159.268.409.403.75.403.286 0 .513-.076.68-.227.166-.154.259-.401.277-.742h1.097zm4.356-.711h-2.336v1.605h2.73V23H84.23v-5.688h3.821v.895h-2.719v1.434h2.336v.867zm5.148.422h-3.254v-.879h3.254v.879zm-62.507 5.382V32h-1.102v-4.797h-1.176l-.019 2.086a7.02 7.02 0 01-.117 1.262 2.627 2.627 0 01-.297.84 1.191 1.191 0 01-.489.464 1.516 1.516 0 01-.683.145h-.274v-.883h.157a.557.557 0 00.304-.113.621.621 0 00.18-.305c.044-.14.074-.324.09-.551.015-.229.026-.515.031-.859l.024-2.977h3.371zm4.507 3.196H32.48v1.605h2.731V32h-3.832v-5.688h3.82v.895H32.48v1.434h2.336v.867zM39.875 32h-1.086v-2.465H37.18V32h-1.09v-5.688h1.09v2.333h1.609v-2.333h1.086V32zm4.805 0h-1.086v-2.465h-1.61V32h-1.089v-5.688h1.089v2.333h1.61v-2.333h1.086V32zm1.925-3.375h.247c.237 0 .446.04.628.121.183.078.335.19.458.336.124.146.218.322.281.527.065.203.097.431.097.684 0 .25-.035.48-.105.691a1.473 1.473 0 01-.305.539 1.374 1.374 0 01-.5.352 1.756 1.756 0 01-.683.125h-1.215v-5.688h1.097v2.313zM49.719 32h-1.098v-5.688h1.098V32zm-3.114-2.527v1.683h.18a.306.306 0 00.199-.066.485.485 0 00.137-.188 1 1 0 00.078-.277 2.297 2.297 0 000-.66.85.85 0 00-.078-.258.449.449 0 00-.133-.172.32.32 0 00-.203-.062h-.18zm7.43.035h-2.336v1.605h2.731V32h-3.832v-5.688h3.82v.895h-2.719v1.434h2.336v.867zM63.91 32h-1.098v-4.797h-1.609V32h-1.098v-5.688h3.805V32zm2.606-3.734l.371 1.05 1.187-3.004h1.196l-2.024 4.61a3.118 3.118 0 01-.238.441 1.575 1.575 0 01-.324.371 1.432 1.432 0 01-.442.254 1.709 1.709 0 01-.597.094c-.185 0-.349-.016-.493-.047a6.126 6.126 0 01-.343-.078l.07-.859.121.035.152.031a1.433 1.433 0 00.645-.004.791.791 0 00.242-.109.64.64 0 00.168-.168.892.892 0 00.113-.227l.11-.242-1.985-4.102h1.188l.883 1.954zM73.508 32h-1.086v-2.465h-1.61V32h-1.089v-5.688h1.089v2.333h1.61v-2.333h1.086V32zm2.683-2.336h-.457V32h-1.097v-5.688h1.097v2.504h.27l1.488-2.504h1.27l-1.696 2.739L78.828 32h-1.273l-1.364-2.336zm7.352-2.457h-1.754V32h-1.101v-4.793h-1.731v-.895h4.586v.895zm1.5 1.418h.246c.237 0 .447.04.629.121.182.078.335.19.457.336.125.146.219.322.281.527.065.203.098.431.098.684 0 .25-.035.48-.106.691a1.47 1.47 0 01-.304.539 1.382 1.382 0 01-.5.352 1.757 1.757 0 01-.684.125h-1.215v-5.688h1.098v2.313zM88.156 32h-1.097v-5.688h1.097V32zm-3.113-2.527v1.683h.18a.308.308 0 00.199-.066.496.496 0 00.137-.188c.036-.08.062-.173.078-.277a2.445 2.445 0 000-.66.91.91 0 00-.078-.258.459.459 0 00-.133-.172.325.325 0 00-.203-.062h-.18z" fill="#fff"/></g></svg>