<svg data-name="Layer 1" xmlns="http://www.w3.org/2000/svg" width="101" height="101"><path d="M101.285 0h-101v101h101V0z" fill="#566e78"/><path d="M59.894 66.745H41.321c-.177 0-.177.176-.177.176v5.474q0 .177.177.177h18.573c.177 0 .177-.177.177-.177v-5.474s0-.176-.177-.176zm0-11.831H41.321c-.177 0-.177.177-.177.177v5.474q0 .176.177.176h18.573c.177 0 .177-.176.177-.176v-5.474q0-.177-.177-.177zm-.354-8.652l-8.844-8.828h-.177l-8.844 8.828c-.177.177 0 .353 0 .353h17.688c.177 0 .354-.176.177-.353zm8.491 26.486l9.021-9.005v-.177l-9.02-9.005c0-.176-.354 0-.354.177v17.834c0 .353.176.353.353.176zm-26.356 8.476l8.844 8.828h.177l8.844-8.828c0-.177 0-.353-.177-.353H41.675s-.177.176 0 .353zm-8.313-26.486l-9.021 9.005v.177l9.02 9.005c.178.176.178 0 .178-.177v-18.01s-.177-.177-.177 0zM9.837 13.243v15.539h3.537V8.476h-2.83L7.36 12.184v3.531h.177l2.3-2.472zm16.096 10.241v-9.711c0-3.179-1.592-5.474-5.13-5.474-3.537 0-5.13 2.295-5.13 5.474v9.888c0 3.178 1.593 5.474 5.13 5.474 3.538-.177 5.13-2.472 5.13-5.651zm-6.722.53V13.243c0-1.236.53-2.119 1.592-2.119 1.238 0 1.592.883 1.592 2.119V24.19c0 1.237-.354 2.119-1.592 2.119-1.238-.176-1.592-1.059-1.592-2.295zm15.036-10.948v3.885h-1.415V8.476h2.122c1.415 0 1.946.706 1.946 1.942v1.059c0 .883-.354 1.413-1.238 1.589l1.415 3.885h-1.415l-1.415-3.885zm0-3.354v2.648h.53c.531 0 .708-.176.708-.706v-1.413c0-.529-.177-.706-.708-.706h-.53v.177zm3.36-1.236h3.538v1.236h-2.123v2.295h1.592v1.236h-1.592v2.472h2.123v1.236h-3.538V8.476zm8.491 2.295v3.885c0 1.236-.531 2.295-2.123 2.295h-2.123V8.476h2.123c1.592 0 2.123.882 2.123 2.295zm-2.3 4.944c.53 0 .884-.353.884-.883v-4.414c0-.53-.176-.883-.884-.883h-.53v6.18h.53zm7.429-7.239v6.533c0 1.412-.53 2.119-2.122 2.119-1.592 0-2.123-.883-2.123-2.119V8.476h1.415v6.709c0 .53.177.883.708.883.53 0 .707-.353.707-.883V8.476h1.415zm.707 6.356v-4.061c0-1.413.531-2.295 2.123-2.295s1.946.882 1.946 2.118v1.06h-1.239v-1.236c0-.53-.176-.883-.707-.883-.53 0-.708.353-.708.883v4.591c0 .53.177.883.708.883.53 0 .707-.353.707-.883v-1.413h1.239v1.413c0 1.236-.53 2.119-1.946 2.119-1.415 0-2.123-.883-2.123-2.296zm4.953-6.356h3.361v1.236h-1.945v2.295h1.415v1.236h-1.415v2.472h1.945v1.236h-3.36V8.476zm8.491 2.295v3.885c0 1.236-.53 2.295-2.123 2.295h-2.122V8.476h2.122c1.592 0 2.123.882 2.123 2.295zm-2.3 4.944c.531 0 .885-.353.885-.883v-4.414c0-.53-.177-.883-.885-.883h-.53v6.18h.53z" fill="#fff" fill-rule="evenodd"/><path d="M34.07 20.482h-1.238v8.476h1.238v-8.476z" fill="#fff"/><path d="M36.192 23.661v5.297h-1.238v-8.476h1.592l1.592 4.945v-4.945h1.061v8.476h-1.238l-1.769-5.297zm3.892-3.179h3.36v1.236H41.5v2.473h1.415v1.059H41.5v2.649h1.946v1.059h-3.361v-8.476zm5.66 9.006v-.53c-1.061-.177-1.592-1.059-1.592-2.295v-4.062c0-1.412.708-2.295 2.123-2.295s2.122.883 2.122 2.295v4.062c0 .882-.353 1.589-1.06 1.942l1.06.176v1.237l-2.653-.53zm1.238-2.472v-4.591c0-.53-.177-.883-.707-.883s-.708.353-.708.883v4.591c0 .529.177.883.708.883.53 0 .707-.354.707-.883zm6.544-6.534v6.357c0 1.236-.53 2.119-2.122 2.119-1.592 0-2.123-.883-2.123-2.119v-6.357h1.415v6.534c0 .529.177.883.708.883.53 0 .707-.354.707-.883v-6.534h1.415zm.354 8.476l1.593-8.476h1.592l1.592 8.476H57.24l-.176-1.589h-1.416l-.176 1.589H53.88zm1.77-2.649h1.06l-.53-3.354-.53 3.354zm3.537-5.827h1.415v7.417h1.77v1.059h-3.185v-8.476z" fill="#fff" fill-rule="evenodd"/><path d="M64.493 20.482h-1.415v8.476h1.415v-8.476z" fill="#fff"/><path d="M65.201 20.482h3.714v1.236h-1.06v7.24h-1.416v-7.24h-1.238v-1.236z" fill="#fff" fill-rule="evenodd"/><path d="M71.038 20.482h-1.415v8.476h1.415v-8.476z" fill="#fff"/><path d="M71.923 20.482h3.36v1.236h-1.945v2.473h1.415v1.059h-1.415v2.649h1.945v1.059h-3.36v-8.476zm4.068 6.534v-1.06h1.238v1.236c0 .53.177.707.708.707.354 0 .707-.354.707-.707v-.353c0-.53-.176-.883-.707-1.236l-.885-.883c-.884-.883-1.238-1.236-1.238-2.295v-.353c0-1.06.53-1.943 1.946-1.943 1.415 0 1.946.707 1.946 1.943v.883h-1.239v-.707c0-.529-.176-.706-.707-.706-.354 0-.708.177-.708.706v.177c0 .53.177.706.708 1.059l.884.883c.708.706 1.062 1.236 1.062 2.119v.353c0 1.236-.53 1.942-2.123 1.942-1.061.177-1.592-.529-1.592-1.765z" fill="#fff" fill-rule="evenodd"/><path fill="#566e78" d="M29.285 4h58v33h-58z"/><path d="M32.363 10.266l.371 1.05 1.188-3.004h1.195l-2.023 4.61a3.07 3.07 0 01-.239.441 1.552 1.552 0 01-.324.371 1.426 1.426 0 01-.441.254c-.17.063-.369.094-.598.094a2.34 2.34 0 01-.492-.047 6.145 6.145 0 01-.344-.078l.07-.859.121.035.153.031a1.426 1.426 0 00.645-.004.793.793 0 00.242-.109.646.646 0 00.167-.168.916.916 0 00.114-.227l.11-.242-1.985-4.102h1.187l.883 1.954zm4.586-1.954l.54 2.137.612-2.137h1.364V14h-1.008v-1.684l.047-2.66-.746 2.469h-.543l-.668-2.363.047 2.554V14h-1.008V8.312h1.363zm6.957 3.196H41.57v1.605h2.73V14h-3.83V8.312h3.82v.895h-2.72v1.434h2.336v.867zM48.965 14h-1.086v-2.465h-1.61V14h-1.09V8.312h1.09v2.333h1.61V8.312h1.086V14zm2.152-3.586h.64c.329 0 .623.043.883.129.263.083.485.202.664.355.183.154.322.34.418.559s.145.461.145.727c0 .27-.048.518-.145.742a1.592 1.592 0 01-.418.57c-.18.159-.4.283-.664.371-.26.089-.554.133-.882.133h-1.743V8.312h1.102v2.102zm0 .883v1.82h.64c.172 0 .321-.025.446-.074a.879.879 0 00.316-.203.772.772 0 00.188-.301c.041-.115.062-.236.062-.363a.938.938 0 00-.062-.344.688.688 0 00-.188-.277.84.84 0 00-.316-.188 1.266 1.266 0 00-.445-.07h-.641zm4.578-2.985v4.805h.547V8.312h1.035v4.805h.54V8.312h1.066V14h-4.258V8.312h1.07zm7.43 3.196h-2.336v1.605h2.73V14h-3.832V8.312h3.82v.895H60.79v1.434h2.336v.867zM68.183 14h-1.086v-2.465h-1.609V14h-1.09V8.312h1.09v2.333h1.61V8.312h1.085V14zm3.684-5.688h1.102V14h-1.102v-3.629L70.254 14h-1.098V8.312h1.098v3.633l1.613-3.633zm5.672 3.196h-2.336v1.605h2.73V14h-3.832V8.312h3.82v.895h-2.718v1.434h2.336v.867zM34.55 23h-1.086v-2.465h-1.61V23h-1.09v-5.688h1.09v2.333h1.61v-2.333h1.086V23zm4.55-2.492h-2.336v1.605h2.73V23h-3.831v-5.688h3.82v.895h-2.719v1.434H39.1v.867zm2.473.406V23h-1.098v-5.688h1.946c.31 0 .59.046.84.137.25.089.462.214.636.375.177.159.313.35.406.574.097.224.145.473.145.747 0 .255-.048.49-.145.707a1.598 1.598 0 01-.406.562 1.88 1.88 0 01-.636.367c-.25.089-.53.133-.84.133h-.848zm0-.891h.848c.156 0 .291-.023.406-.07a.807.807 0 00.285-.191.75.75 0 00.172-.278.953.953 0 00.059-.332c0-.132-.02-.256-.059-.371a.81.81 0 00-.457-.504 1.028 1.028 0 00-.406-.074h-.848v1.82zm6.434 1.789H46.3L45.965 23h-1.157l1.864-5.688h.996L49.496 23H48.34l-.332-1.188zm-1.438-.933h1.18l-.582-2.094-.598 2.094zM50.008 23v-5.688h1.91c.31 0 .591.032.844.094.255.063.472.158.652.285.18.128.318.289.414.485.099.195.148.426.148.691a1.283 1.283 0 01-.214.715 1.276 1.276 0 01-.614.48c.164.042.306.105.426.188s.219.182.297.297c.08.112.14.236.176.371a1.763 1.763 0 01-.082 1.137 1.397 1.397 0 01-.403.523 1.766 1.766 0 01-.636.317 3.13 3.13 0 01-.844.105h-2.074zm1.101-2.508v1.621h.977c.3-.002.527-.075.683-.218a.74.74 0 00.239-.571c.002-.26-.068-.463-.211-.609-.144-.146-.365-.22-.664-.223h-1.024zm0-.793h.817c.304-.002.539-.066.703-.191.164-.125.247-.309.25-.551 0-.266-.082-.456-.246-.57-.164-.117-.401-.177-.711-.18h-.813v1.492zm7.211.809h-2.336v1.605h2.73V23h-3.831v-5.688h3.82v.895h-2.719v1.434h2.336v.867zM63.38 23h-1.086v-2.465h-1.61V23h-1.09v-5.688h1.09v2.333h1.61v-2.333h1.086V23zm5-1.781a2.148 2.148 0 01-.188.773 1.774 1.774 0 01-1.054.961 2.438 2.438 0 01-.813.129c-.336 0-.634-.061-.895-.184a1.861 1.861 0 01-.656-.519 2.386 2.386 0 01-.406-.805 3.575 3.575 0 01-.14-1.031v-.766c0-.377.049-.722.148-1.035.099-.312.24-.581.422-.804a1.88 1.88 0 01.66-.52c.26-.125.552-.188.875-.188.312 0 .59.045.832.133.245.089.453.215.625.379s.307.365.406.602c.1.237.162.504.188.801H67.29a1.8 1.8 0 00-.078-.446.795.795 0 00-.176-.316.683.683 0 00-.29-.192 1.156 1.156 0 00-.413-.066c-.17 0-.317.036-.442.109s-.229.18-.312.321c-.08.14-.14.313-.18.519a3.718 3.718 0 00-.058.696v.773c0 .56.078.974.234 1.242.159.268.409.403.75.403.286 0 .513-.076.68-.227.166-.154.259-.401.277-.742h1.098zm5.035-3.012H71.66V23h-1.102v-4.793h-1.73v-.895h4.586v.895zM74.03 23v-5.688h1.91c.31 0 .591.032.844.094.255.063.473.158.652.285.18.128.318.289.414.485.1.195.149.426.149.691a1.283 1.283 0 01-.215.715 1.275 1.275 0 01-.613.48c.164.042.306.105.425.188s.22.182.297.297c.081.112.14.236.176.371a1.75 1.75 0 01-.082 1.137 1.395 1.395 0 01-.402.523 1.766 1.766 0 01-.637.317 3.13 3.13 0 01-.844.105H74.03zm1.102-2.508v1.621h.976c.3-.002.528-.075.684-.218a.739.739 0 00.238-.571c.003-.26-.068-.463-.21-.609-.144-.146-.365-.22-.665-.223h-1.023zm0-.793h.816c.305-.002.54-.066.703-.191.164-.125.248-.309.25-.551 0-.266-.082-.456-.246-.57-.164-.117-.4-.177-.71-.18h-.813v1.492zm6.507 2.113h-1.707L79.597 23h-1.156l1.863-5.688h.997L83.129 23h-1.157l-.332-1.188zm-1.437-.933h1.18l-.582-2.094-.598 2.094z" fill="#fff"/></svg>