<svg data-name="Layer 1" xmlns="http://www.w3.org/2000/svg" width="101" height="101"><path d="M101 0H.152v101H101V0z" fill="#566e78"/><path d="M42.54 68.277c.176 0 .176.177.176.177v7.429c0 .177-.176.177-.176.177h-3.002c-.178 0-.178-.177-.178-.177v-7.429c0-.177.178-.177.178-.177h3.002zm32.85 10.789H26.293c-.177 0-.177.177-.177.177v3.184c0 .177.177.177.177.177h49.099c.177 0 .177-.177.177-.177v-3.184c.176 0 0-.177-.177-.177zm0 6.191H26.293c-.177 0-.177.177-.177.177v3.007c0 .177.177.177.177.177h49.099c.177 0 .177-.177.177-.177v-3.007c.176 0 0-.177-.177-.177zM66.03 60.14c-.53-.531-2.297-1.592-4.24-1.592-1.412 0-2.825.531-3.885 1.769 0 0-.177.177-.177.354v.353q0 .177.177.354c.177 0 .177.177.354 0h.176s.176 0 .176-.177c.177-.177.883-.353 1.944-.353 1.06 0 3.178.353 5.122 2.122a.544.544 0 00.352.177c.177 0 .354 0 .354-.177 1.942-1.946 4.062-2.122 5.121-2.122 1.06 0 1.767.176 1.943.353 0 0 .177.177.354.177h.353c.176 0 .354-.177.354-.354v-.176q0-.177-.178-.354c-1.235-1.061-2.648-1.769-4.062-1.769-1.943-.177-3.708.884-4.239 1.415zm-3.003-19.634c-.176 0-.176.177-.176.177v.531c0 .176.176.176.353.176h.53c.176 0 2.119 0 3.532 2.3 0 .177.177.177.353.177h.354c.706-.354 1.413-.531 2.119-.531 1.236 0 2.12.531 2.296.708 0 0 0 .177.177.177h.352c.178 0 .178-.177.178-.177v-.531c-.884-1.592-2.296-1.946-3.356-1.946-.707 0-1.413.177-1.766.354-.53-.531-1.59-1.769-3.356-1.769-.353 0-.883 0-1.59.354zm-10.42 7.606v.177q0 .177.176.354c.177 0 .177.177.354 0 .176 0 .176-.177.176-.177.177-.177.883-.354 1.943-.354.883 0 2.473.177 3.886 1.415q.176.177.353.177c.177 0 .353-.177.353-.177 1.59-1.592 3.356-1.946 4.416-1.946.706 0 1.06.177 1.235.177l.178.177h.353c.176 0 .353-.177.353-.354v-.176q0-.177-.177-.177c-1.059-.708-2.12-1.238-3.179-1.238-1.766 0-3.18.884-3.709 1.415-.53-.354-1.766-1.062-3.355-1.062-1.413 0-2.473.531-3.533 1.592.177-.177.177 0 .177.177zm-24.903 3.891c0-3.007 2.472-5.306 5.298-5.306h.353c.354-3.715 3.356-6.722 7.242-6.722 3.885 0 7.24 3.184 7.24 7.253 0 1.061-.353 2.122-.705 3.184 3.532.884 6.357 4.068 6.357 7.959 0 4.422-3.531 8.137-8.123 8.137H34.592c-3.18 0-5.651-2.476-5.651-5.66 0-1.592.53-2.831 1.589-3.892-1.59-1.238-2.826-2.83-2.826-4.953zM7.393 12.028v3.538l2.473-2.477v15.743h3.355V8.313h-2.65l-3.178 3.715zm13.952 2.653c-1.413 0-2.296.531-2.825 1.415v-5.129h5.828v-2.83H15.34v11.674h3.18v-.531c0-1.238.53-1.946 1.412-1.946 1.06 0 1.413.708 1.413 1.769v4.953c0 1.061-.353 1.769-1.413 1.769-1.236 0-1.589-.708-1.589-1.946v-2.653H15.34v2.299c0 3.184 1.237 5.13 4.769 5.13 3.356 0 4.77-1.769 4.77-4.776v-4.953c0-2.83-1.767-4.245-3.534-4.245zm10.951-6.368h1.413v7.253h1.766v1.238h-3.179V8.313z" fill="#fff" fill-rule="evenodd"/><path d="M37.418 8.313h-1.413v8.491h1.413V8.313z" fill="#fff"/><path d="M38.124 8.313h3.356v1.062h-1.943v2.476h1.59v1.061h-1.59v3.892h-1.413V8.313zm4.063 0h3.356v1.062H43.6v2.476h1.413v1.061H43.6v2.654h1.943v1.238h-3.356V8.313zm-9.891 18.219v-4.068c0-1.415.706-2.3 2.119-2.3 1.413 0 2.12 1.062 2.12 2.3v4.068c0 1.415-.707 2.3-2.12 2.3-1.59 0-2.119-1.062-2.119-2.3zm2.826.177V22.11c0-.53-.177-.884-.707-.884s-.706.354-.706.884v4.599c0 .531.176.885.706.885.353 0 .707-.354.707-.885zm3.356-3.361v5.484h-1.236v-8.668h1.413l1.766 4.953v-4.953h1.06v8.668h-1.236l-1.767-5.484zm6.534-3.184h1.413v7.43h1.766v1.238h-3.179v-8.668zm3.533 8.668l1.589-8.668h1.59l1.59 8.668H51.9l-.353-1.592h-1.59l-.176 1.592h-1.236zm1.766-2.83h1.236l-.53-3.538-.706 3.538zm4.946-2.654v5.484H54.02v-8.668h1.413l1.413 4.953v-4.953h1.237v8.668h-1.237l-1.59-5.484zm7.946-.884v4.068c0 1.415-.53 2.3-2.118 2.3h-2.12v-8.668h2.12c1.589 0 2.118.885 2.118 2.3zm-2.296 5.13c.531 0 .883-.354.883-.885V22.11c0-.53-.176-.884-.883-.884h-.53v6.368h.53z" fill="#fff" fill-rule="evenodd"/><path fill="#566e78" d="M27.656 7h51.952v22H27.656z"/><path d="M34.238 12.219a2.096 2.096 0 01-.192.773 1.773 1.773 0 01-.429.586 1.905 1.905 0 01-.645.375c-.25.086-.525.129-.828.129-.342 0-.646-.061-.91-.184a1.897 1.897 0 01-.67-.519 2.376 2.376 0 01-.413-.805 3.505 3.505 0 01-.143-1.031v-.766c0-.377.05-.722.15-1.035.102-.312.245-.581.43-.804a1.91 1.91 0 01.673-.52c.265-.125.562-.188.891-.188.32 0 .601.045.848.133.25.089.461.215.637.379.175.164.312.365.413.602.101.237.165.504.192.801h-1.115a1.733 1.733 0 00-.08-.446.791.791 0 00-.178-.316.695.695 0 00-.295-.192 1.194 1.194 0 00-.422-.066c-.172 0-.321.036-.449.109s-.234.18-.319.321a1.67 1.67 0 00-.183.519c-.04.203-.06.435-.06.696v.773c0 .56.08.974.24 1.242.161.268.416.403.763.403.293 0 .523-.076.693-.227.17-.154.264-.401.282-.742h1.119zm4.914-.645c0 .365-.05.701-.147 1.008-.099.307-.24.572-.426.793a1.968 1.968 0 01-.68.52 2.132 2.132 0 01-.9.183c-.334 0-.631-.061-.891-.183a1.884 1.884 0 01-.657-.52 2.376 2.376 0 01-.406-.793 3.474 3.474 0 01-.14-1.008v-.828c0-.364.048-.7.14-1.008a2.35 2.35 0 01.406-.793c.178-.224.395-.398.653-.523.26-.125.557-.188.891-.188a2.1 2.1 0 01.904.188c.268.125.494.299.68.523.186.222.327.486.426.793.098.308.147.644.147 1.008v.828zm-1.134-.836c0-.231-.02-.445-.06-.64a1.569 1.569 0 00-.179-.504.906.906 0 00-.318-.328.849.849 0 00-.466-.121.8.8 0 00-.453.121.847.847 0 00-.295.328c-.074.14-.127.308-.16.504a4.017 4.017 0 00-.047.64v.836c0 .229.016.442.047.637.033.195.086.365.16.508a.88.88 0 00.295.336c.121.08.274.121.457.121a.85.85 0 00.776-.453c.082-.144.143-.313.183-.508.04-.195.06-.409.06-.641v-.836zm3.947-.386l1.031-2.04h1.313l-1.632 2.821L44.35 14h-1.306l-1.063-2.07L40.922 14h-1.32l1.67-2.867-1.626-2.821h1.305l1.014 2.04zm4.123 1.562V14h-1.119V8.312h1.982c.315 0 .6.046.855.137.255.089.47.214.65.375.18.159.317.35.413.574.099.224.147.473.147.747a1.682 1.682 0 01-.56 1.269 1.93 1.93 0 01-.65.367c-.254.089-.54.133-.855.133h-.863zm0-.891h.863c.16 0 .297-.023.414-.07a.833.833 0 00.29-.191.757.757 0 00.176-.278.94.94 0 00.059-.332c0-.132-.02-.256-.06-.371a.815.815 0 00-.465-.504 1.067 1.067 0 00-.414-.074h-.863v1.82zm6.553 1.789h-1.739L50.56 14h-1.178l1.898-5.688h1.015L54.158 14h-1.179l-.338-1.188zm-1.464-.933h1.202l-.593-2.094-.609 2.094zM58.51 14h-1.106v-2.465h-1.639V14h-1.11V8.312h1.11v2.333h1.64V8.312h1.105V14zm4.636-2.492h-2.38v1.605h2.782V14h-3.904V8.312h3.893v.895h-2.77v1.434h2.38v.867zM68.3 14h-1.107v-2.465h-1.639V14h-1.11V8.312h1.11v2.333h1.64V8.312H68.3V14zm3.752-5.688h1.123V14h-1.123v-3.629L70.408 14H69.29V8.312h1.118v3.633l1.643-3.633zm5.778 3.196h-2.38v1.605h2.782V14h-3.904V8.312h3.893v.895h-2.77v1.434h2.38v.867zm-46.88 9.601c-.015.172-.002.326.04.461a.94.94 0 00.187.344.862.862 0 00.299.215.967.967 0 00.378.074c.159 0 .303-.026.434-.078a.783.783 0 00.33-.25 1.24 1.24 0 00.207-.449 2.52 2.52 0 00.075-.668v-.153h-1.524v-.886H32.9v-.153c0-.25-.023-.466-.071-.648a1.236 1.236 0 00-.199-.449.78.78 0 00-.315-.266.957.957 0 00-.41-.086c-.161 0-.306.025-.433.074a.793.793 0 00-.31.219.86.86 0 00-.18.348 1.406 1.406 0 00-.036.469H29.83c0-.274.048-.532.142-.774a1.924 1.924 0 011.071-1.066 2.23 2.23 0 01.864-.16c.31 0 .594.054.851.164.26.106.483.26.669.461.185.2.33.446.434.738.103.289.155.614.155.976v1.184c0 .365-.05.691-.151.98a2.05 2.05 0 01-.434.731c-.186.198-.413.35-.68.457a2.38 2.38 0 01-.896.16 2.45 2.45 0 01-.82-.133 1.852 1.852 0 01-.648-.386c-.18-.17-.32-.375-.418-.618a2.056 2.056 0 01-.135-.832h1.117zm5.822-.445h-.465V23h-1.118v-5.688h1.118v2.504h.275l1.515-2.504h1.294l-1.728 2.739L39.458 23H38.16l-1.388-2.336zm7.274-.09a3.3 3.3 0 01-.147 1.008c-.098.307-.24.572-.426.793a1.958 1.958 0 01-.68.52 2.124 2.124 0 01-.9.183 2.07 2.07 0 01-.89-.183 1.875 1.875 0 01-.658-.52 2.378 2.378 0 01-.405-.793 3.439 3.439 0 01-.14-1.008v-.828c0-.364.046-.7.14-1.008a2.34 2.34 0 01.405-.793 1.87 1.87 0 01.654-.523 2.03 2.03 0 01.89-.188c.337 0 .639.063.903.188.268.125.495.299.68.523a2.3 2.3 0 01.427.793c.098.308.147.644.147 1.008v.828zm-1.133-.836c0-.231-.02-.445-.06-.64a1.547 1.547 0 00-.18-.504.911.911 0 00-.318-.328.851.851 0 00-.465-.121.81.81 0 00-.455.121.856.856 0 00-.294.328 1.62 1.62 0 00-.159.504 4.024 4.024 0 00-.048.64v.836c0 .229.017.442.048.637.032.195.085.365.16.508a.888.888 0 00.293.336.82.82 0 00.459.121.85.85 0 00.461-.121.92.92 0 00.314-.332c.083-.144.144-.313.183-.508.04-.195.06-.409.06-.641v-.836zm6.008 1.481a2.115 2.115 0 01-.19.773 1.79 1.79 0 01-1.076.961c-.25.086-.525.129-.828.129-.342 0-.646-.061-.91-.184a1.883 1.883 0 01-.669-.519 2.358 2.358 0 01-.414-.805 3.54 3.54 0 01-.143-1.031v-.766c0-.377.05-.722.15-1.035.102-.312.245-.581.43-.804a1.91 1.91 0 01.673-.52c.266-.125.562-.188.891-.188.32 0 .601.045.848.133.25.089.461.215.637.379.175.164.312.365.413.602.101.237.165.504.192.801H47.81a1.73 1.73 0 00-.08-.446.79.79 0 00-.178-.316.695.695 0 00-.295-.192 1.194 1.194 0 00-.422-.066.888.888 0 00-.449.109.894.894 0 00-.319.321c-.082.14-.142.313-.182.519-.04.203-.06.435-.06.696v.773c0 .56.08.974.238 1.242.162.268.417.403.764.403.293 0 .523-.076.693-.227.17-.154.264-.401.282-.742h1.119zm3.553-3.907h1.122V23h-1.122v-3.629L50.83 23h-1.119v-5.688h1.119v3.633l1.643-3.633zm6.235 3.907a2.095 2.095 0 01-.19.773c-.106.229-.25.425-.43.586-.18.162-.396.287-.645.375-.25.086-.525.129-.827.129-.343 0-.646-.061-.912-.184a1.893 1.893 0 01-.668-.519 2.356 2.356 0 01-.414-.805 3.504 3.504 0 01-.144-1.031v-.766c0-.377.051-.722.151-1.035.101-.312.245-.581.43-.804.187-.224.41-.398.672-.52.266-.125.564-.188.893-.188.318 0 .6.045.847.133.249.089.462.215.637.379.174.164.313.365.414.602s.164.504.19.801H57.6a1.78 1.78 0 00-.08-.446.79.79 0 00-.18-.316.7.7 0 00-.293-.192 1.201 1.201 0 00-.422-.066.889.889 0 00-.45.109.883.883 0 00-.318.321 1.62 1.62 0 00-.184.519c-.04.203-.06.435-.06.696v.773c0 .56.08.974.24 1.242.162.268.416.403.764.403.291 0 .522-.076.691-.227.17-.154.264-.401.284-.742h1.117zm5.13-3.012h-1.787V23H60.93v-4.793h-1.763v-.895h4.672v.895zm4.202 2.301h-2.38v1.605h2.781V23H64.54v-5.688h3.891v.895h-2.769v1.434h2.38v.867zm2.702-3.196l.549 2.137.624-2.137h1.388V23H72.28v-1.684l.048-2.66-.761 2.469h-.554l-.679-2.363.047 2.554V23h-1.026v-5.688h1.389zM34.238 30.219a2.096 2.096 0 01-.192.773 1.773 1.773 0 01-.429.586 1.904 1.904 0 01-.645.375c-.25.086-.525.129-.828.129-.342 0-.646-.061-.91-.184a1.896 1.896 0 01-.67-.519 2.376 2.376 0 01-.413-.805 3.505 3.505 0 01-.143-1.031v-.766c0-.377.05-.722.15-1.035.102-.312.245-.581.43-.804a1.91 1.91 0 01.673-.52c.265-.125.562-.188.891-.188.32 0 .601.045.848.133.25.089.461.215.637.379.175.164.312.365.413.602.101.237.165.504.192.801h-1.115a1.733 1.733 0 00-.08-.446.792.792 0 00-.178-.316.695.695 0 00-.295-.192 1.194 1.194 0 00-.422-.066.888.888 0 00-.449.109.886.886 0 00-.319.321 1.67 1.67 0 00-.183.519c-.04.203-.06.435-.06.696v.773c0 .56.08.974.24 1.242.161.268.416.403.763.403.293 0 .523-.076.693-.227.17-.154.264-.401.282-.742h1.119zm2.467-1.953l.378 1.05 1.209-3.004h1.218l-2.062 4.61c-.068.154-.15.301-.242.441-.09.141-.2.265-.33.371a1.454 1.454 0 01-.45.254 1.77 1.77 0 01-.608.094c-.189 0-.356-.016-.502-.047a6.19 6.19 0 01-.35-.078l.071-.859.124.035.155.031a1.456 1.456 0 00.656-.004.802.802 0 00.247-.109.644.644 0 00.171-.168.922.922 0 00.116-.227l.111-.242-2.022-4.102h1.21l.9 1.954zm4.19-1.954v4.805h.557v-4.805h1.054v4.805h.55v-4.805h1.086V32h-4.337v-5.688h1.09zm6.685 0h1.122V32H47.58v-3.629L45.936 32h-1.117v-5.688h1.117v3.633l1.644-3.633z" fill="#fff"/></svg>