<svg data-name="Layer 1" xmlns="http://www.w3.org/2000/svg" width="101" height="101"><defs><clipPath id="a"><path fill="none" d="M0 0h101v101H0z"/></clipPath></defs><g clip-path="url(#a)" fill="none"><path d="M101 0H0v101h101V0z" fill="#566e78"/><path d="M76.103 52.357c-4.415-3.537-10.418-3.537-12.537-3.184h-.177c-2.472.531-6.533 1.592-11.124 7.43h-.176v.353l.176.177c.53.885 1.236 2.3 1.943 3.361 0 .177.176.177.353.177q.176 0 .176-.177v-.177c4.062-5.66 7.416-6.545 9.535-7.075h.177c1.059-.177 5.474-.177 8.652 2.299 2.472 1.946 3.708 4.953 3.708 9.198 0 6.899-3.355 9.552-6.18 10.613-4.414 1.592-8.652-.531-8.652-.531l-.177-.176c-2.472-1.062-6.003-3.184-9.358-10.083-6.886-13.62-12.537-15.035-16.245-15.919h-.176c-1.766-.354-7.593-.708-12.361 3.007-2.472 1.945-5.297 5.837-5.297 12.735 0 4.246.883 7.076 3.179 10.083.529.707 5.473 7.252 15.185 5.306 1.589-.354 3.708-1.061 6.003-2.83l2.119 1.946c.177.177.353.177.53 0v-.177l1.589-9.552v-.177q0-.177-.176-.177h-.354l-9.181 2.477h-.177s-.177 0-.177.177c-.176.177-.176.353 0 .53h.177l2.119 1.946c-1.413.884-2.472 1.238-3.355 1.415-7.063 1.415-10.594-3.361-10.594-3.538-1.59-2.122-2.119-3.891-2.119-7.252 0-4.068 1.236-7.252 3.531-9.198 3.002-2.476 7.24-2.476 8.476-2.122h.176c3.179.707 7.24 1.592 13.067 13.443 3.002 6.191 6.886 10.082 11.654 12.205.529.353 3.531 1.592 7.239 1.592 1.589 0 3.355-.177 5.121-.885 2.825-1.061 9.182-4.599 9.182-15.035 0-6.544-3.002-10.259-5.474-12.205zM10.065 13.266v15.566h3.531V8.49h-2.825l-3.178 3.715v3.538l2.472-2.477zm5.473-.531v2.477h3.178v-2.653c0-1.239.53-1.592 1.413-1.592.706 0 1.236.353 1.236 1.592v1.592c0 1.768-.177 2.299-1.236 3.537l-1.942 2.123c-1.943 1.945-2.472 3.361-2.472 5.306v3.715h9.005v-2.83h-5.65v-.885c0-1.592.529-2.122 1.412-3.184l2.119-2.299c1.766-1.946 2.119-3.184 2.119-5.13v-1.945c0-3.007-1.413-4.246-4.414-4.246-3.355 0-4.768 1.592-4.768 4.422zm18.187.354v3.892h-1.413V8.49h2.119c1.413 0 1.943.708 1.943 1.946v1.061c0 .885-.353 1.415-1.06 1.592l1.413 3.892h-1.589l-1.413-3.892zm0-3.537v2.653h.53c.53 0 .706-.177.706-.708v-1.238c0-.53-.176-.707-.706-.707h-.53zM37.08 8.49h3.355v1.062h-1.942v2.476h1.412v1.238h-1.412v2.477h1.942v1.238H37.08V8.49zm3.708 6.545v-1.061h1.413v1.238c0 .53.176.707.706.707s.706-.353.706-.707v-.354c0-.531-.176-.707-.706-1.238l-.883-.885c-.883-.707-1.236-1.238-1.236-2.299v-.354c0-1.061.706-1.945 2.119-1.945 1.413 0 2.119.707 2.119 1.945v.708h-1.413v-.708c0-.53-.176-.707-.706-.707-.353 0-.706.177-.706.707v.177c0 .531.353.708.706 1.061l.883.885c.883.884 1.236 1.238 1.236 2.122v.354c0 1.238-.706 1.946-2.119 1.946-1.413 0-2.119-.531-2.119-1.592zm4.944-6.545h2.119c1.413 0 1.943.708 1.943 1.946v1.769c0 1.238-.53 1.946-1.943 1.946h-.706v2.83h-1.413V8.49zm1.413 1.062v3.36h.53c.529 0 .706-.176.706-.707v-1.946c0-.53-.177-.707-.706-.707h-.53zm3.178 5.129v-4.068c0-1.415.707-2.3 2.119-2.3 1.413 0 2.119 1.062 2.119 2.3v4.068c0 1.415-.706 2.3-2.119 2.3-1.412 0-2.119-1.062-2.119-2.3zm2.825.177v-4.599c0-.531-.176-.884-.706-.884s-.706.353-.706.884v4.599c0 .531.176.884.706.884s.706-.353.706-.884zm3.356-3.184v5.307h-1.236V8.49h1.412l1.589 4.776V8.49h1.236v8.491h-1.236l-1.765-5.307zm3.354 3.361v-1.061h1.413v1.238c0 .53.177.707.706.707.53 0 .707-.353.707-.707v-.354c0-.531-.177-.707-.707-1.238l-.883-.885c-.882-.707-1.236-1.238-1.236-2.299v-.354c0-1.061.707-1.945 2.119-1.945 1.413 0 2.119.707 2.119 1.945v.708h-1.412v-.708c0-.53-.177-.707-.707-.707-.353 0-.706.177-.706.707v.177c0 .531.353.708.706 1.061l.883.885c.706.884 1.236 1.238 1.236 2.122v.354c0 1.238-.706 1.946-2.119 1.946-1.412.354-2.119-.531-2.119-1.592z" fill="#fff" fill-rule="evenodd"/><path d="M66.039 8.49h-1.413v8.491h1.413V8.49z" fill="#fff"/><path d="M66.745 8.49h2.119c1.413 0 1.942.708 1.942 1.946v.885c0 .707-.176 1.238-.883 1.415.707.176 1.06.707 1.06 1.415v1.061c0 1.238-.53 1.769-1.942 1.769h-2.296V8.49zm1.413 3.538h.529c.53 0 .707-.177.707-.707v-1.062c0-.53-.177-.707-.707-.707h-.529v2.476zm0 1.061v2.654h.706c.53 0 .706-.177.706-.708v-1.238c0-.531-.176-.708-.706-.708h-.706zm3.178-4.599h1.413v7.253h1.765v1.238h-3.178V8.49zm3.885 0h3.355v1.062h-1.943v2.476h1.413v1.238h-1.413v2.477h1.943v1.238h-3.355V8.49zM32.312 26.709v-4.245c0-1.415.707-2.3 2.119-2.3 1.59 0 2.119.885 2.119 2.123v1.061h-1.412v-1.061c0-.531-.177-.884-.707-.884-.529 0-.706.353-.706.884v4.599c0 .531.177.884.706.884.53 0 .707-.353.707-.884v-1.592h1.412v1.415c0 1.238-.529 2.123-2.119 2.123-1.412.177-2.119-.885-2.119-2.123zm4.945 0v-4.245c0-1.415.706-2.3 2.119-2.3 1.412 0 2.119 1.062 2.119 2.3v4.245c0 1.415-.707 2.3-2.119 2.3-1.413 0-2.119-1.062-2.119-2.3zm2.825.177v-4.599c0-.531-.177-.884-.706-.884-.53 0-.707.353-.707.884v4.599c0 .531.177.884.707.884.529 0 .706-.353.706-.884zm3.355-3.361v5.307h-1.236v-8.491h1.413l1.589 4.776v-4.776h1.236v8.491h-1.413l-1.589-5.307zm3.355 3.538v-1.238h1.413v1.238c0 .531.176.708.706.708s.706-.354.706-.708v-.354c0-.53-.176-.884-.706-1.238l-.883-.884c-.883-.885-1.236-1.238-1.236-2.3v-.353c0-1.062.706-1.946 2.119-1.946 1.412 0 2.119.707 2.119 1.946v.707h-1.413v-.707c0-.531-.176-.708-.706-.708-.353 0-.706.177-.706.708v.176c0 .531.353.708.706 1.239l.883.884c.706.884 1.236 1.238 1.236 2.299v.354c0 1.238-.707 1.946-2.119 1.946-1.589.177-2.119-.708-2.119-1.769zm8.829-6.722v6.545c0 1.415-.53 2.123-2.119 2.123-1.589 0-2.119-.885-2.119-2.123v-6.545h1.412v6.722c0 .531.177.884.707.884.529 0 .706-.353.706-.884v-6.722h1.413zm4.591 3.007l-.883 5.484h-.706l-1.06-5.484v5.484h-1.236v-8.491h1.589l1.06 4.776.883-4.776h1.765v8.491h-1.412v-5.484zm2.118-3.007h2.119c1.413 0 1.942.708 1.942 1.946v1.769c0 1.238-.529 1.946-1.942 1.946h-.706v2.83H62.33v-8.491zm1.413 1.239v3.36h.529c.53 0 .707-.176.707-.707v-1.946c0-.53-.177-.707-.707-.707h-.529zm3.002-1.239h3.708v1.239h-1.059v7.252h-1.413V21.58h-1.236v-1.239z" fill="#fff" fill-rule="evenodd"/><path d="M72.395 20.341h-1.413v8.491h1.413v-8.491z" fill="#fff"/><path d="M73.102 26.709v-4.245c0-1.415.706-2.3 2.118-2.3 1.413 0 2.119 1.062 2.119 2.3v4.245c0 1.415-.706 2.3-2.119 2.3-1.412 0-2.118-1.062-2.118-2.3zm2.825.177v-4.599c0-.531-.177-.884-.707-.884-.529 0-.706.353-.706.884v4.599c0 .531.177.884.706.884.53 0 .707-.353.707-.884zm3.178-3.361v5.307h-1.236v-8.491h1.589l1.413 4.776v-4.776h1.236v8.491h-1.236l-1.766-5.307zM32.137 40.683l1.589-8.49h1.589l1.589 8.49h-1.412l-.177-1.592h-1.589l-.177 1.592h-1.412zm1.765-2.653h1.236l-.529-3.361-.707 3.361zm4.768-2.654v5.307h-1.236v-8.49h1.412l1.589 4.952v-4.952h1.236v8.49h-1.236l-1.765-5.307zm7.946-.884v3.891c0 1.239-.53 2.3-2.119 2.3h-2.119v-8.49h2.119c1.589 0 2.119 1.061 2.119 2.299zm-2.296 5.13c.53 0 .883-.354.883-.885v-4.422c0-.53-.176-.884-.883-.884h-.529v6.191h.529zm3.885-7.429h2.119c1.413 0 2.119.707 2.119 1.945v1.769c0 1.238-.53 1.946-2.119 1.946h-.706v2.83h-1.413v-8.49zm1.589 1.238v3.361h.53c.53 0 .706-.177.706-.708v-1.946c0-.53-.176-.707-.706-.707h-.53zm4.59 3.361v3.891h-1.412v-8.49h2.119c1.412 0 1.942.707 1.942 1.945V35.2c0 .884-.353 1.415-1.06 1.592l1.413 3.891h-1.413l-1.589-3.891zm0-3.361v2.653h.53c.53 0 .706-.177.706-.708v-1.238c0-.53-.176-.707-.706-.707h-.53zm3.178 5.129v-4.068c0-1.415.707-2.299 2.296-2.299s2.295 1.061 2.295 2.299v4.068c0 1.415-.706 2.3-2.295 2.3s-2.296-.885-2.296-2.3zm3.002.354v-4.599c0-.53-.176-.884-.706-.884s-.706.354-.706.884v4.599c0 .531.176.885.706.885s.706-.354.706-.885zm6.357-4.422v3.891c0 1.239-.529 2.3-2.119 2.3h-2.118v-8.49h2.118c1.59 0 2.119 1.061 2.119 2.299zm-2.295 5.13c.53 0 .883-.354.883-.885v-4.422c0-.53-.177-.884-.883-.884h-.53v6.191h.53zm6.886-7.429v6.544c0 1.415-.529 2.123-1.942 2.123s-2.119-.885-2.119-2.123v-6.544h1.413v6.721c0 .531.176.885.706.885s.706-.354.706-.885v-6.721h1.236zm.707 6.367v-4.068c0-1.415.706-2.299 2.119-2.299 1.589 0 2.119.884 2.119 2.122v1.061h-1.413v-1.061c0-.53-.177-.884-.706-.884-.53 0-.707.354-.707.884v4.599c0 .531.177.885.707.885.529 0 .706-.354.706-.885v-1.592h1.413v1.415c0 1.238-.53 2.123-2.119 2.123-1.413 0-2.119-.885-2.119-2.3zm4.591-6.367h3.884v1.238h-1.236v7.252h-1.412v-7.252H76.81v-1.238z" fill="#fff" fill-rule="evenodd"/><path d="M82.459 32.193h-1.412v8.49h1.412v-8.49z" fill="#fff"/><path d="M83.166 38.56v-4.068c0-1.415.706-2.299 2.119-2.299 1.412 0 2.119 1.061 2.119 2.299v4.068c0 1.415-.707 2.3-2.119 2.3-1.413 0-2.119-.885-2.119-2.3zm2.825.354v-4.599c0-.53-.176-.884-.706-.884s-.706.354-.706.884v4.599c0 .531.176.885.706.885s.706-.354.706-.885zm3.355-3.538v5.307H88.11v-8.49h1.413l1.589 4.952v-4.952h1.236v8.49h-1.236l-1.766-5.307z" fill="#fff" fill-rule="evenodd"/><path fill="#566e78" d="M28 4h73v37H28z"/><path d="M33.48 11.574c0 .365-.048.701-.144 1.008-.096.307-.236.572-.418.793s-.405.395-.668.52c-.26.122-.555.183-.883.183s-.62-.061-.875-.183a1.842 1.842 0 01-.644-.52 2.376 2.376 0 01-.399-.793 3.535 3.535 0 01-.137-1.008v-.828c0-.364.046-.7.137-1.008.091-.307.224-.571.399-.793a1.83 1.83 0 01.64-.523c.255-.125.547-.188.875-.188.331 0 .627.063.887.188a1.9 1.9 0 01.668.523c.182.222.322.486.418.793.096.308.144.644.144 1.008v.828zm-1.113-.836c0-.231-.019-.445-.058-.64a1.59 1.59 0 00-.176-.504.898.898 0 00-.313-.328.822.822 0 00-.457-.121.777.777 0 00-.734.449c-.073.14-.125.308-.156.504a3.972 3.972 0 00-.047.64v.836c0 .229.015.442.047.637.031.195.083.365.156.508a.874.874 0 00.289.336c.12.08.27.121.449.121a.823.823 0 00.453-.121.907.907 0 00.309-.332c.081-.144.141-.313.18-.508.039-.195.058-.409.058-.641v-.836zm6.129-1.531h-1.754V14h-1.101V9.207H33.91v-.895h4.586v.895zM39.113 14V8.312h1.91c.31 0 .592.032.844.094.255.063.473.158.653.285.179.128.317.289.414.485.099.195.148.426.148.691a1.283 1.283 0 01-.215.715 1.273 1.273 0 01-.613.48c.164.042.306.105.426.188.119.083.218.182.297.297.08.112.139.236.175.371a1.747 1.747 0 01-.082 1.137 1.393 1.393 0 01-.402.523 1.772 1.772 0 01-.637.317c-.25.07-.531.105-.843.105h-2.075zm1.102-2.508v1.621h.976c.3-.002.528-.075.684-.218a.738.738 0 00.238-.571c.003-.26-.067-.463-.211-.609-.143-.146-.364-.22-.664-.223h-1.023zm0-.793h.816c.305-.002.539-.066.703-.191.164-.125.248-.309.25-.551 0-.266-.082-.456-.246-.57-.164-.117-.401-.177-.711-.18h-.812v1.492zm7.211.809H45.09v1.605h2.73V14h-3.832V8.312h3.821v.895H45.09v1.434h2.336v.867zm5.484-2.301h-1.754V14h-1.101V9.207h-1.731v-.895h4.586v.895zm4.574 3.012c-.018.286-.08.544-.187.773a1.775 1.775 0 01-1.055.961 2.435 2.435 0 01-.812.129c-.336 0-.634-.061-.895-.184a1.863 1.863 0 01-.656-.519 2.374 2.374 0 01-.406-.805 3.565 3.565 0 01-.141-1.031v-.766c0-.377.05-.722.148-1.035.099-.312.24-.581.422-.804.183-.224.403-.398.66-.52.261-.125.553-.188.876-.188.312 0 .589.045.832.133.244.089.453.215.625.379.171.164.307.365.406.602s.161.504.187.801h-1.093a1.807 1.807 0 00-.079-.446.794.794 0 00-.175-.316.687.687 0 00-.289-.192 1.16 1.16 0 00-.414-.066c-.17 0-.317.036-.442.109s-.229.18-.312.321c-.081.14-.141.313-.18.519a3.712 3.712 0 00-.059.696v.773c0 .56.078.974.235 1.242.159.268.409.403.75.403.286 0 .513-.076.679-.227.167-.154.259-.401.278-.742h1.097zm5.036-3.012h-1.754V14h-1.102V9.207h-1.73v-.895h4.586v.895zM63.137 14V8.312h1.91c.31 0 .591.032.844.094.255.063.472.158.652.285.18.128.318.289.414.485.099.195.148.426.148.691a1.282 1.282 0 01-.214.715 1.276 1.276 0 01-.614.48c.164.042.306.105.426.188s.219.182.297.297c.081.112.139.236.176.371.039.133.058.271.058.414 0 .273-.046.514-.14.723a1.395 1.395 0 01-.403.523 1.76 1.76 0 01-.636.317c-.25.07-.532.105-.844.105h-2.074zm1.101-2.508v1.621h.977c.299-.002.527-.075.683-.218a.739.739 0 00.239-.571c.002-.26-.068-.463-.211-.609-.143-.146-.365-.22-.664-.223h-1.024zm0-.793h.817c.304-.002.539-.066.703-.191s.247-.309.25-.551c0-.266-.082-.456-.246-.57-.164-.117-.401-.177-.711-.18h-.813v1.492zm7.211.809h-2.336v1.605h2.731V14h-3.832V8.312h3.82v.895h-2.719v1.434h2.336v.867zM76.508 14h-1.086v-2.465h-1.61V14h-1.089V8.312h1.089v2.333h1.61V8.312h1.086V14zm4.804 0h-1.085v-2.465h-1.61V14h-1.09V8.312h1.09v2.333h1.61V8.312h1.085V14zm5.02-2.426c0 .365-.048.701-.144 1.008a2.342 2.342 0 01-.418.793 1.936 1.936 0 01-.668.52c-.261.122-.555.183-.883.183s-.62-.061-.875-.183a1.854 1.854 0 01-.645-.52 2.393 2.393 0 01-.398-.793 3.535 3.535 0 01-.137-1.008v-.828c0-.364.046-.7.137-1.008.091-.307.224-.571.398-.793.175-.224.388-.398.641-.523.255-.125.547-.188.875-.188.331 0 .626.063.887.188.263.125.485.299.668.523.182.222.321.486.418.793.096.308.144.644.144 1.008v.828zm-1.113-.836c0-.231-.02-.445-.059-.64a1.566 1.566 0 00-.176-.504.896.896 0 00-.312-.328.822.822 0 00-.457-.121.774.774 0 00-.445.121.844.844 0 00-.29.328 1.67 1.67 0 00-.156.504 4.09 4.09 0 00-.047.64v.836c0 .229.016.442.047.637s.084.365.156.508c.073.143.17.255.29.336.119.08.269.121.449.121a.823.823 0 00.761-.453c.081-.144.141-.313.18-.508.039-.195.059-.409.059-.641v-.836zm5.449.77h-2.336v1.605h2.73V14H87.23V8.312h3.821v.895h-2.719v1.434h2.336v.867zM33.277 23H32.18v-4.797h-1.61V23h-1.097v-5.688h3.804V23zm5.008-2.426c0 .365-.048.701-.144 1.008a2.343 2.343 0 01-.418.793 1.936 1.936 0 01-.668.52c-.261.122-.555.183-.883.183s-.62-.061-.875-.183a1.855 1.855 0 01-.645-.52 2.393 2.393 0 01-.398-.793 3.535 3.535 0 01-.137-1.008v-.828c0-.364.046-.7.137-1.008.091-.307.224-.571.398-.793.175-.224.388-.398.641-.523.255-.125.547-.188.875-.188.331 0 .626.063.887.188.263.125.485.299.668.523.182.222.321.486.418.793.096.308.144.644.144 1.008v.828zm-1.113-.836c0-.231-.02-.445-.059-.64a1.59 1.59 0 00-.175-.504.898.898 0 00-.313-.328.822.822 0 00-.457-.121.774.774 0 00-.734.449 1.67 1.67 0 00-.157.504 4.092 4.092 0 00-.047.64v.836c0 .229.016.442.047.637.032.195.084.365.157.508a.874.874 0 00.289.336c.119.08.269.121.449.121a.823.823 0 00.453-.121.916.916 0 00.309-.332c.08-.144.14-.313.179-.508.039-.195.059-.409.059-.641v-.836zm6.129-1.531h-1.754V23h-1.102v-4.793h-1.73v-.895h4.586v.895zm1.793 2.707V23h-1.098v-5.688h1.945c.31 0 .59.046.84.137.25.089.462.214.637.375.177.159.312.35.406.574.097.224.145.473.145.747 0 .255-.048.49-.145.707a1.61 1.61 0 01-.406.562 1.886 1.886 0 01-.637.367c-.25.089-.53.133-.84.133h-.847zm0-.891h.847c.157 0 .292-.023.407-.07a.816.816 0 00.285-.191.759.759 0 00.172-.278.955.955 0 00.058-.332 1.15 1.15 0 00-.058-.371.818.818 0 00-.457-.504 1.03 1.03 0 00-.407-.074h-.847v1.82zm7.136.485h-2.335v1.605h2.73V23h-3.832v-5.688h3.82v.895h-2.718v1.434h2.335v.867zm4.989-2.305h-2.582v1.211h.64c.328 0 .623.043.883.129.263.083.485.202.664.355.183.154.322.34.418.559.097.219.145.461.145.727 0 .27-.048.518-.145.742a1.58 1.58 0 01-.418.57 1.89 1.89 0 01-.664.371c-.26.089-.555.133-.883.133h-1.742v-5.688h3.684v.891zm-2.582 2.094v1.82h.64c.172 0 .321-.025.446-.074a.879.879 0 00.316-.203.77.77 0 00.188-.301c.041-.115.062-.236.062-.363a.95.95 0 00-.062-.344.687.687 0 00-.188-.277.84.84 0 00-.316-.188 1.27 1.27 0 00-.446-.07h-.64zm7.5-2.985V23h-1.102v-4.797h-1.176l-.019 2.086a7.019 7.019 0 01-.117 1.262 2.626 2.626 0 01-.297.84 1.19 1.19 0 01-.488.464 1.524 1.524 0 01-.684.145h-.274v-.883h.157a.557.557 0 00.304-.113.614.614 0 00.18-.305c.044-.14.074-.324.09-.551.016-.229.026-.515.031-.859l.024-2.977h3.371zm4.508 3.196h-2.336v1.605h2.73V23h-3.832v-5.688h3.82v.895h-2.718v1.434h2.336v.867zM71.703 23h-1.086v-2.465h-1.609V23h-1.09v-5.688h1.09v2.333h1.609v-2.333h1.086V23zm3.684-5.688h1.101V23h-1.101v-3.629L73.773 23h-1.097v-5.688h1.097v3.633l1.614-3.633zm5.672 3.196h-2.336v1.605h2.73V23h-3.832v-5.688h3.82v.895h-2.718v1.434h2.336v.867zm-48.914 5.804h1.101V32h-1.101v-3.629L30.531 32h-1.097v-5.688h1.097v3.633l1.614-3.633zM42.887 32h-1.098v-4.797H40.18V32h-1.098v-5.688h3.805V32zm2.207-2.086V32h-1.098v-5.688h1.945c.31 0 .59.046.84.137.25.089.462.214.637.375.177.159.312.35.406.574.097.224.145.473.145.747 0 .255-.048.49-.145.707a1.61 1.61 0 01-.406.562 1.886 1.886 0 01-.637.367c-.25.089-.53.133-.84.133h-.847zm0-.891h.847c.157 0 .292-.023.407-.07a.816.816 0 00.285-.191.759.759 0 00.172-.278.955.955 0 00.058-.332 1.15 1.15 0 00-.058-.371.819.819 0 00-.457-.504 1.03 1.03 0 00-.407-.074h-.847v1.82zm7.605.551c0 .365-.048.701-.144 1.008a2.342 2.342 0 01-.418.793 1.936 1.936 0 01-.668.52c-.261.122-.555.183-.883.183s-.62-.061-.875-.183a1.855 1.855 0 01-.645-.52 2.393 2.393 0 01-.398-.793 3.535 3.535 0 01-.137-1.008v-.828c0-.364.046-.7.137-1.008.091-.307.224-.571.398-.793.175-.224.388-.398.641-.523.255-.125.547-.188.875-.188.331 0 .626.063.887.188.263.125.485.299.668.523.182.222.321.486.418.793.096.308.144.644.144 1.008v.828zm-1.113-.836c0-.231-.02-.445-.059-.64a1.59 1.59 0 00-.175-.504.898.898 0 00-.313-.328.822.822 0 00-.457-.121.776.776 0 00-.734.449 1.67 1.67 0 00-.157.504 4.098 4.098 0 00-.046.64v.836c0 .229.015.442.046.637.032.195.084.365.157.508a.874.874 0 00.289.336c.12.08.269.121.449.121a.823.823 0 00.453-.121.907.907 0 00.309-.332c.08-.144.14-.313.179-.508.039-.195.059-.409.059-.641v-.836zm4.582-2.426h1.102V32h-1.102v-3.629L54.555 32h-1.098v-5.688h1.098v3.633l1.613-3.633zm6.152 1.543a1.266 1.266 0 01-.511 1 1.79 1.79 0 01-.371.223c.315.11.554.276.718.5.167.221.25.498.25.828a1.497 1.497 0 01-.613 1.239c-.19.14-.419.248-.688.324a3.276 3.276 0 01-.871.109c-.255 0-.507-.031-.757-.094a2.243 2.243 0 01-.676-.296 1.65 1.65 0 01-.485-.516 1.457 1.457 0 01-.183-.75h1.101a.674.674 0 00.278.551c.088.07.194.126.316.168.123.039.258.058.406.058.172 0 .325-.019.457-.058.133-.042.245-.099.336-.172a.733.733 0 00.207-.254.738.738 0 00.071-.32c0-.305-.086-.525-.258-.661-.169-.135-.419-.203-.75-.203h-.766v-.859h.766c.164 0 .303-.018.418-.055a.746.746 0 00.285-.164.613.613 0 00.164-.25.93.93 0 00.055-.328.725.725 0 00-.059-.289.618.618 0 00-.18-.242.87.87 0 00-.308-.16 1.355 1.355 0 00-.438-.063c-.13 0-.251.017-.363.051s-.21.082-.293.144a.732.732 0 00-.195.227.624.624 0 00-.071.297h-1.097c0-.25.053-.474.16-.672.109-.198.257-.366.441-.504.185-.138.399-.243.641-.316.245-.076.504-.114.777-.114.315 0 .602.036.86.106.258.068.476.17.656.308.182.136.323.305.422.508.099.201.148.434.148.699zM63.137 32v-5.688h1.91c.31 0 .591.032.844.094.255.063.472.158.652.285.18.128.318.289.414.485.099.195.148.426.148.691a1.282 1.282 0 01-.214.715 1.276 1.276 0 01-.614.48c.164.042.306.105.426.188s.219.182.297.297c.081.112.139.236.176.371.039.133.058.271.058.414 0 .273-.046.514-.14.723a1.395 1.395 0 01-.403.523 1.76 1.76 0 01-.636.317c-.25.07-.532.105-.844.105h-2.074zm1.101-2.508v1.621h.977c.299-.002.527-.075.683-.218a.74.74 0 00.239-.571c.002-.26-.068-.463-.211-.609s-.365-.22-.664-.223h-1.024zm0-.793h.817c.304-.002.539-.066.703-.191s.247-.309.25-.551c0-.266-.082-.456-.246-.57-.164-.117-.401-.177-.711-.18h-.813v1.492zm7.68.875c0 .365-.048.701-.145 1.008a2.308 2.308 0 01-.418.793 1.923 1.923 0 01-.667.52c-.261.122-.555.183-.883.183s-.62-.061-.875-.183a1.846 1.846 0 01-.645-.52 2.393 2.393 0 01-.398-.793 3.535 3.535 0 01-.137-1.008v-.828c0-.364.046-.7.137-1.008.091-.307.224-.571.398-.793.175-.224.388-.398.641-.523.255-.125.547-.188.875-.188.331 0 .626.063.887.188.263.125.485.299.667.523.183.222.322.486.418.793.097.308.145.644.145 1.008v.828zm-1.113-.836c0-.231-.02-.445-.059-.64a1.566 1.566 0 00-.176-.504.896.896 0 00-.312-.328.824.824 0 00-.457-.121.78.78 0 00-.735.449c-.073.14-.125.308-.156.504a4.09 4.09 0 00-.047.64v.836c0 .229.016.442.047.637s.083.365.156.508c.073.143.17.255.289.336.12.08.27.121.45.121a.823.823 0 00.761-.453c.081-.144.141-.313.18-.508.039-.195.059-.409.059-.641v-.836zm5.808 4.66h-.945V32h-2.152v1.398h-.926l-.172-2.281h.211a.951.951 0 00.312-.262c.089-.112.163-.263.223-.453.06-.192.108-.431.145-.714.036-.287.062-.636.078-1.047l.156-2.329h2.809v4.805h.418l-.157 2.281zm-2.125-4.757c-.013.304-.032.58-.058.828a7.457 7.457 0 01-.094.676c-.039.2-.085.381-.137.543a3.276 3.276 0 01-.172.429h1.231v-3.914h-.676l-.094 1.438zm7.02 1.578a2.127 2.127 0 01-.188.773 1.76 1.76 0 01-.422.586 1.858 1.858 0 01-.632.375 2.441 2.441 0 01-.813.129c-.336 0-.634-.061-.894-.184a1.858 1.858 0 01-.657-.519 2.391 2.391 0 01-.406-.805 3.565 3.565 0 01-.141-1.031v-.766c0-.377.05-.722.149-1.035.099-.312.239-.581.422-.804.182-.224.402-.398.66-.52.26-.125.552-.188.875-.188.312 0 .59.045.832.133.245.089.453.215.625.379s.307.365.406.602.162.504.188.801h-1.094a1.765 1.765 0 00-.078-.446.795.795 0 00-.176-.316.681.681 0 00-.289-.192 1.16 1.16 0 00-.414-.066.859.859 0 00-.441.109.878.878 0 00-.313.321c-.081.14-.141.313-.18.519a3.717 3.717 0 00-.058.696v.773c0 .56.078.974.234 1.242.159.268.409.403.75.403.287 0 .513-.076.68-.227.166-.154.259-.401.277-.742h1.098zm5.035-3.012h-1.754V32h-1.101v-4.793h-1.731v-.895h4.586v.895zM87.16 32v-5.688h1.91c.31 0 .591.032.844.094.255.063.473.158.652.285.18.128.318.289.414.485.099.195.149.426.149.691a1.283 1.283 0 01-.215.715 1.273 1.273 0 01-.613.48c.164.042.306.105.426.188.119.083.218.182.296.297.081.112.14.236.176.371a1.747 1.747 0 01-.082 1.137 1.403 1.403 0 01-.402.523 1.772 1.772 0 01-.637.317 3.13 3.13 0 01-.844.105H87.16zm1.102-2.508v1.621h.976c.3-.002.528-.075.684-.218a.738.738 0 00.238-.571c.003-.26-.068-.463-.211-.609s-.364-.22-.664-.223h-1.023zm0-.793h.816c.305-.002.539-.066.703-.191s.248-.309.25-.551c0-.266-.082-.456-.246-.57-.164-.117-.401-.177-.711-.18h-.812v1.492zm7.679.875c0 .365-.048.701-.144 1.008s-.236.572-.418.793-.405.395-.668.52c-.26.122-.555.183-.883.183s-.62-.061-.875-.183a1.842 1.842 0 01-.644-.52 2.376 2.376 0 01-.399-.793 3.535 3.535 0 01-.137-1.008v-.828c0-.364.046-.7.137-1.008.091-.307.224-.571.399-.793a1.83 1.83 0 01.64-.523c.255-.125.547-.188.875-.188.331 0 .627.063.887.188a1.9 1.9 0 01.668.523c.182.222.322.486.418.793.096.308.144.644.144 1.008v.828zm-1.113-.836c0-.231-.019-.445-.058-.64a1.614 1.614 0 00-.176-.504.898.898 0 00-.313-.328.822.822 0 00-.457-.121.776.776 0 00-.734.449c-.073.14-.125.308-.156.504a3.975 3.975 0 00-.047.64v.836c0 .229.015.442.047.637.031.195.083.365.156.508a.874.874 0 00.289.336c.12.08.269.121.449.121a.823.823 0 00.453-.121.907.907 0 00.309-.332c.081-.144.14-.313.18-.508.039-.195.058-.409.058-.641v-.836z" fill="#fff"/></g></svg>