<svg data-name="Layer 1" xmlns="http://www.w3.org/2000/svg" width="101" height="101"><path d="M101 0H0v101h101V0z" fill="#566e78"/><path d="M77.474 73.76c-1.238-1.769-9.552-12.205-21.049-12.205-10.082 0-20.695 9.021-20.695 9.021s-4.069-8.136-12.205-9.021h-.177c-.177 0-.354.177-.354.354s.177.354.177.354c1.061 1.769 3.715 6.721 3.715 11.674s-2.654 10.082-3.715 11.674v.354a.38.38 0 00.354.354h.177c8.313-.708 12.381-9.021 12.381-9.021s10.79 9.021 20.696 9.021c11.497 0 19.811-10.436 21.049-12.205v-.354c-.177.177-.177 0-.354 0zm-14.681 1.415c-1.946 0-3.361-1.592-3.361-3.361 0-1.945 1.592-3.36 3.361-3.36 1.945 0 3.361 1.415 3.361 3.36 0 1.946-1.416 3.361-3.361 3.361zm-27.77-23.171q.177-.177.353-.177s.177 0 .177.177c6.191 6.014 12.913 1.061 14.151 0l.177-.177h.354l.176.177c1.415 1.061 7.96 6.014 14.151 0l.177-.177h.177v.177c1.238 1.238 6.544 5.66 12.028.884l.177-.177v-2.299a.38.38 0 00-.354-.354h-.177c-1.769.884-7.075 2.83-11.851-1.592 0 0 0-.177-.177-.177h-.354s-.177 0-.177.177c-1.415 1.061-7.959 5.483-13.973 0h-.708c-5.837 5.483-12.382 1.061-13.974 0 0 0 0-.177-.176-.177h-.354l-.177.177c-4.776 4.599-10.082 2.476-11.851 1.592h-.177a.38.38 0 00-.354.354v2.299s0 .177.177.177c6.014 4.953 11.32.354 12.559-.884zm-11.852-10.26c-.177 0-.353.177-.353.354v2.3q0 .176.176.176c5.484 4.776 10.79.354 12.028-.884l.177-.177h.354c6.191 6.014 12.912 1.061 14.151 0l.177-.177h.353l.177.177c1.415 1.061 7.96 6.014 14.151 0h.354v.177c1.238 1.238 6.544 5.66 12.028.884v-2.476a.38.38 0 00-.354-.354h-.177c-1.769.885-7.075 2.83-11.851-1.592 0 0 0-.177-.177-.177h-.354s-.177 0-.177.177c-1.415 1.062-7.959 5.484-13.973 0h-.177l-.177-.177q-.177 0-.177.177h-.177c-5.837 5.484-12.382 1.062-13.974 0 0 0 0-.177-.177-.177h-.353l-.177.177c-4.776 4.599-10.083 2.477-11.851 1.592q.707.177.53 0zM12.912 8.49v20.342h-3.36V13.266l-2.3 2.477h-.177v-3.538l3.184-3.715h2.653zm10.436 20.342v-3.361h1.415v-2.653h-1.415V8.49h-3.36L14.15 23.525v2.123h6.014v3.361h3.184v-.177zm-6.191-6.014l3.007-8.314v8.314h-3.007zM32.9 8.313h1.415v7.253h1.769v1.238H32.9V8.313z" fill="#fff" fill-rule="evenodd"/><path d="M38.029 8.313h-1.415v8.491h1.415V8.313z" fill="#fff"/><path d="M38.737 8.313h3.361v1.062h-1.946v2.476h1.592v1.061h-1.592v3.892h-1.415V8.313zm4.069 0h3.36v1.062h-1.945v2.476h1.415v1.061h-1.415v2.654h1.945v1.238h-3.36V8.313zM32.9 20.164h2.123c1.415 0 1.946.708 1.946 1.946v.885c0 .707-.177 1.238-.885 1.415.708.177 1.062.707 1.062 1.415v1.061c0 1.238-.531 1.946-1.946 1.946h-2.3v-8.668zm1.415 3.715h.531c.531 0 .708-.177.708-.708V22.11c0-.53-.177-.707-.708-.707h-.531v2.476zm0 1.061v2.654h.708c.531 0 .708-.177.708-.708v-1.238c0-.531-.177-.708-.708-.708h-.708zm3.361-4.776h3.361v1.062h-1.946v2.653h1.415v1.061h-1.415v2.654h1.946v1.238h-3.361v-8.668zm4.245 0h1.415v7.43h1.769v1.238h-3.184v-8.668zm3.715 6.368v-4.068c0-1.415.707-2.3 2.299-2.3s2.3 1.062 2.3 2.3v4.068c0 1.415-.708 2.3-2.3 2.3s-2.299-1.062-2.299-2.3zm2.83.177V22.11c0-.53-.177-.884-.708-.884-.53 0-.707.354-.707.884v4.599c0 .531.177.885.707.885.531 0 .708-.354.708-.885zm5.306-3.184l-.884 5.307h-1.239l-1.238-8.668h1.415l.708 5.484.707-5.484h1.062l.884 5.484.708-5.484h1.061l-1.061 8.668h-1.416l-.707-5.307zm8.313 0l-.707 5.307h-1.415l-1.238-8.668h1.415l.707 5.484.708-5.484h1.238l.707 5.484h.177l.531-5.484h1.238l-1.061 8.668H62.97l-.885-5.307zm3.185 5.307l1.591-8.668h1.592l1.592 8.668H68.63l-.177-1.592h-1.592l-.176 1.592H65.27zm1.768-2.83H68.1l-.531-3.538-.531 3.538zm3.008-5.838h3.714v1.062h-1.238v7.606h-1.415v-7.606h-1.061v-1.062zm4.422 0h3.361v1.062h-1.946v2.653h1.415v1.061h-1.415v2.654h1.946v1.238h-3.361v-8.668zm5.66 4.599v4.069h-1.415v-8.668h2.123c1.415 0 1.945.708 1.945 1.946v1.061c0 .885-.354 1.592-1.061 1.769l1.415 3.892H81.72l-1.592-4.069zm0-3.36v2.653h.531c.53 0 .707-.354.707-.708V22.11c0-.53-.177-.707-.707-.707h-.531z" fill="#fff" fill-rule="evenodd"/><path fill="#566e78" d="M33 1h59v33H33z"/><path d="M34.461 12.219a2.127 2.127 0 01-.188.773 1.772 1.772 0 01-1.054.961 2.441 2.441 0 01-.813.129c-.336 0-.634-.061-.894-.184a1.867 1.867 0 01-.657-.519 2.391 2.391 0 01-.406-.805 3.566 3.566 0 01-.14-1.031v-.766c0-.377.049-.722.148-1.035.099-.312.24-.581.422-.804.182-.224.402-.398.66-.52.26-.125.552-.188.875-.188.313 0 .59.045.832.133.245.089.453.215.625.379s.307.365.406.602.162.504.188.801h-1.094a1.765 1.765 0 00-.078-.446.795.795 0 00-.176-.316.68.68 0 00-.289-.192 1.152 1.152 0 00-.414-.066c-.169 0-.316.036-.441.109s-.23.18-.313.321a1.67 1.67 0 00-.18.519 3.718 3.718 0 00-.058.696v.773c0 .56.078.974.234 1.242.159.268.409.403.75.403.287 0 .513-.076.68-.227.167-.154.259-.401.277-.742h1.098zm4.824-.645c0 .365-.048.701-.144 1.008a2.342 2.342 0 01-.418.793 1.936 1.936 0 01-.668.52c-.261.122-.555.183-.883.183s-.62-.061-.875-.183a1.854 1.854 0 01-.645-.52 2.393 2.393 0 01-.398-.793 3.535 3.535 0 01-.137-1.008v-.828c0-.364.046-.7.137-1.008.091-.307.224-.571.398-.793.175-.224.388-.398.641-.523.255-.125.547-.188.875-.188.331 0 .626.063.887.188.263.125.485.299.668.523.182.222.321.486.418.793.096.308.144.644.144 1.008v.828zm-1.113-.836c0-.231-.02-.445-.059-.64a1.59 1.59 0 00-.175-.504.898.898 0 00-.313-.328.822.822 0 00-.457-.121.774.774 0 00-.734.449 1.67 1.67 0 00-.157.504 4.09 4.09 0 00-.047.64v.836c0 .229.016.442.047.637.032.195.084.365.157.508a.874.874 0 00.289.336c.119.08.269.121.449.121a.823.823 0 00.453-.121.915.915 0 00.309-.332c.08-.144.14-.313.179-.508.039-.195.059-.409.059-.641v-.836zm3.875-.386l1.012-2.04h1.289l-1.602 2.821L44.387 14h-1.282l-1.043-2.07L41.023 14h-1.296l1.64-2.867-1.597-2.821h1.281l.996 2.04zm4.047 1.562V14h-1.098V8.312h1.945c.31 0 .59.046.84.137.25.089.462.214.637.375.177.159.312.35.406.574.097.224.145.473.145.747 0 .255-.048.49-.145.707a1.61 1.61 0 01-.406.562 1.886 1.886 0 01-.637.367c-.25.089-.53.133-.84.133h-.847zm0-.891h.847c.157 0 .292-.023.407-.07a.816.816 0 00.285-.191.759.759 0 00.172-.278.955.955 0 00.058-.332 1.15 1.15 0 00-.058-.371.818.818 0 00-.457-.504 1.03 1.03 0 00-.407-.074h-.847v1.82zm6.433 1.789H50.82L50.484 14h-1.156l1.863-5.688h.997L54.016 14h-1.157l-.332-1.188zm-1.437-.933h1.18l-.582-2.094-.598 2.094zM58.289 14h-1.086v-2.465h-1.609V14h-1.09V8.312h1.09v2.333h1.609V8.312h1.086V14zm4.551-2.492h-2.336v1.605h2.73V14h-3.832V8.312h3.821v.895h-2.719v1.434h2.336v.867zM67.898 14h-1.086v-2.465h-1.609V14h-1.09V8.312h1.09v2.333h1.609V8.312h1.086V14zm3.684-5.688h1.102V14h-1.102v-3.629L69.969 14h-1.098V8.312h1.098v3.633l1.613-3.633zm5.672 3.196h-2.336v1.605h2.73V14h-3.832V8.312h3.821v.895h-2.719v1.434h2.336v.867zm-45.395 5.804l.539 2.137.614-2.137h1.363V23h-1.008v-1.684l.047-2.66-.746 2.469h-.543l-.668-2.363.047 2.554V23h-1.008v-5.688h1.363zm7.426 3.262c0 .365-.048.701-.144 1.008a2.342 2.342 0 01-.418.793 1.936 1.936 0 01-.668.52c-.261.122-.555.183-.883.183s-.62-.061-.875-.183a1.854 1.854 0 01-.645-.52 2.393 2.393 0 01-.398-.793 3.535 3.535 0 01-.137-1.008v-.828c0-.364.046-.7.137-1.008.091-.307.224-.571.398-.793.175-.224.388-.398.641-.523.255-.125.547-.188.875-.188.331 0 .626.063.887.188.263.125.485.299.668.523.182.222.321.486.418.793.096.308.144.644.144 1.008v.828zm-1.113-.836c0-.231-.02-.445-.059-.64a1.59 1.59 0 00-.175-.504.898.898 0 00-.313-.328.822.822 0 00-.457-.121.774.774 0 00-.734.449 1.67 1.67 0 00-.157.504 4.09 4.09 0 00-.047.64v.836c0 .229.016.442.047.637.032.195.084.365.157.508a.874.874 0 00.289.336c.119.08.269.121.449.121a.823.823 0 00.453-.121.915.915 0 00.309-.332c.08-.144.14-.313.179-.508.039-.195.059-.409.059-.641v-.836zm3.117 1.176V23h-1.098v-5.688h1.946c.31 0 .59.046.84.137.25.089.462.214.636.375.177.159.313.35.407.574.096.224.144.473.144.747 0 .255-.048.49-.144.707-.094.216-.23.403-.407.562a1.872 1.872 0 01-.636.367c-.25.089-.53.133-.84.133h-.848zm0-.891h.848c.156 0 .291-.023.406-.07a.798.798 0 00.457-.469.956.956 0 00.059-.332c0-.132-.02-.256-.059-.371a.805.805 0 00-.457-.504 1.029 1.029 0 00-.406-.074h-.848v1.82zm7.586 1.196a2.147 2.147 0 01-.187.773 1.789 1.789 0 01-1.055.961 2.441 2.441 0 01-.813.129c-.336 0-.634-.061-.894-.184a1.855 1.855 0 01-.656-.519 2.375 2.375 0 01-.407-.805 3.6 3.6 0 01-.14-1.031v-.766c0-.377.049-.722.148-1.035.099-.312.24-.581.422-.804.182-.224.402-.398.66-.52.261-.125.552-.188.875-.188.313 0 .59.045.832.133.245.089.453.215.625.379s.307.365.406.602.162.504.188.801h-1.094a1.765 1.765 0 00-.078-.446.795.795 0 00-.176-.316.68.68 0 00-.289-.192 1.152 1.152 0 00-.414-.066c-.169 0-.316.036-.441.109s-.229.18-.313.321c-.081.14-.14.313-.179.519a3.63 3.63 0 00-.059.696v.773c0 .56.078.974.234 1.242.159.268.409.403.75.403.287 0 .513-.076.68-.227.167-.154.259-.401.277-.742h1.098zm2.488-.555h-.457V23h-1.097v-5.688h1.097v2.504h.27l1.488-2.504h1.27l-1.696 2.739L54 23h-1.273l-1.364-2.336zm5.805-3.352h1.102V23h-1.102v-3.629L55.555 23h-1.098v-5.688h1.098v3.633l1.613-3.633zm4.098 2.04l1.011-2.04h1.289l-1.601 2.821L63.605 23h-1.281l-1.043-2.07L60.242 23h-1.297l1.641-2.867-1.598-2.821h1.282l.996 2.04zM31.234 30.109c-.015.172-.002.326.039.461a.847.847 0 00.848.633c.156 0 .298-.026.426-.078a.771.771 0 00.324-.25c.089-.117.156-.267.203-.449.05-.183.074-.405.074-.668v-.153h-1.496v-.886h1.496v-.153c0-.25-.023-.466-.07-.648a1.247 1.247 0 00-.195-.449.77.77 0 00-.309-.266.925.925 0 00-.402-.086 1.16 1.16 0 00-.426.074.778.778 0 00-.305.219.866.866 0 00-.175.348 1.406 1.406 0 00-.036.469h-1.097c0-.274.047-.532.14-.774a1.896 1.896 0 011.051-1.066c.253-.107.535-.16.848-.16.305 0 .583.054.836.164.255.106.474.26.656.461.182.2.324.446.426.738.101.289.152.614.152.976v1.184c0 .365-.049.691-.148.98a2.05 2.05 0 01-.426.731 1.83 1.83 0 01-.668.457c-.26.107-.553.16-.879.16-.289 0-.557-.044-.805-.133a1.811 1.811 0 01-.636-.386 1.72 1.72 0 01-.41-.618 2.092 2.092 0 01-.133-.832h1.097zm5.715-.445h-.457V32h-1.097v-5.688h1.097v2.504h.27l1.488-2.504h1.27l-1.696 2.739L39.586 32h-1.274l-1.363-2.336zm7.141-.09c0 .365-.048.701-.145 1.008a2.308 2.308 0 01-.418.793 1.927 1.927 0 01-.668.52c-.26.122-.554.183-.882.183-.329 0-.62-.061-.875-.183a1.846 1.846 0 01-.645-.52 2.393 2.393 0 01-.398-.793 3.5 3.5 0 01-.137-1.008v-.828c0-.364.045-.7.137-1.008.091-.307.224-.571.398-.793.175-.224.388-.398.641-.523.255-.125.547-.188.875-.188.33 0 .626.063.886.188a1.9 1.9 0 01.668.523c.183.222.322.486.418.793.097.308.145.644.145 1.008v.828zm-1.113-.836c0-.231-.02-.445-.059-.64a1.566 1.566 0 00-.176-.504.904.904 0 00-.312-.328.824.824 0 00-.457-.121.78.78 0 00-.735.449c-.073.14-.125.308-.156.504a4.09 4.09 0 00-.047.64v.836c0 .229.016.442.047.637s.083.365.156.508c.073.143.17.255.289.336.12.08.27.121.45.121a.823.823 0 00.761-.453c.081-.144.141-.313.18-.508.039-.195.059-.409.059-.641v-.836zm5.898 1.481a2.147 2.147 0 01-.187.773 1.789 1.789 0 01-1.055.961 2.441 2.441 0 01-.813.129c-.336 0-.634-.061-.894-.184a1.855 1.855 0 01-.656-.519 2.375 2.375 0 01-.407-.805 3.6 3.6 0 01-.14-1.031v-.766c0-.377.049-.722.148-1.035.099-.312.24-.581.422-.804.182-.224.402-.398.66-.52.261-.125.552-.188.875-.188.313 0 .59.045.832.133.245.089.453.215.625.379s.307.365.406.602.162.504.188.801h-1.094a1.765 1.765 0 00-.078-.446.795.795 0 00-.176-.316.681.681 0 00-.289-.192 1.152 1.152 0 00-.414-.066.859.859 0 00-.441.109.886.886 0 00-.313.321c-.081.14-.14.313-.179.519a3.63 3.63 0 00-.059.696v.773c0 .56.078.974.234 1.242.159.268.409.403.75.403.287 0 .513-.076.68-.227.167-.154.259-.401.277-.742h1.098zm3.488-3.907h1.102V32h-1.102v-3.629L50.75 32h-1.098v-5.688h1.098v3.633l1.613-3.633zm6.121 3.907c-.018.286-.08.544-.187.773a1.775 1.775 0 01-1.055.961 2.435 2.435 0 01-.812.129c-.336 0-.634-.061-.895-.184a1.863 1.863 0 01-.656-.519 2.374 2.374 0 01-.406-.805 3.565 3.565 0 01-.141-1.031v-.766c0-.377.05-.722.148-1.035.099-.312.24-.581.422-.804.183-.224.403-.398.66-.52.261-.125.553-.188.876-.188.312 0 .589.045.832.133.244.089.453.215.625.379.171.164.307.365.406.602s.161.504.187.801h-1.093a1.807 1.807 0 00-.079-.446.794.794 0 00-.175-.316.687.687 0 00-.289-.192 1.16 1.16 0 00-.414-.066.86.86 0 00-.442.109.876.876 0 00-.312.321c-.081.14-.141.313-.18.519a3.712 3.712 0 00-.059.696v.773c0 .56.078.974.235 1.242.159.268.409.403.75.403.286 0 .513-.076.679-.227.167-.154.259-.401.278-.742h1.097zm5.036-3.012h-1.754V32h-1.102v-4.793h-1.73v-.895h4.586v.895zm4.125 2.301h-2.336v1.605h2.73V32h-3.832v-5.688h3.82v.895h-2.718v1.434h2.336v.867zm2.652-3.196l.539 2.137.613-2.137h1.363V32h-1.007v-1.684l.047-2.66-.747 2.469h-.543l-.667-2.363.046 2.554V32h-1.007v-5.688h1.363z" fill="#fff"/></svg>