<svg data-name="Layer 1" xmlns="http://www.w3.org/2000/svg" width="101" height="101"><defs><clipPath id="a"><path fill="none" d="M0 0h101v101H0z"/></clipPath></defs><g clip-path="url(#a)" fill="none"><path d="M101 0H0v101h101V0z" fill="#566e78"/><path d="M80.518 51.03a2.825 2.825 0 100-5.65 2.825 2.825 0 000 5.65z" fill="#fff"/><path d="M83.872 52.09c1.943.176 3.355 1.765 3.355 3.707v7.77c0 .53-.53 1.059-1.06 1.059-.529 0-1.059-.53-1.059-1.06v-6.71c0-.176 0-.53-.53-.53-.352 0-.352.354-.352.53V76.81c0 .882-.707 1.589-1.59 1.589a1.584 1.584 0 01-1.589-1.59V65.333c0-.176 0-.53-.353-.53s-.353.354-.53.53V76.81c0 .882-.706 1.589-1.589 1.589s-1.589-.707-1.589-1.59V56.858c0-.177 0-.53-.353-.53-.53 0-.53.353-.53.53v6.71c0 .53-.53 1.059-1.06 1.059s-1.059-.53-1.059-1.06v-7.592c0-1.942 1.59-3.532 3.355-3.708h6.18c.177-.177.353-.177.353-.177z" fill="#fff" fill-rule="evenodd"/><path d="M58.622 52.266a2.649 2.649 0 100-5.297 2.649 2.649 0 000 5.297z" fill="#fff"/><path d="M53.149 55.62l-2.119 7.24s-.353 1.413.706 1.59c1.06.352 1.413-.883 1.413-.883l1.766-6.004s0-.53.353-.353c.353.176.176.53.176.53l-3.178 11.3h2.825v7.946c0 .706.707 1.413 1.413 1.413.706 0 1.413-.707 1.413-1.413V69.04h.706v7.946c0 .706.53 1.413 1.412 1.413.707 0 1.413-.707 1.413-1.413V69.04h2.825l-3.178-11.3s-.177-.53.176-.53c.354-.177.354.353.354.353l1.765 6.004s.353 1.235 1.413.882c1.06-.353.706-1.589.706-1.589l-2.119-7.24s-.883-2.118-2.472-2.118h-5.65c-1.413.176-2.119 2.119-2.119 2.119z" fill="#fff" fill-rule="evenodd"/><path d="M42.73 52.266a2.649 2.649 0 100-5.297 2.649 2.649 0 000 5.297z" fill="#fff"/><path d="M37.257 55.62l-2.118 7.24s-.354 1.413.706 1.59c1.06.352 1.412-.883 1.412-.883l1.766-6.004s0-.53.353-.353c.353.176.177.53.177.53l-3.178 11.3H39.2v7.946c0 .706.53 1.413 1.412 1.413.707 0 1.413-.707 1.413-1.413V69.04h.706v7.946c0 .706.53 1.413 1.413 1.413.706 0 1.412-.707 1.412-1.413V69.04h2.826l-3.179-11.3s-.176-.53.177-.53c.353-.177.353.353.353.353l1.766 6.004s.353 1.235 1.412.882c1.06-.353.707-1.589.707-1.589l-2.12-7.24s-.706-2.118-2.471-2.118h-5.65c-1.413.176-2.12 2.119-2.12 2.119zM70.1 64.45c1.236 0 2.296-.884 2.296-2.12s-1.06-2.119-2.296-2.119c-1.236 0-2.295.883-2.295 2.12s1.06 2.118 2.295 2.118zm-5.298 6.886c-.177.176-.177.882.353 1.059.706.353.883-.353.883-.353l1.236-3.708s.177-.353.177 0v8.828c0 .707.53 1.06 1.059 1.06.706 0 1.06-.53 1.06-1.06v-3.531s0-.53.353-.53.353.53.353.53v3.531c0 .707.53 1.06 1.06 1.06.705 0 1.059-.53 1.059-1.06v-8.828c0-.353.176 0 .176 0l.883 2.648s.353 1.236.53 1.236c.353.177.883 0 1.06-.53.176-.176 0-.529-.177-.882 0 0-1.413-3.355-1.59-3.885-.53-1.412-1.412-1.412-2.295-1.412h-3.178c-1.236 0-1.59.706-2.825 3.884.353.353-.177 1.943-.177 1.943z" fill="#fff" fill-rule="evenodd"/><path d="M18.893 51.03a2.825 2.825 0 100-5.65 2.825 2.825 0 000 5.65z" fill="#fff"/><path d="M15.538 52.09c-1.942.176-3.354 1.765-3.354 3.707v7.77c0 .53.53 1.059 1.059 1.059.53 0 1.06-.53 1.06-1.06v-6.71c0-.176 0-.53.53-.53.352 0 .352.354.352.53V76.81c0 .882.707 1.589 1.59 1.589s1.589-.707 1.589-1.59V65.333c0-.176 0-.53.353-.53s.353.354.353.53V76.81c0 .882.706 1.589 1.59 1.589.882 0 1.588-.707 1.588-1.59V56.858c0-.177.177-.53.353-.53.53 0 .53.353.53.53v6.71c0 .53.53 1.059 1.06 1.059s1.059-.53 1.059-1.06v-7.592c0-1.942-1.413-3.532-3.355-3.708h-6.003q-.177-.177-.354-.177zM26.84 63.213c-.177-.176-.354-.353-.707-.353s-.706.353-.706.883v.353l2.119 4.061s.176.353.176.53v8.652c0 .706.53 1.06 1.06 1.06s1.06-.53 1.06-1.06v-3.355s0-.53.352-.53c.353 0 .353.53.353.53v3.355c0 .706.53 1.06 1.06 1.06s1.06-.53 1.06-1.06v-8.652c0-.177.176-.53.176-.53l2.119-3.708s.176-.53.176-.706c0-.353-.353-.883-.706-.883s-.53.177-.706.353c0 0-1.06 1.943-1.413 2.296-.353.353-.706.353-.706.353h-2.825s-.354 0-.707-.353c-.176-.353-1.06-2.12-1.236-2.296z" fill="#fff" fill-rule="evenodd"/><path d="M30.37 64.45c1.237 0 2.12-.884 2.12-2.12s-.883-2.119-2.12-2.119c-1.235 0-2.118.883-2.118 2.12s.883 2.118 2.119 2.118zm0 3.178l2.296 1.765 1.236 4.415h-7.24l1.236-4.415 2.472-1.765zM14.126 13.243v15.538h3.532V8.476h-2.825l-3.179 3.708v3.531l2.472-2.472zm15.891-1.413v5.298h-1.236V8.652h1.413l1.589 4.944V8.652h1.236v8.476h-1.236l-1.766-5.298zm3.885 3.179v-4.061c0-1.413.707-2.296 2.12-2.296 1.412 0 2.118.883 2.118 2.296v4.06c0 1.413-.706 2.296-2.119 2.296-1.412 0-2.119-.883-2.119-2.295zm2.826.353V10.77c0-.53-.177-.883-.707-.883s-.706.353-.706.883v4.59c0 .53.177.884.706.884.53 0 .707-.353.707-.883zm-7.947 5.474h2.12c1.588 0 2.118.706 2.118 1.942v1.766c0 1.236-.53 1.942-2.119 1.942h-.706v2.825H28.78v-8.475zm1.59 1.06v3.354h.53c.529 0 .705-.177.705-.706V22.6c0-.53-.176-.706-.706-.706h-.53zm3.355 5.12v-4.061c0-1.413.706-2.296 2.295-2.296 1.59 0 2.296.883 2.296 2.296v4.06c0 1.413-.707 2.296-2.296 2.296-1.59 0-2.295-1.06-2.295-2.295zm3.001.176v-4.59c0-.53-.176-.883-.706-.883s-.706.353-.706.882v4.591c0 .53.176.883.706.883s.706-.353.706-.883zm6.533-6.356l-1.589 8.475h-1.765l-1.59-8.475h1.59l.882 5.827 1.06-5.827h1.413zm.53 0h3.531v1.06h-2.118v2.471h1.412v1.06h-1.412v2.648h2.118v1.236H43.79v-8.475zm5.65 4.591v3.884h-1.412v-8.475h2.12c1.588 0 2.118.706 2.118 1.942v1.06c0 .882-.353 1.412-1.236 1.589l1.413 3.884h-1.59l-1.412-3.884zm0-3.532v2.649h.53c.53 0 .707-.177.707-.707v-1.236c0-.53-.177-.706-.706-.706h-.53zm3.18-1.059h3.707v1.06h-1.236v7.415H53.68v-7.416h-1.06v-1.06zm7.062 5.12v3.355h-1.413v-3.355l-1.413-5.12h1.413l.706 3.178h.177l.706-3.178h1.413l-1.59 5.12z" fill="#fff" fill-rule="evenodd"/><path fill="#566e78" d="M24 7h54v28H24z"/><path d="M29.309 9.313V15h-1.102v-4.797h-1.176l-.02 2.086a6.963 6.963 0 01-.116 1.262 2.608 2.608 0 01-.297.84c-.13.213-.293.368-.489.465a1.528 1.528 0 01-.683.144h-.274v-.883h.157a.555.555 0 00.304-.113.618.618 0 00.18-.305c.044-.14.074-.324.09-.55.015-.23.026-.516.031-.86l.023-2.976h3.372zm3.64 0h1.102V15h-1.102v-3.629L31.336 15h-1.098V9.312h1.098v3.633l1.613-3.633zm3.805 3.351h-.457V15h-1.098V9.312h1.098v2.504h.27l1.488-2.504h1.27l-1.696 2.739L39.39 15h-1.274l-1.363-2.336zM39.918 15V9.312h1.91c.31 0 .591.032.844.094.255.063.473.158.652.285.18.128.318.29.414.485.1.195.149.426.149.691a1.283 1.283 0 01-.215.715 1.278 1.278 0 01-.613.48 1.3 1.3 0 01.425.188c.12.083.22.182.297.297.081.112.14.236.176.371.04.133.059.27.059.414 0 .274-.047.514-.141.723s-.228.383-.402.523c-.175.14-.387.246-.637.316s-.531.106-.844.106h-2.074zm1.102-2.508v1.621h.976c.3-.002.527-.075.684-.219a.738.738 0 00.238-.57c.003-.26-.068-.463-.211-.61-.143-.145-.365-.22-.664-.222H41.02zm0-.793h.816c.305-.002.539-.066.703-.191.164-.125.247-.309.25-.551 0-.266-.082-.456-.246-.57-.164-.118-.401-.177-.711-.18h-.812v1.492zm6.343-2.386h1.102V15h-1.102v-3.629L45.75 15h-1.098V9.312h1.098v3.633l1.613-3.633zm6.032 7.085h-.946V15h-2.152v1.398h-.926l-.172-2.28h.211a.968.968 0 00.313-.262c.088-.113.162-.264.222-.454.06-.192.108-.43.145-.714.036-.287.062-.636.078-1.047l.156-2.328h2.809v4.804h.418l-.156 2.281zm-2.125-4.757c-.013.304-.033.58-.06.828a7.195 7.195 0 01-.093.675 4.47 4.47 0 01-.137.543 3.32 3.32 0 01-.171.43h1.23v-3.914h-.676l-.093 1.438zm5.867 2.172H55.43L55.094 15h-1.157l1.864-5.688h.996L58.625 15h-1.156l-.332-1.188zm-1.438-.934h1.18l-.582-2.094-.598 2.094zm3.36-3.566h1.093v4.804h1.551V9.312h1.102v4.81h.738l-.078 2.25h-1.016V15h-3.39V9.312zm7.523 0h1.102V15h-1.102v-3.629L64.969 15H63.87V9.312h1.098v3.633l1.613-3.633zM71.215 15v-2.238h-.88L69.266 15H68.09l1.23-2.57a1.722 1.722 0 01-.691-.578 1.56 1.56 0 01-.234-.868c0-.273.048-.514.144-.722.096-.209.234-.383.414-.524.182-.14.402-.246.66-.316.258-.073.547-.11.867-.11h1.836V15h-1.101zm-1.723-3.95c0 .298.082.518.246.66.164.142.412.212.742.212h.735v-1.719h-.735c-.338 0-.588.074-.75.223-.158.148-.238.357-.238.625zM29.266 24H28.18v-2.465h-1.61V24h-1.09v-5.688h1.09v2.333h1.61v-2.332h1.086V24zm3.683-5.688h1.102V24h-1.102v-3.629L31.336 24h-1.098v-5.688h1.098v3.633l1.613-3.632zm3.047 0v4.805h.547v-4.805h1.035v4.805h.54v-4.805h1.066v4.817h.504l-.079 2.238h-1.004V24h-3.68v-5.688h1.071zm7.43 3.196H41.09v1.605h2.73V24h-3.832v-5.688h3.82v.895H41.09v1.434h2.336v.867zm5.484-2.301h-1.754V24h-1.101v-4.793h-1.73v-.895h4.585v.895zm1.5 1.418h.246c.237 0 .447.04.63.121.181.078.334.19.456.336.125.146.219.322.281.527.066.203.098.431.098.684 0 .25-.035.48-.105.691a1.48 1.48 0 01-.305.54 1.378 1.378 0 01-.5.351 1.75 1.75 0 01-.684.125h-1.215v-5.688h1.098v2.313zM53.523 24h-1.097v-5.688h1.097V24zm-3.113-2.527v1.683h.18a.306.306 0 00.2-.066.486.486 0 00.136-.188c.036-.08.062-.173.078-.277a2.352 2.352 0 000-.66.884.884 0 00-.078-.258.447.447 0 00-.133-.172.325.325 0 00-.203-.062h-.18z" fill="#fff"/></g></svg>