<svg data-name="Layer 1" xmlns="http://www.w3.org/2000/svg" width="101" height="101"><path d="M101.029 0h-101v101h101V0z" fill="#566e78"/><path d="M72.029 67.411c0-5.572-4.62-10.168-10.394-10.447C60.19 52.925 56.149 50 51.529 50s-8.662 2.925-10.106 6.964c-5.774.14-10.394 4.736-10.394 10.447 0 3.343 1.588 6.268 4.187 8.218-.29.975-.433 1.95-.433 2.925C34.783 84.264 39.69 89 45.61 89c2.31 0 4.33-.696 6.063-1.811C53.406 88.304 55.427 89 57.592 89c5.919 0 10.828-4.596 10.828-10.446 0-.975-.145-1.95-.433-2.786 2.454-2.089 4.042-5.014 4.042-8.357zm-11.982-6.965c0 4.179-3.176 7.661-7.363 8.218 0-.418-.144-.835-.144-1.253 0-4.179 3.176-7.661 7.362-8.218.145.418.145.836.145 1.253zm-8.518 23.958c-1.588-1.533-2.6-3.622-2.6-5.99 0-2.228 1.012-4.318 2.6-5.85 1.588 1.532 2.599 3.622 2.599 5.99 0 2.228-1.011 4.317-2.6 5.85zM43.01 59.193c4.187.557 7.363 4.039 7.363 8.218 0 .418 0 .835-.144 1.253-4.187-.557-7.363-4.039-7.363-8.218 0-.417.144-.835.144-1.253zm6.353 11.978c-1.444 2.647-4.331 4.597-7.652 4.597-1.444 0-2.743-.279-3.898-.975 1.444-2.786 4.33-4.597 7.652-4.597 1.443 0 2.743.279 3.898.975zm4.186-.139c1.155-.557 2.599-.975 4.042-.975 3.32 0 6.353 1.95 7.652 4.597-1.155.557-2.6.975-4.042.975-3.321.139-6.208-1.811-7.652-4.597zm-2.021-18.803c3.465 0 6.497 2.089 7.94 5.014-3.465.557-6.496 2.786-7.94 5.85-1.444-3.064-4.331-5.293-7.94-5.85 1.299-2.925 4.33-5.014 7.94-5.014zM33.194 67.411c0-4.318 3.32-7.8 7.652-8.218 0 .418-.144.836-.144 1.393 0 3.064 1.299 5.71 3.464 7.66-3.61.418-6.641 2.508-8.23 5.433-1.731-1.672-2.742-3.761-2.742-6.268zm3.754 11.143c0-.558 0-1.115.144-1.672 1.444.697 3.032.975 4.62.975 1.877 0 3.609-.418 5.197-1.253-.144.557-.144 1.253-.144 1.95 0 2.785 1.155 5.432 3.032 7.242-1.3.697-2.743 1.115-4.331 1.115-4.764-.14-8.518-3.9-8.518-8.357zm29.162-.14c0 4.597-3.898 8.357-8.662 8.357-1.588 0-3.032-.417-4.187-1.114 1.877-1.811 2.888-4.318 2.888-7.103 0-.697 0-1.393-.145-1.95 1.588.835 3.32 1.253 5.198 1.253 1.732 0 3.32-.418 4.619-1.114.289.557.289 1.114.289 1.671zm-7.218-10.307c2.165-1.95 3.464-4.596 3.464-7.661 0-.417 0-.835-.144-1.392 4.33.417 7.652 4.039 7.652 8.217 0 2.368-1.155 4.597-2.888 6.129-1.588-2.786-4.62-4.875-8.084-5.293zM15.214 8.49v20.342h-3.355V13.266l-2.472 2.477v-3.538l3.179-3.715h2.648zm1.589 0h8.653v3.184l-4.591 17.158H17.51l4.59-17.511h-5.297V8.49zm16.069-.177h2.119c1.412 0 1.942.708 1.942 1.946v1.769c0 1.238-.53 1.946-1.942 1.946h-.707v2.83h-1.412V8.313zm1.412 1.062v3.36h.53c.53 0 .706-.176.706-.707v-1.946c0-.53-.176-.707-.706-.707h-.53zm2.649 7.429l1.589-8.491h1.59l1.589 8.491h-1.413l-.353-1.592h-1.59l-.176 1.592h-1.236zm1.766-2.83h1.236l-.53-3.361-.706 3.361zm5.12-1.062v3.892h-1.412V8.313h2.119c1.412 0 1.942.708 1.942 1.946v1.061c0 .885-.353 1.415-1.06 1.592l1.413 3.892h-1.412l-1.59-3.892zm0-3.537v2.653h.53c.53 0 .707-.177.707-.708v-1.238c0-.53-.177-.707-.707-.707h-.53zm3.179-1.062h3.884v1.062h-1.236v7.429h-1.412V9.375h-1.236V8.313zm5.65 3.007v5.484h-1.06V8.313h1.237l1.589 4.776V8.313h1.059v8.491h-1.06l-1.765-5.484zm3.708-3.007h3.355v1.062h-1.942v2.476h1.412v1.061h-1.412v2.654h1.942v1.238h-3.355V8.313zm5.65 4.599v3.892h-1.413V8.313h2.119c1.413 0 1.943.708 1.943 1.946v1.061c0 .885-.353 1.415-1.06 1.592l1.413 3.892h-1.413l-1.59-3.892zm0-3.537v2.653h.53c.529 0 .706-.177.706-.708v-1.238c0-.53-.177-.707-.706-.707h-.53zm3.354 5.66v-1.061h1.237v1.238c0 .53.177.707.706.707.354 0 .707-.353.707-.707v-.354c0-.531-.177-.707-.53-1.238l-.883-.885c-.883-.707-1.236-1.238-1.236-2.299v-.354c0-1.061.53-1.945 1.942-1.945 1.413 0 1.943.707 1.943 1.945v.708H68.01v-.708c0-.53-.177-.707-.707-.707-.353 0-.706.177-.706.707v.177c0 .531.353.708.706 1.061l.883.885c.707.884 1.06 1.238 1.06 2.122v.354c0 1.238-.707 1.946-2.12 1.946-1.412 0-1.765-.531-1.765-1.592zm7.594-2.123H71.54v3.892h-1.412V8.313h1.412v3.538h1.413V8.313h1.412v8.491h-1.412v-3.892z" fill="#fff" fill-rule="evenodd"/><path d="M76.662 8.313H75.25v8.491h1.412V8.313z" fill="#fff"/><path d="M77.368 8.313h2.119c1.412 0 2.119.708 2.119 1.946v1.769c0 1.238-.53 1.946-2.12 1.946h-.706v2.83h-1.412V8.313zm1.412 1.062v3.36h.53c.53 0 .706-.176.706-.707v-1.946c0-.53-.176-.707-.706-.707h-.53zm3.532 5.66v-1.061h1.236v1.238c0 .53.177.707.706.707.353 0 .707-.353.707-.707v-.354c0-.531-.177-.707-.707-1.238l-.883-.885c-.882-.707-1.236-1.238-1.236-2.299v-.354c0-1.061.53-1.945 1.943-1.945 1.412 0 1.942.707 1.942 1.945v.708h-1.236v-.708c0-.53-.177-.707-.706-.707-.353 0-.707.177-.707.707v.177c0 .531.177.708.707 1.061l.883.885c.706.884 1.059 1.238 1.059 2.122v.354c0 1.238-.53 1.946-2.12 1.946s-1.588-.531-1.588-1.592zm-49.44 5.129h3.355v1.239h-1.943v2.476h1.413v1.061h-1.413v3.892h-1.412v-8.668zm3.885 6.368v-4.068c0-1.415.706-2.3 2.295-2.3s2.295 1.062 2.295 2.3v4.068c0 1.415-.706 2.3-2.295 2.3s-2.295-1.062-2.295-2.3zm2.825.177V22.11c0-.53-.177-.884-.707-.884s-.706.354-.706.884v4.599c0 .531.177.885.706.885.53 0 .707-.354.707-.885zm3.884-1.946v4.069h-1.413v-8.668h2.119c1.413 0 1.943.708 1.943 1.946v1.061c0 .885-.354 1.592-1.06 1.769l1.413 3.892h-1.413l-1.59-4.069zm0-3.36v2.653h.53c.529 0 .706-.354.706-.708V22.11c0-.53-.177-.707-.706-.707h-.53zm4.414-1.239h3.885v1.239h-1.236v7.429h-1.412v-7.429H47.88v-1.239zm7.24 4.776h-1.413v3.892h-1.412v-8.668h1.412v3.715h1.413v-3.715h1.412v8.668H55.12V24.94zm2.296-4.776h3.355v1.239h-1.943v2.476h1.413v1.061h-1.413v2.654h1.943v1.238h-3.355v-8.668zm7.769 4.069h2.119v4.599h-1.236v-.885c-.177.708-.53 1.062-1.413 1.062-1.236 0-1.766-.885-1.766-2.3v-4.068c0-1.415.707-2.3 2.119-2.3 1.589 0 2.119.885 2.119 2.123v.708h-1.413v-.885c0-.53-.176-.884-.706-.884s-.706.354-.706.884v4.422c0 .531.176.885.706.885s.706-.177.706-.885v-1.592h-.706v-.884h.177zm2.648 2.299v-4.068c0-1.415.706-2.3 2.295-2.3s2.296 1.062 2.296 2.3v4.068c0 1.415-.707 2.3-2.296 2.3s-2.295-1.062-2.295-2.3zm3 .177V22.11c0-.53-.175-.884-.705-.884s-.706.354-.706.884v4.599c0 .531.176.885.706.885s.706-.354.706-.885zm1.944 2.123l1.589-8.668h1.589l1.59 8.668h-1.413l-.177-1.592h-1.59l-.175 1.592h-1.413zm1.766-2.83h1.059l-.53-3.538-.53 3.538zm3.532-5.838h1.413v7.43h1.765v1.238h-3.178v-8.668zm3.708 6.722v-1.061h1.236v1.238c0 .531.176.708.706.708.353 0 .706-.354.706-.708v-.354c0-.53-.176-.707-.706-1.238l-.883-.884c-.883-.708-1.236-1.238-1.236-2.3v-.353c0-1.062.53-1.946 1.942-1.946 1.413 0 1.943.707 1.943 1.946v.707h-1.236v-.707c0-.531-.177-.708-.707-.708-.353 0-.706.177-.706.708v.176c0 .531.353.708.706 1.062l.883.884c.707.885 1.06 1.238 1.06 2.123v.353c0 1.239-.53 1.946-2.12 1.946s-1.588-.53-1.588-1.592z" fill="#fff" fill-rule="evenodd"/><path fill="#566e78" d="M26.029 8h72v31h-72z"/><path d="M34.306 14h-1.097V9.203h-1.61V14h-1.097V8.312h3.804V14zm3.836-1.188h-1.707L36.099 14h-1.156l1.863-5.688h.996L39.63 14h-1.157l-.332-1.188zm-1.437-.933h1.179l-.582-2.094-.597 2.094zm4.613.035V14H40.22V8.312h1.946c.31 0 .59.046.84.137.25.089.462.214.636.375.177.159.313.35.407.574.096.224.144.473.144.747 0 .255-.048.49-.144.707-.094.216-.23.403-.407.562a1.87 1.87 0 01-.636.367c-.25.089-.53.133-.84.133h-.848zm0-.891h.848c.156 0 .29-.023.406-.07a.798.798 0 00.457-.469.956.956 0 00.059-.332c0-.132-.02-.256-.06-.371a.805.805 0 00-.456-.504 1.03 1.03 0 00-.406-.074h-.848v1.82zm7.816-1.816H47.38V14h-1.102V9.207h-1.73v-.895h4.585v.895zM53.513 14h-1.086v-2.465h-1.61V14h-1.09V8.312h1.09v2.333h1.61V8.312h1.086V14zm4.55-2.492h-2.335v1.605h2.73V14h-3.831V8.312h3.82v.895h-2.72v1.434h2.337v.867zm2.474.406V14h-1.098V8.312h1.945c.31 0 .59.046.84.137.25.089.463.214.637.375.177.159.313.35.406.574.097.224.145.473.145.747 0 .255-.048.49-.145.707a1.598 1.598 0 01-.406.562 1.875 1.875 0 01-.637.367c-.25.089-.53.133-.84.133h-.847zm0-.891h.847c.157 0 .292-.023.407-.07a.817.817 0 00.285-.191.759.759 0 00.172-.278.955.955 0 00.058-.332 1.15 1.15 0 00-.058-.371.818.818 0 00-.457-.504 1.03 1.03 0 00-.407-.074h-.847v1.82zm7.586 1.196a2.127 2.127 0 01-.188.773 1.775 1.775 0 01-1.054.961 2.441 2.441 0 01-.813.129c-.336 0-.634-.061-.894-.184a1.858 1.858 0 01-.657-.519 2.392 2.392 0 01-.406-.805 3.565 3.565 0 01-.141-1.031v-.766c0-.377.05-.722.149-1.035.099-.312.239-.581.422-.804.182-.224.402-.398.66-.52.26-.125.552-.188.875-.188.312 0 .59.045.832.133.245.089.453.215.625.379s.307.365.406.602.162.504.188.801h-1.094a1.862 1.862 0 00-.078-.446.795.795 0 00-.176-.316.687.687 0 00-.29-.192 1.16 1.16 0 00-.413-.066c-.17 0-.317.036-.442.109s-.23.18-.312.321c-.081.14-.141.313-.18.519a3.718 3.718 0 00-.058.696v.773c0 .56.078.974.234 1.242.159.268.409.403.75.403.287 0 .513-.076.68-.227.166-.154.259-.401.277-.742h1.098zm5.035-3.012h-1.754V14h-1.102V9.207h-1.73v-.895h4.586v.895zM73.775 14V8.312h1.91c.31 0 .59.032.844.094.255.063.473.158.652.285.18.128.318.289.414.485.099.195.149.426.149.691a1.284 1.284 0 01-.215.715 1.273 1.273 0 01-.613.48 1.3 1.3 0 01.425.188c.12.083.219.182.297.297.08.112.14.236.176.371a1.747 1.747 0 01-.082 1.137 1.403 1.403 0 01-.402.523 1.772 1.772 0 01-.637.317 3.13 3.13 0 01-.844.105h-2.074zm1.102-2.508v1.621h.976c.3-.002.528-.075.684-.218a.738.738 0 00.238-.571c.003-.26-.068-.463-.211-.609-.143-.146-.364-.22-.664-.223h-1.023zm0-.793h.816c.305-.002.539-.066.703-.191s.248-.309.25-.551c0-.266-.082-.456-.246-.57-.164-.117-.401-.177-.711-.18h-.812v1.492zm7.679.875c0 .365-.048.701-.144 1.008a2.343 2.343 0 01-.418.793 1.927 1.927 0 01-.668.52c-.261.122-.555.183-.883.183s-.62-.061-.875-.183a1.842 1.842 0 01-.644-.52 2.375 2.375 0 01-.4-.793 3.537 3.537 0 01-.136-1.008v-.828c0-.364.046-.7.137-1.008a2.32 2.32 0 01.399-.793 1.83 1.83 0 01.64-.523c.255-.125.547-.188.875-.188.33 0 .626.063.887.188a1.9 1.9 0 01.668.523c.182.222.32.486.418.793.096.308.144.644.144 1.008v.828zm-1.113-.836c0-.231-.02-.445-.06-.64a1.59 1.59 0 00-.174-.504.898.898 0 00-.313-.328.822.822 0 00-.457-.121.776.776 0 00-.734.449c-.073.14-.125.308-.156.504a3.968 3.968 0 00-.047.64v.836c0 .229.015.442.047.637.03.195.083.365.156.508a.874.874 0 00.289.336.79.79 0 00.449.121.823.823 0 00.453-.121.907.907 0 00.309-.332c.08-.144.14-.313.179-.508.04-.195.059-.409.059-.641v-.836zM30.533 23v-5.688h1.91c.31 0 .59.032.844.094.255.063.472.158.652.285.18.128.318.289.414.485.099.195.149.426.149.691a1.291 1.291 0 01-.215.715 1.278 1.278 0 01-.613.48 1.3 1.3 0 01.425.188c.12.083.219.182.297.297.08.112.14.236.176.371a1.747 1.747 0 01-.082 1.137 1.403 1.403 0 01-.402.523 1.772 1.772 0 01-.637.317 3.13 3.13 0 01-.844.105h-2.074zm1.1-2.508v1.621h.978c.3-.002.527-.075.684-.218a.742.742 0 00.238-.571c.003-.26-.068-.463-.211-.609-.143-.146-.365-.22-.664-.223h-1.024zm0-.793h.818c.305-.002.539-.066.703-.191s.247-.309.25-.551c0-.266-.082-.456-.246-.57-.164-.117-.401-.177-.711-.18h-.813v1.492zm11.15-2.387h1.1V23h-1.1v-3.629L41.17 23h-1.098v-5.688h1.098v3.633l1.613-3.633zM48.709 23h-1.086v-2.465h-1.61V23h-1.09v-5.688h1.09v2.333h1.61v-2.333h1.086V23zm5.23-4.793h-1.754V23h-1.101v-4.793h-1.731v-.895h4.586v.895zm4.125 2.301h-2.336v1.605h2.73V23h-3.831v-5.688h3.82v.895h-2.72v1.434h2.337v.867zm2.473.406V23h-1.098v-5.688h1.945c.31 0 .59.046.84.137.25.089.463.214.637.375.177.159.313.35.406.574.097.224.145.473.145.747 0 .255-.048.49-.145.707a1.598 1.598 0 01-.406.562 1.875 1.875 0 01-.637.367c-.25.089-.53.133-.84.133h-.847zm0-.891h.847c.157 0 .292-.023.407-.07a.817.817 0 00.285-.191.759.759 0 00.172-.278.955.955 0 00.058-.332 1.15 1.15 0 00-.058-.371.818.818 0 00-.457-.504 1.03 1.03 0 00-.407-.074h-.847v1.82zm7.137.485h-2.336v1.605h2.73V23h-3.832v-5.688h3.82v.895h-2.718v1.434h2.336v.867zm5.253.711c-.018.286-.08.544-.187.773a1.775 1.775 0 01-1.055.961 2.435 2.435 0 01-.812.129c-.336 0-.634-.061-.895-.184a1.863 1.863 0 01-.656-.519 2.372 2.372 0 01-.406-.805 3.565 3.565 0 01-.141-1.031v-.766c0-.377.05-.722.149-1.035.098-.312.239-.581.42-.804a1.9 1.9 0 01.662-.52c.26-.125.552-.188.875-.188.312 0 .589.045.832.133.244.089.453.215.625.379.17.164.307.365.406.602s.16.504.187.801h-1.093a1.81 1.81 0 00-.08-.446.794.794 0 00-.174-.316.687.687 0 00-.29-.192 1.16 1.16 0 00-.413-.066c-.17 0-.317.036-.442.109s-.23.18-.312.321c-.081.14-.141.313-.18.519a3.712 3.712 0 00-.06.696v.773c0 .56.08.974.236 1.242.159.268.409.403.75.403.286 0 .513-.076.679-.227.167-.154.26-.401.278-.742h1.097zm3.653.593h-1.707L74.537 23H73.38l1.863-5.688h.996L78.068 23h-1.156l-.332-1.188zm-1.438-.933h1.18l-.582-2.094-.598 2.094zm5.37-1.527l1.013-2.04h1.289l-1.601 2.821L82.853 23h-1.281l-1.043-2.07-1.04 2.07h-1.296l1.64-2.867-1.597-2.821h1.28l.997 2.04zm-48.405 8.914l.37 1.05 1.189-3.004h1.195l-2.023 4.61a3.122 3.122 0 01-.24.441 1.53 1.53 0 01-.764.625c-.17.063-.37.094-.598.094-.185 0-.35-.016-.492-.047a6.195 6.195 0 01-.344-.078l.07-.859.12.035.154.031a1.427 1.427 0 00.644-.004.797.797 0 00.243-.109.671.671 0 00.168-.168.964.964 0 00.113-.227l.109-.242-1.984-4.102h1.187l.883 1.954zm7.188 1.953a2.147 2.147 0 01-.188.773 1.775 1.775 0 01-1.055.961 2.431 2.431 0 01-.812.129c-.336 0-.634-.061-.895-.184a1.864 1.864 0 01-.656-.519 2.391 2.391 0 01-.406-.805 3.563 3.563 0 01-.141-1.031v-.766c0-.377.05-.722.149-1.035.099-.312.239-.581.422-.804.182-.224.402-.398.66-.52.26-.125.552-.188.875-.188.312 0 .59.045.832.133.245.089.453.215.625.379s.307.365.406.602c.099.237.16.504.188.801h-1.094a1.862 1.862 0 00-.078-.446.795.795 0 00-.176-.316.687.687 0 00-.29-.192 1.16 1.16 0 00-.413-.066.86.86 0 00-.442.109.875.875 0 00-.312.321c-.081.14-.141.313-.18.519a3.718 3.718 0 00-.058.696v.773c0 .56.078.974.234 1.242.159.268.409.403.75.403.286 0 .513-.076.68-.227.166-.154.259-.401.277-.742h1.098zm5.035-3.012h-1.754V32h-1.102v-4.793h-1.73v-.895h4.586v.895zm4.594 2.367c0 .365-.05.701-.145 1.008s-.236.572-.418.793a1.926 1.926 0 01-.668.52c-.26.122-.555.183-.883.183s-.62-.061-.875-.183a1.842 1.842 0 01-.644-.52 2.375 2.375 0 01-.4-.793 3.536 3.536 0 01-.135-1.008v-.828c0-.364.045-.7.136-1.008a2.32 2.32 0 01.399-.793 1.83 1.83 0 01.64-.523c.256-.125.547-.188.875-.188.33 0 .627.063.887.188a1.9 1.9 0 01.668.523c.182.222.322.486.418.793.096.308.145.644.145 1.008v.828zm-1.114-.836c0-.231-.02-.445-.058-.64a1.591 1.591 0 00-.176-.504.898.898 0 00-.313-.328.822.822 0 00-.457-.121.777.777 0 00-.734.449 1.64 1.64 0 00-.156.504 3.968 3.968 0 00-.047.64v.836c0 .229.015.442.047.637.03.195.083.365.156.508a.874.874 0 00.289.336c.12.08.27.121.449.121a.823.823 0 00.453-.121.907.907 0 00.309-.332c.08-.144.14-.313.18-.508.039-.195.058-.409.058-.641v-.836zm4.582-2.426h1.102V32h-1.102v-3.629L50.779 32H49.68v-5.688h1.098v3.633l1.613-3.633zm.496-1.48c0 .169-.031.324-.093.465a.983.983 0 01-.266.363 1.292 1.292 0 01-.418.235 1.756 1.756 0 01-.551.082c-.205 0-.39-.028-.554-.082a1.324 1.324 0 01-.422-.235 1.041 1.041 0 01-.266-.363 1.176 1.176 0 01-.09-.465h.78c0 .068.01.134.029.199a.471.471 0 00.097.168.493.493 0 00.168.113.683.683 0 00.258.043.633.633 0 00.25-.043.425.425 0 00.262-.281.641.641 0 00.03-.199h.786zm5.536 1.48V32h-1.102v-2.168a5.015 5.015 0 01-.211.051 5.524 5.524 0 01-.22.035c-.07.008-.138.014-.206.02a2.61 2.61 0 01-.937-.098 1.515 1.515 0 01-.582-.336 1.522 1.522 0 01-.371-.578 2.476 2.476 0 01-.13-.844v-1.77h1.098v1.77c0 .19.015.348.043.473a.748.748 0 00.14.3.525.525 0 00.235.157c.094.028.205.043.332.043.052 0 .11-.002.176-.004a5.53 5.53 0 00.203-.02c.073-.01.146-.022.219-.035.073-.013.143-.029.21-.047v-2.637h1.103zm3.578 0h1.1V32h-1.1v-3.629L60.388 32H59.29v-5.688h1.097v3.633l1.614-3.633zM64.166 32v-5.688h1.91c.31 0 .59.032.844.094.255.063.472.158.652.285.18.128.318.289.414.485.099.195.148.426.148.691a1.282 1.282 0 01-.214.715 1.276 1.276 0 01-.614.48c.164.042.306.105.426.188s.219.182.297.297c.08.112.139.236.176.371.039.133.058.271.058.414 0 .273-.046.514-.14.723a1.394 1.394 0 01-.403.523 1.759 1.759 0 01-.636.317c-.25.07-.532.105-.844.105h-2.074zm1.1-2.508v1.621h.978c.299-.002.527-.075.683-.218a.74.74 0 00.239-.571c.002-.26-.068-.463-.211-.609-.143-.146-.365-.22-.664-.223h-1.024zm0-.793h.818c.304-.002.539-.066.703-.191s.247-.309.25-.551c0-.266-.082-.456-.246-.57-.164-.117-.401-.177-.711-.18h-.813v1.492zm7.68.875c0 .365-.047.701-.144 1.008a2.307 2.307 0 01-.418.793 1.923 1.923 0 01-.667.52c-.261.122-.555.183-.883.183s-.62-.061-.875-.183a1.846 1.846 0 01-.645-.52 2.394 2.394 0 01-.398-.793 3.535 3.535 0 01-.137-1.008v-.828c0-.364.046-.7.137-1.008.09-.307.224-.571.398-.793a1.84 1.84 0 01.64-.523c.256-.125.548-.188.876-.188.33 0 .626.063.887.188.263.125.485.299.667.523.183.222.322.486.418.793.097.308.145.644.145 1.008v.828zm-1.112-.836c0-.231-.02-.445-.06-.64a1.565 1.565 0 00-.175-.504.896.896 0 00-.312-.328.824.824 0 00-.457-.121.78.78 0 00-.735.449c-.073.14-.125.308-.156.504a4.091 4.091 0 00-.047.64v.836c0 .229.016.442.047.637.03.195.083.365.156.508.073.143.17.255.289.336.12.08.27.121.45.121a.823.823 0 00.76-.453c.082-.144.142-.313.18-.508.04-.195.06-.409.06-.641v-.836zm5.668-1.535H74.92V32h-1.098v-5.688h3.68v.891zm5.054 2.371c0 .365-.048.701-.144 1.008a2.343 2.343 0 01-.418.793 1.927 1.927 0 01-.668.52c-.261.122-.555.183-.883.183s-.62-.061-.875-.183a1.842 1.842 0 01-.644-.52 2.375 2.375 0 01-.4-.793 3.537 3.537 0 01-.136-1.008v-.828c0-.364.046-.7.137-1.008a2.32 2.32 0 01.399-.793 1.83 1.83 0 01.64-.523c.255-.125.547-.188.875-.188.33 0 .626.063.887.188a1.9 1.9 0 01.668.523c.182.222.32.486.418.793.096.308.144.644.144 1.008v.828zm-1.113-.836c0-.231-.02-.445-.06-.64a1.59 1.59 0 00-.174-.504.898.898 0 00-.313-.328.822.822 0 00-.457-.121.776.776 0 00-.734.449c-.073.14-.125.308-.156.504a3.968 3.968 0 00-.047.64v.836c0 .229.015.442.047.637.03.195.083.365.156.508a.874.874 0 00.289.336.79.79 0 00.449.121.823.823 0 00.453-.121.907.907 0 00.309-.332c.08-.144.14-.313.179-.508.04-.195.059-.409.059-.641v-.836zM31.709 38.914V41H30.61v-5.688h1.945c.31 0 .59.046.84.137.25.089.462.214.637.375.177.159.312.35.406.574.097.224.145.473.145.747 0 .255-.048.49-.145.707a1.61 1.61 0 01-.406.562 1.886 1.886 0 01-.637.367c-.25.089-.53.133-.84.133h-.847zm0-.891h.847c.157 0 .292-.023.407-.07a.816.816 0 00.285-.191.759.759 0 00.172-.278.955.955 0 00.058-.332 1.15 1.15 0 00-.058-.371.819.819 0 00-.457-.504 1.03 1.03 0 00-.407-.074h-.847v1.82zm6.433 1.789h-1.707L36.099 41h-1.156l1.863-5.688h.996L39.63 41h-1.157l-.332-1.188zm-1.437-.933h1.179l-.582-2.094-.597 2.094zm7.426-2.024a1.266 1.266 0 01-.512 1 1.79 1.79 0 01-.371.223c.315.11.554.276.719.5.166.221.25.498.25.828a1.498 1.498 0 01-.614 1.239c-.19.14-.42.248-.687.324a3.282 3.282 0 01-.871.109c-.256 0-.508-.031-.758-.094a2.255 2.255 0 01-.676-.296 1.647 1.647 0 01-.484-.516 1.447 1.447 0 01-.184-.75h1.102a.673.673 0 00.277.551c.089.07.194.126.316.168.123.039.258.058.407.058.172 0 .324-.019.457-.058.132-.042.244-.099.336-.172a.744.744 0 00.207-.254.752.752 0 00.07-.32c0-.305-.086-.525-.258-.661-.17-.135-.42-.203-.75-.203h-.766v-.859h.766c.164 0 .304-.018.418-.055a.746.746 0 00.285-.164.613.613 0 00.164-.25.93.93 0 00.055-.328.725.725 0 00-.06-.289.626.626 0 00-.178-.242.884.884 0 00-.31-.16 1.349 1.349 0 00-.436-.063c-.131 0-.252.017-.364.051s-.21.082-.293.144a.759.759 0 00-.195.227.623.623 0 00-.07.297h-1.098c0-.25.053-.474.16-.672.11-.198.257-.366.442-.504s.398-.243.64-.316a2.61 2.61 0 01.778-.114c.315 0 .6.036.859.106.258.068.477.17.656.308.183.136.323.305.422.508.099.201.149.434.149.699zM44.947 41v-5.688h1.91c.31 0 .59.032.844.094.255.063.473.158.652.285.18.128.318.289.414.485.099.195.149.426.149.691a1.291 1.291 0 01-.215.715 1.278 1.278 0 01-.613.48 1.3 1.3 0 01.425.188c.12.083.219.182.297.297.08.112.14.236.176.371a1.747 1.747 0 01-.082 1.137 1.403 1.403 0 01-.402.523 1.773 1.773 0 01-.637.317 3.13 3.13 0 01-.844.105h-2.074zm1.102-2.508v1.621h.976c.3-.002.527-.075.684-.218a.738.738 0 00.238-.571c.003-.26-.068-.463-.211-.609-.143-.146-.365-.22-.664-.223h-1.023zm0-.793h.816c.305-.002.539-.066.703-.191s.247-.309.25-.551c0-.266-.082-.456-.246-.57-.164-.117-.401-.177-.711-.18h-.812v1.492zm6.343-2.387h1.102V41h-1.102v-3.629L50.779 41H49.68v-5.688h1.098v3.633l1.613-3.633zm6.352.895H56.99V41h-1.102v-4.793h-1.73v-.895h4.586v.895zm3.258-.895h1.1V41h-1.1v-3.629L60.388 41H59.29v-5.688h1.097v3.633l1.614-3.633zM66.634 41v-2.238h-.878L64.685 41h-1.176l1.23-2.57a1.718 1.718 0 01-.69-.578c-.157-.24-.235-.529-.235-.868 0-.273.048-.514.145-.722.096-.209.234-.383.414-.524.182-.14.402-.246.66-.316.258-.073.547-.11.867-.11h1.836V41h-1.102zm-1.722-3.949c0 .297.082.517.246.66.164.141.41.211.742.211h.734v-1.719H65.9c-.338 0-.588.074-.75.223-.16.148-.238.357-.238.625z" fill="#fff"/></svg>