<svg data-name="Layer 1" xmlns="http://www.w3.org/2000/svg" width="101" height="101"><path d="M101.285 0H.227v101h101.058V0z" fill="#566e78"/><path d="M67.363 44.751s-.883 1.415-.706 2.654c.353 1.238 1.766 2.122 1.766 2.122s.883-1.415.707-2.653c-.353-1.415-1.767-2.123-1.767-2.123zm-1.766 7.429s.884-1.238.707-2.476c-.354-1.238-1.767-1.946-1.767-1.946s-1.06 1.238-.706 2.477c.353 1.238 1.766 1.945 1.766 1.945zm4.24-1.415s1.06 1.062 2.12.885c1.237-.177 2.12-1.415 2.12-1.415s-1.06-1.062-2.12-1.062c-1.237.354-2.12 1.592-2.12 1.592zm1.589-5.66c-.883 1.061-.883 2.83-.883 2.83s1.59.177 2.65-.884c.884-1.061.884-2.83.884-2.83s-1.767 0-2.65.884zm-2.119 9.552c1.236.177 2.473-.885 2.473-.885s-.883-1.238-2.12-1.415c-1.236-.177-2.473.885-2.473.885s.883 1.238 2.12 1.415zm1.059 18.926h-8.833a1.21 1.21 0 00-1.237 1.238c0 .708.53 1.238 1.237 1.238h8.833c.708 0 1.237-.53 1.237-1.238.177-.707-.53-1.238-1.237-1.238zm0 13.797h-8.833a1.21 1.21 0 00-1.237 1.238c0 .708.53 1.238 1.237 1.238h8.833c.708 0 1.237-.53 1.237-1.238.177-.707-.53-1.238-1.237-1.238zM30.791 70.576c-.177 0-.352-.177-.352-.177s.175.177.352.177z" fill="#fff" fill-rule="evenodd"/><path d="M70.19 77.121h-8.128c-.352 0-.706.354-.706.707v2.477l-5.3.53-7.774-.176v-4.776c1.06-.177 2.12-.354 3.18-.708 7.421-2.122 9.188-6.721 9.01-11.143-.176-4.423 1.238-6.014 3.181-6.899.53-.177 1.06-.354 1.59-.354 0 1.062.177 2.3.707 3.892h.53c-.53-1.592-.707-2.83-.707-3.892 1.06-.177 1.767 0 1.767 0s-.707-.353-1.767-1.238c.353-2.122 1.59-3.361 2.827-4.599.706-.707 1.413-1.415 1.943-2.299l-.353-.354c-.53.884-1.236 1.592-1.944 2.299-1.237 1.239-2.473 2.654-3.003 4.599-.353-.353-.883-.707-1.237-1.238-1.944-2.122-4.24-.53-7.597 2.653-3.357 3.184-7.596 3.361-11.837-1.061-5.477-5.66-10.247-5.66-13.604-5.306 2.297 1.061 3.003 3.007 4.24 8.49 1.237 5.66 4.24 8.137 8.304 8.49-1.943.354-2.474.531-5.477 2.654-2.473 1.592-5.83 1.061-7.067.884 2.474.708 5.477 3.361 8.127 4.422 1.59.531 3.18.885 4.947 1.061v4.599l-14.84-.353v3.184l26.854-.531 5.3.531v2.476c0 .354.354.707.706.707h8.128c.353 0 .707-.353.707-.707v-8.137c0-.707-.354-.884-.707-.884zM45.102 76.06h1.766v4.599h-1.766V76.06zm-16.784 6.721c0 .708-.352 1.238-.883 1.238h-.53c-.53 0-1.06-.53-1.06-1.238v-2.299c0-.708.353-1.239 1.06-1.239h.53c.53 0 .883.531.883 1.239v2.299zM8.178 12.205v3.538l2.297-2.477v15.566h3.357V8.49H11.18l-3.003 3.715zm17.667 11.674v-3.007c0-3.361-1.237-5.13-3.71-5.13-1.413 0-2.296.708-2.827 1.592v-4.422c0-1.238.354-2.122 1.59-2.122 1.237 0 1.59.707 1.59 1.945v1.592h3.18v-1.061c0-3.007-1.06-5.129-4.77-5.129-3.533 0-4.946 2.299-4.946 5.483v9.905c0 3.184 1.413 5.484 4.947 5.484 3.533 0 4.946-1.946 4.946-5.13zm-3.357.354c0 1.238-.53 2.122-1.59 2.122s-1.59-.884-1.59-2.122v-3.715c0-1.061.53-1.945 1.59-1.945 1.237 0 1.59.707 1.59 2.122v3.538zm9.718-15.92h2.12c1.413 0 1.944.708 1.944 1.946v1.769c0 1.238-.531 1.946-1.945 1.946h-.706v2.83h-1.413V8.313zm1.413 1.062v3.36h.53c.53 0 .707-.176.707-.707v-1.946c0-.53-.177-.707-.707-.707h-.53zm3.356-1.062h3.357v1.062H38.39v2.476h1.41v1.061h-1.41v2.654h1.943v1.238h-3.357V8.313zm4.065 8.491l1.59-8.491h1.59l1.59 8.491h-1.414l-.176-1.592h-1.59l-.178 1.592H41.04zm1.766-2.83h1.237l-.53-3.361-.707 3.361zm3.534.707v-4.068c0-1.415.53-2.3 2.12-2.3s1.943.885 1.943 2.123v1.061h-1.236v-1.061c0-.531-.177-.884-.707-.884s-.707.353-.707.884v4.599c0 .531.177.884.707.884s.707-.353.707-.884v-1.592h1.236v1.415c0 1.238-.53 2.123-1.943 2.123-1.59 0-2.12-1.062-2.12-2.3zm4.77-6.368h3.356v1.062h-1.943v2.476h1.413v1.061h-1.413v2.654h1.943v1.238H51.11V8.313zm5.829 7.253l-.707 1.768h-.883l.177-1.945h1.413v.177zm5.831-7.253v6.722c0 1.238-.53 2.123-1.943 2.123-1.414 0-1.944-.885-1.944-1.946v-1.769h1.414v1.769c0 .354.176.707.53.707.353 0 .53-.177.53-.707V8.313h1.413zm4.948 0v6.545c0 1.415-.53 2.123-1.944 2.123-1.413 0-2.12-.885-2.12-2.123V8.313h1.413v6.722c0 .531.177.884.707.884s.707-.353.707-.884V8.313h1.237zm.882 6.722v-1.061h1.237v1.238c0 .53.177.707.706.707.354 0 .708-.353.708-.707v-.354c0-.531-.177-.707-.708-1.238l-.883-.885c-.883-.707-1.237-1.238-1.237-2.299v-.354c0-1.061.53-1.945 1.944-1.945 1.413 0 1.944.707 1.944 1.945v.708h-1.237v-.708c0-.53-.177-.707-.707-.707-.353 0-.707.177-.707.707v.177c0 .531.177.708.707 1.061l.884.885c.706.884 1.06 1.238 1.06 2.122v.354c0 1.238-.53 1.946-2.12 1.946-1.591 0-1.591-.531-1.591-1.592zm4.416-6.722h3.71v1.062h-1.06v7.429h-1.413V9.375h-1.237V8.313z" fill="#fff" fill-rule="evenodd"/><path d="M78.847 8.313h-1.414v8.491h1.414V8.313z" fill="#fff"/><path d="M79.73 14.681v-4.068c0-1.415.53-2.3 2.12-2.3s1.944.885 1.944 2.123v1.061h-1.237v-1.061c0-.531-.177-.884-.706-.884-.531 0-.708.353-.708.884v4.599c0 .531.177.884.708.884.53 0 .706-.353.706-.884v-1.592h1.237v1.415c0 1.238-.53 2.123-1.943 2.123-1.414 0-2.12-1.062-2.12-2.3zm4.947-6.368h3.357v1.062h-1.943v2.476h1.414v1.061H86.09v2.654h1.943v1.238h-3.357V8.313zM31.852 28.832l1.59-8.668h1.59l1.59 8.668H35.21l-.353-1.592h-1.59l-.177 1.592h-1.237zm1.767-2.83h1.237l-.53-3.538-.707 3.538zm4.947-2.654v5.484h-1.237v-8.668h1.412l1.591 4.953v-4.953h1.237v8.668h-1.237l-1.766-5.484zm8.127-.884v4.068c0 1.415-.53 2.3-2.12 2.3h-2.12v-8.668h2.12c1.59 0 2.12.885 2.12 2.3zm-2.297 5.13c.53 0 .883-.354.883-.885V22.11c0-.53-.176-.884-.883-.884h-.53v6.368h.53zm4.24-.708v-1.061h1.414v1.238c0 .531.177.708.706.708.53 0 .708-.354.708-.708v-.354c0-.53-.177-.707-.708-1.238l-.883-.884c-.883-.708-1.237-1.238-1.237-2.3v-.353c0-1.062.707-1.946 2.12-1.946 1.414 0 2.12.707 2.12 1.946v.707h-1.412v-.707c0-.531-.177-.708-.708-.708-.353 0-.706.177-.706.708v.176c0 .531.353.708.706 1.062l.883.884c.885.885 1.237 1.238 1.237 2.123v.353c0 1.239-.706 1.946-2.12 1.946-1.59.354-2.12-.53-2.12-1.592zm4.594-6.722h3.886v1.062H55.88v7.606h-1.414v-7.606h-1.237v-1.062zm5.83 4.599v4.069h-1.414v-8.668h2.12c1.414 0 1.944.708 1.944 1.946v1.061c0 .885-.353 1.592-1.06 1.769l1.414 3.892H60.65l-1.59-4.069zm0-3.36v2.653h.53c.53 0 .707-.354.707-.708V22.11c0-.53-.177-.707-.707-.707h-.53zm3.533 5.129v-4.068c0-1.415.706-2.3 2.12-2.3 1.413 0 2.12 1.062 2.12 2.3v4.068c0 1.415-.707 2.3-2.12 2.3-1.414 0-2.12-1.062-2.12-2.3zm2.827.177V22.11c0-.53-.177-.884-.707-.884s-.706.354-.706.884v4.599c0 .531.176.885.706.885s.707-.354.707-.885zm3.357-3.361v5.484h-1.06v-8.668h1.413l1.413 4.953v-4.953h1.237v8.668h-1.237l-1.766-5.484zm6.008.885h2.119v4.599h-1.06v-.885c-.176.708-.53 1.062-1.413 1.062-1.237 0-1.767-.885-1.767-2.3v-4.068c0-1.415.707-2.3 2.12-2.3 1.59 0 2.12.885 2.12 2.123v.708H75.49v-.885c0-.53-.177-.884-.706-.884-.53 0-.708.354-.708.884v4.422c0 .531.177.885.708.885.53 0 .706-.177.706-.885v-1.592h-.706v-.884z" fill="#fff" fill-rule="evenodd"/><path d="M33.442 32.193h-1.236v8.49h1.236v-8.49z" fill="#fff"/><path d="M35.562 35.376v5.307h-1.237v-8.49h1.59l1.414 4.952v-4.952h1.237v8.49h-1.237l-1.767-5.307zm3.711 3.361v-1.061h1.413v1.238c0 .531.177.708.707.708s.707-.354.707-.708v-.354c0-.53-.177-.707-.707-1.238l-.884-.884c-.883-.708-1.236-1.238-1.236-2.3v-.353c0-1.062.706-1.946 2.12-1.946 1.413 0 2.12.707 2.12 1.946v.707H42.1v-.707c0-.531-.177-.708-.707-.708-.354 0-.707.177-.707.708v.176c0 .531.353.708.707 1.062l.883.884c.884.885 1.237 1.238 1.237 2.123v.354c0 1.238-.707 1.945-2.12 1.945-1.59.354-2.12-.354-2.12-1.592zm4.593-6.544h3.71v1.238h-1.06v7.252h-1.414v-7.252h-1.236v-1.238z" fill="#fff" fill-rule="evenodd"/><path d="M49.696 32.193H48.46v8.49h1.236v-8.49z" fill="#fff"/><path d="M50.227 32.193h3.886v1.238h-1.237v7.252h-1.413v-7.252h-1.236v-1.238zm8.833 0v6.367c0 1.239-.53 2.123-1.944 2.123-1.413 0-2.12-.884-2.12-2.123v-6.367h1.413v6.544c0 .531.177.885.707.885s.707-.354.707-.885v-6.544h1.236zm.53 0h3.886v1.238H62.24v7.252h-1.413v-7.252H59.59v-1.238z" fill="#fff" fill-rule="evenodd"/><path d="M65.42 32.193h-1.414v8.49h1.414v-8.49z" fill="#fff"/><path d="M66.48 38.384v-4.069c0-1.415.707-2.299 2.12-2.299 1.414 0 2.12 1.061 2.12 2.299v4.069c0 1.415-.706 2.299-2.12 2.299-1.59 0-2.12-.884-2.12-2.299zm2.827.176v-4.599c0-.53-.177-.884-.707-.884s-.706.354-.706.884v4.599c0 .531.176.885.706.885.354 0 .707-.354.707-.885zm3.357-3.184v5.307h-1.236v-8.49h1.59l1.413 4.952v-4.952h1.237v8.49H74.43l-1.767-5.307zm3.71 3.361v-1.061h1.413v1.238c0 .531.177.708.706.708.531 0 .708-.354.708-.708v-.354c0-.53-.177-.707-.708-1.238l-.883-.884c-.883-.708-1.236-1.238-1.236-2.3v-.353c0-1.062.707-1.946 2.12-1.946 1.413 0 2.12.707 2.12 1.946v.707H79.2v-.707c0-.531-.177-.708-.708-.708-.352 0-.706.177-.706.708v.176c0 .531.354.708.706 1.062l.885.884c.883.885 1.236 1.238 1.236 2.123v.354c0 1.238-.707 1.945-2.12 1.945-1.59.354-2.12-.354-2.12-1.592z" fill="#fff" fill-rule="evenodd"/><path fill="#566e78" d="M29.534 3h70.74v38h-70.74z"/><path d="M32.423 8.312l.545 2.137.62-2.137h1.378V14h-1.019v-1.684l.048-2.66-.754 2.469h-.549l-.675-2.363.048 2.554V14h-1.02V8.312h1.378zm6.155 0h1.113V14h-1.113v-3.629L36.948 14h-1.11V8.312h1.11v3.633l1.63-3.633zm3.375 3.602V14h-1.11V8.312h1.967c.313 0 .596.046.849.137.253.089.467.214.643.375.178.159.316.35.41.574.098.224.146.473.146.747 0 .255-.048.49-.145.707a1.614 1.614 0 01-.411.562c-.176.156-.39.279-.643.367a2.543 2.543 0 01-.849.133h-.857zm0-.891h.857c.158 0 .294-.023.41-.07a.807.807 0 00.462-.469.947.947 0 00.06-.332c0-.132-.02-.256-.06-.371a.803.803 0 00-.462-.504 1.05 1.05 0 00-.41-.074h-.857v1.82zm5.961 2.891c0 .148-.02.301-.063.457a2.366 2.366 0 01-.423.867 2.39 2.39 0 01-.315.348l-.581-.297c.05-.094.096-.189.138-.285a2.19 2.19 0 00.115-.305 2.624 2.624 0 00.103-.734v-.914h1.03l-.004.863zM54.29 14h-1.11V9.203h-1.625V14h-1.11V8.312h3.845V14zm2.23-2.086V14h-1.11V8.312h1.967c.314 0 .597.046.85.137.252.089.466.214.642.375.179.159.316.35.411.574.097.224.146.473.146.747 0 .255-.049.49-.146.707a1.614 1.614 0 01-.411.562c-.176.156-.39.279-.643.367a2.543 2.543 0 01-.849.133h-.857zm0-.891h.857c.158 0 .295-.023.41-.07a.807.807 0 00.463-.469.947.947 0 00.06-.332 1.15 1.15 0 00-.06-.371.803.803 0 00-.462-.504 1.05 1.05 0 00-.41-.074h-.858v1.82zm6.503 1.789h-1.726L60.956 14H59.79l1.882-5.688h1.007L64.525 14h-1.168l-.335-1.188zm-1.454-.933h1.193l-.588-2.094-.605 2.094zM65.043 14V8.312h1.93c.313 0 .597.032.853.094.257.063.477.158.659.285.182.128.321.289.418.485.1.195.15.426.15.691a1.272 1.272 0 01-.217.715c-.14.211-.346.371-.62.48.166.042.31.105.43.188.122.083.222.182.3.297.082.112.141.236.178.371.04.133.059.271.059.414 0 .273-.046.514-.141.723-.095.208-.23.383-.408.523-.176.141-.39.246-.642.317-.253.07-.538.105-.853.105h-2.096zm1.112-2.508v1.621h.988c.302-.002.532-.075.69-.218a.735.735 0 00.241-.571c.002-.26-.068-.463-.213-.609-.144-.146-.369-.22-.67-.223h-1.036zm0-.793h.826c.307-.002.545-.066.71-.191.166-.125.25-.309.253-.551 0-.266-.083-.456-.249-.57-.165-.117-.405-.177-.718-.18h-.822v1.492zm7.762.875a3.3 3.3 0 01-.147 1.008 2.3 2.3 0 01-.422.793 1.94 1.94 0 01-.674.52c-.264.122-.561.183-.893.183s-.626-.061-.884-.183a1.862 1.862 0 01-.652-.52 2.385 2.385 0 01-.402-.793 3.5 3.5 0 01-.139-1.008v-.828c0-.364.047-.7.139-1.008.092-.307.226-.571.402-.793a1.85 1.85 0 01.648-.523c.258-.125.553-.188.884-.188.335 0 .633.063.897.188.265.125.49.299.674.523.185.222.325.486.422.793.098.308.147.644.147 1.008v.828zm-1.125-.836c0-.231-.02-.445-.06-.64a1.554 1.554 0 00-.178-.504.9.9 0 00-.315-.328.84.84 0 00-.462-.121c-.179 0-.33.04-.45.121a.853.853 0 00-.293.328 1.63 1.63 0 00-.157.504 4.056 4.056 0 00-.048.64v.836c0 .229.016.442.048.637.031.195.084.365.157.508a.886.886 0 00.292.336.81.81 0 00.455.121.839.839 0 00.77-.453c.081-.144.142-.313.181-.508.04-.195.06-.409.06-.641v-.836zm5.96 1.481a2.129 2.129 0 01-.189.773 1.79 1.79 0 01-1.066.961 2.49 2.49 0 01-.822.129c-.34 0-.64-.061-.903-.184a1.87 1.87 0 01-.663-.519 2.384 2.384 0 01-.411-.805 3.567 3.567 0 01-.142-1.031v-.766c0-.377.05-.722.15-1.035a2.4 2.4 0 01.426-.804c.184-.224.407-.398.667-.52a2.04 2.04 0 01.885-.188c.316 0 .596.045.84.133.248.089.458.215.632.379s.311.365.411.602c.1.237.163.504.19.801H77.65a1.743 1.743 0 00-.08-.446.781.781 0 00-.177-.316.683.683 0 00-.292-.192 1.176 1.176 0 00-.418-.066c-.171 0-.32.036-.446.109s-.232.18-.316.321a1.66 1.66 0 00-.181.519c-.04.203-.06.435-.06.696v.773c0 .56.079.974.236 1.242.161.268.414.403.758.403.29 0 .519-.076.688-.227.168-.154.261-.401.28-.742h1.11zm2.448-1.953l.375 1.05 1.2-3.004h1.208l-2.046 4.61a3.005 3.005 0 01-.24.441 1.537 1.537 0 01-.773.625 1.753 1.753 0 01-.604.094c-.187 0-.353-.016-.498-.047a6.293 6.293 0 01-.347-.078l.07-.859.123.035.154.031c.053.01.106.02.162.027a1.461 1.461 0 00.49-.031.793.793 0 00.244-.109.643.643 0 00.17-.168.925.925 0 00.115-.227l.11-.242-2.005-4.102h1.2l.892 1.954zm7.173 5.132h-.956V14h-2.175v1.398h-.936l-.174-2.281h.214a.973.973 0 00.316-.262c.089-.112.165-.263.224-.453.061-.192.11-.431.147-.714.036-.287.063-.636.079-1.047l.157-2.329h2.84v4.805h.422l-.158 2.281zm-2.148-4.757c-.013.304-.033.58-.06.828a7.055 7.055 0 01-.094.676c-.04.2-.085.381-.138.543a3.406 3.406 0 01-.173.429h1.242V9.203h-.683l-.094 1.438zm5.764-2.329H93.1V14h-1.11v-3.629L90.359 14h-1.11V8.312h1.11v3.633l1.63-3.633zm5.732 3.196H95.36v1.605h2.759V14h-3.873V8.312h3.86v.895H95.36v1.434h2.36v.867zm-63.998 5.804h1.113V23h-1.113v-3.629L32.092 23h-1.109v-5.688h1.109v3.633l1.63-3.633zm7.78 3.797a1.16 1.16 0 00.04.461c.041.136.104.25.185.344a.865.865 0 00.67.289c.16 0 .303-.026.431-.078a.772.772 0 00.328-.25c.09-.117.158-.267.206-.449.05-.183.075-.405.075-.668v-.153h-1.512v-.886h1.512v-.153c0-.25-.025-.466-.071-.648a1.258 1.258 0 00-.198-.449.774.774 0 00-.311-.266.945.945 0 00-.408-.086c-.16 0-.304.025-.43.074a.782.782 0 00-.307.219.851.851 0 00-.178.348 1.42 1.42 0 00-.036.469h-1.11a2.1 2.1 0 01.143-.774c.097-.242.236-.454.415-.637.178-.182.395-.325.647-.429.255-.107.54-.16.856-.16.308 0 .59.054.845.164.258.106.48.26.663.461.185.2.328.446.43.738.104.289.155.614.155.976v1.184c0 .365-.05.691-.15.98-.1.287-.244.53-.431.731a1.85 1.85 0 01-.675.457c-.263.107-.559.16-.888.16-.292 0-.563-.044-.813-.133a1.838 1.838 0 01-.644-.386 1.718 1.718 0 01-.414-.618 2.09 2.09 0 01-.134-.832h1.11zm6.782-3.031c.268.029.513.099.734.211.221.112.411.259.569.441.16.183.284.398.37.645.09.245.135.516.135.813 0 .291-.045.558-.134.8a1.897 1.897 0 01-.94 1.067 2.177 2.177 0 01-.734.207V23H47.18v-.738a2.22 2.22 0 01-.739-.207 1.927 1.927 0 01-.572-.43 1.998 1.998 0 01-.37-.629 2.355 2.355 0 01-.131-.801c0-.297.043-.569.13-.816.09-.247.213-.462.371-.645.16-.185.352-.333.572-.445.224-.112.47-.182.739-.211v-.766h1.105v.766zm-1.828 2.117c0 .315.065.567.194.754a.86.86 0 00.529.356v-2.27a.86.86 0 00-.529.375c-.13.195-.194.457-.194.785zm2.539-.007c0-.326-.064-.585-.19-.778a.845.845 0 00-.52-.375v2.266a.838.838 0 00.52-.36c.126-.187.19-.438.19-.753zm4.144-2.11c.269.029.513.099.735.211.221.112.41.259.568.441.16.183.285.398.372.645.089.245.133.516.133.813 0 .291-.044.558-.133.8a1.9 1.9 0 01-.94 1.067 2.176 2.176 0 01-.735.207V23h-1.104v-.738a2.22 2.22 0 01-.74-.207 1.913 1.913 0 01-.571-.43 1.98 1.98 0 01-.371-.629 2.355 2.355 0 01-.13-.801c0-.297.043-.569.13-.816.089-.247.212-.462.37-.645.162-.185.351-.333.573-.445.224-.112.47-.182.739-.211v-.766h1.104v.766zm-1.827 2.117c0 .315.065.567.193.754.13.185.305.304.53.356v-2.27a.861.861 0 00-.53.375c-.128.195-.193.457-.193.785zm2.538-.007c0-.326-.063-.585-.19-.778a.845.845 0 00-.52-.375v2.266a.838.838 0 00.52-.36c.127-.187.19-.438.19-.753zm5.025.32h-2.36v1.605h2.76V23h-3.873v-5.688h3.86v.895h-2.748v1.434h2.361v.867zm2.97.156h-.463V23h-1.11v-5.688h1.11v2.504h.272l1.504-2.504h1.283l-1.713 2.739L64.51 23h-1.286l-1.378-2.336zm7.428-2.457H67.5V23h-1.11v-4.793h-1.75v-.895h4.635v.895zm3.292-.895h1.114V23h-1.114v-3.629L70.936 23h-1.11v-5.688h1.11v3.633l1.63-3.633zM74.753 23v-5.688h1.93c.314 0 .598.032.853.094.258.063.478.158.66.285.181.128.32.289.418.485.1.195.15.426.15.691a1.274 1.274 0 01-.217.715c-.14.211-.346.371-.62.48.166.042.31.105.43.188.121.083.221.182.3.297.082.112.142.236.178.371a1.731 1.731 0 01-.083 1.137c-.095.208-.23.383-.406.523a1.799 1.799 0 01-.644.317c-.252.07-.536.105-.853.105h-2.096zm1.114-2.508v1.621h.986c.303-.002.534-.075.692-.218a.735.735 0 00.24-.571c.003-.26-.069-.463-.213-.609-.145-.146-.368-.22-.671-.223h-1.034zm0-.793h.825c.308-.002.544-.066.71-.191.166-.125.25-.309.253-.551 0-.266-.083-.456-.249-.57-.166-.117-.405-.177-.718-.18h-.821v1.492zM83.41 23h-1.097v-2.465h-1.627V23h-1.101v-5.688h1.101v2.333h1.627v-2.333h1.097V23zm1.946-3.375h.249c.24 0 .452.04.635.121.185.078.34.19.462.336.127.146.222.322.285.527.066.203.098.431.098.684 0 .25-.035.48-.106.691a1.483 1.483 0 01-.308.539c-.136.151-.305.269-.505.352s-.43.125-.692.125h-1.226v-5.688h1.108v2.313zM88.503 23h-1.11v-5.688h1.11V23zm-3.147-2.527v1.683h.182a.313.313 0 00.201-.066.497.497 0 00.139-.188c.036-.08.062-.173.079-.277a2.27 2.27 0 000-.66.905.905 0 00-.08-.258.45.45 0 00-.134-.172.328.328 0 00-.205-.062h-.182zm7.509.035h-2.36v1.605h2.758V23H89.39v-5.688h3.862v.895h-2.748v1.434h2.36v.867zm-59.142 5.804h1.113V32h-1.113v-3.629L32.092 32h-1.109v-5.688h1.109v3.633l1.63-3.633zM39.71 32h-1.098v-2.465h-1.626V32h-1.101v-5.688h1.101v2.333h1.626v-2.333h1.098V32zm5.052-1.781c-.018.286-.08.544-.189.773a1.775 1.775 0 01-.426.586 1.877 1.877 0 01-.64.375 2.489 2.489 0 01-.82.129c-.34 0-.641-.061-.905-.184a1.88 1.88 0 01-.663-.519 2.363 2.363 0 01-.41-.805 3.53 3.53 0 01-.142-1.031v-.766c0-.377.049-.722.15-1.035a2.4 2.4 0 01.426-.804 1.91 1.91 0 01.667-.52 2.04 2.04 0 01.884-.188c.316 0 .596.045.84.133.248.089.46.215.632.379.174.164.311.365.412.602s.162.504.188.801h-1.105a1.748 1.748 0 00-.079-.446.792.792 0 00-.177-.316.695.695 0 00-.292-.192 1.185 1.185 0 00-.42-.066.874.874 0 00-.445.109.88.88 0 00-.315.321 1.62 1.62 0 00-.182.519c-.04.203-.06.435-.06.696v.773c0 .56.08.974.238 1.242.16.268.412.403.758.403.289 0 .518-.076.686-.227.169-.154.262-.401.28-.742h1.11zm5.089-3.012H48.08V32h-1.113v-4.793h-1.749v-.895h4.634v.895zm3.292-.895h1.114V32h-1.114v-3.629L51.514 32h-1.11v-5.688h1.11v3.633l1.63-3.633zm6.42.895H57.79V32h-1.114v-4.793H54.93v-.895h4.634v.895zm2.214 1.059l.374 1.05 1.201-3.004h1.208l-2.045 4.61a3.022 3.022 0 01-.241.441 1.536 1.536 0 01-.773.625 1.75 1.75 0 01-.605.094c-.187 0-.352-.016-.497-.047a6.317 6.317 0 01-.348-.078l.072-.859.122.035.154.031c.053.01.106.02.162.027a1.458 1.458 0 00.49-.031.815.815 0 00.244-.109.675.675 0 00.17-.168.922.922 0 00.114-.227l.11-.242-2.004-4.102h1.2l.892 1.954zm7.496-1.059H67.5V32h-1.11v-4.793h-1.75v-.895h4.635v.895zm1.516 1.418h.248c.24 0 .452.04.636.121.185.078.339.19.462.336.126.146.221.322.285.527.066.203.098.431.098.684 0 .25-.035.48-.106.691a1.483 1.483 0 01-.308.539c-.137.151-.306.269-.506.352s-.43.125-.691.125H69.68v-5.688h1.109v2.313zM73.937 32h-1.11v-5.688h1.11V32zm-3.147-2.527v1.683h.182a.313.313 0 00.2-.066.496.496 0 00.14-.188 1.07 1.07 0 00.078-.277 2.278 2.278 0 000-.66.907.907 0 00-.079-.258.45.45 0 00-.134-.172.328.328 0 00-.205-.062h-.182z" fill="#fff"/></svg>