<svg data-name="Layer 1" xmlns="http://www.w3.org/2000/svg" width="101" height="101"><defs><clipPath id="a"><path fill="none" d="M0 0h101v101H0z"/></clipPath></defs><g clip-path="url(#a)" fill="none"><path d="M101 0H0v101h101V0z" fill="#566e78"/><path d="M88.464 63.147c-2.65-3.714-14.656-18.749-37.081-18.749-22.424 0-34.431 14.858-37.08 18.749-.177.177-.177.354-.353.354 0 .177.176.177.353.354 2.649 3.714 14.656 18.749 37.08 18.749 22.425 0 34.432-15.035 37.08-18.749.178-.177.178-.354.353-.354-.175 0-.352-.177-.352-.354zm-49.617-9.198c.176-.354.882-1.061.882-1.238.177-.177.53-.354.706-.354.177 0 .53 0 .53.177s-.176.885-.176 1.061c-.354.354-1.236.885-1.589.708-.353 0-.353-.177-.353-.354zm-.883 1.592s.177 0 0 0c.352-.354.883-.531 1.412-.531.353 0 .883.177.883.354s-1.059.708-1.236.885c-.53.53-1.413 1.592-1.942 1.592h-.353c.529-.708.882-1.592 1.236-2.3zm8.475 17.335c-.353 1.238-.706 1.592-.883 1.945-.352.354-1.412.885-2.119.885-.706 0-.883-1.946-.883-3.007 0-.354-.529.707-.706-1.415-.176-1.238-1.06.177-1.06-.708 0-.884-.53-.707-.882-1.238-.353-.531-.883 0-1.59.354-.529.177-.352.354-1.235.177-.707-1.946-1.236-3.892-1.236-6.014v-1.592s0-.177.177-.177c.882-1.062.882-1.238.882-1.238l.883-.354s1.413.177 2.648.707c.883.354 2.296 1.062 3.179.708.53-.177 1.06-.531 1.06-1.061 0-.708-.53-.708-1.237-.354-.176.177-.706-.885-1.06-.885-.352 0 .354 1.239.177 1.415-.352 0-.882-1.238-1.06-1.591-.176-.177-.528-.708-1.059-.354-.882.884-2.471.884-2.648 1.061-.883.708-1.236-.177-1.06-.707q0-.177.177-.354c.353-.354 1.412-.354 1.766-.177.353.177.706 0 .883-.177.176-.177.176-.354 0-.708 0-.176.176-.353.353-.353s.883-.531 1.236-.708c.353-.177 1.766-.354 2.295 0 .707.354 1.236 0 1.59-.354.352-.53.883-.884 1.06-.884.176-.177-.53-.884-1.237 0-.706.884-.883.884-1.236.884s-2.12-.53-2.296-1.061c-.176-.531.53-1.061 1.236-1.415.707-.354 2.473-.354 3.002-.354.883-.177 2.119-.707 2.825-.353.53.353-2.471 1.061-1.589 1.768.354.177 1.943-1.061 2.648-1.238 1.414-.707-1.235-.884-.882-2.299.353-1.592-3.179-1.062-5.12-.885 2.472-1.592 5.297-2.476 8.475-2.476 7.416 0 13.596 5.13 15.185 12.028v.707c-.176.531-1.236 1.062-1.765.177-.177-.177-.883-.884-.707.177 0 1.062 1.06 1.238 0 1.769-1.06.708-1.235.531-1.589.708-.53.176-.883 1.238-.706 1.945.176.531 1.589 2.3.53 2.123-.177 0-2.12-1.238-2.472-2.123-.354-.884-.707-1.768-.884-2.299-.176-.708-.883-.885-1.412-.354-.53.354.177.708-.177 1.592-.353.884-.706 1.592-1.236.884-1.589-1.768-3.708-.884-4.061-2.83-.177-1.061-1.06-.884-1.942-1.592-.706-.53-1.237-.884-1.412-.53-.177.353 2.471 2.299 2.648 2.83.177.707-.706 1.415-1.59 1.592-.883.177-1.058-.354-1.765-1.238-.706-.885-1.06-1.239-1.06-.708 0 .884.707 2.123 1.413 2.653.706.354 1.413.531 1.06 1.239-.177.707 0 .353-.706 1.061-.707.707-.884.884-.884 1.946 0 1.061-.176 1.061-.352 1.768-1.06.531-1.237-.177-1.59 1.062zm16.775-6.368c.53 0 1.236.707 1.06.884-.354.354-1.06.177-1.414-.177-.529-.176 0-.707.354-.707zm-.707-.354c-.176 0-.353-.177-.353-.707-.176-.354.177-.531.53-.354.353.177.707.707.707.884-.177.177-.707.177-.884.177zm-6.886-.177c-.353.354-1.06.177-1.412-.177-.354-.353.175-.884.529-.884.353.177 1.236.884.883 1.061zm-6.356 3.184c-.177.354-.707 3.007-1.236 2.653-.354-.353.176-3.007.176-3.184.706-1.238 2.12-1.061 1.06.531zm2.118 10.259c-1.589 0-3.002-.177-4.414-.707-.177-.177-.353-.354-.177-.708.53-1.238 1.943-1.769 3.002-1.945 2.472-.177 5.827 1.591 6.357 1.415.53-.354 1.589-1.769 3.178-1.592 1.06 0 1.06.177 1.412.353-2.471 1.946-5.826 3.184-9.358 3.184zm10.948-4.599c-.177 0-.353 0-.53-.177-.883-.353-.706.354-1.236.177-.353-.177.53-1.061-.706-.353-1.237.884-.883-.177-1.413-1.592s.707-3.007 1.59-3.361c1.411-.531 2.118-.531 2.824-.708 1.943-.53 2.296-1.592 2.649-.884 0 .177.176.177.176.354.177.177.177.707.177 1.061-.706 2.123-1.942 3.891-3.53 5.483zm4.237-7.959c-.352-.177-2.118-2.477-.883-4.069.177-.177-.529-1.061-.176-1.061.707 0 1.236.354 1.413 1.061v.885c0 1.061 0 2.122-.354 3.184zM12.89 8.49v20.342H9.359V13.266l-2.473 2.477v-3.538l3.179-3.715h2.825zm11.3 4.245v1.769c0 1.769-.882 2.83-2.294 3.361 1.765.354 2.471 1.592 2.471 3.538v3.007c0 2.83-1.588 4.599-4.944 4.599-3.53 0-4.767-1.946-4.767-5.13v-2.653h3.179v3.007c0 1.238.352 1.946 1.588 1.946 1.06 0 1.589-.708 1.589-1.769v-3.361c0-1.061-.53-1.592-1.765-1.592h-1.412v-2.653h1.235c1.06 0 1.766-.531 1.766-1.592v-2.123c0-1.061-.353-1.769-1.413-1.769s-1.413.708-1.413 1.946v2.123h-3.177V13.62c0-3.007 1.235-5.13 4.767-5.13 3.179-.53 4.59 1.238 4.59 4.245zm6.888 1.946v-4.068c0-1.415.706-2.3 2.118-2.3 1.59 0 2.119.885 2.119 2.123v1.061h-1.412v-1.061c0-.531-.177-.884-.707-.884s-.706.353-.706.884v4.599c0 .531.176.884.706.884s.707-.353.707-.884v-1.592h1.412v1.415c0 1.238-.53 2.123-2.12 2.123-1.411 0-2.117-1.062-2.117-2.3zm5.119-6.368h1.412v7.253h1.767v1.238h-3.179V8.313z" fill="#fff" fill-rule="evenodd"/><path d="M41.142 8.313h-1.236v8.491h1.236V8.313z" fill="#fff"/><path d="M46.085 11.144l-1.06 5.66h-.705l-1.06-5.66v5.66h-1.236V8.313h1.767l.882 4.776.883-4.776h1.766v8.491h-1.237v-5.66zm1.944 5.66l1.588-8.491h1.59l1.589 8.491h-1.413l-.176-1.592h-1.59l-.177 1.592h-1.41zm1.765-2.83h1.06l-.53-3.361-.53 3.361zm2.825-5.661h3.884v1.062h-1.236v7.429h-1.413V9.375H52.62V8.313zm4.591 0h3.355v1.062h-1.943v2.476h1.413v1.061h-1.413v2.654h1.943v1.238H57.21V8.313zM30.901 28.832l1.589-8.668h1.59l1.588 8.668h-1.413l-.176-1.592h-1.59l-.176 1.592H30.9zm1.765-2.83h1.06l-.53-3.538-.53 3.538zm3.531.53v-4.068c0-1.415.706-2.3 2.12-2.3 1.588 0 2.118.885 2.118 2.123v.884h-1.413V22.11c0-.53-.176-.884-.706-.884s-.707.354-.707.884v4.599c0 .531.177.885.707.885s.706-.354.706-.885v-1.592h1.413v1.592c0 1.238-.53 2.123-2.119 2.123-1.59 0-2.119-1.062-2.119-2.3zm4.592-6.368h3.884v1.239h-1.236v7.429h-1.412v-7.429H40.79v-1.239z" fill="#fff" fill-rule="evenodd"/><path d="M46.616 20.164h-1.412v8.668h1.412v-8.668z" fill="#fff"/><path d="M47.675 26.532v-4.068c0-1.415.706-2.3 2.119-2.3 1.413 0 2.119 1.062 2.119 2.3v4.068c0 1.415-.706 2.3-2.119 2.3-1.413 0-2.119-1.062-2.119-2.3zm2.825.177V22.11c0-.53-.177-.884-.706-.884-.53 0-.706.354-.706.884v4.599c0 .531.177.885.706.885.53 0 .706-.354.706-.885zm3.354-3.361v5.484H52.62v-8.668h1.412l1.59 4.953v-4.953h1.235v8.668H55.62l-1.767-5.484z" fill="#fff" fill-rule="evenodd"/><path fill="#566e78" d="M31.31 8h43.43v27H31.31z"/><path d="M33.527 9.203h-2.608v1.211h.648c.33 0 .628.043.891.129.266.083.49.202.671.355.184.154.324.34.422.559.097.219.146.461.146.727 0 .27-.049.518-.146.742a1.603 1.603 0 01-.422.57 1.923 1.923 0 01-.67.371 2.782 2.782 0 01-.892.133h-1.76V8.312h3.72v.891zm-2.608 2.094v1.82h.648c.173 0 .323-.025.449-.074a.893.893 0 00.32-.203.767.767 0 00.189-.301 1.04 1.04 0 00.064-.363.922.922 0 00-.064-.344.685.685 0 00-.189-.277.853.853 0 00-.32-.188 1.288 1.288 0 00-.45-.07h-.647zm7.749.277c0 .365-.049.701-.146 1.008a2.335 2.335 0 01-.422.793 1.953 1.953 0 01-.674.52c-.264.122-.561.183-.892.183s-.626-.061-.884-.183a1.87 1.87 0 01-.651-.52 2.384 2.384 0 01-.402-.793 3.502 3.502 0 01-.139-1.008v-.828c0-.364.047-.7.139-1.008.091-.307.226-.571.402-.793.176-.224.391-.398.647-.523a2 2 0 01.884-.188c.334 0 .632.063.896.188.265.125.49.299.674.523.184.222.324.486.422.793.097.308.146.644.146 1.008v.828zm-1.124-.836c0-.231-.02-.445-.06-.64a1.58 1.58 0 00-.177-.504.902.902 0 00-.316-.328.836.836 0 00-.461-.121.788.788 0 00-.742.449 1.67 1.67 0 00-.158.504 4.05 4.05 0 00-.048.64v.836c0 .229.016.442.048.637s.085.365.158.508a.881.881 0 00.292.336c.12.08.272.121.454.121a.838.838 0 00.77-.453c.08-.144.14-.313.18-.508.04-.195.06-.409.06-.641v-.836zm3.148 1.176V14h-1.11V8.312h1.966c.313 0 .596.046.849.137.252.089.466.214.642.375.179.159.316.35.411.574.097.224.146.473.146.747 0 .255-.049.49-.146.707a1.614 1.614 0 01-.41.562c-.177.156-.39.279-.643.367a2.54 2.54 0 01-.849.133h-.856zm0-.891h.856c.158 0 .294-.023.41-.07a.807.807 0 00.462-.469.947.947 0 00.06-.332c0-.132-.02-.256-.06-.371a.803.803 0 00-.462-.504 1.048 1.048 0 00-.41-.074h-.856v1.82zm4.785-.609h.648c.331 0 .628.043.892.129.265.083.488.202.67.355.184.154.324.34.422.559.097.219.146.461.146.727 0 .27-.049.518-.146.742a1.603 1.603 0 01-.422.57 1.923 1.923 0 01-.67.371 2.782 2.782 0 01-.892.133h-1.76V8.312h1.112v2.102zm0 .883v1.82h.648c.173 0 .323-.025.45-.074a.893.893 0 00.32-.203.767.767 0 00.188-.301 1.04 1.04 0 00.064-.363.922.922 0 00-.064-.344.685.685 0 00-.189-.277.853.853 0 00-.32-.188 1.288 1.288 0 00-.45-.07h-.647zm7.461-2.094H50.33v1.211h.648c.331 0 .628.043.89.129.266.083.49.202.672.355.184.154.324.34.422.559.097.219.146.461.146.727 0 .27-.049.518-.146.742a1.603 1.603 0 01-.422.57 1.928 1.928 0 01-.671.371c-.263.089-.56.133-.891.133h-1.76V8.312h3.72v.891zm-2.608 2.094v1.82h.648c.173 0 .323-.025.45-.074a.88.88 0 00.318-.203.77.77 0 00.19-.301 1.04 1.04 0 000-.707.687.687 0 00-.19-.277.842.842 0 00-.319-.188 1.288 1.288 0 00-.45-.07h-.647zm6.565 1.515h-1.724L54.831 14h-1.167l1.882-5.688h1.006L58.398 14h-1.167l-.336-1.188zm-1.451-.933h1.19l-.587-2.094-.603 2.094zm-21.648 9.34a2.11 2.11 0 01-.19.773 1.773 1.773 0 01-.425.586c-.18.162-.392.287-.64.375a2.488 2.488 0 01-.82.129 2.11 2.11 0 01-.904-.184 1.883 1.883 0 01-.663-.519 2.382 2.382 0 01-.41-.805 3.533 3.533 0 01-.142-1.031v-.766c0-.377.05-.722.15-1.035a2.4 2.4 0 01.426-.804 1.89 1.89 0 01.666-.52c.263-.125.558-.188.884-.188.316 0 .596.045.84.133.248.089.458.215.632.379.173.164.31.365.41.602s.163.504.19.801h-1.105a1.75 1.75 0 00-.08-.446.793.793 0 00-.177-.316.688.688 0 00-.292-.192 1.174 1.174 0 00-.418-.066.874.874 0 00-.445.109.882.882 0 00-.316.321c-.082.14-.142.313-.182.519a3.63 3.63 0 00-.059.696v.773c0 .56.079.974.237 1.242.16.268.413.403.757.403.29 0 .518-.076.687-.227.169-.154.261-.401.28-.742h1.109zm8.376-3.907h1.112V23h-1.112v-3.629L40.542 23h-1.109v-5.688h1.11v3.633l1.629-3.633zm6.213 1.543a1.261 1.261 0 01-.236.715c-.077.104-.17.2-.28.285a1.82 1.82 0 01-.376.223c.32.11.56.276.726.5.17.221.253.498.253.828 0 .266-.055.503-.166.711a1.512 1.512 0 01-.453.528 2.15 2.15 0 01-.695.324 3.34 3.34 0 01-.88.109c-.257 0-.513-.031-.765-.094a2.272 2.272 0 01-.682-.296 1.657 1.657 0 01-.49-.516 1.446 1.446 0 01-.185-.75h1.112a.668.668 0 00.281.551c.089.07.196.126.32.168.122.039.26.058.41.058.173 0 .327-.019.46-.058.135-.042.248-.099.34-.172s.162-.158.21-.254a.732.732 0 00.07-.32c0-.305-.086-.525-.26-.661-.17-.135-.423-.203-.757-.203h-.774v-.859h.774c.165 0 .306-.018.422-.055a.755.755 0 00.288-.164.622.622 0 00.165-.25.943.943 0 00.056-.328.719.719 0 00-.06-.289.619.619 0 00-.181-.242.882.882 0 00-.311-.16 1.381 1.381 0 00-.443-.063c-.131 0-.253.017-.366.051a.957.957 0 00-.296.144.734.734 0 00-.197.227.619.619 0 00-.072.297h-1.108c0-.25.054-.474.162-.672.11-.198.258-.366.445-.504s.403-.243.647-.316c.248-.076.51-.114.785-.114.318 0 .608.036.869.106.26.068.48.17.662.308.184.136.327.305.427.508.1.201.15.434.15.699zm2.194-1.543l.544 2.137.62-2.137h1.377V23h-1.018v-1.684l.047-2.66-.753 2.469h-.549l-.674-2.363.047 2.554V23h-1.018v-5.688h1.377zm7.026 3.196h-2.359v1.605h2.758V23h-3.87v-5.688h3.858v.895h-2.746v1.434h2.36v.867zM62.715 23h-1.097v-2.465h-1.626V23h-1.1v-5.688h1.1v2.333h1.626v-2.333h1.097V23zm4.596-2.492h-2.359v1.605h2.757V23h-3.87v-5.688h3.858v.895h-2.745v1.434h2.36v.867zM72.42 23h-1.097v-2.465h-1.625V23h-1.1v-5.688h1.1v2.333h1.625v-2.333h1.097V23zm3.72-5.688h1.113V23H76.14v-3.629L74.51 23h-1.108v-5.688h1.108v3.633l1.63-3.633zm5.73 3.196h-2.36v1.605h2.758V23h-3.87v-5.688h3.857v.895H79.51v1.434h2.36v.867zm2.678-3.196l.544 2.137.62-2.137h1.377V23h-1.018v-1.684l.048-2.66-.754 2.469h-.548l-.675-2.363.047 2.554V23H83.17v-5.688h1.377zM31.456 29.664h-.461V32h-1.11v-5.688h1.11v2.504h.272l1.502-2.504h1.283l-1.712 2.739L34.12 32h-1.286l-1.377-2.336zm7.038-3.352V32h-1.112v-4.797h-1.188l-.02 2.086a6.778 6.778 0 01-.118 1.262 2.563 2.563 0 01-.3.84 1.196 1.196 0 01-.493.464 1.546 1.546 0 01-.69.145h-.276v-.883h.157a.569.569 0 00.308-.113.62.62 0 00.182-.305 2.45 2.45 0 00.09-.551c.016-.229.027-.515.032-.859l.023-2.977h3.405zm3.678 0h1.112V32h-1.112v-3.629L40.542 32h-1.109v-5.688h1.11v3.633l1.629-3.633zm3.554 0l.544 2.137.62-2.137h1.377V32h-1.018v-1.684l.047-2.66-.753 2.469h-.549l-.674-2.363.047 2.554V32H44.35v-5.688h1.377zm6.316 4.5h-1.724L49.978 32h-1.167l1.882-5.688H51.7L53.546 32h-1.168l-.336-1.188zm-1.451-.933h1.192l-.588-2.094-.604 2.094zm7.701-2.672h-1.771V32h-1.113v-4.793H53.66v-.895h4.632v.895zm3.456 3.605h-1.724L59.684 32h-1.167l1.882-5.688h1.006L63.251 32h-1.167l-.336-1.188zm-1.452-.933h1.192l-.588-2.094-.604 2.094z" fill="#fff"/></g></svg>