<svg data-name="Layer 1" xmlns="http://www.w3.org/2000/svg" width="101" height="101"><defs><clipPath id="a"><path fill="none" d="M0 0h101v101H0z"/></clipPath></defs><g clip-path="url(#a)" fill="none"><path d="M101 0H0v101h101V0z" fill="#566e78"/><path d="M40.259 85.815v1.412c0 .353.353.707.706.707h16.598c.353 0 .706-.354.706-.707v-1.589c9.359-3.002 16.422-10.77 18.011-19.953v-.176c0-.353-.353-.707-.706-.707H22.425c-.353 0-.706.354-.706.707v.353c1.765 9.358 9.005 16.95 18.54 19.953zM58.27 42.201c-.177.353-5.298 7.77.176 13.773 2.472 2.649 2.296 5.12 1.589 6.886h3.532c.706-2.472.353-5.474-2.472-8.652-3.885-4.414 0-10.418.176-10.418.53-.706.177-1.589-.529-1.942-1.06-.53-1.943-.353-2.472.353zm-8.83 20.483h3.532c.706-2.473.353-5.474-2.472-8.652-4.062-4.415 0-10.418.176-10.418.53-.707.177-1.59-.53-1.943-.882-.353-1.765-.176-2.295.53-.177.353-5.474 7.77.177 13.773 2.472 2.648 2.118 5.12 1.412 6.71zM37.08 42.201c-.176.353-5.473 7.77.177 13.773 2.472 2.649 2.296 5.12 1.589 6.886h3.532c.706-2.472.353-5.474-2.472-8.652-4.062-4.414 0-10.418.176-10.418.53-.706.177-1.589-.529-1.942-.883-.53-1.943-.353-2.473.353zM19.423 25.956h-5.65v-.883c0-1.589.529-2.118 1.412-3.178l2.119-2.295c1.766-1.943 2.119-3.179 2.119-5.121v-1.942c0-2.826-1.413-4.238-4.591-4.238-3.002 0-4.591 1.59-4.591 4.414v2.472h3.179v-2.648c0-1.236.529-1.59 1.412-1.59.706 0 1.236.177 1.236 1.59v1.589c0 1.766-.176 2.295-1.236 3.531l-1.942 2.12c-1.942 1.942-2.472 3.354-2.472 5.296v3.708h9.005v-2.825zm11.301-9.888h2.119v1.06h-3.708v-1.06l2.295-6.18h-1.942V8.652h3.531v1.236l-2.295 6.18zm3.178-7.416h3.355v1.236h-1.942v2.296h1.413v1.236h-1.413v2.648h1.942v1.06h-3.355V8.652zm5.473 4.591v3.885h-1.412V8.652h2.119c1.589 0 2.119.706 2.119 1.942v1.06c0 .883-.353 1.412-1.236 1.59l1.412 3.884h-1.589l-1.413-3.885zm0-3.355v2.649h.53c.53 0 .706-.177.706-.707v-1.236c0-.53-.176-.706-.706-.706h-.53zm3.355 5.121v-4.061c0-1.413.707-2.296 2.296-2.296s2.295.883 2.295 2.296v4.06c0 1.413-.706 2.296-2.295 2.296s-2.296-.883-2.296-2.295zm3.002.353V10.77c0-.53-.176-.883-.706-.883s-.706.353-.706.883v4.59c0 .53.176.884.706.884s.706-.353.706-.883zM32.137 25.427h-1.236v3.884h-1.413v-8.475h1.413v3.531h1.236v-3.531h1.589v8.475h-1.589v-3.884zm6.356-4.591v6.356c0 1.236-.53 2.12-1.942 2.12-1.413 0-2.119-.884-2.119-2.12v-6.356h1.412v6.533c0 .53.177.883.707.883.529 0 .706-.353.706-.883v-6.533h1.236zm2.119 3.001v5.474h-1.236v-8.475h1.413l1.589 4.767v-4.767h1.236v8.475h-1.236l-1.766-5.474zm5.826.707h1.943v4.59h-.883v-.882c-.177.706-.53 1.06-1.236 1.06-1.236 0-1.766-.884-1.766-2.296v-4.061c0-1.413.706-2.296 2.119-2.296 1.589 0 1.942.883 1.942 2.119v.706h-1.236v-.883c0-.53-.176-.882-.706-.882s-.706.353-.706.882v4.591c0 .53.176.883.706.883.353 0 .706-.176.706-.883v-1.589h-.706v-1.06h-.177zm2.826-3.708h3.531v1.06h-2.119v2.471h1.413v1.06h-1.413v2.648h2.119v1.236h-3.531v-8.475zm5.651 4.591v3.884h-1.413v-8.475h2.119c1.412 0 1.942.706 1.942 1.942v1.06c0 .882-.353 1.412-1.059 1.589l1.412 3.884h-1.589l-1.412-3.884zm0-3.532v2.649h.529c.53 0 .707-.177.707-.707v-1.236c0-.53-.177-.706-.707-.706h-.529z" fill="#fff" fill-rule="evenodd"/><path fill="#566e78" d="M27 6h49v27H27z"/><path d="M30.309 9.313V15h-1.102v-4.797h-1.176l-.019 2.086a7.011 7.011 0 01-.117 1.262 2.62 2.62 0 01-.297.84 1.193 1.193 0 01-.489.465 1.526 1.526 0 01-.683.144h-.274v-.883h.157a.553.553 0 00.304-.113.62.62 0 00.18-.305 2.48 2.48 0 00.09-.55c.015-.23.026-.516.031-.86l.024-2.976h3.371zm3.64 0h1.102V15h-1.102v-3.629L32.336 15h-1.098V9.312h1.098v3.633l1.613-3.633zm3.805 3.351h-.457V15h-1.098V9.312h1.098v2.504h.269l1.489-2.504h1.269l-1.695 2.739L40.391 15h-1.274l-1.363-2.336zM40.918 15V9.312h1.91c.31 0 .591.032.844.094.255.063.473.158.652.285.18.128.318.29.414.485.099.195.149.426.149.691a1.291 1.291 0 01-.215.715 1.281 1.281 0 01-.613.48 1.3 1.3 0 01.425.188c.12.083.219.182.297.297.081.112.14.236.176.371a1.741 1.741 0 01-.082 1.137 1.406 1.406 0 01-.402.523c-.175.14-.387.246-.637.316s-.531.106-.844.106h-2.074zm1.102-2.508v1.621h.976c.3-.002.527-.075.684-.219a.737.737 0 00.238-.57c.003-.26-.068-.463-.211-.61-.143-.145-.365-.22-.664-.222H42.02zm0-.793h.816c.305-.002.539-.066.703-.191s.247-.309.25-.551c0-.266-.082-.456-.246-.57-.164-.118-.401-.177-.711-.18h-.812v1.492zm6.343-2.386h1.102V15h-1.102v-3.629L46.75 15h-1.098V9.312h1.098v3.633l1.613-3.633zm6.032 7.085h-.946V15h-2.152v1.398h-.926l-.172-2.28h.211a.971.971 0 00.313-.262c.088-.113.162-.264.222-.454.06-.192.108-.43.145-.714.036-.287.062-.636.078-1.047l.156-2.328h2.809v4.804h.418l-.156 2.281zm-2.125-4.757c-.013.304-.033.58-.059.828a7.06 7.06 0 01-.094.675 4.51 4.51 0 01-.137.543 3.416 3.416 0 01-.171.43h1.23v-3.914h-.676l-.093 1.438zm5.867 2.172H56.43L56.094 15h-1.156l1.863-5.688h.996L59.625 15h-1.156l-.332-1.188zm-1.438-.934h1.18l-.582-2.094-.598 2.094zm3.36-3.566h1.093v4.804h1.551V9.312h1.102v4.81h.738l-.078 2.25h-1.016V15h-3.39V9.312zm7.523 0h1.102V15h-1.102v-3.629L65.969 15h-1.098V9.312h1.098v3.633l1.613-3.633zM72.215 15v-2.238h-.879L70.266 15H69.09l1.23-2.57a1.722 1.722 0 01-.691-.578 1.56 1.56 0 01-.234-.868c0-.273.048-.514.144-.722.096-.209.234-.383.414-.524a1.87 1.87 0 01.66-.316c.258-.073.547-.11.867-.11h1.836V15h-1.101zm-1.723-3.95c0 .298.082.518.246.66.164.142.412.212.742.212h.735v-1.719h-.735c-.338 0-.588.074-.75.223-.158.148-.238.357-.238.625zM30.23 19.204h-2.582V24h-1.097v-5.688h3.679v.891zm5.055 2.371c0 .365-.048.7-.144 1.008a2.344 2.344 0 01-.418.793 1.93 1.93 0 01-.668.52c-.261.122-.555.183-.883.183s-.62-.061-.875-.183a1.849 1.849 0 01-.645-.52 2.396 2.396 0 01-.398-.793 3.537 3.537 0 01-.137-1.008v-.828c0-.364.046-.7.137-1.008s.224-.571.398-.793c.175-.224.388-.398.641-.523.255-.125.547-.188.875-.188.331 0 .626.063.887.188.263.125.485.3.668.523.182.222.321.486.418.793.096.308.144.644.144 1.008v.828zm-1.113-.836c0-.231-.02-.445-.059-.64a1.6 1.6 0 00-.175-.504.903.903 0 00-.313-.328.824.824 0 00-.457-.121.777.777 0 00-.734.449 1.68 1.68 0 00-.157.504 4.095 4.095 0 00-.047.64v.836c0 .23.016.442.047.637.032.195.084.365.157.508a.87.87 0 00.289.336c.119.08.269.12.449.12.177 0 .328-.04.453-.12a.908.908 0 00.309-.332c.08-.144.14-.313.179-.508a3.27 3.27 0 00.059-.64v-.837zm5.746-2.425V24h-1.102v-4.797h-1.175l-.02 2.086a7.01 7.01 0 01-.117 1.262 2.62 2.62 0 01-.297.84 1.19 1.19 0 01-.488.464 1.53 1.53 0 01-.684.145h-.273v-.883h.156a.556.556 0 00.305-.113.613.613 0 00.179-.305c.045-.14.075-.324.09-.55.016-.23.026-.516.031-.86l.024-2.977h3.371zm4.977 3.261c0 .365-.049.7-.145 1.008-.096.307-.236.572-.418.793s-.405.395-.668.52a2.05 2.05 0 01-.883.183 2 2 0 01-.875-.183 1.836 1.836 0 01-.644-.52 2.379 2.379 0 01-.399-.793 3.538 3.538 0 01-.136-1.008v-.828c0-.364.045-.7.136-1.008a2.33 2.33 0 01.399-.793 1.83 1.83 0 01.64-.523c.256-.125.547-.188.875-.188.331 0 .627.063.887.188.263.125.486.3.668.523.182.222.322.486.418.793s.145.644.145 1.008v.828zm-1.114-.836c0-.231-.019-.445-.058-.64a1.6 1.6 0 00-.176-.504.903.903 0 00-.313-.328.824.824 0 00-.457-.121.779.779 0 00-.734.449c-.073.14-.125.308-.156.504a3.977 3.977 0 00-.047.64v.836c0 .23.015.442.047.637.031.195.083.365.156.508.073.143.169.255.289.336s.27.12.449.12c.177 0 .328-.04.453-.12a.9.9 0 00.309-.332c.081-.144.141-.313.18-.508.039-.195.058-.409.058-.64v-.837zm5.809 4.66h-.945V24h-2.153v1.398h-.926l-.171-2.28h.21a.97.97 0 00.313-.263c.089-.112.163-.263.223-.453.06-.192.108-.43.144-.715.037-.286.063-.635.078-1.046l.157-2.328h2.808v4.804h.418l-.156 2.281zm-2.125-4.757c-.013.304-.033.58-.059.828a6.757 6.757 0 01-.094.676c-.039.2-.084.381-.136.543-.052.158-.11.302-.172.43h1.23v-3.915h-.675l-.094 1.438zm5.867 2.172h-1.707L51.289 24h-1.156l1.863-5.688h.996L54.82 24h-1.156l-.332-1.188zm-1.437-.934h1.179l-.582-2.094-.597 2.094z" fill="#fff"/></g></svg>