<svg data-name="Layer 1" xmlns="http://www.w3.org/2000/svg" width="101" height="101"><defs><clipPath id="a"><path fill="none" d="M0 0h101v101H0z"/></clipPath></defs><g clip-path="url(#a)" fill="none"><path d="M101 0H0v101h101V0z" fill="#566e78"/><path d="M85.109 63.213c0-2.825-1.767-5.12-4.592-5.12-1.412 0-3.002 1.589-3.884 2.472-.883-.883-2.473-2.472-3.885-2.472-2.649 0-4.591 2.295-4.591 5.12 0 1.413.53 2.649 1.413 3.708l7.063 7.063 7.063-7.063c.882-1.06 1.413-2.295 1.413-3.708z" fill="#fff" fill-rule="evenodd"/><path d="M55.09 85.462c-.529 0-1.059-.354-1.235-1.06l-3.532-20.836-5.473 10.065c-.177.353-.707.706-1.236.53-.53-.177-.883-.53-.883-1.06l-2.296-16.068-4.238 9.535c-.176.353-.529.706-1.06.706h-16.42c-.707 0-1.236-.53-1.236-1.236s.53-1.236 1.235-1.236h15.716l5.473-12.536c.177-.53.707-.707 1.236-.707.53 0 .883.53 1.06 1.06l2.472 16.598 5.297-9.888c.176-.354.707-.707 1.236-.53.53 0 .883.53.883.883l3.355 19.423 12.184-40.259c.176-.53.529-.883 1.06-.883.528 0 .882.177 1.235.706l6.356 13.244c.354.53 0 1.236-.529 1.589-.53.176-1.236 0-1.59-.53l-5.12-10.594-12.89 42.2c-.176.53-.53.884-1.06.884zM15.185 29.311c3.355 0 4.944-1.766 4.944-4.59v-3.002c0-1.943-.706-3.179-2.472-3.532 1.413-.53 2.296-1.589 2.296-3.355v-1.766c0-2.825-1.413-4.59-4.415-4.59-3.531 0-4.767 2.118-4.767 5.12v1.766h3.001v-2.296c0-1.236.354-1.942 1.413-1.942 1.06 0 1.412.706 1.412 1.766v2.119c0 1.06-.706 1.589-1.765 1.589h-1.236v2.825h1.413c1.236 0 1.588.53 1.588 1.59v3.354c0 1.06-.529 1.766-1.588 1.766s-1.59-.706-1.59-1.942v-3.002h-3.002v2.648c.177 3.355 1.236 5.474 4.768 5.474zM31.96 12.713h2.12v4.591h-1.06v-.883c-.177.707-.53 1.06-1.413 1.06-1.236 0-1.766-.883-1.766-2.296v-4.237c0-1.413.706-2.296 2.12-2.296 1.588 0 2.118.883 2.118 2.119v.706h-1.413v-.706c0-.53-.176-.883-.706-.883s-.707.353-.707.883v4.591c0 .53.177.883.707.883s.706-.177.706-.883v-1.413h-.706v-1.236zm3.001 2.296v-4.061c0-1.413.707-2.296 2.12-2.296 1.412 0 2.118.883 2.118 2.296v4.06c0 1.413-.706 2.296-2.119 2.296-1.412 0-2.119-.883-2.119-2.295zm2.825.353V10.77c0-.53-.176-.883-.706-.883s-.706.353-.706.883v4.59c0 .53.177.884.706.884.53 0 .706-.353.706-.883zm2.12-.353v-4.061c0-1.413.706-2.296 2.12-2.296 1.411 0 2.118.883 2.118 2.296v4.06c0 1.413-.707 2.296-2.119 2.296-1.413 0-2.119-.883-2.119-2.295zm2.825.353V10.77c0-.53-.177-.883-.706-.883-.53 0-.707.353-.707.883v4.59c0 .53.177.884.707.884s.706-.353.706-.883zm6.533-4.414v3.884c0 1.236-.53 2.296-2.12 2.296h-2.118V8.652h2.119c1.589 0 2.119 1.06 2.119 2.296zm-2.12 5.12c.53 0 .884-.353.884-.883v-4.414c0-.53-.177-.883-.883-.883h-.53v6.18h.53zm7.24-2.648h-1.413v3.708h-1.588V8.652h1.588v3.532h1.413V8.652h1.413v8.476h-1.413V13.42zm2.119-4.768h3.356v1.236h-1.943v2.296h1.413v1.236h-1.413v2.648h1.943v1.06h-3.356V8.652zm4.062 8.476l1.588-8.476h1.59l1.589 8.476H63.92l-.177-1.59h-1.59l-.176 1.59h-1.412zm1.765-2.649h1.236l-.53-3.355-.706 3.355zm3.709-5.827h1.412v7.416h1.766v1.06H66.04V8.652zm2.825 0h3.708v1.236h-1.06v7.24h-1.589v-7.24h-1.06V8.652zm7.24 4.768H74.69v3.708h-1.41V8.652h1.411v3.532h1.414V8.652h1.412v8.476h-1.412V13.42zM29.665 29.311l1.59-8.475h1.588l1.589 8.475H33.02l-.177-1.589h-1.589l-.176 1.59h-1.413zm1.765-2.825h1.06l-.53-3.355-.53 3.355zm4.767-2.649v5.474h-1.06v-8.475h1.237l1.589 4.767v-4.767h1.236v8.475h-1.236l-1.766-5.474zm7.947-.882v3.884c0 1.236-.53 2.296-2.119 2.296h-2.119v-8.476h2.12c1.588.177 2.118 1.06 2.118 2.296zm-2.119 5.12c.53 0 .883-.353.883-.883v-4.414c0-.53-.177-.883-.883-.883h-.53v6.18h.53zm7.417-4.061l-.884 5.297h-1.235l-1.237-8.475h1.412l.707 5.297.706-5.297h1.06l.883 5.297.706-5.297h1.059l-1.06 8.475h-1.235l-.882-5.297zm3.883-3.178h3.53v1.06h-2.118v2.471h1.59v1.06h-1.59v2.648h2.119v1.236h-3.531v-8.475zm4.238 0h1.413v7.24h1.765v1.235h-3.178v-8.475zm3.884 0h1.412v7.24h1.767v1.235h-3.179v-8.475z" fill="#fff" fill-rule="evenodd"/><path d="M66.216 24.544h-1.943v1.236h1.943v-1.236z" fill="#fff"/><path d="M67.098 20.836h2.118c1.413 0 1.944.706 1.944 1.765v.883c0 .707-.177 1.236-.884 1.413.707.176 1.06.706 1.06 1.412v1.06c0 1.236-.53 1.766-1.943 1.766h-2.295v-8.3zm1.412 3.531h.53c.53 0 .707-.176.707-.706V22.6c0-.53-.177-.706-.706-.706h-.53v2.472zm0 1.06v2.648h.706c.53 0 .707-.176.707-.706v-1.236c0-.353-.176-.706-.707-.706h-.706zm3.532-4.591h3.356v1.06h-1.943v2.471h1.412v1.06h-1.412v2.648h1.943v1.236h-3.356v-8.475z" fill="#fff" fill-rule="evenodd"/><path d="M77.515 20.836H76.28v8.475h1.236v-8.475z" fill="#fff"/><path d="M79.634 23.837v5.474h-1.236v-8.475h1.413l1.589 4.767v-4.767h1.236v8.475h-1.413l-1.589-5.474zm6.004.707h2.119v4.59h-1.06v-.882c-.176.706-.529 1.06-1.412 1.06-1.236 0-1.766-.884-1.766-2.296v-4.061c0-1.413.707-2.296 2.119-2.296 1.59 0 2.119.883 2.119 2.119v.706h-1.412v-.883c0-.53-.177-.882-.707-.882s-.706.353-.706.882v4.591c0 .53.177.883.706.883.53 0 .707-.176.707-.883v-1.589h-.707v-1.06z" fill="#fff" fill-rule="evenodd"/><path fill="#566e78" d="M28.28 6h64.64v32H28.28z"/><path d="M28.722 11.352l1.021-2.04h1.302l-1.617 2.82L31.085 15H29.79l-1.053-2.07-1.05 2.07h-1.31l1.658-2.867-1.614-2.82h1.293l1.007 2.039zm6.916 1.222c0 .365-.049.7-.146 1.008a2.336 2.336 0 01-.422.793 1.97 1.97 0 01-.674.52 2.101 2.101 0 01-.892.183c-.332 0-.626-.061-.884-.184a1.864 1.864 0 01-.651-.519 2.387 2.387 0 01-.402-.793 3.504 3.504 0 01-.139-1.008v-.828c0-.364.047-.7.139-1.008.091-.307.226-.571.402-.793a1.85 1.85 0 01.647-.523 2 2 0 01.884-.188c.334 0 .632.063.896.188.265.125.49.3.674.523.184.222.324.486.422.793.097.308.146.644.146 1.008v.828zm-1.124-.836c0-.231-.02-.445-.06-.64a1.59 1.59 0 00-.177-.504.907.907 0 00-.316-.328.839.839 0 00-.461-.122.79.79 0 00-.742.45 1.67 1.67 0 00-.158.504 4.056 4.056 0 00-.048.64v.836c0 .23.016.442.048.637s.085.364.158.508a.881.881 0 00.292.336c.12.08.272.12.454.12.178 0 .331-.04.457-.12a.912.912 0 00.312-.332c.081-.144.142-.313.181-.508a3.2 3.2 0 00.06-.64v-.837zm3.148 1.176V15h-1.11V9.312h1.966c.313 0 .596.046.849.137.252.089.466.214.642.375.179.16.316.35.411.574.097.224.146.473.146.746 0 .256-.049.491-.146.708a1.614 1.614 0 01-.41.562 1.9 1.9 0 01-.643.367 2.55 2.55 0 01-.849.133h-.856zm0-.89h.856c.158 0 .294-.024.41-.07a.787.787 0 00.462-.47.953.953 0 00.06-.332c0-.133-.02-.256-.06-.37a.797.797 0 00-.174-.301.788.788 0 00-.288-.204 1.041 1.041 0 00-.41-.074h-.856v1.82zm7.682.55c0 .365-.05.7-.146 1.008a2.318 2.318 0 01-.423.793 1.937 1.937 0 01-.674.52c-.263.122-.56.183-.892.183-.331 0-.626-.061-.884-.184a1.851 1.851 0 01-.65-.519 2.37 2.37 0 01-.403-.793 3.505 3.505 0 01-.138-1.008v-.828c0-.364.046-.7.138-1.008.092-.307.226-.571.403-.793.175-.224.391-.398.646-.523.259-.125.552-.188.884-.188.334 0 .633.063.896.188.265.125.49.3.674.523.184.222.326.486.423.793.096.308.146.644.146 1.008v.828zm-1.125-.836c0-.231-.02-.445-.059-.64a1.59 1.59 0 00-.178-.504.907.907 0 00-.316-.328.839.839 0 00-.461-.122.793.793 0 00-.45.122.849.849 0 00-.292.328 1.64 1.64 0 00-.157.504 3.938 3.938 0 00-.048.64v.836c0 .23.016.442.048.637.031.195.084.364.157.508a.881.881 0 00.292.336.81.81 0 00.454.12c.179 0 .331-.04.457-.12a.904.904 0 00.312-.332 1.69 1.69 0 00.182-.508c.04-.196.059-.409.059-.64v-.837zm2.852-2.425v4.804h.553V9.312h1.046v4.805h.544V9.312h1.077V15h-4.3V9.312h1.08zm7.504 3.195h-2.359v1.605h2.758V15h-3.87V9.312h3.858v.895h-2.746v1.434h2.36v.867zm4.853 0H57.07v1.605h2.757V15h-3.87V9.312h3.86v.895H57.07v1.434h2.36v.867zm-28.631 7.347a1.275 1.275 0 01-.517 1 1.81 1.81 0 01-.375.223c.318.11.56.276.726.5.169.221.253.498.253.828a1.499 1.499 0 01-.62 1.239c-.191.14-.423.248-.694.324a3.345 3.345 0 01-1.646.015 2.256 2.256 0 01-.681-.297 1.646 1.646 0 01-.49-.515 1.448 1.448 0 01-.185-.75h1.112c0 .11.024.21.072.305.05.093.119.175.209.246.089.07.196.126.319.168.123.039.26.058.41.058a1.7 1.7 0 00.462-.058 1.03 1.03 0 00.339-.172.743.743 0 00.21-.254.731.731 0 00.07-.32c0-.305-.086-.525-.26-.66-.172-.136-.424-.204-.757-.204h-.774v-.86h.774c.165 0 .306-.017.422-.054a.752.752 0 00.288-.164.622.622 0 00.165-.25.945.945 0 00.056-.328.722.722 0 00-.06-.29.626.626 0 00-.181-.241.887.887 0 00-.312-.16 1.39 1.39 0 00-.442-.063c-.131 0-.253.017-.367.05a.942.942 0 00-.295.145.732.732 0 00-.197.227.618.618 0 00-.072.297H26.65c0-.25.053-.474.161-.672a1.57 1.57 0 01.446-.504c.187-.138.403-.243.647-.316.248-.076.51-.114.785-.114.318 0 .608.036.869.106.26.068.48.17.662.308.184.136.326.305.426.508.1.2.15.434.15.7zm4.73 5.543h-.955V24H32.4v1.398h-.935l-.174-2.28h.213a.978.978 0 00.316-.263c.089-.112.165-.263.225-.453.06-.192.11-.43.146-.715.037-.286.063-.635.078-1.046l.158-2.328h2.837v4.804h.422l-.157 2.281zm-2.145-4.757c-.014.304-.034.58-.06.828a6.694 6.694 0 01-.095.676c-.04.2-.085.381-.137.543a3.391 3.391 0 01-.174.43h1.242v-3.915h-.682l-.094 1.438zm7.109.933c0 .365-.049.7-.147 1.008a2.301 2.301 0 01-.422.793 1.937 1.937 0 01-.674.52c-.263.122-.56.183-.891.183a2.04 2.04 0 01-.884-.183 1.855 1.855 0 01-.651-.52 2.387 2.387 0 01-.402-.793 3.47 3.47 0 01-.139-1.008v-.828c0-.364.046-.7.139-1.008.091-.307.226-.571.402-.793a1.85 1.85 0 01.647-.523 2 2 0 01.884-.188c.333 0 .632.063.895.188.265.125.49.3.674.523.185.222.325.486.422.793.098.308.147.644.147 1.008v.828zm-1.124-.836c0-.231-.02-.445-.06-.64a1.565 1.565 0 00-.178-.504.912.912 0 00-.315-.328.841.841 0 00-.461-.121c-.179 0-.33.04-.45.12a.857.857 0 00-.293.329 1.64 1.64 0 00-.157.504 4.054 4.054 0 00-.048.64v.836c0 .23.017.442.048.637s.084.365.157.508a.881.881 0 00.292.336c.121.08.273.12.455.12.179 0 .331-.04.457-.12a.91.91 0 00.311-.332 1.69 1.69 0 00.182-.508c.04-.195.06-.409.06-.64v-.837zm3.148 1.176V24h-1.109v-5.688h1.964c.314 0 .596.046.849.137.252.089.466.214.643.375.179.16.315.35.41.574.098.224.147.473.147.747a1.693 1.693 0 01-.557 1.27 1.92 1.92 0 01-.643.366 2.55 2.55 0 01-.849.133h-.855zm0-.89h.855c.159 0 .295-.024.411-.07a.815.815 0 00.288-.192.76.76 0 00.174-.278.952.952 0 00.059-.332c0-.132-.02-.256-.059-.37a.81.81 0 00-.462-.505 1.043 1.043 0 00-.41-.074h-.856v1.82zm7.681.55c0 .365-.048.7-.145 1.008a2.336 2.336 0 01-.423.793 1.947 1.947 0 01-.674.52c-.264.122-.56.183-.892.183-.331 0-.626-.061-.884-.183a1.864 1.864 0 01-.651-.52 2.387 2.387 0 01-.402-.793 3.504 3.504 0 01-.139-1.008v-.828c0-.364.047-.7.139-1.008s.226-.571.402-.793a1.85 1.85 0 01.647-.523 2 2 0 01.884-.188c.334 0 .632.063.896.188.265.125.49.3.674.523.184.222.325.486.423.793.097.308.145.644.145 1.008v.828zm-1.124-.836c0-.231-.02-.445-.06-.64a1.59 1.59 0 00-.176-.504.907.907 0 00-.317-.328.839.839 0 00-.461-.121.793.793 0 00-.45.12.849.849 0 00-.292.329 1.67 1.67 0 00-.158.504 4.061 4.061 0 00-.047.64v.836c0 .23.016.442.047.637.032.195.085.365.158.508a.881.881 0 00.292.336.8.8 0 00.454.12c.179 0 .331-.04.457-.12a.904.904 0 00.312-.332c.081-.144.142-.313.181-.508.04-.195.06-.409.06-.64v-.837zM51.032 24v-5.688h1.93c.312 0 .597.032.852.094.257.063.478.158.66.285.18.128.32.29.417.485.1.195.15.426.15.691a1.274 1.274 0 01-.217.715c-.14.211-.346.371-.62.48.166.042.31.105.43.188s.221.182.3.297c.082.112.141.236.178.371a1.727 1.727 0 01-.083 1.137 1.4 1.4 0 01-.406.523c-.176.14-.391.246-.644.317-.252.07-.536.105-.851.105h-2.096zm1.113-2.508v1.621h.986c.303-.002.533-.075.69-.218a.734.734 0 00.241-.57c.003-.261-.067-.464-.213-.61-.144-.146-.367-.22-.67-.223h-1.034zm0-.793h.824c.309-.002.545-.066.71-.191.166-.125.251-.309.253-.551 0-.266-.083-.456-.248-.57-.166-.117-.405-.177-.719-.18h-.82v1.492zm4.86-.285h.648c.331 0 .628.043.892.129.265.083.488.202.67.355.184.154.325.34.422.559.097.219.146.461.146.727 0 .27-.049.518-.146.742a1.59 1.59 0 01-.422.57 1.936 1.936 0 01-.67.371c-.264.089-.56.133-.892.133h-1.76v-5.688h1.112v2.102zm0 .883v1.82h.648c.174 0 .323-.025.45-.074a.886.886 0 00.32-.203.769.769 0 00.188-.3c.043-.116.064-.237.064-.364a.923.923 0 00-.064-.344.688.688 0 00-.189-.277.86.86 0 00-.32-.188 1.29 1.29 0 00-.45-.07h-.647zm7.276.21h-2.359v1.606h2.757V24h-3.87v-5.688h3.858v.895h-2.745v1.434h2.36v.867zm-34.845 5.805h1.112V33h-1.112v-3.629L27.806 33h-1.108v-5.688h1.108v3.633l1.63-3.632zm10.767.891h-2.608v1.211h.647c.33 0 .629.043.891.129.266.083.49.202.671.355.184.154.325.34.422.559.097.219.147.461.147.727 0 .27-.05.518-.147.742a1.59 1.59 0 01-.422.57 1.936 1.936 0 01-.67.371 2.778 2.778 0 01-.892.133h-1.76v-5.688h3.721v.891zm-2.608 2.094v1.82h.647c.173 0 .324-.025.45-.074a.882.882 0 00.32-.203.769.769 0 00.188-.3c.043-.116.064-.237.064-.364a.923.923 0 00-.064-.344.688.688 0 00-.189-.277.856.856 0 00-.319-.188 1.296 1.296 0 00-.45-.07h-.647zm7.575-2.985V33h-1.113v-4.797H42.87l-.019 2.086a6.944 6.944 0 01-.118 1.262 2.603 2.603 0 01-.3.84 1.193 1.193 0 01-.494.464 1.554 1.554 0 01-.69.145h-.276v-.883h.158a.562.562 0 00.307-.113.62.62 0 00.182-.305c.045-.14.075-.324.091-.55.015-.23.026-.516.031-.86l.025-2.977h3.404zm3.842 4.5h-1.724L46.948 33h-1.167l1.882-5.688h1.007L50.516 33h-1.168l-.336-1.188zm-1.451-.933h1.192l-.588-2.094-.604 2.094zm7.236-2.676h-2.608V33h-1.11v-5.688h3.718v.891zm5.105 2.371c0 .365-.05.7-.146 1.008-.097.307-.239.572-.423.793s-.409.395-.674.52a2.09 2.09 0 01-.892.183 2.04 2.04 0 01-.884-.183 1.851 1.851 0 01-.65-.52 2.37 2.37 0 01-.403-.793 3.505 3.505 0 01-.138-1.008v-.828c0-.364.046-.7.138-1.008s.226-.571.403-.793a1.85 1.85 0 01.646-.523c.259-.125.553-.188.884-.188.334 0 .633.063.896.188.265.125.49.3.674.523.184.222.326.486.423.793.097.308.146.644.146 1.008v.828zm-1.125-.836c0-.231-.02-.445-.059-.64a1.59 1.59 0 00-.177-.504.907.907 0 00-.317-.328.839.839 0 00-.461-.121.793.793 0 00-.45.12.849.849 0 00-.291.329 1.64 1.64 0 00-.158.504 4.054 4.054 0 00-.047.64v.836c0 .23.016.442.047.637s.084.365.158.508a.87.87 0 00.291.336.81.81 0 00.454.12c.179 0 .331-.04.457-.12a.904.904 0 00.313-.332c.081-.144.142-.313.181-.508.04-.195.059-.409.059-.64v-.837zM64.549 33H63.44v-4.797h-1.625V33h-1.109v-5.688h3.843V33zm5.058-2.426c0 .365-.048.7-.146 1.008a2.302 2.302 0 01-.422.793 1.934 1.934 0 01-.674.52c-.264.122-.56.183-.892.183-.331 0-.626-.061-.884-.183a1.855 1.855 0 01-.651-.52 2.387 2.387 0 01-.402-.793 3.504 3.504 0 01-.139-1.008v-.828c0-.364.047-.7.139-1.008s.226-.571.402-.793a1.85 1.85 0 01.647-.523 2 2 0 01.884-.188c.334 0 .632.063.896.188.265.125.49.3.674.523.184.222.325.486.422.793.098.308.146.644.146 1.008v.828zm-1.124-.836c0-.231-.02-.445-.06-.64a1.566 1.566 0 00-.177-.504.904.904 0 00-.315-.328.841.841 0 00-.462-.121c-.179 0-.33.04-.45.12a.857.857 0 00-.292.329 1.64 1.64 0 00-.158.504 4.054 4.054 0 00-.047.64v.836c0 .23.016.442.047.637s.084.365.158.508a.881.881 0 00.292.336c.12.08.272.12.454.12a.84.84 0 00.458-.12.91.91 0 00.31-.332 1.69 1.69 0 00.182-.508c.04-.195.06-.409.06-.64v-.837zm5.804-2.425V33h-1.114v-4.797h-1.187l-.02 2.086a6.942 6.942 0 01-.118 1.262 2.603 2.603 0 01-.3.84 1.197 1.197 0 01-.492.464 1.561 1.561 0 01-.691.145h-.276v-.883h.158a.562.562 0 00.307-.113.612.612 0 00.181-.305c.045-.14.075-.324.091-.55.016-.23.027-.516.032-.86l.024-2.977h3.405zm2.6 1.953l.374 1.05 1.2-3.003h1.207l-2.044 4.609c-.068.154-.149.3-.24.441a1.56 1.56 0 01-.328.371 1.461 1.461 0 01-.445.254 1.763 1.763 0 01-.604.094c-.187 0-.353-.016-.497-.047a6.466 6.466 0 01-.348-.078l.07-.86.123.036.155.031a1.466 1.466 0 00.65-.004.798.798 0 00.244-.11.64.64 0 00.17-.167.927.927 0 00.115-.227l.11-.242-2.003-4.102h1.198l.892 1.954zm7.168-1.953V33h-1.113v-2.168a4.21 4.21 0 01-.213.05 6.508 6.508 0 01-.221.036 6.12 6.12 0 01-.21.02 2.648 2.648 0 01-.946-.098 1.533 1.533 0 01-.587-.336 1.517 1.517 0 01-.375-.578 2.454 2.454 0 01-.13-.844v-1.77h1.108v1.77c0 .19.015.348.043.473.032.125.08.225.142.3a.529.529 0 00.237.157c.095.028.207.043.335.043.054 0 .112-.002.178-.004.066-.005.134-.012.205-.02.074-.01.147-.022.221-.035.074-.013.145-.029.213-.047v-2.637h1.113zm3.614 0h1.112V33h-1.112v-3.629L86.039 33h-1.108v-5.688h1.109v3.633l1.629-3.632zm5.729 3.195h-2.36v1.605h2.758V33h-3.87v-5.688h3.858v.895h-2.746v1.434h2.36v.867z" fill="#fff"/></g></svg>