<svg data-name="Layer 1" xmlns="http://www.w3.org/2000/svg" width="101" height="101"><defs><clipPath id="a"><path fill="none" d="M.285 0h101v101h-101z"/></clipPath></defs><g clip-path="url(#a)" fill="none"><path d="M101.285 0h-101v101h101V0z" fill="#566e78"/><path d="M45.036 54.208L26.994 43.614v33.902l18.042 5.474V54.208zm1.946 0V82.99l18.219-5.474V43.614L46.982 54.208zm28.655 22.778h-.531l2.3 7.593 2.122-7.593h-.53.53V46.792h-4.422v30.194h.531z" fill="#fff" fill-rule="evenodd"/><path d="M69.269 45.203l-1.946-1.59v34.962l-20.341 6.533h-1.946l-20.165-5.65V43.614l-1.945 1.589V80.87l21.933 6.003h2.3l20.164-6.357 1.946-.53V45.204zm10.259-2.473c0-1.235-1.061-2.118-2.299-2.118s-2.299.883-2.299 2.119v2.295h4.422v-2.295h.176zm-63.5-13.949h3.183v-3.354h1.415v-2.649h-1.415V8.476h-3.36l-5.837 15.008v2.12h6.014v3.177zm-3.007-6.003l3.007-8.299v8.299h-3.007zm18.572-4.944v-.53c-1.238-.176-1.769-1.06-1.769-2.119v-4.237c0-1.413.708-2.296 2.3-2.296 1.591 0 2.299.883 2.299 2.296v4.06c0 .884-.354 1.766-1.061 1.943l1.061.177v1.06l-2.83-.354zm1.238-2.472v-4.591c0-.53-.177-.883-.707-.883-.531 0-.708.353-.708.883v4.591c0 .53.177.883.708.883.53 0 .707-.353.707-.883zm6.368-6.71v6.533c0 1.413-.531 2.12-2.122 2.12-1.592 0-2.123-.884-2.123-2.12V8.652h1.415v6.71c0 .53.177.883.708.883.53 0 .707-.353.707-.883v-6.71h1.415zm.53 8.476l1.592-8.476h1.592l1.592 8.476H43.09l-.177-1.59h-1.592l-.177 1.59h-1.415zm1.769-2.649h1.06l-.529-3.355-.531 3.355zm3.716-5.827h1.415v7.416h1.592v1.06h-3.007V8.652z" fill="#fff" fill-rule="evenodd"/><path d="M50.166 8.652h-1.415v8.476h1.415V8.652z" fill="#fff"/><path d="M50.874 8.652h3.891v1.236h-1.238v7.24h-1.415v-7.24h-1.238V8.652zm7.429 5.298v3.178h-1.592v-3.179l-1.592-5.297h1.592l.884 3.178.885-3.178h1.415l-1.592 5.297zm-28.302 6.886h3.361v1.06h-1.946v2.471h1.415v1.06h-1.415v2.648h1.946v1.236h-3.361v-8.475zm8.49 2.119v3.884c0 1.236-.531 2.296-2.122 2.296h-2.123v-8.476h2.123c1.591.177 2.122 1.06 2.122 2.296zm-2.299 5.12c.53 0 .884-.353.884-.883v-4.414c0-.53-.177-.883-.884-.883h-.531v6.18h.531zm7.075-7.239v6.356c0 1.236-.53 2.12-1.945 2.12s-2.123-.884-2.123-2.12v-6.356h1.415v6.533c0 .53.177.883.708.883.53 0 .707-.353.707-.883v-6.533h1.238zm.885 6.18v-4.061c0-1.413.708-2.296 2.123-2.296 1.592 0 2.122.883 2.122 2.119v1.06h-1.415v-1.06c0-.53-.177-.883-.707-.883-.531 0-.708.353-.708.883v4.59c0 .53.177.884.708.884.53 0 .707-.353.707-.883v-1.59h1.415v1.413c0 1.236-.53 2.12-2.122 2.12-1.415 0-2.123-1.06-2.123-2.296zm4.599 2.295l1.592-8.475h1.592l1.592 8.475h-1.415l-.177-1.589h-1.592l-.177 1.59h-1.415zm1.946-2.825h1.061l-.531-3.355-.53 3.355zm2.829-5.65h3.715v1.06h-1.062v7.415h-1.415v-7.416h-1.238v-1.06z" fill="#fff" fill-rule="evenodd"/><path d="M59.364 20.836h-1.415v8.475h1.415v-8.475z" fill="#fff"/><path d="M60.248 27.016v-4.061c0-1.413.707-2.296 2.122-2.296 1.416 0 2.123.883 2.123 2.296v4.06c0 1.413-.707 2.296-2.123 2.296-1.415 0-2.122-1.06-2.122-2.295zm2.83.176v-4.59c0-.53-.177-.883-.708-.883-.53 0-.707.353-.707.882v4.591c0 .53.177.883.707.883.531 0 .708-.353.708-.883zm3.538-3.355v5.474h-1.238v-8.475h1.415l1.415 4.767v-4.767h1.238v8.475h-1.238l-1.592-5.474z" fill="#fff" fill-rule="evenodd"/><path fill="#566e78" d="M27.285 5h62v29h-62z"/><path d="M27.43 12.664h-.457V15h-1.098V9.312h1.098v2.504h.269l1.488-2.504H30l-1.695 2.739L30.066 15h-1.273l-1.363-2.336zm5.968 1.149h-1.707L31.355 15h-1.156l1.863-5.688h.996L34.887 15H33.73l-.332-1.188zm-1.437-.934h1.179l-.582-2.094-.597 2.094zm7.304-3.566V15h-1.101v-2.168a4.135 4.135 0 01-.211.05 6.39 6.39 0 01-.219.036c-.07.008-.139.014-.207.02a2.597 2.597 0 01-.937-.098 1.514 1.514 0 01-.582-.336 1.519 1.519 0 01-.371-.578 2.476 2.476 0 01-.129-.844v-1.77h1.097v1.77c0 .19.015.348.043.473a.756.756 0 00.141.3.518.518 0 00.234.157c.094.028.205.043.332.043.052 0 .111-.002.176-.004.065-.005.133-.012.203-.02a6.39 6.39 0 00.219-.035 2.61 2.61 0 00.211-.047V9.313h1.101zm4.446 3.195h-2.336v1.605h2.73V15h-3.832V9.312h3.821v.895h-2.719v1.434h2.336v.867zm5.254.71a2.149 2.149 0 01-.188.774 1.776 1.776 0 01-1.054.961 2.441 2.441 0 01-.813.129c-.336 0-.634-.061-.895-.184a1.86 1.86 0 01-.656-.52c-.177-.223-.312-.491-.406-.804s-.141-.656-.141-1.031v-.766c0-.377.05-.722.149-1.035s.239-.58.422-.805c.182-.223.402-.397.66-.519.26-.125.552-.188.875-.188.312 0 .59.045.832.133.245.089.453.215.625.38.172.163.307.364.406.6.099.238.162.505.188.801h-1.094a1.854 1.854 0 00-.078-.445.795.795 0 00-.176-.316.684.684 0 00-.289-.192 1.153 1.153 0 00-.414-.066c-.169 0-.317.036-.442.11s-.229.18-.312.32c-.081.14-.141.313-.18.52a3.715 3.715 0 00-.058.694v.774c0 .56.078.974.234 1.242.159.268.409.402.75.402.286 0 .513-.075.68-.226.166-.154.259-.401.277-.742h1.098zM54 10.208h-1.754V15h-1.102v-4.793h-1.73v-.895H54v.895zM54.617 15V9.312h1.91c.31 0 .591.032.844.094.255.063.473.158.652.285.18.128.318.29.414.485.099.195.149.426.149.691a1.283 1.283 0 01-.215.715 1.281 1.281 0 01-.613.48 1.3 1.3 0 01.425.188c.12.083.219.182.297.297.081.112.14.236.176.371a1.741 1.741 0 01-.082 1.137 1.406 1.406 0 01-.402.523c-.175.14-.387.246-.637.316s-.531.106-.844.106h-2.074zm1.102-2.508v1.621h.976c.3-.002.528-.075.684-.219a.737.737 0 00.238-.57c.003-.26-.068-.463-.211-.61-.143-.145-.364-.22-.664-.222h-1.023zm0-.793h.816c.305-.002.539-.066.703-.191s.248-.309.25-.551c0-.266-.082-.456-.246-.57-.164-.118-.401-.177-.711-.18h-.812v1.492zm7.211.809h-2.336v1.605h2.73V15h-3.832V9.312h3.82v.895h-2.718v1.434h2.336v.867zM67.988 15h-1.086v-2.465h-1.609V15h-1.09V9.312h1.09v2.332h1.609V9.312h1.086V15zm4.805 0h-1.086v-2.465h-1.61V15h-1.089V9.312h1.089v2.332h1.61V9.312h1.086V15zm5.019-2.426c0 .365-.048.7-.144 1.008-.097.307-.236.572-.418.793s-.405.394-.668.52c-.261.122-.555.183-.883.183s-.62-.061-.875-.184a1.836 1.836 0 01-.644-.519 2.38 2.38 0 01-.399-.793 3.537 3.537 0 01-.137-1.008v-.828c0-.364.046-.7.137-1.008a2.33 2.33 0 01.399-.793 1.83 1.83 0 01.64-.523c.255-.125.547-.188.875-.188.331 0 .626.063.887.188.263.125.486.3.668.523.182.222.321.486.418.793.096.308.144.644.144 1.008v.828zm-1.113-.836a3.2 3.2 0 00-.059-.64 1.6 1.6 0 00-.175-.504.903.903 0 00-.313-.328.824.824 0 00-.457-.122.779.779 0 00-.734.45c-.073.14-.125.308-.156.504a3.979 3.979 0 00-.047.64v.836c0 .23.015.442.047.637.031.195.083.364.156.508.073.143.169.255.289.336s.269.12.449.12c.177 0 .328-.04.453-.12a.9.9 0 00.309-.332c.081-.144.14-.313.179-.508a3.2 3.2 0 00.059-.64v-.837zm5.449.77h-2.336v1.605h2.731V15h-3.832V9.312h3.82v.895h-2.719v1.434h2.336v.867zm-52.383 9.066c0 .365-.048.7-.144 1.008-.096.307-.236.572-.418.793s-.405.395-.668.52c-.26.122-.555.183-.883.183s-.62-.061-.875-.183a1.836 1.836 0 01-.644-.52 2.38 2.38 0 01-.399-.793 3.537 3.537 0 01-.137-1.008v-.828c0-.364.046-.7.137-1.008s.224-.571.399-.793a1.83 1.83 0 01.64-.523c.255-.125.547-.188.875-.188.331 0 .627.063.887.188.263.125.486.3.668.523.182.222.322.486.418.793s.144.644.144 1.008v.828zm-1.113-.836c0-.231-.019-.445-.058-.64a1.6 1.6 0 00-.176-.504.903.903 0 00-.313-.328.824.824 0 00-.457-.121.779.779 0 00-.734.449c-.073.14-.125.308-.156.504a3.979 3.979 0 00-.047.64v.836c0 .23.015.442.047.637.031.195.083.365.156.508.073.143.169.255.289.336s.27.12.449.12c.177 0 .328-.04.453-.12a.9.9 0 00.309-.332c.081-.144.141-.313.18-.508.039-.195.058-.409.058-.64v-.837zm5.633-1.535h-2.582v1.211h.641c.328 0 .622.043.882.129.263.083.485.202.664.355.183.154.322.34.418.559.097.219.145.461.145.727 0 .27-.048.518-.145.742a1.577 1.577 0 01-.418.57 1.903 1.903 0 01-.664.371c-.26.089-.554.133-.882.133h-1.743v-5.688h3.684v.891zm-2.582 2.094v1.82h.641c.171 0 .32-.025.445-.074a.864.864 0 00.316-.203.772.772 0 00.188-.3 1.07 1.07 0 00.062-.364.951.951 0 00-.062-.344.691.691 0 00-.188-.277.838.838 0 00-.316-.188 1.27 1.27 0 00-.445-.07h-.641zm4.871.617V24h-1.098v-5.688h1.946c.31 0 .59.046.84.137.25.089.462.214.636.375.177.16.313.35.407.574.096.224.144.473.144.747 0 .255-.048.49-.144.707-.094.216-.23.403-.407.562a1.877 1.877 0 01-.636.367c-.25.089-.53.133-.84.133h-.848zm0-.89h.848c.156 0 .291-.024.406-.07s.21-.112.285-.192a.748.748 0 00.172-.278.961.961 0 00.059-.332c0-.132-.02-.256-.059-.37a.8.8 0 00-.172-.302.781.781 0 00-.285-.203 1.022 1.022 0 00-.406-.074h-.848v1.82zm6.434 1.788h-1.707L40.965 24h-1.157l1.864-5.688h.996L44.496 24H43.34l-.332-1.188zm-1.438-.933h1.18l-.582-2.094-.598 2.094zm7.426-2.024a1.276 1.276 0 01-.512 1 1.79 1.79 0 01-.371.223c.315.11.555.276.719.5.167.221.25.498.25.828a1.51 1.51 0 01-.613 1.239c-.191.14-.42.248-.688.324a3.286 3.286 0 01-1.629.015 2.239 2.239 0 01-.676-.297 1.636 1.636 0 01-.484-.515 1.46 1.46 0 01-.184-.75h1.102a.67.67 0 00.277.55c.089.071.194.127.317.169a1.663 1.663 0 00.863 0c.133-.042.245-.1.336-.172a.74.74 0 00.207-.254.736.736 0 00.07-.32c0-.305-.086-.525-.257-.66-.17-.136-.42-.204-.75-.204h-.766v-.86h.766c.164 0 .303-.017.417-.054a.74.74 0 00.286-.164.622.622 0 00.164-.25.953.953 0 00.054-.328.727.727 0 00-.058-.29.626.626 0 00-.18-.241.88.88 0 00-.309-.16 1.358 1.358 0 00-.437-.063c-.13 0-.251.017-.363.05a.929.929 0 00-.293.145.746.746 0 00-.196.227.634.634 0 00-.07.297H44.89c0-.25.054-.474.161-.672.109-.198.256-.366.441-.504a2.04 2.04 0 01.641-.316c.244-.076.504-.114.777-.114.315 0 .602.036.859.106.258.068.477.17.657.308.182.136.323.305.421.508.099.2.149.434.149.7zm4.793 1.72c0 .364-.048.7-.145 1.007a2.31 2.31 0 01-.418.793 1.92 1.92 0 01-.668.52c-.26.122-.554.183-.882.183-.329 0-.62-.061-.875-.183a1.84 1.84 0 01-.645-.52 2.396 2.396 0 01-.398-.793 3.537 3.537 0 01-.137-1.008v-.828c0-.364.046-.7.137-1.008s.224-.571.398-.793c.175-.224.388-.398.641-.523.255-.125.547-.188.875-.188.33 0 .626.063.886.188.263.125.486.3.668.523.183.222.322.486.418.793.097.308.145.644.145 1.008v.828zm-1.113-.837c0-.231-.02-.445-.059-.64a1.576 1.576 0 00-.176-.504.9.9 0 00-.312-.328.826.826 0 00-.457-.121.782.782 0 00-.446.12.854.854 0 00-.289.329c-.073.14-.125.308-.156.504a4.094 4.094 0 00-.047.64v.836c0 .23.016.442.047.637s.083.365.156.508c.073.143.17.255.289.336.12.08.27.12.45.12.177 0 .328-.04.453-.12a.906.906 0 00.308-.332c.081-.144.141-.313.18-.508a3.27 3.27 0 00.059-.64v-.837zM54.617 24v-5.688h1.91c.31 0 .591.032.844.094.255.063.473.158.652.285.18.128.318.29.414.485.099.195.149.426.149.691a1.283 1.283 0 01-.215.715 1.281 1.281 0 01-.613.48 1.3 1.3 0 01.425.188c.12.083.219.182.297.297.081.112.14.236.176.371a1.741 1.741 0 01-.082 1.137 1.406 1.406 0 01-.402.523c-.175.14-.387.246-.637.317a3.13 3.13 0 01-.844.105h-2.074zm1.102-2.508v1.621h.976c.3-.002.528-.075.684-.218a.737.737 0 00.238-.57c.003-.261-.068-.464-.211-.61-.143-.146-.364-.22-.664-.223h-1.023zm0-.793h.816c.305-.002.539-.066.703-.191s.248-.309.25-.551c0-.266-.082-.456-.246-.57-.164-.117-.401-.177-.711-.18h-.812v1.492zm6.507 2.113h-1.707L60.183 24h-1.156l1.863-5.688h.997L63.715 24h-1.157l-.332-1.188zm-1.437-.933h1.18l-.582-2.094-.598 2.094zM67.988 24h-1.086v-2.465h-1.609V24h-1.09v-5.688h1.09v2.333h1.609v-2.332h1.086V24zm3.684-5.688h1.101V24h-1.101v-3.629L70.058 24h-1.097v-5.688h1.097v3.633l1.614-3.632zm5.672 3.196h-2.336v1.605h2.73V24h-3.832v-5.688h3.82v.895h-2.718v1.434h2.336v.867z" fill="#fff"/></g></svg>