<svg data-name="Layer 1" xmlns="http://www.w3.org/2000/svg" width="101" height="101"><defs><clipPath id="a"><path fill="none" d="M0 0h101v101H0z"/></clipPath></defs><g clip-path="url(#a)" fill="none"><path d="M101 0H0v101h101V0z" fill="#566e78"/><path d="M73.76 38.316H61.2s-.176 0-.176.177v4.238s0 .176.177.176h4.953l-5.484 5.474c-2.83-2.119-6.368-3.531-10.082-3.531-9.02 0-16.45 7.416-16.45 16.42 0 8.3 6.19 15.186 14.328 16.246v4.767h-4.953s-.177 0-.177.177v4.414s0 .177.177.177h4.953v4.767s0 .177.176.177h4.423s.176 0 .176-.177v-4.767h4.953s.177 0 .177-.177V82.46s0-.177-.177-.177h-4.953V77.34a16.383 16.383 0 0013.797-16.245c0-3.531-1.062-6.71-3.007-9.358l5.484-5.474v4.591s0 .177.176.177h4.245q.178 0 .178-.177l-.354-12.537c.176.177.176 0 0 0zM50.588 73.278c-6.721 0-12.205-5.474-12.205-12.007 0-6.71 5.484-12.007 12.205-12.007 6.722 0 12.028 5.474 12.028 12.007 0 6.71-5.484 12.007-12.028 12.007z" fill="#fff" fill-rule="evenodd"/><path d="M57.84 56.327H43.16s-.177 0-.177.177v3.531s0 .177.177.177h14.68q.177 0 .177-.177l-.177-3.708c.177.177.177 0 0 0zm0 6.18H43.16s-.177 0-.177.177v3.708s0 .176.177.176h14.68q.177 0 .177-.176l-.177-3.885q.177 0 0 0zM16.804 14.832c-1.415 0-2.3.53-2.83 1.413V11.3h5.837V8.476H10.79v11.477h3.184v-.53c0-1.236.53-1.942 1.591-1.942 1.062 0 1.415.706 1.415 1.766v4.944c0 1.06-.353 1.765-1.415 1.765-1.237 0-1.591-.706-1.591-1.942v-2.472H10.79v2.295c0 3.179 1.238 5.121 4.775 5.121 3.538 0 4.777-1.766 4.777-4.59v-4.945c-.178-3.178-1.77-4.59-3.538-4.59zm15.388-1.942h2.124v4.59h-1.063v-.882c-.176.706-.53 1.06-1.415 1.06-1.237 0-1.768-1.06-1.768-2.296v-4.414c0-1.413.707-2.296 2.122-2.296 1.593 0 2.124.883 2.124 2.119v.706H32.9v-.706c0-.53-.177-.883-.708-.883-.53 0-.707.353-.707.883v4.59c0 .53.177.884.707.884.531 0 .708-.353.708-.883v-1.413h-.708v-1.06zm2.831-4.061h3.538v1.236h-2.123v2.472h1.415v1.06h-1.415v2.648h2.123v1.06h-3.538V8.828zm5.483 3.178v5.297h-1.238V8.83h1.415l1.592 4.944V8.829h1.061v8.475h-1.238l-1.592-5.297zm7.96-.883v3.885c0 1.236-.53 2.295-2.123 2.295H44.22V8.83h2.122c1.592 0 2.123 1.06 2.123 2.295zm-2.3 5.12c.53 0 .885-.352.885-.882v-4.414c0-.53-.178-.883-.885-.883h-.53v6.18h.53zm3.184-7.415h3.36v1.236h-1.945v2.472h1.415v1.06h-1.415v2.648h1.946v1.06h-3.36V8.828zm5.66 4.591v3.884h-1.415V8.83h2.123c1.415 0 1.946.706 1.946 1.942v1.06c0 .882-.354 1.412-1.061 1.589l1.415 3.884h-1.415L55.01 13.42zm0-3.355v2.648h.53c.531 0 .709-.176.709-.706v-1.236c0-.53-.178-.706-.708-.706h-.53zM30.07 20.836h3.361v1.06h-1.946v2.471H32.9v1.06h-1.415v2.648h1.946v1.236h-3.36v-8.475zm5.66 9.004v-.529c-1.238-.176-1.768-1.06-1.768-2.119v-4.237c0-1.236.708-2.296 2.299-2.296 1.592 0 2.3.883 2.3 2.296v4.06c0 .884-.354 1.59-1.061 1.943l1.06.177v1.059l-2.83-.353zm1.238-2.471v-4.591c0-.53-.176-.883-.707-.883-.53 0-.708.353-.708.883v4.59c0 .53.178.884.708.884s.707-.353.707-.883zm6.368-6.533v6.533c0 1.412-.53 2.119-1.945 2.119s-2.123-.883-2.123-2.12v-6.532h1.415v6.71c0 .53.177.882.708.882.53 0 .707-.353.707-.883v-6.71h1.238zm.531 8.475l1.591-8.475h1.593l1.591 8.475h-1.415l-.354-1.589h-1.591l-.177 1.59h-1.238zm1.769-2.825h1.237l-.53-3.355-.707 3.355zm3.714-5.65h1.415v7.24h1.77v1.235H49.35v-8.475z" fill="#fff" fill-rule="evenodd"/><path d="M54.48 20.836h-1.415v8.475h1.415v-8.475z" fill="#fff"/><path d="M55.188 20.836h3.89v1.06H57.84v7.415h-1.415v-7.416h-1.237v-1.06zm7.252 5.12v3.355h-1.416v-3.355l-1.591-5.12h1.591l.708 3.178.885-3.178h1.415l-1.593 5.12z" fill="#fff" fill-rule="evenodd"/><path fill="#566e78" d="M29.586 4h53.051v26H29.586z"/><path d="M29.82 10.203h-2.634V15h-1.119V9.312h3.754v.891zm4.68 2.305h-2.384v1.605h2.786V15h-3.91V9.312h3.898v.895h-2.774v1.434h2.383v.867zM39.66 15h-1.108v-2.465h-1.641V15h-1.112V9.312h1.112v2.332h1.641V9.312h1.108V15zm5.01 1.398h-.965V15H41.51v1.398h-.945l-.175-2.28h.215a.972.972 0 00.318-.262c.091-.113.167-.264.228-.454.061-.192.11-.43.147-.714.038-.287.064-.636.08-1.047l.16-2.328h2.864v4.804h.427l-.16 2.281zm-2.168-4.757c-.014.304-.033.58-.06.828a7.252 7.252 0 01-.095.675c-.04.201-.087.382-.14.543a3.232 3.232 0 01-.176.43h1.256v-3.914h-.69l-.095 1.438zm6.702.867h-2.382v1.605h2.785V15h-3.91V9.312h3.898v.895h-2.773v1.434h2.382v.867zm2.523.406V15h-1.12V9.312h1.985c.317 0 .602.046.857.137.255.089.472.214.65.375.18.16.319.35.414.574.098.224.147.473.147.746 0 .256-.049.491-.147.708a1.615 1.615 0 01-.415.562 1.924 1.924 0 01-.649.367 2.6 2.6 0 01-.857.133h-.865zm0-.89h.865c.16 0 .297-.024.415-.07a.806.806 0 00.466-.47.944.944 0 00.06-.332c0-.133-.02-.256-.06-.37a.795.795 0 00-.176-.301.797.797 0 00-.29-.204 1.061 1.061 0 00-.415-.074h-.865v1.82zM59.267 15H58.16v-2.465h-1.643V15h-1.11V9.312h1.11v2.332h1.643V9.312h1.108V15zm5.121-2.426c0 .365-.049.7-.147 1.008-.099.307-.24.572-.426.793a1.964 1.964 0 01-.682.52 2.132 2.132 0 01-.9.183c-.335 0-.633-.061-.893-.184a1.88 1.88 0 01-.658-.519 2.378 2.378 0 01-.406-.793 3.472 3.472 0 01-.14-1.008v-.828c0-.364.047-.7.14-1.008a2.33 2.33 0 01.406-.793c.178-.224.395-.398.654-.523.26-.125.558-.188.892-.188.338 0 .639.063.905.188.268.125.495.3.682.523.185.222.327.486.426.793.098.308.147.644.147 1.008v.828zm-1.135-.836c0-.231-.02-.445-.06-.64a1.579 1.579 0 00-.18-.504.91.91 0 00-.319-.328.854.854 0 00-.466-.122.8.8 0 00-.454.122.852.852 0 00-.295.328c-.074.14-.127.308-.16.504a4.02 4.02 0 00-.047.64v.836c0 .23.016.442.047.637.033.195.086.364.16.508.075.143.173.255.295.336s.275.12.458.12a.847.847 0 00.778-.452 1.71 1.71 0 00.182-.508 3.2 3.2 0 00.06-.64v-.837zm5.559.77h-2.384v1.605h2.787V15h-3.91V9.312h3.897v.895h-2.774v1.434h2.384v.867zm-41.593 9.406V24h-1.12v-5.688h1.984c.316 0 .602.046.857.137.255.089.471.214.65.375.18.16.318.35.414.574.1.224.148.473.148.747a1.678 1.678 0 01-.562 1.27 1.939 1.939 0 01-.65.366 2.6 2.6 0 01-.857.133h-.864zm0-.89h.864c.16 0 .298-.024.415-.07a.824.824 0 00.291-.192.759.759 0 00.176-.278.943.943 0 00.059-.332c0-.132-.02-.256-.06-.37a.809.809 0 00-.466-.505 1.063 1.063 0 00-.415-.074h-.864v1.82zm6.563 1.788H32.04L31.698 24h-1.18l1.901-5.688h1.016L35.301 24h-1.18l-.339-1.188zm-1.466-.933h1.203l-.594-2.094-.61 2.094zM35.822 24v-5.688h1.949c.316 0 .604.032.861.094.26.063.483.158.666.285a1.3 1.3 0 01.423.485c.1.195.15.426.15.691a1.265 1.265 0 01-.219.715c-.14.211-.349.371-.625.48.167.042.312.105.434.188s.223.182.303.297c.082.112.142.236.179.371a1.712 1.712 0 01-.084 1.137 1.4 1.4 0 01-.41.523c-.178.14-.395.246-.65.317-.255.07-.541.105-.86.105h-2.117zm1.125-2.508v1.621h.995c.306-.002.539-.075.698-.218a.73.73 0 00.243-.57c.003-.261-.068-.464-.215-.61-.146-.146-.372-.22-.678-.223h-1.043zm0-.793h.832c.311-.002.55-.066.717-.191.168-.125.253-.309.255-.551 0-.266-.083-.456-.25-.57-.168-.117-.41-.177-.726-.18h-.828v1.492zm7.356.809H41.92v1.605h2.785V24h-3.91v-5.688h3.899v.895H41.92v1.434h2.383v.867zM49.463 24h-1.107v-2.465h-1.642V24h-1.112v-5.688h1.112v2.333h1.642v-2.332h1.107V24zm5.101-1.781a2.094 2.094 0 01-.19.773c-.106.23-.25.425-.43.586a1.908 1.908 0 01-.647.375 2.53 2.53 0 01-.828.129c-.343 0-.647-.061-.913-.184a1.892 1.892 0 01-.67-.52 2.36 2.36 0 01-.414-.804 3.503 3.503 0 01-.143-1.031v-.766c0-.377.05-.722.15-1.035.102-.312.245-.58.431-.805.187-.224.411-.397.673-.519.267-.125.565-.188.894-.188.318 0 .601.045.849.133.249.089.462.215.638.38.174.163.313.364.414.6.1.238.164.505.19.802h-1.115a1.773 1.773 0 00-.08-.446.79.79 0 00-.179-.316.699.699 0 00-.294-.192 1.197 1.197 0 00-.423-.066.892.892 0 00-.45.11.884.884 0 00-.32.32c-.082.14-.143.313-.183.52-.04.202-.06.434-.06.695v.773c0 .56.08.974.24 1.242.162.268.417.402.765.402.292 0 .523-.075.693-.226.17-.154.264-.401.283-.742h1.12zm5.138-3.012h-1.79V24H56.79v-4.793h-1.765v-.895h4.678v.895zm.63 4.793v-5.688h1.948c.317 0 .603.032.861.094.26.063.482.158.665.285.184.128.325.29.423.485.1.195.15.426.15.691a1.264 1.264 0 01-.217.715c-.141.211-.35.371-.627.48.167.042.312.105.435.188.122.083.223.182.303.297.082.112.142.236.18.371.04.133.058.27.058.414 0 .273-.046.514-.142.723a1.403 1.403 0 01-.412.523c-.177.14-.393.246-.648.317a3.26 3.26 0 01-.861.105h-2.116zm1.123-2.508v1.621h.997c.305-.002.537-.075.696-.218a.731.731 0 00.244-.57c.002-.261-.07-.464-.215-.61-.146-.146-.372-.22-.677-.223h-1.045zm0-.793h.833c.31-.002.55-.066.718-.191.167-.125.252-.309.255-.551 0-.266-.084-.456-.251-.57-.168-.117-.41-.177-.726-.18h-.83v1.492zm7.835.875c0 .365-.049.7-.148 1.008-.098.307-.24.572-.426.793a1.951 1.951 0 01-.68.52 2.132 2.132 0 01-.902.183c-.334 0-.632-.061-.892-.183a1.87 1.87 0 01-.658-.52 2.378 2.378 0 01-.406-.793 3.472 3.472 0 01-.14-1.008v-.828c0-.364.047-.7.14-1.008s.228-.571.406-.793a1.86 1.86 0 01.654-.523c.26-.125.558-.188.892-.188.338 0 .639.063.905.188.269.125.495.3.68.523.187.222.33.486.427.793.1.308.148.644.148 1.008v.828zm-1.135-.836c0-.231-.02-.445-.06-.64a1.555 1.555 0 00-.18-.504.908.908 0 00-.318-.328.856.856 0 00-.467-.121.81.81 0 00-.455.12.86.86 0 00-.295.329c-.074.14-.127.308-.159.504a4.014 4.014 0 00-.048.64v.836c0 .23.017.442.048.637.032.195.085.365.16.508a.884.884 0 00.294.336c.123.08.276.12.46.12a.847.847 0 00.776-.452 1.69 1.69 0 00.183-.508c.04-.195.06-.409.06-.64v-.837z" fill="#fff"/></g></svg>