<svg data-name="Layer 1" xmlns="http://www.w3.org/2000/svg" width="101" height="101"><defs><clipPath id="a"><path fill="none" d="M0 0h101v101H0z"/></clipPath></defs><g clip-path="url(#a)" fill="none"><path d="M101 0H0v101h101V0z" fill="#566e78"/><path d="M69.217 40.789s-.176-.177-.353-.177H32.136q-.176 0-.352.177c0 .176-.177.176-.177.353l6.18 37.257c0 .176.177.353.353.353h7.593l.53 6.003h-3.178l7.415 7.416 7.416-7.416h-3.178l.53-6.003h7.77a.379.379 0 00.352-.353l5.827-37.257q.177-.177 0-.353zm-14.126 29.84s-1.59 1.766-4.414 1.59c-2.648.176-4.415-1.59-4.415-1.59-2.825-2.648-1.765-6.18-.883-7.945.53-1.06 4.769-7.416 5.121-7.946.353.53 4.591 6.886 5.12 7.946 1.237 1.765 2.12 5.12-.529 7.945zm11.654-22.071c-1.06-.354-2.296-.177-3.531.176-4.592 1.766-7.593 2.472-12.36 1.06-3.002-.883-5.827-3.002-9.182-1.766-2.12.706-4.238 1.59-6.71 1.59L33.55 42.2h34.255l-1.06 6.357zM15.362 29.311c3.531 0 4.944-1.942 4.944-5.12v-3.002c0-3.355-1.236-5.12-3.709-5.12-1.412 0-2.294.705-2.825 1.588v-4.414c0-1.236.354-2.119 1.59-2.119 1.235 0 1.589.706 1.589 1.942v1.413h3.178v-1.06c0-3.001-1.06-5.12-4.767-5.12-3.532 0-4.945 2.295-4.945 5.474v10.064c0 3.179 1.413 5.474 4.945 5.474zm-1.59-8.652c0-1.236.53-1.942 1.59-1.942 1.235 0 1.589.706 1.589 2.119v3.531c0 1.236-.53 2.119-1.589 2.119-1.06 0-1.59-.706-1.59-2.119V20.66zm15.539-5.65v-4.061c0-1.413.706-2.296 2.118-2.296 1.59 0 2.12.883 2.12 2.119v1.06h-1.413v-1.06c0-.53-.177-.883-.707-.883s-.706.353-.706.883v4.59c0 .53.177.884.706.884.53 0 .707-.353.707-.883v-1.59h1.412v1.413c0 1.236-.53 2.12-2.119 2.12-1.589 0-2.118-.884-2.118-2.296zm5.121-6.357h1.236v7.416h1.589v1.06h-2.825V8.652zm3.531 0h3.53v1.236h-1.941v2.296h1.413v1.236h-1.413v2.648h1.942v1.06h-3.531V8.652zm4.061 8.476l1.59-8.476h1.589l1.59 8.476h-1.414l-.353-1.59h-1.589l-.177 1.59h-1.236zm1.767-2.649h1.235l-.53-3.355-.705 3.355zm4.944-2.649v5.298h-1.237V8.652h1.413l1.413 4.944V8.652h1.236v8.476h-1.236l-1.59-5.298zm8.121 0l-.706 5.298h-1.413l-1.06-8.476h1.413l.53 5.474.707-5.474h1.236l.706 5.474.706-5.474h1.236l-1.06 8.476H57.74l-.883-5.298zm3.178 5.298l1.59-8.476h1.589l1.59 8.476H63.39l-.354-1.59h-1.589l-.176 1.59h-1.237zm1.767-2.649h1.235l-.53-3.355-.705 3.355zm2.825-5.827h3.884v1.236h-1.235v7.24h-1.413v-7.24h-1.236V8.652zm4.414 0h3.532v1.236h-1.943v2.296h1.237v1.236h-1.237v2.648h1.943v1.06H69.04V8.652zm5.65 4.591v3.885h-1.41V8.652h2.119c1.412 0 1.942.706 1.942 1.942v1.06c0 .883-.354 1.412-1.06 1.59l1.412 3.884H76.28l-1.59-3.885zm0-3.355v2.649h.53c.53 0 .707-.177.707-.707v-1.236c0-.53-.177-.706-.706-.706h-.53zM29.134 29.311l1.59-8.475h1.589l1.589 8.475h-1.413l-.353-1.589h-1.59l-.175 1.59h-1.237zm1.766-2.825h1.06l-.53-3.355-.53 3.355zm4.944-2.649v5.474h-1.235v-8.475h1.412l1.59 4.767v-4.767h1.235v8.475H37.61l-1.766-5.474zm8.123-.882v3.884c0 1.236-.53 2.296-2.119 2.296h-2.295v-8.476h2.295c1.412.177 2.12 1.06 2.12 2.296zm-2.472 5.12c.53 0 .883-.353.883-.883v-4.414c0-.53-.176-.883-.883-.883h-.706v6.18h.706zm4.237-.706v-1.06h1.413v1.236c0 .53.177.707.706.707.53 0 .707-.353.707-.707v-.353c0-.53-.177-.883-.707-1.236l-.883-.883c-.883-.882-1.236-1.236-1.236-2.295v-.353c0-1.06.707-1.942 2.119-1.942 1.413 0 2.119.706 2.119 1.942v.706h-1.412v-.706c0-.53-.177-.706-.707-.706-.353 0-.706.176-.706.706v.176c0 .53.353.707.706 1.06l.882.883c.883.883 1.237 1.236 1.237 2.119v.353c0 1.236-.706 1.942-2.12 1.942-1.411.353-2.118-.53-2.118-1.59zm4.768 1.942l1.589-8.475h1.59l1.588 8.475h-1.412l-.177-1.589h-1.59l-.175 1.59H50.5zm1.765-2.825h1.06l-.53-3.355-.53 3.355zm4.768-2.649v5.474h-1.237v-8.475h1.413l1.59 4.767v-4.767h1.235v8.475h-1.236l-1.765-5.474z" fill="#fff" fill-rule="evenodd"/><path d="M62.153 20.836h-1.236v8.475h1.236v-8.475z" fill="#fff"/><path d="M63.036 20.836h3.532v1.06h-1.06v7.415h-1.412v-7.416h-1.06v-1.06zm3.532 8.475l1.59-8.475h1.589l1.588 8.475h-1.588l-.177-1.589h-1.412l-.177 1.59h-1.413zm1.766-2.825h1.06l-.53-3.355-.53 3.355zm2.826-5.65h3.707v1.06h-1.235v7.415h-1.236v-7.416H71.16v-1.06z" fill="#fff" fill-rule="evenodd"/><path d="M76.986 20.836H75.75v8.475h1.236v-8.475z" fill="#fff"/><path d="M77.869 27.016v-4.061c0-1.413.706-2.296 2.295-2.296 1.59 0 2.295.883 2.295 2.296v4.06c0 1.413-.706 2.296-2.295 2.296s-2.295-1.06-2.295-2.295zm2.825.176v-4.59c0-.53-.177-.883-.706-.883-.53 0-.707.353-.707.882v4.591c0 .53.177.883.707.883s.706-.353.706-.883zm3.532-3.355v5.474h-1.06v-8.475h1.237l1.588 4.767v-4.767h1.06v8.475h-1.06l-1.765-5.474z" fill="#fff" fill-rule="evenodd"/><path fill="#566e78" d="M24.24 6h71.71v35H24.24z"/><path d="M30.675 9.313V15h-1.112v-2.168c-.069.018-.14.035-.213.05a6.513 6.513 0 01-.222.036c-.07.008-.14.014-.209.02a2.654 2.654 0 01-.947-.098 1.548 1.548 0 01-.588-.336 1.529 1.529 0 01-.375-.578 2.454 2.454 0 01-.13-.844v-1.77h1.11v1.77c0 .19.013.348.043.473a.738.738 0 00.142.3.518.518 0 00.236.157c.095.028.206.043.336.043.052 0 .112-.002.177-.004a6.41 6.41 0 00.205-.02c.074-.01.148-.022.222-.035.073-.013.144-.029.213-.047V9.313h1.112zm3.613 0h1.114V15h-1.114v-3.629L32.66 15h-1.11V9.312h1.11v3.633l1.628-3.633zm6.183 3.906a2.088 2.088 0 01-.19.773c-.104.23-.247.425-.425.586a1.891 1.891 0 01-.64.375 2.486 2.486 0 01-.82.129c-.34 0-.64-.061-.904-.184a1.876 1.876 0 01-.662-.52 2.367 2.367 0 01-.41-.804 3.536 3.536 0 01-.143-1.031v-.766c0-.377.05-.722.15-1.035s.242-.58.426-.805c.185-.223.407-.397.666-.519.264-.125.559-.188.884-.188.316 0 .596.045.84.133.248.089.46.215.632.38.173.163.31.364.41.6.1.238.163.505.19.801H39.37a1.747 1.747 0 00-.079-.445.791.791 0 00-.177-.316.691.691 0 00-.292-.192 1.177 1.177 0 00-.419-.066.864.864 0 00-.445.11.88.88 0 00-.315.32c-.082.14-.143.313-.182.52-.04.202-.06.434-.06.694v.774c0 .56.08.974.238 1.242.16.268.412.402.757.402.289 0 .518-.075.686-.226.169-.154.262-.401.28-.742h1.109zm5.085-3.012h-1.77V15h-1.113v-4.793h-1.748v-.895h4.631v.895zm3.456 3.605h-1.724L46.948 15h-1.167l1.882-5.688h1.007L50.516 15h-1.168l-.336-1.188zm-1.451-.933h1.192l-.588-2.094-.604 2.094zM53.526 15v-2.238h-.888L51.558 15H50.37l1.243-2.57a1.732 1.732 0 01-.699-.578 1.552 1.552 0 01-.236-.868c0-.273.048-.514.145-.722.098-.209.238-.383.418-.524a1.91 1.91 0 01.668-.316c.26-.073.551-.11.876-.11h1.854V15h-1.113zm-1.74-3.95c0 .298.083.518.25.66.165.142.414.212.749.212h.74v-1.719h-.74c-.343 0-.595.074-.758.223-.16.148-.241.357-.241.625zM60.738 15V9.312h1.93c.313 0 .596.032.852.094.257.063.477.158.658.285.182.128.322.29.419.485.1.195.149.426.149.691a1.273 1.273 0 01-.216.715 1.29 1.29 0 01-.62.48c.165.042.309.105.43.188s.221.182.3.297c.082.112.14.236.178.371.04.133.058.27.058.414 0 .274-.046.514-.141.723s-.23.383-.407.523c-.176.14-.39.246-.642.316-.253.07-.538.106-.853.106h-2.095zm1.112-2.508v1.621h.987c.302-.002.532-.075.69-.219a.735.735 0 00.241-.57c.002-.26-.068-.463-.213-.61-.144-.145-.368-.22-.67-.222H61.85zm0-.793h.826c.307-.002.544-.066.71-.191.165-.125.25-.309.252-.551 0-.266-.083-.456-.248-.57-.166-.118-.405-.177-.718-.18h-.822v1.492zm7.757.875c0 .365-.048.7-.146 1.008a2.3 2.3 0 01-.422.793 1.934 1.934 0 01-.674.52c-.264.122-.56.183-.892.183-.331 0-.626-.061-.884-.184a1.856 1.856 0 01-.651-.519 2.388 2.388 0 01-.402-.793 3.504 3.504 0 01-.139-1.008v-.828c0-.364.047-.7.139-1.008.092-.307.226-.571.402-.793a1.85 1.85 0 01.647-.523 2 2 0 01.884-.188c.334 0 .632.063.896.188.265.125.49.3.674.523a2.3 2.3 0 01.422.793c.098.308.146.644.146 1.008v.828zm-1.124-.836c0-.231-.02-.445-.06-.64a1.564 1.564 0 00-.177-.504.904.904 0 00-.315-.328.841.841 0 00-.462-.122c-.179 0-.33.04-.45.122a.857.857 0 00-.292.328 1.64 1.64 0 00-.158.504 4.061 4.061 0 00-.047.64v.836c0 .23.016.442.047.637s.084.364.158.508a.882.882 0 00.292.336c.12.08.272.12.454.12a.84.84 0 00.458-.12.91.91 0 00.31-.332 1.69 1.69 0 00.182-.508 3.2 3.2 0 00.06-.64v-.837zm5.866 4.66h-.954V15H71.22v1.398h-.935l-.174-2.28h.213a.964.964 0 00.315-.262 1.4 1.4 0 00.226-.454c.06-.192.109-.43.146-.714.036-.287.063-.636.079-1.047l.157-2.328h2.838v4.804h.422l-.159 2.281zm-2.146-4.757c-.013.304-.032.58-.059.828a7.32 7.32 0 01-.095.675 4.654 4.654 0 01-.138.543c-.053.16-.11.303-.174.43h1.244v-3.914h-.683l-.095 1.438zm5.926 2.172h-1.725L76.065 15h-1.167l1.882-5.688h1.006L79.632 15h-1.167l-.336-1.188zm-1.452-.934h1.192l-.588-2.094-.604 2.094zm-47.24 5.434h1.111V24h-1.112v-3.629L27.806 24h-1.108v-5.688h1.108v3.633l1.63-3.632zm11.034 3.906a2.088 2.088 0 01-.19.773c-.104.23-.247.425-.425.586a1.892 1.892 0 01-.64.375 2.486 2.486 0 01-.82.129c-.34 0-.64-.061-.904-.184a1.876 1.876 0 01-.662-.52 2.367 2.367 0 01-.41-.804 3.536 3.536 0 01-.143-1.031v-.766c0-.377.05-.722.15-1.035s.242-.58.426-.805a1.91 1.91 0 01.666-.519c.264-.125.559-.188.884-.188.316 0 .596.045.84.133.248.089.46.215.632.38.173.163.31.364.41.6.1.238.163.505.19.802H39.37a1.747 1.747 0 00-.079-.446.791.791 0 00-.177-.316.691.691 0 00-.292-.192 1.177 1.177 0 00-.419-.066.874.874 0 00-.445.11.88.88 0 00-.315.32c-.082.14-.143.313-.182.52-.04.202-.06.434-.06.695v.773c0 .56.08.974.238 1.242.16.268.412.402.757.402.289 0 .518-.075.686-.226.169-.154.262-.401.28-.742h1.109zm3.69.593h-1.725L42.096 24h-1.168l1.883-5.688h1.006L45.663 24h-1.167l-.336-1.188zm-1.453-.933H43.9l-.588-2.094-.604 2.094zM49.978 24h-1.096v-2.465h-1.625V24h-1.101v-5.688h1.1v2.333h1.626v-2.332h1.097V24zm3.722-5.688h1.113V24H53.7v-3.629L52.07 24h-1.108v-5.688h1.109v3.633l1.629-3.632zm6.415.895h-1.771V24H57.23v-4.793h-1.748v-.895h4.632v.895zm3.455 3.605h-1.724L61.507 24h-1.168l1.882-5.688h1.007L65.074 24h-1.168l-.336-1.188zm-1.45-.933h1.19l-.587-2.094-.604 2.094zm4.658.035V24H65.67v-5.688h1.965c.313 0 .596.046.848.137.253.089.467.214.642.375.18.16.317.35.412.574.096.224.145.473.145.747 0 .255-.049.49-.145.707a1.614 1.614 0 01-.412.562 1.9 1.9 0 01-.642.367 2.55 2.55 0 01-.848.133h-.857zm0-.89h.857c.157 0 .295-.024.41-.07a.797.797 0 00.461-.47.953.953 0 00.06-.332c0-.132-.02-.256-.06-.37a.797.797 0 00-.173-.302.788.788 0 00-.288-.203 1.037 1.037 0 00-.41-.074h-.857v1.82zm6.333-2.712h1.112V24H73.11v-3.629L71.48 24h-1.108v-5.688h1.108v3.633l1.63-3.632zM77.79 24v-2.238h-.889L75.821 24h-1.187l1.242-2.57a1.728 1.728 0 01-.698-.578 1.545 1.545 0 01-.237-.868c0-.273.048-.514.146-.722.097-.209.237-.383.419-.524.183-.14.406-.246.666-.316.26-.073.553-.11.876-.11h1.854V24H77.79zm-1.741-3.95c0 .298.083.518.248.66.166.142.416.212.75.212h.742v-1.719h-.742c-.342 0-.594.074-.758.223-.16.148-.24.357-.24.625z" fill="#fff"/></g></svg>