<svg data-name="Layer 1" xmlns="http://www.w3.org/2000/svg" width="101" height="101"><defs><clipPath id="a"><path fill="none" d="M0 0h101v101H0z"/></clipPath></defs><g clip-path="url(#a)" fill="none"><path d="M101 0H0v101h101V0z" fill="#566e78"/><path d="M50.677 48.91c-8.122 0-14.832 6.71-14.832 14.833 0 8.122 6.71 14.832 14.832 14.832s14.832-6.71 14.832-14.832-6.71-14.832-14.832-14.832zm-1.06 5.828c0-.53.53-1.06 1.06-1.06s1.059.53 1.059 1.06v5.12c0 .53-.529 1.06-1.059 1.06-.53 0-1.06-.53-1.06-1.06v-5.12zm1.06 16.598c-4.238 0-7.769-3.532-7.769-7.77 0-3.531 2.295-6.356 5.473-7.416v2.825c-1.589.883-2.825 2.472-2.825 4.415 0 2.825 2.296 5.12 5.121 5.12s5.121-2.295 5.121-5.12a5.09 5.09 0 00-2.826-4.591v-2.825c3.179 1.06 5.474 3.884 5.474 7.416 0 4.59-3.531 7.946-7.769 7.946zm-16.952-7.593c0-.706-.53-1.236-1.059-1.236h-6.534c-.529 0-1.236.53-1.236 1.236s.53 1.236 1.236 1.236h6.534c.353-.177 1.059-.706 1.059-1.236zm42.554 0c0-.706-.529-1.236-1.059-1.236h-6.357c-.53 0-1.059.53-1.059 1.236s.529 1.236 1.059 1.236h6.357c.53-.177 1.059-.706 1.059-1.236zM50.5 89.346c.706 0 1.236-.53 1.236-1.06V81.93c0-.53-.53-1.06-1.236-1.06-.707 0-1.236.53-1.236 1.06v6.357c.176.53.706 1.06 1.236 1.06zm22.424-12.89c.354-.53.001-1.412-.353-1.589l-5.65-3.355c-.53-.176-1.236 0-1.589.53s0 1.413.353 1.766l5.65 3.355c.53.176 1.236 0 1.589-.707zm-35.138 9.535c.53.353 1.413.177 1.59-.353l3.354-5.65c.177-.53 0-1.236-.529-1.59-.53-.352-1.413 0-1.589.354l-3.355 5.65c-.353.53-.177 1.413.529 1.59zm25.603-.176c.53-.353.707-1.06.53-1.59l-3.178-5.65c-.353-.53-1.06-.706-1.589-.353-.53.353-.707 1.06-.53 1.59l3.178 5.473c.177.706 1.06.883 1.589.53zm-34.96-9.359c.353.53 1.059.707 1.589.53l5.65-3.355c.53-.353.707-1.06.353-1.766-.353-.53-1.059-.706-1.589-.53l-5.65 3.356c-.53.353-.706 1.236-.353 1.765zM50.5 46.615c.706 0 1.236-.53 1.236-1.06V39.2c0-.53-.53-1.06-1.236-1.06-.707 0-1.236.53-1.236 1.06v6.357c.176.53.706 1.06 1.236 1.06zm-14.656 8.476c.354-.53 0-1.413-.353-1.59l-5.65-3.177c-.53-.177-1.236 0-1.589.53-.353.529 0 1.412.353 1.588l5.65 3.179c.53.176 1.236 0 1.589-.53zm23.308-6.181c.529.354 1.412.177 1.589-.352l3.178-5.65c.177-.53 0-1.237-.53-1.59-.529-.353-1.412 0-1.589.353l-3.178 5.65c-.353.53-.177 1.413.53 1.59zm-16.951 0c.53-.352.707-1.059.53-1.588l-3.355-5.65c-.353-.53-1.059-.707-1.765-.354-.53.353-.707 1.236-.53 1.59l3.355 5.65c.353.53 1.236.706 1.765.353zm23.308 6.181c.353.53 1.059.706 1.589.53l5.474-3.179c.53-.176.706-1.06.353-1.589-.353-.53-1.059-.706-1.589-.53l-5.651 3.179c-.353.353-.529 1.06-.176 1.589zM10.418 11.3h5.297l-4.591 17.481h3.355l4.591-17.127V8.476h-8.652V11.3zm18.187 5.651l1.59-8.475h1.589l1.589 8.475H31.96l-.353-1.59h-1.589l-.176 1.59h-1.237zm1.766-2.649h1.236l-.529-3.354-.707 3.354zm3.708-5.826h3.178v1.236h-1.765v2.295h1.412v1.236h-1.412v3.708h-1.413V8.476zm3.884 0h3.355v1.236h-1.943v2.295h1.413v1.236h-1.413v3.708h-1.412V8.476zm4.061 6.356v-4.061c0-1.413.707-2.295 2.119-2.295 1.413 0 2.119.882 2.119 2.295v4.061c0 1.413-.706 2.296-2.119 2.296-1.589 0-2.119-.883-2.119-2.296zm2.826.177v-4.415c0-.53-.177-.882-.707-.882-.529 0-.706.353-.706.882v4.591c0 .53.177.883.706.883.353-.176.707-.53.707-1.06zm3.531-1.943v3.885h-1.412V8.476h2.119c1.412 0 1.942.706 1.942 1.942v1.06c0 .882-.353 1.412-1.06 1.588l1.413 3.885H49.97l-1.589-3.885zm0-3.354v2.648h.53c.53 0 .706-.176.706-.706V10.24c0-.53-.176-.706-.706-.706h-.53v.177zm7.77 1.059v3.885c0 1.236-.53 2.295-2.119 2.295h-2.119V8.476h2.119c1.589 0 2.119.882 2.119 2.295zm-2.296 4.944c.53 0 .883-.353.883-.883v-4.414c0-.53-.176-.883-.883-.883h-.529v6.18h.529zm2.649 1.236l1.589-8.475h1.589l1.589 8.475h-1.412l-.353-1.59h-1.59l-.176 1.59h-1.236zm1.942-2.649h1.06l-.53-3.531-.53 3.531zm3.355-5.826h2.119c1.412 0 1.942.706 1.942 1.765v.883c0 .706-.177 1.236-.883 1.413.706.176 1.06.706 1.06 1.412v1.06c0 1.236-.53 1.765-1.943 1.765h-2.295V8.476zm1.589 3.531h.53c.529 0 .706-.177.706-.706v-1.06c0-.53-.177-.706-.706-.706h-.53v2.472zm0 1.06v2.648h.706c.53 0 .706-.177.706-.706v-1.236c0-.53-.176-.707-.706-.707h-.706zm3.531-4.591h1.412v7.24h1.59v1.235h-3.002V8.476zm3.709 0h3.531v1.236h-2.119v2.295h1.59v1.236h-1.59v2.472h2.119v1.236H70.63V8.476zm5.297 8.475l1.589-8.475h1.589l1.589 8.475h-1.412l-.177-1.59h-1.589l-.177 1.59h-1.412zm1.765-2.649h1.236l-.529-3.354-.707 3.354zm4.944-2.648v5.297H81.4V8.476h1.413l1.589 4.767V8.476h1.236v8.475h-1.236l-1.766-5.297zm8.123-.883v3.885c0 1.236-.53 2.295-2.119 2.295h-2.295V8.476h2.295c1.413 0 2.119.882 2.119 2.295zm-2.472 4.944c.53 0 .883-.353.883-.883v-4.414c0-.53-.177-.883-.883-.883h-.706v6.18h.706zM28.781 26.663V22.6c0-1.412.707-2.295 2.119-2.295 1.589 0 2.119.883 2.119 2.119v1.06h-1.413v-1.06c0-.53-.176-.883-.706-.883s-.706.353-.706.883v4.59c0 .53.176.884.706.884s.706-.354.706-.883v-1.59h1.413v1.413c0 1.236-.53 2.12-2.119 2.12-1.412 0-2.119-.884-2.119-2.296zm4.945-6.18h1.412v7.416h1.766v1.059h-3.178v-8.475zm3.708 0h3.531v1.236h-2.119v2.472h1.413v1.059h-1.413v2.649h2.119v1.059h-3.531v-8.475zm4.061 8.475l1.589-8.475h1.589l1.59 8.475H44.85l-.177-1.59h-1.589l-.176 1.59h-1.413zm1.766-2.649h1.236l-.53-3.354-.706 3.354zm4.944-2.649v5.298h-1.236v-8.475h1.412l1.589 4.944v-4.944h1.06v8.475h-1.236l-1.589-5.297zm4.943-3.177h3.355v1.236h-1.942v2.472h1.413v1.059h-1.413v2.649h1.942v1.059h-3.355v-8.475zm5.475 3.177v5.298h-1.236v-8.475h1.412l1.413 4.944v-4.944h1.236v8.475h-1.236l-1.589-5.297zm3.707-3.177h3.355v1.236h-1.942v2.472h1.412v1.059h-1.412v2.649h1.942v1.059H62.33v-8.475zm5.651 4.59v3.885h-1.413v-8.475h2.119c1.413 0 1.943.706 1.943 1.942v1.06c0 .882-.354 1.412-1.06 1.588l1.413 3.885H69.57l-1.589-3.885zm0-3.354v2.648h.53c.529 0 .706-.176.706-.706v-1.236c0-.53-.177-.706-.706-.706h-.53zm5.651 2.648h2.118v4.591h-1.059v-.883c-.177.706-.53 1.06-1.413 1.06-1.236 0-1.765-.883-1.765-2.296v-4.061c0-1.413.706-2.295 2.119-2.295 1.589 0 2.118.882 2.118 2.118v.707h-1.412v-.883c0-.53-.177-.883-.706-.883-.53 0-.707.353-.707.883v4.59c0 .53.177.884.707.884.529 0 .706-.354.706-.883v-1.413h-.706v-1.236zm5.296 1.413v3.178h-1.412V25.78l-1.589-5.297h1.412l.883 3.354.883-3.354h1.413l-1.59 5.297z" fill="#fff" fill-rule="evenodd"/><path fill="#566e78" d="M25 1h75v37H25z"/><path d="M29.266 15H28.18v-2.465h-1.61V15h-1.09V9.312h1.09v2.332h1.61V9.312h1.086V15zm4.55-2.492H31.48v1.605h2.731V15h-3.832V9.312h3.82v.895H31.48v1.434h2.336v.867zm5.164 3.89h-.945V15h-2.152v1.398h-.926l-.172-2.28h.211a.971.971 0 00.313-.262c.088-.113.162-.264.222-.454.06-.192.108-.43.145-.714.036-.287.062-.636.078-1.047l.156-2.328h2.809v4.804h.418l-.157 2.281zm-2.125-4.757c-.013.304-.032.58-.058.828a7.39 7.39 0 01-.094.675 4.663 4.663 0 01-.137.543 3.423 3.423 0 01-.171.43h1.23v-3.914h-.676l-.094 1.438zm7.04.933c0 .365-.049.7-.145 1.008a2.326 2.326 0 01-.418.793 1.92 1.92 0 01-.668.52c-.26.122-.555.183-.883.183s-.62-.061-.875-.184a1.836 1.836 0 01-.644-.519 2.378 2.378 0 01-.399-.793 3.538 3.538 0 01-.136-1.008v-.828c0-.364.045-.7.136-1.008a2.33 2.33 0 01.399-.793 1.83 1.83 0 01.64-.523c.256-.125.547-.188.875-.188.331 0 .627.063.887.188.263.125.486.3.668.523.182.222.322.486.418.793.096.308.145.644.145 1.008v.828zm-1.114-.836c0-.231-.019-.445-.058-.64a1.601 1.601 0 00-.176-.504.903.903 0 00-.313-.328.824.824 0 00-.457-.122.779.779 0 00-.734.45 1.65 1.65 0 00-.156.504 3.972 3.972 0 00-.047.64v.836c0 .23.015.442.047.637.031.195.083.364.156.508a.87.87 0 00.289.336c.12.08.27.12.449.12.177 0 .328-.04.453-.12a.9.9 0 00.309-.332c.081-.144.141-.313.18-.508.039-.196.058-.409.058-.64v-.837zm3.117 1.176V15h-1.097V9.312h1.945c.31 0 .59.046.84.137.25.089.462.214.637.375.177.16.312.35.406.574.096.224.144.473.144.746 0 .256-.048.491-.144.708a1.611 1.611 0 01-.406.562 1.892 1.892 0 01-.637.367c-.25.089-.53.133-.84.133h-.848zm0-.89h.848c.156 0 .292-.024.406-.07a.801.801 0 00.457-.47.961.961 0 00.059-.332c0-.133-.02-.256-.059-.37a.797.797 0 00-.457-.505 1.018 1.018 0 00-.406-.074h-.848v1.82zm7.606.55c0 .365-.048.7-.145 1.008a2.308 2.308 0 01-.418.793 1.92 1.92 0 01-.668.52c-.26.122-.554.183-.882.183-.329 0-.62-.061-.875-.184a1.84 1.84 0 01-.645-.519 2.397 2.397 0 01-.398-.793 3.537 3.537 0 01-.137-1.008v-.828c0-.364.046-.7.137-1.008.091-.307.224-.571.398-.793.175-.224.388-.398.641-.523.255-.125.547-.188.875-.188.33 0 .626.063.886.188.263.125.486.3.668.523.183.222.322.486.418.793.097.308.145.644.145 1.008v.828zm-1.113-.836c0-.231-.02-.445-.059-.64a1.574 1.574 0 00-.176-.504.9.9 0 00-.312-.328.827.827 0 00-.457-.122.782.782 0 00-.446.122.855.855 0 00-.289.328c-.073.14-.125.308-.156.504a4.091 4.091 0 00-.047.64v.836c0 .23.016.442.047.637s.083.364.156.508a.88.88 0 00.289.336c.12.08.27.12.45.12.177 0 .328-.04.453-.12a.906.906 0 00.308-.332c.081-.144.141-.313.18-.508.039-.196.059-.409.059-.64v-.837zm5.668-1.535h-2.582V15h-1.098V9.312h3.68v.891zm5.054 2.371c0 .365-.048.7-.144 1.008a2.344 2.344 0 01-.418.793 1.93 1.93 0 01-.668.52c-.261.122-.555.183-.883.183s-.62-.061-.875-.184a1.85 1.85 0 01-.645-.519 2.397 2.397 0 01-.398-.793 3.54 3.54 0 01-.137-1.008v-.828c0-.364.046-.7.137-1.008.091-.307.224-.571.398-.793.175-.224.388-.398.641-.523.255-.125.547-.188.875-.188.331 0 .626.063.887.188.263.125.485.3.668.523.182.222.321.486.418.793.096.308.144.644.144 1.008v.828zM62 11.738c0-.231-.02-.445-.059-.64a1.598 1.598 0 00-.175-.504.903.903 0 00-.313-.328.824.824 0 00-.457-.122.779.779 0 00-.734.45 1.67 1.67 0 00-.157.504 4.1 4.1 0 00-.046.64v.836c0 .23.015.442.046.637.032.195.084.364.157.508.073.143.169.255.289.336s.269.12.449.12c.177 0 .328-.04.453-.12a.9.9 0 00.309-.332c.08-.144.14-.313.179-.508.039-.196.059-.409.059-.64v-.837zm5.898 1.48c-.018.287-.08.545-.187.774a1.776 1.776 0 01-1.055.961 2.435 2.435 0 01-.812.129c-.336 0-.634-.061-.895-.184a1.86 1.86 0 01-.656-.52 2.376 2.376 0 01-.406-.804 3.569 3.569 0 01-.141-1.031v-.766c0-.377.05-.722.149-1.035a2.4 2.4 0 01.421-.805c.183-.223.403-.397.661-.519.26-.125.552-.188.875-.188.312 0 .589.045.832.133.244.089.453.215.625.38.171.163.307.364.406.6.099.238.161.505.187.801h-1.093a1.807 1.807 0 00-.079-.445.793.793 0 00-.175-.316.684.684 0 00-.289-.192 1.153 1.153 0 00-.414-.066c-.17 0-.317.036-.442.11s-.229.18-.312.32c-.081.14-.141.313-.18.52a3.71 3.71 0 00-.059.694v.774c0 .56.079.974.235 1.242.159.268.409.402.75.402.286 0 .513-.075.679-.226.167-.154.26-.401.278-.742h1.097zm5.036-3.011H71.18V15h-1.102v-4.793h-1.73v-.895h4.586v.895zm4.593 2.367c0 .365-.048.7-.144 1.008a2.344 2.344 0 01-.418.793 1.92 1.92 0 01-.668.52c-.261.122-.555.183-.883.183s-.62-.061-.875-.184a1.836 1.836 0 01-.644-.519 2.378 2.378 0 01-.399-.793 3.54 3.54 0 01-.137-1.008v-.828c0-.364.046-.7.137-1.008a2.33 2.33 0 01.399-.793 1.83 1.83 0 01.64-.523c.255-.125.547-.188.875-.188.331 0 .626.063.887.188.263.125.486.3.668.523.182.222.321.486.418.793.096.308.144.644.144 1.008v.828zm-1.113-.836c0-.231-.019-.445-.059-.64a1.6 1.6 0 00-.175-.504.903.903 0 00-.313-.328.824.824 0 00-.457-.122.779.779 0 00-.734.45c-.073.14-.125.308-.156.504a3.972 3.972 0 00-.047.64v.836c0 .23.015.442.047.637.031.195.083.364.156.508a.87.87 0 00.289.336c.12.08.269.12.449.12.177 0 .328-.04.453-.12a.9.9 0 00.309-.332c.081-.144.14-.313.179-.508.04-.196.059-.409.059-.64v-.837zM80.824 15v-2.238h-.879L78.875 15h-1.176l1.231-2.57a1.726 1.726 0 01-.692-.578 1.56 1.56 0 01-.234-.868c0-.273.048-.514.144-.722.097-.209.235-.383.414-.524.183-.14.403-.246.661-.316a3.18 3.18 0 01.867-.11h1.836V15h-1.102zm-1.722-3.95c0 .298.082.518.246.66.164.142.411.212.742.212h.734v-1.719h-.734c-.339 0-.589.074-.75.223-.159.148-.238.357-.238.625zm4.941-1.738v4.805h.547V9.312h1.035v4.805h.539V9.312h1.066v4.817h.504l-.078 2.238h-1.004V15h-3.679V9.312h1.07zm6.727 4.5h-1.708L88.727 15H87.57l1.864-5.688h.996L92.258 15h-1.156l-.332-1.188zm-1.438-.933h1.18l-.582-2.094-.598 2.094zM95.238 15v-2.238h-.879L93.289 15h-1.176l1.231-2.57a1.726 1.726 0 01-.692-.578 1.56 1.56 0 01-.234-.868c0-.273.048-.514.144-.722.097-.209.235-.383.415-.524a1.87 1.87 0 01.66-.316c.258-.073.547-.11.867-.11h1.836V15h-1.102zm-1.722-3.95c0 .298.082.518.246.66.164.142.411.212.742.212h.734v-1.719h-.734c-.339 0-.589.074-.75.223-.159.148-.238.357-.238.625zm-65.371 7.262h1.101V24h-1.101v-3.629L26.531 24h-1.097v-5.688h1.097v3.633l1.614-3.632zm10.835 0V24h-1.101v-2.168a4.15 4.15 0 01-.211.05 6.412 6.412 0 01-.219.036c-.07.008-.139.014-.207.02a2.597 2.597 0 01-.937-.098 1.514 1.514 0 01-.582-.336 1.519 1.519 0 01-.371-.578 2.476 2.476 0 01-.129-.844v-1.77h1.097v1.77c0 .19.015.348.043.473a.756.756 0 00.141.3.518.518 0 00.234.157c.094.028.205.043.332.043.052 0 .111-.002.176-.004.065-.005.133-.012.203-.02.073-.01.146-.022.219-.035a2.61 2.61 0 00.211-.047v-2.637h1.101zm3.579 0h1.101V24h-1.101v-3.629L40.945 24h-1.097v-5.688h1.097v3.633l1.614-3.632zm6.121 3.907a2.149 2.149 0 01-.188.773 1.776 1.776 0 01-1.054.961 2.441 2.441 0 01-.813.129c-.336 0-.634-.061-.895-.184a1.86 1.86 0 01-.656-.52 2.394 2.394 0 01-.406-.804 3.567 3.567 0 01-.141-1.031v-.766c0-.377.05-.722.149-1.035s.239-.58.422-.805c.182-.224.402-.397.66-.519.26-.125.552-.188.875-.188.312 0 .59.045.832.133.245.089.453.215.625.38.172.163.307.364.406.6.099.238.162.505.188.802H47.59a1.86 1.86 0 00-.078-.446.795.795 0 00-.176-.316.684.684 0 00-.289-.192 1.153 1.153 0 00-.414-.066.864.864 0 00-.442.11.875.875 0 00-.312.32c-.081.14-.141.313-.18.52a3.715 3.715 0 00-.058.695v.773c0 .56.078.974.234 1.242.159.268.409.402.75.402.286 0 .513-.075.68-.226.166-.154.259-.401.277-.742h1.098zm5.035-3.012h-1.754V24h-1.102v-4.793h-1.73v-.895h4.586v.895zm3.422 3.605H55.43L55.094 24h-1.156l1.863-5.688h.996L58.625 24h-1.156l-.332-1.188zm-1.438-.933h1.18l-.582-2.094-.598 2.094zM61.605 24v-2.238h-.878L59.656 24H58.48l1.231-2.57a1.715 1.715 0 01-.691-.578c-.157-.24-.235-.53-.235-.868 0-.273.048-.514.145-.722.096-.209.234-.383.414-.524a1.87 1.87 0 01.66-.316c.258-.073.547-.11.867-.11h1.836V24h-1.102zm-1.722-3.95c0 .298.082.518.246.66.164.142.411.212.742.212h.734v-1.719h-.734c-.338 0-.588.074-.75.223-.159.148-.238.357-.238.625zM26.234 31.11c-.015.171-.002.325.039.46a.843.843 0 00.477.559c.115.05.238.074.371.074.156 0 .298-.026.426-.078a.775.775 0 00.324-.25 1.25 1.25 0 00.203-.45c.05-.182.074-.404.074-.667v-.153h-1.496v-.886h1.496v-.153c0-.25-.023-.466-.07-.648a1.246 1.246 0 00-.195-.45.773.773 0 00-.309-.265.92.92 0 00-.402-.086 1.15 1.15 0 00-.426.074.77.77 0 00-.305.22.863.863 0 00-.175.347 1.406 1.406 0 00-.036.469h-1.097c0-.274.047-.532.14-.774a1.896 1.896 0 011.051-1.066c.253-.107.535-.16.848-.16.305 0 .583.054.836.164.255.106.474.26.656.46.182.201.324.447.426.739.101.289.152.614.152.976v1.184c0 .365-.049.691-.148.98-.099.287-.241.53-.426.73a1.82 1.82 0 01-.668.458c-.26.107-.553.16-.879.16-.289 0-.557-.044-.805-.133a1.816 1.816 0 01-.636-.386 1.717 1.717 0 01-.41-.618 2.093 2.093 0 01-.133-.832h1.097zM34.07 33h-1.086v-2.465h-1.609V33h-1.09v-5.688h1.09v2.333h1.609v-2.332h1.086V33zm4.551-2.492h-2.336v1.605h2.731V33h-3.832v-5.688h3.82v.895h-2.719v1.434h2.336v.867zm2.473.406V33h-1.098v-5.688h1.945c.31 0 .59.046.84.137.25.089.462.214.637.375.177.16.312.35.406.574.097.224.145.473.145.747 0 .255-.048.49-.145.707a1.611 1.611 0 01-.406.562 1.892 1.892 0 01-.637.367c-.25.089-.53.133-.84.133h-.847zm0-.89h.847c.157 0 .292-.024.407-.07a.807.807 0 00.457-.47.96.96 0 00.058-.332c0-.132-.019-.256-.058-.37a.812.812 0 00-.457-.505 1.024 1.024 0 00-.407-.074h-.847v1.82zm7.355-1.82h-2.582V33H44.77v-5.688h3.679v.891zm3.719-.892h1.102V33h-1.102v-3.629L50.555 33h-1.098v-5.688h1.098v3.633l1.613-3.632zM56.801 33v-2.238h-.879L54.852 33h-1.176l1.23-2.57a1.722 1.722 0 01-.691-.578 1.555 1.555 0 01-.235-.868c0-.273.049-.514.145-.722.096-.209.234-.383.414-.524a1.87 1.87 0 01.66-.316c.258-.073.547-.11.867-.11h1.836V33h-1.101zm-1.723-3.95c0 .298.082.518.246.66.164.142.412.212.742.212h.735v-1.719h-.735c-.338 0-.588.074-.75.223-.158.148-.238.357-.238.625z" fill="#fff"/></g></svg>