<svg data-name="Layer 1" xmlns="http://www.w3.org/2000/svg" width="101" height="101"><defs><clipPath id="a"><path fill="none" d="M.235 0H101v101H.235z"/></clipPath></defs><g clip-path="url(#a)" fill="none"><path d="M101 0H.235v101H101V0z" fill="#566e78"/><path d="M69.643 49.617l-10.218 9.888c-.351.353-.528.706-.528 1.413v27.545c0 .353.177.53.528.53H69.82c.353 0 .528-.353.528-.53V49.97c.177-.353 0-1.06-.704-.353zM40.224 62.33L29.83 72.22c-.352.353-.528.706-.528 1.412v14.656c0 .353.351.53.528.53h10.746c.352 0 .528-.354.528-.53V62.684c.177-.353-.176-1.06-.88-.353z" fill="#fff" fill-rule="evenodd"/><path d="M74.4 37.787v-.177h-.176l-7.928 1.766h-.352c-.177.177-.177.353 0 .353l1.761 1.766-17.792 17.834-8.103-8.3q-.177-.176-.353 0l-2.29 2.296-13.213 13.243v.353l2.29 2.296h.353L41.633 56.15l5.99 6.004 2.29 2.295c0 .177.176.177.352 0l20.082-20.306 1.938 1.943c.176.176.353.176.353 0v-.177l1.761-8.122z" fill="#fff" fill-rule="evenodd"/><path d="M55.02 64.096l-4.932 5.12h-.351l-4.581-4.59c-.88-.883-1.057-.177-1.057.176v23.661c0 .353.353.53.53.53h10.745c.352 0 .529-.353.529-.53v-24.19c.175-.353-.177-.883-.882-.177zM19.788 24.014v-2.295c0-1.943-.704-3.355-2.289-4.062 1.409-.706 1.938-1.942 1.938-3.531v-.883c0-3.178-1.586-4.944-4.756-4.944-3.171 0-4.757 1.766-4.757 4.944v.883c0 1.589.529 2.825 1.937 3.531-1.585.707-2.29 2.12-2.29 4.062v2.295c0 3.178 1.41 5.297 5.11 5.297 3.699 0 5.107-2.295 5.107-5.297zM13.271 12.89c0-1.236.353-1.942 1.585-1.942 1.233 0 1.586.706 1.586 1.942v1.412c0 1.236-.353 1.943-1.586 1.943-1.057 0-1.585-.707-1.585-1.943V12.89zm3.171 11.477c0 1.236-.353 2.119-1.761 2.119-1.234 0-1.586-.883-1.586-2.119v-3.355c0-1.236.352-2.119 1.586-2.119 1.232 0 1.761.883 1.761 2.12v3.354zm14.974-13.596v3.885c0 1.236-.53 2.295-2.114 2.295h-2.29V8.476h2.29c1.585 0 2.114.882 2.114 2.295zm-2.29 4.944c.528 0 .88-.353.88-.883v-4.414c0-.53-.176-.883-.88-.883h-.705v6.18h.704zm2.995-7.239h3.523v1.236h-1.938v2.295h1.41v1.236h-1.41v2.472h1.938v1.236H32.12V8.476zm4.227 6.356v-4.061c0-1.413.528-2.295 2.114-2.295 1.585 0 1.938.882 1.938 2.118v1.06h-1.233v-1.236c0-.53-.177-.883-.705-.883-.529 0-.705.353-.705.883v4.59c0 .53.176.884.705.884.528 0 .705-.354.705-.883v-1.413H40.4v1.413c0 1.236-.53 2.119-1.938 2.119-1.586 0-2.114-.883-2.114-2.296zm4.932-6.356h3.348v1.236H42.69v2.295h1.41v1.236h-1.41v2.472h1.938v1.236h-3.347V8.476zm5.286 3.178v5.297h-1.057V8.476h1.232l1.586 4.767V8.476h1.057v8.475h-1.057l-1.761-5.297zm3.524-3.178h3.875v1.236h-1.233v7.24h-1.41v-7.24h-1.233V8.476zm8.807 3.178l-.704 5.297h-1.41l-1.232-8.475h1.409l.704 5.297.705-5.297h1.233l.881 5.297.705-5.297h1.233l-1.233 8.475h-1.41l-.88-5.297zm3.875 3.178v-4.061c0-1.413.705-2.295 2.114-2.295 1.41 0 2.114.882 2.114 2.295v4.061c0 1.413-.704 2.296-2.114 2.296-1.409 0-2.114-.883-2.114-2.296zm2.82.177v-4.415c0-.53-.177-.882-.706-.882-.528 0-.705.353-.705.882v4.591c0 .53.177.883.705.883.529-.176.705-.53.705-1.06zm3.698-1.943v3.885h-1.408V8.476h2.114c1.408 0 1.937.706 1.937 1.942v1.06c0 .882-.352 1.412-1.057 1.588l1.409 3.885H70.7l-1.41-3.885zm0-3.354v2.648h.53c.527 0 .704-.176.704-.706V10.24c0-.53-.177-.706-.705-.706h-.529v.177zm4.934 3.178v4.061h-1.585V8.476h1.585v3.708l1.41-3.708h1.408l-1.585 3.884 1.761 4.591h-1.585l-1.41-4.061zm4.579 4.061l1.585-8.475h1.587l1.585 8.475h-1.41l-.175-1.59h-1.587l-.176 1.59h-1.409zm1.762-2.649h1.057l-.53-3.354-.527 3.354zm4.757-2.648v5.297h-1.233V8.476h1.408l1.586 4.767V8.476h1.234v8.475h-1.234l-1.761-5.297zm8.103-.883v3.885c0 1.236-.529 2.295-2.114 2.295h-2.114V8.476h2.114c1.585 0 2.114.882 2.114 2.295zm-2.29 4.944c.53 0 .88-.353.88-.883v-4.414c0-.53-.176-.883-.88-.883h-.528v6.18h.528zm-64.124 4.768h3.348v1.236H28.42v2.472h1.409v1.059H28.42v2.649h1.938v1.059H27.01v-8.475zm4.053 6.18V22.6c0-1.412.704-2.295 2.114-2.295 1.585 0 2.114.883 2.114 2.119v1.06h-1.41v-1.06c0-.53-.176-.883-.704-.883-.529 0-.705.353-.705.883v4.59c0 .53.176.884.705.884.528 0 .704-.354.704-.883v-1.59h1.41v1.413c0 1.236-.529 2.12-2.114 2.12-1.41 0-2.114-.884-2.114-2.296zm5.108 0V22.6c0-1.412.704-2.295 2.114-2.295s2.114.883 2.114 2.295v4.062c0 1.412-.704 2.295-2.114 2.295-1.585 0-2.114-.883-2.114-2.295zm2.818.353v-4.591c0-.53-.176-.883-.704-.883-.53 0-.704.353-.704.883v4.59c0 .53.175.884.704.884.528 0 .704-.354.704-.883zm3.524-3.356v5.298h-1.233v-8.475h1.41l1.584 4.944v-4.944h1.234v8.475H44.1l-1.586-5.297zm3.523 3.003V22.6c0-1.412.704-2.295 2.29-2.295 1.585 0 2.29.883 2.29 2.295v4.062c0 1.412-.705 2.295-2.29 2.295-1.586 0-2.29-.883-2.29-2.295zm2.994.353v-4.591c0-.53-.176-.883-.704-.883-.529 0-.704.353-.704.883v4.59c0 .53.175.884.704.884.528 0 .704-.354.704-.883zm6.166-3.532l-1.057 5.474h-.528l-1.057-5.474v5.474h-1.233v-8.475h1.586l1.057 4.767.704-4.767h1.762v8.475h-1.234v-5.474z" fill="#fff" fill-rule="evenodd"/><path d="M58.721 20.483h-1.409v8.475h1.409v-8.475z" fill="#fff"/><path d="M59.602 26.663V22.6c0-1.412.704-2.295 2.114-2.295 1.585 0 2.114.883 2.114 2.119v1.06h-1.41v-1.06c0-.53-.176-.883-.704-.883-.53 0-.705.353-.705.883v4.59c0 .53.176.884.705.884.528 0 .704-.354.704-.883v-1.59h1.41v1.413c0 1.236-.53 2.12-2.114 2.12-1.41 0-2.114-.884-2.114-2.296zm8.28-2.296h2.114v4.591h-1.057v-.883c-.177.706-.528 1.06-1.41 1.06-1.232 0-1.762-.883-1.762-2.296v-4.061c0-1.413.705-2.295 2.115-2.295 1.585 0 2.114.882 2.114 2.118v.707h-1.41v-.883c0-.53-.175-.883-.704-.883-.528 0-.705.353-.705.883v4.59c0 .53.177.884.705.884.529 0 .704-.354.704-.883v-1.413h-.704v-1.236zm4.404.706v3.885h-1.41v-8.475h2.114c1.41 0 1.938.706 1.938 1.942v1.06c0 .882-.352 1.412-1.056 1.588l1.409 3.885h-1.409l-1.586-3.885zm0-3.354v2.648h.529c.528 0 .704-.176.704-.706v-1.236c0-.53-.176-.706-.704-.706h-.529zm3.346 4.944V22.6c0-1.412.706-2.295 2.114-2.295 1.41 0 2.115.883 2.115 2.295v4.062c0 1.412-.705 2.295-2.115 2.295-1.408 0-2.114-.883-2.114-2.295zm2.819.353v-4.591c0-.53-.176-.883-.705-.883-.528 0-.704.353-.704.883v4.59c0 .53.176.884.704.884.53 0 .705-.354.705-.883zm5.286-3.179l-.705 5.121h-1.41l-1.056-8.475h1.409l.529 5.473.704-5.473h1.233l.881 5.473.528-5.473h1.233l-1.057 8.475h-1.408l-.881-5.12zm3.698-3.354h3.875v1.236h-1.233v7.239h-1.409v-7.24h-1.233v-1.235zm7.223 4.767h-1.233v3.708h-1.41v-8.475h1.41v3.708h1.233v-3.708h1.586v8.475h-1.586V25.25z" fill="#fff" fill-rule="evenodd"/><path fill="#566e78" d="M26.434 0h72.551v36H26.434z"/><path d="M28.823 16.398h-.952V15H25.7v1.398h-.932l-.173-2.28h.213a.962.962 0 00.314-.262c.09-.113.164-.264.225-.454.06-.192.108-.43.145-.714.037-.287.063-.636.08-1.047l.157-2.328h2.829v4.804h.421l-.157 2.281zm-2.141-4.757c-.013.304-.032.58-.059.828a7.337 7.337 0 01-.094.675c-.04.201-.086.382-.138.543-.053.16-.11.303-.174.43h1.24v-3.914h-.68l-.095 1.438zm7.093.933c0 .365-.049.7-.145 1.008a2.337 2.337 0 01-.422.793 1.943 1.943 0 01-.673.52c-.263.122-.559.183-.89.183s-.624-.061-.881-.184a1.86 1.86 0 01-.65-.519 2.389 2.389 0 01-.401-.793 3.512 3.512 0 01-.138-1.008v-.828c0-.364.046-.7.138-1.008a2.34 2.34 0 01.4-.793c.177-.224.392-.398.647-.523.257-.125.55-.188.881-.188.334 0 .631.063.894.188.265.125.489.3.673.523.184.222.324.486.422.793.096.308.145.644.145 1.008v.828zm-1.122-.836c0-.231-.02-.445-.06-.64a1.59 1.59 0 00-.176-.504.906.906 0 00-.315-.328.835.835 0 00-.46-.122.787.787 0 00-.74.45c-.074.14-.126.308-.158.504a4.063 4.063 0 00-.048.64v.836c0 .23.016.442.048.637s.084.364.158.508a.87.87 0 00.291.336c.12.08.271.12.452.12.179 0 .331-.04.457-.12a.912.912 0 00.311-.332c.08-.144.141-.313.18-.508a3.2 3.2 0 00.06-.64v-.837zm5.943 1.48c-.018.287-.08.545-.188.774a1.777 1.777 0 01-1.063.961c-.247.086-.52.129-.818.129-.34 0-.64-.061-.902-.184a1.872 1.872 0 01-.661-.52 2.369 2.369 0 01-.41-.804 3.544 3.544 0 01-.142-1.031v-.766c0-.377.05-.722.15-1.035s.241-.58.425-.805a1.91 1.91 0 01.665-.519 2.03 2.03 0 01.882-.188c.315 0 .594.045.838.133.247.089.457.215.63.38.173.163.31.364.41.6.1.238.162.505.188.801h-1.102a1.75 1.75 0 00-.079-.445.792.792 0 00-.176-.316.69.69 0 00-.291-.192 1.171 1.171 0 00-.418-.066c-.17 0-.319.036-.445.11s-.23.18-.314.32c-.082.14-.142.313-.182.52a3.69 3.69 0 00-.059.694v.774c0 .56.079.974.237 1.242.159.268.41.402.756.402.288 0 .516-.075.684-.226.168-.154.26-.401.28-.742h1.105zm5.074-3.011h-1.767V15h-1.11v-4.793H39.05v-.895h4.62v.895zm4.629 2.367c0 .365-.048.7-.145 1.008a2.338 2.338 0 01-.421.793 1.943 1.943 0 01-.674.52 2.089 2.089 0 01-.89.183c-.33 0-.624-.061-.881-.184a1.86 1.86 0 01-.65-.519 2.389 2.389 0 01-.4-.793 3.512 3.512 0 01-.139-1.008v-.828c0-.364.046-.7.138-1.008a2.34 2.34 0 01.401-.793c.176-.224.391-.398.646-.523.257-.125.551-.188.882-.188.333 0 .63.063.893.188.265.125.49.3.674.523.183.222.323.486.42.793.098.308.146.644.146 1.008v.828zm-1.122-.836c0-.231-.02-.445-.06-.64a1.59 1.59 0 00-.175-.504.906.906 0 00-.316-.328.835.835 0 00-.46-.122.79.79 0 00-.449.122.848.848 0 00-.29.328c-.074.14-.127.308-.16.504a4.069 4.069 0 00-.045.64v.836c0 .23.015.442.046.637.032.195.085.364.158.508.074.143.17.255.291.336s.271.12.453.12c.178 0 .33-.04.456-.12a.903.903 0 00.312-.332c.08-.144.14-.313.18-.508a3.2 3.2 0 00.06-.64v-.837zm4.617-2.425h1.11V15h-1.11v-3.629L50.17 15h-1.106V9.312h1.106v3.633l1.625-3.633zm.5-1.481c0 .17-.031.324-.094.465a.99.99 0 01-.268.363 1.291 1.291 0 01-.42.235 1.79 1.79 0 01-.556.082c-.208 0-.394-.028-.56-.082a1.345 1.345 0 01-.424-.235 1.05 1.05 0 01-.358-.828h.787c0 .068.009.134.027.2a.482.482 0 00.099.167.48.48 0 00.17.114.7.7 0 00.26.042.645.645 0 00.251-.043.454.454 0 00.17-.113.444.444 0 00.094-.168.672.672 0 00.031-.199h.791zM57.766 15H56.67v-2.465h-1.62V15h-1.097V9.312h1.097v2.332h1.622V9.312h1.095V15zm3.876-1.188h-1.72L59.584 15h-1.165l1.877-5.688h1.005L63.143 15h-1.166l-.335-1.188zm-1.448-.933h1.19l-.587-2.094-.603 2.094zM66.145 15v-2.238h-.885L64.18 15h-1.185l1.24-2.57a1.736 1.736 0 01-.696-.578c-.158-.24-.236-.53-.236-.868 0-.273.048-.514.145-.722.098-.209.237-.383.417-.524.184-.14.406-.246.666-.316.26-.073.55-.11.874-.11h1.85V15h-1.11zm-1.735-3.95c0 .298.083.518.248.66.165.142.414.212.748.212h.74v-1.719h-.74c-.342 0-.594.074-.756.223-.16.148-.24.357-.24.625zM26.111 21.915V24h-1.106v-5.688h1.96c.312 0 .594.046.846.137.252.089.466.214.642.375.179.16.315.35.41.574.097.224.145.473.145.747 0 .255-.048.49-.146.707a1.61 1.61 0 01-.409.562 1.91 1.91 0 01-.642.367 2.54 2.54 0 01-.846.133h-.854zm0-.89h.854c.158 0 .294-.024.41-.07a.813.813 0 00.287-.192.76.76 0 00.174-.278.954.954 0 00.058-.332c0-.132-.02-.256-.058-.37a.811.811 0 00-.46-.505 1.038 1.038 0 00-.411-.074h-.854v1.82zm6.483 1.788h-1.72L30.535 24H29.37l1.877-5.688h1.004L34.094 24h-1.166l-.334-1.188zm-1.448-.933h1.188l-.587-2.094-.601 2.094zm7.183-2.676h-2.602v1.211h.645c.33 0 .628.043.89.129.265.083.488.202.67.355.183.154.324.34.42.559.097.219.147.461.147.727 0 .27-.05.518-.147.742a1.59 1.59 0 01-.42.57 1.93 1.93 0 01-.67.371c-.262.089-.56.133-.89.133h-1.755v-5.688h3.712v.891zm-2.602 2.094v1.82h.645c.174 0 .324-.025.45-.074a.88.88 0 00.318-.203.77.77 0 00.189-.3 1.04 1.04 0 00.063-.364.925.925 0 00-.063-.344.689.689 0 00-.189-.277.854.854 0 00-.318-.188 1.29 1.29 0 00-.45-.07h-.645zm7.731.277c0 .365-.05.7-.146 1.008a2.32 2.32 0 01-.421.793 1.933 1.933 0 01-.673.52 2.08 2.08 0 01-.89.183c-.33 0-.625-.061-.882-.183a1.847 1.847 0 01-.649-.52 2.371 2.371 0 01-.402-.793 3.512 3.512 0 01-.137-1.008v-.828c0-.364.046-.7.137-1.008s.226-.571.402-.793c.176-.224.391-.398.645-.523.258-.125.551-.188.882-.188.333 0 .632.063.894.188.265.125.49.3.673.523.183.222.324.486.421.793.097.308.146.644.146 1.008v.828zm-1.122-.836c0-.231-.02-.445-.059-.64a1.593 1.593 0 00-.177-.504.906.906 0 00-.316-.328.835.835 0 00-.46-.121.79.79 0 00-.448.12.848.848 0 00-.292.329c-.073.14-.126.308-.157.504a3.942 3.942 0 00-.047.64v.836c0 .23.015.442.047.637.031.195.084.365.157.508.074.143.17.255.292.336a.8.8 0 00.452.12c.178 0 .33-.04.456-.12a.903.903 0 00.312-.332c.081-.144.142-.313.181-.508.04-.195.059-.409.059-.64v-.837zm6.175-1.531h-1.767V24h-1.11v-4.793H43.89v-.895h4.621v.895zm3.449 3.605h-1.72L49.9 24h-1.165l1.877-5.688h1.004L53.46 24h-1.165l-.334-1.188zm-1.448-.933H51.7l-.587-2.094-.601 2.094zm10.965-3.567h1.11V24h-1.11v-3.629L59.852 24h-1.107v-5.688h1.107v3.633l1.625-3.632zm7.759 3.797a1.16 1.16 0 00.04.461c.04.136.102.25.184.344a.86.86 0 00.669.29c.158 0 .3-.027.429-.079s.238-.135.326-.25c.09-.117.159-.267.205-.45a2.55 2.55 0 00.075-.667v-.153h-1.507v-.886h1.507v-.153a2.6 2.6 0 00-.071-.648 1.242 1.242 0 00-.197-.45.771.771 0 00-.31-.265.93.93 0 00-.406-.086c-.16 0-.303.025-.43.074a.764.764 0 00-.306.22.85.85 0 00-.177.347 1.397 1.397 0 00-.035.469h-1.107c0-.274.048-.532.142-.774a1.911 1.911 0 011.058-1.066c.255-.107.54-.16.855-.16.307 0 .587.054.842.164.257.106.478.26.661.46.185.201.327.447.43.739.102.289.153.614.153.976v1.184c0 .365-.05.691-.15.98-.099.287-.242.53-.429.73a1.83 1.83 0 01-.673.458 2.33 2.33 0 01-.885.16c-.292 0-.562-.044-.81-.133a1.836 1.836 0 01-.642-.386 1.716 1.716 0 01-.414-.618 2.078 2.078 0 01-.134-.832h1.107zm5.758-.445h-.46V24h-1.106v-5.688h1.105v2.504h.272l1.5-2.503h1.28l-1.71 2.738L77.651 24h-1.283l-1.374-2.336zm7.195-.09c0 .365-.048.7-.145 1.008a2.337 2.337 0 01-.421.793 1.943 1.943 0 01-.673.52c-.263.122-.56.183-.89.183-.33 0-.625-.061-.882-.183a1.86 1.86 0 01-.65-.52 2.39 2.39 0 01-.4-.793 3.512 3.512 0 01-.139-1.008v-.828c0-.364.047-.7.138-1.008s.226-.571.401-.793a1.85 1.85 0 01.646-.523c.257-.125.552-.188.882-.188.334 0 .63.063.894.188.265.125.488.3.673.523.183.222.323.486.421.793.097.308.145.644.145 1.008v.828zm-1.121-.836c0-.231-.02-.445-.06-.64a1.567 1.567 0 00-.177-.504.903.903 0 00-.315-.328.835.835 0 00-.46-.121.787.787 0 00-.74.449c-.073.14-.127.308-.158.504a4.07 4.07 0 00-.047.64v.836c0 .23.016.442.047.637s.085.365.157.508a.875.875 0 00.293.336c.12.08.27.12.452.12.178 0 .33-.04.456-.12a.908.908 0 00.31-.332 1.69 1.69 0 00.182-.508c.04-.195.06-.409.06-.64v-.837zM86.814 24H85.72v-2.465h-1.621V24H83v-5.688h1.1v2.333h1.621v-2.332h1.094V24zm5.058-2.426c0 .365-.049.7-.145 1.008a2.321 2.321 0 01-.422.793 1.934 1.934 0 01-.673.52c-.262.122-.559.183-.89.183s-.624-.061-.881-.183a1.847 1.847 0 01-.65-.52 2.371 2.371 0 01-.401-.793 3.512 3.512 0 01-.138-1.008v-.828c0-.364.046-.7.138-1.008s.226-.571.402-.793a1.83 1.83 0 01.645-.523 1.99 1.99 0 01.881-.188c.334 0 .632.063.894.188.265.125.49.3.673.523.184.222.325.486.422.793.096.308.145.644.145 1.008v.828zm-1.122-.836c0-.231-.019-.445-.058-.64a1.618 1.618 0 00-.178-.504.906.906 0 00-.315-.328.835.835 0 00-.46-.121.79.79 0 00-.449.12.848.848 0 00-.291.329c-.074.14-.126.308-.157.504a3.942 3.942 0 00-.048.64v.836c0 .23.015.442.048.637.031.195.083.365.157.508a.87.87 0 00.291.336c.121.08.271.12.453.12.178 0 .33-.04.456-.12a.903.903 0 00.311-.332c.082-.144.141-.313.182-.508.04-.195.058-.409.058-.64v-.837zm5.837 1.192H93.31v-.88h3.278v.88zm-70.295 5.383l.543 2.136.619-2.137h1.373V33h-1.016v-1.684l.048-2.66-.752 2.469h-.547l-.673-2.363.047 2.554V33h-1.016v-5.688h1.374zm6.136 0h1.11V33h-1.11v-3.629L30.803 33h-1.106v-5.688h1.106v3.633l1.625-3.632zm6.078 0V33h-1.11v-2.168a3.888 3.888 0 01-.212.05 6.507 6.507 0 01-.221.036c-.07.008-.14.014-.209.02a2.636 2.636 0 01-.944-.098 1.528 1.528 0 01-.586-.336 1.518 1.518 0 01-.374-.578 2.46 2.46 0 01-.13-.844v-1.77h1.105v1.77c0 .19.015.348.043.473a.753.753 0 00.143.3.522.522 0 00.235.157c.095.028.207.043.335.043.052 0 .112-.002.177-.004.066-.005.134-.012.205-.02a6.51 6.51 0 00.22-.035 2.57 2.57 0 00.213-.047v-2.637h1.11zm4.48 3.195h-2.354v1.605h2.75V33h-3.86v-5.688h3.85v.895h-2.74v1.434h2.354v.867zm5.294.71c-.02.287-.082.545-.19.774-.104.23-.247.425-.425.586a1.891 1.891 0 01-.637.375c-.247.086-.52.129-.819.129-.339 0-.639-.061-.902-.184a1.872 1.872 0 01-.66-.52 2.388 2.388 0 01-.41-.804 3.541 3.541 0 01-.142-1.031v-.766c0-.377.05-.722.15-1.035s.24-.58.425-.805a1.89 1.89 0 01.665-.519c.262-.125.557-.188.882-.188.314 0 .595.045.838.133.247.089.457.215.63.38.174.163.31.364.41.6.1.238.163.505.189.802H47.18a1.847 1.847 0 00-.078-.446.793.793 0 00-.178-.316.69.69 0 00-.29-.192 1.17 1.17 0 00-.418-.066c-.17 0-.32.037-.445.11a.878.878 0 00-.315.32c-.081.14-.142.313-.181.52-.04.202-.059.434-.059.695v.773c0 .56.08.974.236 1.242.16.268.412.402.756.402.288 0 .517-.075.685-.226.168-.154.261-.401.28-.742h1.106zm2.507-.554h-.46V33H49.22v-5.688h1.106v2.504h.271l1.5-2.503h1.28l-1.708 2.738L53.444 33H52.16l-1.373-2.336zm5.85-3.352h1.109V33h-1.11v-3.629L55.01 33h-1.106v-5.688h1.106v3.633l1.626-3.632zm4.84 0h1.11V33h-1.11v-3.629L59.852 33h-1.107v-5.688h1.107v3.633l1.625-3.632zm.5-1.48c0 .17-.031.324-.094.465a.992.992 0 01-.268.363 1.293 1.293 0 01-.421.235c-.165.054-.35.082-.555.082a1.8 1.8 0 01-.559-.082 1.335 1.335 0 01-.425-.235 1.052 1.052 0 01-.268-.363c-.06-.14-.09-.296-.09-.465h.787c0 .068.01.134.028.2a.465.465 0 00.098.167.482.482 0 00.17.113c.07.03.157.043.259.043a.65.65 0 00.251-.043.436.436 0 00.264-.28.638.638 0 00.032-.2h.79zm7.707 5.082V33h-1.106v-5.688h1.96c.312 0 .594.046.846.137.252.089.467.214.642.375.178.16.315.35.41.574.097.224.145.473.145.747 0 .255-.048.49-.146.707-.094.216-.23.403-.409.562a1.89 1.89 0 01-.642.367 2.538 2.538 0 01-.845.133h-.855zm0-.89h.855c.157 0 .293-.024.409-.07a.813.813 0 00.287-.192.76.76 0 00.173-.278.954.954 0 00.059-.332c0-.132-.02-.256-.059-.37a.811.811 0 00-.46-.505 1.037 1.037 0 00-.41-.074h-.854v1.82zm7.663.55c0 .365-.048.7-.145 1.008a2.338 2.338 0 01-.42.793 1.934 1.934 0 01-.674.52c-.263.122-.56.183-.89.183-.33 0-.624-.061-.881-.183a1.847 1.847 0 01-.65-.52 2.371 2.371 0 01-.401-.793 3.514 3.514 0 01-.138-1.008v-.828c0-.364.046-.7.138-1.008.091-.307.225-.571.402-.793a1.83 1.83 0 01.645-.523c.256-.125.55-.188.881-.188.334 0 .631.063.894.188.265.125.49.3.673.523.183.222.324.486.421.793.097.308.145.644.145 1.008v.828zm-1.121-.836c0-.231-.02-.445-.06-.64a1.592 1.592 0 00-.176-.504.906.906 0 00-.315-.328.835.835 0 00-.46-.121.79.79 0 00-.45.12.848.848 0 00-.29.329c-.074.14-.126.308-.158.504a3.942 3.942 0 00-.047.64v.836c0 .23.015.442.047.637s.084.365.158.508c.073.143.17.255.29.336.122.08.272.12.453.12.179 0 .33-.04.457-.12a.903.903 0 00.311-.332 1.69 1.69 0 00.18-.508c.04-.195.06-.409.06-.64v-.837zm5.943 1.48c-.018.287-.08.545-.188.774a1.777 1.777 0 01-1.063.961 2.467 2.467 0 01-.819.129c-.338 0-.639-.061-.902-.184a1.873 1.873 0 01-.66-.52 2.389 2.389 0 01-.41-.804 3.541 3.541 0 01-.142-1.031v-.766c0-.377.05-.722.15-1.035s.241-.58.425-.805c.184-.224.406-.397.666-.519.262-.125.556-.188.881-.188.315 0 .594.045.839.133.246.089.456.215.63.38.173.163.309.364.409.6.1.238.162.505.188.802h-1.101a1.847 1.847 0 00-.079-.446.806.806 0 00-.177-.316.69.69 0 00-.291-.192 1.17 1.17 0 00-.418-.066.873.873 0 00-.445.11.878.878 0 00-.314.32c-.082.14-.142.313-.182.52-.039.202-.06.434-.06.695v.773c0 .56.08.974.238 1.242.16.268.412.402.755.402.289 0 .517-.075.686-.226.167-.154.26-.401.279-.742h1.105zm5.075-3.011h-1.768V33h-1.11v-4.793h-1.743v-.895h4.62v.895z" fill="#fff"/></g></svg>