<svg data-name="Layer 1" xmlns="http://www.w3.org/2000/svg" width="101" height="101"><defs><clipPath id="a"><path fill="none" d="M0 0h101v101H0z"/></clipPath></defs><g clip-path="url(#a)" fill="none"><path d="M101 0H0v101h101V0z" fill="#566e78"/><path d="M77.121 66.392l-12.028-6.887V45.733c0-.354-.177-.53-.354-.707l-12.382-7.063c-.177-.176-.53-.176-.884 0l-12.382 7.063c-.354.177-.354.353-.354.707v13.772l-12.028 6.887c-.177.176-.354.353-.354.706V81.4c0 .354.177.53.354.707l12.382 7.24c.177 0 .177.176.354.176s.354 0 .354-.177l12.028-6.886 12.028 6.886c.177 0 .177.177.353.177.177 0 .354 0 .354-.177l12.382-7.24c.177-.176.354-.352.354-.706V67.098c.177-.177 0-.53-.177-.706zM50.942 79.988l-9.905-5.65 9.905-5.65v11.3zm11.674-19.953l-9.905 5.65V54.208l9.905 5.827zm-11.674 5.65l-9.905-5.65 9.905-5.65v11.3zm2.477 1.413l10.789-6.18 10.79 6.18-10.79 6.18-10.789-6.18zm9.905-8.475l-9.905-5.65 9.905-5.651v11.3zm-13.266-5.827l-9.906 5.65V46.969l9.906 5.827zM38.56 87.227l-10.789-6.18v-12.36l10.789 6.18v12.36zm1.592 0V75.75l9.906 5.65-9.906 5.827zm35.731-6.18l-10.79 6.18v-12.36l10.79-6.18v12.36zM17.104 13.596c0-3.178-1.415-5.474-4.953-5.474s-4.953 1.943-4.953 5.12v3.003c0 3.355 1.239 4.944 3.715 4.944 1.415 0 2.299-.706 2.83-1.59v4.415c0 1.236-.531 2.119-1.769 2.119s-1.769-.706-1.769-1.942v-1.413H7.021v1.06c0 3.001 1.062 5.12 4.776 5.12 3.538 0 4.953-2.295 4.953-5.474v-9.888h.354zm-3.361 3.178c0 1.06-.531 1.766-1.592 1.766-1.238 0-1.592-.706-1.592-1.942v-3.532c0-1.236.531-1.942 1.592-1.942s1.592.706 1.592 1.942v3.708z" fill="#fff" fill-rule="evenodd"/><path d="M25.472 8.476h-1.239v8.475h1.239V8.476z" fill="#fff"/><path d="M27.063 11.654v5.297h-1.238V8.476h1.415l1.592 4.767V8.476h1.238v8.475h-1.238l-1.769-5.297zm7.783-.883v3.885c0 1.236-.531 2.295-2.123 2.295h-2.122V8.476h2.122c1.592 0 2.123.882 2.123 2.295zm-2.3 4.944c.531 0 .885-.353.885-.883v-4.414c0-.53-.177-.883-.885-.883h-.53v6.18h.53zm6.898-7.239v6.533c0 1.412-.53 2.119-2.122 2.119-1.592 0-2.123-.883-2.123-2.12V8.477h1.415v6.71c0 .53.177.882.708.882.53 0 .707-.353.707-.883v-6.71h1.415zm.355 6.709v-1.06h1.238v1.237c0 .53.177.706.708.706.353 0 .707-.353.707-.706v-.353c0-.53-.177-.883-.707-1.236l-.885-.883c-.707-.883-1.238-1.236-1.238-2.296v-.176c0-1.06.708-1.942 1.946-1.942 1.415 0 1.946.706 1.946 1.942v.706h-.885v-.706c0-.53-.177-.706-.707-.706-.354 0-.708.176-.708.706v.176c0 .53.354.707.708 1.06l.884.883c.707.706 1.061 1.236 1.061 2.119v.353c0 1.236-.707 1.942-2.122 1.942s-1.946-.53-1.946-1.766zm4.067-6.709h3.892v1.236h-1.239v7.24h-1.415v-7.24h-1.238V8.476zm5.661 4.59v3.885h-1.415V8.476h2.123c1.415 0 1.946.706 1.946 1.942v1.06c0 .882-.354 1.412-1.062 1.588l1.415 3.885h-1.415l-1.592-3.885zm0-3.354v2.648h.531c.531 0 .708-.176.708-.706V10.24c0-.53-.177-.706-.708-.706h-.531v.177zm5.661 4.061v3.178h-1.415v-3.178l-1.592-5.297h1.415l1.061 3.178.884-3.178h1.239l-1.592 5.297zm2.475 1.942l-.707 2.119h-.885l.177-2.119h1.415z" fill="#fff" fill-rule="evenodd"/><path d="M60.316 8.476h-1.415v8.475h1.415V8.476z" fill="#fff"/><path d="M62.086 11.654v5.297h-1.238V8.476h1.415l1.592 4.767V8.476h1.238v8.475h-1.238l-1.769-5.297zm4.598 0v5.297h-1.061V8.476h1.238l1.592 4.767V8.476h1.061v8.475h-1.238l-1.592-5.297zm3.539 3.178v-4.061c0-1.413.707-2.295 2.122-2.295s2.123.882 2.123 2.295v4.061c0 1.413-.708 2.296-2.123 2.296-1.415 0-2.122-.883-2.122-2.296zm2.83.177v-4.415c0-.53-.177-.882-.708-.882-.53 0-.707.353-.707.882v4.591c0 .53.177.883.707.883.531-.176.708-.53.708-1.06zm6.367-6.533l-1.768 8.475H76.06l-1.592-8.475h1.415l1.061 5.826 1.061-5.826h1.415zm-.884 8.475l1.592-8.475h1.592l1.592 8.475h-1.415l-.177-1.59h-1.592l-.354 1.59h-1.238zm1.769-2.649h1.238l-.53-3.354-.708 3.354zm2.476-5.826h3.715v1.236h-1.062v7.24h-1.415v-7.24h-1.238V8.476z" fill="#fff" fill-rule="evenodd"/><path d="M88.265 8.476h-1.239v8.475h1.239V8.476z" fill="#fff"/><path d="M88.972 14.832v-4.061c0-1.413.707-2.295 2.122-2.295s2.123.882 2.123 2.295v4.061c0 1.413-.708 2.296-2.123 2.296-1.592 0-2.122-.883-2.122-2.296zm2.83.177v-4.415c0-.53-.177-.882-.708-.882-.53 0-.707.353-.707.882v4.591c0 .53.177.883.707.883.354-.176.708-.53.708-1.06zm3.007-3.355v5.297h-1.238V8.476h1.415l1.592 4.767V8.476h1.239v8.475h-1.239l-1.769-5.297zM23.702 28.958l1.592-8.475h1.592l1.592 8.475h-1.415l-.177-1.59h-1.592l-.177 1.59h-1.415zm1.769-2.649h1.061l-.53-3.354-.531 3.354zm4.599-2.649v5.298h-1.238v-8.475h1.415l1.592 4.944v-4.944h1.238v8.475h-1.238l-1.769-5.297zm7.606-.882v3.885c0 1.236-.531 2.295-2.123 2.295h-2.122v-8.475h2.122c1.592 0 2.123 1.059 2.123 2.295zm-2.123 5.12c.531 0 .885-.353.885-.882V22.6c0-.53-.177-.882-.885-.882h-.53v6.18h.53z" fill="#fff" fill-rule="evenodd"/><path d="M40.683 20.483h-1.415v8.475h1.415v-8.475z" fill="#fff"/><path d="M42.275 23.66v5.298h-1.061v-8.475h1.238l1.592 4.944v-4.944h1.061v8.475h-1.061l-1.769-5.297zm3.537-3.177h3.184v1.236h-1.768v2.472h1.238v1.059h-1.238v3.708h-1.416v-8.475zm4.954 4.59v3.885h-1.415v-8.475h2.122c1.415 0 1.946.706 1.946 1.942v1.06c0 .882-.354 1.412-1.061 1.588l1.415 3.885h-1.415l-1.592-3.885zm0-3.354v2.648h.53c.531 0 .708-.176.708-.706v-1.236c0-.53-.177-.706-.708-.706h-.53z" fill="#fff" fill-rule="evenodd"/><path d="M53.596 28.958l1.592-8.475h1.592l1.592 8.475h-1.416l-.176-1.59h-1.592l-.177 1.59h-1.415zm1.945-2.649h1.239l-.531-3.354-.708 3.354zm3.007.707v-1.06h1.238v1.236c0 .53.177.707.708.707.353 0 .707-.354.707-.707v-.353c0-.53-.177-.883-.531-1.236l-.884-.883c-.707-.883-1.238-1.236-1.238-2.295v-.353c0-1.06.707-1.943 1.946-1.943 1.415 0 1.945.707 1.945 1.943v.883h-1.238v-.707c0-.53-.177-.706-.707-.706-.354 0-.708.177-.708.706v.177c0 .53.354.706.708 1.06l.884.882c.707.706 1.061 1.236 1.061 2.119v.353c0 1.236-.707 1.942-2.122 1.942s-1.769-.53-1.769-1.765zm4.068-6.533h3.715v1.236h-1.062v7.239h-1.415v-7.24h-1.238v-1.235zm5.66 4.59v3.885h-1.415v-8.475h2.123c1.415 0 1.946.706 1.946 1.942v1.06c0 .882-.354 1.412-1.062 1.588l1.415 3.885h-1.415l-1.592-3.885zm0-3.354v2.648h.531c.531 0 .708-.176.708-.706v-1.236c0-.53-.177-.706-.708-.706h-.531zm7.075-1.236v6.356c0 1.236-.53 2.119-1.945 2.119s-2.123-.883-2.123-2.119v-6.356h1.415v6.533c0 .53.177.883.708.883.53 0 .707-.354.707-.883v-6.533h1.238zm.355 6.18V22.6c0-1.412.708-2.295 2.123-2.295 1.592 0 2.122.883 2.122 2.119v1.06h-1.415v-1.06c0-.53-.177-.883-.707-.883-.531 0-.708.353-.708.883v4.59c0 .53.177.884.708.884.53 0 .707-.354.707-.883v-1.59h1.415v1.413c0 1.236-.53 2.12-2.122 2.12-1.415 0-2.123-.884-2.123-2.296zm4.422-6.18h3.891v1.236h-1.238v7.239h-1.415v-7.24h-1.238v-1.235zm8.314 0v6.356c0 1.236-.531 2.119-2.123 2.119s-2.123-.883-2.123-2.119v-6.356h1.415v6.533c0 .53.177.883.708.883.531 0 .707-.354.707-.883v-6.533h1.416zm1.945 4.59v3.885h-1.415v-8.475h2.122c1.415 0 1.946.706 1.946 1.942v1.06c0 .882-.354 1.412-1.061 1.588l1.415 3.885h-1.415l-1.592-3.885zm0-3.354v2.648h.53c.531 0 .708-.176.708-.706v-1.236c0-.53-.177-.706-.708-.706h-.53zm3.007-1.236h3.36v1.236h-1.945v2.472h1.415v1.059h-1.415v2.649h1.945v1.059h-3.36v-8.475z" fill="#fff" fill-rule="evenodd"/><path fill="#566e78" d="M20 5h78v33H20z"/><path d="M24.145 9.313h1.101V15h-1.101v-3.629L22.531 15h-1.097V9.312h1.097v3.633l1.614-3.633zM30.07 15h-1.086v-2.465h-1.609V15h-1.09V9.312h1.09v2.332h1.609V9.312h1.086V15zm4.91 1.398h-.945V15h-2.152v1.398h-.926l-.172-2.28h.211a.971.971 0 00.313-.262c.088-.113.162-.264.222-.454.06-.192.108-.43.145-.714.036-.287.062-.636.078-1.047l.156-2.328h2.809v4.804h.418l-.157 2.281zm-2.125-4.757c-.013.304-.032.58-.058.828a7.39 7.39 0 01-.094.675 4.663 4.663 0 01-.137.543 3.423 3.423 0 01-.171.43h1.23v-3.914h-.676l-.094 1.438zm4.637-.375l.371 1.05 1.188-3.004h1.195l-2.023 4.61c-.068.153-.147.3-.239.441a1.55 1.55 0 01-.324.371 1.443 1.443 0 01-.441.254 1.73 1.73 0 01-.598.094c-.185 0-.349-.016-.492-.047a6.351 6.351 0 01-.344-.078l.07-.86.122.036.152.031a1.43 1.43 0 00.644-.004.803.803 0 00.243-.11.668.668 0 00.168-.167.967.967 0 00.113-.227l.109-.242-1.984-4.101h1.187l.883 1.953zm7.188 1.953a2.149 2.149 0 01-.188.773 1.776 1.776 0 01-1.054.961 2.441 2.441 0 01-.813.129c-.336 0-.634-.061-.895-.184a1.86 1.86 0 01-.656-.52 2.394 2.394 0 01-.406-.804 3.567 3.567 0 01-.141-1.031v-.766c0-.377.05-.722.149-1.035s.239-.58.422-.805c.182-.223.402-.397.66-.519.26-.125.552-.188.875-.188.312 0 .59.045.832.133.245.089.453.215.625.38.172.163.307.364.406.6.099.238.162.505.188.801H43.59a1.86 1.86 0 00-.078-.445.795.795 0 00-.176-.316.684.684 0 00-.289-.192 1.153 1.153 0 00-.414-.066c-.169 0-.317.036-.442.11s-.229.18-.312.32c-.081.14-.141.313-.18.52a3.715 3.715 0 00-.058.694v.774c0 .56.078.974.234 1.242.159.268.409.402.75.402.286 0 .513-.075.68-.226.166-.154.259-.401.277-.742h1.098zm5.035-3.012h-1.754V15h-1.102v-4.793h-1.73v-.895h4.586v.895zm1.793 2.707V15H50.41V9.312h1.945c.31 0 .59.046.84.137.25.089.463.214.637.375.177.16.313.35.406.574.097.224.145.473.145.746 0 .256-.048.491-.145.708a1.598 1.598 0 01-.406.562 1.88 1.88 0 01-.637.367c-.25.089-.53.133-.84.133h-.847zm0-.89h.847c.157 0 .292-.024.407-.07a.807.807 0 00.457-.47.96.96 0 00.058-.332c0-.133-.019-.256-.058-.37a.812.812 0 00-.457-.505 1.024 1.024 0 00-.407-.074h-.847v1.82zm6.269-2.711h1.102V15h-1.102v-3.629L56.164 15h-1.098V9.312h1.098v3.633l1.613-3.633zm4.969 4.5h-1.707L60.703 15h-1.156l1.863-5.688h.996L64.234 15h-1.156l-.332-1.188zm-1.437-.934h1.179l-.582-2.094-.597 2.094zm7.242-3.566V15h-1.102v-4.797h-1.176l-.019 2.086a7.02 7.02 0 01-.117 1.262 2.622 2.622 0 01-.297.84 1.19 1.19 0 01-.488.465 1.533 1.533 0 01-.684.144h-.273v-.883h.156a.553.553 0 00.304-.113.613.613 0 00.18-.305 2.48 2.48 0 00.09-.55c.016-.23.026-.516.031-.86l.024-2.976h3.371zm3.64 0h1.102V15h-1.102v-3.629L70.578 15H69.48V9.312h1.098v3.633l1.613-3.633zm6.153 1.543a1.251 1.251 0 01-.235.715 1.46 1.46 0 01-.277.285c-.109.085-.233.16-.371.222.315.11.555.276.719.5.166.222.25.497.25.828 0 .266-.055.503-.164.711a1.508 1.508 0 01-.45.527c-.19.141-.419.25-.687.325a3.286 3.286 0 01-1.629.015 2.24 2.24 0 01-.676-.297 1.636 1.636 0 01-.484-.515 1.45 1.45 0 01-.184-.75h1.102a.67.67 0 00.277.55c.089.071.194.127.317.169a1.663 1.663 0 00.863 0c.133-.042.245-.1.336-.172a.74.74 0 00.207-.254.736.736 0 00.07-.32c0-.305-.086-.525-.258-.66-.169-.136-.419-.204-.75-.204h-.765v-.86h.765c.164 0 .304-.017.418-.054a.736.736 0 00.285-.164.614.614 0 00.165-.25.953.953 0 00.054-.328.727.727 0 00-.058-.29.626.626 0 00-.18-.241.89.89 0 00-.309-.16 1.358 1.358 0 00-.437-.063c-.13 0-.251.017-.363.05a.93.93 0 00-.293.145.746.746 0 00-.196.227.623.623 0 00-.07.297h-1.098c0-.25.054-.474.16-.672a1.58 1.58 0 01.442-.504c.185-.138.398-.243.64-.316a2.61 2.61 0 01.778-.114c.315 0 .601.036.859.106.258.068.477.17.656.308.183.136.323.305.422.508.099.2.149.434.149.7zm3.621 2.957h-1.707L79.922 15h-1.156l1.863-5.688h.996L83.453 15h-1.156l-.332-1.188zm-1.438-.934h1.18l-.582-2.094-.598 2.094zm7.289.05h-3.254v-.878h3.254v.879zm-66.39 5.383h1.094v4.805h1.55v-4.805h1.102v4.81h.738l-.078 2.25h-1.016V24h-3.39v-5.688zm7.523 0h1.102V24h-1.102v-3.629L27.336 24h-1.098v-5.688h1.098v3.633l1.613-3.632zM33.582 24v-2.238h-.879L31.633 24h-1.176l1.231-2.57a1.72 1.72 0 01-.692-.578 1.56 1.56 0 01-.234-.868c0-.273.048-.514.144-.722.097-.209.235-.383.414-.524.183-.14.403-.246.66-.316a3.19 3.19 0 01.868-.11h1.836V24h-1.102zm-1.723-3.95c0 .298.082.518.246.66.165.142.412.212.743.212h.734v-1.719h-.734c-.339 0-.589.074-.75.223-.159.148-.239.357-.239.625zm6.329 3.864c0 .148-.021.3-.063.457a2.373 2.373 0 01-.418.867c-.096.13-.2.246-.312.348l-.575-.297c.05-.094.095-.189.137-.285.044-.096.082-.198.113-.305a2.61 2.61 0 00.102-.734v-.914h1.019l-.003.863zm5.175-5.602h1.102V24h-1.102v-3.629L41.75 24h-1.098v-5.688h1.098v3.633l1.613-3.632zM49.289 24h-1.086v-2.465h-1.609V24h-1.09v-5.688h1.09v2.333h1.609v-2.332h1.086V24zm4.805 0h-1.086v-2.465h-1.61V24h-1.089v-5.688h1.089v2.333h1.61v-2.332h1.086V24zm5.019-2.426c0 .365-.048.7-.144 1.008a2.344 2.344 0 01-.418.793 1.93 1.93 0 01-.668.52c-.261.122-.555.183-.883.183s-.62-.061-.875-.183a1.85 1.85 0 01-.645-.52 2.397 2.397 0 01-.398-.793 3.54 3.54 0 01-.137-1.008v-.828c0-.364.046-.7.137-1.008.091-.307.224-.571.398-.793.175-.224.388-.398.641-.523.255-.125.547-.188.875-.188.331 0 .626.063.887.188.263.125.485.3.668.523.182.222.321.486.418.793.096.308.144.644.144 1.008v.828zM58 20.738c0-.231-.02-.445-.059-.64a1.598 1.598 0 00-.175-.504.903.903 0 00-.313-.328.824.824 0 00-.457-.121.779.779 0 00-.734.449 1.67 1.67 0 00-.157.504 4.1 4.1 0 00-.046.64v.836c0 .23.015.442.046.637.032.195.084.365.157.508.073.143.169.255.289.336s.269.12.449.12c.177 0 .328-.04.453-.12a.9.9 0 00.309-.332c.08-.144.14-.313.179-.508a3.27 3.27 0 00.059-.64v-.837zM59.941 24v-5.688h1.911c.309 0 .591.032.843.094.256.063.473.158.653.285a1.3 1.3 0 01.414.485c.099.195.148.426.148.691a1.275 1.275 0 01-.215.715 1.276 1.276 0 01-.613.48c.164.042.306.105.426.188s.219.182.297.297c.08.112.139.236.175.371.04.133.059.27.059.414 0 .273-.047.514-.141.723a1.386 1.386 0 01-.402.523 1.78 1.78 0 01-.637.317c-.25.07-.531.105-.843.105h-2.075zm1.102-2.508v1.621h.977c.299-.002.527-.075.683-.218a.737.737 0 00.238-.57c.003-.261-.067-.464-.211-.61-.143-.146-.364-.22-.664-.223h-1.023zm0-.793h.816c.305-.002.539-.066.703-.191.165-.125.248-.309.25-.551 0-.266-.082-.456-.246-.57-.164-.117-.401-.177-.711-.18h-.812v1.492zm6.508 2.113h-1.707L65.508 24h-1.156l1.863-5.688h.996L69.039 24h-1.156l-.332-1.188zm-1.438-.933h1.18l-.582-2.094-.598 2.094zm3.36-3.567h1.093v4.805h1.551v-4.805h1.102v4.81h.738l-.078 2.25h-1.016V24h-3.39v-5.688zm7.523 0h1.102V24h-1.102v-3.629L75.383 24h-1.098v-5.688h1.098v3.633l1.613-3.632zm4.805 0h1.101V24h-1.101v-3.629L80.188 24H79.09v-5.688h1.098v3.633l1.613-3.632zm-57.656 9h1.101V33h-1.101v-3.629L22.531 33h-1.097v-5.688h1.097v3.633l1.614-3.632zm9.609 0h1.101V33h-1.101v-3.629L32.141 33h-1.098v-5.688h1.098v3.633l1.613-3.632zM39.68 33h-1.086v-2.465h-1.61V33h-1.089v-5.688h1.089v2.333h1.61v-2.332h1.086V33zm3.679-4.922c.266.029.508.1.727.211.219.112.406.26.562.441.159.183.282.398.368.645.088.245.132.516.132.813 0 .291-.044.558-.132.8a1.915 1.915 0 01-.93 1.067c-.219.11-.461.178-.727.207V33h-1.093v-.738a2.16 2.16 0 01-.731-.207 1.883 1.883 0 01-.566-.43 1.985 1.985 0 01-.367-.629 2.379 2.379 0 01-.129-.8c0-.298.043-.57.129-.817a2.02 2.02 0 01.367-.645c.159-.185.347-.333.566-.445.222-.112.465-.182.731-.21v-.767h1.093v.766zm-1.808 2.117c0 .315.064.567.191.754a.852.852 0 00.524.356v-2.27a.85.85 0 00-.524.375c-.127.195-.191.457-.191.785zm2.511-.007c0-.326-.062-.585-.187-.778a.833.833 0 00-.516-.375v2.266c.219-.052.391-.172.516-.36s.187-.438.187-.753zm2.641.726V33h-1.098v-5.688h1.946c.31 0 .59.046.84.137.25.089.462.214.636.375.177.16.313.35.407.574.096.224.144.473.144.747 0 .255-.048.49-.144.707-.094.216-.23.403-.407.562a1.876 1.876 0 01-.636.367c-.25.089-.53.133-.84.133h-.848zm0-.89h.848c.156 0 .291-.024.406-.07a.789.789 0 00.457-.47.961.961 0 00.059-.332c0-.132-.02-.256-.059-.37a.8.8 0 00-.172-.302.78.78 0 00-.285-.203 1.022 1.022 0 00-.406-.074h-.848v1.82zm6.434 1.788H51.43L51.094 33h-1.156l1.863-5.688h.996L54.625 33h-1.156l-.332-1.188zm-1.438-.933h1.18l-.582-2.094-.598 2.094zm7.395.34a2.129 2.129 0 01-.188.773 1.776 1.776 0 01-1.054.961 2.44 2.44 0 01-.813.129c-.336 0-.634-.061-.894-.184a1.855 1.855 0 01-.657-.52 2.396 2.396 0 01-.406-.804 3.569 3.569 0 01-.141-1.031v-.766c0-.377.05-.722.149-1.035s.239-.58.422-.805c.182-.224.402-.397.66-.519.26-.125.552-.188.875-.188.312 0 .59.045.832.133.245.089.453.215.625.38.172.163.307.364.406.6.099.238.162.505.188.802h-1.094a1.86 1.86 0 00-.078-.446.795.795 0 00-.176-.316.684.684 0 00-.289-.192 1.153 1.153 0 00-.414-.066.864.864 0 00-.442.11.875.875 0 00-.312.32c-.081.14-.141.313-.18.52a3.715 3.715 0 00-.058.695v.773c0 .56.078.974.234 1.242.159.268.409.402.75.402.287 0 .513-.075.68-.226.166-.154.259-.401.277-.742h1.098zm5.035-3.012h-1.754V33h-1.102v-4.793h-1.73v-.895h4.586v.895zm1.793 2.707V33h-1.098v-5.688h1.946c.309 0 .589.046.839.137.25.089.463.214.637.375.177.16.313.35.406.574.097.224.145.473.145.747 0 .255-.048.49-.145.707a1.598 1.598 0 01-.406.562 1.88 1.88 0 01-.637.367 2.5 2.5 0 01-.839.133h-.848zm0-.89h.848c.156 0 .291-.024.406-.07a.807.807 0 00.457-.47.96.96 0 00.058-.332c0-.132-.019-.256-.058-.37a.812.812 0 00-.457-.505 1.022 1.022 0 00-.406-.074h-.848v1.82zm5.203-.758l.371 1.05 1.188-3.003h1.195l-2.024 4.609c-.067.154-.147.3-.238.441a1.55 1.55 0 01-.324.371 1.443 1.443 0 01-.441.254 1.73 1.73 0 01-.598.094c-.185 0-.349-.016-.492-.047a6.334 6.334 0 01-.344-.078l.07-.86.121.036.153.031a1.43 1.43 0 00.644-.004.786.786 0 00.242-.11.636.636 0 00.168-.167.93.93 0 00.114-.227l.109-.242-1.984-4.102h1.187l.883 1.954zm4.871 1.398h-.457V33h-1.098v-5.688h1.098v2.504h.27l1.488-2.503h1.269l-1.695 2.738L78.633 33h-1.274l-1.363-2.336zm7.352-2.457h-1.754V33h-1.102v-4.793h-1.73v-.895h4.586v.895zm2.191 1.059l.371 1.05 1.188-3.003h1.195l-2.023 4.609a3.18 3.18 0 01-.239.441 1.55 1.55 0 01-.324.371 1.443 1.443 0 01-.441.254 1.73 1.73 0 01-.598.094c-.185 0-.349-.016-.492-.047a6.352 6.352 0 01-.344-.078l.07-.86.121.036.153.031a1.43 1.43 0 00.644-.004.786.786 0 00.242-.11.636.636 0 00.168-.167.93.93 0 00.114-.227l.109-.242-1.984-4.102h1.187l.883 1.954zm4.406 1.648V33h-1.097v-5.688h1.945c.31 0 .59.046.84.137.25.089.462.214.637.375.177.16.312.35.406.574.096.224.144.473.144.747 0 .255-.048.49-.144.707a1.611 1.611 0 01-.406.562 1.892 1.892 0 01-.637.367c-.25.089-.53.133-.84.133h-.848zm0-.89h.848c.156 0 .292-.024.406-.07a.789.789 0 00.457-.47.961.961 0 00.059-.332c0-.132-.02-.256-.059-.37a.8.8 0 00-.172-.302.78.78 0 00-.285-.203 1.018 1.018 0 00-.406-.074h-.848v1.82zm6.434 1.788h-1.707L94.336 33H93.18l1.863-5.688h.996L97.867 33h-1.156l-.332-1.188zm-1.438-.933h1.18l-.582-2.094-.598 2.094z" fill="#fff"/></g></svg>