<svg width="781" height="601" viewBox="0 0 781 601" fill="none" xmlns="http://www.w3.org/2000/svg">
<path d="M656.573 461.548C645.862 477.629 626.695 487.07 601.062 490.284C575.431 493.498 543.414 490.473 507.143 481.697C434.605 464.147 345.187 423.631 256.099 364.291C167.012 304.952 95.1656 238.053 51.0179 177.882C28.9425 147.794 13.8126 119.415 6.90097 94.5254C-0.0112634 69.6334 1.31441 48.309 12.0253 32.2285C22.7362 16.1481 41.9027 6.70707 67.5358 3.4929C93.1668 0.279004 125.184 3.30404 161.455 12.0796C233.992 29.6294 323.411 70.146 412.499 129.486C501.586 188.825 573.432 255.723 617.58 315.895C639.655 345.982 654.785 374.361 661.697 399.251C668.609 424.143 667.284 445.468 656.573 461.548Z" stroke="#00B775" stroke-width="1.19105"/>
<path d="M768.51 568.771C757.799 584.851 738.633 594.292 713 597.506C687.369 600.72 655.351 597.695 619.08 588.92C546.543 571.37 457.125 530.853 368.037 471.514C278.949 412.174 207.103 345.276 162.955 285.105C140.88 255.017 125.75 226.638 118.838 201.748C111.926 176.856 113.252 155.532 123.963 139.451C134.674 123.371 153.84 113.93 179.473 110.716C205.104 107.502 237.122 110.527 273.393 119.302C345.93 136.852 435.348 177.369 524.436 236.708C613.524 296.048 685.37 362.946 729.518 423.117C751.593 453.205 766.723 481.584 773.634 506.474C780.547 531.366 779.221 552.69 768.51 568.771Z" stroke="#00B775" stroke-width="1.19105"/>
<path d="M768.51 518.96C757.799 535.041 738.633 544.482 713 547.696C687.369 550.91 655.351 547.885 619.08 539.109C546.543 521.559 457.125 481.043 368.037 421.703C278.949 362.364 207.103 295.466 162.955 235.294C140.88 205.206 125.75 176.827 118.838 151.938C111.926 127.046 113.252 105.721 123.963 89.6407C134.674 73.5602 153.84 64.1192 179.473 60.905C205.104 57.6911 237.122 60.7161 273.393 69.4917C345.93 87.0415 435.348 127.558 524.436 186.898C613.524 246.237 685.37 313.135 729.518 373.307C751.593 403.395 766.723 431.774 773.634 456.663C780.547 481.555 779.221 502.88 768.51 518.96Z" stroke="#E74321" stroke-width="1.19105"/>
</svg>
