<svg width="871" height="672" viewBox="0 0 871 672" fill="none" xmlns="http://www.w3.org/2000/svg">
<path d="M733.274 515.707C721.289 533.7 699.848 544.257 671.191 547.85C642.537 551.443 606.748 548.061 566.21 538.253C485.14 518.638 385.207 473.357 285.646 407.041C186.084 340.725 105.789 265.961 56.4478 198.711C31.7756 165.084 14.8627 133.362 7.13582 105.536C-0.591665 77.7086 0.886494 53.8551 12.8715 35.8618C24.8564 17.8684 46.298 7.31208 74.9544 3.71882C103.609 0.125836 139.398 3.50806 179.935 13.3159C261.006 32.9303 360.939 78.212 460.5 144.528C560.061 210.843 640.357 285.608 689.698 352.858C714.37 386.485 731.283 418.207 739.01 446.032C746.737 473.86 745.259 497.714 733.274 515.707Z" stroke="#00B775" stroke-width="1.19105"/>
<path d="M858.368 635.527C846.383 653.521 824.941 664.077 796.285 667.67C767.631 671.263 731.842 667.881 691.304 658.073C610.234 638.459 510.301 593.177 410.739 526.861C311.178 460.546 230.883 385.781 181.542 318.531C156.869 284.904 139.956 253.182 132.23 225.357C124.502 197.529 125.98 173.675 137.965 155.682C149.95 137.689 171.392 127.132 200.048 123.539C228.702 119.946 264.491 123.328 305.029 133.136C386.1 152.751 486.033 198.032 585.594 264.348C685.155 330.664 765.45 405.428 814.792 472.678C839.464 506.306 856.377 538.027 864.104 565.853C871.831 593.68 870.353 617.534 858.368 635.527Z" stroke="#00B775" stroke-width="1.19105"/>
<path d="M858.368 579.867C846.383 597.861 824.941 608.417 796.285 612.01C767.631 615.603 731.842 612.221 691.304 602.413C610.234 582.799 510.301 537.517 410.739 471.201C311.178 404.886 230.883 330.121 181.542 262.871C156.869 229.244 139.956 197.522 132.23 169.697C124.502 141.869 125.98 118.015 137.965 100.022C149.95 82.0286 171.392 71.4722 200.048 67.879C228.702 64.286 264.491 67.6682 305.029 77.4761C386.1 97.0905 486.033 142.372 585.594 208.688C685.155 275.004 765.45 349.768 814.792 417.018C839.464 450.645 856.377 482.367 864.104 510.192C871.831 538.02 870.353 561.874 858.368 579.867Z" stroke="#E74321" stroke-width="1.19105"/>
</svg>
